<svg xmlns="http://www.w3.org/2000/svg" xmlns:xlink="http://www.w3.org/1999/xlink" width="108" height="108" viewBox="0 0 108 108">
  <defs>
    <clipPath id="clip-path">
      <path id="path465" d="M0-682.665H78.581v78.581H0Z" transform="translate(0 682.665)"/>
    </clipPath>
  </defs>
  <g id="Grupo_1043091" data-name="Grupo 1043091" transform="translate(-915 -13386)">
    <g id="Grupo_1043090" data-name="Grupo 1043090" transform="translate(559 6544)">
      <rect id="Rectángulo_33830" data-name="Rectángulo 33830" width="108" height="108" rx="12" transform="translate(356 6842)" fill="#fff2be"/>
    </g>
    <g id="g459" transform="translate(930 14083.665)">
      <g id="g461" transform="translate(0 -682.665)">
        <g id="g463" clip-path="url(#clip-path)">
          <g id="g469" transform="translate(20.64 1.151)">
            <path id="path471" d="M-350.874-416.446h-44.188a1.455,1.455,0,0,1-1.454-1.455v-51.264a1.455,1.455,0,0,1,1.454-1.454h44.188a1.455,1.455,0,0,1,1.455,1.454V-417.9a1.455,1.455,0,0,1-1.455,1.455" transform="translate(396.516 470.619)" fill="#a6e7f0"/>
          </g>
          <g id="g473" transform="translate(58.424 1.151)">
            <path id="path475" d="M-60.417,0h-7.859a1.455,1.455,0,0,1,1.455,1.455V52.718a1.455,1.455,0,0,1-1.455,1.455h7.859a1.455,1.455,0,0,0,1.455-1.455V1.455A1.455,1.455,0,0,0-60.417,0" transform="translate(68.276)" fill="#6bd9e7"/>
          </g>
          <g id="g477" transform="translate(15.742 6.554)">
            <path id="path479" d="M-350.874-416.446h-44.188a1.455,1.455,0,0,1-1.454-1.455v-51.264a1.455,1.455,0,0,1,1.454-1.454h44.188a1.455,1.455,0,0,1,1.455,1.454V-417.9a1.455,1.455,0,0,1-1.455,1.455" transform="translate(396.516 470.619)" fill="#eaf9fa"/>
          </g>
          <g id="g481" transform="translate(53.525 6.554)">
            <path id="path483" d="M-60.417,0h-7.859a1.455,1.455,0,0,1,1.455,1.455V52.718a1.455,1.455,0,0,1-1.455,1.455h7.859a1.455,1.455,0,0,0,1.455-1.455V1.455A1.455,1.455,0,0,0-60.417,0" transform="translate(68.276)" fill="#d4f3f6"/>
          </g>
          <g id="g485" transform="translate(20.64 12.894)">
            <path id="path487" d="M-80.414-26.3h-2.63v-2.63a.791.791,0,0,0-.791-.791h-2.827a.791.791,0,0,0-.791.791v2.63h-2.63a.791.791,0,0,0-.791.791v2.827a.791.791,0,0,0,.791.791h2.63v2.63a.791.791,0,0,0,.791.791h2.827a.791.791,0,0,0,.791-.791v-2.63h2.63a.791.791,0,0,0,.791-.791v-2.827a.791.791,0,0,0-.791-.791" transform="translate(90.874 29.721)" fill="#fd4755"/>
          </g>
          <g id="g489" transform="translate(5.992 31.562)">
            <path id="path491" d="M-494.234-352.609H-556.22a2.306,2.306,0,0,1-2.306-2.306v-41.257a2.306,2.306,0,0,1,2.306-2.306h16.61a2.306,2.306,0,0,1,1.944,1.066l3.595,5.638a2.306,2.306,0,0,0,1.944,1.066h37.892a2.306,2.306,0,0,1,2.306,2.306v33.486a2.306,2.306,0,0,1-2.306,2.306" transform="translate(558.525 398.478)" fill="#fee97d"/>
          </g>
          <g id="g493" transform="translate(16.061 31.562)">
            <path id="path495" d="M-14.946-8.2l3.594,5.638A2.306,2.306,0,0,0-9.408-1.492H-.56A2.306,2.306,0,0,1-2.5-2.558L-6.1-8.2A2.306,2.306,0,0,0-8.043-9.263h-8.847A2.306,2.306,0,0,1-14.946-8.2" transform="translate(16.891 9.263)" fill="#fddf30"/>
          </g>
          <g id="g497" transform="translate(61.436 39.332)">
            <path id="path499" d="M-68.011,0h-8.847a2.306,2.306,0,0,1,2.306,2.306V35.792A2.306,2.306,0,0,1-76.858,38.1h8.847a2.306,2.306,0,0,0,2.306-2.306V2.306A2.306,2.306,0,0,0-68.011,0" transform="translate(76.858)" fill="#fddf30"/>
          </g>
          <g id="g501" transform="translate(16.988 69.962)">
            <path id="path503" d="M-342.9-57.412h-44.606l2.07-5.894a2.354,2.354,0,0,1,2.221-1.574h36.024a2.355,2.355,0,0,1,2.221,1.574Z" transform="translate(387.507 64.88)" fill="#cb97e7"/>
          </g>
          <g id="g505" transform="translate(49.069 69.962)">
            <path id="path507" d="M-80.369-12.1a2.354,2.354,0,0,0-2.222-1.574h-8.233A2.354,2.354,0,0,1-88.6-12.1l2.07,5.894H-78.3Z" transform="translate(90.824 13.677)" fill="#bd80e1"/>
          </g>
          <g id="g509" transform="translate(10.972 36.306)">
            <path id="path511" d="M-110.032-35.361h-13.586a.727.727,0,0,1-.727-.727v-3.146a.727.727,0,0,1,.727-.727h11.331a.727.727,0,0,1,.632.368l2.017,3.554a.453.453,0,0,1-.394.677" transform="translate(124.345 39.961)" fill="#a6e7f0"/>
          </g>
          <g id="g513" transform="translate(18.181 36.306)">
            <path id="path515" d="M-57.645-30.156l-2.017-3.554a.727.727,0,0,0-.632-.368h-4.85a.727.727,0,0,1,.632.368l2.017,3.554a.453.453,0,0,1-.394.677h4.849a.453.453,0,0,0,.394-.677" transform="translate(65.144 34.079)" fill="#6bd9e7"/>
          </g>
          <g id="g517" transform="translate(20.294 0.806)">
            <path id="path519" d="M44.443-11.062a.345.345,0,0,1-.345-.345V-48.133a1.111,1.111,0,0,0-1.11-1.11H-1.2a1.111,1.111,0,0,0-1.11,1.11v3.947a.345.345,0,0,1-.345.345A.345.345,0,0,1-3-44.185v-3.947a1.8,1.8,0,0,1,1.8-1.8H42.988a1.8,1.8,0,0,1,1.8,1.8v36.726A.345.345,0,0,1,44.443-11.062Z" transform="translate(3 49.933)"/>
          </g>
          <g id="g521" transform="translate(5.647 31.216)">
            <path id="path523" d="M-496.889-354.919h-61.986a2.654,2.654,0,0,1-2.651-2.651v-41.257a2.654,2.654,0,0,1,2.651-2.651h16.61a2.639,2.639,0,0,1,2.235,1.226l3.595,5.639a1.952,1.952,0,0,0,1.653.907h37.892a2.654,2.654,0,0,1,2.651,2.651v33.486A2.654,2.654,0,0,1-496.889-354.919Zm-61.986-45.868a1.963,1.963,0,0,0-1.96,1.96v41.257a1.963,1.963,0,0,0,1.96,1.96h61.986a1.963,1.963,0,0,0,1.96-1.96v-33.486a1.963,1.963,0,0,0-1.96-1.96h-37.892a2.639,2.639,0,0,1-2.235-1.226l-3.595-5.639a1.951,1.951,0,0,0-1.653-.907Z" transform="translate(561.525 401.478)"/>
          </g>
          <g id="g525" transform="translate(16.642 69.616)">
            <path id="path527" d="M-259.048,5.159h-44.606a.345.345,0,0,1-.282-.146.345.345,0,0,1-.044-.314l2.069-5.894A2.7,2.7,0,0,1-299.363-3h24.968a.345.345,0,0,1,.345.345.345.345,0,0,1-.345.345h-24.968a2.012,2.012,0,0,0-1.9,1.343l-1.908,5.434h43.631l-1.908-5.434a2.012,2.012,0,0,0-1.9-1.343h-5.667a.345.345,0,0,1-.345-.345A.345.345,0,0,1-269.006-3h5.667a2.7,2.7,0,0,1,2.547,1.805l2.07,5.894a.345.345,0,0,1-.044.314A.345.345,0,0,1-259.048,5.159Z" transform="translate(303.999 3)"/>
          </g>
          <g id="g529" transform="translate(15.397 6.208)">
            <path id="path531" d="M44.442-139.134a.345.345,0,0,1-.345-.345V-170.8a1.11,1.11,0,0,0-1.108-1.11H-1.2a1.11,1.11,0,0,0-1.108,1.11v18.068a.345.345,0,0,1-.345.345A.345.345,0,0,1-3-152.735V-170.8a1.8,1.8,0,0,1,1.8-1.8h44.19a1.8,1.8,0,0,1,1.8,1.8v31.323A.345.345,0,0,1,44.442-139.134Z" transform="translate(3 172.604)"/>
          </g>
          <g id="g533" transform="translate(10.627 35.961)">
            <path id="path535" d="M-112.686-37.671h-13.586a1.074,1.074,0,0,1-1.073-1.073v-3.146a1.074,1.074,0,0,1,1.073-1.073h11.331a1.074,1.074,0,0,1,.933.543l2.017,3.554a.791.791,0,0,1,0,.8A.791.791,0,0,1-112.686-37.671Zm-13.586-4.6a.382.382,0,0,0-.382.382v3.146a.382.382,0,0,0,.382.382h13.586a.1.1,0,0,0,.093-.054l-2.016-3.662a.383.383,0,0,0-.332-.193Z" transform="translate(127.345 42.961)"/>
          </g>
          <g id="g537" transform="translate(20.295 12.549)">
            <path id="path539" d="M-89.317-32.721h2.827a1.138,1.138,0,0,1,1.136,1.136V-29.3h2.285a1.137,1.137,0,0,1,1.136,1.136v2.827A1.138,1.138,0,0,1-83.069-24.2h-2.285v2.285a1.138,1.138,0,0,1-1.136,1.136h-2.827a1.138,1.138,0,0,1-1.136-1.136V-24.2h-2.285a1.138,1.138,0,0,1-1.136-1.136v-2.827A1.137,1.137,0,0,1-92.738-29.3h2.285v-2.285A1.138,1.138,0,0,1-89.317-32.721Zm6.248,7.83a.446.446,0,0,0,.446-.446v-2.827a.446.446,0,0,0-.446-.446H-85.7a.345.345,0,0,1-.345-.345v-2.63a.446.446,0,0,0-.446-.446h-2.827a.446.446,0,0,0-.446.446v2.63a.345.345,0,0,1-.345.345h-2.63a.446.446,0,0,0-.446.446v2.827a.446.446,0,0,0,.446.446h2.63a.345.345,0,0,1,.345.345v2.63a.446.446,0,0,0,.446.446h2.827a.446.446,0,0,0,.446-.446v-2.63a.345.345,0,0,1,.345-.345Z" transform="translate(93.874 32.721)"/>
          </g>
          <g id="g541" transform="translate(38.979 14.504)">
            <path id="path543" d="M2.014-2.309H-2.655A.345.345,0,0,1-3-2.655.345.345,0,0,1-2.655-3H2.014a.345.345,0,0,1,.345.345A.345.345,0,0,1,2.014-2.309Z" transform="translate(3 3)"/>
          </g>
          <g id="g545" transform="translate(38.979 19.103)">
            <path id="path547" d="M14.946-2.309h-17.6A.345.345,0,0,1-3-2.655.345.345,0,0,1-2.655-3h17.6a.345.345,0,0,1,.345.345A.345.345,0,0,1,14.946-2.309Z" transform="translate(3 3)"/>
          </g>
          <g id="g549" transform="translate(38.979 23.703)">
            <path id="path551" d="M14.946-2.309h-17.6A.345.345,0,0,1-3-2.655.345.345,0,0,1-2.655-3h17.6a.345.345,0,0,1,.345.345A.345.345,0,0,1,14.946-2.309Z" transform="translate(3 3)"/>
          </g>
          <g id="g553" transform="translate(38.979 28.407)">
            <path id="path555" d="M14.946-2.309h-17.6A.345.345,0,0,1-3-2.655.345.345,0,0,1-2.655-3h17.6a.345.345,0,0,1,.345.345A.345.345,0,0,1,14.946-2.309Z" transform="translate(3 3)"/>
          </g>
          <g id="g557" transform="translate(38.979 33.007)">
            <path id="path559" d="M14.946-2.309h-17.6A.345.345,0,0,1-3-2.655.345.345,0,0,1-2.655-3h17.6a.345.345,0,0,1,.345.345A.345.345,0,0,1,14.946-2.309Z" transform="translate(3 3)"/>
          </g>
          <g id="g561" transform="translate(62.494 43.536)">
            <path id="path563" d="M2.494,2.839a.345.345,0,0,1-.345-.345v-4.8h-4.8A.345.345,0,0,1-3-2.655.345.345,0,0,1-2.655-3H2.494a.345.345,0,0,1,.345.345V2.494A.345.345,0,0,1,2.494,2.839Z" transform="translate(3 3)"/>
          </g>
        </g>
      </g>
    </g>
  </g>
</svg>
