<svg xmlns="http://www.w3.org/2000/svg" width="295" height="192" viewBox="0 0 295 192">
  <g id="Grupo_1044594" data-name="Grupo 1044594" transform="translate(-180 -6758)">
    <g id="Grupo_1043965" data-name="Grupo 1043965" transform="translate(-105 -25460)">
      <rect id="Rectángulo_355909" data-name="Rectángulo 355909" width="295" height="192" transform="translate(285 32218)" fill="#f7e4f3"/>
    </g>
    <g id="embarazada-" transform="translate(207.703 6735.189)">
      <circle id="Elipse_5025" data-name="Elipse 5025" cx="65.5" cy="65.5" r="65.5" transform="translate(41.297 47.811)" fill="#f9d7f7"/>
      <g id="Grupo_1044591" data-name="Grupo 1044591" transform="translate(51.764 64.079)">
        <path id="Trazado_774502" data-name="Trazado 774502" d="M64.651,91.141a2.906,2.906,0,0,1-2.054-4.96L73.271,75.507a2.905,2.905,0,0,1,4.108,4.108L66.7,90.29a2.9,2.9,0,0,1-2.054.851Z" transform="translate(-57.409 -74.657)" fill="#4c241d"/>
        <path id="Trazado_774503" data-name="Trazado 774503" d="M75.325,91.141a2.9,2.9,0,0,1-2.054-.851L62.6,79.616A2.905,2.905,0,0,1,66.7,75.507L77.379,86.182a2.906,2.906,0,0,1-2.054,4.96Z" transform="translate(-57.409 -74.657)" fill="#4c241d"/>
        <circle id="Elipse_5026" data-name="Elipse 5026" cx="3.106" cy="3.106" r="3.106" transform="translate(0 53.04)" fill="#4c241d"/>
      </g>
      <path id="Trazado_774504" data-name="Trazado 774504" d="M199.676,71.964,170.621,40H103.793c.463-.038,36.757,56.248,5.811,84.261-20.435,18.5-31.961,49.394,0,75.544h78.45c-8.717-8.717-1.453-15.98-1.453-15.98,56.658-62.469-8.717-95.883-8.717-95.883l15.98-4.358Z" transform="translate(-13.301 -1.096)" fill="#ffded5"/>
      <path id="Trazado_774505" data-name="Trazado 774505" d="M167.192,119.3s20.339-8.717,23.244,11.622c0,0,34.867,8.717,14.528,43.583S173,203.564,173,203.564,152.665,221,132.326,209.375,117.8,168.7,138.137,162.887s13.075-10.169,15.981-21.792,5.811-17.433,13.075-21.792Z" transform="translate(-21.494 -22.286)" fill="#b5a19c"/>
      <path id="Trazado_774506" data-name="Trazado 774506" d="M108.509,201.618a2.9,2.9,0,0,1-1.838-.657c-13.544-11.082-20.587-23.724-20.933-37.577-.365-14.616,7.224-30.059,20.824-42.369,28.259-25.581-4.5-77.893-5.98-80.118a2.906,2.906,0,0,1,1.878-4.884c1.982-.149,2.656.747,5.948,6.508a138.761,138.761,0,0,1,6.718,13.458c7.573,17.466,17.039,49.7-4.665,69.344C98.118,136.5,91.224,150.316,91.548,163.239c.3,12.085,6.628,23.263,18.8,33.225a2.905,2.905,0,0,1-1.843,5.154Z" transform="translate(-12.206 0)" fill="#4c241d"/>
      <path id="Trazado_774507" data-name="Trazado 774507" d="M217.432,201.619a2.9,2.9,0,0,1-2.054-.851c-5.465-5.463-5.6-10.639-4.76-14.019a13.87,13.87,0,0,1,3.307-6.07c17.334-19.117,24.627-37.312,21.58-53.979-4.415-24.155-29.313-37.134-29.565-37.261a2.906,2.906,0,0,1,1.125-5.486c.185-.013,17.838-1.359,19.021-11.947C214.537,60.314,197.963,41,197.793,40.8a2.906,2.906,0,0,1,4.413-3.782c.173.2,17.5,20.388,28.9,31.8a2.906,2.906,0,0,1,.851,2.054c0,10.881-9.569,15.535-16.756,17.5,8.513,5.973,22.57,18.425,26.018,37.287,3.391,18.54-4.378,38.4-23.09,59.032-.935.973-4.89,5.729,1.355,11.974a2.9,2.9,0,0,1-2.056,4.959Z" transform="translate(-42.679 -0.002)" fill="#4c241d"/>
      <path id="Trazado_774508" data-name="Trazado 774508" d="M190.212,147.192s14.534-4.6,21.652,2.746,2,26.547-5.381,36.074c-11.24,14.512-21.877,11.713-21.877,11.713s-8.173-16.416-6.361-23.819,8.23-17.6,8.23-17.6-9.609.787-7.6-4.214a86.432,86.432,0,0,0,3.194-9.658s-7.06-6.145,1.292-8.443,12.546,2.539,12.241,7.228a54.2,54.2,0,0,0-.108,7.092" transform="translate(-37.45 -26.65)" fill="#ffded5"/>
      <g id="Grupo_1044592" data-name="Grupo 1044592" transform="translate(136.842 102.907)">
        <path id="Trazado_774509" data-name="Trazado 774509" d="M188.247,204.407a12.622,12.622,0,0,1-2.98-.3,2.906,2.906,0,0,1,1.445-5.63c.437.1,9.139,1.892,18.872-10.673,7.152-9.233,11.149-26.541,5.592-32.272-5.773-5.956-18.567-2.04-18.694-2a2.906,2.906,0,0,1-1.748-5.543c.661-.21,16.342-5.037,24.614,3.495,8.595,8.866,2.581,29.873-5.17,39.876-8.789,11.351-17.5,13.048-21.931,13.048Z" transform="translate(-175.692 -133.126)" fill="#4c241d"/>
        <path id="Trazado_774510" data-name="Trazado 774510" d="M195.495,195a3.115,3.115,0,0,1-.338-.02,2.906,2.906,0,0,1-2.554-3.219c.688-5.981.668-16.738-2.311-20.132a2.146,2.146,0,0,0-1.7-.84H188.5c-5.652,0-9.108,8.755-9.877,11.838a2.905,2.905,0,1,1-5.638-1.4c1.509-6.058,6.466-16.244,15.5-16.244h.187a7.962,7.962,0,0,1,5.981,2.821c5.637,6.426,3.928,22.785,3.714,24.629a2.9,2.9,0,0,1-2.88,2.572Z" transform="translate(-172.901 -138.197)" fill="#4c241d"/>
        <path id="Trazado_774511" data-name="Trazado 774511" d="M194.693,146.8a2.915,2.915,0,0,1-2.873-3.365c.445-2.8.375-7.613-1.189-9.07-.187-.174-.75-.7-2.538-.284-5.237,1.223-6.312,2.227-6.5,2.453a15.462,15.462,0,0,0,1.965,2.433,2.905,2.905,0,1,1-4.174,4.043c-2.056-2.121-4.3-4.967-3.355-8.169,1.084-3.69,5.8-5.266,10.738-6.418,3.977-.925,6.451.411,7.827,1.7,4.449,4.154,3.124,13.221,2.959,14.241A2.9,2.9,0,0,1,194.693,146.8Z" transform="translate(-173.697 -128.111)" fill="#4c241d"/>
        <path id="Trazado_774512" data-name="Trazado 774512" d="M190.419,162.565c-4.491,0-9.32-.832-12.452-2.836a7.606,7.606,0,0,1-3.842-6.585c.14-8.922,11.011-14.251,11.475-14.474a2.906,2.906,0,0,1,2.52,5.237c-2.255,1.1-8.114,4.907-8.183,9.328,0,.254-.015.848,1.162,1.6,3.784,2.42,13.315,2.319,16.29.891a2.906,2.906,0,1,1,2.517,5.238c-2.075,1-5.658,1.6-9.486,1.6Z" transform="translate(-173.236 -130.922)" fill="#4c241d"/>
        <path id="Trazado_774513" data-name="Trazado 774513" d="M186.377,199.307q-.111,0-.224-.009a2.906,2.906,0,0,1-2.676-3.118,28.665,28.665,0,0,1,2.836-9.784,2.905,2.905,0,0,1,5.159,2.675,23,23,0,0,0-2.2,7.551A2.9,2.9,0,0,1,186.377,199.307Z" transform="translate(-175.792 -143.63)" fill="#4c241d"/>
      </g>
      <g id="Grupo_1044593" data-name="Grupo 1044593" transform="translate(107.926 141.48)">
        <path id="Trazado_774514" data-name="Trazado 774514" d="M174.64,209.86c-3.025,7.177-11.019,12.318-19.064,12.318a18.483,18.483,0,0,1-18.483-18.483,20.328,20.328,0,0,1,.966-6.4c1.794-5.442,7.169-8.649,12.9-8.6a5.845,5.845,0,0,0,5.86-3.465l.01-.007c7.1-.331,13.96,5.324,17.23,11.076" transform="translate(-134.187 -182.307)" fill="#ffded5"/>
        <path id="Trazado_774515" data-name="Trazado 774515" d="M154.481,223.99A21.413,21.413,0,0,1,133.093,202.6a23.338,23.338,0,0,1,1.112-7.307c2.1-6.353,8.322-10.6,15.525-10.6.076,0,.147,0,.222,0,2.059,0,2.734-.883,3.121-1.748a2.877,2.877,0,0,1,.6-.867,2.926,2.926,0,0,1,1.929-.856c8.537-.4,16.3,6.222,19.891,12.543a2.906,2.906,0,1,1-5.053,2.871c-2.587-4.555-7.756-9.044-13.078-9.569a8.82,8.82,0,0,1-7.411,3.436c-.068,0-.143,0-.217,0-4.687,0-8.7,2.643-10.006,6.6a17.513,17.513,0,0,0-.82,5.488,15.6,15.6,0,0,0,15.577,15.577c6.92,0,13.812-4.434,16.387-10.541a2.9,2.9,0,0,1,5.354,2.255c-3.5,8.3-12.438,14.1-21.741,14.1Zm1.25-39.856h.028Z" transform="translate(-133.093 -181.213)" fill="#4c241d"/>
      </g>
      <circle id="Elipse_5027" data-name="Elipse 5027" cx="2.096" cy="2.096" r="2.096" transform="translate(127.4 151.868)" fill="#4c241d"/>
      <path id="Trazado_774516" data-name="Trazado 774516" d="M87.262,144.342a10.169,10.169,0,1,1,10.169-10.169A10.182,10.182,0,0,1,87.262,144.342Zm0-14.528a4.358,4.358,0,1,0,4.358,4.358A4.363,4.363,0,0,0,87.262,129.814Z" transform="translate(-9.845 -24.079)" fill="#4c241d"/>
      <path id="Trazado_774517" data-name="Trazado 774517" d="M209.575,107.791a2.9,2.9,0,0,1-1.1-.22l-3.949-1.624a2.906,2.906,0,0,1,2.21-5.375l3.949,1.624a2.907,2.907,0,0,1-1.106,5.595Z" transform="translate(-44.218 -17.608)" fill="#4c241d"/>
    </g>
  </g>
</svg>
