<svg xmlns="http://www.w3.org/2000/svg" width="190" height="173" viewBox="0 0 190 173">
  <g id="Grupo_1043089" data-name="Grupo 1043089" transform="translate(-285 -12914)">
    <rect id="Rectángulo_355757" data-name="Rectángulo 355757" width="190" height="173" transform="translate(285 12914)" fill="#e3dff1"/>
    <g id="busqueda-de-personalidad" transform="translate(-555.882 12280.393)">
      <path id="Trazado_772135" data-name="Trazado 772135" d="M990.746,734.933c1.619-3.227,6.992-15.46,5.045-32.363-1.138-9.883-2.379-17.385-2.4-17.459,0-.015-.008-.031-.011-.047a34.8,34.8,0,0,0-7.5-13.842,36.309,36.309,0,0,0-12.676-9.3,50.519,50.519,0,0,0-21.725-3.911c-14.1.294-24.078,3.495-31.232,9.511a23.131,23.131,0,0,0-8.653,17.822V693.9c.021.078.23,17.169.23,17.169,0,.178-7.865,13.31-7.865,13.31-.111.325-1.21,1.834-.319,3.313,1.005,1.669,2.864,2.807,6.454,3.292.488.066,1.646.47,1.646.952l-.113,15.395c0,9.839,9.112,17.488,17.415,17.816h9.477s4.2.184,5.816,2.068c.719.839.951,3.065.961,4.521a3.686,3.686,0,0,0,3.7,3.68h30.105a3.678,3.678,0,0,0,3.718-3.638V759.494a37.953,37.953,0,0,1,.28-4.594l16.675,16.514a9.794,9.794,0,0,0,13.85-.069,9.805,9.805,0,0,0-.069-13.85Z" transform="translate(-24.566 -0.001)" fill="#fff"/>
      <g id="Grupo_1043088" data-name="Grupo 1043088" transform="translate(877.91 657.991)">
        <g id="Grupo_1043064" data-name="Grupo 1043064" transform="translate(0.814 0)">
          <path id="Trazado_772136" data-name="Trazado 772136" d="M995.788,702.569c-1.138-9.883-2.379-17.385-2.4-17.459,0-.015-.008-.031-.011-.047a34.8,34.8,0,0,0-7.5-13.842,36.31,36.31,0,0,0-12.676-9.3,50.517,50.517,0,0,0-21.725-3.911c-14.1.294-24.078,3.494-31.232,9.511a23.131,23.131,0,0,0-8.653,17.822V693.9c.021.078.23,17.169.23,17.169,0,.178-7.865,13.31-7.865,13.31-.111.325-1.21,1.834-.319,3.313,1.005,1.669,2.864,2.807,6.454,3.292.488.066,1.646.47,1.646.952l-.113,15.395c0,9.839,9.112,17.488,17.415,17.816h9.477s4.2.184,5.816,2.068c.719.839.951,3.065.961,4.521a3.686,3.686,0,0,0,3.7,3.68h30.105a3.679,3.679,0,0,0,3.718-3.638V759.493a38.523,38.523,0,0,1,4.4-17.815l3.093-5.9C990.3,735.764,998.069,722.37,995.788,702.569Z" transform="translate(-903.288 -657.991)" fill="#fff8e8"/>
        </g>
        <g id="Grupo_1043065" data-name="Grupo 1043065" transform="translate(24.674 21.861)">
          <path id="Trazado_772137" data-name="Trazado 772137" d="M1656.022,1397.055c-12.344-13.131-12.443-34.6-.222-47.867a30.26,30.26,0,0,1,22.229-10.033h.161a30.223,30.223,0,0,1,22.159,9.795,34.913,34.913,0,0,1,9.337,23.884,35.78,35.78,0,0,1-3.3,15.286.982.982,0,0,0-.09.188,33.968,33.968,0,0,1-5.727,8.509,31.833,31.833,0,0,1-7.868,6.241.885.885,0,0,0-.171.1,29.624,29.624,0,0,1-14.189,3.695A30.232,30.232,0,0,1,1656.022,1397.055Z" transform="translate(-1646.699 -1339.155)" fill="#ffd55e"/>
        </g>
        <g id="Grupo_1043066" data-name="Grupo 1043066" transform="translate(70.522 73.007)">
          <path id="Trazado_772138" data-name="Trazado 772138" d="M3115.873,2973.115a9.793,9.793,0,0,1-13.85.069l-26.767-26.509a35.915,35.915,0,0,0,13.772-13.906l26.776,26.5A9.805,9.805,0,0,1,3115.873,2973.115Z" transform="translate(-3075.256 -2932.769)" fill="#bac5ff"/>
        </g>
        <g id="Grupo_1043067" data-name="Grupo 1043067" transform="translate(35.395 37.208)">
          <path id="Trazado_772139" data-name="Trazado 772139" d="M1991.912,1834.858a.984.984,0,0,0-.725.877.955.955,0,0,0,.007.22v5.675a1.6,1.6,0,0,1-3.2,0v-8.142a1.671,1.671,0,0,1,1.669-1.669,5.576,5.576,0,1,0-5.575-5.576,1.669,1.669,0,0,1-3.338,0,8.913,8.913,0,1,1,11.162,8.614Z" transform="translate(-1980.75 -1817.331)" fill="#ff9194"/>
        </g>
        <g id="Grupo_1043068" data-name="Grupo 1043068" transform="translate(41.557 68.846)">
          <path id="Trazado_772140" data-name="Trazado 772140" d="M2175.432,2808.5a2.682,2.682,0,1,1,2.682-2.682A2.685,2.685,0,0,1,2175.432,2808.5Z" transform="translate(-2172.75 -2803.14)" fill="#ff9194"/>
        </g>
        <g id="Grupo_1043069" data-name="Grupo 1043069" transform="translate(62.611 37.208)">
          <path id="Trazado_772141" data-name="Trazado 772141" d="M2828.785,1819.123a1.792,1.792,0,1,1,3.583,0v22.316a1.792,1.792,0,0,1-1.889,1.789,1.9,1.9,0,0,1-1.694-1.946Z" transform="translate(-2828.785 -1817.331)" fill="#ff9194"/>
        </g>
        <g id="Grupo_1043070" data-name="Grupo 1043070" transform="translate(60.591 67.736)">
          <circle id="Elipse_4813" data-name="Elipse 4813" cx="2.682" cy="2.682" r="2.682" transform="translate(0 3.792) rotate(-45)" fill="#ff9194"/>
        </g>
        <g id="Grupo_1043087" data-name="Grupo 1043087" transform="translate(0 19.885)">
          <g id="Grupo_1043083" data-name="Grupo 1043083" transform="translate(17.111)">
            <g id="Grupo_1043075" data-name="Grupo 1043075">
              <g id="Grupo_1043073" data-name="Grupo 1043073" transform="translate(50.784 50.497)">
                <g id="Grupo_1043071" data-name="Grupo 1043071" transform="translate(0 0)">
                  <path id="Trazado_772142" data-name="Trazado 772142" d="M3029.706,2898.842a11.691,11.691,0,0,1-8.279-3.406l-27.71-27.443a.988.988,0,1,1,1.391-1.4l27.71,27.442a9.793,9.793,0,0,0,13.85-.069,9.806,9.806,0,0,0-.069-13.85l-27.72-27.43a.988.988,0,1,1,1.39-1.4l27.72,27.43a11.77,11.77,0,0,1-8.222,20.134Z" transform="translate(-2993.424 -2850.991)" fill="#1a2157"/>
                </g>
                <g id="Grupo_1043072" data-name="Grupo 1043072" transform="translate(15.977 10.727)">
                  <path id="Trazado_772143" data-name="Trazado 772143" d="M3511.649,3206.638a.985.985,0,0,1-.7-.29l-19.421-19.42a.988.988,0,0,1,1.4-1.4l19.42,19.421a.988.988,0,0,1-.7,1.687Z" transform="translate(-3491.241 -3185.241)" fill="#1a2157"/>
                </g>
              </g>
              <g id="Grupo_1043074" data-name="Grupo 1043074">
                <path id="Trazado_772144" data-name="Trazado 772144" d="M1446.873,1349.207a35.807,35.807,0,1,1,25.459-10.6A35.705,35.705,0,0,1,1446.873,1349.207Zm.006-69.655h-.173a33.815,33.815,0,1,0,.173,0Z" transform="translate(-1411.068 -1277.576)" fill="#1a2157"/>
              </g>
            </g>
            <g id="Grupo_1043082" data-name="Grupo 1043082" transform="translate(16.307 15.346)">
              <g id="Grupo_1043078" data-name="Grupo 1043078" transform="translate(0 0)">
                <g id="Grupo_1043076" data-name="Grupo 1043076">
                  <path id="Trazado_772145" data-name="Trazado 772145" d="M1929.988,1785.6a3.58,3.58,0,0,1-3.576-3.576v-8.142a3.649,3.649,0,0,1,3.645-3.645,3.6,3.6,0,1,0-3.6-3.6,3.645,3.645,0,0,1-7.29,0,10.889,10.889,0,1,1,14.4,10.3v5.087A3.58,3.58,0,0,1,1929.988,1785.6Zm.069-24.538a5.576,5.576,0,1,1,0,11.151,1.671,1.671,0,0,0-1.669,1.669v8.142a1.6,1.6,0,1,0,3.2,0v-5.675a.955.955,0,0,1-.007-.22.983.983,0,0,1,.725-.877,8.909,8.909,0,1,0-11.162-8.614,1.669,1.669,0,0,0,3.338,0,5.575,5.575,0,0,1,5.575-5.576Z" transform="translate(-1919.168 -1755.749)" fill="#1a2157"/>
                </g>
                <g id="Grupo_1043077" data-name="Grupo 1043077" transform="translate(6.162 31.638)">
                  <path id="Trazado_772146" data-name="Trazado 772146" d="M2115.826,2750.872a4.658,4.658,0,1,1,4.658-4.658A4.663,4.663,0,0,1,2115.826,2750.872Zm0-7.34a2.682,2.682,0,1,0,2.682,2.682A2.685,2.685,0,0,0,2115.826,2743.532Z" transform="translate(-2111.168 -2741.556)" fill="#1a2157"/>
                </g>
              </g>
              <g id="Grupo_1043081" data-name="Grupo 1043081" transform="translate(26.327)">
                <g id="Grupo_1043079" data-name="Grupo 1043079" transform="translate(0.89)">
                  <path id="Trazado_772147" data-name="Trazado 772147" d="M2770.973,1785.6q-.1,0-.2-.005a3.85,3.85,0,0,1-3.567-3.92v-22.159a3.768,3.768,0,0,1,7.536,0v22.316a3.785,3.785,0,0,1-1.175,2.733A3.734,3.734,0,0,1,2770.973,1785.6Zm0-27.876a1.794,1.794,0,0,0-1.792,1.792v22.159a1.9,1.9,0,0,0,1.694,1.946,1.792,1.792,0,0,0,1.889-1.789v-22.316A1.794,1.794,0,0,0,2770.97,1757.723Z" transform="translate(-2767.202 -1755.747)" fill="#1a2157"/>
                </g>
                <g id="Grupo_1043080" data-name="Grupo 1043080" transform="translate(0 31.639)">
                  <path id="Trazado_772148" data-name="Trazado 772148" d="M2744.126,2750.872a4.658,4.658,0,1,1,4.658-4.658A4.664,4.664,0,0,1,2744.126,2750.872Zm0-7.34a2.682,2.682,0,1,0,2.682,2.682A2.685,2.685,0,0,0,2744.126,2743.532Z" transform="translate(-2739.468 -2741.556)" fill="#1a2157"/>
                </g>
              </g>
            </g>
          </g>
          <g id="Grupo_1043086" data-name="Grupo 1043086" transform="translate(0 14.135)">
            <g id="Grupo_1043084" data-name="Grupo 1043084">
              <path id="Trazado_772149" data-name="Trazado 772149" d="M953.461,1802.2h-28a5.593,5.593,0,0,1-5.587-5.587,4.688,4.688,0,0,0-4.683-4.683h-9.274a19.788,19.788,0,0,1-19.765-19.765v-13.409c-3.735-.65-6.243-2.039-7.459-4.135a6.13,6.13,0,0,1-.425-5.051,1,1,0,0,1,.076-.151l7.808-12.637v-17.807a.988.988,0,0,1,1.976,0v18.087a.988.988,0,0,1-.148.519l-7.9,12.789a4.106,4.106,0,0,0,.337,3.28c.98,1.662,3.352,2.8,6.859,3.278a.988.988,0,0,1,.853.979v14.255a17.809,17.809,0,0,0,17.789,17.789h9.274a6.667,6.667,0,0,1,6.66,6.66,3.614,3.614,0,0,0,3.61,3.61h28a3.614,3.614,0,0,0,3.61-3.61v-12.29c0-.831.027-1.672.08-2.5a.988.988,0,0,1,1.972.127c-.05.786-.076,1.585-.076,2.374v12.29A5.593,5.593,0,0,1,953.461,1802.2Z" transform="translate(-877.91 -1717.988)" fill="#1a2157"/>
            </g>
            <g id="Grupo_1043085" data-name="Grupo 1043085" transform="translate(36.293 71.966)">
              <path id="Trazado_772150" data-name="Trazado 772150" d="M2027.8,3962.317h-18.076a.988.988,0,1,1,0-1.976H2027.8a.988.988,0,1,1,0,1.976Z" transform="translate(-2008.74 -3960.341)" fill="#1a2157"/>
            </g>
          </g>
        </g>
      </g>
    </g>
  </g>
</svg>
