<svg xmlns="http://www.w3.org/2000/svg" width="91" height="91" viewBox="0 0 91 91">
  <g id="Grupo_1044581" data-name="Grupo 1044581" transform="translate(-1070 -4457)">
    <rect id="Rectángulo_356043" data-name="Rectángulo 356043" width="91" height="91" rx="10" transform="translate(1070 4457)" fill="#edc1e3"/>
    <g id="drogas_1_" data-name="drogas (1)" transform="translate(1079.999 4467)">
      <g id="Grupo_1044579" data-name="Grupo 1044579" transform="translate(1.041 1.04)">
        <g id="Grupo_1044574" data-name="Grupo 1044574">
          <g id="Grupo_1044571" data-name="Grupo 1044571">
            <path id="Trazado_774451" data-name="Trazado 774451" d="M34.588,7.5a2.892,2.892,0,0,1-5.784,0h-3.1a2.892,2.892,0,1,1-5.783,0h-3.1a2.892,2.892,0,0,1-5.784,0H7.5V42.07H11.04a2.892,2.892,0,1,1,5.783,0h3.1a2.892,2.892,0,0,1,5.783,0h3.1a2.892,2.892,0,0,1,5.784,0h3.539V7.5Z" transform="translate(-7.501 -7.5)" fill="#ff8fd2"/>
          </g>
          <g id="Grupo_1044572" data-name="Grupo 1044572" transform="translate(25.08)">
            <path id="Trazado_774452" data-name="Trazado 774452" d="M190.367,7.5a2.892,2.892,0,0,1-2.008,2.753V39.317a2.892,2.892,0,0,1,2.008,2.753h3.539V7.5Z" transform="translate(-188.359 -7.5)" fill="#ff7aca"/>
          </g>
          <g id="Grupo_1044573" data-name="Grupo 1044573" transform="translate(5.158 7.129)">
            <circle id="Elipse_5021" data-name="Elipse 5021" cx="10.156" cy="10.156" r="10.156" fill="#fff185"/>
          </g>
        </g>
        <g id="Grupo_1044577" data-name="Grupo 1044577" transform="translate(11.32 0.001)">
          <path id="Trazado_774453" data-name="Trazado 774453" d="M0,0H26.386V10.028H0Z" transform="translate(18.756 31.746) rotate(-45)" fill="#99caf7"/>
          <path id="Trazado_774454" data-name="Trazado 774454" d="M0,0H26.386V3.922H0Z" transform="translate(23.073 36.063) rotate(-45)" fill="#85c1f7"/>
          <g id="Grupo_1044575" data-name="Grupo 1044575" transform="translate(1.475 31.746)">
            <path id="Trazado_774455" data-name="Trazado 774455" d="M100.176,255.276l5.13,5.13a1.387,1.387,0,0,0,1.961,0l16.881-16.881-7.091-7.091-16.881,16.881A1.387,1.387,0,0,0,100.176,255.276Z" transform="translate(-99.77 -236.434)" fill="#fff185"/>
          </g>
          <path id="Trazado_774456" data-name="Trazado 774456" d="M126.763,285.43l1.793,1.793a1.387,1.387,0,0,0,1.961,0L147.4,270.341l-2.773-2.773Z" transform="translate(-121.545 -231.505)" fill="#fceb65"/>
          <path id="Trazado_774457" data-name="Trazado 774457" d="M92.005,381.081l-2.462-2.462a1.393,1.393,0,0,1,0-1.97l1.822-1.822,4.432,4.432-1.822,1.822A1.393,1.393,0,0,1,92.005,381.081Z" transform="translate(-89.135 -323.89)" fill="#8fe069"/>
          <path id="Trazado_774458" data-name="Trazado 774458" d="M0,0H6.267V8.73H0Z" transform="translate(47.724 5.431) rotate(45)" fill="#99caf7"/>
          <g id="Grupo_1044576" data-name="Grupo 1044576" transform="translate(36.119)">
            <path id="Trazado_774459" data-name="Trazado 774459" d="M358.711,84.182l-8.531-8.531a1.985,1.985,0,0,1,2.807-2.807l8.531,8.531a1.985,1.985,0,0,1-2.807,2.807Z" transform="translate(-349.599 -63.283)" fill="#e3f2ff"/>
            <path id="Trazado_774460" data-name="Trazado 774460" d="M423.47,19.424l-8.531-8.531a1.985,1.985,0,0,1,2.807-2.807l8.531,8.531a1.985,1.985,0,0,1-2.807,2.807Z" transform="translate(-405.378 -7.505)" fill="#e3f2ff"/>
          </g>
        </g>
        <g id="Grupo_1044578" data-name="Grupo 1044578" transform="translate(17.679 43.713)">
          <path id="Trazado_774461" data-name="Trazado 774461" d="M134.989,347.934s1.451-6.793,10.567-10.831c8.692-3.851,8.737-14.376,16-14.376s7.989,13.705,14.177,16.8c2.822,1.409,9.515,2.806,10.5,8.411h-51.24Z" transform="translate(-134.989 -322.727)" fill="#e3f2ff"/>
          <path id="Trazado_774462" data-name="Trazado 774462" d="M322.586,339.522c-6.188-3.091-6.915-16.8-14.177-16.8a6.112,6.112,0,0,0-2.922.7c4.934,2.828,6.2,13.426,11.552,16.1,2.822,1.409,9.515,2.806,10.5,8.411h5.547C332.1,342.328,325.407,340.931,322.586,339.522Z" transform="translate(-281.844 -322.726)" fill="#cfe9ff"/>
        </g>
      </g>
      <g id="Grupo_1044580" data-name="Grupo 1044580" transform="translate(0.001 0)">
        <path id="Trazado_774463" data-name="Trazado 774463" d="M48.39,74.257a11.208,11.208,0,0,0,11.2-11.2c-.563-14.832-21.831-14.828-22.391,0A11.208,11.208,0,0,0,48.39,74.257Zm0-20.311a9.126,9.126,0,0,1,9.115,9.115c-.458,12.076-17.775,12.073-18.231,0a9.126,9.126,0,0,1,9.116-9.115Z" transform="translate(-32.036 -44.736)"/>
        <path id="Trazado_774464" data-name="Trazado 774464" d="M76.2,148.2a1.04,1.04,0,0,0-1.8,1.043,6.831,6.831,0,0,0,11.829,0,1.04,1.04,0,0,0-1.8-1.043,4.75,4.75,0,0,1-8.23,0Z" transform="translate(-63.965 -127.203)"/>
        <path id="Trazado_774465" data-name="Trazado 774465" d="M72.99,103.676a1.049,1.049,0,0,0,1.471,0l.743-.743.743.743a1.04,1.04,0,0,0,1.471-1.471l-.743-.743.743-.743a1.04,1.04,0,0,0-1.471-1.471l-.743.743-.743-.743a1.04,1.04,0,0,0-1.471,1.471l.743.743-.743.743A1.04,1.04,0,0,0,72.99,103.676Z" transform="translate(-62.606 -85.223)"/>
        <path id="Trazado_774466" data-name="Trazado 774466" d="M127.157,103.676a1.049,1.049,0,0,0,1.471,0l.743-.743.743.743a1.04,1.04,0,0,0,1.471-1.471l-.743-.743.743-.743a1.04,1.04,0,0,0-1.471-1.471l-.743.743-.743-.743a1.04,1.04,0,0,0-1.471,1.471l.743.743-.743.743A1.04,1.04,0,0,0,127.157,103.676Z" transform="translate(-109.262 -85.223)"/>
        <path id="Trazado_774467" data-name="Trazado 774467" d="M19.067,57.836a2.474,2.474,0,0,0,3-.343l34.8-34.8A3.025,3.025,0,0,0,61.134,18.4L59.82,17.083l4.7-4.7L65.837,13.7a3.025,3.025,0,0,0,4.278-4.278L61.584.887a3.053,3.053,0,0,0-4.278,0,3.053,3.053,0,0,0,0,4.278L58.62,6.479l-4.7,4.7L52.6,9.867a3.025,3.025,0,0,0-4.293,4.262l-15.6,15.6V1.04A1.04,1.04,0,0,0,31.667,0H28.128a1.04,1.04,0,0,0-1.04,1.04,1.852,1.852,0,0,1-3.7,0A1.04,1.04,0,0,0,22.345,0h-3.1a1.04,1.04,0,0,0-1.04,1.04,1.852,1.852,0,0,1-3.7,0A1.04,1.04,0,0,0,13.462,0h-3.1a1.04,1.04,0,0,0-1.04,1.04,1.852,1.852,0,1,1-3.7,0A1.04,1.04,0,0,0,4.58,0H1.041A1.04,1.04,0,0,0,0,1.04V8.169a1.04,1.04,0,0,0,2.08,0V2.08h1.6a3.939,3.939,0,0,0,7.584,0h1.3a3.939,3.939,0,0,0,7.584,0h1.3a3.939,3.939,0,0,0,7.584,0h1.6V31.812L28.7,33.743a3.941,3.941,0,0,0-7.252.827h-1.3a3.939,3.939,0,0,0-7.584,0h-1.3a3.939,3.939,0,0,0-7.584,0h-1.6V13.758a1.04,1.04,0,0,0-2.08,0V35.61a1.04,1.04,0,0,0,1.04,1.04H4.58a1.04,1.04,0,0,0,1.04-1.04,1.852,1.852,0,0,1,3.7,0,1.04,1.04,0,0,0,1.04,1.04h3.1a1.04,1.04,0,0,0,1.04-1.04,1.852,1.852,0,0,1,3.7,0,1.04,1.04,0,0,0,1.04,1.04h3.1a1.04,1.04,0,0,0,1.04-1.04,1.852,1.852,0,0,1,3.687-.243L13.507,48.932a2.474,2.474,0,0,0-.342,3l-1.131,1.131a2.436,2.436,0,0,0,0,3.44l.5.5L.306,69.224a1.04,1.04,0,0,0,1.471,1.471L14,58.471l.5.5a2.468,2.468,0,0,0,3.441,0Zm17.85-29.372L38.2,29.749a1.041,1.041,0,0,0,1.471-1.471l-1.285-1.285,4.318-4.318L43.99,23.96a1.041,1.041,0,0,0,1.471-1.471L44.177,21.2l5.6-5.6,5.62,5.62L38.214,38.406,32.6,32.782ZM19.549,45.832l1.285,1.285A1.041,1.041,0,0,0,22.3,45.645L21.02,44.361l4.318-4.318,1.285,1.285a1.04,1.04,0,0,0,1.471-1.471l-1.285-1.285,4.314-4.314,5.62,5.62L20.6,56.023a.358.358,0,0,1-.49,0l-5.13-5.13a.347.347,0,0,1,0-.49ZM58.777,2.358a.945.945,0,0,1,1.336,0l8.531,8.531a.945.945,0,0,1-1.336,1.336L58.777,3.693A.944.944,0,0,1,58.777,2.358Zm1.314,5.592,2.961,2.961-4.7,4.7-2.961-2.961ZM49.8,11.338a.946.946,0,0,1,1.336,0l8.531,8.531A.945.945,0,0,1,58.328,21.2L49.8,12.673a.946.946,0,0,1,0-1.336ZM16.216,57.6a1.9,1.9,0,0,1-.249-.1L13.5,55.034a.353.353,0,0,1,0-.5l1.086-1.086,2.961,2.961L16.466,57.5A.352.352,0,0,1,16.216,57.6Z" transform="translate(-0.001 0)"/>
        <path id="Trazado_774468" data-name="Trazado 774468" d="M171.646,332.935c-8.319-2.653-7.523-17.287-16.549-17.711-4.34,0-6.4,3.2-8.572,6.586-1.944,3.026-3.955,6.155-7.848,7.879-9.491,4.2-11.1,11.266-11.162,11.564a1.05,1.05,0,0,0,1.017,1.257h32.08a1.04,1.04,0,0,0,0-2.08H129.993c1.771-4.1,5.525-7.067,9.526-8.84,4.463-1.977,6.743-5.525,8.755-8.656s3.618-5.63,6.822-5.63c6.39.106,7.591,14.073,13.712,16.686,3.374,1.686,8.011,2.516,9.592,6.44H166.145a1.04,1.04,0,0,0,0,2.08h13.627a1.05,1.05,0,0,0,1.024-1.22C179.9,336.192,174.933,334.232,171.646,332.935Z" transform="translate(-109.813 -271.512)"/>
        <path id="Trazado_774469" data-name="Trazado 774469" d="M196.425,468.453a1.041,1.041,0,0,0,0-2.08A1.041,1.041,0,0,0,196.425,468.453Z" transform="translate(-168.321 -401.701)"/>
        <path id="Trazado_774470" data-name="Trazado 774470" d="M301.721,375.611a1.041,1.041,0,0,0,0,2.08A1.041,1.041,0,0,0,301.721,375.611Z" transform="translate(-259.016 -323.525)"/>
        <path id="Trazado_774471" data-name="Trazado 774471" d="M342.4,395.682a1.041,1.041,0,0,0,0-2.08A1.041,1.041,0,0,0,342.4,395.682Z" transform="translate(-294.057 -339.021)"/>
        <path id="Trazado_774472" data-name="Trazado 774472" d="M301.893,444.471a1.041,1.041,0,0,0,0-2.08A1.041,1.041,0,0,0,301.893,444.471Z" transform="translate(-259.164 -381.044)"/>
        <path id="Trazado_774473" data-name="Trazado 774473" d="M407.761,466.373a1.041,1.041,0,0,0,0,2.08A1.041,1.041,0,0,0,407.761,466.373Z" transform="translate(-350.351 -401.701)"/>
      </g>
    </g>
  </g>
</svg>
