<svg xmlns="http://www.w3.org/2000/svg" width="91" height="91" viewBox="0 0 91 91">
  <g id="Grupo_1044585" data-name="Grupo 1044585" transform="translate(-440 -4716)">
    <rect id="Rectángulo_356045" data-name="Rectángulo 356045" width="91" height="91" rx="10" transform="translate(440 4716)" fill="#edc1e3"/>
    <g id="cuidado-prenatal" transform="translate(453 4722)">
      <g id="Grupo_1044583" data-name="Grupo 1044583" transform="translate(0.623 0.623)">
        <path id="Trazado_774474" data-name="Trazado 774474" d="M83.531,271.4c-.858,1.116-.864,1.881-1.643,3.022a.615.615,0,0,1-.52.281l-4.1.708H61.379l-3.6-1.7-3.1,1.7H50.362a.623.623,0,0,1-.623-.623v-1.652a23.319,23.319,0,0,1,2.429-10.362,23.687,23.687,0,0,0,.955-2.2v-19.6a8.444,8.444,0,0,1,5.326-7.849l6.485,1.683c1.878.852,3.721,1.521,5.265.155l1.014-.155c.109.072.221.14.335.206l4.919,3.467a5.921,5.921,0,0,1,2.869,3.969,5.486,5.486,0,0,1-1.972,5.354l-.453.4,4.465,3.877a14.485,14.485,0,0,1,4.736,7.868A12.883,12.883,0,0,1,83.531,271.4Z" transform="translate(-49.739 -197.963)" fill="#ffde80"/>
        <path id="Trazado_774475" data-name="Trazado 774475" d="M200.649,281.393c-.858,1.116-1.426,1.708-2.2,2.85a.618.618,0,0,1-.52.28H193.6c.586-1.06,1.709-2.42,2.375-3.356a16.425,16.425,0,0,0,2.8-13.066c-.768-4.873-3.72-6.188-6.939-8.669a1.7,1.7,0,0,1-.307-2.379c3.1-4.128.438-9.77-3.977-13.133.109.072.221.14.335.206l5.6,3.2a5.915,5.915,0,0,1,.961,9.594l-.453.4.3,1.112,1.457.386,2.96,2.528a14.509,14.509,0,0,1,1.938,20.053Z" transform="translate(-166.075 -207.08)" fill="#ffce61"/>
        <rect id="Rectángulo_356151" data-name="Rectángulo 356151" width="6.701" height="12.395" transform="translate(4.938 65.05)" fill="#ffdcd0"/>
        <path id="Trazado_774476" data-name="Trazado 774476" d="M126.171,45.8l-.86.692v3.617a3.265,3.265,0,0,1-3.716,3.235l-6.1-.922-.526,1.041.526,1.312v2.119a6.432,6.432,0,0,0,2.908,5.379l-.531.477a5.227,5.227,0,0,1-5.625.845l-6.607-3a12.251,12.251,0,0,0,2.115-6.881v-4.96a8.681,8.681,0,0,0-.991-4.028L108.5,40.58V37.5a8.757,8.757,0,0,1,8.757-8.759,8.231,8.231,0,0,1,8.231,8.229v3.057a1.9,1.9,0,0,0,.245.933l1.019,1.811A2.381,2.381,0,0,1,126.171,45.8Z" transform="translate(-96.928 -25.43)" fill="#ffdcd0"/>
        <path id="Trazado_774477" data-name="Trazado 774477" d="M73.524,412.625a2,2,0,0,1-2,2h-9.32a2,2,0,0,1-.343-3.966l5-.711,5,.711a2,2,0,0,1,1.656,1.967Z" transform="translate(-58.577 -347.236)" fill="#ffce61"/>
        <path id="Trazado_774478" data-name="Trazado 774478" d="M73.524,391.058a2,2,0,0,1-1.656,1.968h-10a2,2,0,0,1,.343-3.966h9.32A2,2,0,0,1,73.524,391.058Z" transform="translate(-58.578 -329.603)" fill="#ffbf61"/>
        <g id="Grupo_1044582" data-name="Grupo 1044582" transform="translate(32.76 45.69)">
          <path id="Trazado_774479" data-name="Trazado 774479" d="M259.974,316.591a15.861,15.861,0,0,0,.821,5.055c2.723,5.562,7.962,9.973,14.964,9.973,8.769,0,15.15-6.259,15.15-15.028,0-7-4.432-11.8-10-15.057a15.892,15.892,0,0,0-20.933,15.057Z" transform="translate(-259.974 -300.713)" fill="#8db9ff"/>
          <path id="Trazado_774480" data-name="Trazado 774480" d="M296.177,321.035a15.881,15.881,0,0,1-30.935,5.055,15.888,15.888,0,0,0,20.112-20.112A15.885,15.885,0,0,1,296.177,321.035Z" transform="translate(-264.421 -305.158)" fill="#70abf2"/>
          <path id="Trazado_774481" data-name="Trazado 774481" d="M307.356,353.4h4.969a.337.337,0,0,0,.337-.337V348.1a.337.337,0,0,1,.337-.337h5.132a.337.337,0,0,1,.337.337v4.969a.337.337,0,0,0,.337.337h.966l3.709.253a.337.337,0,0,1,.337.337l.107,4.646a.337.337,0,0,1-.337.337l-5.033-.017a.337.337,0,0,0-.337.337l.169,4.767a.337.337,0,0,1-.337.337l-4.756.205a.337.337,0,0,1-.337-.337l-.294-3.755v-.966a.337.337,0,0,0-.337-.337h-4.969a.337.337,0,0,1-.337-.337v-5.132A.337.337,0,0,1,307.356,353.4Z" transform="translate(-299.688 -340.427)" fill="#f5f8f9"/>
          <path id="Trazado_774482" data-name="Trazado 774482" d="M354.686,384.307v5.132a.337.337,0,0,1-.337.337H349.38a.338.338,0,0,0-.337.337v4.969a.337.337,0,0,1-.337.337h-5.132a.337.337,0,0,1-.337-.337v-4a15.941,15.941,0,0,0,7.11-7.11h4A.338.338,0,0,1,354.686,384.307Z" transform="translate(-330.262 -370.996)" fill="#e8edf2"/>
        </g>
        <path id="Trazado_774483" data-name="Trazado 774483" d="M102.846,7.5H97.057A10.482,10.482,0,0,0,86.575,17.982v7.064q0,.126.005.251a5.823,5.823,0,0,0,5.858,5.5h1.844a2.712,2.712,0,0,0,2.654-2.156,1.28,1.28,0,0,0-.9-1.494,3.461,3.461,0,0,1-2.518-3.33,2.173,2.173,0,0,1,2.173-2.173h1.581a7.974,7.974,0,0,0,6.773-4.09h0a2.722,2.722,0,0,1,1.932,1.316,5.591,5.591,0,0,0,2.114.415h1.735a2.407,2.407,0,0,0,2.407-2.407h0A9.38,9.38,0,0,0,102.846,7.5Z" transform="translate(-80.835 -7.5)" fill="#e59683"/>
      </g>
      <g id="Grupo_1044584" data-name="Grupo 1044584" transform="translate(0)">
        <path id="Trazado_774484" data-name="Trazado 774484" d="M253,470.978a.624.624,0,0,1-.538-.938,9.342,9.342,0,0,1,.75-1.1l1.674-2.108a13.907,13.907,0,0,0,1.552-2.437.623.623,0,1,1,1.116.556,15.156,15.156,0,0,1-1.691,2.656l-1.674,2.108a8.1,8.1,0,0,0-.65.951A.623.623,0,0,1,253,470.978Z" transform="translate(-220.179 -392.286)"/>
        <path id="Trazado_774485" data-name="Trazado 774485" d="M180.813,124.673a.622.622,0,0,1-.458-.2,13.858,13.858,0,0,0-1.182-1.137l-4.714-4.027a.623.623,0,0,1-.005-.943l.453-.4a5.293,5.293,0,0,0-.861-8.584l-5.6-3.2a7.067,7.067,0,0,1-3.559-6.126V95.591a.623.623,0,0,1,.717-.616l6.1.923a2.643,2.643,0,0,0,3-2.619V89.662a.623.623,0,0,1,.233-.486l.86-.692a1.755,1.755,0,0,0,.43-2.236l-1.02-1.811a2.528,2.528,0,0,1-.325-1.239V80.5a.623.623,0,1,1,1.247,0V83.2a1.279,1.279,0,0,0,.164.627l1.021,1.811a3,3,0,0,1-.735,3.819l-.628.5v3.318a3.89,3.89,0,0,1-4.426,3.853l-5.391-.815v3.747a5.818,5.818,0,0,0,2.93,5.044l5.6,3.2a6.54,6.54,0,0,1,1.152,10.526l4.166,3.559a15.165,15.165,0,0,1,1.289,1.24.623.623,0,0,1-.458,1.046Z" transform="translate(-146.319 -67.979)"/>
        <path id="Trazado_774486" data-name="Trazado 774486" d="M102.26,167.114a.623.623,0,0,1-.515-.973,11.583,11.583,0,0,0,2.007-6.531v-4.794a.623.623,0,1,1,1.247,0v4.794a12.825,12.825,0,0,1-2.222,7.231A.623.623,0,0,1,102.26,167.114Z" transform="translate(-92.927 -130.71)"/>
        <path id="Trazado_774487" data-name="Trazado 774487" d="M46.364,442.207a.623.623,0,0,1-.623-.623v-2.274a23.84,23.84,0,0,1,1.735-8.949.623.623,0,0,1,1.156.466,22.6,22.6,0,0,0-1.645,8.483v2.274A.623.623,0,0,1,46.364,442.207Z" transform="translate(-45.741 -363.515)"/>
        <path id="Trazado_774488" data-name="Trazado 774488" d="M90.908,28.046H89.064a6.414,6.414,0,0,1-6.48-6.1l-.005-.277V14.606a11.083,11.083,0,0,1,3.97-8.51.623.623,0,1,1,.8.955,9.839,9.839,0,0,0-3.525,7.555v7.064l0,.227a5.17,5.17,0,0,0,5.235,4.9h1.843a2.1,2.1,0,0,0,2.045-1.661.692.692,0,0,0-.464-.765,4.089,4.089,0,0,1-2.973-3.93,2.794,2.794,0,0,1,2.8-2.8h1.582a6.882,6.882,0,0,0,5.615-2.907l.648-.918a.623.623,0,0,1,.959-.072,4.984,4.984,0,0,0,3.6,1.539h1.734a1.785,1.785,0,0,0,1.783-1.784,8.756,8.756,0,0,0-8.756-8.757H93.685a9.928,9.928,0,0,0-1.679.142.623.623,0,1,1-.211-1.229,11.178,11.178,0,0,1,1.89-.16h5.789a10,10,0,0,1,10,10,3.033,3.033,0,0,1-3.029,3.031h-1.734a6.234,6.234,0,0,1-3.948-1.414l-.238.337a8.13,8.13,0,0,1-6.633,3.435H92.312a1.547,1.547,0,0,0-1.549,1.55,2.842,2.842,0,0,0,2.065,2.73A1.907,1.907,0,0,1,94.213,25a1.877,1.877,0,0,1-.04.392A3.35,3.35,0,0,1,90.908,28.046Z" transform="translate(-76.839 -3.5)"/>
        <path id="Línea_157" data-name="Línea 157" d="M-1.847-2.541a.629.629,0,0,1-.087-.006L-3.463-2.76a.623.623,0,0,1-.531-.7.623.623,0,0,1,.7-.531l1.529.213a.623.623,0,0,1,.531.7A.623.623,0,0,1-1.847-2.541Z" transform="translate(21.037 30.777)"/>
        <path id="Trazado_774489" data-name="Trazado 774489" d="M195.274,47.222a.623.623,0,0,1-.512-.978,6.172,6.172,0,0,0,1.1-3.53v-.188a.623.623,0,0,1,1.247,0v.188a7.413,7.413,0,0,1-1.325,4.239A.623.623,0,0,1,195.274,47.222Z" transform="translate(-171.448 -35.919)"/>
        <path id="Línea_158" data-name="Línea 158" d="M-3.377,7.139A.623.623,0,0,1-4,6.515V-3.377A.623.623,0,0,1-3.377-4a.623.623,0,0,1,.623.623V6.515A.623.623,0,0,1-3.377,7.139Z" transform="translate(8.938 71.553)"/>
        <path id="Línea_159" data-name="Línea 159" d="M-3.377,7.139A.623.623,0,0,1-4,6.515V-3.377A.623.623,0,0,1-3.377-4a.623.623,0,0,1,.623.623V6.515A.623.623,0,0,1-3.377,7.139Z" transform="translate(15.639 71.553)"/>
        <path id="Trazado_774490" data-name="Trazado 774490" d="M68.082,242.716a.623.623,0,0,1-.623-.623v-4.5a9.022,9.022,0,0,1,5.719-8.428.623.623,0,0,1,.488.012l6.607,3a4.609,4.609,0,0,0,4.954-.744l.382-.338a.623.623,0,1,1,.827.933l-.382.338a5.858,5.858,0,0,1-6.3.946l-6.36-2.892a7.779,7.779,0,0,0-4.692,7.169v4.5A.623.623,0,0,1,68.082,242.716Z" transform="translate(-64.075 -193.963)"/>
        <path id="Línea_160" data-name="Línea 160" d="M-3.377,3.743A.623.623,0,0,1-4,3.12v-6.5A.623.623,0,0,1-3.377-4a.623.623,0,0,1,.623.623v6.5A.623.623,0,0,1-3.377,3.743Z" transform="translate(7.384 56.96)"/>
        <path id="Línea_161" data-name="Línea 161" d="M-3.377,10.32A.623.623,0,0,1-4,9.7V-3.377A.623.623,0,0,1-3.377-4a.623.623,0,0,1,.623.623V9.7A.623.623,0,0,1-3.377,10.32Z" transform="translate(17.194 50.178)"/>
        <path id="Trazado_774491" data-name="Trazado 774491" d="M58.827,385.055h9.319a2.623,2.623,0,0,1,1.735,4.589,2.623,2.623,0,0,1-1.735,4.589H58.827a2.623,2.623,0,0,1-1.735-4.589,2.623,2.623,0,0,1,1.735-4.589Zm9.319,7.932a1.374,1.374,0,0,0,.236-2.728.623.623,0,0,1,0-1.228,1.374,1.374,0,0,0-.236-2.728H58.827a1.374,1.374,0,0,0-.236,2.728.623.623,0,0,1,0,1.228,1.374,1.374,0,0,0,.236,2.728Z" transform="translate(-54.574 -325.599)"/>
        <path id="Línea_162" data-name="Línea 162" d="M-1.249-2.753H-3.377A.623.623,0,0,1-4-3.377.623.623,0,0,1-3.377-4h2.128a.623.623,0,0,1,.623.623A.623.623,0,0,1-1.249-2.753Z" transform="translate(7.42 67.422)"/>
        <path id="Línea_163" data-name="Línea 163" d="M-1.249-2.753H-3.377A.623.623,0,0,1-4-3.377.623.623,0,0,1-3.377-4h2.128a.623.623,0,0,1,.623.623A.623.623,0,0,1-1.249-2.753Z" transform="translate(15.029 67.422)"/>
        <path id="Trazado_774492" data-name="Trazado 774492" d="M199.3,328.417h-.725a.623.623,0,1,1,0-1.247h.725a4.662,4.662,0,0,0,3.068-1.152.623.623,0,0,1,.82.939A5.908,5.908,0,0,1,199.3,328.417Z" transform="translate(-174.232 -275.632)"/>
        <path id="Trazado_774493" data-name="Trazado 774493" d="M272.479,329.712a16.5,16.5,0,1,1,16.258-19.334.623.623,0,0,1-1.228.212,15.254,15.254,0,1,0,0,5.241.623.623,0,1,1,1.228.213A16.458,16.458,0,0,1,272.479,329.712Z" transform="translate(-223.219 -251.02)"/>
        <path id="Trazado_774494" data-name="Trazado 774494" d="M309.287,343.757h5.807a.623.623,0,0,1,.623.623v5.02h5.02a.623.623,0,0,1,.623.623v5.807a.623.623,0,0,1-.623.623h-5.02v5.02a.623.623,0,0,1-.623.623h-5.807a.623.623,0,0,1-.623-.623v-5.02h-5.02a.623.623,0,0,1-.623-.623v-5.807a.623.623,0,0,1,.623-.623h5.02v-5.02A.623.623,0,0,1,309.287,343.757ZM314.47,345h-4.56v5.02a.623.623,0,0,1-.623.623h-5.02v4.56h5.02a.623.623,0,0,1,.623.623v5.02h4.56v-5.02a.623.623,0,0,1,.623-.623h5.02v-4.56h-5.02a.623.623,0,0,1-.623-.623Z" transform="translate(-262.929 -290.736)"/>
      </g>
    </g>
  </g>
</svg>
