<svg xmlns="http://www.w3.org/2000/svg" width="91" height="91" viewBox="0 0 91 91">
  <g id="Grupo_1044485" data-name="Grupo 1044485" transform="translate(-650 -4457)">
    <rect id="Rectángulo_356039" data-name="Rectángulo 356039" width="91" height="91" rx="10" transform="translate(650 4457)" fill="#edc1e3"/>
    <g id="Layer_1" transform="translate(657.919 4467.415)">
      <g id="Grupo_1044484" data-name="Grupo 1044484" transform="translate(6.081 3.5)">
        <g id="Grupo_1044480" data-name="Grupo 1044480" transform="translate(0.647 0.644)">
          <g id="Grupo_1044469" data-name="Grupo 1044469" transform="translate(26.846)">
            <path id="Trazado_774358" data-name="Trazado 774358" d="M117.866,6a5.1,5.1,0,0,0-5.1,5.1v3.044a5.1,5.1,0,1,0,10.205,0V11.1A5.1,5.1,0,0,0,117.866,6Z" transform="translate(-112.763 -6)" fill="#feb69f"/>
          </g>
          <g id="Grupo_1044470" data-name="Grupo 1044470" transform="translate(6.542 13.249)">
            <path id="Trazado_774359" data-name="Trazado 774359" d="M84.791,60.211a2.8,2.8,0,0,1-2.8,2.8H69.045a.8.8,0,0,0-.794.856l2.977,39.437,1.134,2.657a.774.774,0,0,1-.711,1.077H65.679a1.29,1.29,0,0,1-1.286-1.18l-1.567-18.55a3.455,3.455,0,0,0-6.886,0l-1.567,18.55a1.29,1.29,0,0,1-1.286,1.18H47.117a.774.774,0,0,1-.711-1.077l1.134-2.657.554-7.329a2.747,2.747,0,1,0,.41-5.433l2.013-26.676a.8.8,0,0,0-.794-.856H36.777a2.8,2.8,0,0,1,0-5.605H81.99A2.8,2.8,0,0,1,84.791,60.211Z" transform="translate(-33.976 -57.41)" fill="#72c2e9"/>
          </g>
          <g id="Grupo_1044471" data-name="Grupo 1044471" transform="translate(30.026 20.361)">
            <circle id="Elipse_5013" data-name="Elipse 5013" cx="2.747" cy="2.747" r="2.747" fill="#fc5d3d"/>
          </g>
          <g id="Grupo_1044472" data-name="Grupo 1044472" transform="translate(18.816 3.614)">
            <circle id="Elipse_5014" data-name="Elipse 5014" cx="2.747" cy="2.747" r="2.747" fill="#fc5d3d"/>
          </g>
          <g id="Grupo_1044473" data-name="Grupo 1044473" transform="translate(6.541 13.249)">
            <path id="Trazado_774360" data-name="Trazado 774360" d="M45.292,57.41v5.605H36.774a2.8,2.8,0,0,1,0-5.605Z" transform="translate(-33.973 -57.41)" fill="#feb69f"/>
          </g>
          <g id="Grupo_1044474" data-name="Grupo 1044474" transform="translate(46.038 13.249)">
            <path id="Trazado_774361" data-name="Trazado 774361" d="M198.552,60.211a2.8,2.8,0,0,1-2.8,2.8h-8.517V57.41h8.517A2.8,2.8,0,0,1,198.552,60.211Z" transform="translate(-187.233 -57.41)" fill="#feb69f"/>
          </g>
          <g id="Grupo_1044475" data-name="Grupo 1044475" transform="translate(40.309 1.374)">
            <circle id="Elipse_5015" data-name="Elipse 5015" cx="2.747" cy="2.747" r="2.747" fill="#fc5d3d"/>
          </g>
          <g id="Grupo_1044477" data-name="Grupo 1044477" transform="translate(0 24.27)">
            <g id="Grupo_1044476" data-name="Grupo 1044476">
              <path id="Trazado_774362" data-name="Trazado 774362" d="M24.05,114.825H9.7a1.112,1.112,0,0,1-.963-1.668l2.286-3.961,4.886-8.463a1.111,1.111,0,0,1,1.926,0l7.173,12.424A1.112,1.112,0,0,1,24.05,114.825Z" transform="translate(-8.59 -100.176)" fill="#f0c020"/>
            </g>
          </g>
          <g id="Grupo_1044479" data-name="Grupo 1044479" transform="translate(18.472 46.385)">
            <g id="Grupo_1044478" data-name="Grupo 1044478">
              <path id="Trazado_774363" data-name="Trazado 774363" d="M85.76,188.735a2.747,2.747,0,1,1-2.9-2.745A2.747,2.747,0,0,1,85.76,188.735Z" transform="translate(-80.266 -185.99)" fill="#fc5d3d"/>
            </g>
          </g>
        </g>
        <g id="Grupo_1044483" data-name="Grupo 1044483" transform="translate(0 0)">
          <g id="Grupo_1044481" data-name="Grupo 1044481" transform="translate(38.34 18.651)">
            <path id="Trazado_774364" data-name="Trazado 774364" d="M158.925,119h-2.508a.644.644,0,0,1,0-1.289h1.548c-.011-.056-2.8-36.977-2.8-37.034a.644.644,0,1,1,1.285-.1l2.782,36.853.286.67A.645.645,0,0,1,158.925,119Zm-3.312-40.3a.644.644,0,0,1-.642-.6l-.116-1.542a.644.644,0,0,1,1.285-.1l.116,1.542a.644.644,0,0,1-.594.691Z" transform="translate(-154.853 -75.871)" fill="#c5e5fe"/>
          </g>
          <g id="Grupo_1044482" data-name="Grupo 1044482" transform="translate(2.272 26.718)">
            <path id="Trazado_774365" data-name="Trazado 774365" d="M27.577,118.885H18.995a.644.644,0,1,1,0-1.289h7.466L21,108.141a.644.644,0,1,1,1.116-.644l6.017,10.422A.645.645,0,0,1,27.577,118.885Zm-11.159,0h-.875a.644.644,0,1,1,0-1.289h.875a.644.644,0,1,1,0,1.289Z" transform="translate(-14.898 -107.174)" fill="#f8e5b0"/>
          </g>
          <path id="Trazado_774366" data-name="Trazado 774366" d="M123.249,38.321a.646.646,0,0,0,.644-.644,1.278,1.278,0,1,1,2.556,0,.644.644,0,0,0,1.289,0,2.567,2.567,0,0,0-5.134,0A.645.645,0,0,0,123.249,38.321Z" transform="translate(-92.576 -26.964)"/>
          <path id="Trazado_774367" data-name="Trazado 774367" d="M114.485,13.765a.648.648,0,0,0,.082-.487.635.635,0,0,0-.286-.4.655.655,0,0,0-.887.2.641.641,0,0,0,.2.889A.649.649,0,0,0,114.485,13.765Z" transform="translate(-85.665 -10.389)"/>
          <path id="Trazado_774368" data-name="Trazado 774368" d="M66.077,18.6a3.391,3.391,0,1,0-2.137-6.021L60.848,9.989a.639.639,0,0,0-.412-.149H57.629a.644.644,0,0,0,0,1.289H60.2l2.911,2.44A3.388,3.388,0,0,0,66.077,18.6ZM64.13,14.421l1.532,1.284a.644.644,0,0,0,.827-.987l-1.531-1.284a2.1,2.1,0,1,1-.829.986Z" transform="translate(-43.867 -8.206)"/>
          <path id="Trazado_774369" data-name="Trazado 774369" d="M123.894,22.915v-.6a.644.644,0,0,0-1.289,0v.6a.644.644,0,0,0,1.289,0Z" transform="translate(-92.576 -16.987)"/>
          <path id="Trazado_774370" data-name="Trazado 774370" d="M138.814,22.915v-.6a.644.644,0,1,0-1.289,0v.6a.644.644,0,1,0,1.289,0Z" transform="translate(-103.651 -16.987)"/>
          <path id="Trazado_774371" data-name="Trazado 774371" d="M31.473,20.194a3.451,3.451,0,0,0,3.446,3.448H47.864a.154.154,0,0,1,.152.149c0,.02-1.973,26.156-1.974,26.176a3.387,3.387,0,0,0-2.058,5.2L41.23,57.913H38.689a.644.644,0,0,0,0,1.289H41.5a.644.644,0,0,0,.454-.188L44.9,56.078a3.429,3.429,0,0,0,.659.351l-.507,6.708L43.954,65.7a1.422,1.422,0,0,0,1.3,1.974h5.971a1.933,1.933,0,0,0,1.928-1.77l1.567-18.55a2.811,2.811,0,0,1,5.6,0L61.893,65.9a1.933,1.933,0,0,0,1.928,1.77h5.971A1.422,1.422,0,0,0,71.1,65.7L70,63.137,68.622,44.821a.645.645,0,0,0-1.286.093v0L68.728,63.34A18.9,18.9,0,0,0,69.911,66.2a.131.131,0,0,1-.119.18H63.821a.651.651,0,0,1-.644-.59L61.61,47.241a4.1,4.1,0,0,0-8.169,0l-1.567,18.55a.649.649,0,0,1-.644.59H45.258a.13.13,0,0,1-.119-.178,18.968,18.968,0,0,0,1.183-2.863l.5-6.679a3.387,3.387,0,0,0,.508-6.731c.009-.12,1.969-26.017,1.969-26.138a1.442,1.442,0,0,0-1.441-1.438H44.08V18.037H70.97v4.317H67.187a1.441,1.441,0,0,0-1.435,1.557l.659,8.726-5.033-3.87a3.389,3.389,0,1,0-6.419-1.514,3.383,3.383,0,0,0,5.632,2.536l5.95,4.573.409,5.416a.644.644,0,1,0,1.283-.1l-.322-4.265,3.342,2.569a.638.638,0,0,0,.392.134h3.525a.644.644,0,1,0,0-1.289H71.864L67.781,33.69,67.035,23.8v-.013a.154.154,0,0,1,.152-.149H80.131a3.447,3.447,0,0,0,0-6.894H61.146a5.737,5.737,0,0,0,2.126-4.458V9.247a5.748,5.748,0,0,0-8.528-5.03.646.646,0,0,0-.253.876.661.661,0,0,0,.876.25,4.4,4.4,0,0,1,2.157-.554,4.476,4.476,0,0,1,4.458,4.458V12.29a4.458,4.458,0,1,1-8.917,0c0-3.367,0-3.038.005-3.3a.644.644,0,1,0-1.286-.07c-.012.256-.008.225-.008,3.366A5.737,5.737,0,0,0,53.9,16.749H34.919a3.452,3.452,0,0,0-3.446,3.446ZM48.9,53.274a2.108,2.108,0,0,1-3.064,1.869L47.25,53.73a.649.649,0,0,0,0-.912.655.655,0,0,0-.91,0L44.924,54.23a2.1,2.1,0,0,1,1.744-3.056,2.112,2.112,0,0,1,2.229,2.1ZM60.327,27.959,58.742,26.74a.662.662,0,0,0-.9.119.647.647,0,0,0,.119.9l1.585,1.218a2.123,2.123,0,1,1,.786-1.023Zm11.931-9.922h7.873a2.158,2.158,0,0,1,0,4.317H72.258ZM42.792,22.354H34.919a2.158,2.158,0,0,1,0-4.317h7.873Z" transform="translate(-24.929 -3.5)"/>
          <path id="Trazado_774372" data-name="Trazado 774372" d="M170.473,151.554a.644.644,0,1,0,.693.593A.645.645,0,0,0,170.473,151.554Z" transform="translate(-127.666 -113.398)"/>
          <path id="Trazado_774373" data-name="Trazado 774373" d="M11.659,237.619h8.894a.644.644,0,1,0,0-1.289H11.659a.644.644,0,1,0,0,1.289Z" transform="translate(-9.743 -176.328)"/>
          <path id="Trazado_774374" data-name="Trazado 774374" d="M11.659,226.779h8.894a.644.644,0,1,0,0-1.289H11.659a.644.644,0,1,0,0,1.289Z" transform="translate(-9.743 -168.281)"/>
          <path id="Trazado_774375" data-name="Trazado 774375" d="M11.659,215.929h8.894a.644.644,0,1,0,0-1.289H11.659a.644.644,0,1,0,0,1.289Z" transform="translate(-9.743 -160.227)"/>
          <path id="Trazado_774376" data-name="Trazado 774376" d="M209.767,242.914a.645.645,0,0,0-.644-.644H196.709a.644.644,0,1,0,0,1.289h12.414A.645.645,0,0,0,209.767,242.914Z" transform="translate(-147.104 -180.737)"/>
          <path id="Trazado_774377" data-name="Trazado 774377" d="M209.123,231.43H196.709a.644.644,0,0,0,0,1.289h12.414a.644.644,0,0,0,0-1.289Z" transform="translate(-147.104 -172.69)"/>
          <path id="Trazado_774378" data-name="Trazado 774378" d="M209.123,220.58H196.709a.644.644,0,0,0,0,1.289h12.414a.644.644,0,0,0,0-1.289Z" transform="translate(-147.104 -164.636)"/>
          <path id="Trazado_774379" data-name="Trazado 774379" d="M196.709,208.62a.644.644,0,1,0,0,1.289h6.206a.644.644,0,1,0,0-1.289Z" transform="translate(-147.104 -155.759)"/>
          <path id="Trazado_774380" data-name="Trazado 774380" d="M11.659,32.139h8.894a.644.644,0,1,0,0-1.289H11.659a.644.644,0,0,0,0,1.289Z" transform="translate(-9.743 -23.802)"/>
          <path id="Trazado_774381" data-name="Trazado 774381" d="M11.659,21.3h8.894a.644.644,0,1,0,0-1.289H11.659a.644.644,0,0,0,0,1.289Z" transform="translate(-9.743 -15.755)"/>
          <path id="Trazado_774382" data-name="Trazado 774382" d="M11.659,10.449h8.894a.644.644,0,0,0,0-1.289H11.659a.644.644,0,0,0,0,1.289Z" transform="translate(-9.743 -7.701)"/>
          <path id="Trazado_774383" data-name="Trazado 774383" d="M219.953,41.18h-8.894a.644.644,0,0,0,0,1.289h8.894a.644.644,0,0,0,0-1.289Z" transform="translate(-157.756 -31.469)"/>
          <path id="Trazado_774384" data-name="Trazado 774384" d="M219.953,30.33h-8.894a.644.644,0,0,0,0,1.289h8.894a.644.644,0,0,0,0-1.289Z" transform="translate(-157.756 -23.416)"/>
          <path id="Trazado_774385" data-name="Trazado 774385" d="M219.953,19.49h-8.894a.644.644,0,0,0,0,1.289h8.894a.644.644,0,0,0,0-1.289Z" transform="translate(-157.756 -15.369)"/>
          <path id="Trazado_774386" data-name="Trazado 774386" d="M169.225,12.866h3.308a.644.644,0,0,0,0-1.289h-3.307a3.392,3.392,0,1,0,0,1.289Zm-5.431-.644a2.1,2.1,0,0,1,4.1-.644h-2a.644.644,0,0,0,0,1.289h2a2.1,2.1,0,0,1-4.1-.644Z" transform="translate(-122.193 -7.456)"/>
          <path id="Trazado_774387" data-name="Trazado 774387" d="M38.89,125.532a.644.644,0,0,0,.644-.644v-1.868a.644.644,0,0,0-1.289,0v1.868A.644.644,0,0,0,38.89,125.532Z" transform="translate(-29.957 -91.74)"/>
          <path id="Trazado_774388" data-name="Trazado 774388" d="M38.246,137.906a.644.644,0,0,0,1.289,0v-.392a.644.644,0,0,0-1.289,0Z" transform="translate(-29.957 -102.499)"/>
          <path id="Trazado_774389" data-name="Trazado 774389" d="M7.842,113.617H22.189a1.758,1.758,0,0,0,1.518-2.634L16.535,98.559a1.755,1.755,0,0,0-3.041,0l-1.338,2.317a.627.627,0,0,0-.064.49.643.643,0,0,0,.3.392.665.665,0,0,0,.881-.237L14.61,99.2a.467.467,0,0,1,.809,0l7.175,12.427a.469.469,0,0,1-.4.7H7.842a.467.467,0,0,1-.407-.7l3.26-5.646a.643.643,0,0,0-.237-.879.659.659,0,0,0-.879.235l-3.257,5.644a1.758,1.758,0,0,0,1.52,2.634Z" transform="translate(-6.081 -73.409)"/>
          <path id="Trazado_774390" data-name="Trazado 774390" d="M24.406,117.829a.644.644,0,1,0,.879-.235A.659.659,0,0,0,24.406,117.829Z" transform="translate(-19.619 -88.13)"/>
          <path id="Trazado_774391" data-name="Trazado 774391" d="M220.159,155.164a.644.644,0,0,0-.644-.644h-8.626a.644.644,0,1,0,0,1.289h8.626A.644.644,0,0,0,220.159,155.164Z" transform="translate(-157.63 -115.601)"/>
          <path id="Trazado_774392" data-name="Trazado 774392" d="M219.515,143.68h-8.626a.644.644,0,1,0,0,1.289h8.626a.644.644,0,0,0,0-1.289Z" transform="translate(-157.63 -107.554)"/>
          <path id="Trazado_774393" data-name="Trazado 774393" d="M219.515,132.83h-8.626a.644.644,0,1,0,0,1.289h8.626a.644.644,0,0,0,0-1.289Z" transform="translate(-157.63 -99.5)"/>
        </g>
      </g>
    </g>
  </g>
</svg>
