<svg xmlns="http://www.w3.org/2000/svg" width="91" height="91" viewBox="0 0 91 91">
  <g id="Grupo_1044468" data-name="Grupo 1044468" transform="translate(-440 -4457)">
    <rect id="Rectángulo_356037" data-name="Rectángulo 356037" width="91" height="91" rx="10" transform="translate(440 4457)" fill="#edc1e3"/>
    <g id="feto" transform="translate(452 4469)">
      <path id="Trazado_774350" data-name="Trazado 774350" d="M47.484,14.581V8H34.323v6.581A12.065,12.065,0,0,1,22.258,26.645h0A14.258,14.258,0,0,0,8,40.9H8a32.9,32.9,0,0,0,32.9,32.9h0a32.9,32.9,0,0,0,32.9-32.9h0A14.258,14.258,0,0,0,59.548,26.645h0A12.065,12.065,0,0,1,47.484,14.581Z" transform="translate(-6.903 -6.903)" fill="#ececec"/>
      <path id="Trazado_774351" data-name="Trazado 774351" d="M40.9,269.439A32.9,32.9,0,0,1,8.066,238.528c-.038.429-.066.86-.066,1.3a32.9,32.9,0,0,0,65.806,0c0-.439-.027-.87-.066-1.3A32.9,32.9,0,0,1,40.9,269.439Z" transform="translate(-6.903 -205.827)" fill="#b6c1ce"/>
      <path id="Trazado_774352" data-name="Trazado 774352" d="M287.726,241.269a9.871,9.871,0,1,0,0-14.8,2.661,2.661,0,0,0-1.158-.28c-1.75,0-3.261,1.793-3.965,4.387l-1.347,1.647,1.715,1.881Z" transform="translate(-242.697 -193.29)" fill="#f9e0a6"/>
      <path id="Trazado_774353" data-name="Trazado 774353" d="M96,312v3.29a1.1,1.1,0,0,0,1.1,1.1H99.29a26.5,26.5,0,0,0,8.051,7.108l2.916,1.666-.7-.427a9.879,9.879,0,0,1-4.751-8.377h0A4.387,4.387,0,0,0,100.417,312Z" transform="translate(-82.839 -269.226)" fill="#eabd8c"/>
      <g id="Grupo_1044467" data-name="Grupo 1044467" transform="translate(9.871 35.097)">
        <path id="Trazado_774354" data-name="Trazado 774354" d="M105.189,264.774l-.605-.944a5.2,5.2,0,0,1-2.244-3.47h0A5.219,5.219,0,0,0,97.193,256h0a5.217,5.217,0,0,0-3.69,1.528l-2.063,2.045-.044.043-.034.03c.041.082.116.134.16.214a5.269,5.269,0,0,0,4.612,2.721h.67a6.271,6.271,0,0,1-5.7-3.457,5.487,5.487,0,0,0-6.88-2.774l-7.842,2.94-1.769-2.654a1.429,1.429,0,0,0-2.618.793v4.055a2.193,2.193,0,0,0,2.194,2.194H79.5a4.81,4.81,0,0,1,3.551,1.565,4.159,4.159,0,0,1,1.013,2.822h0a9.836,9.836,0,0,0,9.693,9.87,23.764,23.764,0,0,0,12.4-3.385l5.325-3.195,1.791-1.1-6.117-1.376Z" transform="translate(-72 -256)" fill="#f9e0a6"/>
        <path id="Trazado_774355" data-name="Trazado 774355" d="M213.376,259.629h0a7.051,7.051,0,0,0,5.736,2.951h6.245L223.7,258.6l-.093-.129a5.2,5.2,0,0,0-8.11-.94Z" transform="translate(-193.994 -256)" fill="#f9e0a6"/>
      </g>
      <path id="Trazado_774356" data-name="Trazado 774356" d="M214.581,42l-.317-.476a11.166,11.166,0,0,1-1.877-6.2h0a15.586,15.586,0,0,1,1.26-6.139l.77-1.8a15.577,15.577,0,0,0,1.26-6.138V8H211.29V20.773a15.589,15.589,0,0,1-1.645,6.969h0A15.589,15.589,0,0,0,208,34.711h0a20.776,20.776,0,0,0,1.485,7.711l.709,1.771Z" transform="translate(-179.484 -6.903)" fill="#eabd8c"/>
      <path id="Trazado_774357" data-name="Trazado 774357" d="M52.645,18.645A10.98,10.98,0,0,1,41.677,7.677V0H26.323V7.677A10.98,10.98,0,0,1,15.355,18.645,15.372,15.372,0,0,0,0,34a34,34,0,0,0,68,0A15.372,15.372,0,0,0,52.645,18.645ZM34,65.806A31.843,31.843,0,0,1,2.194,34,13.176,13.176,0,0,1,15.355,20.839,13.176,13.176,0,0,0,28.516,7.677V2.194H30.71V4.387H32.9V2.194H35.1V14.35a14.406,14.406,0,0,1-1.17,5.705l-.771,1.8a16.58,16.58,0,0,0-1.349,6.57A12.2,12.2,0,0,0,33.3,34.28a6.212,6.212,0,0,0-2.162,1.127l-.117-.3a19.571,19.571,0,0,1-1.408-7.3,14.548,14.548,0,0,1,1.53-6.479A16.783,16.783,0,0,0,32.9,13.87V6.581H30.71V13.87a14.548,14.548,0,0,1-1.53,6.479,16.783,16.783,0,0,0-1.76,7.459,21.739,21.739,0,0,0,1.564,8.117l.268.669a6.566,6.566,0,0,0-7.536-2.175l-7.027,2.636L13.4,35.125a2.525,2.525,0,0,0-4.627,1.4v4.055a3.294,3.294,0,0,0,3.29,3.29v2.194a2.2,2.2,0,0,0,2.194,2.194H15.91a27.425,27.425,0,0,0,8.049,6.963l1.44.823a10.9,10.9,0,0,0,6.407,2.085,24.869,24.869,0,0,0,12.787-3.541l5.293-3.176a10.964,10.964,0,1,0-5.073-19.475,3.53,3.53,0,0,0-.943-.129c-1.883,0-3.541,1.435-4.549,3.858a6.258,6.258,0,0,0-3.6-1.606l-.032-.047A10.032,10.032,0,0,1,34,28.424a14.406,14.406,0,0,1,1.17-5.705l.771-1.8a16.58,16.58,0,0,0,1.349-6.57V2.194h2.194V7.677A13.176,13.176,0,0,0,52.645,20.839,13.176,13.176,0,0,1,65.806,34,31.843,31.843,0,0,1,34,65.806Zm5.129-26.169a6.318,6.318,0,0,0,2.718,4.2l1.417.944,1.216-1.825-1.417-.944a4.116,4.116,0,0,1-1.77-2.738,6.3,6.3,0,0,0-.395-1.339l.067-.36C41.546,35.438,42.714,34,43.871,34a1.584,1.584,0,0,1,.684.172l.655.313.545-.48a8.775,8.775,0,1,1,0,13.151L44.3,48.8a11.032,11.032,0,0,0,2.735,1.761l-3.573,2.144a22.682,22.682,0,0,1-11.659,3.229,8.784,8.784,0,0,1-8.774-8.774,3.289,3.289,0,0,1,1.114-2.468L22.7,43.048a5.514,5.514,0,0,0-.752.817,5.892,5.892,0,0,0-4.574-2.188H12.065a1.1,1.1,0,0,1-1.1-1.1V36.526a.344.344,0,0,1,.609-.184l2.253,3.378,8.657-3.246a4.389,4.389,0,0,1,5.469,2.149,7.474,7.474,0,0,0,6.72,4.152h1.519V40.581H34.675a5.284,5.284,0,0,1-3.948-1.756L32.15,37.4a4.12,4.12,0,0,1,6.979,2.236Zm-24.87,4.234h3.113a3.713,3.713,0,0,1,3.525,2.54h0a5.5,5.5,0,0,0-.058.75,10.9,10.9,0,0,0,.641,3.657,25.239,25.239,0,0,1-4.15-4.315L17,46.065H14.258Z"/>
      <rect id="Rectángulo_356144" data-name="Rectángulo 356144" width="3" height="3" transform="translate(49 54)"/>
      <rect id="Rectángulo_356145" data-name="Rectángulo 356145" width="2" height="3" transform="translate(58 27)"/>
      <rect id="Rectángulo_356146" data-name="Rectángulo 356146" width="1" height="2" transform="translate(41 24)"/>
      <rect id="Rectángulo_356147" data-name="Rectángulo 356147" width="2" height="1" transform="translate(20 30)"/>
      <rect id="Rectángulo_356148" data-name="Rectángulo 356148" width="1" height="2" transform="translate(14 52)"/>
      <rect id="Rectángulo_356149" data-name="Rectángulo 356149" width="2" height="3" transform="translate(33 61)"/>
      <rect id="Rectángulo_356150" data-name="Rectángulo 356150" width="1" height="3" transform="translate(7 27)"/>
    </g>
  </g>
</svg>
