<svg xmlns="http://www.w3.org/2000/svg" width="114" height="114" viewBox="0 0 114 114">
  <g id="Grupo_1044018" data-name="Grupo 1044018" transform="translate(-194 -584)">
    <rect id="Rectángulo_34817" data-name="Rectángulo 34817" width="114" height="114" rx="13" transform="translate(194 584)" fill="#3449bc"/>
    <g id="mama" transform="translate(114.21 587.685)">
      <path id="Trazado_773584" data-name="Trazado 773584" d="M158,257.274c-.287-2.19-.7-5.464-1.149-9.091l-31.245-39.577c-10,15.2-11.568,41.174-11.814,48.877a2.149,2.149,0,0,0,2.148,2.216h39.929A2.149,2.149,0,0,0,158,257.274Z" transform="translate(-4.928 -163.602)" fill="#24a7bc"/>
      <path id="Trazado_773585" data-name="Trazado 773585" d="M249.516,32.259a2.2,2.2,0,0,1,0-.925c2.338-10.92-13.5-19.781-22.675-14.165-6.37,3.9-11.965,13.427-15.413,15.968l29.74,43.335c11.013-9.723,4.39-21.867,4.208-25.922s2.209-6.2,3.94-11.423A13.829,13.829,0,0,0,249.516,32.259Z" transform="translate(-85.078 -5.021)" fill="#8e3a5b"/>
      <path id="Trazado_773586" data-name="Trazado 773586" d="M279.568,115.109a.232.232,0,0,0-.33-.163c-6.523,3.176-12.635-3.091-17.968,3.332l-8.534,10.805,11.286,2.85c4.71,4.016,7.028-1.155,8.006-2.322.608-.725,2.863-1.5,3.737-1.986a1.553,1.553,0,0,0,.563-2,4.377,4.377,0,0,1,.562-4.222C278.35,119.476,280.2,118.274,279.568,115.109Z" transform="translate(-118.989 -86.695)" fill="#f88"/>
      <path id="Trazado_773587" data-name="Trazado 773587" d="M253.648,221.052c-.294-8.079-4.217-19.085-15.588-21.492l-11.328,7.349a101.011,101.011,0,0,0-.349,16.278,29.53,29.53,0,0,0,2.561,8.149,9.914,9.914,0,0,0,3.926,4.27l3.235,1.9c5.047,1.289,14.136,1.366,16.717-7.29A36.934,36.934,0,0,0,253.648,221.052Z" transform="translate(-97.18 -156.176)" fill="#ffd2d2"/>
      <path id="Trazado_773588" data-name="Trazado 773588" d="M179.215,359.145a9.728,9.728,0,0,1-.276,1.189s-1.033-.2-1.97-.441a2.989,2.989,0,0,0-2.582.532c-4.31,3.406-9.42,3.65-12.428,5.02-1.76.985-6.372-.716-5.252-4.081.568-1.707,3.422-1.479,3.671-1.739,1.209-1.264,3.3-5.315,5.688-8.119a6.6,6.6,0,0,1,7.376-1.893c4.57,1.753,5.748,4.873,5.9,7.3a9.835,9.835,0,0,1-.124,2.231Z" transform="translate(-40.015 -279.004)" fill="#f88"/>
      <path id="Trazado_773589" data-name="Trazado 773589" d="M220.838,240.928a2.65,2.65,0,0,0-.727,1.271c-1.223,4.96-3.741,6.008-5.951,4.858A9.05,9.05,0,0,1,211,244a2.539,2.539,0,0,0-1.565-1.288c-8.479-1.25-14.856-4.758-19.092-9.672a29.429,29.429,0,0,1-5.127-8.562c-.009-.025-.02-.05-.03-.077-.294-.763-.546-1.52-.765-2.273q-.156-.543-.288-1.076a23.886,23.886,0,0,1-.664-4.348c-.177-3.2.426-5.922,1.735-7.571a4.316,4.316,0,0,1,2.172-1.52c3.979-1.182,6.481.666,8.145,3.7a24.78,24.78,0,0,1,2.147,6c.449,1.861.783,3.753,1.076,5.457.125.722.242,1.408.358,2.045a12.543,12.543,0,0,0,1.042,3.757c3.8,5.9,11.425,6.418,13.032,7.165a3.431,3.431,0,0,0,1.613.312c1.784-.093,6.184.039,6.574,3.533A1.59,1.59,0,0,1,220.838,240.928Z" transform="translate(-62.103 -162.493)" fill="#f88"/>
      <path id="Trazado_773590" data-name="Trazado 773590" d="M173.283,115.991a2.791,2.791,0,0,1-1.219-.276,2.877,2.877,0,0,1-1.58-2.844,4.446,4.446,0,0,1,.327-1.172,3.922,3.922,0,0,0,.176-.513,1.365,1.365,0,0,0-.657-1.433,1.075,1.075,0,0,1,1-1.9,3.491,3.491,0,0,1,1.75,3.812,5.727,5.727,0,0,1-.268.813,2.776,2.776,0,0,0-.193.618.683.683,0,0,0,1.156.561,1.075,1.075,0,1,1,1.5,1.54A2.865,2.865,0,0,1,173.283,115.991Z" transform="translate(-50.868 -80.79)" fill="#462e4c"/>
      <path id="Trazado_773591" data-name="Trazado 773591" d="M181.881,93.616a3.754,3.754,0,0,0-4.319-2.214c-2.71-8.992-15.018-12.175-22.286-1.524-4.48,6.564-1.549,12.606,2.472,15.855,3.876,3.132,3.64,7.391,13.019,4.865a12.034,12.034,0,0,0,8.2-12.2c2.585-.083,3.713-2.487,2.916-4.787Z" transform="translate(-37.134 -60.629)" fill="#ff9f9f"/>
      <path id="Trazado_773592" data-name="Trazado 773592" d="M187.727,239.863c-4.663,3-11.561,2.955-13.8,2.788a.954.954,0,0,1-.908-.706c-.309-1.817-1.464-2.366-2.312-1.592a.737.737,0,0,1-.55.182c-.588-.04-1.785.26-1.938,3.293-.145,2.865,1.762,4.064,3.765,4.792a22.5,22.5,0,0,0,18.526-.785c.871-.433,4.379-2.5,2.65-6.387a3.736,3.736,0,0,0-5.429-1.583Z" transform="translate(-49.597 -188.769)" fill="#f88"/>
      <g id="Grupo_1044017" data-name="Grupo 1044017" transform="translate(107.79 9.315)">
        <path id="Trazado_773593" data-name="Trazado 773593" d="M331.369,179.159a4.511,4.511,0,0,1-1.534-1.716,1.108,1.108,0,0,1,.354-1.458,1.074,1.074,0,0,1,1.525.415,2.463,2.463,0,0,0,.806.949,1.073,1.073,0,0,1-1.152,1.81Z" transform="translate(-289.958 -146.002)" fill="#12263f"/>
        <path id="Trazado_773594" data-name="Trazado 773594" d="M235.167,162.174a1.074,1.074,0,0,1-.26-2.117.555.555,0,0,0,.382-.435,1.074,1.074,0,0,1,2.135.248,2.706,2.706,0,0,1-2,2.272A1.078,1.078,0,0,1,235.167,162.174Z" transform="translate(-211.474 -131.924)" fill="#12263f"/>
        <path id="Trazado_773595" data-name="Trazado 773595" d="M192.777,191.818a2.1,2.1,0,0,1-.764-.142,1.074,1.074,0,1,1,.77-2.006.146.146,0,0,0,.07-.03,1.075,1.075,0,1,1,2,.791,2.194,2.194,0,0,1-1.167,1.2,2.258,2.258,0,0,1-.906.191Z" transform="translate(-176.364 -156.789)" fill="#12263f"/>
        <path id="Trazado_773596" data-name="Trazado 773596" d="M229.36,200.433a2.2,2.2,0,0,1-.456-.047,1.074,1.074,0,1,1,.446-2.1.24.24,0,0,0,.156-.052.245.245,0,0,0,.1-.127,1.074,1.074,0,1,1,2.123.334A2.366,2.366,0,0,1,230.724,200,2.418,2.418,0,0,1,229.36,200.433Z" transform="translate(-206.515 -163.551)" fill="#12263f"/>
        <path id="Trazado_773597" data-name="Trazado 773597" d="M219.463,145.789a1.074,1.074,0,0,1-.26-2.117l.726-.182a1.074,1.074,0,1,1,.521,2.085l-.726.181A1.07,1.07,0,0,1,219.463,145.789Z" transform="translate(-198.582 -119.436)" fill="#12263f"/>
        <path id="Trazado_773598" data-name="Trazado 773598" d="M180.642,172.823a1.074,1.074,0,0,1-1-1.474l.182-.454a1.074,1.074,0,1,1,2,.8l-.181.454A1.074,1.074,0,0,1,180.642,172.823Z" transform="translate(-166.714 -141.405)" fill="#12263f"/>
        <path id="Trazado_773599" data-name="Trazado 773599" d="M165.258,34.444a15.107,15.107,0,0,0,.188-7.627.251.251,0,0,1,0-.109c1.153-5.025-1.149-10.164-6.159-13.747a19.775,19.775,0,0,0-8.932-3.519,13.973,13.973,0,0,0-9.163,1.793,32.387,32.387,0,0,0-8.622,8.242c-.627.8-1.184,1.5-1.726,2.108-5.159-.584-10.255,2.05-13.719,7.126-4.558,6.68-1.87,12.938,2.083,16.594-9.649,15.53-11.18,41-11.419,48.541a3.222,3.222,0,0,0,3.222,3.325h39.929a3.223,3.223,0,0,0,3.2-3.639c-.222-1.7-.541-4.22-.951-7.5a4.147,4.147,0,0,0,.488.03,3.959,3.959,0,0,0,1.641-.354c1.731-.783,2.987-2.715,3.734-5.744a1.567,1.567,0,0,1,.43-.755,2.655,2.655,0,0,0,.849-2.233,4.681,4.681,0,0,0-3.359-3.962c.056-.325.109-.68.158-1.057A18.859,18.859,0,0,0,163.5,59.311a31.438,31.438,0,0,0-1.445-10.72,18.227,18.227,0,0,1-.681-3.109c-.1-2.232.672-3.808,1.74-5.989a38.209,38.209,0,0,0,2.147-5.048ZM118.9,29.924c3.145-4.609,7.564-6.849,12.124-6.145a10.314,10.314,0,0,1,8.074,6.45,4.662,4.662,0,0,0-1.75,2.559,1.112,1.112,0,0,0,.619,1.37,1.076,1.076,0,0,0,1.423-.7c.333-1.133.952-1.719,1.84-1.74a2.672,2.672,0,0,1,2.265,4.157,2.111,2.111,0,0,1-1.8.824h-.059a1.074,1.074,0,0,0-1.074,1.06,11.575,11.575,0,0,1-.152,3.624,11.194,11.194,0,0,1-7.2,7.619c-6.3,1.695-7.516.206-9.347-2.047a16.81,16.81,0,0,0-2.514-2.64c-3.823-3.089-6.474-8.492-2.447-14.392Zm26.859,2.711a4.285,4.285,0,0,0-1.209-1.761c2.234-1.659,4.643-1.324,7.384-.941,2.371.331,4.981.7,7.692-.261-.017,1.346-.714,2.163-1.664,3.268-.3.352-.616.716-.921,1.12a5.37,5.37,0,0,0-.627,5.424.354.354,0,0,1,.052.262.4.4,0,0,1-.216.245c-.236.131-.645.311-1.077.5a8.487,8.487,0,0,0-2.961,1.734,8.583,8.583,0,0,0-.574.821c-.608.937-1.441,2.221-2.673,2.447a2.684,2.684,0,0,1-1.777-.288,40.243,40.243,0,0,0-4.94-2.471,13.84,13.84,0,0,0,.662-4.034,4.05,4.05,0,0,0,2.328-1.566,4.932,4.932,0,0,0,.522-4.5ZM124.245,54.954c.906.067,9,.558,14.466-2.956a2.69,2.69,0,0,1,2.229-.313,2.6,2.6,0,0,1,1.638,1.429c1.288,2.9-1.072,4.454-2.147,4.989-5.595,2.785-11.378,3.026-17.68.737-2.265-.823-3.152-1.9-3.059-3.728.082-1.624.477-2.1.6-2.2a.243.243,0,0,1,.2-.074c.5.021.758-.331,1.037-.5a.609.609,0,0,1,.381-.018c.093.042.336.326.457,1.033a2.006,2.006,0,0,0,1.887,1.6Zm-1.568-4.635a9.832,9.832,0,0,1,.287-1.088,6.867,6.867,0,0,0,5.77,2.636,18.987,18.987,0,0,0,4.6-.676c.093.233.183.473.271.725a28.914,28.914,0,0,1-9.163.9A3.2,3.2,0,0,0,122.676,50.319Zm18.71,9.708c2.5-1.244,4.824-4.029,3.153-7.786a4.746,4.746,0,0,0-2.986-2.615,4.835,4.835,0,0,0-4.006.565,13.091,13.091,0,0,1-1.916,1.009c-.093-.263-.187-.515-.284-.76a14.616,14.616,0,0,0,3.176-2.1,12.767,12.767,0,0,0,2.887-3.623c11.658,4.37,13.774,14.475,13.983,20.2a47.373,47.373,0,0,1-.519,7.629,13.8,13.8,0,0,0-2.241-.057c-.378.02-2.165-.567-3.031-.777-2.757-.669-7.888-1.915-10.655-6.208a16.18,16.18,0,0,1-1.011-4.059,25.234,25.234,0,0,0,3.45-1.415ZM151.75,94.658a1.061,1.061,0,0,1-.808.366H111.014a1.073,1.073,0,0,1-1.074-1.108c.233-7.352,1.71-32.059,10.9-47.156q.292.3.559.6a11.279,11.279,0,0,0-.971,3.331,2.4,2.4,0,0,0-1.572.615,5.1,5.1,0,0,0-1.315,3.7,5.6,5.6,0,0,0,3.968,5.666,30.5,30.5,0,0,0,5.243,9.768,7.655,7.655,0,0,0-1.522,1.368,48.177,48.177,0,0,0-3.658,5.2,31.964,31.964,0,0,1-1.81,2.67l-.224.031c-1.052.14-3.241.432-3.868,2.312a3.923,3.923,0,0,0,1.307,4.44,6.022,6.022,0,0,0,3.7,1.33,3.711,3.711,0,0,0,1.74-.387,23.77,23.77,0,0,1,3.4-1.078,24.14,24.14,0,0,0,9.214-4.06,1.921,1.921,0,0,1,1.655-.334,39.719,39.719,0,0,0,7.472,1.108,19.217,19.217,0,0,0,4.182-.442,10.183,10.183,0,0,0,2.567,2.534c.48,3.858.849,6.778,1.1,8.677a1.058,1.058,0,0,1-.258.846ZM126.868,73.2a5.5,5.5,0,0,1,1.307-1.121,28.648,28.648,0,0,0,10.082,6.806,9.089,9.089,0,0,1-.134,1.178c-.287-.064-.6-.137-.9-.214a4.083,4.083,0,0,0-3.512.732,22.07,22.07,0,0,1-8.438,3.671,25.078,25.078,0,0,0-3.768,1.213c-.027.012-.054.026-.08.04a3.4,3.4,0,0,1-3.07-.7,1.782,1.782,0,0,1-.638-2.105c.2-.606,1.445-.772,2.113-.861a2.006,2.006,0,0,0,1.316-.475,23.739,23.739,0,0,0,2.246-3.2A45.52,45.52,0,0,1,126.868,73.2Zm13.355,7.318q.08-.424.127-.851a37.978,37.978,0,0,0,4.481,1.206A21.139,21.139,0,0,1,140.223,80.517Zm17.724-3.433c.141,1.121-.814,1.679-.982,2.364-.565,2.29-1.464,3.817-2.533,4.3a2.076,2.076,0,0,1-1.879-.138,8.081,8.081,0,0,1-2.754-2.69,3.529,3.529,0,0,0-2.309-1.762c-7.8-1.15-14.174-4.37-18.433-9.311a28.35,28.35,0,0,1-4.966-8.316,25.1,25.1,0,0,0,6.926,1.017,22.076,22.076,0,0,0,4.835-.537,14.446,14.446,0,0,0,1.289,4.652c3.232,5.014,8.906,6.391,11.954,7.132a22.51,22.51,0,0,0,3.649.835c3.346-.278,5.024,1.027,5.2,2.452Zm1.277-31.507a18.619,18.619,0,0,0,.752,3.571c1.277,4.75,3.332,12.4-2.522,19.362.087-1.387.122-2.722.087-3.675-.17-4.67-1.5-12-7.475-17.424,1.709-.627,2.646-2.269,3.378-3.2a10.255,10.255,0,0,1,2.6-1.756c.5-.22.933-.41,1.257-.591a2.569,2.569,0,0,0,1.193-1.595,2.431,2.431,0,0,0-.231-1.9,3.434,3.434,0,0,1,.5-3.02c.265-.35.556-.689.838-1.016,1.179-1.37,2.5-2.909,2.115-5.675.194-.121.388-.247.582-.385a1.075,1.075,0,0,0-1.242-1.754c-2.959,2.1-5.8,1.7-8.814,1.277-3.232-.452-6.571-.918-9.7,1.953a4.556,4.556,0,0,0-1.35-.184l-.028,0a12.435,12.435,0,0,0-7.918-7.482c.336-.412.676-.842,1.025-1.285a30.573,30.573,0,0,1,8.066-7.746c4.23-2.621,10.691-1.944,15.712,1.648,4.281,3.062,6.268,7.368,5.315,11.518a2.373,2.373,0,0,0,0,1.076,12.87,12.87,0,0,1-.134,6.465,36.413,36.413,0,0,1-2.036,4.779c-1.116,2.28-2.081,4.249-1.957,7.03Z" transform="translate(-107.79 -9.315)" fill="#12263f"/>
        <path id="Trazado_773600" data-name="Trazado 773600" d="M353.585,138.015a1.088,1.088,0,0,1-.125-.007,3.019,3.019,0,0,1-2.64-2.835,1.075,1.075,0,1,1,2.143-.156.86.86,0,0,0,.744.856,1.074,1.074,0,0,1-.122,2.142Z" transform="translate(-307.295 -111.688)" fill="#12263f"/>
        <path id="Trazado_773601" data-name="Trazado 773601" d="M372.367,119.576a1.068,1.068,0,0,1-.681-.243,2.607,2.607,0,0,0-1.491-.562,1.074,1.074,0,0,1-.167-2.142,4.682,4.682,0,0,1,3.02,1.042,1.074,1.074,0,0,1-.682,1.905Z" transform="translate(-322.254 -97.403)" fill="#12263f"/>
        <path id="Trazado_773602" data-name="Trazado 773602" d="M145.467,84.689a1.074,1.074,0,0,0-1.519-.02.683.683,0,0,1-1.156-.561c.018-.168.391-1.128.46-1.431a3.494,3.494,0,0,0-.832-3.1c.047-.075,1.01-2.2,1.045-2.288A5.7,5.7,0,0,0,144,74.954a2.92,2.92,0,0,0-1.5-2.562,2.833,2.833,0,0,0-3.538,1.061,3.772,3.772,0,0,0-.461,2.825.179.179,0,0,1-.237.205,3.688,3.688,0,0,0-2.864.008,3,3,0,0,0-1.675,2.612,3.074,3.074,0,0,0,1.513,2.666,3.422,3.422,0,0,0,1.733.445,4.393,4.393,0,0,0,1.11-.147,8.988,8.988,0,0,0,2.156-.975c.107-.061.259-.134.43-.218a1.377,1.377,0,0,1,.49,1.323,3.951,3.951,0,0,1-.175.513,4.439,4.439,0,0,0-.327,1.172,2.877,2.877,0,0,0,1.58,2.844,2.791,2.791,0,0,0,1.219.276,2.865,2.865,0,0,0,1.993-.8,1.074,1.074,0,0,0,.021-1.519Zm-6.6-5.291a5.865,5.865,0,0,1-1.332.591,1.655,1.655,0,0,1-1.219-.076.827.827,0,0,1-.446-.773c.2-1.1,1.63-.656,1.872-.553.263.112,1.014.5,1.119.558a.143.143,0,0,1,.005.253Zm1.848-4.784c.56-.571,1.072-.067,1.134.4a3.382,3.382,0,0,1-.515,1.925.168.168,0,0,1-.3,0,4.46,4.46,0,0,1-.37-.836c-.176-.572-.251-1.191.046-1.495Z" transform="translate(-129.08 -60.884)" fill="#12263f"/>
      </g>
    </g>
  </g>
</svg>
