<svg xmlns="http://www.w3.org/2000/svg" width="108" height="108" viewBox="0 0 108 108">
  <g id="Grupo_1042646" data-name="Grupo 1042646" transform="translate(-353 -2019)">
    <g id="Grupo_1042645" data-name="Grupo 1042645" transform="translate(0 -1207)">
      <rect id="Rectángulo_33830" data-name="Rectángulo 33830" width="108" height="108" rx="12" transform="translate(353 3226)" fill="#ccc4ea"/>
    </g>
    <g id="cinco-altos" transform="translate(343.964 2032.319)">
      <path id="Trazado_770851" data-name="Trazado 770851" d="M56.488,38.669V51.144A10.36,10.36,0,0,1,41.84,60.569v0a10.36,10.36,0,0,1-5.964-8A3.34,3.34,0,1,1,39.34,47.05l.87-4.986.593-3.395Z" transform="translate(-6.366 -32.385)" fill="#fcd2be"/>
      <path id="Trazado_770852" data-name="Trazado 770852" d="M41.84,78.067a10.36,10.36,0,0,1-5.964-8,3.34,3.34,0,1,1,3.464-5.515l.87-4.986,2.726.553C41.789,62.1,36.948,69.33,41.84,78.067Z" transform="translate(-6.366 -49.885)" fill="#fab998"/>
      <path id="Trazado_770853" data-name="Trazado 770853" d="M72.366,7.6a9,9,0,0,1-9,9h-9.4v.835a3.6,3.6,0,0,1-3.6,3.6,3.341,3.341,0,0,0-3.559-.756V16.594a9,9,0,0,1,9-9Z" transform="translate(-17.404 -6.363)" fill="#363636"/>
      <path id="Trazado_770854" data-name="Trazado 770854" d="M63.155,7.6H55.812a9,9,0,0,0-9,9v3.675a3.341,3.341,0,0,1,3.559.756,3.6,3.6,0,0,0,3.6-3.6v-.835h.186A9,9,0,0,1,63.155,7.6Z" transform="translate(-17.404 -6.363)" fill="#606060"/>
      <path id="Trazado_770855" data-name="Trazado 770855" d="M58.421,199.313s-6.348,3.174-12.775,1.932a13.091,13.091,0,0,1-6.919-3.643s2.011-13.472,5.78-21.345a19.828,19.828,0,0,1,1.6-2.8l2.344.181,4.737.367c0,.659.084,1.949.257,3.63C54.027,183.391,55.638,193.747,58.421,199.313Z" transform="translate(-10.629 -145.277)" fill="#8171be"/>
      <path id="Trazado_770856" data-name="Trazado 770856" d="M45.646,201.245a13.091,13.091,0,0,1-6.919-3.643S41.308,180.31,46.1,173.46l2.344.181.679.67C47.371,177.914,43.263,191.853,45.646,201.245Z" transform="translate(-10.629 -145.277)" fill="#e7e0ff"/>
      <path id="Trazado_770857" data-name="Trazado 770857" d="M327.758,46.071l-2.518-3.607L307.054,16.423c-.845-3.13-.516-8.774,8.214-8.774a55.46,55.46,0,0,1,5.681.226c6.5.675,12.014,3.311,13.425,13.325C336.186,34.047,327.758,46.071,327.758,46.071Z" transform="translate(-235.1 -6.405)" fill="#f9ce55"/>
      <path id="Trazado_770858" data-name="Trazado 770858" d="M400.984,47.234l-2.518-3.607c.642-7.234,2.541-33.892-4.291-34.589,6.5.675,12.014,3.311,13.425,13.325C409.412,35.21,400.984,47.234,400.984,47.234Z" transform="translate(-308.326 -7.569)" fill="#e2a11e"/>
      <path id="Trazado_770859" data-name="Trazado 770859" d="M330.527,62.528a3.342,3.342,0,0,1-1.26.794,10.355,10.355,0,0,1-20.612-1.42V53.161s4.591.165,6.4-1.647a9.352,9.352,0,0,0,8.315,3.742v0a9.837,9.837,0,0,0,2.431-.446v3l0,0a3.339,3.339,0,0,1,4.722,4.722Z" transform="translate(-236.701 -43.144)" fill="#fcd2be"/>
      <path id="Trazado_770860" data-name="Trazado 770860" d="M396.55,79.51a3.343,3.343,0,0,1-1.26.794,10.358,10.358,0,0,1-7.8,8.641c5.378-2.95,1.955-16.524,1.909-16.706v0a9.837,9.837,0,0,0,2.431-.446v3l0,0a3.339,3.339,0,0,1,4.722,4.722Z" transform="translate(-302.724 -60.125)" fill="#fab998"/>
      <path id="Trazado_770861" data-name="Trazado 770861" d="M308.832,204.575a50.4,50.4,0,0,0,17.527.934,32.485,32.485,0,0,0,6.027-1.263c0-21.906-8.486-32.123-8.486-32.123l-1.883.207-5.47.606C315.452,185.376,308.832,204.575,308.832,204.575Z" transform="translate(-236.849 -144.156)" fill="#3bc192"/>
      <path id="Trazado_770862" data-name="Trazado 770862" d="M392.238,205.509a32.486,32.486,0,0,0,6.027-1.263c0-21.906-8.486-32.123-8.486-32.123l-1.883.207-.405.646S395.127,189.339,392.238,205.509Z" transform="translate(-302.728 -144.156)" fill="#04af92"/>
      <path id="Trazado_770863" data-name="Trazado 770863" d="M114.754,85.364V83.651a1.235,1.235,0,0,0-2.471,0v1.713a1.235,1.235,0,0,0,2.471,0Z" transform="translate(-72.234 -69.025)"/>
      <path id="Trazado_770864" data-name="Trazado 770864" d="M139.688,83.651v1.713a1.235,1.235,0,1,0,2.471,0V83.651a1.235,1.235,0,1,0-2.471,0Z" transform="translate(-95.187 -69.025)"/>
      <path id="Trazado_770865" data-name="Trazado 770865" d="M91.4,126.386a1.235,1.235,0,1,0-2.145,1.226,6.078,6.078,0,0,0,5.245,3.026l.067,0a1.235,1.235,0,0,0,.065-2.469A3.631,3.631,0,0,1,91.4,126.386Z" transform="translate(-52.81 -105.329)"/>
      <path id="Trazado_770866" data-name="Trazado 770866" d="M28.4,21.031a11.591,11.591,0,0,0,22.956-2.272V12.936a1.235,1.235,0,0,0-2.471,0v5.823a9.119,9.119,0,0,1-18.152,1.252,1.235,1.235,0,0,0-.814-1,2.108,2.108,0,0,1-.8-.5A2.1,2.1,0,0,1,32.1,15.536l.023.023a1.232,1.232,0,0,0,.906.339,4.838,4.838,0,0,0,4.761-4.431h8.178A10.243,10.243,0,0,0,56.2,1.236,1.235,1.235,0,0,0,54.962,0H38.409A10.242,10.242,0,0,0,28.178,10.232a1.235,1.235,0,1,0,2.471,0,7.769,7.769,0,0,1,7.761-7.761H53.628A7.773,7.773,0,0,1,45.966,9h-9.4a1.235,1.235,0,0,0-1.235,1.235v.835A2.365,2.365,0,0,1,33.39,13.39a4.579,4.579,0,0,0-4.418-.638,4.58,4.58,0,0,0-.572,8.279Z"/>
      <path id="Trazado_770867" data-name="Trazado 770867" d="M43.422,184.906a74.327,74.327,0,0,0-4.525,14.7,1.235,1.235,0,1,0,2.415.52,71.961,71.961,0,0,1,4.345-14.168,1.235,1.235,0,0,0-2.236-1.052Z" transform="translate(-10.748 -154.268)"/>
      <path id="Trazado_770868" data-name="Trazado 770868" d="M64.568,70.269A1.235,1.235,0,0,0,63.332,71.5v6a38.346,38.346,0,0,1-5.741,8.921,24.019,24.019,0,0,1-9.052,6.784c-.09-.733-.17-1.446-.24-2.128a1.235,1.235,0,1,0-2.458.251c.052.505.152,1.434.308,2.65a17.776,17.776,0,0,1-5.818.436,1.235,1.235,0,0,0-.213,2.462q.895.077,1.779.077a19.942,19.942,0,0,0,4.589-.535c.685,4.631,1.928,11.211,3.914,15.832a24.124,24.124,0,0,1-5.538,1.45c-4.579.6-8.337-.4-11.182-2.977.079-.484.2-1.225.374-2.149a1.235,1.235,0,1,0-2.43-.446c-.318,1.734-.48,2.814-.487,2.859a1.235,1.235,0,0,0,.348,1.056,14.242,14.242,0,0,0,3.623,2.637c.011.027.022.054.035.081a29.646,29.646,0,0,1-1.308,25.446,1.235,1.235,0,0,0,1.086,1.825H39.2a1.235,1.235,0,1,0,0-2.471H36.924a31.909,31.909,0,0,0,2.713-17.407,32.356,32.356,0,0,0-1.427-6.321,17.217,17.217,0,0,0,4.2.5,21.271,21.271,0,0,0,2.848-.2c.862-.116,1.678-.276,2.433-.456A29.764,29.764,0,0,1,46,140.213a1.235,1.235,0,0,0,1.086,1.825h4.281a1.235,1.235,0,1,0,0-2.471H49.09A32.242,32.242,0,0,0,50.079,115a21.506,21.506,0,0,0,2.526-1.012,1.235,1.235,0,0,0,.552-1.657C51.2,108.413,49.738,101.66,48.873,95.7a26.208,26.208,0,0,0,10.582-7.656,39.852,39.852,0,0,0,6.254-9.812,1.236,1.236,0,0,0,.094-.473V71.5A1.235,1.235,0,0,0,64.568,70.269Z" transform="translate(-4.26 -58.851)"/>
      <path id="Trazado_770869" data-name="Trazado 770869" d="M278.457,88.592a1.235,1.235,0,0,0-.465,1.684c2.364,4.169,6.3,13.258,6.459,27.747a46.388,46.388,0,0,1-20.7.33c1.369-4.156,5.534-17.294,6.979-27.54a1.235,1.235,0,0,0-2.447-.345q-.112.8-.246,1.614c-7.619-4.31-11.816-13.092-12.484-14.577v-6a1.235,1.235,0,0,0-2.471,0v6.259a1.236,1.236,0,0,0,.094.473c.2.479,4.851,11.482,14.4,16.407a210.183,210.183,0,0,1-6.607,24.224,1.235,1.235,0,0,0,.892,1.607,53.76,53.76,0,0,0,6.3,1.055,31.77,31.77,0,0,0,2.628,18.038h-2.275a1.235,1.235,0,0,0,0,2.471h4.281a1.235,1.235,0,0,0,1.085-1.825,29.324,29.324,0,0,1-3.251-18.48c1.055.062,2.07.091,3.038.091.877,0,1.715-.023,2.515-.064a31.743,31.743,0,0,0,2.659,17.806h-2.277a1.235,1.235,0,1,0,0,2.471h4.282a1.235,1.235,0,0,0,1.086-1.825,29.336,29.336,0,0,1-3.227-18.644,35.02,35.02,0,0,0,7.395-1.462,1.236,1.236,0,0,0,.827-1.166c0-15.59-4.251-25.415-6.785-29.883A1.235,1.235,0,0,0,278.457,88.592Z" transform="translate(-190.155 -58.85)"/>
      <path id="Trazado_770870" data-name="Trazado 770870" d="M357.919,85.364V83.651a1.235,1.235,0,0,0-2.471,0v1.713a1.235,1.235,0,0,0,2.471,0Z" transform="translate(-275.891 -69.025)"/>
      <path id="Trazado_770871" data-name="Trazado 770871" d="M330.514,85.364V83.651a1.235,1.235,0,1,0-2.471,0v1.713a1.235,1.235,0,0,0,2.471,0Z" transform="translate(-252.939 -69.025)"/>
      <path id="Trazado_770872" data-name="Trazado 770872" d="M352.553,129.471a1.235,1.235,0,0,0,1.233,1.169l.067,0a6.079,6.079,0,0,0,5.245-3.026,1.235,1.235,0,1,0-2.145-1.226,3.63,3.63,0,0,1-3.232,1.785A1.235,1.235,0,0,0,352.553,129.471Z" transform="translate(-273.465 -105.33)"/>
      <path id="Trazado_770873" data-name="Trazado 770873" d="M441.673,24.464c2.194,1.972,3.549,4.977,4.142,9.187,1.181,8.375-2.247,16.49-4.4,20.582a1.235,1.235,0,1,0,2.188,1.149c2.287-4.355,5.932-13.015,4.654-22.076-.678-4.81-2.293-8.3-4.937-10.68a1.235,1.235,0,1,0-1.651,1.837Z" transform="translate(-347.764 -18.685)"/>
      <path id="Trazado_770874" data-name="Trazado 770874" d="M300.647,11.291a13.688,13.688,0,0,0,6.248-1.212,10.9,10.9,0,0,0,9.709,3.2V14.7a1.236,1.236,0,0,0,2.111.872,2.108,2.108,0,0,1,2.246-.475,2.1,2.1,0,0,1,.73,3.45,2.1,2.1,0,0,1-.8.5,1.235,1.235,0,0,0-.814,1A9.12,9.12,0,0,1,301.927,18.8v-5a1.235,1.235,0,1,0-2.471,0v5a11.591,11.591,0,0,0,22.956,2.273,4.575,4.575,0,0,0-3.338-8.44V11.7a1.238,1.238,0,0,0-1.648-1.164,8.49,8.49,0,0,1-9.355-2.883,1.235,1.235,0,0,0-1.852-.12c-.85.85-2.933,1.206-4.522,1.278a5.491,5.491,0,0,1,.843-4.088c1.122-1.465,3.263-2.208,6.364-2.208,3.8,0,7.778.117,10.956,1.521a1.235,1.235,0,1,0,1-2.26C317.241.182,312.97.048,308.9.048c-3.911,0-6.712,1.069-8.326,3.176-2.01,2.626-1.425,5.879-1.08,7.155A1.235,1.235,0,0,0,300.647,11.291Z" transform="translate(-228.736 -0.039)"/>
      <path id="Trazado_770875" data-name="Trazado 770875" d="M360.479,235.428c-1.485.668-2.485-.1-3.994-1.4-1.078-.931-2.193-1.893-3.627-1.775a3.629,3.629,0,0,0-2.485,1.483,1.235,1.235,0,1,0,1.9,1.582,1.512,1.512,0,0,1,.789-.6c.4-.034,1.151.613,1.811,1.183,1.091.942,2.6,2.247,4.57,2.247a4.958,4.958,0,0,0,2.052-.466,3.582,3.582,0,0,0,2.044-2.4c1.126-4.14-4.042-11.591-4.635-12.427a1.235,1.235,0,0,0-2.015,1.429,40.151,40.151,0,0,1,2.526,4.187c1.95,3.762,1.927,5.476,1.74,6.163A1.112,1.112,0,0,1,360.479,235.428Z" transform="translate(-271.401 -186.21)"/>
      <path id="Trazado_770876" data-name="Trazado 770876" d="M243.425,29.56V27.913a1.235,1.235,0,1,0-2.471,0V29.56a1.235,1.235,0,1,0,2.471,0Z" transform="translate(-180 -22.343)"/>
      <path id="Trazado_770877" data-name="Trazado 770877" d="M271.426,42.875a1.232,1.232,0,0,0,.874-.362l.824-.824a1.235,1.235,0,1,0-1.747-1.747l-.824.824a1.235,1.235,0,0,0,.873,2.109Z" transform="translate(-204.486 -33.149)"/>
      <path id="Trazado_770878" data-name="Trazado 770878" d="M207.008,41.69l.824.824a1.235,1.235,0,1,0,1.747-1.747l-.824-.824a1.235,1.235,0,0,0-1.747,1.747Z" transform="translate(-151.266 -33.15)"/>
    </g>
  </g>
</svg>
