<svg id="Grupo_1043397" data-name="Grupo 1043397" xmlns="http://www.w3.org/2000/svg" xmlns:xlink="http://www.w3.org/1999/xlink" width="451.456" height="325.816" viewBox="0 0 451.456 325.816">
  <defs>
    <clipPath id="clip-path">
      <rect id="Rect치ngulo_355981" data-name="Rect치ngulo 355981" width="278.546" height="325.817" fill="none"/>
    </clipPath>
  </defs>
  <rect id="Rect치ngulo_355977" data-name="Rect치ngulo 355977" width="451.456" height="252.816" rx="35" transform="translate(0 73.001)" fill="#b8bfe8"/>
  <g id="Grupo_1043396" data-name="Grupo 1043396" transform="translate(86.68)">
    <g id="Grupo_1043395" data-name="Grupo 1043395" clip-path="url(#clip-path)">
      <path id="Trazado_772542" data-name="Trazado 772542" d="M278.546,251.289c0,16.16-62.355,29.259-139.274,29.259S0,267.449,0,251.289,62.354,222.03,139.272,222.03s139.274,13.1,139.274,29.259" transform="translate(0 45.268)" fill="#ced8db"/>
      <path id="Trazado_772543" data-name="Trazado 772543" d="M178.96,110.787c-1.713.13-3.584.38-4.742,1.64.051-.485.093-.972.135-1.466l0-.018a13.448,13.448,0,0,1,1.878-3.975A44.334,44.334,0,0,1,216.271,86.5c-3.223,2.408-4.858,6.317-6.763,9.862a27.105,27.105,0,0,1-7.032,8.862,25.387,25.387,0,0,1-11.3,4.481c-4.032.678-8.141.777-12.216,1.077" transform="translate(35.52 17.621)" fill="#96a3ac"/>
      <path id="Trazado_772544" data-name="Trazado 772544" d="M179.925,131.077c7.113-10.588,22.844-16.87,31.785-18.871a62.924,62.924,0,0,1,25.454-.367c-7.208,4.98-12.1,13.148-20.063,16.787-4.763,2.183-10.157,2.51-15.4,2.3s-10.456-.9-15.683-.63a12.5,12.5,0,0,0-6.814,1.906q.347-.576.718-1.124" transform="translate(36.537 22.573)" fill="#96a3ac"/>
      <path id="Trazado_772545" data-name="Trazado 772545" d="M163.366,163.25c-.254-.008-.506-.025-.758-.043l0-.135a33.155,33.155,0,0,1,12.436-13.278,43.745,43.745,0,0,1,6.865-3.254,66.108,66.108,0,0,1,32.109-3.789c-4.584,1.693-7.48,6.1-10.749,9.736-4.937,5.519-11.487,9.76-18.758,11.162-6.945,1.337-14.072.058-21.149-.4" transform="translate(33.153 28.991)" fill="#96a3ac"/>
      <path id="Trazado_772546" data-name="Trazado 772546" d="M175.873,115.56c-.1.4-.211.805-.307,1.2l-.011.008a50.518,50.518,0,0,1-8.527-28.333,60.05,60.05,0,0,1,7.63-28.772q2.786,7.12,5.592,14.232c2.054,5.221,4.138,10.682,3.583,16.249-.371,3.642-1.847,7.068-3.165,10.474a134.635,134.635,0,0,0-4.8,14.938" transform="translate(34.054 12.165)" fill="#96a3ac"/>
      <path id="Trazado_772547" data-name="Trazado 772547" d="M166.27,144.5a.294.294,0,0,1-.018.089l-.028.006A24.606,24.606,0,0,0,161.04,134.1c-4.141-4.894-10.009-7.96-14.8-12.222A38.442,38.442,0,0,1,134.1,100.257c3.785,4.738,10.349,5.924,15.821,8.513A30.51,30.51,0,0,1,166.27,144.5" transform="translate(27.34 20.441)" fill="#96a3ac"/>
      <path id="Trazado_772548" data-name="Trazado 772548" d="M160.426,166.085a1.5,1.5,0,0,1-.04.2c-5.036-5.114-11.868-8.09-17.261-12.825A34.337,34.337,0,0,1,131.6,128.89a4.74,4.74,0,0,0,2.26,2.29c6.679,4.169,13.656,8.114,19.043,13.865,5.281,5.631,8.9,13.459,7.525,21.04" transform="translate(26.831 26.279)" fill="#96a3ac"/>
      <path id="Trazado_772549" data-name="Trazado 772549" d="M189.687,160.836c-7.1,1.447-14.285,3.714-20.033,8.291a27,27,0,0,0-5.617,6.088c1.064-3.951,2.36-7.842,3.76-11.622,5.178-13.989,11.808-27.7,13.41-42.714a50.051,50.051,0,0,0-2.522-23.03c-.411-1.09-2.056-.342-1.647.745,5.119,13.581,2.26,28.52-2.321,41.816-2.195,6.369-4.8,12.617-7.223,18.918a63.134,63.134,0,0,0-10.78-36.822c-.652-.964-2.053.181-1.4,1.139a61.1,61.1,0,0,1,10.062,40.528.83.83,0,0,0,.118.522,117.884,117.884,0,0,0-4.228,14.155,58.775,58.775,0,0,0-17.83-25.366c-.9-.743-1.964.719-1.069,1.457a56.718,56.718,0,0,1,18.187,27.488c-.048.274-.1.547-.148.821a53.632,53.632,0,0,0,.986,23.884c.325,1.1,2.113.82,1.784-.3a49.4,49.4,0,0,1-1.523-19.2.719.719,0,0,0,.4-.677,18.276,18.276,0,0,1,.4-3.556.684.684,0,0,0,.093-.4,23.1,23.1,0,0,1,8.531-12.7c5.467-4.228,12.221-6.324,18.906-7.687,1.135-.231.848-2.017-.3-1.783" transform="translate(28.957 19.841)" fill="#96a3ac"/>
      <path id="Trazado_772550" data-name="Trazado 772550" d="M199.9,120.428a60.732,60.732,0,0,0-33.775,24.842c-.638.97.817,2.043,1.457,1.069A58.857,58.857,0,0,1,200.2,122.211c1.1-.318.822-2.106-.3-1.783" transform="translate(33.838 24.545)" fill="#96a3ac"/>
      <path id="Trazado_772551" data-name="Trazado 772551" d="M173.465,177.03a17.152,17.152,0,0,0,3.211,9.849c.488-.3.972-.585,1.466-.88l-.065-.108a40.27,40.27,0,0,0-.118-39.356q-1.71,9.968-3.425,19.928a50.654,50.654,0,0,0-1.069,10.568" transform="translate(35.362 29.876)" fill="#2d728f"/>
      <path id="Trazado_772552" data-name="Trazado 772552" d="M200.8,124.956a53.056,53.056,0,0,0,4.128,39.366c.294-.362.578-.719.863-1.082a47.223,47.223,0,0,0-4.991-38.283" transform="translate(40.524 25.476)" fill="#2d728f"/>
      <path id="Trazado_772553" data-name="Trazado 772553" d="M191.187,177.825c.28-.214.569-.426.845-.65a44.92,44.92,0,0,0,.017-41.807c-1.937,7.7-3.883,15.437-4.752,23.336-.744,6.738-.56,14.022,3.155,19.665.255-.178.495-.361.734-.544" transform="translate(38.116 27.599)" fill="#2d728f"/>
      <path id="Trazado_772554" data-name="Trazado 772554" d="M176.326,180.168c-.385.23-.779.457-1.167.695a8.893,8.893,0,0,0,2.7,4.1,20.515,20.515,0,0,0,5.31,3.2,79.567,79.567,0,0,0,22.629,6.512c-3.874-4.324-7.817-8.708-12.766-11.734s-11.141-4.539-16.634-2.675a.865.865,0,0,1-.069-.093" transform="translate(35.712 36.586)" fill="#2d728f"/>
      <path id="Trazado_772555" data-name="Trazado 772555" d="M190.8,171.7a25.788,25.788,0,0,0,34.342-2.959A48.511,48.511,0,0,0,190.8,171.7" transform="translate(38.901 34.026)" fill="#2d728f"/>
      <path id="Trazado_772556" data-name="Trazado 772556" d="M203.607,159.931c5.422,3.483,12.62,3.47,18.592,1.012,6.041-2.5,10.937-7.208,14.837-12.448a49.6,49.6,0,0,0-32.956,11.295c-.045-.087-.09-.173-.143-.262-.1.134-.212.273-.329.4" transform="translate(41.512 30.271)" fill="#2d728f"/>
      <path id="Trazado_772557" data-name="Trazado 772557" d="M210.372,155.847c.028.058.063.117.1.176a38.037,38.037,0,0,0,10.622-43.365,150.69,150.69,0,0,0-11.032,33.2c-.685,3.328-1.218,6.986.313,9.986" transform="translate(42.69 22.969)" fill="#2d728f"/>
      <path id="Trazado_772558" data-name="Trazado 772558" d="M162.656,198.74c-.262-.789-.524-1.578-.776-2.37,3.42-2.032,6.871-4.014,10.278-6.065a180.938,180.938,0,0,0,17.905-12.251,164.835,164.835,0,0,0,16.3-14.449c5.033-5.124,9.573-10.781,12.422-17.429.618-1.442,2.735-.223,2.122,1.207-3.212,7.5-8.574,13.8-14.342,19.472a181.285,181.285,0,0,1-34.456,26.325c-3.124,1.859-6.3,3.681-9.449,5.56" transform="translate(33.005 29.671)" fill="#2d728f"/>
      <path id="Trazado_772559" data-name="Trazado 772559" d="M61.185,164.9a17.138,17.138,0,0,1-5.534,8.757c-.4-.407-.8-.807-1.2-1.214l.089-.089a40.267,40.267,0,0,1,9.79-38.119q-.793,10.082-1.578,20.158A50.747,50.747,0,0,1,61.185,164.9" transform="translate(10.84 27.368)" fill="#2d728f"/>
      <path id="Trazado_772560" data-name="Trazado 772560" d="M47.621,107.6a53.055,53.055,0,0,1-13.68,37.142c-.2-.423-.383-.838-.571-1.262A47.224,47.224,0,0,1,47.621,107.6" transform="translate(6.793 21.938)" fill="#2d728f"/>
      <path id="Trazado_772561" data-name="Trazado 772561" d="M43.969,161.338c-.22-.277-.448-.554-.66-.838a44.921,44.921,0,0,1,10.263-40.529c-.017,7.943-.032,15.919-1.132,23.789-.935,6.714-2.9,13.729-7.894,18.286-.2-.236-.391-.472-.578-.708" transform="translate(8.573 24.46)" fill="#2d728f"/>
      <path id="Trazado_772562" data-name="Trazado 772562" d="M60.672,167.411c.318.318.643.634.961.961a8.9,8.9,0,0,1-3.621,3.312,20.508,20.508,0,0,1-5.933,1.79,79.532,79.532,0,0,1-23.536.749c4.818-3.238,9.717-6.519,15.259-8.236s11.914-1.66,16.781,1.5a.829.829,0,0,0,.089-.073" transform="translate(5.819 33.613)" fill="#2d728f"/>
      <path id="Trazado_772563" data-name="Trazado 772563" d="M48.773,156.414A25.79,25.79,0,0,1,16.213,145.1a48.511,48.511,0,0,1,32.56,11.312" transform="translate(3.306 29.579)" fill="#2d728f"/>
      <path id="Trazado_772564" data-name="Trazado 772564" d="M39.029,142.114c-6.112,2.043-13.086.26-18.27-3.589-5.241-3.907-8.829-9.677-11.32-15.714a49.6,49.6,0,0,1,29.166,19.05c.066-.072.131-.146.2-.219.066.154.138.318.22.472" transform="translate(1.924 25.039)" fill="#2d728f"/>
      <path id="Trazado_772565" data-name="Trazado 772565" d="M31.168,135.593c-.041.049-.089.1-.138.147A38.041,38.041,0,0,1,31.4,91.094a150.759,150.759,0,0,1,2.532,34.9c-.155,3.394-.538,7.073-2.759,9.6" transform="translate(4.887 18.573)" fill="#2d728f"/>
      <path id="Trazado_772566" data-name="Trazado 772566" d="M73.463,190.825q.674-1.049,1.334-2.107c-2.815-2.811-5.671-5.58-8.472-8.406a180.828,180.828,0,0,1-14.341-16.278,164.566,164.566,0,0,1-12.246-18.013c-3.62-6.2-6.63-12.8-7.757-19.947-.244-1.549-2.6-.887-2.354.649,1.27,8.058,4.917,15.489,9.116,22.4A181.253,181.253,0,0,0,65.67,183.113c2.57,2.569,5.2,5.118,7.793,7.712" transform="translate(6.037 25.525)" fill="#2d728f"/>
      <path id="Trazado_772567" data-name="Trazado 772567" d="M222.5,229.22a16.772,16.772,0,0,1,5.775,9.029,3.007,3.007,0,0,1-.4,2.892,2.742,2.742,0,0,1-1.528.624,8.837,8.837,0,0,1-9.842-6.3,147.171,147.171,0,0,1-56,3.923c-4.014-.5-8.125-1.2-11.722-3.01-.732.533-1.464,1.075-2.206,1.608a9.708,9.708,0,0,1-4.61,2.242c-1.725.171-3.7-.94-3.8-2.675-.09-1.465,1.111-2.667,2.268-3.579a39.625,39.625,0,0,1,4.854-3.244,115.193,115.193,0,0,1,4.013-62.252l-.181-.073a14.467,14.467,0,0,1-9.861-12.806,2.657,2.657,0,0,1,.417-1.826,2.692,2.692,0,0,1,2.114-.722,15.955,15.955,0,0,1,14.217,9.074,122.157,122.157,0,0,1,57.01.335c2.224-4.285,4.835-8.586,9.119-10.683,1.835-.9,4.257-1.247,5.765.136,1.835,1.681,1.157,4.736-.045,6.922a21.564,21.564,0,0,1-8.315,8.361A136.69,136.69,0,0,1,222.5,229.22" transform="translate(28.169 30.783)" fill="#eabbbb"/>
      <path id="Trazado_772568" data-name="Trazado 772568" d="M193.663,205.687a169.136,169.136,0,0,0-18.933-31.453q-3.119-4.094-6.479-8c-.38-.442-1.017.2-.639.638a168.547,168.547,0,0,1,20.679,30.073q2.436,4.525,4.593,9.194c.243.527,1.023.069.78-.456" transform="translate(34.149 33.863)" fill="#34323f"/>
      <path id="Trazado_772569" data-name="Trazado 772569" d="M196.021,167.661a93.1,93.1,0,0,0-11.448,22.81c-.187.551.685.789.872.24A92.245,92.245,0,0,1,196.8,168.118c.331-.48-.451-.933-.78-.456" transform="translate(37.626 34.142)" fill="#34323f"/>
      <path id="Trazado_772570" data-name="Trazado 772570" d="M208.081,201.523c-.054-.574-.958-.58-.9,0a30.225,30.225,0,0,1-1,11.085.452.452,0,0,0,.87.241,30.934,30.934,0,0,0,1.038-11.326" transform="translate(42.031 40.999)" fill="#34323f"/>
      <path id="Trazado_772571" data-name="Trazado 772571" d="M205.412,205.456q-.681,3.85-1.363,7.7c-.1.571.769.814.87.241q.683-3.85,1.364-7.7c.1-.569-.771-.815-.872-.242" transform="translate(41.601 41.823)" fill="#34323f"/>
      <path id="Trazado_772572" data-name="Trazado 772572" d="M165.943,160.444a20.681,20.681,0,0,0-8.493,1.063c-.547.189-.312,1.062.24.872a20.021,20.021,0,0,1,8.254-1.031c.579.048.577-.856,0-.9" transform="translate(32.038 32.697)" fill="#34323f"/>
      <path id="Trazado_772573" data-name="Trazado 772573" d="M164.529,162.284l-4.858,1.675c-.547.189-.312,1.062.241.872l4.858-1.675c.547-.189.311-1.062-.241-.872" transform="translate(32.491 33.081)" fill="#34323f"/>
      <path id="Trazado_772574" data-name="Trazado 772574" d="M212.682,153.411a10.55,10.55,0,0,0-10.41,8.8c-.091.569.779.814.872.241a9.654,9.654,0,0,1,9.538-8.137.452.452,0,0,0,0-.9" transform="translate(41.239 31.278)" fill="#34323f"/>
      <path id="Trazado_772575" data-name="Trazado 772575" d="M207.641,218.332c-.545-.2-.78.668-.241.872a4.794,4.794,0,0,1,2.665,5.992c-.2.545.669.781.87.24a5.7,5.7,0,0,0-3.3-7.1" transform="translate(42.223 44.508)" fill="#34323f"/>
      <path id="Trazado_772576" data-name="Trazado 772576" d="M149.544,252.969a10.57,10.57,0,0,1-9.417-2.681,18.46,18.46,0,0,1-4.555-7.489A314.417,314.417,0,0,1,22,245.1c-1.436-.237-2.919-.506-4.347-.868a39.513,39.513,0,0,1-5.178,3.185,9.976,9.976,0,0,1-3.571,1.222,3.94,3.94,0,0,1-3.425-1.159,3.478,3.478,0,0,1-.126-3.555,10.835,10.835,0,0,1,8.685-5.976c-3.208-11.455-3.913-23.423-3.19-35.224.7-11.463,2.712-22.823,4.935-34.152A23.041,23.041,0,0,1,8.9,165.4a9.721,9.721,0,0,1-3.714-4.1,4.3,4.3,0,0,1,1.075-4.927,5.453,5.453,0,0,1,1.843-.962,9.618,9.618,0,0,1,8.758,2.082,14.735,14.735,0,0,1,4.085,6.292,201.333,201.333,0,0,1,25.26-4.919c6.074-.789,12.183-1.3,18.3-1.775,25.125-1.939,51.379-2.957,75.014,4.037a15.792,15.792,0,0,1,.975-2.295,17.248,17.248,0,0,1,4.339-5.345c1.717-1.427,4.438-2.586,6.335-1.347a4.591,4.591,0,0,1,1.69,3.618,9.689,9.689,0,0,1-.235,4.139,8.454,8.454,0,0,1-4.031,4.376,25.253,25.253,0,0,1-3.553,1.687,50.572,50.572,0,0,1,4.158,18.022c.488,8.743-.75,17.471-1.979,26.151-1.293,9.089-2.612,18.274-5.685,26.985,3.976,1.333,7.2,3.966,10.2,6.623a9.07,9.07,0,0,1,1.9,2.073c1.563,2.712-.76,6.276-4.094,7.151" transform="translate(0.987 30.913)" fill="#eabbbb"/>
      <path id="Trazado_772577" data-name="Trazado 772577" d="M22,196.569A93.222,93.222,0,0,1,17.522,171.9c-.025-.58-.929-.583-.9,0a94.168,94.168,0,0,0,4.506,24.913c.179.55,1.052.314.872-.241" transform="translate(3.388 34.958)" fill="#34323f"/>
      <path id="Trazado_772578" data-name="Trazado 772578" d="M19.225,194.256q-1.436-3.931-2.872-7.863c-.2-.543-1.071-.308-.872.24q1.437,3.931,2.872,7.864c.2.542,1.071.307.872-.241" transform="translate(3.15 37.94)" fill="#34323f"/>
      <path id="Trazado_772579" data-name="Trazado 772579" d="M34.239,228.766a36.508,36.508,0,0,1-14.193-3.943c-.516-.265-.975.515-.456.781a37.641,37.641,0,0,0,14.649,4.066c.58.039.578-.866,0-.9" transform="translate(3.948 45.827)" fill="#34323f"/>
      <path id="Trazado_772580" data-name="Trazado 772580" d="M35.225,225.4l-7.184-.833c-.577-.066-.572.838,0,.9l7.184.833c.577.066.572-.838,0-.9" transform="translate(5.629 45.785)" fill="#34323f"/>
      <path id="Trazado_772581" data-name="Trazado 772581" d="M13.415,225.065a7.235,7.235,0,0,0-6.915,5.97.468.468,0,0,0,.317.556.454.454,0,0,0,.555-.315,6.338,6.338,0,0,1,6.043-5.307.452.452,0,0,0,0-.9" transform="translate(1.324 45.887)" fill="#34323f"/>
      <path id="Trazado_772582" data-name="Trazado 772582" d="M13.441,163.056a5.527,5.527,0,0,1-5.307-6.329.455.455,0,0,0-.453-.453.462.462,0,0,0-.451.453,6.423,6.423,0,0,0,6.211,7.233c.581.02.58-.884,0-.9" transform="translate(1.464 31.862)" fill="#34323f"/>
      <path id="Trazado_772583" data-name="Trazado 772583" d="M155.3,55.609a85.288,85.288,0,0,1-11.351,20.9c-2.722,3.678-5.812,7.194-9.715,9.581a22.562,22.562,0,0,1-31.46-8.261s-.634,13.068,17.352,16.458c0,0,1.961,1.129,4.907,2.99,0,0,.75,15.672-10.492,16.358-11.107.678-28.578-13.213-28.767-26.625h.1L92.1,72.79l9.517-21.736s-8.135-8.522-2.1-15.87,13.186-2.63,14.036,3.543c0,0,6.1-3.019,19.946,2.1,12.064,4.456,21.445-3.136,23.65-5.16,2.124,6.435.533,13.565-1.852,19.946" transform="translate(17.488 6.411)" fill="#ffb888"/>
      <path id="Trazado_772584" data-name="Trazado 772584" d="M177.51,203.847H177.5a78.112,78.112,0,0,1-5.54,13.908,2.17,2.17,0,0,0-.687-.885s1.319-1.085.633-2.1S154.988,217,154.988,217s-12.878-4.275-16.331,5.531l-30.024-18.681L94.065,220.1c-8.125,4.185-12.9-3.353-12.9-3.353-10.022-.515-16.168-4.086-19.865-7.7a19.616,19.616,0,0,1-5.178-8.125c-9.174-.76-7.158-13.2-6.787-31.66S40.543,106.2,52.608,95.141s41.2-17.958,41.2-17.958v.507c.19,13.411,17.66,27.3,28.768,26.625,11.243-.687,10.492-16.358,10.492-16.358,8.225,5.169,24.113,15.943,26.562,23.389,1.825,5.522,1.257,18.176.453,22.5-.66,3.588,1.093,20.153,1.093,20.153.668.4,25.992,15.915,16.331,49.852" transform="translate(9.451 15.736)" fill="#eaaaa7"/>
      <path id="Trazado_772585" data-name="Trazado 772585" d="M107.177,50.684a6.209,6.209,0,1,1-6.208,6.208,6.2,6.2,0,0,1,6.208-6.208" transform="translate(20.586 10.334)" fill="#ffa08a"/>
      <path id="Trazado_772586" data-name="Trazado 772586" d="M148.3,144.994a12.281,12.281,0,0,1-2.63.443s-20.56,6.535-22.052,4.69.778-3.515.778-3.515-12.563,1.925-12.563.335,2.015-3.517,2.015-3.517-3.353,0-4.022-1.175S112,138.4,112,138.4s-4.979-1.672-.795-4.021S122.63,127.6,122.63,127.6s-3.95-4.329.379-5.9,22.739,2.513,22.739,2.513,7.79,2.557,7.953,10c.144,6.236-1.41,9.6-5.4,10.782" transform="translate(22.332 24.738)" fill="#ffb888"/>
      <path id="Trazado_772587" data-name="Trazado 772587" d="M163.88,196.305c1.075,2.413-.515,7.528-.515,7.528s3.642,3.272-2.015,9.047-39.44,0-39.44,0L85.984,198.646,100.552,182.4l30.024,18.681c3.453-9.806,16.332-5.532,16.332-5.532s16.222-3.226,16.918-2.222-.633,2.1-.633,2.1a2.174,2.174,0,0,1,.687.886" transform="translate(17.531 37.188)" fill="#ffb888"/>
      <path id="Trazado_772588" data-name="Trazado 772588" d="M119.031,65.905c2.206,1.871,2.874,4.718,1.482,6.354s-4.3,1.446-6.507-.425-2.865-4.718-1.482-6.354,4.3-1.446,6.507.425" transform="translate(22.794 13.124)" fill="#e2798a"/>
      <path id="Trazado_772589" data-name="Trazado 772589" d="M146.9,154.629c2.6,15.165-13.9,39.7-13.9,39.7-12.228-15.41-22.865-36.685-15.743-40.372S133,164.679,133,164.679c.669-3.263,11.306-25.206,13.9-10.05" transform="translate(23.439 30.449)" fill="#e2798a"/>
      <path id="Trazado_772590" data-name="Trazado 772590" d="M179.816,236.5a9.76,9.76,0,0,0,.108-1.843h.01a117.384,117.384,0,0,1,23.127-2.992c8.767-.064,17.036,1.626,18.628,7.853,3.6,14.154,2.258,22.522-8.207,22.947s-35.663-7-35.663-7Z" transform="translate(36.254 47.233)" fill="#96a3ac"/>
      <path id="Trazado_772591" data-name="Trazado 772591" d="M146.588,252.027c-6.932,13.078-31.163,31.56-42.215,17.569-10.908-13.8,7.619-19.386,8.1-19.531h.008c12.3,1.147,24.176,1.708,34.108,1.961" transform="translate(20.58 50.984)" fill="#96a3ac"/>
      <path id="Trazado_772592" data-name="Trazado 772592" d="M207.722,245.529a9.748,9.748,0,0,1-.108,1.843l-2,18.961-.271,2.522c-2.26,5.025-7.285.506-7.285.506-6.905,4.646-12.807-2.639-12.807-2.639s-10.845.344-26.543-.072c-9.933-.253-21.808-.813-34.108-1.961h-.01c-35.617-3.307-74.778-11.468-80.625-31.217C32.914,196.119,62.3,188.419,62.3,188.419c3.7,3.615,9.842,7.186,19.864,7.7,0,0,4.772,7.538,12.9,3.354l35.925,14.234s33.792,5.775,39.44,0,2.015-9.046,2.015-9.046,1.59-5.115.515-7.529a78.022,78.022,0,0,0,5.54-13.908h.008c.642-.271,33.847-13.711,55.736,5.2,20.435,17.633,2.974,44.575-3.381,54.118a117.488,117.488,0,0,0-23.127,2.992Z" transform="translate(8.457 36.36)" fill="#34323f"/>
      <path id="Trazado_772593" data-name="Trazado 772593" d="M117.248,81.409v5.025C99.263,83.045,99.9,69.976,99.9,69.976a22.414,22.414,0,0,0,17.353,11.433" transform="translate(20.366 14.267)" fill="#34323f"/>
      <path id="Trazado_772594" data-name="Trazado 772594" d="M191.33,76.306c-1.156-2.928-3.021-5.609-3.641-8.734-.632-3.189.146-6.459.9-9.555.73-3.009,1.576-6.112,1.331-9.237a11.786,11.786,0,0,0-3.722-7.686c-4.63-4.4-11.138-5.411-16.675-8.186a16.437,16.437,0,0,1-7.158-6.507c-1.663-2.889-2.682-6.1-4.321-9A34.746,34.746,0,0,0,145.278,4.557,33.54,33.54,0,0,0,127.351.018a34.867,34.867,0,0,0-18.332,5.918c-5.209,3.539-9.654,8.757-11.166,14.982a18.436,18.436,0,0,0-.485,3.231,11.538,11.538,0,0,0-9.336,1.626,15.322,15.322,0,0,0-6,8.776c-2.321,8.67,1.62,17.413,5.321,25.072q2.422,5.011,4.853,10.018a28.731,28.731,0,0,1,.188,9.288l.614.271,9.517-21.736s-8.279-8.645-2.1-15.87c8.109-9.478,14.023,3.459,14.035,3.542,0,0,.181-.083.513-.2,6.784.455,12.823,4.079,19.413,5.442a25.39,25.39,0,0,0,17.539-2.8,24.933,24.933,0,0,0,6.275-5.027c1.893,6.307.332,13.24-1.994,19.462a85.288,85.288,0,0,1-11.351,20.9,35.775,35.775,0,0,1-9.717,9.579,22.9,22.9,0,0,1-14.107,3.172V100.7s1.961,1.13,4.907,2.992c8.225,5.169,24.113,15.943,26.562,23.39,1.825,5.521,1.356,11.54.551,15.861.019.017.039.03.058.047a.436.436,0,0,0,.112.355,12.87,12.87,0,0,0,21.528-3.312,16.1,16.1,0,0,0,1.133-7.046c-.07-2.639-.444-5.32-.052-7.95a10.575,10.575,0,0,1,1.229-3.672,26.958,26.958,0,0,1,2.141-3.055,15.124,15.124,0,0,0,3.074-5.875,12.859,12.859,0,0,0,.3-2.473c.955-4.555-.764-9.375-2.767-13.653-.441-.937-.9-1.876-1.345-2.819,2.042-1.263,4.251-2.219,6.353-3.39,2.419-1.348,4.878-3.034,6.294-5.482a9.354,9.354,0,0,0,.224-8.312M89.219,61.416a105.545,105.545,0,0,1-5.072-11.469c-2.485-7.2-3.241-16.356,2.756-22.1a11.627,11.627,0,0,1,1.885-1.464,13.564,13.564,0,0,0-3.527,6.287c-2.025,7.646.388,15.7,2.964,23.172,1.148,3.323,2.34,6.713,3.2,10.139l-2.21-4.562m54.648-11.828a23.542,23.542,0,0,1-8.956-.02,66.239,66.239,0,0,1-9.548-2.982,48.292,48.292,0,0,0-7.637-2.2c3.123-.346,8.561-.148,16.681,2.852a22.33,22.33,0,0,0,20.06-2.443,25.084,25.084,0,0,1-10.6,4.8m35.286,67.291c-1.368,1.878-2.93,3.63-3.7,5.863-1.635,4.746.258,9.816-.778,14.64a12.289,12.289,0,0,1-7.828,8.846,12.031,12.031,0,0,1-9.006-.557c6.3,1.79,11.8-3.319,12.979-7.77.921-3.489.09-7.258,1.029-10.737,1.323-4.9,5.828-8.245,8.632-12.451a15.269,15.269,0,0,1-1.329,2.166m-.27-71.836c.11.1.228.194.335.3a17.15,17.15,0,0,1,5.035,11.63,17.854,17.854,0,0,1-1.026,6.43c-.742,2.148-1.753,4.188-2.636,6.278a22.744,22.744,0,0,0-1.789,6.028c-.312,2.523.29,4.986.413,7.5a9.938,9.938,0,0,1-1.921,6.585c-.1.135-.211.262-.319.391a21.76,21.76,0,0,1-1.933-8.4c.046-8.1,6.571-14.849,7.737-22.865a18.161,18.161,0,0,0-3.895-13.877m7.635,42.95c-2.575,1.762-5.705,2.987-8.458,4.648q-.356-.764-.692-1.535a10.477,10.477,0,0,0,2.606-5.216c.451-2.58-.214-5.141-.349-7.716a16.771,16.771,0,0,1,1.3-6.94c1.675-4.348,4.091-8.393,4.23-13.174a18.2,18.2,0,0,0-4.4-12.4,18.007,18.007,0,0,0-6.607-4.71c-5.558-3.535-12.531-5.255-16.509-10.487-1.835-2.422-2.829-5.36-4.185-8.08A32.216,32.216,0,0,0,108.822,8.716a24.657,24.657,0,0,0-7.8,6.867A26.912,26.912,0,0,1,106.5,9.012a33.4,33.4,0,0,1,17.365-7.8,32.654,32.654,0,0,1,18.4,2.777,34.081,34.081,0,0,1,13.561,11.556A54.9,54.9,0,0,1,160.15,24a19,19,0,0,0,5.608,7.657c4.989,3.795,11.49,4.6,16.8,7.818a13.209,13.209,0,0,1,5.812,6.354c1.1,2.934.687,6.09.03,9.074a60.451,60.451,0,0,0-1.8,9.174,14.046,14.046,0,0,0,.4,4.493,23.835,23.835,0,0,0,1.723,4.262c1.307,2.671,2.98,5.562,2.544,8.655-.4,2.83-2.479,4.954-4.743,6.5" transform="translate(16.583 0)" fill="#34323f"/>
      <path id="Trazado_772595" data-name="Trazado 772595" d="M100.768,3.729a32.823,32.823,0,0,0-7.9,18.093c-.061.577.843.573.9,0a31.765,31.765,0,0,1,7.631-17.454c.38-.437-.255-1.079-.639-.639" transform="translate(18.934 0.73)" fill="#34323f"/>
      <path id="Trazado_772596" data-name="Trazado 772596" d="M92.835,11.3a19.624,19.624,0,0,0-1.07,8.031c.045.575.949.58.9,0a18.957,18.957,0,0,1,1.038-7.79c.2-.55-.678-.786-.872-.241" transform="translate(18.698 2.242)" fill="#34323f"/>
      <path id="Trazado_772597" data-name="Trazado 772597" d="M169.153,89.172a22.736,22.736,0,0,0-5.143-10.25c-.384-.438-1.022.2-.638.639a21.8,21.8,0,0,1,4.908,9.851c.12.568.992.327.873-.241" transform="translate(33.285 16.061)" fill="#34323f"/>
      <path id="Trazado_772598" data-name="Trazado 772598" d="M169.412,84.24a10.168,10.168,0,0,0-4.146-5.88c-.483-.327-.937.455-.457.78a9.209,9.209,0,0,1,3.731,5.34.453.453,0,0,0,.873-.241" transform="translate(33.56 15.96)" fill="#34323f"/>
      <path id="Trazado_772599" data-name="Trazado 772599" d="M90.36,23.654a15.943,15.943,0,0,0-4.041,14.463c.129.567,1,.327.872-.241A15,15,0,0,1,91,24.293c.4-.418-.234-1.058-.639-.639" transform="translate(17.521 4.795)" fill="#fff"/>
      <path id="Trazado_772600" data-name="Trazado 772600" d="M89.447,43.408l-1.766-4.646a.464.464,0,0,0-.555-.315.454.454,0,0,0-.315.556q.881,2.322,1.765,4.646a.466.466,0,0,0,.556.315.457.457,0,0,0,.315-.556" transform="translate(17.695 7.835)" fill="#fff"/>
      <path id="Trazado_772601" data-name="Trazado 772601" d="M90.131,39.006q-.361-1.95-.724-3.9a.457.457,0,0,0-.556-.317.463.463,0,0,0-.315.556q.363,1.95.724,3.9a.457.457,0,0,0,.556.315.463.463,0,0,0,.315-.556" transform="translate(18.049 7.09)" fill="#fff"/>
      <path id="Trazado_772602" data-name="Trazado 772602" d="M162.753,42.852c-.124-.568-1-.327-.872.241A21.319,21.319,0,0,1,158.087,60.3c-.35.465.433.916.78.456a22.19,22.19,0,0,0,3.886-17.909" transform="translate(32.213 8.671)" fill="#fff"/>
      <path id="Trazado_772603" data-name="Trazado 772603" d="M158.425,52.995a.456.456,0,0,0-.619.163l-1.762,4.017a.468.468,0,0,0,.163.619.456.456,0,0,0,.619-.163l1.762-4.017a.468.468,0,0,0-.163-.619" transform="translate(31.804 10.793)" fill="#fff"/>
      <path id="Trazado_772604" data-name="Trazado 772604" d="M121.963,72.9a22.725,22.725,0,0,1-10.42-10.579c-.25-.525-1.029-.067-.78.456a23.506,23.506,0,0,0,10.743,10.9c.52.258.979-.522.456-.78" transform="translate(22.573 12.658)" fill="#34323f"/>
      <path id="Trazado_772605" data-name="Trazado 772605" d="M104.28,33.8a3.217,3.217,0,0,0-3.4.23,5.759,5.759,0,0,0-2.1,3.462.452.452,0,0,0,.872.241c.4-1.576,1.4-3.545,3.325-3.414,1.772.122,2.033,2.21,1.986,3.6a12.845,12.845,0,0,1-1.353,5.3,11.668,11.668,0,0,1-1.478,2.3c-.551.651-1.6,1.484-2.445.791s-.536-2.008-.282-2.9a2.08,2.08,0,0,1,.721-1.211c.414-.279,1.26-.179,1,.5-.209.543.663.778.872.24a1.405,1.405,0,0,0-1.566-1.806c-1.2.157-1.736,1.34-1.985,2.385a3.472,3.472,0,0,0,.524,3.362,2.343,2.343,0,0,0,3.082-.031,9.062,9.062,0,0,0,2.3-3.093,13.847,13.847,0,0,0,1.283-3.726c.368-1.961.657-5.015-1.352-6.241" transform="translate(20.033 6.812)" fill="#34323f"/>
      <path id="Trazado_772606" data-name="Trazado 772606" d="M132.64,51.57l-4.421,14.5a15.794,15.794,0,0,1-6.158-1.667c-.518-.262-.976.518-.456.781a16.9,16.9,0,0,0,6.939,1.821.459.459,0,0,0,.436-.332l4.531-14.864a.452.452,0,0,0-.872-.241" transform="translate(24.747 10.45)" fill="#34323f"/>
      <path id="Trazado_772607" data-name="Trazado 772607" d="M124.118,53.064a7.682,7.682,0,0,1-6.818-5.606.452.452,0,0,0-.872.24,8.612,8.612,0,0,0,7.689,6.271c.58.041.578-.863,0-.9" transform="translate(23.734 9.611)" fill="#34323f"/>
      <path id="Trazado_772608" data-name="Trazado 772608" d="M138.828,58.283a7.911,7.911,0,0,1-6.617-2.451c-.4-.426-1.035.214-.639.639a8.763,8.763,0,0,0,7.256,2.716c.572-.063.579-.967,0-.9" transform="translate(26.8 11.355)" fill="#34323f"/>
      <path id="Trazado_772609" data-name="Trazado 772609" d="M130.662,94.327c-.642,5.031-2.581,10.07-6.525,13.427a19.527,19.527,0,0,1-12.762,4.356c-10.024-.083-18.4-7.227-23.307-15.459a67.532,67.532,0,0,1-6.8-17.194.452.452,0,0,0-.872.241c2.829,10.507,7.212,21.182,16.15,27.945a25.5,25.5,0,0,0,13.658,5.33,20.881,20.881,0,0,0,13.447-3.694c4.837-3.508,7.18-9.174,7.918-14.951.073-.575-.832-.569-.9,0" transform="translate(16.387 16.135)" fill="#34323f"/>
      <path id="Trazado_772610" data-name="Trazado 772610" d="M91.594,178a16.688,16.688,0,0,0-4.12-1.175,3.953,3.953,0,0,0,1.285-4.321,4.016,4.016,0,0,0-3.842-2.491c1.047-1.524,1.455-3.492.147-5.053a2.8,2.8,0,0,0-3.553-.539l2.2-37.933q.321-5.566.644-11.13c.034-.581-.87-.579-.9,0q-1.141,19.73-2.284,39.46-.323,5.564-.644,11.129a.454.454,0,0,0,.887.12,1.589,1.589,0,0,1,1.464-1.183,1.868,1.868,0,0,1,1.75,1.009c.923,1.583-.019,3.346-1.188,4.488-.3.294.006.933.439.755a2.963,2.963,0,1,1,2.012,5.549.454.454,0,0,0,.12.887,15.546,15.546,0,0,1,14.469,17.413c-.067.577.837.572.9,0A16.523,16.523,0,0,0,91.594,178" transform="translate(16.416 23.431)" fill="#34323f"/>
      <path id="Trazado_772611" data-name="Trazado 772611" d="M96.128,177.2q-7.447,10.528-14.893,21.055c-.336.476.447.928.78.456q7.447-10.528,14.893-21.055c.337-.476-.447-.928-.78-.456" transform="translate(16.546 36.088)" fill="#34323f"/>
      <path id="Trazado_772612" data-name="Trazado 772612" d="M86.562,195.407l-1.883-2.764a.452.452,0,0,0-.78.455l1.883,2.765a.452.452,0,1,0,.78-.456" transform="translate(17.092 39.231)" fill="#34323f"/>
      <path id="Trazado_772613" data-name="Trazado 772613" d="M88.932,192.039l-2.847-.888a.456.456,0,0,0-.556.315.461.461,0,0,0,.317.555l2.846.89a.457.457,0,0,0,.556-.315.461.461,0,0,0-.315-.556" transform="translate(17.435 38.969)" fill="#34323f"/>
      <path id="Trazado_772614" data-name="Trazado 772614" d="M90.693,189.574q-1.306-.959-2.612-1.919a.455.455,0,0,0-.619.163.465.465,0,0,0,.163.619l2.612,1.918a.454.454,0,0,0,.619-.161.465.465,0,0,0-.163-.619" transform="translate(17.82 38.247)" fill="#34323f"/>
      <path id="Trazado_772615" data-name="Trazado 772615" d="M92.462,187.171l-2.007-2.138a.456.456,0,0,0-.639,0,.461.461,0,0,0,0,.639l2.007,2.138a.457.457,0,0,0,.639,0,.461.461,0,0,0,0-.639" transform="translate(18.286 37.699)" fill="#34323f"/>
      <path id="Trazado_772616" data-name="Trazado 772616" d="M94.9,184.066l-2.777-1.482a.452.452,0,0,0-.456.78l2.777,1.482a.452.452,0,1,0,.456-.78" transform="translate(18.644 37.214)" fill="#34323f"/>
      <path id="Trazado_772617" data-name="Trazado 772617" d="M96.9,182.189l-2.508-2.768a.456.456,0,0,0-.639,0,.463.463,0,0,0,0,.639l2.508,2.768a.456.456,0,0,0,.639,0,.463.463,0,0,0,0-.639" transform="translate(19.089 36.554)" fill="#34323f"/>
      <path id="Trazado_772618" data-name="Trazado 772618" d="M111.334,140.537a42.035,42.035,0,0,1-27.7-6.265c-.492-.313-.946.468-.456.78a43.276,43.276,0,0,0,21.59,6.672,42.071,42.071,0,0,0,6.561-.283c.571-.07.577-.974,0-.9" transform="translate(16.917 27.361)" fill="#34323f"/>
      <path id="Trazado_772619" data-name="Trazado 772619" d="M100.751,140.657a43.021,43.021,0,0,0-13.679,5.334.452.452,0,0,0,.455.78,42.291,42.291,0,0,1,13.464-5.243c.569-.116.327-.987-.241-.872" transform="translate(17.709 28.675)" fill="#34323f"/>
      <path id="Trazado_772620" data-name="Trazado 772620" d="M153.565,170.854a50.025,50.025,0,0,1-1.775,13.7.452.452,0,0,0,.872.241,51.024,51.024,0,0,0,1.807-13.943.452.452,0,0,0-.9,0" transform="translate(30.944 34.745)" fill="#34323f"/>
      <path id="Trazado_772621" data-name="Trazado 772621" d="M150.085,180.125q-.563,2.324-1.128,4.648c-.137.566.734.807.872.241q.563-2.324,1.128-4.648c.137-.566-.734-.807-.872-.241" transform="translate(30.367 36.659)" fill="#34323f"/>
      <path id="Trazado_772622" data-name="Trazado 772622" d="M117.495,271.742l-14.568-16.4c-.388-.436-1.025.206-.639.639l14.568,16.4c.388.436,1.025-.206.639-.639" transform="translate(20.83 52.03)" fill="#fff"/>
      <path id="Trazado_772623" data-name="Trazado 772623" d="M126.219,270.281l-17.262-18.751c-.395-.429-1.032.212-.638.639l17.261,18.751c.395.429,1.033-.212.639-.639" transform="translate(22.059 51.254)" fill="#fff"/>
      <path id="Trazado_772624" data-name="Trazado 772624" d="M130.942,264.751,117.765,250.8c-.4-.424-1.039.217-.639.639L130.3,265.39c.4.424,1.039-.217.639-.639" transform="translate(23.854 51.105)" fill="#fff"/>
      <path id="Trazado_772625" data-name="Trazado 772625" d="M133.873,258.473l-6.6-6.462c-.415-.407-1.056.231-.639.639l6.6,6.462c.417.407,1.056-.231.639-.639" transform="translate(25.79 51.354)" fill="#fff"/>
      <path id="Trazado_772626" data-name="Trazado 772626" d="M182.208,233.807q-.341,10.97-.684,21.941c-.018.583.885.581.9,0q.343-10.97.685-21.941c.018-.581-.886-.581-.9,0" transform="translate(37.01 47.58)" fill="#fff"/>
      <path id="Trazado_772627" data-name="Trazado 772627" d="M191.067,232.982q-.964,12.811-1.93,25.62c-.043.58.861.578.9,0q.964-12.811,1.93-25.62c.043-.58-.861-.578-.9,0" transform="translate(38.562 47.413)" fill="#fff"/>
      <path id="Trazado_772628" data-name="Trazado 772628" d="M198.38,232.842q-1.233,13.394-2.468,26.788c-.054.579.85.575.9,0q1.235-13.394,2.469-26.788c.053-.579-.851-.575-.9,0" transform="translate(39.943 47.384)" fill="#fff"/>
      <path id="Trazado_772629" data-name="Trazado 772629" d="M205.724,233.392q-.97,13.82-1.941,27.641c-.041.58.863.578.9,0q.972-13.82,1.942-27.641c.041-.58-.863-.578-.9,0" transform="translate(41.548 47.496)" fill="#fff"/>
      <path id="Trazado_772630" data-name="Trazado 772630" d="M212.042,236.46q-.836,11.976-1.673,23.951c-.041.581.863.578.9,0q.836-11.974,1.673-23.951c.04-.58-.863-.578-.9,0" transform="translate(42.89 48.122)" fill="#fff"/>
      <path id="Trazado_772631" data-name="Trazado 772631" d="M196.631,234.29a5.769,5.769,0,0,0-5.33.036c.165-2.54-2.486-4.63-4.86-5.009a23.088,23.088,0,0,0-5.724.183,22.91,22.91,0,0,1-5.639-.193,45.494,45.494,0,0,1-10.942-3.523c-.678-.295-1.352-.6-2.027-.9l19.756-18.708,5.716-5.413c.423-.4-.217-1.039-.639-.639l-20.088,19.023-5.639,5.34c-2.626-1.169-5.248-2.348-7.89-3.478q-10.938-4.673-22.135-8.7-11.236-4.034-22.7-7.4c-6.741-1.973-14.255-3.843-21.174-1.614a19.519,19.519,0,0,0-2.369.947c-.525.249-.066,1.029.456.781,6.506-3.088,14-1.689,20.648.132,7.387,2.024,14.689,4.431,21.917,6.963q10.911,3.821,21.59,8.269,5.376,2.239,10.684,4.636a86.886,86.886,0,0,0,10.186,4.106,27.262,27.262,0,0,0,10.713,1.226,17,17,0,0,1,5.678-.053,4.841,4.841,0,0,1,3.394,2.839,2.8,2.8,0,0,1-.01,1.994c-.177.471.444.686.755.439a4.771,4.771,0,0,1,7.745,4.2c-.043.579.86.577.9,0a5.818,5.818,0,0,0-2.976-5.488" transform="translate(17.272 40.777)" fill="#fff"/>
      <path id="Trazado_772632" data-name="Trazado 772632" d="M126.563,43.947l-5.277-1.088a1.356,1.356,0,1,0-.72,2.615l5.275,1.088a1.356,1.356,0,0,0,.721-2.615" transform="translate(24.381 8.732)" fill="#34323f"/>
      <path id="Trazado_772633" data-name="Trazado 772633" d="M140.535,52.3l-3.092-2.856a1.417,1.417,0,0,0-.958-.4,1.355,1.355,0,0,0-.958,2.314l3.09,2.856a1.422,1.422,0,0,0,.96.4,1.355,1.355,0,0,0,.958-2.314" transform="translate(27.55 10.001)" fill="#34323f"/>
      <path id="Trazado_772634" data-name="Trazado 772634" d="M136.2,138.316l-13.435,3.9a.452.452,0,0,0,.24.872l13.437-3.9a.452.452,0,0,0-.241-.872" transform="translate(24.965 28.196)" fill="#34323f"/>
      <path id="Trazado_772635" data-name="Trazado 772635" d="M130.653,135.069l-16.075,4.37a.452.452,0,0,0,.241.872l16.075-4.37a.452.452,0,0,0-.241-.872" transform="translate(23.295 27.535)" fill="#34323f"/>
      <path id="Trazado_772636" data-name="Trazado 772636" d="M127.355,130.268l-14.586,4.816c-.549.182-.314,1.055.241.872L127.6,131.14c.549-.182.314-1.055-.241-.872" transform="translate(22.928 26.554)" fill="#34323f"/>
      <path id="Trazado_772637" data-name="Trazado 772637" d="M129.453,123.636a35.877,35.877,0,0,0-8.915,2.571c-.532.23-.073,1.009.456.78a35.047,35.047,0,0,1,8.7-2.48c.573-.087.329-.957-.241-.872" transform="translate(24.527 25.206)" fill="#34323f"/>
      <path id="Trazado_772638" data-name="Trazado 772638" d="M150.877,193.608l-9.177,6.649c-.466.338-.016,1.122.456.78l9.177-6.649c.466-.338.016-1.122-.456-.78" transform="translate(28.85 39.456)" fill="#34323f"/>
      <path id="Trazado_772639" data-name="Trazado 772639" d="M150.641,199.757a17.867,17.867,0,0,1-5.751,2.238c-.571.114-.329.986.24.872a18.609,18.609,0,0,0,5.968-2.33.452.452,0,0,0-.456-.78" transform="translate(29.474 40.713)" fill="#34323f"/>
      <path id="Trazado_772640" data-name="Trazado 772640" d="M149.9,206.044,146,206.29a.463.463,0,0,0-.451.453.456.456,0,0,0,.451.451l3.895-.246a.463.463,0,0,0,.451-.453.456.456,0,0,0-.451-.451" transform="translate(29.676 42.009)" fill="#34323f"/>
      <path id="Trazado_772641" data-name="Trazado 772641" d="M74.447,184.066a2.324,2.324,0,0,0-2.065-1.389l-.6.081a2.261,2.261,0,0,0-1,.581l-.354.457a2.256,2.256,0,0,0-.308,1.14v.252a2.182,2.182,0,0,0,1.389,2.065,1.713,1.713,0,0,0,.87.2l.6-.081a2.272,2.272,0,0,0,1-.581l.353-.457a2.246,2.246,0,0,0,.309-1.14v-.252a1.707,1.707,0,0,0-.2-.87" transform="translate(14.296 37.245)" fill="#e2798a"/>
      <path id="Trazado_772642" data-name="Trazado 772642" d="M83.43,176.416c-2.907,0-2.912,4.519,0,4.519s2.912-4.519,0-4.519" transform="translate(16.565 35.968)" fill="#e2798a"/>
      <path id="Trazado_772643" data-name="Trazado 772643" d="M71.952,169.947c-2.907,0-2.912,4.519,0,4.519s2.912-4.519,0-4.519" transform="translate(14.225 34.649)" fill="#e2798a"/>
      <path id="Trazado_772644" data-name="Trazado 772644" d="M61.934,176.625c-2.907,0-2.912,4.519,0,4.519s2.912-4.519,0-4.519" transform="translate(12.182 36.011)" fill="#e2798a"/>
      <path id="Trazado_772645" data-name="Trazado 772645" d="M79.256,159.512c-2.907,0-2.912,4.519,0,4.519s2.912-4.519,0-4.519" transform="translate(15.714 32.522)" fill="#e2798a"/>
      <path id="Trazado_772646" data-name="Trazado 772646" d="M70.908,146.364c-2.907,0-2.912,4.519,0,4.519s2.912-4.519,0-4.519" transform="translate(14.012 29.841)" fill="#e2798a"/>
      <path id="Trazado_772647" data-name="Trazado 772647" d="M63.187,160.138c-2.907,0-2.913,4.519,0,4.519s2.911-4.519,0-4.519" transform="translate(12.438 32.649)" fill="#e2798a"/>
      <path id="Trazado_772648" data-name="Trazado 772648" d="M59.243,150.2a1.7,1.7,0,0,0-.467-.727c-.153-.118-.3-.236-.457-.353a2.246,2.246,0,0,0-1.14-.309l-.6.081a2.261,2.261,0,0,0-1,.581l-.5.5a2.325,2.325,0,0,0,0,3.2q.229.175.457.353a2.248,2.248,0,0,0,1.14.308l.6-.081a2.269,2.269,0,0,0,1-.58l.5-.5a2.182,2.182,0,0,0,.467-2.468" transform="translate(11.094 30.341)" fill="#e2798a"/>
      <path id="Trazado_772649" data-name="Trazado 772649" d="M54.967,167.6l-.252-.5a2.174,2.174,0,0,0-2.251-1.077,1.684,1.684,0,0,0-.84.267l-.456.354a2.25,2.25,0,0,0-.581,1c-.026.2-.054.4-.081.6a2.244,2.244,0,0,0,.308,1.14l.252.5a2.169,2.169,0,0,0,2.251,1.077,1.657,1.657,0,0,0,.84-.267l.457-.353a2.265,2.265,0,0,0,.58-1c.028-.2.054-.4.081-.6a2.252,2.252,0,0,0-.308-1.141" transform="translate(10.297 33.841)" fill="#e2798a"/>
      <path id="Trazado_772650" data-name="Trazado 772650" d="M64.847,137.527a2.324,2.324,0,0,0-2.065-1.389l-.6.081a2.261,2.261,0,0,0-1,.581l-.354.457a2.244,2.244,0,0,0-.308,1.14v.252a2.182,2.182,0,0,0,1.389,2.065,1.713,1.713,0,0,0,.87.2l.6-.081a2.272,2.272,0,0,0,1-.581c.118-.153.236-.3.353-.457a2.246,2.246,0,0,0,.309-1.14V138.4a1.719,1.719,0,0,0-.2-.87" transform="translate(12.339 27.756)" fill="#e2798a"/>
      <path id="Trazado_772651" data-name="Trazado 772651" d="M77.169,136.973c-2.907,0-2.912,4.519,0,4.519s2.912-4.519,0-4.519" transform="translate(15.288 27.927)" fill="#e2798a"/>
      <path id="Trazado_772652" data-name="Trazado 772652" d="M77.586,120.278c-2.907,0-2.912,4.519,0,4.519s2.912-4.519,0-4.519" transform="translate(15.373 24.523)" fill="#e2798a"/>
      <path id="Trazado_772653" data-name="Trazado 772653" d="M69.03,128c-2.907,0-2.912,4.521,0,4.521s2.912-4.521,0-4.521" transform="translate(13.629 26.097)" fill="#e2798a"/>
      <path id="Trazado_772654" data-name="Trazado 772654" d="M59.43,117.147c-2.907,0-2.912,4.519,0,4.519s2.912-4.519,0-4.519" transform="translate(11.672 23.884)" fill="#e2798a"/>
      <path id="Trazado_772655" data-name="Trazado 772655" d="M55.576,135.265c-.084-.167-.17-.333-.254-.5a2.174,2.174,0,0,0-2.251-1.079,1.667,1.667,0,0,0-.84.268c-.153.117-.3.235-.457.353a2.259,2.259,0,0,0-.58,1c-.028.2-.054.4-.081.6a2.241,2.241,0,0,0,.308,1.14c.084.167.17.335.254.5a2.174,2.174,0,0,0,2.251,1.079,1.681,1.681,0,0,0,.84-.267l.457-.354a2.259,2.259,0,0,0,.58-1c.028-.2.054-.4.081-.6a2.244,2.244,0,0,0-.308-1.14" transform="translate(10.421 27.248)" fill="#e2798a"/>
      <path id="Trazado_772656" data-name="Trazado 772656" d="M69.856,114.988a2.324,2.324,0,0,0-2.065-1.389l-.6.081a2.261,2.261,0,0,0-1,.581l-.354.457a2.244,2.244,0,0,0-.308,1.14v.252a2.182,2.182,0,0,0,1.389,2.065,1.713,1.713,0,0,0,.87.2l.6-.081a2.272,2.272,0,0,0,1-.581l.353-.457a2.246,2.246,0,0,0,.309-1.14v-.252a1.719,1.719,0,0,0-.2-.87" transform="translate(13.36 23.161)" fill="#e2798a"/>
      <path id="Trazado_772657" data-name="Trazado 772657" d="M56.238,102.946a2.249,2.249,0,0,0-.581-1L55.2,101.6a2.253,2.253,0,0,0-1.14-.308h-.25a2.32,2.32,0,0,0-2.26,2.26c.026.2.053.4.081.6a2.259,2.259,0,0,0,.58,1l.457.353a2.25,2.25,0,0,0,1.141.309h.25a2.518,2.518,0,0,0,1.6-.662,2.518,2.518,0,0,0,.662-1.6c-.026-.2-.054-.4-.081-.6" transform="translate(10.51 20.651)" fill="#e2798a"/>
      <path id="Trazado_772658" data-name="Trazado 772658" d="M70.723,90.039a1.682,1.682,0,0,0-.268-.84c-.118-.152-.235-.3-.353-.457a2.258,2.258,0,0,0-1-.58l-.6-.081a2.249,2.249,0,0,0-1.141.308l-.75.507a2.524,2.524,0,0,0-1.039,1.35,1.715,1.715,0,0,0-.04.9,1.676,1.676,0,0,0,.267.839l.354.457a2.25,2.25,0,0,0,1,.581l.6.081a2.256,2.256,0,0,0,1.14-.308l.751-.507a2.18,2.18,0,0,0,1.079-2.251" transform="translate(13.353 17.958)" fill="#e2798a"/>
      <path id="Trazado_772659" data-name="Trazado 772659" d="M68.219,101.9a2.249,2.249,0,0,0-.581-1l-.456-.354a2.261,2.261,0,0,0-1.141-.308h-.754a2.182,2.182,0,0,0-2.065,1.389,1.716,1.716,0,0,0-.2.87c.028.2.054.4.081.6a2.261,2.261,0,0,0,.581,1c.153.118.3.236.457.353a2.246,2.246,0,0,0,1.14.309h.754a2.518,2.518,0,0,0,1.6-.662,2.518,2.518,0,0,0,.662-1.6c-.026-.2-.054-.4-.081-.6" transform="translate(12.85 20.438)" fill="#e2798a"/>
      <path id="Trazado_772660" data-name="Trazado 772660" d="M77.169,107.13c-2.907,0-2.912,4.519,0,4.519s2.912-4.519,0-4.519" transform="translate(15.288 21.842)" fill="#e2798a"/>
      <path id="Trazado_772661" data-name="Trazado 772661" d="M80.508,94.191c-2.907,0-2.912,4.519,0,4.519s2.912-4.519,0-4.519" transform="translate(15.969 19.204)" fill="#e2798a"/>
      <path id="Trazado_772662" data-name="Trazado 772662" d="M51.5,124.66c-2.907,0-2.912,4.519,0,4.519s2.912-4.519,0-4.519" transform="translate(10.055 25.416)" fill="#e2798a"/>
      <path id="Trazado_772663" data-name="Trazado 772663" d="M88.856,105.043c-2.907,0-2.912,4.519,0,4.519s2.912-4.519,0-4.519" transform="translate(17.671 21.417)" fill="#e2798a"/>
      <path id="Trazado_772664" data-name="Trazado 772664" d="M89.69,118.191c-2.907,0-2.912,4.519,0,4.519s2.912-4.519,0-4.519" transform="translate(17.841 24.097)" fill="#e2798a"/>
      <path id="Trazado_772665" data-name="Trazado 772665" d="M91.151,130.5c-2.907,0-2.912,4.519,0,4.519s2.912-4.519,0-4.519" transform="translate(18.139 26.608)" fill="#e2798a"/>
      <path id="Trazado_772666" data-name="Trazado 772666" d="M101.377,128.208c-2.907,0-2.912,4.519,0,4.519s2.912-4.519,0-4.519" transform="translate(20.224 26.139)" fill="#e2798a"/>
      <path id="Trazado_772667" data-name="Trazado 772667" d="M99.5,117.773c-2.907,0-2.912,4.521,0,4.521s2.912-4.521,0-4.521" transform="translate(19.841 24.012)" fill="#e2798a"/>
      <path id="Trazado_772668" data-name="Trazado 772668" d="M108.663,113.172a2.249,2.249,0,0,0-.581-1l-.457-.354a2.253,2.253,0,0,0-1.14-.308h-.5a2.324,2.324,0,0,0-2.26,2.26c.026.2.054.4.081.6a2.249,2.249,0,0,0,.581,1l.457.353a2.242,2.242,0,0,0,1.14.309h.5a2.518,2.518,0,0,0,1.6-.662,2.518,2.518,0,0,0,.662-1.6c-.026-.2-.054-.4-.081-.6" transform="translate(21.147 22.735)" fill="#e2798a"/>
      <path id="Trazado_772669" data-name="Trazado 772669" d="M112.438,121.947c-2.907,0-2.912,4.519,0,4.519s2.912-4.519,0-4.519" transform="translate(22.479 24.863)" fill="#e2798a"/>
      <path id="Trazado_772670" data-name="Trazado 772670" d="M121.412,113.182c-2.907,0-2.912,4.519,0,4.519s2.912-4.519,0-4.519" transform="translate(24.309 23.076)" fill="#e2798a"/>
      <path id="Trazado_772671" data-name="Trazado 772671" d="M127.4,103.615a2.25,2.25,0,0,0-.581-1l-.25-.252a2.518,2.518,0,0,0-1.6-.662,1.721,1.721,0,0,0-.872.2,1.7,1.7,0,0,0-.727.467c-.117.153-.235.3-.353.457a2.244,2.244,0,0,0-.308,1.14c.026.2.053.4.081.6a2.258,2.258,0,0,0,.58,1c.084.084.169.167.252.252a2.324,2.324,0,0,0,3.2,0l.354-.457a2.245,2.245,0,0,0,.308-1.14c-.026-.2-.054-.4-.081-.6" transform="translate(25.019 20.736)" fill="#e2798a"/>
      <path id="Trazado_772672" data-name="Trazado 772672" d="M135.394,101.913c-2.907,0-2.912,4.519,0,4.519s2.912-4.519,0-4.519" transform="translate(27.16 20.778)" fill="#e2798a"/>
      <path id="Trazado_772673" data-name="Trazado 772673" d="M133.549,113.945a1.7,1.7,0,0,0-.467-.727c-.153-.118-.3-.236-.457-.353a2.246,2.246,0,0,0-1.14-.309l-.6.081a2.261,2.261,0,0,0-1,.581l-.252.252a1.7,1.7,0,0,0-.467.727,2.04,2.04,0,0,0,0,1.741,1.7,1.7,0,0,0,.467.727c.153.118.3.236.457.353a2.246,2.246,0,0,0,1.14.309l.6-.081a2.261,2.261,0,0,0,1-.581l.252-.252a2.182,2.182,0,0,0,.467-2.468" transform="translate(26.295 22.948)" fill="#e2798a"/>
      <path id="Trazado_772674" data-name="Trazado 772674" d="M102,144.486c-2.907,0-2.912,4.519,0,4.519s2.912-4.519,0-4.519" transform="translate(20.352 29.458)" fill="#e2798a"/>
      <path id="Trazado_772675" data-name="Trazado 772675" d="M91.36,151.373c-2.907,0-2.912,4.519,0,4.519s2.912-4.519,0-4.519" transform="translate(18.182 30.862)" fill="#e2798a"/>
      <path id="Trazado_772676" data-name="Trazado 772676" d="M99.856,166.6a2.252,2.252,0,0,0-.583-1c-.152-.118-.3-.236-.457-.354a2.25,2.25,0,0,0-1.14-.308h-.25a1.7,1.7,0,0,0-.872.2,2.04,2.04,0,0,0-1.194,1.194,1.7,1.7,0,0,0-.194.87c.028.2.053.4.081.6a2.25,2.25,0,0,0,.581,1l.456.353a2.25,2.25,0,0,0,1.141.309h.25a2.518,2.518,0,0,0,1.6-.662,2.518,2.518,0,0,0,.662-1.6c-.026-.2-.054-.4-.079-.6" transform="translate(19.402 33.628)" fill="#e2798a"/>
      <path id="Trazado_772677" data-name="Trazado 772677" d="M102,154.295c-2.907,0-2.912,4.519,0,4.519s2.912-4.519,0-4.519" transform="translate(20.352 31.458)" fill="#e2798a"/>
      <path id="Trazado_772678" data-name="Trazado 772678" d="M113.077,166.65a2.25,2.25,0,0,0-.581-1l-.5-.5a1.686,1.686,0,0,0-.727-.468,2.051,2.051,0,0,0-1.741,0,1.686,1.686,0,0,0-.727.468l-.354.456a2.249,2.249,0,0,0-.308,1.141c.026.2.054.4.081.6a2.263,2.263,0,0,0,.581,1l.5.5a2.324,2.324,0,0,0,3.2,0l.354-.457a2.244,2.244,0,0,0,.308-1.14c-.026-.2-.054-.4-.081-.6" transform="translate(22.047 33.536)" fill="#e2798a"/>
      <path id="Trazado_772679" data-name="Trazado 772679" d="M106,177.388a1.7,1.7,0,0,0-.467-.727c-.153-.118-.3-.236-.457-.353a2.246,2.246,0,0,0-1.14-.309l-.6.081a2.261,2.261,0,0,0-1,.581l-.252.252a2.324,2.324,0,0,0,0,3.2l.457.353a2.257,2.257,0,0,0,1.14.309l.6-.081a2.272,2.272,0,0,0,1-.581l.252-.252a1.7,1.7,0,0,0,.467-.727,2.04,2.04,0,0,0,0-1.741" transform="translate(20.679 35.883)" fill="#e2798a"/>
      <path id="Trazado_772680" data-name="Trazado 772680" d="M117.688,177.805a1.7,1.7,0,0,0-.467-.727c-.153-.118-.3-.236-.457-.353a2.246,2.246,0,0,0-1.14-.309l-.6.081a2.261,2.261,0,0,0-1,.581l-.252.252a2.324,2.324,0,0,0,0,3.2l.457.353a2.245,2.245,0,0,0,1.14.309l.6-.081a2.272,2.272,0,0,0,1-.581l.252-.252a1.7,1.7,0,0,0,.467-.727,2.04,2.04,0,0,0,0-1.741" transform="translate(23.061 35.968)" fill="#e2798a"/>
      <path id="Trazado_772681" data-name="Trazado 772681" d="M116.194,185.6c-2.907,0-2.912,4.519,0,4.519s2.912-4.519,0-4.519" transform="translate(23.245 37.841)" fill="#e2798a"/>
      <path id="Trazado_772682" data-name="Trazado 772682" d="M110.977,146.364c-2.907,0-2.912,4.519,0,4.519s2.912-4.519,0-4.519" transform="translate(22.181 29.841)" fill="#e2798a"/>
      <path id="Trazado_772683" data-name="Trazado 772683" d="M129.751,149.005a2.324,2.324,0,0,0-2.065-1.389l-.6.081a2.261,2.261,0,0,0-1,.581l-.354.457a2.256,2.256,0,0,0-.308,1.14v.252a2.182,2.182,0,0,0,1.389,2.065,1.714,1.714,0,0,0,.87.2l.6-.081a2.272,2.272,0,0,0,1-.581c.118-.153.236-.3.353-.457a2.246,2.246,0,0,0,.309-1.14v-.252a1.707,1.707,0,0,0-.2-.87" transform="translate(25.572 30.096)" fill="#e2798a"/>
      <path id="Trazado_772684" data-name="Trazado 772684" d="M146.872,148.66c-2.907,0-2.912,4.519,0,4.519s2.912-4.519,0-4.519" transform="translate(29.5 30.309)" fill="#e2798a"/>
      <path id="Trazado_772685" data-name="Trazado 772685" d="M145.2,162.016c-2.907,0-2.912,4.519,0,4.519s2.912-4.519,0-4.519" transform="translate(29.159 33.032)" fill="#e2798a"/>
      <path id="Trazado_772686" data-name="Trazado 772686" d="M143.733,177.805a2.324,2.324,0,0,0-2.065-1.389l-.6.081a2.261,2.261,0,0,0-1,.581l-.354.457a2.257,2.257,0,0,0-.308,1.14v.252a2.182,2.182,0,0,0,1.389,2.065,1.713,1.713,0,0,0,.87.2l.6-.081a2.272,2.272,0,0,0,1-.581c.118-.153.236-.3.353-.457a2.246,2.246,0,0,0,.309-1.14v-.252a1.719,1.719,0,0,0-.2-.87" transform="translate(28.423 35.968)" fill="#e2798a"/>
      <path id="Trazado_772687" data-name="Trazado 772687" d="M135.394,187.06c-2.907,0-2.912,4.519,0,4.519s2.912-4.519,0-4.519" transform="translate(27.16 38.138)" fill="#e2798a"/>
      <path id="Trazado_772688" data-name="Trazado 772688" d="M146.455,186.851c-2.907,0-2.912,4.519,0,4.519s2.912-4.519,0-4.519" transform="translate(29.415 38.096)" fill="#e2798a"/>
      <path id="Trazado_772689" data-name="Trazado 772689" d="M148.959,170.781c-2.907,0-2.912,4.519,0,4.519s2.912-4.519,0-4.519" transform="translate(29.925 34.819)" fill="#e2798a"/>
      <path id="Trazado_772690" data-name="Trazado 772690" d="M135.943,108.793a23.086,23.086,0,0,0-4.936-3.458c-.515-.267-.974.512-.456.78a23.6,23.6,0,0,1,11.961,15.895,22.135,22.135,0,0,1,.454,5.854c-.031.581.873.58.9,0a24.474,24.474,0,0,0-7.926-19.072" transform="translate(26.571 21.465)" fill="#34323f"/>
    </g>
  </g>
</svg>
