<svg id="Grupo_1043400" data-name="Grupo 1043400" xmlns="http://www.w3.org/2000/svg" xmlns:xlink="http://www.w3.org/1999/xlink" width="457.476" height="437.272" viewBox="0 0 457.476 437.272">
  <defs>
    <clipPath id="clip-path">
      <rect id="Rect치ngulo_355983" data-name="Rect치ngulo 355983" width="418.943" height="437.272" fill="none"/>
    </clipPath>
  </defs>
  <rect id="Rect치ngulo_355978" data-name="Rect치ngulo 355978" width="457.476" height="304.583" rx="18" transform="translate(0 59.288)" fill="#edc1e3"/>
  <g id="Grupo_1043399" data-name="Grupo 1043399" transform="translate(17.929)">
    <g id="Grupo_1043398" data-name="Grupo 1043398" clip-path="url(#clip-path)">
      <path id="Trazado_772691" data-name="Trazado 772691" d="M55.724,102.474c2.021.288,4.22.729,5.5,2.313-.023-.578-.034-1.159-.047-1.75v-.021a15.965,15.965,0,0,0-1.917-4.858A52.979,52.979,0,0,0,40.044,78.221a52.987,52.987,0,0,0-26.67-7.442c3.635,3.106,5.269,7.868,7.252,12.22a32.262,32.262,0,0,0,7.648,11.055,30.149,30.149,0,0,0,13.05,6.192c4.729,1.119,9.591,1.555,14.4,2.229" transform="translate(14.959 79.169)" fill="#96a3ac"/>
      <path id="Trazado_772692" data-name="Trazado 772692" d="M66.369,114.492C58.762,101.383,40.6,92.712,30.153,89.642A74.83,74.83,0,0,0,0,87.224c8.158,6.468,13.317,16.531,22.482,21.467,5.476,2.96,11.849,3.767,18.077,3.926s12.465-.254,18.641.475c2.818.333,5.743.962,7.932,2.79q-.365-.712-.763-1.39" transform="translate(0 96.925)" fill="#96a3ac"/>
      <path id="Trazado_772693" data-name="Trazado 772693" d="M71.938,137.124c.3.013.6.011.9.011l0-.163a39.38,39.38,0,0,0-13.711-16.711,52.071,52.071,0,0,0-7.885-4.392,78.569,78.569,0,0,0-37.776-6.993c5.3,2.366,8.394,7.813,11.987,12.381,5.426,6.93,12.86,12.468,21.372,14.7,8.131,2.125,16.681,1.161,25.107,1.169" transform="translate(15.07 121.6)" fill="#96a3ac"/>
      <path id="Trazado_772694" data-name="Trazado 772694" d="M39.883,120.464c.093.481.189.97.271,1.451l.011.011A60.021,60.021,0,0,0,52.482,88.995a71.363,71.363,0,0,0-6.807-34.708q-3.858,8.224-7.739,16.44c-2.841,6.031-5.737,12.343-5.512,18.986.157,4.347,1.64,8.525,2.936,12.667a159.674,159.674,0,0,1,4.523,18.084" transform="translate(36.253 60.722)" fill="#96a3ac"/>
      <path id="Trazado_772695" data-name="Trazado 772695" d="M44.1,133.325a.365.365,0,0,0,.015.106l.032.011a29.237,29.237,0,0,1,6.964-12.035c5.292-5.481,12.489-8.661,18.5-13.34A45.679,45.679,0,0,0,85.687,83.374c-4.856,5.324-12.732,6.218-19.423,8.862A36.252,36.252,0,0,0,44.1,133.325" transform="translate(48.488 93.257)" fill="#96a3ac"/>
      <path id="Trazado_772696" data-name="Trazado 772696" d="M46.323,144.634a1.9,1.9,0,0,0,.032.246c6.368-5.671,14.7-8.669,21.465-13.862A40.807,40.807,0,0,0,83.4,102.776a5.636,5.636,0,0,1-2.856,2.54c-8.245,4.421-16.823,8.557-23.66,14.957-6.7,6.265-11.6,15.266-10.561,24.361" transform="translate(51.659 114.959)" fill="#96a3ac"/>
      <path id="Trazado_772697" data-name="Trazado 772697" d="M29.788,154.123c8.307,2.269,16.65,5.517,23.107,11.389a32.054,32.054,0,0,1,6.186,7.656c-.955-4.767-2.186-9.48-3.553-14.073-5.051-16.989-11.843-33.767-12.576-51.688A59.537,59.537,0,0,1,47.736,80.3c.572-1.258,2.466-.244,1.9,1.013-7.127,15.7-4.9,33.64-.5,49.76,2.106,7.722,4.705,15.334,7.091,22.995a75.025,75.025,0,0,1,15.65-42.822c.85-1.091,2.419.375,1.576,1.46A72.612,72.612,0,0,0,58.356,159.97a.973.973,0,0,1-.18.612,139.884,139.884,0,0,1,3.911,17.111A69.872,69.872,0,0,1,85.2,149.007c1.125-.811,2.273,1.006,1.155,1.811a67.4,67.4,0,0,0-23.7,31.176c.036.328.081.655.112.985.93,9.5.286,19.23-3.03,28.24-.47,1.28-2.57.809-2.091-.489a58.733,58.733,0,0,0,3.3-22.649.855.855,0,0,1-.428-.835,21.639,21.639,0,0,0-.2-4.248.819.819,0,0,1-.078-.479,27.44,27.44,0,0,0-9.127-15.72c-6.152-5.44-14-8.451-21.817-10.586-1.328-.362-.847-2.458.491-2.091" transform="translate(31.889 89.17)" fill="#96a3ac"/>
      <path id="Trazado_772698" data-name="Trazado 772698" d="M22.635,94.339a72.173,72.173,0,0,1,38.112,32.085c.68,1.2-1.129,2.358-1.811,1.155A69.932,69.932,0,0,0,22.144,96.43c-1.282-.464-.809-2.561.491-2.091" transform="translate(23.924 105.445)" fill="#96a3ac"/>
      <path id="Trazado_772699" data-name="Trazado 772699" d="M64.81,167.907c.773,5.195.43,10.709-1.955,15.391-.8-.3-1.593-.589-2.4-.881l.064-.18a60.31,60.31,0,0,1-10.889-57.929q5.316,14.186,10.641,28.352c1.864,4.968,3.754,9.991,4.542,15.247" transform="translate(51.959 139.043)" fill="#2d728f"/>
      <path id="Trazado_772700" data-name="Trazado 772700" d="M27.483,109.985a79.454,79.454,0,0,1,4.991,59.071c-.532-.451-1.051-.894-1.572-1.35a70.723,70.723,0,0,1-3.419-57.722" transform="translate(25.611 123.022)" fill="#2d728f"/>
      <path id="Trazado_772701" data-name="Trazado 772701" d="M49.223,179.425c-.475-.235-.958-.466-1.426-.72a67.271,67.271,0,0,1-11.777-61.5c5.015,10.788,10.05,21.62,13.55,32.994,2.987,9.7,4.765,20.469.886,29.818-.426-.193-.828-.394-1.233-.6" transform="translate(37.008 131.101)" fill="#2d728f"/>
      <path id="Trazado_772702" data-name="Trazado 772702" d="M74.929,152.183c.631.229,1.275.453,1.911.695a13.318,13.318,0,0,1-2.811,6.79,30.809,30.809,0,0,1-6.915,6.19A119.144,119.144,0,0,1,35.656,181.8c4.483-7.451,9.05-15.008,15.48-20.851s15.114-9.809,23.719-8.61a1.459,1.459,0,0,0,.074-.157" transform="translate(39.882 170.158)" fill="#2d728f"/>
      <path id="Trazado_772703" data-name="Trazado 772703" d="M67.578,148.134a38.627,38.627,0,0,1-51.353,5.3,72.656,72.656,0,0,1,51.353-5.3" transform="translate(18.148 162.952)" fill="#2d728f"/>
      <path id="Trazado_772704" data-name="Trazado 772704" d="M55.36,142.952c-7,6.648-17.59,8.652-27.064,6.716-9.588-1.977-18.118-7.529-25.325-14.143a74.288,74.288,0,0,1,51.654,7.353c.042-.14.085-.282.138-.428.186.169.39.343.6.5" transform="translate(3.323 149.626)" fill="#2d728f"/>
      <path id="Trazado_772705" data-name="Trazado 772705" d="M35.992,163.206a3.013,3.013,0,0,1-.1.286A56.974,56.974,0,0,1,8.082,102.684a225.722,225.722,0,0,1,25.562,45.743c1.943,4.7,3.756,9.936,2.347,14.779" transform="translate(7.809 114.856)" fill="#2d728f"/>
      <path id="Trazado_772706" data-name="Trazado 772706" d="M120.157,190.953c.163-1.235.324-2.468.475-3.705-5.6-2.027-11.235-3.974-16.825-6.034a270.558,270.558,0,0,1-29.78-12.989A246.585,246.585,0,0,1,45.987,151.55c-8.845-6.123-17.116-13.169-23.173-22.147-1.313-1.947-4.087.443-2.782,2.375,6.832,10.127,16.493,17.9,26.573,24.611a271.58,271.58,0,0,0,58.084,29.043c5.118,1.854,10.307,3.644,15.467,5.521" transform="translate(22.026 143.933)" fill="#2d728f"/>
      <path id="Trazado_772707" data-name="Trazado 772707" d="M154.254,78.62c-2.142-.244-4.508-.375-6.233.9.178-.587.343-1.176.513-1.775l.006-.023a16.922,16.922,0,0,1,3.252-4.457,55.638,55.638,0,0,1,54.177-15.794c-4.54,2.21-7.476,6.644-10.66,10.563a34.017,34.017,0,0,1-10.756,9.269c-4.591,2.3-9.853,2.977-14.984,2.862s-10.22-.96-15.315-1.549" transform="translate(165.567 62.394)" fill="#96a3ac"/>
      <path id="Trazado_772708" data-name="Trazado 772708" d="M149.915,89.818c11.262-11.377,32.134-15.414,43.629-15.777a79.039,79.039,0,0,1,31.467,5.544C214.952,84.028,207,92.947,196.322,95.553c-6.385,1.572-13.114.7-19.522-.792-6.4-1.479-12.677-3.572-19.183-4.466-2.97-.411-6.127-.544-8.849.744.375-.422.758-.826,1.148-1.22" transform="translate(166.401 82.779)" fill="#96a3ac"/>
      <path id="Trazado_772709" data-name="Trazado 772709" d="M133.9,110.953c-.311-.07-.619-.15-.926-.231l.038-.167a41.618,41.618,0,0,1,18.459-13.438,54.961,54.961,0,0,1,9.228-2.394,82.981,82.981,0,0,1,40.477,2.892c-6.051,1.008-10.656,5.756-15.544,9.472-7.387,5.64-16.461,9.324-25.755,9.341-8.877.013-17.361-3.243-25.977-5.474" transform="translate(148.739 104.521)" fill="#96a3ac"/>
      <path id="Trazado_772710" data-name="Trazado 772710" d="M151.387,102.188c-.222.466-.449.943-.663,1.411l-.013.008a63.394,63.394,0,0,1-3.839-36.937A75.354,75.354,0,0,1,163.056,33q1.757,9.432,3.542,18.861c1.3,6.921,2.582,14.143.589,20.876-1.316,4.4-3.943,8.277-6.37,12.167a169.247,169.247,0,0,0-9.43,17.285" transform="translate(162.98 36.911)" fill="#96a3ac"/>
      <path id="Trazado_772711" data-name="Trazado 772711" d="M150.195,118.3a.416.416,0,0,1-.044.106h-.036a30.837,30.837,0,0,0-3.917-14.154c-3.953-7.01-10.466-12.171-15.364-18.554a48.243,48.243,0,0,1-9.879-29.518c3.549,6.735,11.362,9.741,17.5,14.222a38.291,38.291,0,0,1,11.741,47.9" transform="translate(135.29 62.836)" fill="#96a3ac"/>
      <path id="Trazado_772712" data-name="Trazado 772712" d="M142.433,128.547a1.826,1.826,0,0,1-.1.244c-5-7.491-12.724-12.771-18.258-19.876A43.111,43.111,0,0,1,115.655,75.9a5.956,5.956,0,0,0,2.248,3.356c7.252,6.714,14.923,13.22,20.209,21.579,5.186,8.186,7.8,18.69,4.322,27.71" transform="translate(128.761 84.898)" fill="#96a3ac"/>
      <path id="Trazado_772713" data-name="Trazado 772713" d="M177.787,140.255c-9.095.11-18.486,1.214-26.649,5.5a33.942,33.942,0,0,0-8.36,6.182c2.244-4.621,4.756-9.112,7.372-13.442,9.68-16.025,21.084-31.371,26.594-49.5,2.854-9.379,4-19.277,2.318-28.986-.25-1.438-2.455-.9-2.208.53,3.112,17.95-3.932,35.693-12.711,51-4.205,7.334-8.885,14.425-13.362,21.622a79.245,79.245,0,0,0-4.614-47.934c-.578-1.343-2.574-.261-2,1.072a76.7,76.7,0,0,1,2.86,52.332,1.034,1.034,0,0,0,.021.674,147.629,147.629,0,0,0-8.546,16.455A73.8,73.8,0,0,0,122.5,120.294c-.934-1.127-2.591.426-1.663,1.547a71.178,71.178,0,0,1,15.948,38.172c-.125.326-.256.648-.377.977-3.477,9.464-5.4,19.582-4.411,29.674.142,1.434,2.413,1.508,2.269.055a61.986,61.986,0,0,1,2.646-24.031.9.9,0,0,0,.659-.739,22.764,22.764,0,0,1,1.333-4.29.861.861,0,0,0,.208-.468,28.993,28.993,0,0,1,13.508-13.645c7.735-3.924,16.554-4.917,25.115-5.021,1.455-.019,1.521-2.286.055-2.269" transform="translate(134.852 66.178)" fill="#96a3ac"/>
      <path id="Trazado_772714" data-name="Trazado 772714" d="M185.575,78.345a76.231,76.231,0,0,0-47.489,22.668c-1.015,1.047.527,2.712,1.544,1.663a73.868,73.868,0,0,1,45.89-22.062c1.436-.133,1.511-2.4.055-2.269" transform="translate(154.083 87.625)" fill="#96a3ac"/>
      <path id="Trazado_772715" data-name="Trazado 772715" d="M151.589,135.186c-.686,4.616-.383,9.516,1.737,13.675.71-.267,1.415-.521,2.135-.784l-.057-.157a53.59,53.59,0,0,0,9.675-51.474q-4.725,12.6-9.455,25.194a67.389,67.389,0,0,0-4.036,13.546" transform="translate(169.191 107.878)" fill="#2d728f"/>
      <path id="Trazado_772716" data-name="Trazado 772716" d="M182.108,83.719a70.609,70.609,0,0,0-4.436,52.487c.475-.4.934-.794,1.4-1.2a62.843,62.843,0,0,0,3.038-51.288" transform="translate(195.25 93.643)" fill="#2d728f"/>
      <path id="Trazado_772717" data-name="Trazado 772717" d="M165.846,145.419c.422-.21.852-.415,1.267-.64a59.765,59.765,0,0,0,10.463-54.641c-4.455,9.584-8.93,19.209-12.04,29.314-2.654,8.622-4.233,18.19-.786,26.494.377-.17.737-.347,1.1-.528" transform="translate(182.068 100.823)" fill="#2d728f"/>
      <path id="Trazado_772718" data-name="Trazado 772718" d="M153.134,121.214c-.561.2-1.133.4-1.7.616a11.842,11.842,0,0,0,2.5,6.034,27.292,27.292,0,0,0,6.144,5.5,105.842,105.842,0,0,0,27.952,14.165c-3.983-6.62-8.042-13.334-13.756-18.527s-13.427-8.716-21.075-7.652a1,1,0,0,1-.066-.138" transform="translate(169.385 135.525)" fill="#2d728f"/>
      <path id="Trazado_772719" data-name="Trazado 772719" d="M164.436,117.617a34.322,34.322,0,0,0,45.629,4.71,64.553,64.553,0,0,0-45.629-4.71" transform="translate(183.927 129.122)" fill="#2d728f"/>
      <path id="Trazado_772720" data-name="Trazado 772720" d="M175.778,113.011c6.218,5.906,15.631,7.688,24.05,5.968,8.519-1.756,16.1-6.69,22.5-12.567a66.009,66.009,0,0,0-45.9,6.534c-.038-.125-.074-.25-.121-.379-.167.15-.347.305-.532.445" transform="translate(196.614 117.282)" fill="#2d728f"/>
      <path id="Trazado_772721" data-name="Trazado 772721" d="M182.255,131.009c.021.083.053.167.085.254a50.623,50.623,0,0,0,24.715-54.031,200.455,200.455,0,0,0-22.715,40.644c-1.725,4.18-3.337,8.83-2.085,13.133" transform="translate(203.361 86.387)" fill="#2d728f"/>
      <path id="Trazado_772722" data-name="Trazado 772722" d="M140.981,155.664c-.146-1.1-.288-2.193-.422-3.292,4.976-1.8,9.98-3.532,14.948-5.36a241.237,241.237,0,0,0,26.46-11.542,219.241,219.241,0,0,0,24.914-14.817c7.862-5.44,15.209-11.7,20.592-19.679,1.165-1.731,3.629.394,2.47,2.11-6.072,9-14.656,15.9-23.609,21.87a241.342,241.342,0,0,1-51.616,25.8c-4.544,1.648-9.156,3.237-13.739,4.906" transform="translate(157.22 112.223)" fill="#2d728f"/>
      <path id="Trazado_772723" data-name="Trazado 772723" d="M243.287,181.684A432.771,432.771,0,0,1,234,287.566c-2.347,11-5.387,22.4-12.953,30.734-10.1,11.114-26.132,14.474-41.125,15.27s-30.384-.324-44.669,4.313c-4.174,1.347-8.317,3.208-12.707,3.144s-9.175-2.79-9.714-7.152c.061,3.529-5.4,4.726-7.978,2.349a9.591,9.591,0,0,1-2.655-6.262.335.335,0,0,0,.123-.03,7.171,7.171,0,0,0-.184-.811c-.061-.924-.076-1.856-.047-2.763.076-2.746.275-5.5.614-8.226a31.309,31.309,0,0,0,9.023,4.142,2.16,2.16,0,0,0,1.534,0c1.167-.612.506-2.392-.29-3.436q-4.029-5.247-8.533-10.158c.369-1.457.767-2.885,1.244-4.313,5.385,3.638,11.97,6.6,17.018,7.612a51.364,51.364,0,0,0,25.028-1.011,40.718,40.718,0,0,0,20.5-14.118,28.646,28.646,0,0,0,5.125-10.7,22.789,22.789,0,0,0,.477-3.006,69.413,69.413,0,0,0,12.429-1.936,23.228,23.228,0,0,1,4.771-.9,24.837,24.837,0,0,1,5.311.705,52.207,52.207,0,0,0,13.381.814c2.608-.172,5.341-.6,7.381-2.224,2.578-2.042,3.5-5.512,3.837-8.779a36.2,36.2,0,0,0-2.042-16.006c-.843-2.286-2.1-4.68-4.358-5.614a9.564,9.564,0,0,0-5.233-.169,78.7,78.7,0,0,0-18.783,5.553,166.532,166.532,0,0,0,14.762-18.749c1.551-2.3,3.116-4.835,2.979-7.6a10.843,10.843,0,0,0-2.563-5.864c-1.428-1.869-3.269-3.633-5.587-4.034-2.3-.383-4.6.661-6.659,1.8a64.182,64.182,0,0,0-17.694,14.406,3.263,3.263,0,0,1-.521-.534c-6.491-7.627-12.86-15.5-20.87-21.469S136.315,202.583,126.4,204a30.122,30.122,0,0,0-11.016,3.928l57.637-116.7c2.93-2.135,6.076-4.19,9.652-4.93,3.559-.735,7.656.11,9.942,2.949s1.843,7.762-1.379,9.453c18.505,13.029,37.964,27.206,46.311,48.231,4.373,10.972,5.324,22.971,5.739,34.757" transform="translate(114.18 96.242)" fill="#eaaaa7"/>
      <path id="Trazado_772724" data-name="Trazado 772724" d="M185.426,168.91a36.162,36.162,0,0,1,2.04,16.006c-.337,3.269-1.258,6.737-3.835,8.777-2.042,1.627-4.773,2.057-7.383,2.225a52.124,52.124,0,0,1-13.381-.814,24.954,24.954,0,0,0-5.309-.705,23.086,23.086,0,0,0-4.773.907,69.531,69.531,0,0,1-12.429,1.932c.708-7.949-2.746-16.006-8.347-21.944l.475-.43a22.152,22.152,0,0,0,4.527,4.19,8.778,8.778,0,0,0,7.044,1.364,12.43,12.43,0,0,0,4.849-3.328q4.236-4.074,8.148-8.411a78.751,78.751,0,0,1,18.783-5.555,9.605,9.605,0,0,1,5.233.169c2.256.936,3.515,3.33,4.358,5.616" transform="translate(147.657 182.15)" fill="#ffb888"/>
      <path id="Trazado_772725" data-name="Trazado 772725" d="M98.8,186.187c.108-2.47.322-4.94.676-7.4,1.227-8.517,4.112-16.9,9.33-23.723q.528-.715,1.1-1.381a35.5,35.5,0,0,1,9.254-7.872V145.8a30.122,30.122,0,0,1,11.019-3.93c9.913-1.411,19.948,2.563,27.973,8.548,8.01,5.968,14.379,13.84,20.87,21.467a3.567,3.567,0,0,0,.521.538,64.235,64.235,0,0,1,17.694-14.41c2.057-1.136,4.358-2.178,6.661-1.794s4.159,2.163,5.584,4.036a10.823,10.823,0,0,1,2.563,5.862c.138,2.763-1.428,5.294-2.977,7.595a167.058,167.058,0,0,1-14.762,18.753c-2.61,2.9-5.326,5.692-8.15,8.408a12.426,12.426,0,0,1-4.849,3.33,8.776,8.776,0,0,1-7.042-1.366,22.147,22.147,0,0,1-4.527-4.188l-.477.428a33.888,33.888,0,0,0-4.22-3.773,16.093,16.093,0,0,0-3.313-6.676,1.929,1.929,0,0,0-.752-.614,1.994,1.994,0,0,0-1.718.583,117.212,117.212,0,0,1-42.553,19.98c-.614-.123-1.244-.246-1.856-.4.337-.138.689-.369.644-.722s-.43-.521-.767-.644q-7.665-2.555-15.47-4.6a121.553,121.553,0,0,1-.46-16.02" transform="translate(110.402 158.367)" fill="#ffb888"/>
      <path id="Trazado_772726" data-name="Trazado 772726" d="M212.276,69.451c1.58,4.618.966,9.79-.875,14.317A28.332,28.332,0,0,1,197.36,98.577a3.862,3.862,0,0,0-2.008,1.519,4.28,4.28,0,0,0-.2,2.119c.231,5.584-3.8,10.48-8.347,13.732a19.1,19.1,0,0,1-9.1,3.851,10.735,10.735,0,0,1-6.017-1.15A150.435,150.435,0,0,0,174.941,102c.813-6.6.782-13.55-2.025-19.565C170.107,76.4,163.955,71.553,157.326,72a5.379,5.379,0,0,1-2.271-.106,4.791,4.791,0,0,1-2.18-2.349c-5.815-9.957-15.116-17.645-25.611-22.418S105.136,40.4,93.611,40.463c-.2,0-.4,0-.6.017-3.638-2.119-5.97-6.184-6.813-10.36C84.236,20.407,90.1,9.757,99.274,5.984s20.671-.43,26.609,7.5c4.542-6.385,12.8-9.637,20.594-8.885,7.794.735,14.991,5.154,19.887,11.262,7.442,9.239,9.959,22.005,18.505,30.232,4.39,4.25,10.038,6.919,15.224,10.158,5.171,3.222,10.22,7.411,12.184,13.2" transform="translate(95.994 4.965)" fill="#34323f"/>
      <path id="Trazado_772727" data-name="Trazado 772727" d="M116,213.881a34.1,34.1,0,0,1-7.413-6.476,55.931,55.931,0,0,0,22.312,1.858,3.6,3.6,0,0,0,2.733-1.212,2.487,2.487,0,0,0-.324-2.763,7.279,7.279,0,0,0-2.377-1.75q-19.013-10.382-38.072-20.747a72.188,72.188,0,0,0,28.327-2.915c.061-.015.123-.047.2-.061.614.152,1.244.275,1.858.4a52.759,52.759,0,0,0,20.393-.46,108.756,108.756,0,0,0,22.081-7.536c2.333-1.042,4.82-2.254,6.017-4.5-.047-.261-.093-.521-.155-.782a33.891,33.891,0,0,1,4.22,3.773c5.6,5.94,9.055,14,8.349,21.944a22.761,22.761,0,0,1-.477,3.008,28.645,28.645,0,0,1-5.125,10.7,40.718,40.718,0,0,1-20.5,14.118,51.389,51.389,0,0,1-25.028,1.013c-5.048-1.013-11.633-3.974-17.018-7.612" transform="translate(103.866 186.729)" fill="#fff"/>
      <path id="Trazado_772728" data-name="Trazado 772728" d="M164.723,87.615c.015-.015.03-.047.047-.061,1.718-2.271,3.881-4.741,6.737-4.773,5.154-.076,6.673,6.936,6.506,12.093l-57.637,116.7v.015a35.467,35.467,0,0,0-9.254,7.872,44.1,44.1,0,0,0-13.5-17.923c19.948-39.407,40.388-78.8,67.1-113.924" transform="translate(109.189 92.592)" fill="#e2798a"/>
      <path id="Trazado_772729" data-name="Trazado 772729" d="M155.539,170.818c.061.261.108.521.153.782-1.2,2.241-3.682,3.453-6.015,4.5a108.624,108.624,0,0,1-22.081,7.534,52.728,52.728,0,0,1-20.4.46,117.141,117.141,0,0,0,42.553-19.978,2,2,0,0,1,1.72-.585,1.938,1.938,0,0,1,.75.614,16.084,16.084,0,0,1,3.315,6.676" transform="translate(119.907 182.853)" fill="#a1b5bf"/>
      <path id="Trazado_772730" data-name="Trazado 772730" d="M79.468,77.27c-2.686,8.317-1.642,17.525-.015,26.194a83.024,83.024,0,0,0,4.972,17.724,97.762,97.762,0,0,0,7.487,13.444c2.549,4.019,5.142,8.04,7.934,11.891-6.521,4.618-16.635,3.316-21.622-2.991-1.549-1.949-2.746-4.358-4.972-5.449-1.733-.858-3.773-.735-5.707-.814-5.417-.229-11.065-2.546-13.811-7.226-2.686-4.6-2.057-10.436-.415-15.514s4.205-9.868,5.2-15.1c1.426-7.411-.4-15.084.261-22.6.629-7.366,3.652-14.364,7.565-20.624a74.2,74.2,0,0,1,41.324-31.4A84.564,84.564,0,0,1,130.95,21.46c.2-.015.4-.015.6-.015,11.525-.061,23.17,1.888,33.653,6.659S185,40.565,190.814,50.524a4.782,4.782,0,0,0,2.178,2.347,5.382,5.382,0,0,0,2.271.108c6.629-.445,12.783,4.4,15.59,10.434s2.839,12.968,2.027,19.567a150.527,150.527,0,0,1-3.254,16.65c-1.244,5.11-2.546,10.22-3.544,15.374-2.087,10.711-2.809,22.1,1.1,32.286l-.229.216a145.259,145.259,0,0,1-23.848-34.221v-.015c3.116-5.955,6.017-12.169,6.309-18.844.305-7.12-3.178-14.914-9.853-17.4a14.086,14.086,0,0,0-14.809,3.682,15.87,15.87,0,0,0-4.051,11.065c-6.951-6.154-16.849-8.241-26.225-8.286-9.942-.061-19.825,1.809-29.77,1.686-8.991-.106-18.459-2.163-25.242-7.9" transform="translate(58.055 23.985)" fill="#34323f"/>
      <path id="Trazado_772731" data-name="Trazado 772731" d="M99.106,117.592c-2.792-3.852-5.385-7.872-7.934-11.893a97.851,97.851,0,0,1-7.489-13.442,83.142,83.142,0,0,1-4.97-17.724c-1.627-8.669-2.671-17.876.015-26.194,6.781,5.739,16.251,7.794,25.242,7.9,9.944.123,19.827-1.75,29.77-1.688,9.377.047,19.274,2.133,26.225,8.288a15.87,15.87,0,0,1,4.051-11.065,14.086,14.086,0,0,1,14.809-3.682c6.676,2.485,10.158,10.281,9.851,17.4-.29,6.675-3.19,12.889-6.307,18.844v.015a145.249,145.249,0,0,0,23.846,34.221c2.841,3.038,5.8,5.953,8.9,8.716-26.717,35.125-47.157,74.515-67.1,113.922a43.091,43.091,0,0,0-10.1-5.985l-.337-.03a16.609,16.609,0,0,0-.705-5.171q-1.014-4.052-2.025-8.133c-.8-3.237-1.627-6.538-3.407-9.345-.415-.644-1.059-1.335-1.811-1.15-.614.153-.9.873-1.089,1.487a40.746,40.746,0,0,0-1.674,9.883,27.835,27.835,0,0,0-10.328-7.012,9.257,9.257,0,0,0-5.2-.752.763.763,0,0,0-.568.322.82.82,0,0,0,.153.8,9.493,9.493,0,0,0,2.733,2.794,14.588,14.588,0,0,0-11.97,1.074c-.278.153-.568.383-.538.691.017.275.307.46.568.583,1.7.814,3.407,1.627,5.1,2.441-2.148.29-4.51.705-5.909,2.377a1.5,1.5,0,0,0-.445.951.9.9,0,0,0,.123.447l-.536.322c-.629-1.074-1.32-2.148-2.01-3.178a31.03,31.03,0,0,0-6.108-7.074,14.225,14.225,0,0,0-6.659-3.038,33.189,33.189,0,0,1,12.8-11.127,270.377,270.377,0,0,0-45.5-33.3,212.943,212.943,0,0,1,11.294-25.994,58.244,58.244,0,0,1,6.8-10.849c7.612-9.038,20.317-13.258,31.886-11.186-1.195-1.458-2.33-2.947-3.436-4.466" transform="translate(58.795 52.916)" fill="#ffb888"/>
      <path id="Trazado_772732" data-name="Trazado 772732" d="M140.714,174.5q7.8,2.05,15.467,4.6c.339.123.722.292.767.644s-.305.583-.644.722c-.076.015-.138.044-.2.061a72.228,72.228,0,0,1-28.327,2.915q19.035,10.356,38.072,20.747a7.271,7.271,0,0,1,2.377,1.75,2.479,2.479,0,0,1,.322,2.76,3.591,3.591,0,0,1-2.731,1.214,55.931,55.931,0,0,1-22.312-1.858,54.2,54.2,0,0,1-7.934-2.977l-.044.061a149.266,149.266,0,0,1,14.148,13.7,75.5,75.5,0,0,0-1.733,9.453c-1-.629-1.966-1.273-2.917-1.917q-8.885-6.054-17.139-12.953l-.523.506a192.64,192.64,0,0,1,17.694,21.147,13.943,13.943,0,0,1,2.318,4.2,7.31,7.31,0,0,0,.061.845c-2,.568-4.082-.322-5.955-1.244a124.111,124.111,0,0,1-33.024-23.723l-.536.369a123.481,123.481,0,0,1,12.66,23.387c.229.551.352,1.379-.216,1.6a1.181,1.181,0,0,1-.843-.123c-4.129-1.858-7.366-5.2-10.389-8.563-7.366-8.163-14.086-16.864-20.776-25.581-3.055-1.932-6.123-3.9-9.177-5.83-1.642-1.059-3.3-2.119-4.972-3.131A116.688,116.688,0,0,0,61.64,190.7q6.953-12.063,13.489-24.338c.275,0,.536-.015.814,0a247.3,247.3,0,0,1,64.772,8.133" transform="translate(68.947 186.077)" fill="#ffb888"/>
      <path id="Trazado_772733" data-name="Trazado 772733" d="M112.642,201.291c.8,1.044,1.458,2.824.292,3.436a2.19,2.19,0,0,1-1.536,0,31.422,31.422,0,0,1-9.023-4.142,75.05,75.05,0,0,1,1.735-9.453q4.509,4.9,8.531,10.158" transform="translate(114.511 213.789)" fill="#ffb888"/>
      <path id="Trazado_772734" data-name="Trazado 772734" d="M129.781,166.628a40.63,40.63,0,0,1,10.466-.89,35.181,35.181,0,0,1-11.4-10.5c-.307-.445-.614-1.027-.352-1.5.244-.477.873-.553,1.411-.568l3.851-.14q-4-1.98-8.04-3.989a2.571,2.571,0,0,1-1.136-.9.866.866,0,0,1-.123-.445,1.484,1.484,0,0,1,.445-.951c1.4-1.674,3.758-2.087,5.906-2.379-1.686-.814-3.39-1.627-5.093-2.441-.263-.123-.553-.307-.568-.583-.032-.307.261-.538.536-.691a14.588,14.588,0,0,1,11.97-1.074,9.478,9.478,0,0,1-2.731-2.792.821.821,0,0,1-.155-.8.77.77,0,0,1,.568-.322,9.282,9.282,0,0,1,5.2.752,27.827,27.827,0,0,1,10.326,7.012,40.848,40.848,0,0,1,1.674-9.883c.184-.612.475-1.335,1.089-1.487.752-.184,1.4.506,1.811,1.15,1.78,2.809,2.608,6.108,3.407,9.345q1.014,4.074,2.025,8.133a16.557,16.557,0,0,1,.705,5.171l.339.032a42.975,42.975,0,0,1,10.1,5.985,44.1,44.1,0,0,1,13.5,17.923q-.575.667-1.106,1.381c-5.216,6.828-8.1,15.207-9.33,23.723-.352,2.455-.568,4.926-.674,7.4a121.538,121.538,0,0,0,.46,16.02,247.388,247.388,0,0,0-64.772-8.133v-.369a123.154,123.154,0,0,0-9.33-10.449,31.528,31.528,0,0,1-8.978-.43,8.147,8.147,0,0,1-2.1-.644v.015A48.32,48.32,0,0,1,55.494,205.5a41.439,41.439,0,0,1-8.961-5.784,42.161,42.161,0,0,1-9.93-12.692c-.644-1.241-1.227-2.532-1.765-3.82-5.447-13.213-4.987-28.865,1.765-41.479A45.347,45.347,0,0,1,51.335,125.58a43.136,43.136,0,0,1,19.289-7.12c14.194-1.5,29.111,4.926,37.3,16.588a7.9,7.9,0,0,1,1.337.123,14.215,14.215,0,0,1,6.659,3.038,31,31,0,0,1,6.108,7.076c.691,1.027,1.381,2.1,2.01,3.176,3.3,5.523,5.739,11.6,5.693,17.969Z" transform="translate(34.796 132.259)" fill="#ffb888"/>
      <path id="Trazado_772735" data-name="Trazado 772735" d="M111.908,194.089c-.477,1.428-.875,2.854-1.244,4.311a149.012,149.012,0,0,0-14.148-13.7l.047-.061a54.078,54.078,0,0,0,7.932,2.977,34.1,34.1,0,0,0,7.413,6.476" transform="translate(107.958 206.522)" fill="#ffb888"/>
      <path id="Trazado_772736" data-name="Trazado 772736" d="M91.18,149.955a40.738,40.738,0,0,0-10.466.89l-.047-.2c.047-6.368-2.394-12.444-5.693-17.969l.538-.322a2.571,2.571,0,0,0,1.136.9q4.026,2,8.04,3.991l-3.851.138c-.538.015-1.167.091-1.411.568-.263.475.045,1.059.352,1.5a35.2,35.2,0,0,0,11.4,10.5" transform="translate(83.862 148.043)" fill="#ffb888"/>
      <path id="Trazado_772737" data-name="Trazado 772737" d="M65.884,107.9a270.363,270.363,0,0,1,45.5,33.3,33.192,33.192,0,0,0-12.8,11.124,7.94,7.94,0,0,0-1.337-.121c-8.194-11.663-23.109-18.092-37.3-16.59a43.127,43.127,0,0,0-19.289,7.12,13.346,13.346,0,0,1,5.8-11.078,17.17,17.17,0,0,1-4.419-4.512,5.81,5.81,0,0,1-.169-6.015,7.4,7.4,0,0,1,4.159-2.549A24.456,24.456,0,0,1,57.321,118,22.068,22.068,0,0,1,52.1,107.15a4.556,4.556,0,0,1,.2-2.824c1.2-2.3,4.665-1.4,6.951-.153q3.337,1.818,6.629,3.729" transform="translate(45.475 115.104)" fill="#eaaaa7"/>
      <path id="Trazado_772738" data-name="Trazado 772738" d="M110.748,183.869q-6.559,12.27-13.489,24.338-3.429,6.076-7.012,12.107a18.47,18.47,0,0,1-4.39,5.6c-1.888,1.443-4.6,2.072-6.69.936-3.053-1.674-3.284-5.923-2.991-9.408-3.33,1.659-8.3,2.824-9.959-.506-1.074-2.131.184-4.849-.722-7.059-.767-1.856-2.76-2.792-4.572-3.65A80.186,80.186,0,0,1,41.51,193.246c-5.646-5.127-10.788-11.571-11.6-19.166-.89-8.379,3.576-16.22,8.165-23.372A42.112,42.112,0,0,0,48,163.4a41.365,41.365,0,0,0,8.961,5.786,48.32,48.32,0,0,0,34.189,2.809v-.017a8.142,8.142,0,0,0,2.1.646,31.441,31.441,0,0,0,8.976.428,123.509,123.509,0,0,1,9.33,10.451v.369c-.275-.015-.538,0-.814,0" transform="translate(33.327 168.572)" fill="#eaaaa7"/>
      <path id="Trazado_772739" data-name="Trazado 772739" d="M150.235,78.293c-4.364,10.743-11.974,20.48-22.59,25.562a35.224,35.224,0,0,1-17.357,3.5,36.635,36.635,0,0,1-17.2-6.118c-6.178-3.962-11.377-9.218-16.4-14.518-.714-.754-1.852.386-1.138,1.14,8.915,9.411,19.192,19.141,32.63,20.9,12.347,1.614,24.607-4,32.939-12.938a55.583,55.583,0,0,0,10.669-17.1c.39-.96-1.167-1.377-1.553-.428" transform="translate(84.253 86.974)" fill="#34323f"/>
      <path id="Trazado_772740" data-name="Trazado 772740" d="M108.465,176.786a29.913,29.913,0,0,0-18.342-1.746,31.661,31.661,0,0,0-19.995-31.57,42.292,42.292,0,0,1,10.459-9.5.847.847,0,0,0,.2-.191.728.728,0,0,0,.453-.695q.076-11.2.155-22.4a.807.807,0,0,0-1.612,0q-.076,11-.15,21.99A44.312,44.312,0,0,0,68.457,143a.758.758,0,0,0-.455.568c-.072.1-.157.186-.229.284-.58.794.638,1.542,1.284.913A30.126,30.126,0,0,1,88.5,175.326a.645.645,0,0,0,.019.148c-.275.081-.553.138-.826.227a29.81,29.81,0,0,0-15.215,11.357c-.593.854.8,1.661,1.392.814a28,28,0,0,1,33.778-9.694c.943.4,1.765-.983.814-1.392" transform="translate(75.635 122.945)" fill="#34323f"/>
      <path id="Trazado_772741" data-name="Trazado 772741" d="M81.152,145.862a11.24,11.24,0,0,1-16,4.235,8.286,8.286,0,0,1-3.888-7.792,5.928,5.928,0,0,1,6.207-5.294c1.036.072,1.032-1.54,0-1.612a7.4,7.4,0,0,0-6.656,3.443,8.779,8.779,0,0,0-.345,8.275c2.546,5.5,9.656,7.695,15.139,5.648a13.036,13.036,0,0,0,6.938-6.089c.487-.915-.9-1.731-1.392-.814" transform="translate(66.664 151.43)" fill="#34323f"/>
      <path id="Trazado_772742" data-name="Trazado 772742" d="M73.174,143.562a2.059,2.059,0,0,1-3.191-.172,2.456,2.456,0,0,1-.292-1.93,2.652,2.652,0,0,0-.574-2.265c-1.9-2.229-6.478-2.445-7.438.824a2.961,2.961,0,0,0,1.96,3.633.807.807,0,0,0,.428-1.555,1.3,1.3,0,0,1-.89-1.35,1.82,1.82,0,0,1,1.144-1.441,2.933,2.933,0,0,1,2.322.091,3.971,3.971,0,0,1,1.091.682,1.121,1.121,0,0,1,.371,1.157,4.175,4.175,0,0,0,.222,2.47,3.677,3.677,0,0,0,1.547,1.708,3.742,3.742,0,0,0,4.44-.714c.72-.748-.417-1.888-1.14-1.14" transform="translate(68.863 153.843)" fill="#34323f"/>
      <path id="Trazado_772743" data-name="Trazado 772743" d="M34.867,118.105c-.388-.947-1.947-.532-1.553.428a61.077,61.077,0,0,1,3.432,34.805c-.2,1.013,1.354,1.447,1.553.428a62.559,62.559,0,0,0-3.432-35.661" transform="translate(37.193 131.507)" fill="#34323f"/>
      <path id="Trazado_772744" data-name="Trazado 772744" d="M41.377,124.157a41.206,41.206,0,0,1-3.538,17.164c-.417.939.97,1.76,1.392.813a43.113,43.113,0,0,0,3.758-17.978.807.807,0,0,0-1.612,0" transform="translate(42.238 138.004)" fill="#34323f"/>
      <path id="Trazado_772745" data-name="Trazado 772745" d="M46.209,127.748a.826.826,0,0,0-.994.563,21.4,21.4,0,0,1-4.693,7.087.807.807,0,0,0,1.142,1.14,23.427,23.427,0,0,0,5.106-7.8.813.813,0,0,0-.561-.991" transform="translate(45.064 142.857)" fill="#34323f"/>
      <path id="Trazado_772746" data-name="Trazado 772746" d="M71.365,154.38A47.878,47.878,0,0,1,58.9,166.422c-.858.57-.051,1.966.814,1.39a49.969,49.969,0,0,0,13.046-12.618c.6-.845-.794-1.652-1.39-.814" transform="translate(65.467 172.283)" fill="#34323f"/>
      <path id="Trazado_772747" data-name="Trazado 772747" d="M57.838,162.649A19.5,19.5,0,0,1,47.32,156.24c-.669-.792-1.805.352-1.138,1.14A20.912,20.912,0,0,0,57.41,164.2c1.008.233,1.441-1.322.428-1.553" transform="translate(51.429 174.461)" fill="#34323f"/>
      <path id="Trazado_772748" data-name="Trazado 772748" d="M57.752,157.971a12.035,12.035,0,0,1-8.239-2.449.833.833,0,0,0-1.14,0,.812.812,0,0,0,0,1.14,13.7,13.7,0,0,0,9.379,2.921.826.826,0,0,0,.805-.807.812.812,0,0,0-.805-.805" transform="translate(53.846 173.703)" fill="#34323f"/>
      <path id="Trazado_772749" data-name="Trazado 772749" d="M121.176,168.82a58.119,58.119,0,0,1-41.97-8.205c-.873-.561-1.682.833-.811,1.392a59.75,59.75,0,0,0,33.392,9.408,58.968,58.968,0,0,0,9.817-1.042c1.017-.193.587-1.746-.428-1.553" transform="translate(87.269 179.507)" fill="#34323f"/>
      <path id="Trazado_772750" data-name="Trazado 772750" d="M109.918,154.538a28.12,28.12,0,0,0-9.955-6.784,55.537,55.537,0,0,0-5.4-19.952c-.61-1.25-1.292-2.712-2.724-3.178a2.489,2.489,0,0,0-2.974,1.114c-.756,1.284-.714,3.023-.86,4.455q-.305,3-.608,6c-.106,1.03,1.506,1.023,1.61,0q.245-2.4.487-4.8a24.46,24.46,0,0,1,.5-4.182c.5-1.763,1.892-.977,2.572.225a35.564,35.564,0,0,1,1.875,4A53.825,53.825,0,0,1,98.4,148.289a.846.846,0,0,0,.591.778,26.379,26.379,0,0,1,9.786,6.612c.712.756,1.849-.383,1.14-1.14" transform="translate(97.75 139.247)" fill="#34323f"/>
      <path id="Trazado_772751" data-name="Trazado 772751" d="M100.069,136.589a26.278,26.278,0,0,0-13.076-8.353,22.5,22.5,0,0,0-7.762-.9c-1.926.167-4.292,1.362-3.578,3.695a4.25,4.25,0,0,0,2.621,2.443,12.444,12.444,0,0,0,1.559.441,25.094,25.094,0,0,0-4.449.661c-1.006.248-.58,1.8.428,1.555a23.477,23.477,0,0,1,14.7,1.152c.943.4,1.765-.987.814-1.392a25.634,25.634,0,0,0-7.9-1.951c-.013-.013-.015-.03-.028-.042a6.616,6.616,0,0,0-3.309-1.576c-.955-.237-3.284-.854-2.909-2.29.307-1.176,2.284-1.123,3.205-1.116a23.107,23.107,0,0,1,4.184.407,24.879,24.879,0,0,1,14.366,8.406c.669.794,1.8-.35,1.14-1.14" transform="translate(83.676 142.365)" fill="#34323f"/>
      <path id="Trazado_772752" data-name="Trazado 772752" d="M86.572,136.116l-9.661-3.5c-.977-.354-1.4,1.2-.43,1.553l4.555,1.65-2.568.216a.826.826,0,0,0-.807.805.814.814,0,0,0,.807.807l6.161-.521.011,0,1.5.542c.977.354,1.4-1.2.428-1.553" transform="translate(84.934 148.28)" fill="#34323f"/>
      <path id="Trazado_772753" data-name="Trazado 772753" d="M89.117,145.485a44.413,44.413,0,0,1-10.7-9.4c-.661-.8-1.794.345-1.14,1.14A45.846,45.846,0,0,0,88.3,146.877c.881.551,1.691-.843.814-1.392" transform="translate(86.219 151.907)" fill="#34323f"/>
      <path id="Trazado_772754" data-name="Trazado 772754" d="M97.386,134.575a74.708,74.708,0,0,0-12.775-8.5c-1.517-.792-4.3-1.633-4.856.786a3.147,3.147,0,0,0,.869,2.629c.667.775,1.841,1.25,2.212,2.252.358.964,1.915.547,1.555-.428a4.476,4.476,0,0,0-1.426-1.9c-.6-.5-1.517-1.061-1.633-1.917-.242-1.773,4.015.807,4.5,1.078a72.528,72.528,0,0,1,10.419,7.139c.8.653,1.943-.481,1.14-1.14" transform="translate(89.151 140.117)" fill="#34323f"/>
      <path id="Trazado_772755" data-name="Trazado 772755" d="M111.283,146.553a68.185,68.185,0,0,0-12.965,38.485,66.878,66.878,0,0,0,.763,11.548c.155,1.023,1.708.589,1.553-.428a66.46,66.46,0,0,1,6.146-39.083,65.777,65.777,0,0,1,5.9-9.709c.612-.839-.786-1.644-1.392-.814" transform="translate(109.954 163.535)" fill="#34323f"/>
      <path id="Trazado_772756" data-name="Trazado 772756" d="M134.259,172.408a44.6,44.6,0,0,0-4.267-6.885,22.682,22.682,0,0,0,2.188-10.41c-.034-1.034-1.646-1.04-1.61,0a21.039,21.039,0,0,1-1.708,8.972,44.412,44.412,0,0,0-5.582-5.726c-.784-.669-1.93.466-1.138,1.14a43.5,43.5,0,0,1,10.724,13.724c.462.928,1.854.112,1.392-.814" transform="translate(136.322 172.629)" fill="#34323f"/>
      <path id="Trazado_772757" data-name="Trazado 772757" d="M156.24,164.56c-3.388,3.5-6.673,7.152-10.213,10.5-2.714,2.566-7.383,5.356-10.851,2.375-.782-.674-1.928.462-1.14,1.14,3.517,3.023,8.33,1.563,11.6-1.04a60.962,60.962,0,0,0,5.654-5.542l6.087-6.29c.72-.746-.417-1.888-1.14-1.14" transform="translate(149.627 183.793)" fill="#34323f"/>
      <path id="Trazado_772758" data-name="Trazado 772758" d="M150.332,180.459a23.59,23.59,0,0,0-6.758-2.983q-3.8-1.265-7.648-2.4-7.875-2.313-15.9-4.055a230.05,230.05,0,0,0-32.3-4.64q-9.327-.671-18.688-.572a.807.807,0,0,0,0,1.612,228.044,228.044,0,0,1,63.9,8.47q4.408,1.239,8.764,2.657c2.667.869,5.538,1.61,7.824,3.3.835.616,1.64-.782.814-1.392" transform="translate(76.347 185.456)" fill="#34323f"/>
      <path id="Trazado_772759" data-name="Trazado 772759" d="M99.292,86.856,85.7,92.076Q81.512,79.5,77.321,66.929c-.326-.979-1.883-.559-1.553.428Q80.1,80.348,84.427,93.341a.813.813,0,0,0,.989.564q7.153-2.749,14.3-5.5c.958-.367.542-1.926-.428-1.553" transform="translate(84.698 74.24)" fill="#34323f"/>
      <path id="Trazado_772760" data-name="Trazado 772760" d="M123.452,65.86a14.909,14.909,0,0,0-3.178-6.271,3.05,3.05,0,0,0-5.059.362c-1.411,2.383.3,4.947,1.811,6.762.663.8,1.8-.347,1.138-1.14-1-1.2-2.561-3.167-1.557-4.809,1.233-2.015,2.809.288,3.491,1.417,1.561,2.591,3.294,6.731.466,9.152s-6.006-1.2-7.58-3.366a23.13,23.13,0,0,1-3.854-8.574c-.411-1.854-.809-4.055-.2-5.906.534-1.627,2.26-3.032,3.9-1.866.847.6,1.652-.8.814-1.392a3.9,3.9,0,0,0-5.091.729c-1.566,1.72-1.652,4.159-1.4,6.349a24.646,24.646,0,0,0,5.165,12.436c1.286,1.621,2.888,3.32,4.968,3.845a4.9,4.9,0,0,0,5-1.724,7.028,7.028,0,0,0,1.165-6" transform="translate(119.737 55.46)" fill="#34323f"/>
      <path id="Trazado_772761" data-name="Trazado 772761" d="M216.808,65.264c-2.724-5.019-7.218-8.343-12.26-10.807-5.063-2.474-10.533-4.239-15.179-7.5-4.83-3.394-7.557-8.459-9.548-13.887-1.985-5.411-3.428-11.091-6.326-16.118a29.8,29.8,0,0,0-44.773-7.974,28.109,28.109,0,0,0-2.337,2.182c-4.01-9-15.349-13.309-24.556-10.1C90.9,4.859,84.656,16.532,85.276,27.718a37.971,37.971,0,0,0,7.4,19.938c.6.833,2,.03,1.39-.814C87.4,37.628,84.221,25.01,89.5,14.394A23.917,23.917,0,0,1,99.928,3.6a18.749,18.749,0,0,1,14.05-1.123,17.27,17.27,0,0,1,11.364,10.33.814.814,0,0,0,1.347.356,28.164,28.164,0,0,1,44.025,2.426c3.186,4.51,4.786,9.851,6.54,15.023,1.71,5.038,3.635,10.167,7.243,14.188,3.576,3.983,8.487,6.288,13.309,8.389,4.917,2.142,10.135,4.214,14.008,8.059a21.98,21.98,0,0,1,6.273,14.162,20.608,20.608,0,0,1-4.913,14.83,22.537,22.537,0,0,1-13.709,7.519,20.908,20.908,0,0,1-4,.153c-1.036-.055-1.034,1.557,0,1.612,11.1.587,21.906-7.5,23.9-18.535a24.185,24.185,0,0,0-2.553-15.722" transform="translate(95.337 -0.001)" fill="#34323f"/>
      <path id="Trazado_772762" data-name="Trazado 772762" d="M91.331,29.963C74.012,38.094,69.3,58.58,63.788,75.047a89.942,89.942,0,0,1-5.945,14.336C55.46,93.8,52.4,97.8,50.009,102.211c-2.3,4.252-3.991,9.1-3.529,14.006a14.685,14.685,0,0,0,5.862,10.51c9.152,6.889,20.946,3.231,30.653-.233.968-.345.551-1.9-.43-1.553-8.6,3.068-18.577,6.491-27.253,1.782a13.414,13.414,0,0,1-7.067-9.383c-.873-4.826.744-9.777,2.987-14s5.137-8.044,7.485-12.2A82.337,82.337,0,0,0,64.47,78.024c3.091-8.773,5.3-17.9,9.3-26.329,3.985-8.392,9.771-16.3,18.376-20.34.939-.441.121-1.83-.814-1.392" transform="translate(51.903 33.42)" fill="#34323f"/>
      <path id="Trazado_772763" data-name="Trazado 772763" d="M90.779,38.408a34.625,34.625,0,0,1-5.061-34.25c.388-.962-1.169-1.379-1.553-.428A36.212,36.212,0,0,0,89.64,39.548c.655.805,1.788-.341,1.14-1.14" transform="translate(91.351 3.571)" fill="#34323f"/>
      <path id="Trazado_772764" data-name="Trazado 772764" d="M88.493,28.961a27.884,27.884,0,0,1-7.86-15.8c-.144-1.023-1.7-.587-1.553.428A29.286,29.286,0,0,0,87.353,30.1a.806.806,0,0,0,1.14-1.14" transform="translate(88.443 14.071)" fill="#34323f"/>
      <path id="Trazado_772765" data-name="Trazado 772765" d="M133.325,68.633a31.328,31.328,0,0,0-8.036,19.988.805.805,0,0,0,1.61,0,29.585,29.585,0,0,1,7.565-18.849c.693-.769-.443-1.911-1.14-1.14" transform="translate(140.14 76.482)" fill="#34323f"/>
      <path id="Trazado_772766" data-name="Trazado 772766" d="M136.416,74.124a.82.82,0,0,0-1.1-.288,18.769,18.769,0,0,0-8.086,7.762c-.5.911.894,1.725,1.392.814a17.286,17.286,0,0,1,7.508-7.186.812.812,0,0,0,.288-1.1" transform="translate(142.19 82.476)" fill="#34323f"/>
      <path id="Trazado_772767" data-name="Trazado 772767" d="M132.712,78.687l-4.479.6a.828.828,0,0,0-.807.805c.017.39.358.864.807.805q2.237-.3,4.479-.6a.831.831,0,0,0,.805-.807c-.017-.388-.358-.864-.805-.805" transform="translate(142.53 88.008)" fill="#34323f"/>
      <path id="Trazado_772768" data-name="Trazado 772768" d="M144.864,58.439a27.846,27.846,0,0,0-2.667-1.064c.422-.072.841-.157,1.265-.22,1.023-.15.587-1.7-.428-1.553-1.43.21-2.839.487-4.237.805-8.925-1.924-18.372.273-27.132,2.619-10.91,2.921-23.539,6.548-34.278,1.068-4.779-2.438-8.775-6.527-10.152-11.811a.794.794,0,0,0-1.369-.292c-.1-.434-.208-.862-.286-1.3-.18-1.021-1.733-.589-1.553.428a29.062,29.062,0,0,0,20.23,22.5c12.817,3.7,26-1.328,37.848-5.964a123.965,123.965,0,0,1,16.7-5.593,26.148,26.148,0,0,1,5.252,1.767c.932.436,1.752-.951.811-1.392m-37.909,8.839c-6.067,1.644-12.516,2.593-18.777,1.572a27.166,27.166,0,0,1-14.465-7.11A27.827,27.827,0,0,1,67.9,53.753a21.461,21.461,0,0,0,5.875,6.057,28,28,0,0,0,14.98,4.657c12.387.5,23.867-4.964,35.941-6.709a42.738,42.738,0,0,1,10.182-.328c-9.461,2.75-18.391,7.264-27.924,9.849" transform="translate(71.6 51.572)" fill="#34323f"/>
      <path id="Trazado_772769" data-name="Trazado 772769" d="M99.96,60.013a13.958,13.958,0,0,1-14.919,9.046c-1.025-.127-1.017,1.485,0,1.612a15.547,15.547,0,0,0,16.472-10.23c.352-.977-1.205-1.4-1.553-.428" transform="translate(94.265 66.512)" fill="#34323f"/>
      <path id="Trazado_772770" data-name="Trazado 772770" d="M78.913,68.98a.825.825,0,0,0-.991.566,10.713,10.713,0,0,1-7.442,6.75.806.806,0,0,0,.428,1.553,12.375,12.375,0,0,0,8.569-7.875.819.819,0,0,0-.564-.994" transform="translate(78.191 77.125)" fill="#34323f"/>
      <path id="Trazado_772771" data-name="Trazado 772771" d="M107.671,63.514a11.069,11.069,0,1,0,11.069,11.069,11.058,11.058,0,0,0-11.069-11.069" transform="translate(108.053 71.043)" fill="#ffa08a"/>
      <path id="Trazado_772772" data-name="Trazado 772772" d="M92.072,80.119c-3.932,3.335-5.125,8.411-2.642,11.328,2.464,2.915,7.669,2.578,11.6-.758s5.108-8.411,2.642-11.326-7.669-2.578-11.6.756" transform="translate(98.581 86.55)" fill="#e2798a"/>
      <path id="Trazado_772773" data-name="Trazado 772773" d="M87.928,94.339a40.5,40.5,0,0,0,18.577-18.861c.445-.932,1.835-.119,1.39.816a41.928,41.928,0,0,1-19.154,19.44c-.926.455-1.744-.932-.814-1.394" transform="translate(97.893 83.963)" fill="#34323f"/>
      <path id="Trazado_772774" data-name="Trazado 772774" d="M83.244,57.551l9.406-1.941a2.418,2.418,0,1,1,1.286,4.663L84.53,62.212a2.417,2.417,0,1,1-1.286-4.661" transform="translate(91.152 62.14)" fill="#34323f"/>
      <path id="Trazado_772775" data-name="Trazado 772775" d="M68.269,67.66l5.51-5.091a2.529,2.529,0,0,1,1.71-.708,2.416,2.416,0,0,1,1.71,4.125q-2.755,2.545-5.512,5.091a2.526,2.526,0,0,1-1.708.71,2.462,2.462,0,0,1-1.71-.71,2.419,2.419,0,0,1-.708-1.708,2.443,2.443,0,0,1,.708-1.71" transform="translate(75.567 69.195)" fill="#34323f"/>
      <path id="Trazado_772776" data-name="Trazado 772776" d="M129.874,118.389a2.469,2.469,0,0,0-2.972,1.688L123.2,131.685a2.438,2.438,0,0,0,1.688,2.972,2.471,2.471,0,0,0,2.974-1.686q1.849-5.806,3.7-11.61a2.439,2.439,0,0,0-1.688-2.972" transform="translate(137.695 132.344)" fill="#e2798a"/>
      <path id="Trazado_772777" data-name="Trazado 772777" d="M146.038,113.93q-5.6-1.109-11.2-2.214a2.418,2.418,0,0,0-1.286,4.663l11.2,2.214a2.418,2.418,0,0,0,1.286-4.663" transform="translate(147.424 124.899)" fill="#e2798a"/>
      <path id="Trazado_772778" data-name="Trazado 772778" d="M140.748,136.183q-1.8-5.822-3.6-11.641a2.417,2.417,0,1,0-4.661,1.286q1.8,5.819,3.6,11.641a2.417,2.417,0,0,0,4.661-1.286" transform="translate(148.082 137.303)" fill="#e2798a"/>
      <path id="Trazado_772779" data-name="Trazado 772779" d="M135.089,135.078a2.456,2.456,0,0,0-3.419,0l-7.608,8.067a2.417,2.417,0,0,0,3.417,3.419l7.61-8.069a2.453,2.453,0,0,0,0-3.417" transform="translate(137.99 150.314)" fill="#e2798a"/>
      <path id="Trazado_772780" data-name="Trazado 772780" d="M137.446,148.7l-3.093-7.186a2.417,2.417,0,0,0-1.445-1.11,2.474,2.474,0,0,0-1.862.244,2.433,2.433,0,0,0-1.11,1.445c-.03.214-.059.428-.087.642a2.4,2.4,0,0,0,.331,1.22q1.544,3.594,3.093,7.186a2.41,2.41,0,0,0,1.445,1.11A2.475,2.475,0,0,0,136.58,152a2.441,2.441,0,0,0,1.11-1.445c.028-.214.057-.428.087-.642a2.42,2.42,0,0,0-.331-1.22" transform="translate(145.241 156.954)" fill="#e2798a"/>
      <path id="Trazado_772781" data-name="Trazado 772781" d="M148.527,100.317a2.465,2.465,0,0,0-3.307-.864q-4.036,2.234-8.07,4.468a2.441,2.441,0,0,0-.866,3.3,2.468,2.468,0,0,0,3.307.869q4.033-2.237,8.069-4.468a2.446,2.446,0,0,0,.867-3.309" transform="translate(152.069 110.886)" fill="#e2798a"/>
      <path id="Trazado_772782" data-name="Trazado 772782" d="M145.163,91.727a2.468,2.468,0,0,0-3.417,0q-3.136,2.911-6.271,5.824a2.433,2.433,0,0,0,0,3.417,2.468,2.468,0,0,0,3.417,0q3.137-2.911,6.271-5.824a2.437,2.437,0,0,0,0-3.417" transform="translate(150.75 101.831)" fill="#e2798a"/>
      <path id="Trazado_772783" data-name="Trazado 772783" d="M161.514,112.579a2.862,2.862,0,0,0-1.11-1.445l-7.616-5.822a2.414,2.414,0,0,0-1.862-.244,2.464,2.464,0,0,0-1.445,1.11,2.438,2.438,0,0,0-.244,1.862,2.855,2.855,0,0,0,1.112,1.445l7.614,5.822a2.415,2.415,0,0,0,1.862.244,2.417,2.417,0,0,0,1.688-2.972" transform="translate(166.823 117.432)" fill="#e2798a"/>
      <path id="Trazado_772784" data-name="Trazado 772784" d="M146.925,113.231a2.46,2.46,0,0,0-2.417,2.417q-.013,4.926-.025,9.853a2.417,2.417,0,0,0,4.835,0l.025-9.853a2.444,2.444,0,0,0-2.417-2.417" transform="translate(161.608 126.651)" fill="#e2798a"/>
      <path id="Trazado_772785" data-name="Trazado 772785" d="M168.378,121.3l-9.4-3.169a2.435,2.435,0,0,0-2.972,1.688,2.476,2.476,0,0,0,1.688,2.974l9.4,3.167a2.433,2.433,0,0,0,2.972-1.688,2.473,2.473,0,0,0-1.688-2.972" transform="translate(174.424 132.023)" fill="#e2798a"/>
      <path id="Trazado_772786" data-name="Trazado 772786" d="M151.939,124.933a2.458,2.458,0,0,0-2.974,1.688q-1.16,4.468-2.32,8.938a2.417,2.417,0,1,0,4.661,1.284q1.16-4.468,2.32-8.938a2.451,2.451,0,0,0-1.686-2.972" transform="translate(163.943 139.668)" fill="#e2798a"/>
      <path id="Trazado_772787" data-name="Trazado 772787" d="M152.558,146.736q-3.187-4.818-6.377-9.633a2.417,2.417,0,0,0-4.174,2.441q3.187,4.814,6.377,9.633a2.417,2.417,0,1,0,4.174-2.441" transform="translate(158.46 152.009)" fill="#e2798a"/>
      <path id="Trazado_772788" data-name="Trazado 772788" d="M166.839,134.72a2.477,2.477,0,0,0-3.307-.866l-8.951,4.493a2.433,2.433,0,0,0-.869,3.307,2.478,2.478,0,0,0,3.307.866l8.953-4.493a2.434,2.434,0,0,0,.866-3.307" transform="translate(171.567 149.382)" fill="#e2798a"/>
      <path id="Trazado_772789" data-name="Trazado 772789" d="M172.3,138.847l-5.375-8.959a2.417,2.417,0,0,0-4.174,2.441q2.688,4.478,5.375,8.959a2.417,2.417,0,1,0,4.174-2.441" transform="translate(181.684 143.941)" fill="#e2798a"/>
      <path id="Trazado_772790" data-name="Trazado 772790" d="M169.544,154.282q-1.792-5.151-3.582-10.3a2.418,2.418,0,1,0-4.663,1.286l3.585,10.3a2.417,2.417,0,0,0,4.661-1.286" transform="translate(180.294 159.043)" fill="#e2798a"/>
      <path id="Trazado_772791" data-name="Trazado 772791" d="M160.846,145.87a2.453,2.453,0,0,0-2.972,1.688L154.74,160.55a2.417,2.417,0,0,0,4.661,1.284l3.133-12.991a2.454,2.454,0,0,0-1.688-2.972" transform="translate(173.006 163.088)" fill="#e2798a"/>
      <path id="Trazado_772792" data-name="Trazado 772792" d="M169.1,157.971l-11.2.131a2.417,2.417,0,0,0,0,4.835q5.6-.067,11.2-.131a2.417,2.417,0,1,0,0-4.835" transform="translate(173.92 176.696)" fill="#e2798a"/>
      <path id="Trazado_772793" data-name="Trazado 772793" d="M166.444,168.082a2.417,2.417,0,0,0-4.835,0q.013,5.825.021,11.648a2.417,2.417,0,0,0,4.834,0q-.01-5.822-.021-11.648" transform="translate(180.765 185.302)" fill="#e2798a"/>
      <path id="Trazado_772794" data-name="Trazado 772794" d="M164.588,191.7q-1.185-5.135-2.371-10.273a2.435,2.435,0,0,0-2.974-1.686,2.467,2.467,0,0,0-1.686,2.972q1.185,5.135,2.371,10.273a2.434,2.434,0,0,0,2.972,1.686,2.468,2.468,0,0,0,1.688-2.972" transform="translate(176.153 200.94)" fill="#e2798a"/>
      <path id="Trazado_772795" data-name="Trazado 772795" d="M158.151,191.444q-2.463-4.255-4.928-8.51a2.417,2.417,0,1,0-4.174,2.438l4.928,8.512a2.417,2.417,0,1,0,4.174-2.441" transform="translate(166.357 203.276)" fill="#e2798a"/>
      <path id="Trazado_772796" data-name="Trazado 772796" d="M146.884,184.135a2.424,2.424,0,0,0-1.71-.708,2.328,2.328,0,0,0-1.708.708q-3.362,4.255-6.72,8.51a2.631,2.631,0,0,0-.708,1.71,2.416,2.416,0,0,0,2.417,2.417,2.35,2.35,0,0,0,1.71-.708l6.718-8.512a2.629,2.629,0,0,0,.708-1.707,2.46,2.46,0,0,0-.708-1.71" transform="translate(152.164 205.167)" fill="#e2798a"/>
      <path id="Trazado_772797" data-name="Trazado 772797" d="M153.6,192.277l-9.864-.777a2.429,2.429,0,0,0-2.417,2.417,2.477,2.477,0,0,0,2.417,2.415l9.864.78a2.43,2.43,0,0,0,2.417-2.417,2.478,2.478,0,0,0-2.417-2.417" transform="translate(158.072 214.193)" fill="#e2798a"/>
      <path id="Trazado_772798" data-name="Trazado 772798" d="M162.66,190.885a2.445,2.445,0,0,0-3.417,0l-7.389,9.144a2.6,2.6,0,0,0-.708,1.71,2.416,2.416,0,0,0,4.125,1.705l7.389-9.139a2.609,2.609,0,0,0,.708-1.71,2.464,2.464,0,0,0-.708-1.71" transform="translate(169.062 212.73)" fill="#e2798a"/>
      <path id="Trazado_772799" data-name="Trazado 772799" d="M145.513,198.254l-8.959-.445a2.434,2.434,0,0,0-2.417,2.417,2.473,2.473,0,0,0,2.417,2.417l8.959.445a2.434,2.434,0,0,0,2.417-2.417,2.471,2.471,0,0,0-2.417-2.417" transform="translate(150.034 221.254)" fill="#e2798a"/>
      <path id="Trazado_772800" data-name="Trazado 772800" d="M134.094,193.515a2.466,2.466,0,0,0-3.307.866q-2.857,4.738-5.712,9.474a2.417,2.417,0,1,0,4.174,2.438q2.857-4.735,5.712-9.47a2.445,2.445,0,0,0-.867-3.309" transform="translate(139.543 216.11)" fill="#e2798a"/>
      <path id="Trazado_772801" data-name="Trazado 772801" d="M124.041,201.9q-2.024-3.13-4.046-6.262a2.545,2.545,0,0,0-1.443-1.11,2.418,2.418,0,0,0-2.731,3.551l4.046,6.262a2.543,2.543,0,0,0,1.445,1.11,2.417,2.417,0,0,0,2.729-3.551" transform="translate(129.173 217.5)" fill="#e2798a"/>
      <path id="Trazado_772802" data-name="Trazado 772802" d="M122.684,202a2.457,2.457,0,0,0-2.972-1.688l-8.093,2.6a2.417,2.417,0,0,0,1.286,4.661l8.091-2.6A2.459,2.459,0,0,0,122.684,202" transform="translate(122.848 223.945)" fill="#e2798a"/>
      <path id="Trazado_772803" data-name="Trazado 772803" d="M59.056,186.378q-2-6.276-4-12.552a2.417,2.417,0,0,0-4.661,1.286q2,6.276,4,12.552a2.417,2.417,0,0,0,4.661-1.286" transform="translate(56.252 192.429)" fill="#e2798a"/>
      <path id="Trazado_772804" data-name="Trazado 772804" d="M68.677,167.592a2.476,2.476,0,0,0-3.417,0l-7.633,6.7a2.43,2.43,0,0,0,0,3.417,2.472,2.472,0,0,0,3.417,0l7.633-6.7a2.43,2.43,0,0,0,0-3.417" transform="translate(63.672 186.693)" fill="#e2798a"/>
      <path id="Trazado_772805" data-name="Trazado 772805" d="M57.026,163.835a2.417,2.417,0,0,0-3.417,0,2.715,2.715,0,0,0-.708,1.71q-.378,4.036-.754,8.076a2.428,2.428,0,0,0,.708,1.708,2.414,2.414,0,0,0,3.419,0,2.733,2.733,0,0,0,.708-1.708q.375-4.039.752-8.076a2.423,2.423,0,0,0-.708-1.71" transform="translate(58.322 182.461)" fill="#e2798a"/>
      <path id="Trazado_772806" data-name="Trazado 772806" d="M54.9,169.881a2.445,2.445,0,0,0-1.11-1.445,2.849,2.849,0,0,0-1.862-.244l-10.29,1.434a2.413,2.413,0,0,0-1.445,1.11,2.471,2.471,0,0,0-.244,1.864,2.435,2.435,0,0,0,1.11,1.443,2.836,2.836,0,0,0,1.862.244q5.145-.715,10.29-1.434a2.4,2.4,0,0,0,1.445-1.11,2.465,2.465,0,0,0,.244-1.862" transform="translate(44.585 188.071)" fill="#e2798a"/>
      <path id="Trazado_772807" data-name="Trazado 772807" d="M46.635,169.783l-4.57-10.262a2.425,2.425,0,0,0-3.307-.866,2.492,2.492,0,0,0-.869,3.307q2.288,5.129,4.572,10.262a2.426,2.426,0,0,0,3.307.866,2.489,2.489,0,0,0,.866-3.307" transform="translate(42.061 177.098)" fill="#e2798a"/>
      <path id="Trazado_772808" data-name="Trazado 772808" d="M36.141,157.269a2.449,2.449,0,0,0-2.972,1.688l-1.782,8.961A2.418,2.418,0,0,0,36.05,169.2l1.78-8.961a2.466,2.466,0,0,0-1.688-2.972" transform="translate(35.048 175.841)" fill="#e2798a"/>
      <path id="Trazado_772809" data-name="Trazado 772809" d="M61.927,113.538a2.464,2.464,0,0,0-2.974-1.688l-11.2,3.129a2.419,2.419,0,1,0,1.288,4.663q5.6-1.567,11.2-3.131a2.447,2.447,0,0,0,1.691-2.972" transform="translate(51.413 125.009)" fill="#e2798a"/>
      <path id="Trazado_772810" data-name="Trazado 772810" d="M66.286,122.559,62.263,113.6a2.434,2.434,0,0,0-1.445-1.112,2.425,2.425,0,0,0-2.974,1.688,2.785,2.785,0,0,0,.244,1.862Q60.1,120.52,62.112,125a2.424,2.424,0,0,0,1.445,1.11,2.475,2.475,0,0,0,1.862-.244,2.441,2.441,0,0,0,1.11-1.445,2.787,2.787,0,0,0-.244-1.862" transform="translate(64.625 125.729)" fill="#e2798a"/>
      <path id="Trazado_772811" data-name="Trazado 772811" d="M74.451,120.345A2.444,2.444,0,0,0,73,119.235a2.345,2.345,0,0,0-1.862.244q-2.688,2.015-5.375,4.032a2.643,2.643,0,0,0-1.108,1.443,2.469,2.469,0,0,0,.242,1.864,2.443,2.443,0,0,0,1.443,1.11,2.358,2.358,0,0,0,1.864-.244q2.685-2.018,5.375-4.032a2.636,2.636,0,0,0,1.112-1.445,2.483,2.483,0,0,0-.244-1.862" transform="translate(72.232 133.275)" fill="#e2798a"/>
      <path id="Trazado_772812" data-name="Trazado 772812" d="M138.758,135.849a.807.807,0,0,0-1.612,0q.419,20.608.841,41.216a.805.805,0,0,0,1.61,0l-.839-41.216" transform="translate(153.403 151.082)" fill="#34323f"/>
      <path id="Trazado_772813" data-name="Trazado 772813" d="M112.016,198.921q-7.086-7.7-14.171-15.4c-.705-.765-1.841.377-1.14,1.138l14.171,15.4c.7.765,1.841-.377,1.14-1.14" transform="translate(107.922 204.997)" fill="#34323f"/>
      <path id="Trazado_772814" data-name="Trazado 772814" d="M114.243,212.458q-7.5-8.72-15-17.442L112.5,205.689c.8.644,1.947-.489,1.14-1.14q-10.026-8.078-20.05-16.147c-.015-.013-.034-.015-.051-.028a.746.746,0,0,0-1.286.341.808.808,0,0,0-.032.1.645.645,0,0,0-.021.087.6.6,0,0,0,.138.5.829.829,0,0,0,.061.112L113.1,213.6c.678.79,1.813-.354,1.14-1.14" transform="translate(103.115 210.408)" fill="#34323f"/>
      <path id="Trazado_772815" data-name="Trazado 772815" d="M131.865,26.691a.806.806,0,0,0-.428,1.553,26.349,26.349,0,0,1,19.815,24.077c.053,1.032,1.665,1.038,1.61,0a27.989,27.989,0,0,0-21-25.63" transform="translate(146.375 29.823)" fill="#fff"/>
      <path id="Trazado_772816" data-name="Trazado 772816" d="M138.021,35.31c-.705-.763-1.843.379-1.14,1.14a10.4,10.4,0,0,1,2.5,9.184c-.222,1.011,1.33,1.441,1.553.428a12.092,12.092,0,0,0-2.913-10.752" transform="translate(152.859 39.214)" fill="#fff"/>
      <path id="Trazado_772817" data-name="Trazado 772817" d="M60.386,59.709A27.766,27.766,0,0,0,56.27,82.288a.806.806,0,0,0,1.553-.428,26.176,26.176,0,0,1,3.955-21.336c.6-.852-.8-1.657-1.392-.816" transform="translate(62.006 66.389)" fill="#fff"/>
      <path id="Trazado_772818" data-name="Trazado 772818" d="M60.8,75.919a10.788,10.788,0,0,1-.028-10.2c.494-.911-.9-1.727-1.392-.814A12.463,12.463,0,0,0,59.4,76.733c.5.909,1.892.1,1.392-.814" transform="translate(64.76 72.147)" fill="#fff"/>
      <path id="Trazado_772819" data-name="Trazado 772819" d="M100.055,50.032A32.885,32.885,0,0,1,70.59,44.738c-.809-.627-1.958.5-1.14,1.14a34.541,34.541,0,0,0,31.032,5.707c.987-.3.568-1.86-.428-1.553" transform="translate(77.368 49.836)" fill="#fff"/>
      <path id="Trazado_772820" data-name="Trazado 772820" d="M91.19,43.482A33.752,33.752,0,0,1,78.6,47.122c-1.025.087-1.034,1.7,0,1.61A35.765,35.765,0,0,0,92,44.874c.922-.477.108-1.866-.814-1.392" transform="translate(87.048 48.528)" fill="#fff"/>
      <path id="Trazado_772821" data-name="Trazado 772821" d="M159.689,12.7c-1.2-7.6-10.5-5.373-15.3-3.324a43.419,43.419,0,0,0-15.48,11.262,44.782,44.782,0,0,0-7.5,11.864,63.281,63.281,0,0,0-4.851-10.762c-2.828-4.93-6.468-10.514-11.2-13.8-4.682-3.248-11.01-1.574-12.054,4.4-1.049,5.991,3.7,10.044,7.828,13.5q6.848,5.736,13.7,11.472a65.7,65.7,0,0,0-23.571-2.318c-3.076.263-3.1,5.1,0,4.832a62.308,62.308,0,0,1,47.574,16.311c2.273,2.121,5.7-1.29,3.417-3.419a66.792,66.792,0,0,0-18.116-12,2.072,2.072,0,0,0,.165-.6q10.255-6.219,20.507-12.44c3.614-2.193,7.5-4.188,10.872-6.745,2.568-1.947,4.544-4.868,4.015-8.226M99.226,17.4c-1.1-1.534-2.18-4.695-.178-6.08,2.409-1.667,5.627,2.294,6.974,3.851a56.468,56.468,0,0,1,5.512,7.572,58.383,58.383,0,0,1,4.578,9.358l-9.735-8.152c-2.411-2.019-5.3-3.968-7.152-6.548m51.033,1.305q-4.633,2.816-9.271,5.623-7.284,4.42-14.569,8.839a39.538,39.538,0,0,1,15.207-16.961,36.109,36.109,0,0,1,7.059-3.343c1.464-.5,5.036-1.7,6.1.117,1.417,2.438-3.015,4.811-4.521,5.726" transform="translate(99.478 7.055)" fill="#e2798a"/>
      <path id="Trazado_772822" data-name="Trazado 772822" d="M65.9,25.912C78.967,44.108,73,86.75,73,86.75,47.168,74.365,19.686,53.287,26.661,43.923s27.441,4,27.441,4c-1.2-4.7-1.256-40.206,11.8-22.014" transform="translate(28.591 23.226)" fill="#e2798a"/>
      <path id="Trazado_772823" data-name="Trazado 772823" d="M67.011,24.75a33.333,33.333,0,0,1,5.366-9.438,18.73,18.73,0,0,1,4.968-4.476,6.36,6.36,0,0,1,2.633-.924,3.139,3.139,0,0,1,2.557.939,4.326,4.326,0,0,1,.8,2.911,23.537,23.537,0,0,1-2.75,9.737A106.089,106.089,0,0,1,74.56,33.825Q68.833,42.879,63.1,51.943c-6.15-9.26-12.1-18.851-14.546-29.666a21.848,21.848,0,0,1-.6-7.826A4.115,4.115,0,0,1,48.8,12.2a3.231,3.231,0,0,1,2.8-.909,7.874,7.874,0,0,1,2.854,1.064,31.712,31.712,0,0,1,12.561,12.4" transform="translate(53.474 11.079)" fill="#e2798a"/>
    </g>
  </g>
</svg>
