<svg id="Grupo_1043402" data-name="Grupo 1043402" xmlns="http://www.w3.org/2000/svg" xmlns:xlink="http://www.w3.org/1999/xlink" width="237.027" height="261.669" viewBox="0 0 237.027 261.669">
  <defs>
    <clipPath id="clip-path">
      <rect id="Rectángulo_355985" data-name="Rectángulo 355985" width="237.027" height="261.669" fill="none"/>
    </clipPath>
  </defs>
  <g id="Grupo_1043401" data-name="Grupo 1043401" clip-path="url(#clip-path)">
    <path id="Trazado_772824" data-name="Trazado 772824" d="M56,160.616a5.527,5.527,0,0,1,3.947.573c-.113-.371-.217-.745-.324-1.125l0-.014a10.68,10.68,0,0,0-2.059-2.822,35.232,35.232,0,0,0-34.307-10c2.875,1.4,4.734,4.206,6.751,6.689a21.554,21.554,0,0,0,6.811,5.869A20.159,20.159,0,0,0,46.3,161.6c3.25-.071,6.471-.609,9.7-.981" transform="translate(2.662 16.737)" fill="#b54364"/>
    <path id="Trazado_772825" data-name="Trazado 772825" d="M59.508,178.1c-7.132-7.205-20.348-9.761-27.627-9.988a49.985,49.985,0,0,0-19.925,3.508c6.371,2.814,11.4,8.459,18.167,10.112,4.042.993,8.3.444,12.362-.5s8.027-2.261,12.147-2.83a9.94,9.94,0,0,1,5.6.471q-.356-.4-.728-.771" transform="translate(1.369 19.25)" fill="#b54364"/>
    <path id="Trazado_772826" data-name="Trazado 772826" d="M78.131,202.574c.2-.045.391-.1.586-.147l-.025-.1a26.341,26.341,0,0,0-11.688-8.509,34.664,34.664,0,0,0-5.843-1.516,52.544,52.544,0,0,0-25.631,1.831c3.831.638,6.748,3.644,9.843,6a27.4,27.4,0,0,0,16.308,5.916c5.622.008,10.994-2.055,16.449-3.467" transform="translate(4.069 21.929)" fill="#b54364"/>
    <path id="Trazado_772827" data-name="Trazado 772827" d="M56.824,162.543c.142.3.285.6.419.894l.009,0a40.135,40.135,0,0,0,2.431-23.389,47.717,47.717,0,0,0-10.248-21.321q-1.113,5.973-2.242,11.944c-.824,4.381-1.636,8.955-.373,13.218a32.71,32.71,0,0,0,4.033,7.7,106.972,106.972,0,0,1,5.972,10.946" transform="translate(5.287 13.597)" fill="#b54364"/>
    <path id="Trazado_772828" data-name="Trazado 772828" d="M72.4,185.965a.25.25,0,0,0,.028.067h.022a19.542,19.542,0,0,1,2.482-8.963c2.5-4.438,6.626-7.707,9.729-11.748a30.555,30.555,0,0,0,6.255-18.69c-2.248,4.264-7.2,6.168-11.081,9.005A24.246,24.246,0,0,0,72.4,185.965" transform="translate(8.004 16.792)" fill="#b54364"/>
    <path id="Trazado_772829" data-name="Trazado 772829" d="M80.361,203.706a1.3,1.3,0,0,0,.061.154c3.169-4.743,8.058-8.086,11.562-12.586a27.3,27.3,0,0,0,5.333-20.9,3.772,3.772,0,0,1-1.423,2.124c-4.592,4.251-9.449,8.371-12.8,13.664-3.283,5.184-4.938,11.834-2.736,17.547" transform="translate(9.088 19.511)" fill="#b54364"/>
    <path id="Trazado_772830" data-name="Trazado 772830" d="M56.845,201.573c5.759.07,11.706.768,16.875,3.484a21.489,21.489,0,0,1,5.293,3.914c-1.421-2.926-3.011-5.769-4.669-8.512-6.129-10.148-13.35-19.865-16.839-31.343a39.787,39.787,0,0,1-1.467-18.355c.158-.911,1.555-.573,1.4.337-1.97,11.365,2.491,22.6,8.05,32.3,2.663,4.644,5.625,9.133,8.46,13.69a50.163,50.163,0,0,1,2.922-30.352c.366-.85,1.629-.165,1.266.679a48.571,48.571,0,0,0-1.811,33.138.647.647,0,0,1-.013.426A93.576,93.576,0,0,1,81.72,211.4a46.722,46.722,0,0,1,10.135-22.461c.592-.714,1.641.269,1.052.979a45.08,45.08,0,0,0-10.1,24.171c.078.206.162.41.239.619a42.618,42.618,0,0,1,2.792,18.791c-.089.907-1.527.955-1.435.035a39.274,39.274,0,0,0-1.676-15.218.572.572,0,0,1-.417-.467,14.526,14.526,0,0,0-.844-2.716.547.547,0,0,1-.132-.3,18.353,18.353,0,0,0-8.553-8.641c-4.9-2.485-10.483-3.114-15.9-3.18-.922-.011-.963-1.448-.035-1.437" transform="translate(6.361 17.204)" fill="#b54364"/>
    <path id="Trazado_772831" data-name="Trazado 772831" d="M41.429,173.309A48.264,48.264,0,0,1,71.5,187.663c.643.663-.333,1.717-.976,1.052a46.783,46.783,0,0,0-29.06-13.969c-.909-.085-.956-1.522-.033-1.437" transform="translate(4.668 19.847)" fill="#b54364"/>
    <path id="Trazado_772832" data-name="Trazado 772832" d="M68.1,215.73A13.63,13.63,0,0,1,67.06,223.9c-.425-.159-.846-.312-1.275-.468l.035-.095a32,32,0,0,1-5.779-30.74q2.822,7.526,5.646,15.045a40.269,40.269,0,0,1,2.411,8.09" transform="translate(6.683 22.056)" fill="#2d728f"/>
    <path id="Trazado_772833" data-name="Trazado 772833" d="M37.03,178.147a42.17,42.17,0,0,1,2.649,31.346c-.283-.24-.557-.475-.835-.717a37.529,37.529,0,0,1-1.814-30.629" transform="translate(3.962 20.401)" fill="#2d728f"/>
    <path id="Trazado_772834" data-name="Trazado 772834" d="M53.437,218.448c-.251-.125-.508-.247-.757-.381a35.7,35.7,0,0,1-6.249-32.633,138.6,138.6,0,0,1,7.19,17.507c1.586,5.149,2.529,10.863.47,15.823-.226-.1-.44-.208-.654-.315" transform="translate(5.139 21.236)" fill="#2d728f"/>
    <path id="Trazado_772835" data-name="Trazado 772835" d="M68.306,220.684c.335.121.677.241,1.014.368a7.075,7.075,0,0,1-1.492,3.6,16.305,16.305,0,0,1-3.669,3.284A63.223,63.223,0,0,1,47.466,236.4c2.378-3.953,4.8-7.963,8.215-11.064s8.019-5.2,12.585-4.57a.559.559,0,0,0,.04-.082" transform="translate(5.436 25.269)" fill="#2d728f"/>
    <path id="Trazado_772836" data-name="Trazado 772836" d="M55.117,215.456a20.495,20.495,0,0,1-27.25,2.812,38.557,38.557,0,0,1,27.25-2.812" transform="translate(3.191 24.525)" fill="#2d728f"/>
    <path id="Trazado_772837" data-name="Trazado 772837" d="M42.3,207.012c-3.712,3.527-9.334,4.591-14.362,3.564-5.088-1.049-9.614-4-13.439-7.505a39.421,39.421,0,0,1,27.41,3.9c.022-.075.045-.149.074-.227.1.09.206.183.317.266" transform="translate(1.66 23.149)" fill="#2d728f"/>
    <path id="Trazado_772838" data-name="Trazado 772838" d="M33.937,202.9c-.013.049-.031.1-.05.152a30.23,30.23,0,0,1-14.76-32.268,119.811,119.811,0,0,1,13.565,24.273c1.031,2.5,1.993,5.273,1.245,7.843" transform="translate(2.123 19.558)" fill="#2d728f"/>
    <path id="Trazado_772839" data-name="Trazado 772839" d="M84.675,230.049c.086-.655.172-1.31.252-1.966-2.972-1.077-5.962-2.109-8.93-3.2a143.864,143.864,0,0,1-15.8-6.893,130.838,130.838,0,0,1-14.878-8.848,45.923,45.923,0,0,1-12.3-11.753c-.7-1.033-2.169.235-1.477,1.261,3.626,5.373,8.752,9.5,14.1,13.06a144.1,144.1,0,0,0,30.822,15.41c2.717.984,5.47,1.934,8.207,2.93" transform="translate(3.592 22.561)" fill="#2d728f"/>
    <path id="Trazado_772840" data-name="Trazado 772840" d="M169.537,159.972a5.527,5.527,0,0,0-3.947.573c.113-.371.217-.745.324-1.125l0-.014a10.68,10.68,0,0,1,2.059-2.822,35.232,35.232,0,0,1,34.307-10c-2.875,1.4-4.734,4.206-6.751,6.689a21.554,21.554,0,0,1-6.811,5.869,20.159,20.159,0,0,1-9.489,1.812c-3.25-.072-6.471-.609-9.7-.981" transform="translate(18.963 16.664)" fill="#b54364"/>
    <path id="Trazado_772841" data-name="Trazado 772841" d="M167.216,177.46c7.131-7.205,20.347-9.761,27.626-9.989a50.011,50.011,0,0,1,19.926,3.51c-6.372,2.813-11.4,8.459-18.167,10.111-4.042.994-8.3.445-12.363-.5s-8.027-2.262-12.146-2.83a9.924,9.924,0,0,0-5.6.471q.358-.4.729-.771" transform="translate(19.066 19.176)" fill="#b54364"/>
    <path id="Trazado_772842" data-name="Trazado 772842" d="M148.068,201.93c-.2-.045-.391-.1-.586-.147l.025-.1a26.341,26.341,0,0,1,11.688-8.509,34.666,34.666,0,0,1,5.843-1.516,52.544,52.544,0,0,1,25.631,1.831c-3.831.638-6.748,3.644-9.843,6a27.4,27.4,0,0,1-16.308,5.916c-5.622.008-10.994-2.055-16.449-3.467" transform="translate(16.889 21.855)" fill="#b54364"/>
    <path id="Trazado_772843" data-name="Trazado 772843" d="M166.4,161.9c-.142.3-.285.6-.419.895l-.009,0a40.138,40.138,0,0,1-2.431-23.39,47.719,47.719,0,0,1,10.248-21.32q1.113,5.972,2.242,11.944c.824,4.381,1.636,8.955.372,13.218a32.635,32.635,0,0,1-4.032,7.7A107.088,107.088,0,0,0,166.4,161.9" transform="translate(18.644 13.523)" fill="#b54364"/>
    <path id="Trazado_772844" data-name="Trazado 772844" d="M151.527,185.321a.251.251,0,0,1-.028.067h-.022a19.542,19.542,0,0,0-2.482-8.963c-2.5-4.438-6.626-7.707-9.729-11.748a30.555,30.555,0,0,1-6.255-18.69c2.248,4.264,7.2,6.168,11.081,9.005a24.246,24.246,0,0,1,7.435,30.329" transform="translate(15.232 16.718)" fill="#b54364"/>
    <path id="Trazado_772845" data-name="Trazado 772845" d="M143.281,203.062a1.3,1.3,0,0,1-.061.154c-3.169-4.743-8.057-8.086-11.562-12.586a27.3,27.3,0,0,1-5.333-20.9,3.772,3.772,0,0,0,1.423,2.124c4.592,4.251,9.449,8.371,12.8,13.664,3.283,5.184,4.938,11.834,2.736,17.547" transform="translate(14.427 19.437)" fill="#b54364"/>
    <path id="Trazado_772846" data-name="Trazado 772846" d="M168.775,200.929c-5.759.07-11.706.768-16.875,3.484a21.489,21.489,0,0,0-5.293,3.914c1.421-2.926,3.011-5.769,4.669-8.512,6.129-10.148,13.35-19.865,16.839-31.342a39.787,39.787,0,0,0,1.467-18.355c-.158-.911-1.555-.573-1.4.337,1.97,11.365-2.491,22.6-8.05,32.3-2.663,4.644-5.625,9.133-8.46,13.69a50.163,50.163,0,0,0-2.922-30.352c-.366-.85-1.629-.165-1.266.679a48.571,48.571,0,0,1,1.811,33.138.647.647,0,0,0,.013.426,93.572,93.572,0,0,0-5.411,10.42,46.722,46.722,0,0,0-10.135-22.461c-.592-.714-1.641.269-1.052.979a45.08,45.08,0,0,1,10.1,24.171c-.078.206-.162.41-.239.619a42.618,42.618,0,0,0-2.792,18.791c.089.907,1.527.955,1.436.035a39.274,39.274,0,0,1,1.676-15.218.572.572,0,0,0,.417-.467,14.527,14.527,0,0,1,.844-2.716.547.547,0,0,0,.132-.3,18.353,18.353,0,0,1,8.553-8.641c4.9-2.485,10.483-3.114,15.9-3.18.922-.011.963-1.448.035-1.437" transform="translate(15.178 17.13)" fill="#b54364"/>
    <path id="Trazado_772847" data-name="Trazado 772847" d="M183.514,172.666a48.267,48.267,0,0,0-30.071,14.354c-.643.663.333,1.717.977,1.052A46.778,46.778,0,0,1,183.48,174.1c.909-.085.956-1.522.035-1.437" transform="translate(17.548 19.773)" fill="#b54364"/>
    <path id="Trazado_772848" data-name="Trazado 772848" d="M154.686,215.087a13.631,13.631,0,0,0,1.038,8.167c.425-.159.846-.312,1.275-.468l-.033-.095a32,32,0,0,0,5.778-30.74Q159.921,199.478,157.1,207a40.266,40.266,0,0,0-2.411,8.09" transform="translate(17.692 21.982)" fill="#2d728f"/>
    <path id="Trazado_772849" data-name="Trazado 772849" d="M185.445,177.5a42.17,42.17,0,0,0-2.649,31.346c.283-.24.557-.475.835-.717a37.529,37.529,0,0,0,1.814-30.629" transform="translate(20.721 20.327)" fill="#2d728f"/>
    <path id="Trazado_772850" data-name="Trazado 772850" d="M169.394,217.8c.251-.125.508-.247.757-.381A35.7,35.7,0,0,0,176.4,184.79a138.6,138.6,0,0,0-7.19,17.507c-1.586,5.149-2.529,10.863-.47,15.823.226-.1.44-.208.654-.315" transform="translate(19.189 21.162)" fill="#2d728f"/>
    <path id="Trazado_772851" data-name="Trazado 772851" d="M155.7,220.04c-.335.121-.676.241-1.014.368a7.075,7.075,0,0,0,1.492,3.6,16.3,16.3,0,0,0,3.669,3.284,63.223,63.223,0,0,0,16.693,8.459c-2.378-3.953-4.8-7.963-8.215-11.064s-8.019-5.2-12.585-4.57a.558.558,0,0,1-.04-.082" transform="translate(17.715 25.195)" fill="#2d728f"/>
    <path id="Trazado_772852" data-name="Trazado 772852" d="M169.446,214.812a20.495,20.495,0,0,0,27.25,2.812,38.557,38.557,0,0,0-27.25-2.812" transform="translate(19.405 24.451)" fill="#2d728f"/>
    <path id="Trazado_772853" data-name="Trazado 772853" d="M182.321,206.368c3.712,3.527,9.334,4.591,14.362,3.564,5.088-1.049,9.614-4,13.439-7.505a39.421,39.421,0,0,0-27.41,3.9c-.022-.075-.045-.149-.074-.227-.1.09-.206.183-.317.266" transform="translate(20.879 23.075)" fill="#2d728f"/>
    <path id="Trazado_772854" data-name="Trazado 772854" d="M189.434,202.255c.013.049.031.1.05.152a30.23,30.23,0,0,0,14.76-32.268,119.809,119.809,0,0,0-13.565,24.273c-1.031,2.5-1.993,5.273-1.245,7.843" transform="translate(21.663 19.484)" fill="#2d728f"/>
    <path id="Trazado_772855" data-name="Trazado 772855" d="M142.592,229.405q-.13-.983-.252-1.966c2.972-1.077,5.962-2.109,8.928-3.2a143.873,143.873,0,0,0,15.8-6.893,130.844,130.844,0,0,0,14.878-8.848,45.924,45.924,0,0,0,12.3-11.753c.7-1.033,2.169.235,1.477,1.26-3.626,5.373-8.752,9.5-14.1,13.06a144.08,144.08,0,0,1-30.823,15.41c-2.716.984-5.469,1.934-8.206,2.93" transform="translate(16.301 22.487)" fill="#2d728f"/>
    <path id="Trazado_772856" data-name="Trazado 772856" d="M111.449,20.4c-.028-.064-.139-.007-.133.062s.074.116.134.152c2.558,1.546,4.5,3.91,6.386,6.228" transform="translate(12.748 2.333)" fill="none" stroke="#efefef" stroke-miterlimit="10" stroke-width="1"/>
    <path id="Trazado_772857" data-name="Trazado 772857" d="M114.311,18.842a24.274,24.274,0,0,1,6.51,5.761" transform="translate(13.091 2.158)" fill="none" stroke="#efefef" stroke-miterlimit="10" stroke-width="1"/>
    <path id="Trazado_772858" data-name="Trazado 772858" d="M102.349,96.157c.222,3.505-2.2,6.609-4.771,9a38.178,38.178,0,0,1-6.9,5.122,29.768,29.768,0,0,1-13.167,4.129,95.6,95.6,0,0,0,16.22,2.035q1.911,3.616,4.036,7.105A157.435,157.435,0,0,0,80.4,128.845c-4.9,1.8-9.9,3.992-13.714,7.464q-.192-5.285-.556-10.551-.68-10.081-1.9-20.109a17.074,17.074,0,0,1-9.995-2.968c-2.949-2.206-4.823-6.1-3.891-9.662a5.573,5.573,0,0,1,.821-1.821,5.06,5.06,0,0,1,3.65-1.957,7.3,7.3,0,0,1,3.455.6,15.6,15.6,0,0,0,3.155-4.694,36.425,36.425,0,0,0,.658-29.293,32.784,32.784,0,0,1,7.559,3.488A33.886,33.886,0,0,1,78.7,67.454c4.147,1.061,8.56.873,12.859,1.24a.581.581,0,0,1,.65.795,44.846,44.846,0,0,1-1.924,8.192c4.224,4.232,8.166,8.857,10.765,14.252a11.616,11.616,0,0,1,1.3,4.224" transform="translate(5.738 6.396)" fill="#ffb888"/>
    <path id="Trazado_772859" data-name="Trazado 772859" d="M138.329,37.648a16.87,16.87,0,0,1-.179,9.123,16.7,16.7,0,0,1-3.044,5.813c-.12.146-.24.291-.368.428a17.081,17.081,0,0,1-13.612,5.738,6.71,6.71,0,0,1-2.805-.668,8.509,8.509,0,0,1-7.131,1.633,2.576,2.576,0,0,1-1.137-.495c-1.111-.958-.41-2.745-.59-4.2a4.745,4.745,0,0,0-2.933-3.446,38.322,38.322,0,0,0-4.514-1.385,17.764,17.764,0,0,1-9.9-8.652,26.041,26.041,0,0,1-2.762-8.816,36.048,36.048,0,0,1-.342-4.181c-.009-.488-.017-.975,0-1.471a30.151,30.151,0,0,1,1.59-9.739A26.593,26.593,0,0,1,107.651,1.25a30.328,30.328,0,0,1,23.487,2.7,35.193,35.193,0,0,1,15.33,18.024q.463-.1.924-.179c-9.277,3.48-9.063,15.852-9.063,15.852" transform="translate(10.192 0)" fill="#ffb888"/>
    <path id="Trazado_772860" data-name="Trazado 772860" d="M200.862,48.517a11.8,11.8,0,0,1,5.489.769,4.308,4.308,0,0,1,2.326,1.753,1.95,1.95,0,0,1-.564,2.608c4.36,1.3,7.4,5.19,9.746,9.1,2.548,4.257,4.669,9.045,4.369,14-.392,6.4-4.847,11.979-10.26,15.407-4.839,3.053-10.405,4.669-15.954,6.1-.666.179-1.334.342-2,.514q-5.759,1.461-11.517,2.916l.043.154c1.034.727,2.069,1.453,3.112,2.171.693.488,1.488,1.257,1.155,2.035-.454,1.078-2.343.6-2.976,1.582a8.542,8.542,0,0,1,3.062,2.018,2.913,2.913,0,0,1,.418,3.412c-.333.487-.872.846-1.034,1.419a2.487,2.487,0,0,0,.249,1.574,35.984,35.984,0,0,1,1.957,7.559,8.778,8.778,0,0,1-.042,3.659c-.564,2.018-2.317,3.454-3.968,4.753.719,1.42,1.634,2.736,2.361,4.147.2.377.385.77.547,1.164a6.56,6.56,0,0,1-.051,5.831c-.941,1.53-2.694,2.325-4.343,3.044-6.772,2.932-13.646,5.9-20.948,6.994-1.872.274-4.113.291-5.258-1.214a3.817,3.817,0,0,1-.3-3.651,10.259,10.259,0,0,1,2.213-3.1q1.334-1.436,2.736-2.787a15.364,15.364,0,0,0,3.7-3.351,1.156,1.156,0,0,0,.095-.137c.829-.718,1.684-1.419,2.548-2.1a.932.932,0,0,0,.393-.513.9.9,0,0,0-.214-.6c-.231-.351-.47-.7-.7-1.052a30.7,30.7,0,0,0,.983-6.122,103.61,103.61,0,0,0,.026-16.288,5,5,0,0,0-1.026-3.172,3.392,3.392,0,0,0-1.47-.838,402.28,402.28,0,0,0,4.36-48.693h.069c2.565-7.918,1.71-16.5.65-24.761a8.712,8.712,0,0,0-1.052-3.686,1,1,0,0,0-.606-.5c-.522-.094-.856.531-1,1.043a117.214,117.214,0,0,0-3.968,18.357,104.327,104.327,0,0,0,.9-17.04,13.871,13.871,0,0,0-1.5-6.259,11.675,11.675,0,0,0-2.514,5.088c-.068-1.984-.24-4.113-1.462-5.677a.959.959,0,0,0-.5-.386c-.359-.068-.668.249-.88.539a12.238,12.238,0,0,0-1.925,3.975,5.4,5.4,0,0,0-.786-2.121.931.931,0,0,0-.6-.495c-.368-.051-.668.29-.864.606a19.659,19.659,0,0,0-2.727,6.439c3.582,7.422,6.686,15.193,7.686,23.368a20.193,20.193,0,0,1-.513,8.857c-1.137,3.36-3.591,6.037-6.164,8.516-.428.419-.864.829-1.3,1.24q-3.335,3.116-6.66,6.25a3.252,3.252,0,0,0-.83,1.018c-.315.734-.077,1.649-.487,2.334a1.892,1.892,0,0,1-2.129.675,5.514,5.514,0,0,1-2.018-1.265c-.077-.069-.154-.128-.231-.2-3.078-2.616-6.173-5.3-8.421-8.627-.274-.4-.531-.811-.778-1.23a2.542,2.542,0,0,1-.479-1.9,1.244,1.244,0,0,1,.273-.514,3.592,3.592,0,0,1,2.489-.889,3.975,3.975,0,0,1,2.429-6.3,1.208,1.208,0,0,0,1.239-1.224,6.769,6.769,0,0,1,1.616-2.846c.086-.086.171-.172.256-.256a6.735,6.735,0,0,1,3.062-1.667c-2.89-4.857-5.849-9.944-6.815-15.451a16.869,16.869,0,0,0,.179-9.123s-.213-12.371,9.063-15.852a36.562,36.562,0,0,1,15.621.821,84.353,84.353,0,0,1,15.827,6.181,88.406,88.406,0,0,1,15.561,9.14,38.6,38.6,0,0,1,11.038,12.766" transform="translate(14.77 2.188)" fill="#a1b5bf"/>
    <path id="Trazado_772861" data-name="Trazado 772861" d="M198.706,108.538a3,3,0,0,1-1.351,3.121,8.735,8.735,0,0,1-3.412,1.162,27.686,27.686,0,0,1,1.8,9.235,4.711,4.711,0,0,1-.384,2.334,4.863,4.863,0,0,1-3.053,1.993,37.018,37.018,0,0,1-10.97,1.642c-.727-1.411-1.642-2.728-2.359-4.147,1.649-1.3,3.4-2.736,3.968-4.755a8.8,8.8,0,0,0,.042-3.659,36.008,36.008,0,0,0-1.958-7.559,2.481,2.481,0,0,1-.247-1.573c.162-.573.7-.932,1.034-1.42a2.915,2.915,0,0,0-.419-3.412,8.55,8.55,0,0,0-3.06-2.017c.632-.984,2.522-.5,2.975-1.583.333-.778-.461-1.547-1.154-2.034q-1.565-1.078-3.113-2.172L177,93.541q5.758-1.463,11.516-2.916c.668-.172,1.334-.333,2-.513a37.821,37.821,0,0,0,4.215,4.856,11.9,11.9,0,0,1,3.223,5.575c.4,2.138-.4,4.625-2.343,5.609,1.274.461,2.711,1.086,3.1,2.385" transform="translate(20.269 10.32)" fill="#a1b5bf"/>
    <path id="Trazado_772862" data-name="Trazado 772862" d="M168.356,58.882a402.017,402.017,0,0,1-4.361,48.693,10.128,10.128,0,0,0-1.23-.308q-9.12-1.871-18.349-3.19,3.681-14.531,6.173-29.325c2.575-2.48,5.028-5.156,6.166-8.516a20.234,20.234,0,0,0,.513-8.858c-1-8.174-4.1-15.947-7.687-23.368a19.684,19.684,0,0,1,2.727-6.439c.2-.317.5-.658.864-.607a.932.932,0,0,1,.6.5,5.4,5.4,0,0,1,.787,2.119,12.263,12.263,0,0,1,1.924-3.974c.214-.291.522-.609.88-.538a.958.958,0,0,1,.5.385c1.223,1.564,1.393,3.694,1.462,5.677a11.671,11.671,0,0,1,2.513-5.089,13.881,13.881,0,0,1,1.5,6.259,104.2,104.2,0,0,1-.9,17.04,116.977,116.977,0,0,1,3.968-18.356c.145-.514.478-1.137,1-1.042a.994.994,0,0,1,.607.495,8.686,8.686,0,0,1,1.051,3.685c1.061,8.26,1.916,16.845-.65,24.761Z" transform="translate(16.538 2.87)" fill="#ffb888"/>
    <path id="Trazado_772863" data-name="Trazado 772863" d="M96.8,118.986a160.68,160.68,0,0,1,34.064-4.591c1.239-.033,2.659-.128,3.445-1.086.684-.82.668-2.018,1.138-2.977a3.357,3.357,0,0,1,4.993-1.033,5.1,5.1,0,0,1,7.892-6.072c.7-1.487-1.214-2.94-1.334-4.573-.188-2.549,3.463-3.2,5.985-2.848l1.266.179q9.222,1.321,18.348,3.19a10.632,10.632,0,0,1,1.232.307,3.4,3.4,0,0,1,1.47.839,5,5,0,0,1,1.026,3.172,103.606,103.606,0,0,1-.026,16.288,30.688,30.688,0,0,1-.983,6.121,13.346,13.346,0,0,1-2.027,4.269c-1.3,1.118-2.564,2.274-3.8,3.487-.948.642-1.949,1.232-2.932,1.8q-13.735,7.991-27.763,15.416c1.2,1.488,2.394,2.966,3.591,4.454,4.284,5.318,8.807,11.329,8.4,18.143-.308,5.139-3.352,9.508-6.892,13.407,11.013,19.29,22.034,38.861,28.088,60.2H72.477a147.647,147.647,0,0,1,4.266-17.629,3.213,3.213,0,0,1-.547-6.371,2.373,2.373,0,0,0,.591-.067,2.808,2.808,0,0,0-.591.067,3.3,3.3,0,0,1-2.839-4.052,4.092,4.092,0,0,1,5.19-2.352,143.481,143.481,0,0,1-19.589-58.431c-.846-7.986-.837-16.7,3.823-23.232a20.227,20.227,0,0,1,2.941-3.273c3.813-3.473,8.815-5.661,13.714-7.465A157.912,157.912,0,0,1,96.8,118.986" transform="translate(6.703 10.962)" fill="#eaaaa7"/>
    <path id="Trazado_772864" data-name="Trazado 772864" d="M137.075,58.938a.275.275,0,0,1-.325-.026,27.689,27.689,0,0,1-6.712-10.7c.128-.137.249-.282.368-.427a16.7,16.7,0,0,0,3.044-5.814c.966,5.506,3.924,10.594,6.815,15.449a6.736,6.736,0,0,0-3.062,1.667Z" transform="translate(14.892 4.806)" fill="#a1b5bf"/>
    <path id="Trazado_772865" data-name="Trazado 772865" d="M126.609,63.976c-.24-.8-.247-1.8.479-2.154.632-.308,1.351.128,1.915.547-.342-.992-.6-2.275.223-2.924a2.5,2.5,0,0,1,1.077-.4c2.352-.495,4.711-.991,7.054-1.487A6.768,6.768,0,0,0,135.74,60.4a1.206,1.206,0,0,1-1.239,1.223,3.976,3.976,0,0,0-2.429,6.3,3.589,3.589,0,0,0-2.488.889l-.291-.171a13.26,13.26,0,0,1-2.625-4.473,1.263,1.263,0,0,1-.06-.2" transform="translate(14.482 6.591)" fill="#a1b5bf"/>
    <path id="Trazado_772866" data-name="Trazado 772866" d="M139.876,79.553a6.56,6.56,0,0,1-2.112,3.975,12.787,12.787,0,0,1-4.779,2.582,27.274,27.274,0,0,1-5.952,1.232,25.407,25.407,0,0,1-2.864,3.745.993.993,0,0,1-.778.436c-.445-.033-.624-.59-.666-1.043a9.613,9.613,0,0,1,.923-5.07,33.028,33.028,0,0,1-3.505,1.821,12.084,12.084,0,0,1,3.48-7.815c-1.179.291-2.351.591-3.531.889a1.5,1.5,0,0,1-.864.035.961.961,0,0,1-.461-1.146,2.626,2.626,0,0,1,.752-1.1c.171-.171.342-.333.513-.5a28.173,28.173,0,0,1,11.423-6.661c2.249,3.327,5.344,6.011,8.422,8.627" transform="translate(13.596 8.122)" fill="#ffb888"/>
    <path id="Trazado_772867" data-name="Trazado 772867" d="M120.373,78.381a.788.788,0,0,1-1.146-.094,1.96,1.96,0,0,1-.188-1.48,16.611,16.611,0,0,1,.693-2.855,10.614,10.614,0,0,1-3.344,1.684.909.909,0,0,1-.582.026c-.324-.154-.342-.606-.273-.965.47-2.291,2.42-3.933,4.25-5.4a5.534,5.534,0,0,0-2.575-.137c-.872.026-1.915-.3-2.111-1.146-.232-1,.872-1.761,1.812-2.154a34.126,34.126,0,0,1,11-2.548,1.441,1.441,0,0,0,.06.2,13.274,13.274,0,0,0,2.625,4.471l.291.172a1.24,1.24,0,0,0-.273.513,2.541,2.541,0,0,0,.478,1.9c.249.419.5.829.778,1.232a28.17,28.17,0,0,0-11.423,6.66Z" transform="translate(13.177 7.251)" fill="#ffb888"/>
    <path id="Trazado_772868" data-name="Trazado 772868" d="M122.122,43.207a4.46,4.46,0,0,0-.894-.958,3.431,3.431,0,0,0-2.345-.843,2.047,2.047,0,0,0-1.792,1.37c-.368,1-.016,2.087,0,3.115,0,.108-.008.216-.01.324-.134.447-.293.893-.422,1.34a.032.032,0,0,0-.009.026,6.91,6.91,0,0,0-.308,1.42,2.3,2.3,0,0,0,.547,1.906,2.4,2.4,0,0,0,2.275.317,5.534,5.534,0,0,0,3.822-3.6,4.837,4.837,0,0,0-.868-4.417" transform="translate(13.322 4.741)" fill="#fff"/>
    <path id="Trazado_772869" data-name="Trazado 772869" d="M89.3,51.842a21.676,21.676,0,0,1-2.42-6.627,12.168,12.168,0,0,1-.128-4.343,4.144,4.144,0,0,1,.65-1.693,2.034,2.034,0,0,1,1.539-.872,2.806,2.806,0,0,1,1.778.829,15.281,15.281,0,0,1,3.669,5.454,68.8,68.8,0,0,1,2.581,7.328q2.078,6.644,4.156,13.3c-7.174-.846-14.424-1.931-20.811-5.266a14.2,14.2,0,0,1-4.129-2.992,2.67,2.67,0,0,1-.761-1.369,2.1,2.1,0,0,1,.727-1.77,5.139,5.139,0,0,1,1.728-.966A20.61,20.61,0,0,1,89.3,51.842" transform="translate(8.636 4.387)" fill="#e2798a"/>
    <path id="Trazado_772870" data-name="Trazado 772870" d="M87.863,104.689q1.436,3.13,3.053,6.164a95.575,95.575,0,0,1-16.22-2.035,29.762,29.762,0,0,0,13.167-4.129" transform="translate(8.554 11.989)" fill="#34323f"/>
    <path id="Trazado_772871" data-name="Trazado 772871" d="M71.046,83.738A5.25,5.25,0,1,1,65.8,88.987a5.25,5.25,0,0,1,5.249-5.249" transform="translate(7.535 9.59)" fill="#ffa08a"/>
    <path id="Trazado_772872" data-name="Trazado 772872" d="M73.683,55.991a23.182,23.182,0,0,0,.408-6.8c-.194-2.15-.522-5-2.816-5.928s-4.571.465-6.228,1.949a75.3,75.3,0,0,1-6.158,5.2c-.714.515-1.446,1-2.186,1.481-2.636.612-5.3,1.181-7.855,1.989A38.823,38.823,0,0,0,25.156,74.6a34.522,34.522,0,0,0-.641,26.359c.2.5.41,1,.641,1.5a29.342,29.342,0,0,0,1.736,3.274,23.167,23.167,0,0,0,6.045,6.746,24.926,24.926,0,0,0,5.361,2.848,39.082,39.082,0,0,0,8.934,2.394c4.173.6,8.465.522,12.518,1.651s8.046,3.829,9.131,7.9l.445-.035q-.68-10.081-1.9-20.109a17.081,17.081,0,0,1-10-2.967c-2.95-2.207-4.823-6.1-3.891-9.662a5.563,5.563,0,0,1,.821-1.821,5.055,5.055,0,0,1,3.65-1.958,7.312,7.312,0,0,1,3.455.6,15.583,15.583,0,0,0,3.155-4.694,36.429,36.429,0,0,0,.658-29.293,32.784,32.784,0,0,1,7.559,3.488,17.093,17.093,0,0,0,.843-4.824m-2.689-9.207c-.752-.308-1.565.205-2.24.65a31.061,31.061,0,0,1-9.69,3.9,51.794,51.794,0,0,0,4.648-3.711c1.655-1.489,3.355-3.611,5.748-3.769a2.919,2.919,0,0,1,2.794,1.325,8.363,8.363,0,0,1,.922,3.425,22.387,22.387,0,0,1,.14,3.311,16.891,16.891,0,0,0-1.3-3.94,2.222,2.222,0,0,0-1.018-1.188" transform="translate(2.543 4.921)" fill="#34323f"/>
    <path id="Trazado_772873" data-name="Trazado 772873" d="M60.2,164.1a20.728,20.728,0,0,0-5.11-6.865c-2.513-2.2-5.559-3.5-8.5-5-2.819-1.429-5.706-3.2-7.267-6.057-1.61-2.948-1.492-6.49-1.1-9.724.214-1.784.518-3.584.687-5.386.75-2.839,1.148-5.654.242-8.359-1.316-3.916-5.011-6.439-8.32-8.893s-6.737-5.608-7-9.73A8.877,8.877,0,0,1,27.7,96.5c-.231-.5-.445-.992-.641-1.5a24.067,24.067,0,0,0-7.5,3.254,15.279,15.279,0,0,0-8.52,14.07,13.98,13.98,0,0,0,.992,4.681c.7,1.788,1.651,3.464,2.376,5.242a11.107,11.107,0,0,1,.919,5.614,13.737,13.737,0,0,1-2.11,5.491c-2.2,3.513-5.456,6.17-8.033,9.379a23.1,23.1,0,0,0-4.9,10.345,17.274,17.274,0,0,0,1.4,10.592c1.677,3.41,4.6,5.694,7.889,7.448s6.923,3.1,9.8,5.566c.259.222.508.459.751.7,0,.565-.014,1.13-.012,1.687a33.017,33.017,0,0,0,1.633,10.15,15.754,15.754,0,0,0,4.839,7.72,14.412,14.412,0,0,0,9.543,2.54,24.09,24.09,0,0,0,19.088-11.49,21.112,21.112,0,0,0,5.331-7.377A20.225,20.225,0,0,0,60.2,164.1m-45.339,8.7c-3.348-1.714-6.988-3.128-9.726-5.8a14.854,14.854,0,0,1-4.264-9.866,19.663,19.663,0,0,1,2.976-11.016c2.134-3.561,5.274-6.273,7.935-9.411,2.412-2.843,4.523-6.336,4.473-10.187-.051-3.877-2.518-7.035-3.707-10.586a13.264,13.264,0,0,1-.311-7.072,12.834,12.834,0,0,0,.178,5.663c1.4,5.216,6.217,9.457,6,14.852-.111,2.727-1.539,5.224-3.1,7.473-2.976,4.283-6.618,8.183-8.636,13S4.742,160.879,8.6,164.393c3.214,2.933,8.49,3.54,10.559,7.37a9.666,9.666,0,0,1,.954,4.436,25.775,25.775,0,0,0-5.254-3.4m41.7,12.6a24.025,24.025,0,0,0-3.206-24.095,40.854,40.854,0,0,0-9.045-7.815c-2.857-1.975-5.935-4.036-7.286-7.233-1.368-3.242-.645-6.693.388-10.188a20.6,20.6,0,0,0,.281,8.383,12.534,12.534,0,0,0,5.427,6.791c2.764,1.833,5.916,2.959,8.743,4.682a19.372,19.372,0,0,1,6.135,5.959,19.693,19.693,0,0,1,2.625,15.983,20.1,20.1,0,0,1-4.061,7.532" transform="translate(0 10.879)" fill="#34323f"/>
    <path id="Trazado_772874" data-name="Trazado 772874" d="M131.884,145.167,110.215,156.5c-.488.254-.057.993.431.738l21.668-11.328c.488-.254.057-.993-.431-.738" transform="translate(12.597 16.618)" fill="#34323f"/>
    <path id="Trazado_772875" data-name="Trazado 772875" d="M138.449,116.44q-3.864-2.722-7.726-5.442c-.45-.318-.878.422-.431.738l7.726,5.442c.45.318.878-.424.431-.738" transform="translate(14.899 12.702)" fill="#34323f"/>
    <path id="Trazado_772876" data-name="Trazado 772876" d="M139.73,113.893l-3.786-6.744a.428.428,0,0,0-.739.431l3.787,6.744a.428.428,0,0,0,.738-.431" transform="translate(15.477 12.247)" fill="#34323f"/>
    <path id="Trazado_772877" data-name="Trazado 772877" d="M190.539,89.83l-13.606,3.413a.369.369,0,0,0-.279.26.472.472,0,0,0,.369.652c1.79.211,4.245.573,4.788,2.647.508,1.944-1.742,2.693-3.186,3.067-.383.1-.431.759,0,.825a4.3,4.3,0,0,1,3.675,2.578,2.276,2.276,0,0,1-1.963,3.141.432.432,0,0,0-.37.643c1.666,2.88,3.447,5.965,3.365,9.4a7.723,7.723,0,0,1-4.41,6.8.432.432,0,0,0-.154.585l2.462,4.242a.428.428,0,0,0,.738-.431l-2.244-3.866a8.551,8.551,0,0,0,4.446-6.953c.226-3.5-1.443-6.7-3.14-9.653a3.167,3.167,0,0,0,2.216-3.668,4.473,4.473,0,0,0-3.011-3.28c1.495-.616,2.821-1.674,2.436-3.516-.393-1.888-2.02-2.7-3.729-3.1l11.825-2.966a.428.428,0,0,0-.227-.825" transform="translate(20.226 10.285)" fill="#34323f"/>
    <path id="Trazado_772878" data-name="Trazado 772878" d="M140.552,57.24a67.114,67.114,0,0,1-6.7-15.092.428.428,0,0,0-.825.227,68.092,68.092,0,0,0,6.493,14.782,6.563,6.563,0,0,0-4.966,6.49A3.871,3.871,0,0,0,131,69.5a3.842,3.842,0,0,0-2.365,1.379c-.341.425.261,1.033.605.6a3.064,3.064,0,0,1,2.512-1.187.433.433,0,0,0,.3-.73,3.069,3.069,0,0,1,2.83-5.042c.246.039.57-.108.541-.412a5.732,5.732,0,0,1,4.873-6.239.43.43,0,0,0,.255-.627" transform="translate(14.719 4.793)" fill="#34323f"/>
    <path id="Trazado_772879" data-name="Trazado 772879" d="M190.265,45.945l-4.83,8.463a.428.428,0,0,0,.739.431L191,46.377a.428.428,0,0,0-.738-.431" transform="translate(21.229 5.238)" fill="#34323f"/>
    <path id="Trazado_772880" data-name="Trazado 772880" d="M195.447,48.838a.438.438,0,0,0-.605,0q-3.282,2.536-6.565,5.073a.428.428,0,0,0,0,.6.437.437,0,0,0,.6,0l6.566-5.073a.43.43,0,0,0,0-.6" transform="translate(21.547 5.579)" fill="#34323f"/>
    <path id="Trazado_772881" data-name="Trazado 772881" d="M57.2,43.133a19.394,19.394,0,0,1-5.853,7.5c-.429.331,0,1.074.431.739a20.237,20.237,0,0,0,6.16-7.812c.221-.5-.515-.934-.738-.431" transform="translate(5.86 4.914)" fill="#34323f"/>
    <path id="Trazado_772882" data-name="Trazado 772882" d="M51.579,43.142a15.26,15.26,0,0,1-1.476,6.8c-.236.494.5.928.738.431a16.187,16.187,0,0,0,1.592-7.229.427.427,0,0,0-.854,0" transform="translate(5.733 4.893)" fill="#34323f"/>
    <path id="Trazado_772883" data-name="Trazado 772883" d="M22.4,93.885a22.758,22.758,0,0,0-12.518,7.649c-.349.42.253,1.029.605.6a22,22,0,0,1,12.14-7.428c.537-.119.31-.944-.227-.825" transform="translate(1.119 10.75)" fill="#34323f"/>
    <path id="Trazado_772884" data-name="Trazado 772884" d="M22.394,92.69A22.7,22.7,0,0,0,9.089,93.3c-.514.185-.292,1.011.227.825a21.888,21.888,0,0,1,12.85-.614.428.428,0,0,0,.227-.825" transform="translate(1.007 10.533)" fill="#34323f"/>
    <path id="Trazado_772885" data-name="Trazado 772885" d="M24.517,98.588a12.608,12.608,0,0,0-2.2,6.753c-.017.549.838.549.855,0a11.785,11.785,0,0,1,2.083-6.322c.313-.454-.427-.883-.738-.431" transform="translate(2.556 11.268)" fill="#34323f"/>
    <path id="Trazado_772886" data-name="Trazado 772886" d="M26.208,106.227a6.863,6.863,0,0,1-.261-4.649.427.427,0,0,0-.824-.227,7.606,7.606,0,0,0,.26,5.1.443.443,0,0,0,.526.3.43.43,0,0,0,.3-.526" transform="translate(2.84 11.572)" fill="#34323f"/>
    <path id="Trazado_772887" data-name="Trazado 772887" d="M44.743,155.485c-2.536-2.67-5.891-4.274-8.845-6.4a15.777,15.777,0,0,1-3.887-3.808,13.827,13.827,0,0,1-2.105-4.955,13.472,13.472,0,0,1,.117-6.071.428.428,0,0,0-.825-.227,14.62,14.62,0,0,0,1.464,10.706c1.9,3.349,5.117,5.371,8.281,7.377a26.625,26.625,0,0,1,5.195,3.987c.38.4.984-.205.605-.6" transform="translate(3.294 15.313)" fill="#fff"/>
    <path id="Trazado_772888" data-name="Trazado 772888" d="M45.373,156.3c-.321-.44-1.063-.013-.738.431a16.8,16.8,0,0,1,2.977,7c.1.542.919.312.825-.228a17.369,17.369,0,0,0-3.064-7.2" transform="translate(5.102 17.878)" fill="#fff"/>
    <path id="Trazado_772889" data-name="Trazado 772889" d="M43.708,157.9l-2.492-3.8c-.3-.459-1.041-.031-.738.431l2.492,3.8c.3.459,1.041.031.738-.431" transform="translate(4.627 17.624)" fill="#fff"/>
    <path id="Trazado_772890" data-name="Trazado 772890" d="M10.61,155a10.77,10.77,0,0,1-.3-11.882c.3-.465-.441-.894-.738-.431a11.607,11.607,0,0,0,.3,12.745c.315.445,1.058.019.738-.431" transform="translate(0.895 16.317)" fill="#fff"/>
    <path id="Trazado_772891" data-name="Trazado 772891" d="M13.65,153.606a5.128,5.128,0,0,1-1.7-3.725.428.428,0,0,0-.855,0,5.983,5.983,0,0,0,1.949,4.329c.407.368,1.014-.234.6-.6" transform="translate(1.271 17.117)" fill="#fff"/>
    <path id="Trazado_772892" data-name="Trazado 772892" d="M60.007,60.077c-.095-.541-.918-.312-.825.227a46.758,46.758,0,0,1-1.9,23.309c-.181.522.645.746.825.227a47.639,47.639,0,0,0,1.9-23.764" transform="translate(6.557 6.845)" fill="#fff"/>
    <path id="Trazado_772893" data-name="Trazado 772893" d="M58.082,67.772A59.982,59.982,0,0,1,53.91,80.6c-.226.5.51.932.739.431A60.964,60.964,0,0,0,58.907,68c.11-.537-.714-.767-.825-.227" transform="translate(6.169 7.726)" fill="#fff"/>
    <path id="Trazado_772894" data-name="Trazado 772894" d="M35.771,81.913a2.262,2.262,0,0,0-2.964-.286,9.33,9.33,0,0,0-2.678,2.756,20.945,20.945,0,0,0-2.065,3.5,21.657,21.657,0,0,0-1.823,6.2q-1.023-4.012-2.433-7.911Q22.877,83.6,21.783,81.1q-.555-1.271-1.151-2.524a7.305,7.305,0,0,0-1.211-2.023,2.074,2.074,0,0,0-3.325.125c-.69,1.144-.381,2.659-.169,3.891A29.664,29.664,0,0,0,25.235,97.43a10.68,10.68,0,0,0-3.4,4.477,2.855,2.855,0,0,0-.337,1.614.92.92,0,0,0,1.239.621c.545-.2.917-.785,1.257-1.224a16.362,16.362,0,0,0,1.071-1.559,16.5,16.5,0,0,0,1.646-3.731,16.219,16.219,0,0,1,6.056,8.536.428.428,0,0,0,.825-.227,17.147,17.147,0,0,0-6.353-8.976A26.988,26.988,0,0,0,32.4,91.744,26.374,26.374,0,0,0,34.525,88.4a18.629,18.629,0,0,0,1.518-3.453,3.347,3.347,0,0,0-.272-3.034m-18.517.763a17.827,17.827,0,0,1-.717-4.09,2.383,2.383,0,0,1,.451-1.683c.567-.581,1.425-.193,1.886.319a8.216,8.216,0,0,1,1.146,2.053q.528,1.12,1.024,2.257,1.006,2.31,1.87,4.681a85.178,85.178,0,0,1,3.113,10.66c-.026.017-.05.035-.076.05a28.99,28.99,0,0,1-8.7-14.247m5.819,20.03a4.338,4.338,0,0,1-.464.526c-.127.109-.259.2-.291,0a1.547,1.547,0,0,1,.158-.623c.077-.222.159-.441.253-.656a9.808,9.808,0,0,1,1.461-2.366,10,10,0,0,1,1.4-1.356,15.281,15.281,0,0,1-2.518,4.474m12.1-17.851a22.2,22.2,0,0,1-3.211,6.04,25.682,25.682,0,0,1-5.041,5.229,20.572,20.572,0,0,1,4.982-12.606c.631-.719,1.926-1.979,2.965-1.283.825.554.554,1.836.305,2.62" transform="translate(1.795 8.678)" fill="#e2798a"/>
    <path id="Trazado_772895" data-name="Trazado 772895" d="M149.635,105.913a2.138,2.138,0,0,0-.549-.943l-.432-.334a2.124,2.124,0,0,0-1.079-.292h-.318a2.2,2.2,0,0,0-2.138,2.138l.077.568a2.127,2.127,0,0,0,.549.943l.432.334a2.132,2.132,0,0,0,1.079.292h.318a2.2,2.2,0,0,0,2.137-2.138c-.025-.189-.05-.379-.076-.568" transform="translate(16.619 11.949)" fill="#e2798a"/>
    <path id="Trazado_772896" data-name="Trazado 772896" d="M146.965,122.827c-2.751,0-2.755,4.275,0,4.275s2.755-4.275,0-4.275" transform="translate(16.594 14.066)" fill="#e2798a"/>
    <path id="Trazado_772897" data-name="Trazado 772897" d="M159.192,115.433c-2.751,0-2.755,4.275,0,4.275s2.755-4.275,0-4.275" transform="translate(17.994 13.219)" fill="#e2798a"/>
    <path id="Trazado_772898" data-name="Trazado 772898" d="M133.884,123.111c-2.751,0-2.755,4.275,0,4.275s2.755-4.275,0-4.275" transform="translate(15.096 14.099)" fill="#e2798a"/>
    <path id="Trazado_772899" data-name="Trazado 772899" d="M118.64,119.562a2.127,2.127,0,0,0-.549-.943l-.432-.334a2.124,2.124,0,0,0-1.079-.292h-.318a2.372,2.372,0,0,0-1.511.626,2.388,2.388,0,0,0-.626,1.511l.077.568a2.127,2.127,0,0,0,.549.943l.432.334a2.133,2.133,0,0,0,1.079.292h.318a2.2,2.2,0,0,0,2.138-2.138l-.077-.568" transform="translate(13.069 13.512)" fill="#e2798a"/>
    <path id="Trazado_772900" data-name="Trazado 772900" d="M94.928,123.4c-2.751,0-2.755,4.275,0,4.275s2.755-4.275,0-4.275" transform="translate(10.635 14.131)" fill="#e2798a"/>
    <path id="Trazado_772901" data-name="Trazado 772901" d="M76.7,135.8a1.583,1.583,0,0,0-.442-.688,2.372,2.372,0,0,0-1.511-.626l-.568.077a2.133,2.133,0,0,0-.943.549l-.334.432a2.144,2.144,0,0,0-.292,1.079v.634a2.2,2.2,0,0,0,2.138,2.138l.568-.077a2.137,2.137,0,0,0,.943-.549l.334-.432a2.124,2.124,0,0,0,.292-1.079v-.634a1.611,1.611,0,0,0-.184-.824" transform="translate(8.315 15.401)" fill="#e2798a"/>
    <path id="Trazado_772902" data-name="Trazado 772902" d="M77.582,160.077c-2.751,0-2.755,4.275,0,4.275s2.755-4.275,0-4.275" transform="translate(8.648 18.332)" fill="#e2798a"/>
    <path id="Trazado_772903" data-name="Trazado 772903" d="M93.506,141.878c-2.751,0-2.755,4.275,0,4.275s2.755-4.275,0-4.275" transform="translate(10.472 16.248)" fill="#e2798a"/>
    <path id="Trazado_772904" data-name="Trazado 772904" d="M119.667,130.22c-2.751,0-2.755,4.275,0,4.275s2.755-4.275,0-4.275" transform="translate(13.468 14.913)" fill="#e2798a"/>
    <path id="Trazado_772905" data-name="Trazado 772905" d="M109.714,146.428c-2.751,0-2.755,4.275,0,4.275s2.755-4.275,0-4.275" transform="translate(12.328 16.769)" fill="#e2798a"/>
    <path id="Trazado_772906" data-name="Trazado 772906" d="M98.625,161.783c-2.751,0-2.755,4.275,0,4.275s2.755-4.275,0-4.275" transform="translate(11.058 18.527)" fill="#e2798a"/>
    <path id="Trazado_772907" data-name="Trazado 772907" d="M76.556,148.281a2.127,2.127,0,0,0-.549-.943L75.574,147a2.125,2.125,0,0,0-1.079-.292h-.318a2.372,2.372,0,0,0-1.511.626,2.388,2.388,0,0,0-.626,1.511l.077.568a2.127,2.127,0,0,0,.549.943l.432.334a2.132,2.132,0,0,0,1.079.292H74.5a2.2,2.2,0,0,0,2.138-2.138l-.077-.568" transform="translate(8.25 16.801)" fill="#e2798a"/>
    <path id="Trazado_772908" data-name="Trazado 772908" d="M68.767,173.726c-2.751,0-2.755,4.275,0,4.275s2.755-4.275,0-4.275" transform="translate(7.639 19.895)" fill="#e2798a"/>
    <path id="Trazado_772909" data-name="Trazado 772909" d="M89.525,176.57c-2.751,0-2.755,4.275,0,4.275s2.755-4.275,0-4.275" transform="translate(10.016 20.221)" fill="#e2798a"/>
    <path id="Trazado_772910" data-name="Trazado 772910" d="M83.192,193.319l-.321-.632a2.2,2.2,0,0,0-2.924-.767l-.432.334a2.127,2.127,0,0,0-.549.943l-.077.568a2.133,2.133,0,0,0,.292,1.079l.321.632a2.39,2.39,0,0,0,1.277.982,1.621,1.621,0,0,0,.853.039,1.6,1.6,0,0,0,.795-.254l.432-.334a2.127,2.127,0,0,0,.549-.943l.077-.568a2.121,2.121,0,0,0-.292-1.079" transform="translate(9.034 21.945)" fill="#e2798a"/>
    <path id="Trazado_772911" data-name="Trazado 772911" d="M95.781,199.033c-2.751,0-2.755,4.275,0,4.275s2.755-4.275,0-4.275" transform="translate(10.732 22.793)" fill="#e2798a"/>
    <path id="Trazado_772912" data-name="Trazado 772912" d="M104.085,187.494a2.39,2.39,0,0,0-.982-1.277l-.512-.216a2.157,2.157,0,0,0-1.136,0l-.51.216a2.134,2.134,0,0,0-.767.767l-.331.626a1.6,1.6,0,0,0-.253.795,2.192,2.192,0,0,0,1.021,2.13l.51.216a2.158,2.158,0,0,0,1.136,0l.512-.216a2.142,2.142,0,0,0,.767-.767c.109-.208.22-.418.33-.626a1.586,1.586,0,0,0,.253-.795,1.62,1.62,0,0,0-.038-.853" transform="translate(11.401 21.292)" fill="#e2798a"/>
    <path id="Trazado_772913" data-name="Trazado 772913" d="M114.552,167.362a1.593,1.593,0,0,0-.442-.688l-.432-.334a2.122,2.122,0,0,0-1.079-.292l-.568.077a2.133,2.133,0,0,0-.943.549l-.317.317a2.2,2.2,0,0,0,0,3.023l.432.334a2.121,2.121,0,0,0,1.079.292l.568-.076a2.129,2.129,0,0,0,.943-.551c.106-.1.212-.211.317-.317a2.067,2.067,0,0,0,.442-2.335" transform="translate(12.613 19.016)" fill="#e2798a"/>
    <path id="Trazado_772914" data-name="Trazado 772914" d="M130.756,153.252c-2.751,0-2.755,4.276,0,4.276s2.755-4.276,0-4.276" transform="translate(14.738 17.55)" fill="#e2798a"/>
    <path id="Trazado_772915" data-name="Trazado 772915" d="M134.169,163.489c-2.751,0-2.755,4.275,0,4.275s2.755-4.275,0-4.275" transform="translate(15.128 18.723)" fill="#e2798a"/>
    <path id="Trazado_772916" data-name="Trazado 772916" d="M123.648,174.295c-2.751,0-2.755,4.275,0,4.275s2.755-4.275,0-4.275" transform="translate(13.924 19.96)" fill="#e2798a"/>
    <path id="Trazado_772917" data-name="Trazado 772917" d="M114.833,183.394c-2.751,0-2.755,4.275,0,4.275s2.755-4.275,0-4.275" transform="translate(12.914 21.002)" fill="#e2798a"/>
    <path id="Trazado_772918" data-name="Trazado 772918" d="M131.325,185.1c-2.751,0-2.755,4.275,0,4.275s2.755-4.275,0-4.275" transform="translate(14.803 21.197)" fill="#e2798a"/>
    <path id="Trazado_772919" data-name="Trazado 772919" d="M121.657,196.759c-2.751,0-2.755,4.275,0,4.275s2.755-4.275,0-4.275" transform="translate(13.696 22.533)" fill="#e2798a"/>
    <path id="Trazado_772920" data-name="Trazado 772920" d="M107.724,201.877c-2.751,0-2.755,4.275,0,4.275s2.755-4.275,0-4.275" transform="translate(12.1 23.119)" fill="#e2798a"/>
    <path id="Trazado_772921" data-name="Trazado 772921" d="M105.733,215.242c-2.751,0-2.755,4.275,0,4.275s2.755-4.275,0-4.275" transform="translate(11.872 24.649)" fill="#e2798a"/>
    <path id="Trazado_772922" data-name="Trazado 772922" d="M92.369,208.986c-2.751,0-2.755,4.275,0,4.275s2.755-4.275,0-4.275" transform="translate(10.342 23.933)" fill="#e2798a"/>
    <path id="Trazado_772923" data-name="Trazado 772923" d="M82.7,206.995c-2.751,0-2.755,4.275,0,4.275s2.755-4.275,0-4.275" transform="translate(9.234 23.705)" fill="#e2798a"/>
    <path id="Trazado_772924" data-name="Trazado 772924" d="M83.949,222.5a2.138,2.138,0,0,0-.549-.943l-.432-.334a2.124,2.124,0,0,0-1.079-.292h-.318a2.372,2.372,0,0,0-1.511.626,2.388,2.388,0,0,0-.626,1.511l.077.568a2.127,2.127,0,0,0,.549.943l.432.334a2.133,2.133,0,0,0,1.079.292h.318a2.2,2.2,0,0,0,2.137-2.138q-.037-.284-.076-.568" transform="translate(9.096 25.3)" fill="#e2798a"/>
    <path id="Trazado_772925" data-name="Trazado 772925" d="M99.3,226.194a2.137,2.137,0,0,0-.549-.943l-.432-.334a2.124,2.124,0,0,0-1.079-.292h-.318a2.2,2.2,0,0,0-2.138,2.138l.077.568a2.127,2.127,0,0,0,.549.943l.432.334a2.132,2.132,0,0,0,1.079.292h.318a2.2,2.2,0,0,0,2.138-2.138l-.077-.568" transform="translate(10.855 25.724)" fill="#e2798a"/>
    <path id="Trazado_772926" data-name="Trazado 772926" d="M119.382,223.2c-2.751,0-2.755,4.275,0,4.275s2.755-4.275,0-4.275" transform="translate(13.435 25.561)" fill="#e2798a"/>
    <path id="Trazado_772927" data-name="Trazado 772927" d="M126.389,210.554a1.59,1.59,0,0,0-.254-.795c-.11-.144-.222-.289-.334-.432a2.127,2.127,0,0,0-.943-.549l-.568-.077a2.122,2.122,0,0,0-1.079.292l-.633.317a2.057,2.057,0,0,0-1.021,2.13,1.587,1.587,0,0,0,.254.795l.333.432a2.139,2.139,0,0,0,.944.551l.568.076a2.124,2.124,0,0,0,1.079-.292l.633-.317a2.057,2.057,0,0,0,1.021-2.13" transform="translate(13.916 23.9)" fill="#e2798a"/>
    <path id="Trazado_772928" data-name="Trazado 772928" d="M136.7,222.527a1.591,1.591,0,0,0-.441-.688,2.378,2.378,0,0,0-1.512-.626l-.568.077a2.133,2.133,0,0,0-.943.549l-.334.432a2.144,2.144,0,0,0-.292,1.079v.317a1.61,1.61,0,0,0,.185.824,1.923,1.923,0,0,0,1.129,1.13,1.612,1.612,0,0,0,.824.184l.568-.076a2.139,2.139,0,0,0,.944-.551l.333-.432a2.119,2.119,0,0,0,.292-1.079v-.317a1.612,1.612,0,0,0-.184-.824" transform="translate(15.186 25.333)" fill="#e2798a"/>
    <path id="Trazado_772929" data-name="Trazado 772929" d="M139.682,200.92a2.138,2.138,0,0,0-.549-.943l-.318-.318a1.59,1.59,0,0,0-.688-.441,2.2,2.2,0,0,0-2.335.441l-.334.434a2.13,2.13,0,0,0-.292,1.079l.077.567a2.137,2.137,0,0,0,.549.944c.106.1.212.211.317.317a2.2,2.2,0,0,0,3.024,0l.334-.432a2.131,2.131,0,0,0,.291-1.079c-.025-.189-.05-.379-.076-.568" transform="translate(15.479 22.793)" fill="#e2798a"/>
    <path id="Trazado_772930" data-name="Trazado 772930" d="M150.064,212.29a2.2,2.2,0,0,0-1.954-1.314l-.568.077a2.133,2.133,0,0,0-.943.549l-.334.432a2.144,2.144,0,0,0-.292,1.079v.316a1.61,1.61,0,0,0,.185.824,1.922,1.922,0,0,0,1.129,1.13,1.612,1.612,0,0,0,.824.184l.568-.076a2.129,2.129,0,0,0,.943-.551l.334-.432a2.118,2.118,0,0,0,.292-1.079v-.316a1.612,1.612,0,0,0-.184-.824" transform="translate(16.716 24.161)" fill="#e2798a"/>
    <path id="Trazado_772931" data-name="Trazado 772931" d="M151.057,227.047a2.138,2.138,0,0,0-.549-.943l-.432-.334a2.125,2.125,0,0,0-1.079-.292h-.318a2.2,2.2,0,0,0-2.138,2.138l.077.568a2.127,2.127,0,0,0,.549.943l.432.334a2.133,2.133,0,0,0,1.079.292H149a2.2,2.2,0,0,0,2.137-2.138c-.025-.189-.05-.379-.076-.568" transform="translate(16.782 25.821)" fill="#e2798a"/>
    <path id="Trazado_772932" data-name="Trazado 772932" d="M109.146,129.936c-2.751,0-2.755,4.275,0,4.275s2.755-4.275,0-4.275" transform="translate(12.263 14.88)" fill="#e2798a"/>
    <path id="Trazado_772933" data-name="Trazado 772933" d="M63.933,141.594c-2.751,0-2.755,4.275,0,4.275s2.755-4.275,0-4.275" transform="translate(7.085 16.215)" fill="#e2798a"/>
    <path id="Trazado_772934" data-name="Trazado 772934" d="M81.279,123.111c-2.751,0-2.755,4.275,0,4.275s2.755-4.275,0-4.275" transform="translate(9.072 14.099)" fill="#e2798a"/>
    <path id="Trazado_772935" data-name="Trazado 772935" d="M135.875,136.191c-2.751,0-2.755,4.275,0,4.275s2.755-4.275,0-4.275" transform="translate(15.324 15.596)" fill="#e2798a"/>
    <path id="Trazado_772936" data-name="Trazado 772936" d="M160.045,103.206c-2.751,0-2.755,4.275,0,4.275s2.755-4.275,0-4.275" transform="translate(18.092 11.819)" fill="#e2798a"/>
    <path id="Trazado_772937" data-name="Trazado 772937" d="M91.469,88.086c0,3.526-2.217,6.385-4.952,6.385s-4.952-2.859-4.952-6.385S83.782,81.7,86.517,81.7s4.952,2.859,4.952,6.385" transform="translate(9.341 9.356)" fill="#e2798a"/>
    <path id="Trazado_772938" data-name="Trazado 772938" d="M92.476,83.165a3.221,3.221,0,0,1,.06,2.625,8.844,8.844,0,0,1-9.209,6.08,3.488,3.488,0,0,1-3.06-1.753,2.9,2.9,0,0,1,.6-2.839,8.57,8.57,0,0,1,2.411-1.821c1.608-.932,3.224-1.863,4.823-2.8a5.678,5.678,0,0,1,2.061-.564,2.585,2.585,0,0,1,2.317,1.069" transform="translate(9.174 9.401)" fill="#fff"/>
    <path id="Trazado_772939" data-name="Trazado 772939" d="M65.407,66.374l-2.533,5.741a1.58,1.58,0,0,0,2.8,1.462l2.533-5.741a1.58,1.58,0,0,0-2.8-1.462" transform="translate(7.183 7.506)" fill="#34323f"/>
    <path id="Trazado_772940" data-name="Trazado 772940" d="M73.386,70.9c1.459,1.459,1.653,3.632.432,4.854s-3.395,1.028-4.854-.432-1.653-3.632-.432-4.854,3.395-1.026,4.854.432" transform="translate(7.756 7.979)" fill="#34323f"/>
    <path id="Trazado_772941" data-name="Trazado 772941" d="M84.265,74.674a.951.951,0,1,1-.951-.951.951.951,0,0,1,.951.951" transform="translate(9.432 8.443)" fill="#34323f"/>
    <path id="Trazado_772942" data-name="Trazado 772942" d="M62.609,95.373A11.845,11.845,0,0,0,61.06,92.2,13.588,13.588,0,0,0,58.8,89.6a5.674,5.674,0,0,0-3.081-1.581,2.822,2.822,0,0,0-2.367,4.768c.372.408.975-.2.605-.6a1.983,1.983,0,0,1,1.381-3.326c1.645-.048,3.1,1.447,4.084,2.6A11.627,11.627,0,0,1,61.784,95.6c.179.612.332,1.492-.2,1.977-.613.555-1.525.2-2.11-.2a4.684,4.684,0,0,1-1.861-1.924.989.989,0,0,1,.186-1.074c.224-.164.648-.126.734.169a.428.428,0,0,0,.825-.227,1.337,1.337,0,0,0-1.994-.679A1.894,1.894,0,0,0,57,96.164a4.691,4.691,0,0,0,1.022,1.143,7.126,7.126,0,0,0,1.495,1.09,2.315,2.315,0,0,0,2.8-.353,2.87,2.87,0,0,0,.292-2.67" transform="translate(6.02 10.078)" fill="#34323f"/>
    <path id="Trazado_772943" data-name="Trazado 772943" d="M68.539,119.624c-3.345-4.121-8.88-5.011-13.839-5.595a48.288,48.288,0,0,1-8.3-1.5,32.967,32.967,0,0,1-13.9-8.344.428.428,0,0,0-.6.605,33.99,33.99,0,0,0,12.692,8.044,37.109,37.109,0,0,0,7.768,1.769,58.276,58.276,0,0,1,8.578,1.376,13.576,13.576,0,0,1,7,4.251c.347.427.948-.182.6-.605" transform="translate(3.638 11.917)" fill="#34323f"/>
    <path id="Trazado_772944" data-name="Trazado 772944" d="M62.786,117.755a18.7,18.7,0,0,0-7.826,5.265c-.362.412.241,1.019.605.605a17.8,17.8,0,0,1,7.448-5.045c.516-.182.293-1.008-.227-.825" transform="translate(6.281 13.482)" fill="#34323f"/>
    <path id="Trazado_772945" data-name="Trazado 772945" d="M63.828,119.662a.432.432,0,0,0-.585-.154,13.38,13.38,0,0,0-4.428,5.655.43.43,0,0,0,.3.526.437.437,0,0,0,.526-.3,12.312,12.312,0,0,1,4.035-5.144.441.441,0,0,0,.154-.585" transform="translate(6.733 13.679)" fill="#34323f"/>
    <path id="Trazado_772946" data-name="Trazado 772946" d="M122.948,3.62a14.38,14.38,0,0,0-9.6-1.85c-.542.085-.311.909.227.825a13.459,13.459,0,0,1,8.946,1.763.428.428,0,0,0,.431-.738" transform="translate(12.944 0.183)" fill="#34323f"/>
    <path id="Trazado_772947" data-name="Trazado 772947" d="M121.944,5.543a12.821,12.821,0,0,0-6-1.318.428.428,0,0,0,0,.855,11.893,11.893,0,0,1,5.57,1.2c.491.242.926-.495.431-.738" transform="translate(13.23 0.483)" fill="#34323f"/>
    <path id="Trazado_772948" data-name="Trazado 772948" d="M129.429,20.841a14.38,14.38,0,0,0-1.623-2.972,16.585,16.585,0,0,0-2.225-2.724,8.142,8.142,0,0,0-6.009-2.509,5.257,5.257,0,0,0-4.527,3.077,4.415,4.415,0,0,0,2.037,5.452c.486.257.918-.48.431-.738a3.576,3.576,0,0,1-1.774-4.129,4.337,4.337,0,0,1,3.921-2.813c3.971-.207,6.972,3.57,8.583,6.768.891,1.77,1.229,4.187-.514,5.57-.431.342.177.944.6.605,1.676-1.331,1.8-3.714,1.1-5.588" transform="translate(13.14 1.445)" fill="#34323f"/>
    <path id="Trazado_772949" data-name="Trazado 772949" d="M126.413,20.712a5.473,5.473,0,0,0-3.508-1.1c-1.187-.076-2.711-.124-3.454-1.22a2.435,2.435,0,0,1,.1-2.857c.353-.418-.249-1.025-.605-.605a3.274,3.274,0,0,0-.661,2.918,3.231,3.231,0,0,0,2.241,2.28c1.337.438,2.782.189,4.123.585a2.551,2.551,0,0,1,1.481.991,1.407,1.407,0,0,1-.032,1.626c-.333.438.409.865.738.431a2.333,2.333,0,0,0-.427-3.045" transform="translate(13.535 1.693)" fill="#34323f"/>
    <path id="Trazado_772950" data-name="Trazado 772950" d="M118.727,27.457a5.25,5.25,0,1,1-5.249,5.249,5.25,5.25,0,0,1,5.249-5.249" transform="translate(12.995 3.144)" fill="#ffa08a"/>
    <path id="Trazado_772951" data-name="Trazado 772951" d="M109.213,35.63a3.233,3.233,0,0,1,1.87,4.13,3.533,3.533,0,1,1-1.87-4.13" transform="translate(11.975 4.034)" fill="#34323f"/>
    <path id="Trazado_772952" data-name="Trazado 772952" d="M106.269,33.279a.437.437,0,0,0-.526-.3,8.218,8.218,0,0,0-4.717,2.818.441.441,0,0,0,0,.605.431.431,0,0,0,.6,0,7.487,7.487,0,0,1,4.34-2.6.432.432,0,0,0,.3-.526" transform="translate(11.556 3.776)" fill="#34323f"/>
    <path id="Trazado_772953" data-name="Trazado 772953" d="M92.631,23.443a14.339,14.339,0,0,1-10.344,8.283c-.539.1-.311.928.227.825a15.126,15.126,0,0,0,10.854-8.677c.218-.5-.518-.935-.738-.431" transform="translate(9.388 2.659)" fill="#34323f"/>
    <path id="Trazado_772954" data-name="Trazado 772954" d="M93.605,24.968A17.058,17.058,0,0,1,82.372,38.412c-.517.178-.3,1,.227.825A17.9,17.9,0,0,0,94.43,25.2c.085-.538-.739-.77-.825-.227" transform="translate(9.399 2.824)" fill="#34323f"/>
    <path id="Trazado_772955" data-name="Trazado 772955" d="M92.855,29.493a6.786,6.786,0,0,1-1.442,4.075.443.443,0,0,0,0,.605.432.432,0,0,0,.605,0,7.743,7.743,0,0,0,1.692-4.68.428.428,0,0,0-.855,0" transform="translate(10.455 3.33)" fill="#34323f"/>
    <path id="Trazado_772956" data-name="Trazado 772956" d="M138.456,33.312a1.311,1.311,0,0,0-1.283,1.283q-.137,2.613-.275,5.227A1.291,1.291,0,0,0,138.18,41.1a1.312,1.312,0,0,0,1.283-1.283q.139-2.615.276-5.227a1.292,1.292,0,0,0-1.283-1.283" transform="translate(15.677 3.815)" fill="#bfd4dd"/>
    <path id="Trazado_772957" data-name="Trazado 772957" d="M147.9,39.213l-3.8-.951a1.283,1.283,0,1,0-.682,2.473l3.8.951a1.283,1.283,0,1,0,.682-2.473" transform="translate(16.317 4.377)" fill="#bfd4dd"/>
    <path id="Trazado_772958" data-name="Trazado 772958" d="M142.9,45.041a1.305,1.305,0,0,0-1.283,1.283V50.6a1.283,1.283,0,0,0,2.566,0V46.324a1.3,1.3,0,0,0-1.283-1.283" transform="translate(16.218 5.158)" fill="#bfd4dd"/>
    <path id="Trazado_772959" data-name="Trazado 772959" d="M153.592,52.594a1.407,1.407,0,0,0-.59-.767l-2.858-1.892a1.283,1.283,0,0,0-1.755.46,1.3,1.3,0,0,0-.129.989,1.407,1.407,0,0,0,.59.767l2.859,1.892a1.283,1.283,0,0,0,1.884-1.449" transform="translate(16.973 5.699)" fill="#bfd4dd"/>
    <path id="Trazado_772960" data-name="Trazado 772960" d="M149.193,60.876q-.714-1.9-1.427-3.8a1.382,1.382,0,0,0-.59-.767,1.312,1.312,0,0,0-.987-.129,1.3,1.3,0,0,0-.9,1.578q.714,1.9,1.427,3.8a1.385,1.385,0,0,0,.588.767,1.315,1.315,0,0,0,.989.129,1.3,1.3,0,0,0,.9-1.578" transform="translate(16.632 6.428)" fill="#bfd4dd"/>
    <path id="Trazado_772961" data-name="Trazado 772961" d="M143.322,65.271l-2.184-3.537a1.283,1.283,0,1,0-2.215,1.3l2.184,3.537a1.283,1.283,0,0,0,2.215-1.3" transform="translate(15.889 6.997)" fill="#bfd4dd"/>
    <path id="Trazado_772962" data-name="Trazado 772962" d="M139,70.352a1.308,1.308,0,0,0-1.578-.9l-3.793.987a1.283,1.283,0,1,0,.682,2.473l3.793-.986a1.3,1.3,0,0,0,.9-1.578" transform="translate(15.195 7.949)" fill="#bfd4dd"/>
    <path id="Trazado_772963" data-name="Trazado 772963" d="M149.708,67a1.309,1.309,0,0,0-1.813,0l-3.075,2.869a1.293,1.293,0,0,0,0,1.813,1.309,1.309,0,0,0,1.813,0l3.075-2.869a1.293,1.293,0,0,0,0-1.813" transform="translate(16.542 7.63)" fill="#bfd4dd"/>
    <path id="Trazado_772964" data-name="Trazado 772964" d="M153.834,57.573a1.282,1.282,0,0,0-1.813,0,1.331,1.331,0,0,0-.376.907v2.852a1.323,1.323,0,0,0,.376.907,1.282,1.282,0,0,0,1.813,0,1.333,1.333,0,0,0,.376-.907V58.48a1.323,1.323,0,0,0-.376-.907" transform="translate(17.366 6.55)" fill="#bfd4dd"/>
    <path id="Trazado_772965" data-name="Trazado 772965" d="M144.966,33.621l-1.651-4.283a1.392,1.392,0,0,0-.59-.767,1.282,1.282,0,0,0-1.884,1.448q.826,2.143,1.651,4.284a1.392,1.392,0,0,0,.59.767,1.312,1.312,0,0,0,.987.129,1.3,1.3,0,0,0,.9-1.578" transform="translate(16.122 3.252)" fill="#bfd4dd"/>
    <path id="Trazado_772966" data-name="Trazado 772966" d="M152.142,22.245a1.314,1.314,0,0,0-1.755-.46l-4.264,2.167a1.293,1.293,0,0,0-.459,1.755,1.311,1.311,0,0,0,1.753.46L151.68,24a1.29,1.29,0,0,0,.461-1.754" transform="translate(16.661 2.476)" fill="#bfd4dd"/>
    <path id="Trazado_772967" data-name="Trazado 772967" d="M142.674,21.562a1.29,1.29,0,0,0-.907-.376,1.252,1.252,0,0,0-.906.376l-3.1,3.793a1.385,1.385,0,0,0-.376.906,1.307,1.307,0,0,0,.376.907,1.294,1.294,0,0,0,.907.376,1.254,1.254,0,0,0,.907-.376l3.1-3.793a1.38,1.38,0,0,0,.376-.906,1.3,1.3,0,0,0-.376-.907" transform="translate(15.733 2.426)" fill="#bfd4dd"/>
    <path id="Trazado_772968" data-name="Trazado 772968" d="M168.716,26.4l-4.04-1.9a1.387,1.387,0,0,0-.989-.129,1.283,1.283,0,0,0-.306,2.345l4.04,1.9a1.375,1.375,0,0,0,.989.129,1.283,1.283,0,0,0,.307-2.344" transform="translate(18.639 2.786)" fill="#bfd4dd"/>
    <path id="Trazado_772969" data-name="Trazado 772969" d="M172.606,33.526a1.282,1.282,0,1,0-2.565,0q.057,2.142.115,4.282a1.282,1.282,0,0,0,2.565,0q-.057-2.142-.115-4.282" transform="translate(19.473 3.692)" fill="#bfd4dd"/>
    <path id="Trazado_772970" data-name="Trazado 772970" d="M181.857,33.88l-4.279-.951A1.283,1.283,0,0,0,176.9,35.4l4.279.951a1.283,1.283,0,1,0,.682-2.473" transform="translate(20.152 3.767)" fill="#bfd4dd"/>
    <path id="Trazado_772971" data-name="Trazado 772971" d="M180.212,44.766l-1.24-4.5a1.283,1.283,0,1,0-2.473.682l1.24,4.5a1.283,1.283,0,0,0,2.473-.683" transform="translate(20.207 4.503)" fill="#bfd4dd"/>
    <path id="Trazado_772972" data-name="Trazado 772972" d="M171.055,46.53a1.317,1.317,0,0,0-1.283,1.283l-.421,4.758a1.287,1.287,0,0,0,1.283,1.283,1.316,1.316,0,0,0,1.282-1.283q.211-2.379.422-4.758a1.288,1.288,0,0,0-1.283-1.283" transform="translate(19.393 5.328)" fill="#bfd4dd"/>
    <path id="Trazado_772973" data-name="Trazado 772973" d="M188.965,41.391a1.314,1.314,0,0,0-1.754-.46l-3.8,1.906a1.293,1.293,0,0,0-.46,1.755,1.314,1.314,0,0,0,1.755.459l3.8-1.906a1.29,1.29,0,0,0,.46-1.754" transform="translate(20.931 4.669)" fill="#bfd4dd"/>
    <path id="Trazado_772974" data-name="Trazado 772974" d="M180.875,50.952a1.282,1.282,0,0,0-1.813,0,1.468,1.468,0,0,0-.376.907l-.455,4.28a1.285,1.285,0,0,0,.376.907,1.283,1.283,0,0,0,1.814,0,1.471,1.471,0,0,0,.376-.907q.226-2.14.454-4.28a1.282,1.282,0,0,0-.376-.907" transform="translate(20.41 5.792)" fill="#bfd4dd"/>
    <path id="Trazado_772975" data-name="Trazado 772975" d="M172.538,59.583a1.3,1.3,0,0,0-1.578.9q-.483,2.613-.969,5.226a1.283,1.283,0,0,0,2.474.681q.483-2.611.969-5.225a1.312,1.312,0,0,0-.9-1.578" transform="translate(19.464 6.82)" fill="#bfd4dd"/>
    <path id="Trazado_772976" data-name="Trazado 772976" d="M187.989,62.6,183,62.6a1.283,1.283,0,0,0,0,2.566l4.992,0a1.282,1.282,0,1,0,0-2.565" transform="translate(20.81 7.169)" fill="#bfd4dd"/>
    <path id="Trazado_772977" data-name="Trazado 772977" d="M195.69,60.138,193.075,58a1.382,1.382,0,0,0-.907-.376,1.3,1.3,0,0,0-.906.376,1.284,1.284,0,0,0-.376.906,1.245,1.245,0,0,0,.376.907l2.615,2.139a1.38,1.38,0,0,0,.906.376,1.3,1.3,0,0,0,.907-.376,1.289,1.289,0,0,0,.376-.906,1.254,1.254,0,0,0-.376-.907" transform="translate(21.86 6.599)" fill="#bfd4dd"/>
    <path id="Trazado_772978" data-name="Trazado 772978" d="M203.905,58.538,200.4,55.149a1.282,1.282,0,0,0-1.813,1.813q1.752,1.7,3.505,3.389a1.282,1.282,0,1,0,1.813-1.813" transform="translate(22.7 6.273)" fill="#bfd4dd"/>
    <path id="Trazado_772979" data-name="Trazado 772979" d="M200.5,64.92a1.3,1.3,0,0,0-1.578.9q-.475,2.02-.951,4.04a1.283,1.283,0,0,0,2.474.682q.475-2.02.951-4.04a1.3,1.3,0,0,0-.9-1.578" transform="translate(22.667 7.431)" fill="#bfd4dd"/>
    <path id="Trazado_772980" data-name="Trazado 772980" d="M210.069,68.321l-3.336-3.081a1.343,1.343,0,0,0-.907-.376,1.282,1.282,0,0,0-.907,2.189l3.337,3.081a1.338,1.338,0,0,0,.906.376,1.282,1.282,0,0,0,.907-2.189" transform="translate(23.425 7.428)" fill="#bfd4dd"/>
    <path id="Trazado_772981" data-name="Trazado 772981" d="M206.427,74.256a1.311,1.311,0,0,0-1.283,1.283l-.217,4.279A1.291,1.291,0,0,0,206.21,81.1a1.311,1.311,0,0,0,1.283-1.283l.217-4.279a1.292,1.292,0,0,0-1.283-1.283" transform="translate(23.468 8.504)" fill="#bfd4dd"/>
    <path id="Trazado_772982" data-name="Trazado 772982" d="M200.773,79.245a1.308,1.308,0,0,0-.59-.767,1.294,1.294,0,0,0-.989-.129,1.486,1.486,0,0,0-.766.59L195.1,83.456a1.288,1.288,0,0,0-.128.989,1.282,1.282,0,0,0,1.577.9,1.485,1.485,0,0,0,.767-.59l3.326-4.517a1.293,1.293,0,0,0,.129-.989" transform="translate(22.323 8.967)" fill="#bfd4dd"/>
    <path id="Trazado_772983" data-name="Trazado 772983" d="M193.941,75.779q-1.332-2.123-2.666-4.246a1.283,1.283,0,1,0-2.215,1.3q1.332,2.123,2.666,4.246a1.283,1.283,0,0,0,2.215-1.3" transform="translate(21.631 8.119)" fill="#bfd4dd"/>
    <path id="Trazado_772984" data-name="Trazado 772984" d="M184.429,70.722a1.308,1.308,0,0,0-.59-.767,1.294,1.294,0,0,0-.989-.129,1.247,1.247,0,0,0-.766.59q-.951,2.14-1.9,4.279a1.392,1.392,0,0,0-.129.989,1.282,1.282,0,0,0,1.577.895,1.242,1.242,0,0,0,.767-.59q.951-2.138,1.9-4.278a1.4,1.4,0,0,0,.129-.989" transform="translate(20.615 7.991)" fill="#bfd4dd"/>
    <path id="Trazado_772985" data-name="Trazado 772985" d="M176.083,73.025l-3.558-2.388a1.283,1.283,0,0,0-1.3,2.215l3.558,2.388a1.283,1.283,0,0,0,1.755-.46,1.313,1.313,0,0,0-.46-1.754" transform="translate(19.538 8.07)" fill="#bfd4dd"/>
    <path id="Trazado_772986" data-name="Trazado 772986" d="M172.6,81.91a1.509,1.509,0,0,0-.767-.59l-4.324-1.789a1.285,1.285,0,0,0-.989.129,1.283,1.283,0,0,0-.46,1.755,1.509,1.509,0,0,0,.767.59l4.324,1.788a1.28,1.28,0,0,0,.989-.129,1.281,1.281,0,0,0,.46-1.754" transform="translate(18.998 9.102)" fill="#bfd4dd"/>
    <path id="Trazado_772987" data-name="Trazado 772987" d="M182.15,82.469a1.312,1.312,0,0,0-.59-.767,1.3,1.3,0,0,0-1.754.46L177.67,86.68a1.375,1.375,0,0,0-.129.989,1.283,1.283,0,0,0,2.344.306l2.137-4.517a1.38,1.38,0,0,0,.129-.989" transform="translate(20.327 9.338)" fill="#bfd4dd"/>
    <path id="Trazado_772988" data-name="Trazado 772988" d="M190.312,82.155l-4.759.421a1.282,1.282,0,0,0,0,2.565l4.759-.421a1.282,1.282,0,1,0,0-2.565" transform="translate(21.102 9.408)" fill="#bfd4dd"/>
    <path id="Trazado_772989" data-name="Trazado 772989" d="M173.584,94.171q-.858-2.13-1.713-4.259a1.41,1.41,0,0,0-.59-.767,1.283,1.283,0,0,0-1.755.46,1.245,1.245,0,0,0-.129.989l1.714,4.259a1.405,1.405,0,0,0,.59.767,1.282,1.282,0,0,0,1.754-.46,1.245,1.245,0,0,0,.129-.989" transform="translate(19.393 10.189)" fill="#bfd4dd"/>
    <path id="Trazado_772990" data-name="Trazado 772990" d="M177.1,99.913a1.308,1.308,0,0,0-.59-.767,1.294,1.294,0,0,0-.989-.129,1.274,1.274,0,0,0-.766.59l-1.645,3.337a1.369,1.369,0,0,0-.129.989,1.283,1.283,0,0,0,1.578.9,1.274,1.274,0,0,0,.766-.59l1.645-3.337a1.369,1.369,0,0,0,.129-.989" transform="translate(19.805 11.334)" fill="#bfd4dd"/>
    <path id="Trazado_772991" data-name="Trazado 772991" d="M170.3,109.48l-2.121-4.761a1.282,1.282,0,0,0-.767-.59,1.309,1.309,0,0,0-.989.129,1.292,1.292,0,0,0-.59.767,1.482,1.482,0,0,0,.129.987q1.062,2.381,2.122,4.762a1.284,1.284,0,0,0,.767.588,1.306,1.306,0,0,0,.987-.129,1.293,1.293,0,0,0,.59-.766,1.478,1.478,0,0,0-.129-.989" transform="translate(18.987 11.92)" fill="#bfd4dd"/>
    <path id="Trazado_772992" data-name="Trazado 772992" d="M169.057,99.353,167.62,94.6a1.283,1.283,0,0,0-2.473.682q.719,2.376,1.437,4.751a1.283,1.283,0,1,0,2.473-.682" transform="translate(18.907 10.725)" fill="#bfd4dd"/>
    <path id="Trazado_772993" data-name="Trazado 772993" d="M179.574,111.227a1.3,1.3,0,0,0-1.578-.9l-4.518,1.657a1.383,1.383,0,0,0-.767.59,1.314,1.314,0,0,0-.129.989,1.3,1.3,0,0,0,1.578.895l4.518-1.656a1.375,1.375,0,0,0,.767-.59,1.309,1.309,0,0,0,.129-.989" transform="translate(19.759 12.628)" fill="#bfd4dd"/>
    <path id="Trazado_772994" data-name="Trazado 772994" d="M168.719,115.863a1.319,1.319,0,0,0-1.283,1.283q-.278,2.61-.557,5.22a1.286,1.286,0,0,0,1.283,1.282,1.319,1.319,0,0,0,1.283-1.282q.278-2.611.557-5.22a1.286,1.286,0,0,0-1.283-1.283" transform="translate(19.11 13.268)" fill="#bfd4dd"/>
    <path id="Trazado_772995" data-name="Trazado 772995" d="M177.768,117.476a1.3,1.3,0,0,0-1.754-.46l-3.093,1.9a1.338,1.338,0,0,0-.59.766,1.283,1.283,0,0,0,1.885,1.449l3.092-1.9a1.333,1.333,0,0,0,.59-.766,1.308,1.308,0,0,0-.129-.989" transform="translate(19.73 13.38)" fill="#bfd4dd"/>
    <path id="Trazado_772996" data-name="Trazado 772996" d="M189.1,104.029q-.831-2.259-1.663-4.516a1.384,1.384,0,0,0-.59-.767,1.315,1.315,0,0,0-.989-.129,1.3,1.3,0,0,0-.9,1.578q.833,2.257,1.664,4.516a1.377,1.377,0,0,0,.59.767,1.312,1.312,0,0,0,.987.129,1.3,1.3,0,0,0,.9-1.578" transform="translate(21.174 11.288)" fill="#bfd4dd"/>
    <path id="Trazado_772997" data-name="Trazado 772997" d="M193.416,96.278l-3.328-3.089a1.339,1.339,0,0,0-.906-.377,1.283,1.283,0,0,0-.907,2.19l3.328,3.089a1.338,1.338,0,0,0,.906.376,1.282,1.282,0,0,0,.907-2.189" transform="translate(21.519 10.629)" fill="#bfd4dd"/>
    <path id="Trazado_772998" data-name="Trazado 772998" d="M192.853,108.068a1.317,1.317,0,0,0-.59-.767,1.294,1.294,0,0,0-.989-.129,1.47,1.47,0,0,0-.767.59l-2.6,3.574a1.293,1.293,0,0,0-.129.989,1.282,1.282,0,0,0,1.578.9,1.472,1.472,0,0,0,.766-.59l2.6-3.574a1.294,1.294,0,0,0,.13-.989" transform="translate(21.499 12.268)" fill="#bfd4dd"/>
    <path id="Trazado_772999" data-name="Trazado 772999" d="M181.183,128.318a35.131,35.131,0,0,0-20.309,6.236,34.543,34.543,0,0,0-4.7,3.915.428.428,0,0,0,.605.605,34.342,34.342,0,0,1,18.44-9.449,33.382,33.382,0,0,1,5.962-.452.428.428,0,0,0,0-.855" transform="translate(17.871 14.695)" fill="#34323f"/>
    <path id="Trazado_773000" data-name="Trazado 773000" d="M191.447,120.183a16.856,16.856,0,0,0-8.528,1.576c-.5.235-.064.972.431.738a15.993,15.993,0,0,1,8.1-1.459c.548.045.546-.811,0-.855" transform="translate(20.922 13.757)" fill="#34323f"/>
    <path id="Trazado_773001" data-name="Trazado 773001" d="M192.765,102.159l-2.221-.623a.428.428,0,0,0-.227.825l2.221.623a.428.428,0,1,0,.227-.825" transform="translate(21.759 11.626)" fill="#34323f"/>
    <path id="Trazado_773002" data-name="Trazado 773002" d="M192.789,104.687l-2.06.014a.427.427,0,1,0,0,.855l2.06-.014a.427.427,0,1,0,0-.855" transform="translate(21.793 11.989)" fill="#34323f"/>
    <path id="Trazado_773003" data-name="Trazado 773003" d="M149.167,31.728q-.8-2.138-1.59-4.276a.44.44,0,0,0-.526-.3.432.432,0,0,0-.3.526l1.508,4.055a.41.41,0,0,0-.056-.087l-2.236-2.359a.428.428,0,0,0-.605.6L147.6,32.25a.419.419,0,0,0,.711-.379c.011.028.021.056.031.084a.44.44,0,0,0,.526.3.43.43,0,0,0,.3-.526" transform="translate(16.633 3.108)" fill="#34323f"/>
    <path id="Trazado_773004" data-name="Trazado 773004" d="M128.617,69.91l-9.633,6.86c-.445.317-.018,1.059.431.738l9.633-6.86c.445-.317.018-1.058-.431-.738" transform="translate(13.604 7.997)" fill="#34323f"/>
    <path id="Trazado_773005" data-name="Trazado 773005" d="M126.016,76.145a.438.438,0,0,0-.605,0l-2.376,2.06a.431.431,0,0,0,0,.605.438.438,0,0,0,.6,0l2.377-2.061a.43.43,0,0,0,0-.6" transform="translate(14.076 8.706)" fill="#34323f"/>
    <path id="Trazado_773006" data-name="Trazado 773006" d="M126.931,79.05l-4.274,5.866c-.324.446.418.873.739.432l4.273-5.867c.325-.445-.417-.873-.738-.431" transform="translate(14.037 9.031)" fill="#34323f"/>
    <path id="Trazado_773007" data-name="Trazado 773007" d="M123.292,69.361a.434.434,0,0,0-.6,0q-1.59,1.5-3.179,3a.427.427,0,0,0,.6.6q1.59-1.5,3.179-3a.433.433,0,0,0,0-.6" transform="translate(13.672 7.929)" fill="#34323f"/>
    <path id="Trazado_773008" data-name="Trazado 773008" d="M122.982,67.146a.441.441,0,0,0-.585-.154l-2.576,1.179a.43.43,0,0,0-.154.585.441.441,0,0,0,.585.154l2.576-1.179a.429.429,0,0,0,.154-.585" transform="translate(13.698 7.666)" fill="#34323f"/>
  </g>
</svg>
