<svg xmlns="http://www.w3.org/2000/svg" width="85" height="91.886" viewBox="0 0 85 91.886">
  <g id="Grupo_988111" data-name="Grupo 988111" transform="translate(0 0.141)">
    <rect id="Rectángulo_34830" data-name="Rectángulo 34830" width="85" height="76" rx="13" transform="translate(0 -0.141)" fill="#3449bc"/>
    <g id="plan-de-negocios_1_" data-name="plan-de-negocios (1)" transform="translate(11 4.859)">
      <g id="Grupo_1044318" data-name="Grupo 1044318">
        <g id="Grupo_1044304" data-name="Grupo 1044304">
          <path id="Trazado_774029" data-name="Trazado 774029" d="M61,2H25a1,1,0,0,0-1,1V25a1,1,0,0,0,1,1H61a1,1,0,0,0,1-1V3A1,1,0,0,0,61,2Z" fill="#e6e9ed"/>
        </g>
        <g id="Grupo_1044305" data-name="Grupo 1044305">
          <path id="Trazado_774030" data-name="Trazado 774030" d="M56,9V26H50V9a1,1,0,0,1,1-1h4A1,1,0,0,1,56,9Z" fill="#5cd6b3"/>
        </g>
        <g id="Grupo_1044306" data-name="Grupo 1044306">
          <path id="Trazado_774031" data-name="Trazado 774031" d="M46,13V26H40V13a1,1,0,0,1,1-1h4A1,1,0,0,1,46,13Z" fill="#5cd6b3"/>
        </g>
        <g id="Grupo_1044307" data-name="Grupo 1044307">
          <path id="Trazado_774032" data-name="Trazado 774032" d="M36,17v9H30V17a1,1,0,0,1,1-1h4A1,1,0,0,1,36,17Z" fill="#5cd6b3"/>
        </g>
        <g id="Grupo_1044308" data-name="Grupo 1044308">
          <path id="Trazado_774033" data-name="Trazado 774033" d="M2,41V35a1,1,0,0,1,1-1H13a1,1,0,0,1,1,1v6a1,1,0,0,1-1,1H3A1,1,0,0,1,2,41Z" fill="#fcd770"/>
        </g>
        <g id="Grupo_1044309" data-name="Grupo 1044309">
          <path id="Trazado_774034" data-name="Trazado 774034" d="M46,38v3a1,1,0,0,1-1,1H31a1,1,0,0,1-1-1V35a1,1,0,0,1,1-1H45a1,1,0,0,1,1,1Z" fill="#fcd770"/>
        </g>
        <g id="Grupo_1044310" data-name="Grupo 1044310">
          <path id="Trazado_774035" data-name="Trazado 774035" d="M8,10a4,4,0,1,1-4,4A4,4,0,0,1,8,10Z" fill="#ff826e"/>
        </g>
        <g id="Grupo_1044311" data-name="Grupo 1044311">
          <circle id="Elipse_5006" data-name="Elipse 5006" cx="2" cy="2" r="2" transform="translate(20 36)" fill="#ff826e"/>
        </g>
        <g id="Grupo_1044312" data-name="Grupo 1044312">
          <path id="Trazado_774036" data-name="Trazado 774036" d="M58,34a4,4,0,1,1-4,4A4,4,0,0,1,58,34Z" fill="#ff826e"/>
        </g>
        <g id="Grupo_1044313" data-name="Grupo 1044313">
          <path id="Trazado_774037" data-name="Trazado 774037" d="M14,50H42v6H14Z" fill="#ff826e"/>
        </g>
        <g id="Grupo_1044314" data-name="Grupo 1044314">
          <path id="Trazado_774038" data-name="Trazado 774038" d="M14,56H42v6H14Z" fill="#5cd6b3"/>
        </g>
        <g id="Grupo_1044315" data-name="Grupo 1044315">
          <path id="Trazado_774039" data-name="Trazado 774039" d="M14,56v6H10V50h4Z" fill="#ffeaa7"/>
        </g>
        <g id="Grupo_1044316" data-name="Grupo 1044316">
          <path id="Trazado_774040" data-name="Trazado 774040" d="M10,50V62H6a4,4,0,0,1-4-4V54a4,4,0,0,1,4-4Z" fill="#aab2bd"/>
        </g>
        <g id="Grupo_1044317" data-name="Grupo 1044317">
          <path id="Trazado_774041" data-name="Trazado 774041" d="M51.11,54.55,48,53l-6-3V62l6-3,3.11-1.55a1.626,1.626,0,0,0,0-2.9Z" fill="#aab2bd"/>
        </g>
      </g>
      <g id="Grupo_1044319" data-name="Grupo 1044319">
        <path id="Trazado_774042" data-name="Trazado 774042" d="M33,37h2v2H33Z"/>
        <path id="Trazado_774043" data-name="Trazado 774043" d="M37,37h2v2H37Z"/>
        <path id="Trazado_774044" data-name="Trazado 774044" d="M41,37h2v2H41Z"/>
        <path id="Trazado_774045" data-name="Trazado 774045" d="M5,37H7v2H5Z"/>
        <path id="Trazado_774046" data-name="Trazado 774046" d="M9,37h2v2H9Z"/>
        <circle id="Elipse_5007" data-name="Elipse 5007" cx="1" cy="1" r="1" transform="translate(57 37)"/>
        <circle id="Elipse_5008" data-name="Elipse 5008" cx="1" cy="1" r="1" transform="translate(7 13)"/>
        <path id="Trazado_774047" data-name="Trazado 774047" d="M25,27H61a2,2,0,0,0,2-2V3a2,2,0,0,0-2-2H25a2,2,0,0,0-2,2V13H12.9A5,5,0,1,0,7,18.9V33H3a2,2,0,0,0-2,2v6a2,2,0,0,0,2,2H13a2,2,0,0,0,2-2V39h4.184a2.982,2.982,0,0,0,5.632,0H29v2a2,2,0,0,0,2,2H45a2,2,0,0,0,2-2V39h6.1A5.016,5.016,0,0,0,57,42.9V55H52.778a2.589,2.589,0,0,0-1.225-1.342L42.236,49H6a5.006,5.006,0,0,0-5,5v4a5.006,5.006,0,0,0,5,5H42.236l9.316-4.658A2.585,2.585,0,0,0,52.777,57H57a2,2,0,0,0,2-2V42.9A5,5,0,1,0,53.1,37H47V35a2,2,0,0,0-2-2H31a2,2,0,0,0-2,2v2H24.816a2.982,2.982,0,0,0-5.632,0H15V35a2,2,0,0,0-2-2H9V18.9A5.016,5.016,0,0,0,12.9,15H23V25a2,2,0,0,0,2,2Zm10-2H31V17h4Zm10,0H41V13h4Zm10,0H51V9h4ZM25,3H61V25H57V9a2,2,0,0,0-2-2H51a2,2,0,0,0-2,2V25H47V13a2,2,0,0,0-2-2H41a2,2,0,0,0-2,2V25H37V17a2,2,0,0,0-2-2H31a2,2,0,0,0-2,2v8H25ZM41,55H15V51H41ZM13,61H11V51h2Zm2-4H41v4H15Zm28-5.382,4,2v4.764l-4,2ZM3,58V54a3,3,0,0,1,3-3H9V61H6A3,3,0,0,1,3,58Zm47.658-1.447L49,57.382V54.618l1.658.829a.618.618,0,0,1,0,1.106ZM58,35a3,3,0,1,1-3,3A3,3,0,0,1,58,35ZM31,35H45v6H31Zm-9,2a1,1,0,1,1-1,1A1,1,0,0,1,22,37Zm-9,4H3V35H13ZM8,17a3,3,0,1,1,3-3A3,3,0,0,1,8,17Z"/>
      </g>
    </g>
    <g id="Grupo_146005" data-name="Grupo 146005" transform="translate(5 60.256)">
      <path id="Trazado_113510" data-name="Trazado 113510" d="M170.02,80.962c-2.987,0-4.462-2.384-5.646-4.3-1.2-1.939-2.013-3.128-3.542-3.128s-2.341,1.189-3.538,3.128c-1.184,1.917-2.659,4.3-5.645,4.3s-4.462-2.384-5.646-4.3c-1.2-1.939-2.011-3.128-3.539-3.128s-2.339,1.189-3.538,3.128c-1.184,1.917-2.659,4.3-5.645,4.3s-4.461-2.386-5.644-4.3c-1.2-1.938-2.01-3.127-3.537-3.127s-2.338,1.189-3.537,3.127c-1.185,1.918-2.658,4.3-5.644,4.3s-4.459-2.384-5.644-4.3c-1.2-1.938-2.01-3.127-3.537-3.127a1.238,1.238,0,1,1,0-2.476c2.985,0,4.459,2.384,5.644,4.3,1.2,1.939,2.01,3.128,3.537,3.128s2.338-1.189,3.537-3.128c1.185-1.917,2.659-4.3,5.644-4.3s4.459,2.384,5.642,4.3c1.2,1.939,2.01,3.128,3.538,3.128s2.339-1.189,3.538-3.128c1.185-1.917,2.659-4.3,5.645-4.3s4.461,2.384,5.646,4.3c1.2,1.939,2.01,3.128,3.539,3.128s2.339-1.189,3.538-3.128c1.183-1.917,2.659-4.3,5.645-4.3s4.463,2.384,5.648,4.3c1.2,1.939,2.013,3.128,3.541,3.128s2.342-1.189,3.542-3.128c1.185-1.917,2.661-4.3,5.648-4.3a1.238,1.238,0,0,1,0,2.476c-1.53,0-2.342,1.189-3.542,3.128C174.483,78.577,173.009,80.962,170.02,80.962Z" transform="translate(-104.499 -71.056)" fill="#cb4dae"/>
      <path id="Trazado_113511" data-name="Trazado 113511" d="M170.02,88.625c-2.987,0-4.462-2.386-5.646-4.3-1.2-1.941-2.013-3.13-3.542-3.13s-2.341,1.189-3.538,3.128c-1.184,1.917-2.659,4.3-5.645,4.3s-4.462-2.386-5.646-4.3c-1.2-1.939-2.011-3.128-3.539-3.128s-2.339,1.189-3.538,3.128c-1.184,1.917-2.659,4.3-5.645,4.3s-4.461-2.387-5.644-4.3c-1.2-1.939-2.01-3.128-3.537-3.128s-2.338,1.189-3.537,3.128c-1.185,1.917-2.658,4.3-5.644,4.3s-4.459-2.386-5.644-4.3c-1.2-1.939-2.01-3.128-3.537-3.128a1.238,1.238,0,1,1,0-2.476c2.985,0,4.459,2.386,5.644,4.3,1.2,1.938,2.01,3.127,3.537,3.127s2.338-1.189,3.537-3.127c1.185-1.917,2.659-4.3,5.644-4.3s4.459,2.386,5.642,4.3c1.2,1.938,2.01,3.127,3.538,3.127s2.339-1.189,3.538-3.127c1.185-1.917,2.659-4.3,5.645-4.3s4.461,2.386,5.646,4.3c1.2,1.938,2.01,3.127,3.539,3.127s2.339-1.189,3.538-3.127c1.183-1.917,2.659-4.3,5.645-4.3s4.463,2.386,5.648,4.3c1.2,1.938,2.013,3.127,3.541,3.127s2.342-1.189,3.542-3.127c1.185-1.917,2.661-4.3,5.648-4.3a1.238,1.238,0,1,1,0,2.476c-1.53,0-2.342,1.189-3.542,3.128C174.483,86.239,173.009,88.625,170.02,88.625Z" transform="translate(-104.499 -67.926)" fill="#cb4dae"/>
      <path id="Trazado_113512" data-name="Trazado 113512" d="M170.02,96.286c-2.987,0-4.462-2.385-5.646-4.3-1.2-1.939-2.013-3.128-3.542-3.128s-2.341,1.189-3.538,3.128c-1.184,1.917-2.659,4.3-5.645,4.3s-4.462-2.385-5.646-4.3c-1.2-1.939-2.011-3.128-3.539-3.128s-2.339,1.189-3.538,3.128c-1.184,1.917-2.659,4.3-5.645,4.3s-4.461-2.385-5.644-4.3c-1.2-1.939-2.01-3.128-3.537-3.128s-2.338,1.189-3.537,3.128c-1.185,1.917-2.658,4.3-5.644,4.3s-4.459-2.385-5.644-4.3c-1.2-1.939-2.01-3.128-3.537-3.128a1.238,1.238,0,1,1,0-2.476c2.985,0,4.459,2.386,5.644,4.3,1.2,1.938,2.01,3.127,3.537,3.127s2.338-1.189,3.537-3.127c1.185-1.917,2.659-4.3,5.644-4.3s4.459,2.386,5.642,4.3c1.2,1.939,2.01,3.128,3.538,3.128s2.339-1.189,3.538-3.128c1.185-1.915,2.659-4.3,5.645-4.3s4.461,2.386,5.646,4.3c1.2,1.939,2.01,3.128,3.539,3.128s2.339-1.189,3.538-3.128c1.183-1.915,2.659-4.3,5.645-4.3s4.463,2.386,5.648,4.3c1.2,1.939,2.013,3.128,3.541,3.128s2.342-1.189,3.542-3.128c1.185-1.915,2.661-4.3,5.648-4.3a1.238,1.238,0,0,1,0,2.476c-1.53,0-2.342,1.189-3.542,3.128C174.483,93.9,173.009,96.286,170.02,96.286Z" transform="translate(-104.499 -64.797)" fill="#cb4dae"/>
    </g>
  </g>
</svg>
