<svg xmlns="http://www.w3.org/2000/svg" width="110" height="110" viewBox="0 0 110 110">
  <g id="Grupo_1044022" data-name="Grupo 1044022" transform="translate(-325 -901)">
    <g id="Grupo_988120" data-name="Grupo 988120" transform="translate(-3 18)">
      <circle id="Elipse_4711" data-name="Elipse 4711" cx="55" cy="55" r="55" transform="translate(328 883)" fill="#3449bc"/>
    </g>
    <g id="salud-mental" transform="translate(332.5 903.033)">
      <g id="Grupo_1044019" data-name="Grupo 1044019" transform="translate(5.5 11.967)">
        <path id="Trazado_773603" data-name="Trazado 773603" d="M210.637,13.968h0a6.01,6.01,0,0,1,6.01,6.01v1.055H220.2a6.558,6.558,0,0,1,6.558,6.558h0a6.548,6.548,0,0,1-2.678,5.286h4.344a9.5,9.5,0,0,1,9.5,9.5h0a9.5,9.5,0,0,1-7.589,9.309,6.547,6.547,0,0,1,2.691,5.3h0a6.558,6.558,0,0,1-6.558,6.558h-5.193a8.325,8.325,0,1,1-16.65,0V19.978A6.01,6.01,0,0,1,210.637,13.968Z" transform="translate(-170.989 -13.63)" fill="#fe93bb"/>
        <path id="Trazado_773604" data-name="Trazado 773604" d="M215.3,71.531a8.331,8.331,0,0,1-10.669-7.989V19.978a6.011,6.011,0,0,1,8.355-5.534,6.01,6.01,0,0,0-3.665,5.534V63.541A8.328,8.328,0,0,0,215.3,71.531Z" transform="translate(-170.99 -13.63)" fill="#fe76a8"/>
        <path id="Trazado_773605" data-name="Trazado 773605" d="M40.8,19.978V63.542a8.325,8.325,0,0,1-16.65,0H18.956a6.558,6.558,0,0,1-3.867-11.854A9.5,9.5,0,0,1,17,32.877h4.344a6.558,6.558,0,0,1,3.881-11.845H28.78V19.978a6.01,6.01,0,1,1,12.02,0Z" transform="translate(-7.162 -13.63)" fill="#fe93bb"/>
        <path id="Trazado_773606" data-name="Trazado 773606" d="M116.413,297.578a8.336,8.336,0,0,1-10.348-8.2v-3.519h.4a3.645,3.645,0,0,1,3.645,3.645h0A8.328,8.328,0,0,0,116.413,297.578Z" transform="translate(-89.077 -239.588)" fill="#fe76a8"/>
        <path id="Trazado_773607" data-name="Trazado 773607" d="M17.12,139.819a4.9,4.9,0,0,0,4.9,4.9H15.089A9.5,9.5,0,0,1,17,125.907h5.017a4.507,4.507,0,0,0,0,9.015A4.9,4.9,0,0,0,17.12,139.819Z" transform="translate(-7.162 -106.66)" fill="#fe76a8"/>
        <path id="Trazado_773608" data-name="Trazado 773608" d="M93.089,15A4.443,4.443,0,0,0,87.7,18.8q0,.026-.006.052a2.418,2.418,0,0,1-2.4,2.18H84.245a6.63,6.63,0,0,0-6.668,6.448,6.53,6.53,0,0,0,.729,3.119,6.6,6.6,0,0,0,1.947,2.278H76.289A6.6,6.6,0,0,1,74.342,30.6a6.559,6.559,0,0,1,5.828-9.567h3.554v-.945a6.082,6.082,0,0,1,5.923-6.119A5.967,5.967,0,0,1,93.089,15Z" transform="translate(-62.106 -13.631)" fill="#fe76a8"/>
        <path id="Trazado_773609" data-name="Trazado 773609" d="M49.917,249.114H43.052a6.558,6.558,0,0,1-3.867-11.854H46.05a6.558,6.558,0,0,0,3.867,11.854Z" transform="translate(-31.258 -199.202)" fill="#fe76a8"/>
        <path id="Trazado_773610" data-name="Trazado 773610" d="M82.108,21.845a.338.338,0,0,1-.249-.566,6.913,6.913,0,0,1,2.262-1.64,6.841,6.841,0,0,1,2.829-.605h3.216v-.716a6.348,6.348,0,1,1,12.7,0,.338.338,0,1,1-.676,0,5.673,5.673,0,1,0-11.345,0v1.054a.338.338,0,0,1-.338.338H86.949a6.2,6.2,0,0,0-4.592,2.025A.337.337,0,0,1,82.108,21.845Z" transform="translate(-68.886 -11.969)"/>
        <path id="Trazado_773611" data-name="Trazado 773611" d="M30.814,142.182a8.656,8.656,0,0,1-8.658-8.325H17.294a6.889,6.889,0,0,1-6.9-6.9,6.875,6.875,0,0,1,2.287-5.128,9.766,9.766,0,0,1-2.446-1.061,9.838,9.838,0,0,1,5.1-18.255h3.423a6.953,6.953,0,0,1-1.327-1.784,6.794,6.794,0,0,1-.7-2.179.338.338,0,0,1,.669-.095,6.12,6.12,0,0,0,.628,1.963,6.283,6.283,0,0,0,1.848,2.16.338.338,0,0,1-.2.61H15.34a9.121,9.121,0,0,0-5.124,1.565A9.19,9.19,0,0,0,6.9,108.79a9.168,9.168,0,0,0,6.6,12.545.338.338,0,0,1,.132.6A6.273,6.273,0,0,0,11.77,124.1a6.18,6.18,0,0,0-.514,1.364,6.248,6.248,0,0,0-.181,1.5,6.216,6.216,0,0,0,6.22,6.22h5.193a.338.338,0,0,1,.338.338,7.981,7.981,0,0,0,7.989,7.987,8.025,8.025,0,0,0,1.879-.222,7.919,7.919,0,0,0,1.717-.632.338.338,0,0,1,.305.6,8.6,8.6,0,0,1-1.864.686A8.7,8.7,0,0,1,30.814,142.182Z" transform="translate(-5.5 -83.608)"/>
        <path id="Trazado_773612" data-name="Trazado 773612" d="M75.363,109.486H65.1a.338.338,0,1,1,0-.676H75.363a6.62,6.62,0,1,0,0-13.239h-.646a.338.338,0,0,1,0-.676h.646a7.3,7.3,0,1,1,0,14.591Z" transform="translate(-54.754 -80.886)"/>
        <path id="Trazado_773613" data-name="Trazado 773613" d="M68.7,246.716a.338.338,0,0,1-.338-.338v-2.8a7.636,7.636,0,0,0-7.643-7.643H50.764a.338.338,0,0,1,0-.676h9.953a8.312,8.312,0,0,1,8.319,8.319v2.8A.338.338,0,0,1,68.7,246.716Z" transform="translate(-42.837 -197.539)"/>
        <path id="Línea_154" data-name="Línea 154" d="M2.3-1.324H-1.662A.338.338,0,0,1-2-1.662.338.338,0,0,1-1.662-2H2.3a.338.338,0,0,1,.338.338A.338.338,0,0,1,2.3-1.324Z" transform="translate(15.846 20.91)"/>
        <path id="Línea_155" data-name="Línea 155" d="M-1.662,2.32A.338.338,0,0,1-2,1.982V-1.662A.338.338,0,0,1-1.662-2a.338.338,0,0,1,.338.338V1.982A.338.338,0,0,1-1.662,2.32Z" transform="translate(18.65 47.929)"/>
        <path id="Trazado_773614" data-name="Trazado 773614" d="M166.53,211.831a.338.338,0,0,1-.316-.217,6.076,6.076,0,0,0-5.676-3.908h-.911a.338.338,0,0,1,0-.676h.911a6.708,6.708,0,0,1,3.87,1.219,6.767,6.767,0,0,1,2.437,3.123.338.338,0,0,1-.316.458Z" transform="translate(-133.311 -174.079)"/>
        <path id="Trazado_773615" data-name="Trazado 773615" d="M171.427,62.033a6.743,6.743,0,0,1-6.749-6.747.338.338,0,1,1,.676,0,6.068,6.068,0,0,0,6.073,6.072.338.338,0,0,1,0,.676Z" transform="translate(-137.789 -47.687)"/>
        <path id="Trazado_773616" data-name="Trazado 773616" d="M202.968,49.237a.338.338,0,0,1-.338-.338V18.315a6.347,6.347,0,1,1,12.695,0v.718h3.216a6.891,6.891,0,0,1,5.241,11.376q-.209.244-.439.468h3.424a9.8,9.8,0,0,1,5.5,1.681,9.868,9.868,0,0,1,3.565,4.329,9.871,9.871,0,0,1,.093,7.432.338.338,0,0,1-.629-.247,9.15,9.15,0,0,0-.931-8.478,9.193,9.193,0,0,0-4.032-3.32,9.106,9.106,0,0,0-3.567-.72h-4.345a.338.338,0,0,1-.2-.61,6.288,6.288,0,0,0,1.848-2.16,6.217,6.217,0,0,0-5.528-9.073h-3.554a.338.338,0,0,1-.338-.338V18.315a5.672,5.672,0,1,0-11.343,0V48.9A.338.338,0,0,1,202.968,49.237Z" transform="translate(-169.33 -11.967)"/>
        <path id="Trazado_773617" data-name="Trazado 773617" d="M256.126,109.486H245.867a7.3,7.3,0,1,1,0-14.591h.646a.338.338,0,1,1,0,.676h-.646a6.62,6.62,0,1,0,0,13.239h10.259a.338.338,0,0,1,0,.676Z" transform="translate(-199.2 -80.886)"/>
        <path id="Línea_156" data-name="Línea 156" d="M2.3-1.324H-1.662A.338.338,0,0,1-2-1.662.338.338,0,0,1-1.662-2H2.3a.338.338,0,0,1,.338.338A.338.338,0,0,1,2.3-1.324Z" transform="translate(50.792 20.91)"/>
        <path id="Trazado_773618" data-name="Trazado 773618" d="M202.966,62.033a.338.338,0,1,1,0-.676,6.067,6.067,0,0,0,6.073-6.072.338.338,0,1,1,.676,0,6.743,6.743,0,0,1-6.749,6.747Z" transform="translate(-169.328 -47.687)"/>
      </g>
      <g id="Grupo_1044020" data-name="Grupo 1044020" transform="translate(34.859 43.59)">
        <path id="Trazado_773619" data-name="Trazado 773619" d="M231.451,205.61h0a15.173,15.173,0,0,0-21.458,0l-1.4,1.4-1.4-1.4a15.173,15.173,0,0,0-21.458,0h0a15.173,15.173,0,0,0,0,21.458l17.56,17.56a7.487,7.487,0,0,0,10.588,0l17.56-17.56A15.173,15.173,0,0,0,231.451,205.61Z" transform="translate(-180.96 -200.828)" fill="#fd4755"/>
        <path id="Trazado_773619_-_Contorno" data-name="Trazado 773619 - Contorno" d="M194.809,199.166a15.536,15.536,0,0,1,5.837,1.136,15.436,15.436,0,0,1,2.7,1.42,15.624,15.624,0,0,1,2.433,1.987l1.158,1.158,1.158-1.158a15.623,15.623,0,0,1,2.433-1.987,15.427,15.427,0,0,1,5.573-2.272,15.555,15.555,0,0,1,8.8.852,15.435,15.435,0,0,1,2.7,1.42,15.66,15.66,0,0,1,4.42,4.42,15.428,15.428,0,0,1,2.272,5.573,15.554,15.554,0,0,1-.852,8.8,15.433,15.433,0,0,1-1.42,2.7,15.623,15.623,0,0,1-1.987,2.433l-17.56,17.56a7.819,7.819,0,0,1-11.066,0l-17.56-17.56a15.623,15.623,0,0,1-1.987-2.433,15.427,15.427,0,0,1-2.272-5.573,15.555,15.555,0,0,1,.852-8.8,15.436,15.436,0,0,1,1.42-2.7,15.66,15.66,0,0,1,4.42-4.42,15.427,15.427,0,0,1,5.573-2.272A15.619,15.619,0,0,1,194.809,199.166Zm12.126,6.657-1.636-1.636a14.947,14.947,0,0,0-2.327-1.9,14.752,14.752,0,0,0-5.329-2.172,14.879,14.879,0,0,0-8.416.815,14.758,14.758,0,0,0-2.58,1.358,14.984,14.984,0,0,0-4.229,4.229,14.752,14.752,0,0,0-2.172,5.329,14.879,14.879,0,0,0,.815,8.416,14.76,14.76,0,0,0,1.358,2.58,14.949,14.949,0,0,0,1.9,2.327l17.56,17.56a7.143,7.143,0,0,0,10.111,0l17.56-17.56a14.947,14.947,0,0,0,1.9-2.327,14.752,14.752,0,0,0,2.172-5.329,14.879,14.879,0,0,0-.815-8.416,14.757,14.757,0,0,0-1.358-2.58,14.983,14.983,0,0,0-4.229-4.229,14.751,14.751,0,0,0-5.329-2.172,14.879,14.879,0,0,0-8.416.815,14.76,14.76,0,0,0-2.58,1.358,14.947,14.947,0,0,0-2.327,1.9Z" transform="translate(-179.298 -199.166)" fill="#fe646f"/>
        <path id="Trazado_773620" data-name="Trazado 773620" d="M209.523,246.765a7.469,7.469,0,0,1-6.215-2.135l-17.56-17.56a15.174,15.174,0,0,1,14.448-25.44,15.188,15.188,0,0,0-8.531,13.658,15.109,15.109,0,0,0,2.306,8.024l13.158,21.062A7.458,7.458,0,0,0,209.523,246.765Z" transform="translate(-180.967 -200.83)" fill="#fb2b3a"/>
        <path id="Trazado_773621" data-name="Trazado 773621" d="M181.057,221.433a.338.338,0,0,1-.306-.2,15.511,15.511,0,0,1,25.028-17.528l1.158,1.158,1.158-1.158a15.625,15.625,0,0,1,2.4-1.964,15.428,15.428,0,0,1,5.488-2.271,15.564,15.564,0,0,1,8.689.737,15.442,15.442,0,0,1,5.111,3.254.338.338,0,1,1-.467.488,14.821,14.821,0,0,0-20.741.233l-1.4,1.4a.338.338,0,0,1-.478,0l-1.4-1.4a14.947,14.947,0,0,0-2.328-1.9,14.755,14.755,0,0,0-5.329-2.172,14.88,14.88,0,0,0-8.416.814,14.755,14.755,0,0,0-2.58,1.357,14.982,14.982,0,0,0-4.229,4.229,14.754,14.754,0,0,0-2.172,5.329,14.87,14.87,0,0,0,1.116,9.108.338.338,0,0,1-.306.481Z" transform="translate(-179.3 -199.167)"/>
        <path id="Trazado_773622" data-name="Trazado 773622" d="M241.75,289.979a7.8,7.8,0,0,1-5.533-2.292l-14.928-14.928a.338.338,0,0,1,.478-.478l14.928,14.928a7.143,7.143,0,0,0,10.111,0l17.56-17.56a14.851,14.851,0,0,0,3.084-16.485.338.338,0,1,1,.618-.273,15.493,15.493,0,0,1-3.224,17.236l-17.56,17.56a7.8,7.8,0,0,1-5.533,2.292Z" transform="translate(-214.113 -243.648)"/>
      </g>
      <g id="Grupo_1044021" data-name="Grupo 1044021" transform="translate(15.511 63.881)">
        <path id="Trazado_773623" data-name="Trazado 773623" d="M80.117,351.141a4.156,4.156,0,0,1-3.359-1.709l-9.2-12.627a4.156,4.156,0,1,1,6.719-4.893l5.117,7.026,7.412-15.308a4.156,4.156,0,1,1,7.481,3.622L83.858,348.8a4.156,4.156,0,0,1-3.37,2.328C80.364,351.136,80.241,351.141,80.117,351.141Z" transform="translate(-66.427 -320.946)" fill="#6fd7a3"/>
        <path id="Trazado_773624" data-name="Trazado 773624" d="M78.452,349.818a4.493,4.493,0,0,1-3.633-1.849l-9.2-12.627a4.494,4.494,0,1,1,7.266-5.29l4.784,6.57,7.167-14.8a4.494,4.494,0,1,1,8.09,3.916l-7.321,15.117A.338.338,0,0,1,85,340.56l7.321-15.117a3.818,3.818,0,1,0-6.874-3.327l-7.412,15.308a.338.338,0,0,1-.577.052l-5.115-7.026a3.818,3.818,0,1,0-6.174,4.494l9.2,12.627a3.817,3.817,0,0,0,3.087,1.571c.118,0,.231-.005.338-.015h0a3.818,3.818,0,0,0,3.1-2.139l.544-1.123a.338.338,0,1,1,.608.294l-.544,1.123a4.494,4.494,0,0,1-3.643,2.517C78.726,349.811,78.591,349.818,78.452,349.818Z" transform="translate(-64.761 -319.285)"/>
      </g>
    </g>
  </g>
</svg>
