<svg id="Grupo_988110" data-name="Grupo 988110" xmlns="http://www.w3.org/2000/svg" width="85" height="91.745" viewBox="0 0 85 91.745">
  <rect id="Rect치ngulo_34830" data-name="Rect치ngulo 34830" width="85" height="76" rx="13" fill="#3449bc"/>
  <g id="presentacion-de-negocios" transform="translate(-3.32 -35.018)">
    <rect id="Rect치ngulo_356137" data-name="Rect치ngulo 356137" width="39.568" height="24.223" rx="6.47" transform="translate(15.039 48.048)" fill="#cec5cc"/>
    <g id="Grupo_1044303" data-name="Grupo 1044303" transform="translate(12.32 44.68)">
      <path id="Trazado_774004" data-name="Trazado 774004" d="M41.376,69.69H78.191a.839.839,0,0,1,.836.836V92.118a.838.838,0,0,1-.836.836H41.376a.84.84,0,0,1-.836-.836V70.526A.84.84,0,0,1,41.376,69.69Z" transform="translate(-36.74 -66.322)" fill="#eceff0" fill-rule="evenodd"/>
      <path id="Trazado_774005" data-name="Trazado 774005" d="M287.805,242.752l9.6.013.839-12.751c2.326-.963,4.021-3.872,4.021-6.839v-7.039c0-3.788-2.724-6.887-6.053-6.887H274.136a2.738,2.738,0,0,0,0,5.43h11.821l1.848,28.074Z" transform="translate(-236.812 -187.087)" fill="#37a2d5" fill-rule="evenodd"/>
      <path id="Trazado_774006" data-name="Trazado 774006" d="M75.668,117.67c-.012-.108-.02-.22-.027-.335s-.011-.241-.011-.333a6.262,6.262,0,0,1,5.3-6.183l.7-.109V116.8l-.454.121-4.744,1.271-.688.184-.075-.71Z" transform="translate(-67.104 -101.818)" fill="#ffd460" fill-rule="evenodd"/>
      <path id="Trazado_774007" data-name="Trazado 774007" d="M83.4,180.254a5.988,5.988,0,0,1-2.734-1.169,6.056,6.056,0,0,1-1.849-2.345l-.277-.626.664-.178,4.134-1.108.739-.2v5.729Z" transform="translate(-69.622 -157.13)" fill="#e66751" fill-rule="evenodd"/>
      <path id="Trazado_774008" data-name="Trazado 774008" d="M143.828,133.716a6.822,6.822,0,0,1,.893,1.857,6.953,6.953,0,0,1,.308,2.048,6.883,6.883,0,0,1-1.564,4.39,6.44,6.44,0,0,1-3.945,2.283l-.731.117v-6.67l.193-.2,3.889-3.922.531-.535.427.625Z" transform="translate(-121.758 -121.184)" fill="#57b9e4" fill-rule="evenodd"/>
      <path id="Trazado_774009" data-name="Trazado 774009" d="M139.7,110.808a5.429,5.429,0,0,1,1.3.37,5.563,5.563,0,0,1,1.178.677l.5.378-.451.439L140,114.848l-.917.892v-5.03l.624.1Z" transform="translate(-122.009 -101.818)" fill="#60a75e" fill-rule="evenodd"/>
      <path id="Trazado_774010" data-name="Trazado 774010" d="M214.418,114.606a.808.808,0,1,1,0-1.616h8.727a.808.808,0,1,1,0,1.616Z" transform="translate(-186.502 -103.791)" fill="#a4a7aa" fill-rule="evenodd"/>
      <path id="Trazado_774011" data-name="Trazado 774011" d="M214.418,145.426a.808.808,0,0,1,0-1.616h8.727a.808.808,0,1,1,0,1.616Z" transform="translate(-186.502 -130.46)" fill="#a4a7aa" fill-rule="evenodd"/>
      <path id="Trazado_774012" data-name="Trazado 774012" d="M214.418,176.246a.808.808,0,1,1,0-1.616h8.727a.808.808,0,0,1,0,1.616Z" transform="translate(-186.502 -157.13)" fill="#a4a7aa" fill-rule="evenodd"/>
      <path id="Trazado_774013" data-name="Trazado 774013" d="M20.311,47.68H59.857a1.981,1.981,0,1,1,0,3.962H20.311a1.981,1.981,0,1,1,0-3.962Z" transform="translate(-17.521 -47.276)" fill="#f27268" fill-rule="evenodd"/>
      <g id="Grupo_1044297" data-name="Grupo 1044297" transform="translate(7.655 30.697)">
        <path id="Trazado_774014" data-name="Trazado 774014" d="M70.445,273.9A4.379,4.379,0,1,1,69.16,277,4.364,4.364,0,0,1,70.445,273.9Z" transform="translate(-69.16 -272.62)" fill="#ffd169" fill-rule="evenodd"/>
        <path id="Trazado_774015" data-name="Trazado 774015" d="M74.071,273.884a4.146,4.146,0,0,1,2.813-1.244,4.381,4.381,0,0,1,3.316,7.051c-.063.074-.129.145-.2.215a4.151,4.151,0,0,1-5.932,0,4.3,4.3,0,0,1,0-6.022Z" transform="translate(-72.344 -272.637)" fill="#fcef96" fill-rule="evenodd"/>
      </g>
      <g id="Grupo_1044298" data-name="Grupo 1044298" transform="translate(4.785 42.565)">
        <path id="Trazado_774016" data-name="Trazado 774016" d="M62.355,364.038v9.109a.719.719,0,0,1-.719.719H48.569a.719.719,0,0,1-.719-.719v-9.1a3.3,3.3,0,0,1,3.29-3.29h7.935a3.288,3.288,0,0,1,3.278,3.278Z" transform="translate(-47.85 -360.759)" fill="#ffd169" fill-rule="evenodd"/>
        <path id="Trazado_774017" data-name="Trazado 774017" d="M66.336,364.029V372.5a.693.693,0,0,1-.688.7H53.138a.693.693,0,0,1-.688-.7v-8.841a3.222,3.222,0,0,1,.925-2.26,3.283,3.283,0,0,1,.451-.38,3.283,3.283,0,0,1,1.3-.267h7.935a3.288,3.288,0,0,1,3.278,3.278Z" transform="translate(-51.831 -360.75)" fill="#fcef96" fill-rule="evenodd"/>
      </g>
      <g id="Grupo_1044299" data-name="Grupo 1044299" transform="translate(28.708 30.697)">
        <path id="Trazado_774018" data-name="Trazado 774018" d="M226.773,273.9a4.383,4.383,0,1,1-1.283,3.1A4.367,4.367,0,0,1,226.773,273.9Z" transform="translate(-225.49 -272.62)" fill="#58b0aa" fill-rule="evenodd"/>
        <path id="Trazado_774019" data-name="Trazado 774019" d="M230.654,273.9a4.141,4.141,0,0,1,2.727-1.242,4.494,4.494,0,0,1,2.916,1.277,4.322,4.322,0,0,1,0,6.2,4.454,4.454,0,0,1-.368.325,4.129,4.129,0,0,1-5.275-.535,4.316,4.316,0,0,1,0-6.022Z" transform="translate(-228.899 -272.655)" fill="#66c4ad" fill-rule="evenodd"/>
      </g>
      <g id="Grupo_1044300" data-name="Grupo 1044300" transform="translate(25.834 42.567)">
        <path id="Trazado_774020" data-name="Trazado 774020" d="M217.878,373.861l-13.009.005a.716.716,0,0,1-.716-.716h0v-9.1a3.3,3.3,0,0,1,3.291-3.291h7.938a3.285,3.285,0,0,1,3.281,3.279v9.1a.718.718,0,0,1-.719.719.468.468,0,0,1-.062,0Z" transform="translate(-204.15 -360.76)" fill="#58b0aa" fill-rule="evenodd"/>
        <path id="Trazado_774021" data-name="Trazado 774021" d="M222.162,373.2l-12.415.005a.69.69,0,0,1-.684-.7h0v-8.842a2.516,2.516,0,0,1,2.63-2.908h7.873a3.379,3.379,0,0,1,2.363.962,3.239,3.239,0,0,1,.98,2.234V372.5a.693.693,0,0,1-.685.7.489.489,0,0,1-.062,0Z" transform="translate(-208.399 -360.76)" fill="#66c4ad" fill-rule="evenodd"/>
      </g>
      <path id="Trazado_774022" data-name="Trazado 774022" d="M284.024,240.568l9.913-.189.832-12.495c2.368-.945,3.971-3.821,3.971-6.732v-6.906c0-3.717-2.773-6.756-6.163-6.756H270.109a2.674,2.674,0,0,0,0,5.326h12.033l1.881,27.75Z" transform="translate(-233.29 -185.564)" fill="#57b9e4" fill-rule="evenodd"/>
      <path id="Trazado_774023" data-name="Trazado 774023" d="M390.17,445.78h9.816l-.112,1.662-9.6-.013Z" transform="translate(-339.285 -391.763)" fill="#57b9e4" fill-rule="evenodd"/>
      <g id="Grupo_1044302" data-name="Grupo 1044302" transform="translate(51.601 10.464)">
        <path id="Trazado_774024" data-name="Trazado 774024" d="M396.714,123.615a4.215,4.215,0,1,1-1.234,2.979A4.206,4.206,0,0,1,396.714,123.615Z" transform="translate(-395.48 -122.38)" fill="#37a2d5" fill-rule="evenodd"/>
        <g id="Grupo_1044301" data-name="Grupo 1044301" transform="translate(0.361)">
          <path id="Trazado_774025" data-name="Trazado 774025" d="M399.357,123.591a4.064,4.064,0,0,1,5.788,0,4.162,4.162,0,0,1,0,5.847,4.064,4.064,0,0,1-5.788,0,4.169,4.169,0,0,1,0-5.847Z" transform="translate(-398.16 -122.38)" fill="#57b9e4" fill-rule="evenodd"/>
          <path id="Trazado_774026" data-name="Trazado 774026" d="M401.23,123.579a3.927,3.927,0,0,1,2.623-1.169,4.217,4.217,0,0,1,3.7,5.847,4.037,4.037,0,0,1-.715.983,3.934,3.934,0,0,1-5.605,0,4.032,4.032,0,0,1,0-5.662Z" transform="translate(-399.813 -122.406)" fill="#57b9e4" fill-rule="evenodd"/>
        </g>
      </g>
      <path id="Trazado_774027" data-name="Trazado 774027" d="M23.811,47.68H63.185a1.821,1.821,0,0,1,0,3.643H23.811a1.821,1.821,0,0,1,0-3.643Z" transform="translate(-20.688 -47.276)" fill="#f37f80" fill-rule="evenodd"/>
      <path id="Trazado_774028" data-name="Trazado 774028" d="M48.963,64.2H40.236a.808.808,0,1,1,0-1.616h8.727a.808.808,0,1,1,0,1.616Zm-9.535-4.959a.808.808,0,0,1,.808-.808h8.727a.808.808,0,1,1,0,1.616H40.236A.809.809,0,0,1,39.428,59.242Zm0-4.152a.808.808,0,0,1,.808-.808h8.727a.808.808,0,1,1,0,1.616H40.236A.808.808,0,0,1,39.428,55.09Zm-9.311,1.335V54.69a6.765,6.765,0,0,1,1.243.527Zm3.019-1.981a8.289,8.289,0,0,0-3.7-1.566l-.931-.144v7.515l5.388-5.237ZM30.117,67.433V61.888l3.975-3.864a6.628,6.628,0,0,1,.73,3.037A6.718,6.718,0,0,1,30.117,67.433ZM34.367,55.5l-5.866,5.7v8.183l.931-.144a8.282,8.282,0,0,0,5.482-12.972ZM26.2,63.615v3.821a6.62,6.62,0,0,1-3.69-2.832Zm-5.616.8a8.243,8.243,0,0,0,6.3,4.833l.932.144V61.51L20.2,63.55l.382.863ZM26.2,59.558l-4.7,1.261a6.725,6.725,0,0,1,4.7-6.129Zm-4.307-3.911a8.28,8.28,0,0,1,4.991-2.769l.932-.144V60.8l-7.792,2.087-.1-.94c-.03-.295-.047-.593-.047-.885a8.278,8.278,0,0,1,2.016-5.414Zm46.233.8a3.314,3.314,0,1,1-3.314,3.314A3.319,3.319,0,0,1,68.124,56.446Zm0,8.245a4.93,4.93,0,1,0-4.93-4.93A4.936,4.936,0,0,0,68.124,64.691ZM64.071,99.953l-1.8-27.333a.81.81,0,0,0-.807-.756H49.644a1.941,1.941,0,0,1,0-3.814H71.717c2.893,0,5.245,2.727,5.245,6.08V81.17a6.416,6.416,0,0,1-2.283,5.008l.885-13.452a.808.808,0,0,0-1.613-.106l-1.8,27.333ZM15.847,71.84a.03.03,0,0,0,.028.027H46.961a3.756,3.756,0,0,1-.512-1.907,3.376,3.376,0,0,1,3.194-3.523H53.8V50.258H15.847ZM15.109,46.3H54.658a1.173,1.173,0,1,1,0,2.346H15.109a1.173,1.173,0,1,1,0-2.346ZM78.578,81.173V74.134c0-4.243-3.079-7.7-6.861-7.7h-16.3V50.15a2.787,2.787,0,0,0-.758-5.47H15.109a2.788,2.788,0,0,0-.878,5.434V71.84a1.645,1.645,0,0,0,1.644,1.643H49.55v0l.094,0H60.709l1.743,26.471h-3.2a.808.808,0,1,0,0,1.616H77.258a.808.808,0,0,0,0-1.616H73.773l.774-11.776a7.833,7.833,0,0,0,4.031-7.007ZM30.9,99.954H17.82v-9.42A2.086,2.086,0,0,1,19.9,88.451h8.922a2.073,2.073,0,0,1,2.07,2.07v9.434Zm-2.07-13.12a3.69,3.69,0,0,1,3.686,3.686v10.242a.808.808,0,0,1-.808.808H17.013a.808.808,0,0,1-.808-.808V90.534a3.7,3.7,0,0,1,3.7-3.7Zm-4.468-9.987a3.314,3.314,0,1,1-3.314,3.314,3.318,3.318,0,0,1,3.314-3.314Zm0,8.245a4.93,4.93,0,1,1,4.932-4.93,4.936,4.936,0,0,1-4.932,4.93ZM51.947,99.948V90.523a2.071,2.071,0,0,0-2.07-2.07H40.956a2.086,2.086,0,0,0-2.083,2.083v9.416Zm-2.07-13.11H40.956a3.7,3.7,0,0,0-3.7,3.7v10.224a.8.8,0,0,0,.808.808l14.691-.005a.808.808,0,0,0,.807-.808V90.523a3.69,3.69,0,0,0-3.686-3.686ZM45.41,76.846a3.314,3.314,0,1,0,3.314,3.314,3.318,3.318,0,0,0-3.314-3.314Zm0,8.245a4.93,4.93,0,1,0-4.93-4.93A4.935,4.935,0,0,0,45.41,85.091Z" transform="translate(-12.32 -44.68)" fill="#282828" fill-rule="evenodd"/>
    </g>
  </g>
  <g id="Grupo_146005" data-name="Grupo 146005" transform="translate(5 60.256)">
    <path id="Trazado_113510" data-name="Trazado 113510" d="M170.02,80.962c-2.987,0-4.462-2.384-5.646-4.3-1.2-1.939-2.013-3.128-3.542-3.128s-2.341,1.189-3.538,3.128c-1.184,1.917-2.659,4.3-5.645,4.3s-4.462-2.384-5.646-4.3c-1.2-1.939-2.011-3.128-3.539-3.128s-2.339,1.189-3.538,3.128c-1.184,1.917-2.659,4.3-5.645,4.3s-4.461-2.386-5.644-4.3c-1.2-1.938-2.01-3.127-3.537-3.127s-2.338,1.189-3.537,3.127c-1.185,1.918-2.658,4.3-5.644,4.3s-4.459-2.384-5.644-4.3c-1.2-1.938-2.01-3.127-3.537-3.127a1.238,1.238,0,1,1,0-2.476c2.985,0,4.459,2.384,5.644,4.3,1.2,1.939,2.01,3.128,3.537,3.128s2.338-1.189,3.537-3.128c1.185-1.917,2.659-4.3,5.644-4.3s4.459,2.384,5.642,4.3c1.2,1.939,2.01,3.128,3.538,3.128s2.339-1.189,3.538-3.128c1.185-1.917,2.659-4.3,5.645-4.3s4.461,2.384,5.646,4.3c1.2,1.939,2.01,3.128,3.539,3.128s2.339-1.189,3.538-3.128c1.183-1.917,2.659-4.3,5.645-4.3s4.463,2.384,5.648,4.3c1.2,1.939,2.013,3.128,3.541,3.128s2.342-1.189,3.542-3.128c1.185-1.917,2.661-4.3,5.648-4.3a1.238,1.238,0,0,1,0,2.476c-1.53,0-2.342,1.189-3.542,3.128C174.483,78.577,173.009,80.962,170.02,80.962Z" transform="translate(-104.499 -71.056)" fill="#cb4dae"/>
    <path id="Trazado_113511" data-name="Trazado 113511" d="M170.02,88.625c-2.987,0-4.462-2.386-5.646-4.3-1.2-1.941-2.013-3.13-3.542-3.13s-2.341,1.189-3.538,3.128c-1.184,1.917-2.659,4.3-5.645,4.3s-4.462-2.386-5.646-4.3c-1.2-1.939-2.011-3.128-3.539-3.128s-2.339,1.189-3.538,3.128c-1.184,1.917-2.659,4.3-5.645,4.3s-4.461-2.387-5.644-4.3c-1.2-1.939-2.01-3.128-3.537-3.128s-2.338,1.189-3.537,3.128c-1.185,1.917-2.658,4.3-5.644,4.3s-4.459-2.386-5.644-4.3c-1.2-1.939-2.01-3.128-3.537-3.128a1.238,1.238,0,1,1,0-2.476c2.985,0,4.459,2.386,5.644,4.3,1.2,1.938,2.01,3.127,3.537,3.127s2.338-1.189,3.537-3.127c1.185-1.917,2.659-4.3,5.644-4.3s4.459,2.386,5.642,4.3c1.2,1.938,2.01,3.127,3.538,3.127s2.339-1.189,3.538-3.127c1.185-1.917,2.659-4.3,5.645-4.3s4.461,2.386,5.646,4.3c1.2,1.938,2.01,3.127,3.539,3.127s2.339-1.189,3.538-3.127c1.183-1.917,2.659-4.3,5.645-4.3s4.463,2.386,5.648,4.3c1.2,1.938,2.013,3.127,3.541,3.127s2.342-1.189,3.542-3.127c1.185-1.917,2.661-4.3,5.648-4.3a1.238,1.238,0,1,1,0,2.476c-1.53,0-2.342,1.189-3.542,3.128C174.483,86.239,173.009,88.625,170.02,88.625Z" transform="translate(-104.499 -67.926)" fill="#cb4dae"/>
    <path id="Trazado_113512" data-name="Trazado 113512" d="M170.02,96.286c-2.987,0-4.462-2.385-5.646-4.3-1.2-1.939-2.013-3.128-3.542-3.128s-2.341,1.189-3.538,3.128c-1.184,1.917-2.659,4.3-5.645,4.3s-4.462-2.385-5.646-4.3c-1.2-1.939-2.011-3.128-3.539-3.128s-2.339,1.189-3.538,3.128c-1.184,1.917-2.659,4.3-5.645,4.3s-4.461-2.385-5.644-4.3c-1.2-1.939-2.01-3.128-3.537-3.128s-2.338,1.189-3.537,3.128c-1.185,1.917-2.658,4.3-5.644,4.3s-4.459-2.385-5.644-4.3c-1.2-1.939-2.01-3.128-3.537-3.128a1.238,1.238,0,1,1,0-2.476c2.985,0,4.459,2.386,5.644,4.3,1.2,1.938,2.01,3.127,3.537,3.127s2.338-1.189,3.537-3.127c1.185-1.917,2.659-4.3,5.644-4.3s4.459,2.386,5.642,4.3c1.2,1.939,2.01,3.128,3.538,3.128s2.339-1.189,3.538-3.128c1.185-1.915,2.659-4.3,5.645-4.3s4.461,2.386,5.646,4.3c1.2,1.939,2.01,3.128,3.539,3.128s2.339-1.189,3.538-3.128c1.183-1.915,2.659-4.3,5.645-4.3s4.463,2.386,5.648,4.3c1.2,1.939,2.013,3.128,3.541,3.128s2.342-1.189,3.542-3.128c1.185-1.915,2.661-4.3,5.648-4.3a1.238,1.238,0,0,1,0,2.476c-1.53,0-2.342,1.189-3.542,3.128C174.483,93.9,173.009,96.286,170.02,96.286Z" transform="translate(-104.499 -64.797)" fill="#cb4dae"/>
  </g>
</svg>
