<svg xmlns="http://www.w3.org/2000/svg" width="114" height="114" viewBox="0 0 114 114">
  <g id="Grupo_1044012" data-name="Grupo 1044012" transform="translate(-193 -419)">
    <rect id="Rectángulo_34817" data-name="Rectángulo 34817" width="114" height="114" rx="13" transform="translate(193 419)" fill="#3449bc"/>
    <g id="XMLID_1_" transform="translate(199 425)">
      <g id="XMLID_3719_" transform="translate(5 5)">
        <path id="XMLID_3895_" d="M40.444,63.767c13.278,0,19.154-3.122,19.154-3.122l5.271-4.958S57.89,37.561,57.89,26.175,46.008,5,34.935,5,11.979,14.788,11.979,26.175,5,55.687,5,55.687l6.979-2.81-1.708,7.768s5.877,3.122,19.154,3.122Z" transform="translate(-5 -5)" fill="#db3429"/>
        <path id="XMLID_3894_" d="M81.32,191.1,45.692,205.222v7.346s-6.85-8.576-6.666-17.63c0,0-2.479,7.53-3.618,9.862L33.7,212.568s5.877,3.122,19.154,3.122H63.873c8.319,0,17.446-15.426,17.446-24.59" transform="translate(-28.429 -156.923)" fill="#b3271e"/>
        <path id="XMLID_3893_" d="M40.444,287H29.425v6.979L11.354,302.39A11.04,11.04,0,0,0,5,312.38V327.4H64.869V312.38a11.04,11.04,0,0,0-6.354-9.99l-18.071-8.411Z" transform="translate(-5 -235.211)" fill="#e36414"/>
        <path id="XMLID_3892_" d="M112.955,298.864s-2.755,10.174-15.977,10.174S81,298.864,81,298.864l10.468-4.885V287h11.019v6.979Z" transform="translate(-67.043 -235.211)" fill="#f7c9ab"/>
        <path id="XMLID_3891_" d="M149.019,292.381V287H138v5.381a38.027,38.027,0,0,0,5.509,2.149,38.027,38.027,0,0,0,5.509-2.149" transform="translate(-113.575 -235.211)" fill="#f3ab7d"/>
        <path id="XMLID_3890_" d="M367.428,78.223c-1.781-4.573-6.428-4.3-6.428.9s6.428,8.723,6.428,8.723,6.428-3.526,6.428-8.723-4.646-5.491-6.428-.9" transform="translate(-295.622 -62.135)" fill="#db3429"/>
        <path id="XMLID_3889_" d="M61.2,358.424l-28.7-27.933A19.355,19.355,0,0,0,18.976,325,13.983,13.983,0,0,0,6.028,344.246l5.767,14.178Z" transform="translate(-5 -266.233)" fill="#ebeae0"/>
        <path id="XMLID_3888_" d="M26.1,423.717l2.92,7.2h49.4L60.828,413.8c4,3.948,2.9,10.78,2.9,10.78-.735,2.847-12.855,3.948-18.457,3.948,0,0-17.134.165-19.173-4.812" transform="translate(-22.225 -338.725)" fill="#d7d5c1"/>
        <path id="XMLID_3887_" d="M65.355,340.3c-6.832,0-6.96,11.992-3.783,16.9s10.615,5.142,17.153,5.142,7.2-7.162,2.02-12.359c-5.2-5.2-9.4-9.678-15.39-9.678" transform="translate(-49.543 -278.723)" fill="#f7c9ab"/>
        <path id="XMLID_3886_" d="M130.983,384.642a2.3,2.3,0,0,0,1.377-.4,3.151,3.151,0,0,0,1.028-2.938l-1.818.257.918-.129-.918.129c.037.312,0,.992-.257,1.175-.239.165-1.01.11-2.332-.624l-.882,1.616a6.457,6.457,0,0,0,2.883.918" transform="translate(-105.493 -312.194)" fill="#b24e10"/>
        <path id="XMLID_3885_" d="M79.506,402.681a3.4,3.4,0,0,0,1.286-.239,4.44,4.44,0,0,0,2.406-2.883l-1.781-.459a2.607,2.607,0,0,1-1.3,1.634c-.9.349-2.075-.22-2.9-.771l-1.01,1.543a6.347,6.347,0,0,0,3.306,1.175" transform="translate(-63.124 -326.725)" fill="#b24e10"/>
        <path id="XMLID_3884_" d="M141.73,424.026l-3.306,1.194-.624-1.726,3.306-1.194Z" transform="translate(-113.412 -345.664)" fill="#e96b4e" fill-rule="evenodd"/>
        <path id="XMLID_3881_" d="M84.224,342.9c-.735,0-1.084.349-1.084.606a.444.444,0,0,0,.239.331,2.049,2.049,0,0,0,1.249.312,1.138,1.138,0,0,0,1.139-.826,1.245,1.245,0,0,0-.257-1.341,6.357,6.357,0,0,0-1.286-.9Zm-1.947,2.406a2.232,2.232,0,0,1-.955-1.8,2.662,2.662,0,0,1,2.92-2.442A20.769,20.769,0,0,0,80,339.045l.569-1.745a21.933,21.933,0,0,1,6.1,3.232,3.06,3.06,0,0,1,.845,3.4,2.982,2.982,0,0,1-2.883,2.057,4.143,4.143,0,0,1-2.351-.68" transform="translate(-66.226 -276.274)" fill="#db3429"/>
        <path id="XMLID_3880_" d="M70.625,423.789c.312.771,1.708.918,3.122.349s2.3-1.653,2-2.424c-.312-.771-1.708-.918-3.122-.349-1.414.588-2.314,1.671-2,2.424" transform="translate(-58.523 -344.618)" fill="#e25d55"/>
        <path id="XMLID_3879_" d="M153.625,393.789c.312.771,1.708.918,3.122.349s2.3-1.653,2-2.424c-.312-.771-1.708-.918-3.122-.349-1.414.588-2.314,1.671-2,2.424" transform="translate(-126.28 -320.128)" fill="#e25d55"/>
        <path id="XMLID_3878_" d="M322.511,209.894c.349-.294,3.177-2.865,3.177-6.373,0-3.728-1.341-5.05-2.626-6.1-2.094-1.726-2.149-9.568-7.842-10.854-4.389-.992-6.611,1.1-6.611,1.1A6.184,6.184,0,0,0,302.732,184c-8.54,0-13.094,11.7-15.206,13.425-1.267,1.047-2.626,2.369-2.626,6.1,0,3.508,2.828,6.079,3.177,6.373Z" transform="translate(-233.497 -151.127)" fill="#e25d55"/>
        <path id="XMLID_3876_" d="M310.692,427.509V422h7.346v5.509l10.394,3.893a6.634,6.634,0,0,1,4.3,6.207H296a6.634,6.634,0,0,1,4.3-6.207Z" transform="translate(-242.559 -345.419)" fill="#b24e10"/>
        <path id="XMLID_3875_" d="M373.223,428.611s-.735,3.857-6.611,3.857S360,428.611,360,428.611l2.938-1.1V422h7.346v5.509Z" transform="translate(-294.805 -345.419)" fill="#f3ab7d"/>
        <path id="XMLID_3874_" d="M472,332.346h2.755a3.673,3.673,0,1,0,0-7.346h-1.1Z" transform="translate(-386.237 -266.233)" fill="#f3ab7d"/>
        <path id="XMLID_3873_" d="M291.428,332.346h-2.755a3.673,3.673,0,0,1,0-7.346h1.1Z" transform="translate(-233.579 -266.233)" fill="#f3ab7d"/>
        <path id="XMLID_3872_" d="M342.22,266.646s-.551,9.807-3.948,14.086c-3.453,4.334-11.662,6.483-11.662,6.483s-8.209-2.149-11.662-6.483c-3.4-4.279-3.948-14.086-3.948-14.086,4.04,0,11.974-18.512,18.916-11.57,6.666-.9,8.264,11.57,12.3,11.57" transform="translate(-254.804 -207.879)" fill="#f7c9ab"/>
        <path id="XMLID_3870_" d="M420.346,326.1a5.939,5.939,0,0,0-3.306-1.1,7.093,7.093,0,0,0-3.306,1.065L413,328.3h5.142A2.21,2.21,0,0,0,420.346,326.1Z" transform="translate(-338.072 -266.232)" fill="#f5f4ef"/>
        <path id="XMLID_3869_" d="M339,326.1a5.939,5.939,0,0,1,3.306-1.1,7.093,7.093,0,0,1,3.306,1.065l.735,2.241H341.2A2.21,2.21,0,0,1,339,326.1Z" transform="translate(-277.662 -266.232)" fill="#f5f4ef"/>
        <path id="XMLID_3868_" d="M373.958,373.773A6.411,6.411,0,0,1,369,371.2l1.488-1.1a4.622,4.622,0,0,0,3.489,1.818h.037a4.4,4.4,0,0,0,3.434-1.818l1.488,1.1a6.452,6.452,0,0,1-4.9,2.589.139.139,0,0,0-.073-.018" transform="translate(-302.152 -303.05)" fill="#e36414"/>
        <g id="Grupo_1044011" data-name="Grupo 1044011" transform="translate(60.126 53.625)">
          <path id="XMLID_3867_" d="M333.337,299.808l-.937-1.579a8.773,8.773,0,0,1,4.554-1.23,9.059,9.059,0,0,1,4.463,1.23l-.937,1.579a6.967,6.967,0,0,0-3.526-.973,7.051,7.051,0,0,0-3.618.973" transform="translate(-332.4 -296.998)" fill="#b24e10"/>
          <path id="XMLID_3866_" d="M418.58,299.808a7.04,7.04,0,0,0-7.144,0l-.937-1.579a9,9,0,0,1,4.463-1.23,8.773,8.773,0,0,1,4.554,1.23Z" transform="translate(-396.157 -296.998)" fill="#b24e10"/>
          <path id="XMLID_3865_" d="M349,325h1.836v3.306H349Z" transform="translate(-345.951 -319.858)" fill="#b24e10" fill-rule="evenodd"/>
          <path id="XMLID_3864_" d="M355,325h1.836v3.306H355Z" transform="translate(-350.85 -319.858)" fill="#b24e10" fill-rule="evenodd"/>
          <path id="XMLID_3862_" d="M342.85,322.847c-.184-.073-.367-.165-.588-.275a4.842,4.842,0,0,0-2.406-.735,4.9,4.9,0,0,0-2.791.937L336,321.267A6.653,6.653,0,0,1,339.82,320h.037a6.711,6.711,0,0,1,3.251.937,2.638,2.638,0,0,0,.349.165Z" transform="translate(-335.339 -315.776)" fill="#b24e10"/>
          <path id="XMLID_3861_" d="M433,325h1.836v3.306H433Z" transform="translate(-414.525 -319.858)" fill="#b24e10" fill-rule="evenodd"/>
          <path id="XMLID_3859_" d="M427,325h1.836v3.306H427Z" transform="translate(-409.627 -319.858)" fill="#b24e10" fill-rule="evenodd"/>
          <path id="XMLID_3858_" d="M415.924,322.926,415.3,321.2c.055-.018.22-.11.349-.165a6.613,6.613,0,0,1,3.287-.937,6.7,6.7,0,0,1,3.82,1.267l-1.065,1.506a4.852,4.852,0,0,0-2.791-.937,4.97,4.97,0,0,0-2.406.735c-.2.092-.386.184-.569.257" transform="translate(-400.076 -315.856)" fill="#b24e10"/>
        </g>
        <path id="XMLID_3857_" d="M362.611,461.958c-6.556,0-7.474-4.408-7.511-4.61l.9-.165.9-.184c.037.129.735,3.122,5.711,3.122,5.05,0,5.711-3.085,5.711-3.1l1.8.349c-.037.184-.955,4.591-7.511,4.591" transform="translate(-290.805 -373.991)" fill="#f5f4ef"/>
        <path id="XMLID_3856_" d="M255,180.284c4.683,0,6.979-3.085,6.979-6.409S257.185,170,256.469,170Z" transform="translate(-209.088 -139.698)" fill="#f7c9ab"/>
        <path id="XMLID_3855_" d="M255.4,191.371,259.683,187s.569,6.262-4.683,7.162Z" transform="translate(-209.088 -153.576)" fill="#f3ab7d"/>
        <path id="XMLID_3854_" d="M99,100.967v18.493c4.04,4.885,12.672,7.309,12.672,7.309s9.182-2.571,13.039-7.768c3.783-5.105,4.408-17.575,4.408-17.575-7.291,0-17.446-15.426-17.446-15.426Z" transform="translate(-81.737 -71.125)" fill="#f7c9ab"/>
        <path id="XMLID_3852_" d="M111.672,91.142c2.516,4.132,11.5,10.046,17.1,10.266-7.254-.459-17.1-15.408-17.1-15.408L99,100.967v18.493l3.361-18.659c1.965-1.634,9.311-9.66,9.311-9.66" transform="translate(-81.737 -71.125)" fill="#f3ab7d"/>
        <path id="XMLID_3851_" d="M106,182.1a5.938,5.938,0,0,1,3.306-1.1,7.092,7.092,0,0,1,3.306,1.065l.735,2.24H108.2a2.21,2.21,0,0,1-2.2-2.2" transform="translate(-87.452 -148.677)" fill="#f5f4ef"/>
        <path id="XMLID_3850_" d="M197.346,182.1a5.938,5.938,0,0,0-3.306-1.1,7.092,7.092,0,0,0-3.306,1.065L190,184.3h5.142a2.21,2.21,0,0,0,2.2-2.2" transform="translate(-156.025 -148.677)" fill="#f5f4ef"/>
        <path id="XMLID_3849_" d="M142.122,245.446a7.943,7.943,0,0,1-5.822-2.516l1.377-1.23a6.224,6.224,0,0,0,4.463,1.892h.055a6.053,6.053,0,0,0,4.389-1.892l1.377,1.23a7.99,7.99,0,0,1-5.748,2.516h-.092" transform="translate(-112.187 -198.231)" fill="#e96b4e"/>
        <path id="XMLID_3848_" d="M100.337,148.81,99.4,147.23a8.781,8.781,0,0,1,4.5-1.23h.055a9.06,9.06,0,0,1,4.463,1.23l-.937,1.579a6.966,6.966,0,0,0-3.526-.973,7.051,7.051,0,0,0-3.618.973" transform="translate(-82.064 -120.106)" fill="#b24e10"/>
        <path id="XMLID_3847_" d="M116,181h1.836v3.306H116Z" transform="translate(-95.615 -148.678)" fill="#b24e10" fill-rule="evenodd"/>
        <path id="XMLID_3846_" d="M122,181h1.836v3.306H122Z" transform="translate(-100.513 -148.678)" fill="#b24e10" fill-rule="evenodd"/>
        <path id="XMLID_3845_" d="M102.735,178.938H102V177.1h.459a6.565,6.565,0,0,1,3.581-1.1,6.877,6.877,0,0,1,3.287.937,2.632,2.632,0,0,0,.349.165l-.624,1.726c-.184-.073-.367-.165-.588-.275a4.818,4.818,0,0,0-2.369-.735h-.018a4.9,4.9,0,0,0-2.791.937.942.942,0,0,1-.551.184" transform="translate(-84.186 -144.596)" fill="#b24e10"/>
        <path id="XMLID_3844_" d="M195.58,148.808a7.04,7.04,0,0,0-7.144,0l-.937-1.579a9,9,0,0,1,4.463-1.23,8.773,8.773,0,0,1,4.554,1.23Z" transform="translate(-153.984 -120.104)" fill="#b24e10"/>
        <path id="XMLID_3843_" d="M210,181h1.836v3.306H210Z" transform="translate(-172.352 -148.678)" fill="#b24e10" fill-rule="evenodd"/>
        <path id="XMLID_3842_" d="M204,181h1.836v3.306H204Z" transform="translate(-167.454 -148.678)" fill="#b24e10" fill-rule="evenodd"/>
        <path id="XMLID_3841_" d="M199.958,179.018h-.735a.957.957,0,0,1-.533-.165,4.852,4.852,0,0,0-2.791-.937h-.018a4.755,4.755,0,0,0-2.369.735,4.084,4.084,0,0,1-.588.275L192.3,177.2c.055-.018.22-.11.349-.165a6.306,6.306,0,0,1,6.868.165h.459v1.818Z" transform="translate(-157.903 -144.676)" fill="#b24e10"/>
      </g>
    </g>
  </g>
</svg>
