<svg id="Grupo_988119" data-name="Grupo 988119" xmlns="http://www.w3.org/2000/svg" width="75.949" height="64.489" viewBox="0 0 75.949 64.489">
  <g id="Grupo_146007" data-name="Grupo 146007" transform="translate(0 0)">
    <path id="Trazado_113510" data-name="Trazado 113510" d="M170.02,80.962c-2.987,0-4.462-2.384-5.646-4.3-1.2-1.939-2.013-3.128-3.542-3.128s-2.341,1.189-3.538,3.128c-1.184,1.917-2.659,4.3-5.645,4.3s-4.462-2.384-5.646-4.3c-1.2-1.939-2.011-3.128-3.539-3.128s-2.339,1.189-3.538,3.128c-1.184,1.917-2.659,4.3-5.645,4.3s-4.461-2.386-5.644-4.3c-1.2-1.938-2.01-3.127-3.537-3.127s-2.338,1.189-3.537,3.127c-1.185,1.918-2.658,4.3-5.644,4.3s-4.459-2.384-5.644-4.3c-1.2-1.938-2.01-3.127-3.537-3.127a1.238,1.238,0,1,1,0-2.476c2.985,0,4.459,2.384,5.644,4.3,1.2,1.939,2.01,3.128,3.537,3.128s2.338-1.189,3.537-3.128c1.185-1.917,2.659-4.3,5.644-4.3s4.459,2.384,5.642,4.3c1.2,1.939,2.01,3.128,3.538,3.128s2.339-1.189,3.538-3.128c1.185-1.917,2.659-4.3,5.645-4.3s4.461,2.384,5.646,4.3c1.2,1.939,2.01,3.128,3.539,3.128s2.339-1.189,3.538-3.128c1.183-1.917,2.659-4.3,5.645-4.3s4.463,2.384,5.648,4.3c1.2,1.939,2.013,3.128,3.541,3.128s2.342-1.189,3.542-3.128c1.185-1.917,2.661-4.3,5.648-4.3a1.238,1.238,0,0,1,0,2.476c-1.53,0-2.342,1.189-3.542,3.128C174.483,78.577,173.009,80.962,170.02,80.962Z" transform="translate(-104.499 -71.056)" fill="#4dcbbf"/>
    <path id="Trazado_113511" data-name="Trazado 113511" d="M170.02,88.625c-2.987,0-4.462-2.386-5.646-4.3-1.2-1.941-2.013-3.13-3.542-3.13s-2.341,1.189-3.538,3.128c-1.184,1.917-2.659,4.3-5.645,4.3s-4.462-2.386-5.646-4.3c-1.2-1.939-2.011-3.128-3.539-3.128s-2.339,1.189-3.538,3.128c-1.184,1.917-2.659,4.3-5.645,4.3s-4.461-2.387-5.644-4.3c-1.2-1.939-2.01-3.128-3.537-3.128s-2.338,1.189-3.537,3.128c-1.185,1.917-2.658,4.3-5.644,4.3s-4.459-2.386-5.644-4.3c-1.2-1.939-2.01-3.128-3.537-3.128a1.238,1.238,0,1,1,0-2.476c2.985,0,4.459,2.386,5.644,4.3,1.2,1.938,2.01,3.127,3.537,3.127s2.338-1.189,3.537-3.127c1.185-1.917,2.659-4.3,5.644-4.3s4.459,2.386,5.642,4.3c1.2,1.938,2.01,3.127,3.538,3.127s2.339-1.189,3.538-3.127c1.185-1.917,2.659-4.3,5.645-4.3s4.461,2.386,5.646,4.3c1.2,1.938,2.01,3.127,3.539,3.127s2.339-1.189,3.538-3.127c1.183-1.917,2.659-4.3,5.645-4.3s4.463,2.386,5.648,4.3c1.2,1.938,2.013,3.127,3.541,3.127s2.342-1.189,3.542-3.127c1.185-1.917,2.661-4.3,5.648-4.3a1.238,1.238,0,1,1,0,2.476c-1.53,0-2.342,1.189-3.542,3.128C174.483,86.239,173.009,88.625,170.02,88.625Z" transform="translate(-104.499 -67.926)" fill="#4dcbbf"/>
    <path id="Trazado_113512" data-name="Trazado 113512" d="M170.02,96.286c-2.987,0-4.462-2.385-5.646-4.3-1.2-1.939-2.013-3.128-3.542-3.128s-2.341,1.189-3.538,3.128c-1.184,1.917-2.659,4.3-5.645,4.3s-4.462-2.385-5.646-4.3c-1.2-1.939-2.011-3.128-3.539-3.128s-2.339,1.189-3.538,3.128c-1.184,1.917-2.659,4.3-5.645,4.3s-4.461-2.385-5.644-4.3c-1.2-1.939-2.01-3.128-3.537-3.128s-2.338,1.189-3.537,3.128c-1.185,1.917-2.658,4.3-5.644,4.3s-4.459-2.385-5.644-4.3c-1.2-1.939-2.01-3.128-3.537-3.128a1.238,1.238,0,1,1,0-2.476c2.985,0,4.459,2.386,5.644,4.3,1.2,1.938,2.01,3.127,3.537,3.127s2.338-1.189,3.537-3.127c1.185-1.917,2.659-4.3,5.644-4.3s4.459,2.386,5.642,4.3c1.2,1.939,2.01,3.128,3.538,3.128s2.339-1.189,3.538-3.128c1.185-1.915,2.659-4.3,5.645-4.3s4.461,2.386,5.646,4.3c1.2,1.939,2.01,3.128,3.539,3.128s2.339-1.189,3.538-3.128c1.183-1.915,2.659-4.3,5.645-4.3s4.463,2.386,5.648,4.3c1.2,1.939,2.013,3.128,3.541,3.128s2.342-1.189,3.542-3.128c1.185-1.915,2.661-4.3,5.648-4.3a1.238,1.238,0,0,1,0,2.476c-1.53,0-2.342,1.189-3.542,3.128C174.483,93.9,173.009,96.286,170.02,96.286Z" transform="translate(-104.499 -64.797)" fill="#4dcbbf"/>
  </g>
  <g id="Grupo_146008" data-name="Grupo 146008" transform="translate(0 33)">
    <path id="Trazado_113510-2" data-name="Trazado 113510" d="M170.02,80.962c-2.987,0-4.462-2.384-5.646-4.3-1.2-1.939-2.013-3.128-3.542-3.128s-2.341,1.189-3.538,3.128c-1.184,1.917-2.659,4.3-5.645,4.3s-4.462-2.384-5.646-4.3c-1.2-1.939-2.011-3.128-3.539-3.128s-2.339,1.189-3.538,3.128c-1.184,1.917-2.659,4.3-5.645,4.3s-4.461-2.386-5.644-4.3c-1.2-1.938-2.01-3.127-3.537-3.127s-2.338,1.189-3.537,3.127c-1.185,1.918-2.658,4.3-5.644,4.3s-4.459-2.384-5.644-4.3c-1.2-1.938-2.01-3.127-3.537-3.127a1.238,1.238,0,1,1,0-2.476c2.985,0,4.459,2.384,5.644,4.3,1.2,1.939,2.01,3.128,3.537,3.128s2.338-1.189,3.537-3.128c1.185-1.917,2.659-4.3,5.644-4.3s4.459,2.384,5.642,4.3c1.2,1.939,2.01,3.128,3.538,3.128s2.339-1.189,3.538-3.128c1.185-1.917,2.659-4.3,5.645-4.3s4.461,2.384,5.646,4.3c1.2,1.939,2.01,3.128,3.539,3.128s2.339-1.189,3.538-3.128c1.183-1.917,2.659-4.3,5.645-4.3s4.463,2.384,5.648,4.3c1.2,1.939,2.013,3.128,3.541,3.128s2.342-1.189,3.542-3.128c1.185-1.917,2.661-4.3,5.648-4.3a1.238,1.238,0,0,1,0,2.476c-1.53,0-2.342,1.189-3.542,3.128C174.483,78.577,173.009,80.962,170.02,80.962Z" transform="translate(-104.499 -71.056)" fill="#4dcbbf"/>
    <path id="Trazado_113511-2" data-name="Trazado 113511" d="M170.02,88.625c-2.987,0-4.462-2.386-5.646-4.3-1.2-1.941-2.013-3.13-3.542-3.13s-2.341,1.189-3.538,3.128c-1.184,1.917-2.659,4.3-5.645,4.3s-4.462-2.386-5.646-4.3c-1.2-1.939-2.011-3.128-3.539-3.128s-2.339,1.189-3.538,3.128c-1.184,1.917-2.659,4.3-5.645,4.3s-4.461-2.387-5.644-4.3c-1.2-1.939-2.01-3.128-3.537-3.128s-2.338,1.189-3.537,3.128c-1.185,1.917-2.658,4.3-5.644,4.3s-4.459-2.386-5.644-4.3c-1.2-1.939-2.01-3.128-3.537-3.128a1.238,1.238,0,1,1,0-2.476c2.985,0,4.459,2.386,5.644,4.3,1.2,1.938,2.01,3.127,3.537,3.127s2.338-1.189,3.537-3.127c1.185-1.917,2.659-4.3,5.644-4.3s4.459,2.386,5.642,4.3c1.2,1.938,2.01,3.127,3.538,3.127s2.339-1.189,3.538-3.127c1.185-1.917,2.659-4.3,5.645-4.3s4.461,2.386,5.646,4.3c1.2,1.938,2.01,3.127,3.539,3.127s2.339-1.189,3.538-3.127c1.183-1.917,2.659-4.3,5.645-4.3s4.463,2.386,5.648,4.3c1.2,1.938,2.013,3.127,3.541,3.127s2.342-1.189,3.542-3.127c1.185-1.917,2.661-4.3,5.648-4.3a1.238,1.238,0,1,1,0,2.476c-1.53,0-2.342,1.189-3.542,3.128C174.483,86.239,173.009,88.625,170.02,88.625Z" transform="translate(-104.499 -67.926)" fill="#4dcbbf"/>
    <path id="Trazado_113512-2" data-name="Trazado 113512" d="M170.02,96.286c-2.987,0-4.462-2.385-5.646-4.3-1.2-1.939-2.013-3.128-3.542-3.128s-2.341,1.189-3.538,3.128c-1.184,1.917-2.659,4.3-5.645,4.3s-4.462-2.385-5.646-4.3c-1.2-1.939-2.011-3.128-3.539-3.128s-2.339,1.189-3.538,3.128c-1.184,1.917-2.659,4.3-5.645,4.3s-4.461-2.385-5.644-4.3c-1.2-1.939-2.01-3.128-3.537-3.128s-2.338,1.189-3.537,3.128c-1.185,1.917-2.658,4.3-5.644,4.3s-4.459-2.385-5.644-4.3c-1.2-1.939-2.01-3.128-3.537-3.128a1.238,1.238,0,1,1,0-2.476c2.985,0,4.459,2.386,5.644,4.3,1.2,1.938,2.01,3.127,3.537,3.127s2.338-1.189,3.537-3.127c1.185-1.917,2.659-4.3,5.644-4.3s4.459,2.386,5.642,4.3c1.2,1.939,2.01,3.128,3.538,3.128s2.339-1.189,3.538-3.128c1.185-1.915,2.659-4.3,5.645-4.3s4.461,2.386,5.646,4.3c1.2,1.939,2.01,3.128,3.539,3.128s2.339-1.189,3.538-3.128c1.183-1.915,2.659-4.3,5.645-4.3s4.463,2.386,5.648,4.3c1.2,1.939,2.013,3.128,3.541,3.128s2.342-1.189,3.542-3.128c1.185-1.915,2.661-4.3,5.648-4.3a1.238,1.238,0,0,1,0,2.476c-1.53,0-2.342,1.189-3.542,3.128C174.483,93.9,173.009,96.286,170.02,96.286Z" transform="translate(-104.499 -64.797)" fill="#4dcbbf"/>
  </g>
</svg>
