<svg xmlns="http://www.w3.org/2000/svg" width="85" height="85" viewBox="0 0 85 85">
  <g id="Grupo_1044459" data-name="Grupo 1044459" transform="translate(-180 -558)">
    <rect id="Rectángulo_355956" data-name="Rectángulo 355956" width="85" height="85" rx="13" transform="translate(180 558)" fill="#3449bc"/>
    <g id="seguro-familiar" transform="translate(192 570)">
      <g id="Grupo_1044455" data-name="Grupo 1044455" transform="translate(0 0)">
        <g id="Grupo_1044450" data-name="Grupo 1044450" transform="translate(0 21.608)">
          <g id="Grupo_1044442" data-name="Grupo 1044442" transform="translate(0.907 0.907)">
            <g id="Grupo_1044435" data-name="Grupo 1044435" transform="translate(36.113 0.05)">
              <g id="Grupo_1044429" data-name="Grupo 1044429" transform="translate(0 21.671)">
                <path id="Trazado_774115" data-name="Trazado 774115" d="M300.554,340.835H293a7.759,7.759,0,0,0-7.759,7.759v5.766h23.072v-5.766A7.759,7.759,0,0,0,300.554,340.835Z" transform="translate(-285.241 -340.835)" fill="#e56ab9"/>
                <path id="Trazado_774116" data-name="Trazado 774116" d="M290.428,352.028a2.464,2.464,0,0,1-2.465-2.464v-.983a7.747,7.747,0,0,1,7.749-7.746H292.99a7.747,7.747,0,0,0-7.749,7.746v5.779h23.072v-2.332Z" transform="translate(-285.241 -340.835)" fill="#bd50b6"/>
              </g>
              <g id="Grupo_1044433" data-name="Grupo 1044433" transform="translate(2.055)">
                <g id="Grupo_1044430" data-name="Grupo 1044430">
                  <path id="Trazado_774117" data-name="Trazado 774117" d="M316.768,191.384H304.35a3.272,3.272,0,0,1-3.272-3.272v-4.768a9.481,9.481,0,0,1,18.961,0v4.768A3.272,3.272,0,0,1,316.768,191.384Z" transform="translate(-301.078 -173.863)" fill="#898989"/>
                  <path id="Trazado_774118" data-name="Trazado 774118" d="M303.93,188.112v-4.773a9.48,9.48,0,0,1,8.055-9.37,9.486,9.486,0,0,0-10.906,9.37v4.773a3.271,3.271,0,0,0,3.272,3.27H307.2A3.271,3.271,0,0,1,303.93,188.112Z" transform="translate(-301.078 -173.862)" fill="#606060"/>
                </g>
                <g id="Grupo_1044431" data-name="Grupo 1044431" transform="translate(6.253 16.488)">
                  <path id="Trazado_774119" data-name="Trazado 774119" d="M355.711,300.9h-6.455v4.308a3.228,3.228,0,1,0,6.455,0Z" transform="translate(-349.256 -300.903)" fill="#ffdecf"/>
                  <path id="Trazado_774120" data-name="Trazado 774120" d="M351.848,305.212V300.9h-2.592v4.309a3.228,3.228,0,0,0,4.524,2.955A3.227,3.227,0,0,1,351.848,305.212Z" transform="translate(-349.256 -300.903)" fill="#f9bcaa"/>
                </g>
                <g id="Grupo_1044432" data-name="Grupo 1044432" transform="translate(3.777 8.307)">
                  <path id="Trazado_774121" data-name="Trazado 774121" d="M335.885,248.952a5.7,5.7,0,0,1-5.7-5.7v-5.383h11.406v5.383A5.7,5.7,0,0,1,335.885,248.952Z" transform="translate(-330.182 -237.866)" fill="#ffdecf"/>
                  <path id="Trazado_774122" data-name="Trazado 774122" d="M332.774,243.251v-5.385h-2.592v5.385a5.7,5.7,0,0,0,7,5.551A5.7,5.7,0,0,1,332.774,243.251Z" transform="translate(-330.182 -237.866)" fill="#f9bcaa"/>
                </g>
              </g>
              <g id="Grupo_1044434" data-name="Grupo 1044434" transform="translate(7.072 28.045)">
                <path id="Trazado_774123" data-name="Trazado 774123" d="M344.582,391.758h-3.946a.907.907,0,1,1,0-1.814h3.946a.907.907,0,1,1,0,1.814Z" transform="translate(-339.729 -389.944)" fill="#fff"/>
                <path id="Trazado_774124" data-name="Trazado 774124" d="M397.247,391.758h-1.063a.907.907,0,1,1,0-1.814h1.063a.907.907,0,1,1,0,1.814Z" transform="translate(-388.068 -389.944)" fill="#fff"/>
              </g>
            </g>
            <g id="Grupo_1044441" data-name="Grupo 1044441">
              <g id="Grupo_1044436" data-name="Grupo 1044436" transform="translate(0 21.721)">
                <path id="Trazado_774125" data-name="Trazado 774125" d="M22.3,340.835H14.75a7.759,7.759,0,0,0-7.759,7.759v5.766H30.063v-5.766A7.759,7.759,0,0,0,22.3,340.835Z" transform="translate(-6.991 -340.835)" fill="#fef2a8"/>
                <path id="Trazado_774126" data-name="Trazado 774126" d="M11.787,351.9a2.073,2.073,0,0,1-2.074-2.073V348.58a7.747,7.747,0,0,1,7.749-7.746H14.74a7.747,7.747,0,0,0-7.749,7.746v5.779H30.063V351.9Z" transform="translate(-6.991 -340.834)" fill="#eeb6a8"/>
              </g>
              <g id="Grupo_1044440" data-name="Grupo 1044440" transform="translate(2.308)">
                <g id="Grupo_1044437" data-name="Grupo 1044437">
                  <path id="Trazado_774127" data-name="Trazado 774127" d="M36.281,189.672H31.723a6.949,6.949,0,0,1-6.949-6.949V182.7a9.228,9.228,0,1,1,18.456,0v.018A6.949,6.949,0,0,1,36.281,189.672Z" transform="translate(-24.774 -173.476)" fill="#898989"/>
                  <path id="Trazado_774128" data-name="Trazado 774128" d="M27.5,182.725V182.7a9.227,9.227,0,0,1,7.867-9.124A9.229,9.229,0,0,0,24.775,182.7v.025a6.948,6.948,0,0,0,6.949,6.947h2.722A6.948,6.948,0,0,1,27.5,182.725Z" transform="translate(-24.775 -173.476)" fill="#606060"/>
                </g>
                <g id="Grupo_1044438" data-name="Grupo 1044438" transform="translate(6 16.538)">
                  <path id="Trazado_774129" data-name="Trazado 774129" d="M77.461,300.9H71.006v4.308a3.228,3.228,0,1,0,6.455,0Z" transform="translate(-71.006 -300.903)" fill="#ffdecf"/>
                  <path id="Trazado_774130" data-name="Trazado 774130" d="M73.6,305.212V300.9H71.006v4.309a3.228,3.228,0,0,0,4.524,2.955A3.227,3.227,0,0,1,73.6,305.212Z" transform="translate(-71.006 -300.903)" fill="#f9bcaa"/>
                </g>
                <g id="Grupo_1044439" data-name="Grupo 1044439" transform="translate(3.525 6.082)">
                  <path id="Trazado_774131" data-name="Trazado 774131" d="M57.635,233.7a5.7,5.7,0,0,1-5.7-5.7v-5.126l4.292,1.489.1-4.023,7.01,2.534V228A5.7,5.7,0,0,1,57.635,233.7Z" transform="translate(-51.932 -220.339)" fill="#ffdecf"/>
                  <path id="Trazado_774132" data-name="Trazado 774132" d="M54.4,244.989v-4.272l-2.463-.854v5.126a5.7,5.7,0,0,0,6.935,5.566A5.7,5.7,0,0,1,54.4,244.989Z" transform="translate(-51.933 -237.329)" fill="#f9bcaa"/>
                </g>
              </g>
            </g>
          </g>
          <g id="Grupo_1044449" data-name="Grupo 1044449">
            <g id="Grupo_1044445" data-name="Grupo 1044445" transform="translate(20.26 23.923)">
              <g id="Grupo_1044443" data-name="Grupo 1044443">
                <path id="Trazado_774133" data-name="Trazado 774133" d="M169.441,356v-5.183h-6.2V356h-2.213a4.928,4.928,0,0,0-4.929,4.927v4.452h20.48v-4.452A4.928,4.928,0,0,0,171.653,356Z" transform="translate(-156.103 -350.817)" fill="#80d8ff"/>
                <path id="Trazado_774134" data-name="Trazado 774134" d="M159.862,397.924a1.3,1.3,0,0,1-1.3-1.3V395.24a4.493,4.493,0,0,1,4.494-4.492h-2.028a4.928,4.928,0,0,0-4.929,4.927v4.452h20.48v-2.2H159.862Z" transform="translate(-156.103 -385.565)" fill="#8c9eff"/>
              </g>
              <g id="Grupo_1044444" data-name="Grupo 1044444" transform="translate(5.118)">
                <path id="Trazado_774135" data-name="Trazado 774135" d="M200.658,361.225A5.211,5.211,0,0,0,205.78,356h-2.024v-5.183h-6.2V356h-2.024A5.211,5.211,0,0,0,200.658,361.225Z" transform="translate(-195.536 -350.817)" fill="#ffdecf"/>
                <path id="Trazado_774136" data-name="Trazado 774136" d="M198.128,357.556h.209a1.3,1.3,0,0,0,1.3-1.3v-5.442H197.56V356h-2.024a5.253,5.253,0,0,0,3.96,5.085A5.269,5.269,0,0,1,198.128,357.556Z" transform="translate(-195.536 -350.818)" fill="#f9bcaa"/>
              </g>
            </g>
            <g id="Grupo_1044448" data-name="Grupo 1044448">
              <g id="Grupo_1044446" data-name="Grupo 1044446" transform="translate(23.889 13.664)">
                <ellipse id="Elipse_5009" data-name="Elipse 5009" cx="6.611" cy="6.608" rx="6.611" ry="6.608" transform="translate(0 0)" fill="#ffdecf"/>
                <path id="Trazado_774137" data-name="Trazado 774137" d="M186.529,278.375a6.609,6.609,0,0,1,5.379-6.492,6.608,6.608,0,1,0,0,12.983A6.609,6.609,0,0,1,186.529,278.375Z" transform="translate(-184.066 -271.767)" fill="#f9bcaa"/>
              </g>
              <g id="Grupo_1044447" data-name="Grupo 1044447">
                <path id="Trazado_774138" data-name="Trazado 774138" d="M220.177,271.768a6.6,6.6,0,0,0-2.211.38l.445,1.552a8.674,8.674,0,0,0,8.179,6.282,6.61,6.61,0,0,0-6.413-8.213Z" transform="translate(-189.677 -258.104)" fill="#898989"/>
                <path id="Trazado_774139" data-name="Trazado 774139" d="M220.225,272.423l-.181-.633a6.6,6.6,0,0,0-2.078.377l.445,1.552A8.674,8.674,0,0,0,226.59,280a6.624,6.624,0,0,0,.194-1.48A8.673,8.673,0,0,1,220.225,272.423Z" transform="translate(-189.677 -258.123)" fill="#606060"/>
                <path id="Trazado_774140" data-name="Trazado 774140" d="M52.692,188.219v-1.93c.162-.13.317-.27.466-.415h1.608a4.183,4.183,0,0,0,4.179-4.177v-4.773a10.388,10.388,0,0,0-20.776,0V181.7a4.183,4.183,0,0,0,4.179,4.177h1.608c.149.145.3.284.466.415v1.929a8.671,8.671,0,0,0-8.037,6.5c-.189-.018-.38-.029-.574-.029H34.505v-1.573a7.518,7.518,0,1,0-8.011,0v1.573H25.189c-.195,0-.387.01-.577.029a8.668,8.668,0,0,0-8.034-6.5v-1.931a6.638,6.638,0,0,0,2.057-2.839,7.855,7.855,0,0,0,3.943-6.829,10.135,10.135,0,0,0-20.271,0,7.858,7.858,0,0,0,3.944,6.832,6.639,6.639,0,0,0,2.056,2.835v1.934A8.661,8.661,0,0,0,0,196.863v5.779a.907.907,0,0,0,.907.907H19.353v1.425a.907.907,0,0,0,.907.907H40.74a.907.907,0,0,0,.907-.907v-1.425H60.093a.907.907,0,0,0,.907-.907v-5.779A8.664,8.664,0,0,0,52.692,188.219ZM42.63,184.06h-.282a2.366,2.366,0,0,1-2.364-2.363v-4.773a8.573,8.573,0,0,1,17.147,0V181.7a2.367,2.367,0,0,1-2.364,2.363h-.282a6.558,6.558,0,0,0,.683-2.922v-5.385a.907.907,0,0,0-.907-.907H42.853a.907.907,0,0,0-.907.907v5.385A6.56,6.56,0,0,0,42.63,184.06Zm1.131-2.922V176.66h9.592v4.478a4.8,4.8,0,0,1-9.592,0Zm7.116,6.187v.919a2.32,2.32,0,0,1-4.641,0v-.919a6.6,6.6,0,0,0,4.641,0ZM36.2,186.761a5.714,5.714,0,0,1-.038.648,7.72,7.72,0,0,1-6.559-5.574l-.192-.67a5.7,5.7,0,0,1,6.789,5.6Zm-11.407,0a5.7,5.7,0,0,1,2.91-4.967l.155.541a9.522,9.522,0,0,0,7.8,6.838,5.7,5.7,0,0,1-10.87-2.411ZM27.4,196.5a.907.907,0,0,0,.907-.907v-1.646a7.514,7.514,0,0,0,4.381,0V195.6a.907.907,0,0,0,.907.907h1.019a4.19,4.19,0,0,1-8.234,0ZM5.833,176.012v4.834a6.015,6.015,0,0,1-1.71-4.226,8.321,8.321,0,0,1,16.641,0,6.013,6.013,0,0,1-1.71,4.225v-4.834a.907.907,0,0,0-.6-.853l-7.01-2.534a.913.913,0,0,0-1.216.829l-.072,2.783-3.12-1.082A.936.936,0,0,0,5.833,176.012Zm1.815,5.126v-3.851l3.087,1.071a.913.913,0,0,0,1.2-.833l.072-2.766,5.228,1.89v4.49a4.8,4.8,0,0,1-9.592,0Zm7.116,6.187v.919a2.32,2.32,0,0,1-4.641,0v-.919a6.6,6.6,0,0,0,4.641,0Zm4.589,13.2v1.212H1.815v-4.872a6.848,6.848,0,0,1,6.841-6.839h.056a4.135,4.135,0,0,0,7.463,0h.056a6.851,6.851,0,0,1,6.628,5.151A5.842,5.842,0,0,0,19.353,200.522Zm20.48,3.545H21.168v-3.545a4.027,4.027,0,0,1,3.377-3.968,6.014,6.014,0,0,0,11.91,0,4.027,4.027,0,0,1,3.377,3.968v3.545Zm19.353-2.332H41.647v-1.212a5.842,5.842,0,0,0-3.5-5.347,6.85,6.85,0,0,1,6.627-5.152h.056a4.135,4.135,0,0,0,7.463,0h.056a6.848,6.848,0,0,1,6.841,6.839Z" transform="translate(0 -166.489)" fill="#310e31"/>
              </g>
            </g>
          </g>
        </g>
        <g id="Grupo_1044454" data-name="Grupo 1044454" transform="translate(18.801 0)">
          <g id="Grupo_1044451" data-name="Grupo 1044451">
            <path id="Trazado_774141" data-name="Trazado 774141" d="M151.874,10.44v8.7a12.87,12.87,0,0,0,10.789,12.688,12.87,12.87,0,0,0,10.789-12.688v-8.7a1.626,1.626,0,0,0-.984-1.493,24.8,24.8,0,0,0-19.609,0,1.626,1.626,0,0,0-.984,1.493Z" transform="translate(-150.964 -6.028)" fill="#78eac4"/>
            <path id="Trazado_774142" data-name="Trazado 774142" d="M154.6,19.143V13.024a2.59,2.59,0,0,1,1.646-2.415,24.932,24.932,0,0,1,17.19-.395,1.626,1.626,0,0,0-.968-1.267,24.8,24.8,0,0,0-19.609,0,1.626,1.626,0,0,0-.984,1.493v8.7a12.87,12.87,0,0,0,10.789,12.688,13,13,0,0,0,1.363-.3A12.864,12.864,0,0,1,154.6,19.143Z" transform="translate(-150.964 -6.028)" fill="#71afc4"/>
            <path id="Trazado_774143" data-name="Trazado 774143" d="M156.561,26.711a13.824,13.824,0,0,1-11.7-13.6v-8.7A2.532,2.532,0,0,1,146.4,2.086a25.808,25.808,0,0,1,20.328,0,2.531,2.531,0,0,1,1.533,2.326v8.7A13.824,13.824,0,0,1,156.561,26.711Zm0-24.9a23.9,23.9,0,0,0-9.445,1.938.717.717,0,0,0-.435.659v8.7a11.92,11.92,0,0,0,9.88,11.767,11.92,11.92,0,0,0,9.88-11.767v-8.7a.717.717,0,0,0-.435-.659,23.9,23.9,0,0,0-9.445-1.939Z" transform="translate(-144.862 0)" fill="#310e31"/>
          </g>
          <g id="Grupo_1044453" data-name="Grupo 1044453" transform="translate(4.431 4.846)">
            <g id="Grupo_1044452" data-name="Grupo 1044452">
              <ellipse id="Elipse_5010" data-name="Elipse 5010" cx="6.36" cy="6.356" rx="6.36" ry="6.356" transform="translate(0.909 0.908)" fill="#fff"/>
              <path id="Trazado_774144" data-name="Trazado 774144" d="M194.046,63.334a6.355,6.355,0,0,1-5.416-9.687,6.357,6.357,0,1,0,9.145,8.479A6.331,6.331,0,0,1,194.046,63.334Z" transform="translate(-185.09 -51.531)" fill="#cecece"/>
              <path id="Trazado_774145" data-name="Trazado 774145" d="M186.267,51.868a7.264,7.264,0,1,1,7.268-7.264A7.274,7.274,0,0,1,186.267,51.868Zm0-12.712a5.448,5.448,0,1,0,5.451,5.448A5.456,5.456,0,0,0,186.267,39.157Z" transform="translate(-178.999 -37.341)" fill="#310e31"/>
            </g>
            <path id="Trazado_774146" data-name="Trazado 774146" d="M217.062,72.4h-1.168V71.228a.909.909,0,0,0-1.817,0V72.4h-1.168a.908.908,0,1,0,0,1.816h1.168v1.167a.909.909,0,0,0,1.817,0V74.211h1.168a.908.908,0,1,0,0-1.816Z" transform="translate(-207.717 -66.04)" fill="#310e31"/>
          </g>
        </g>
      </g>
      <g id="Grupo_1044458" data-name="Grupo 1044458" transform="translate(2.585 5.882)">
        <g id="Grupo_1044456" data-name="Grupo 1044456">
          <circle id="Elipse_5011" data-name="Elipse 5011" cx="1.038" cy="1.038" r="1.038" transform="translate(0 10.351)" fill="#e56ab9"/>
          <path id="XMLID_147_" d="M44.555,45.552l.927,1.7,1.7.928a.444.444,0,0,1,0,.779l-1.7.928-.927,1.7a.445.445,0,0,1-.78,0l-.927-1.7-1.7-.928a.444.444,0,0,1,0-.779l1.7-.928.927-1.7A.444.444,0,0,1,44.555,45.552Z" transform="translate(-38.194 -45.32)" fill="#ff88db"/>
        </g>
        <g id="Grupo_1044457" data-name="Grupo 1044457" transform="translate(49.07 0.007)">
          <circle id="Elipse_5012" data-name="Elipse 5012" cx="1.038" cy="1.038" r="1.038" transform="translate(4.684 11.538)" fill="#e56ab9"/>
          <path id="XMLID_146_" d="M400.852,45.607l-.927,1.7-1.7.928a.444.444,0,0,0,0,.779l1.7.928.927,1.7a.445.445,0,0,0,.78,0l.927-1.7,1.7-.928a.444.444,0,0,0,0-.779l-1.7-.928-.927-1.7A.444.444,0,0,0,400.852,45.607Z" transform="translate(-397.997 -45.376)" fill="#ff88db"/>
        </g>
      </g>
    </g>
  </g>
</svg>
