<svg xmlns="http://www.w3.org/2000/svg" width="88" height="88" viewBox="0 0 88 88">
  <g id="Grupo_1043381" data-name="Grupo 1043381" transform="translate(-915 -13386)">
    <g id="Grupo_1043090" data-name="Grupo 1043090" transform="translate(915 13386)">
      <rect id="Rectángulo_33830" data-name="Rectángulo 33830" width="88" height="88" rx="12" fill="#fabf40"/>
    </g>
    <g id="historial-medico" transform="translate(929.215 13402.935)">
      <path id="Trazado_771516" data-name="Trazado 771516" d="M85.02,50.441V98H52.527v5.557h38.05V50.441Z" transform="translate(-46.264 -44.178)" fill="#3bc192"/>
      <path id="Trazado_771517" data-name="Trazado 771517" d="M52.527,100.923h35.46V50.441H85.02V98H52.527Z" transform="translate(-46.264 -44.178)" fill="#bae9d9"/>
      <rect id="Rectángulo_355661" data-name="Rectángulo 355661" width="38.05" height="53.119" transform="translate(0.706 0.706)" fill="#fff"/>
      <path id="Trazado_771518" data-name="Trazado 771518" d="M7.775,5.689h38.05V58.808" transform="translate(-7.069 -4.983)" fill="#fff6e2"/>
      <g id="Grupo_1042938" data-name="Grupo 1042938" transform="translate(0)">
        <path id="Trazado_771519" data-name="Trazado 771519" d="M40.842,54.532H2.792a.724.724,0,0,1-.706-.706V.706A.724.724,0,0,1,2.792,0h38.05a.724.724,0,0,1,.706.706V53.826A.724.724,0,0,1,40.842,54.532ZM3.5,53.119H40.136V1.413H3.5Z" transform="translate(-2.086)" fill="#33363a"/>
        <path id="Trazado_771520" data-name="Trazado 771520" d="M169.529,65.887H156.013a.706.706,0,1,1,0-1.413h13.515a.706.706,0,0,1,0,1.413Z" transform="translate(-136.282 -56.468)" fill="#33363a"/>
        <path id="Trazado_771521" data-name="Trazado 771521" d="M157.425,108.364h-1.413a.706.706,0,1,1,0-1.413h1.413a.706.706,0,0,1,0,1.413Z" transform="translate(-136.281 -93.671)" fill="#33363a"/>
        <path id="Trazado_771522" data-name="Trazado 771522" d="M199.413,108.364h-3.579a.706.706,0,0,1,0-1.413h3.579a.706.706,0,1,1,0,1.413Z" transform="translate(-171.159 -93.671)" fill="#33363a"/>
        <path id="Trazado_771523" data-name="Trazado 771523" d="M254.9,108.364h-1.413a.706.706,0,1,1,0-1.413H254.9a.706.706,0,0,1,0,1.413Z" transform="translate(-221.649 -93.671)" fill="#33363a"/>
        <path id="Trazado_771524" data-name="Trazado 771524" d="M169.529,151.22H156.013a.706.706,0,1,1,0-1.413h13.515a.706.706,0,0,1,0,1.413Z" transform="translate(-136.282 -131.206)" fill="#33363a"/>
        <path id="Trazado_771525" data-name="Trazado 771525" d="M48.578,193.7H47.165a.706.706,0,1,1,0-1.413h1.413a.706.706,0,1,1,0,1.413Z" transform="translate(-40.949 -168.409)" fill="#33363a"/>
        <path id="Trazado_771526" data-name="Trazado 771526" d="M99,193.7H96.314a.706.706,0,1,1,0-1.413H99a.706.706,0,1,1,0,1.413Zm-5.415,0H90.9a.706.706,0,1,1,0-1.413h2.684a.724.724,0,0,1,.706.706A.694.694,0,0,1,93.582,193.7Zm-5.368,0H85.53a.706.706,0,1,1,0-1.413h2.684a.724.724,0,0,1,.706.706A.694.694,0,0,1,88.214,193.7Zm-5.368,0H80.161a.706.706,0,1,1,0-1.413h2.684a.706.706,0,1,1,0,1.413Z" transform="translate(-69.848 -168.409)" fill="#33363a"/>
        <path id="Trazado_771527" data-name="Trazado 771527" d="M254.9,193.7h-1.413a.706.706,0,1,1,0-1.413H254.9a.706.706,0,0,1,0,1.413Z" transform="translate(-221.649 -168.409)" fill="#33363a"/>
        <path id="Trazado_771528" data-name="Trazado 771528" d="M74.2,236.554H47.165a.706.706,0,1,1,0-1.413H74.2a.706.706,0,1,1,0,1.413Z" transform="translate(-40.949 -205.944)" fill="#33363a"/>
        <path id="Trazado_771529" data-name="Trazado 771529" d="M48.578,279.41H47.165a.706.706,0,0,1,0-1.413h1.413a.706.706,0,0,1,0,1.413Z" transform="translate(-40.949 -243.479)" fill="#33363a"/>
        <path id="Trazado_771530" data-name="Trazado 771530" d="M99,279.41H96.314a.706.706,0,1,1,0-1.413H99a.706.706,0,1,1,0,1.413Zm-5.415,0H90.9a.706.706,0,0,1,0-1.413h2.684a.724.724,0,0,1,.706.706A.694.694,0,0,1,93.582,279.41Zm-5.368,0H85.53a.706.706,0,1,1,0-1.413h2.684a.724.724,0,0,1,.706.706A.694.694,0,0,1,88.214,279.41Zm-5.368,0H80.161a.706.706,0,1,1,0-1.413h2.684a.706.706,0,1,1,0,1.413Z" transform="translate(-69.848 -243.479)" fill="#33363a"/>
        <path id="Trazado_771531" data-name="Trazado 771531" d="M254.9,279.41h-1.413a.706.706,0,0,1,0-1.413H254.9a.706.706,0,0,1,0,1.413Z" transform="translate(-221.649 -243.479)" fill="#33363a"/>
        <path id="Trazado_771532" data-name="Trazado 771532" d="M74.2,321.887H47.165a.706.706,0,0,1,0-1.413H74.2a.706.706,0,0,1,0,1.413Z" transform="translate(-40.949 -280.682)" fill="#33363a"/>
        <path id="Trazado_771533" data-name="Trazado 771533" d="M48.578,364.743H47.165a.706.706,0,1,1,0-1.413h1.413a.706.706,0,1,1,0,1.413Z" transform="translate(-40.949 -318.216)" fill="#33363a"/>
        <path id="Trazado_771534" data-name="Trazado 771534" d="M99,364.743H96.314a.706.706,0,1,1,0-1.413H99a.706.706,0,1,1,0,1.413Zm-5.415,0H90.9a.706.706,0,1,1,0-1.413h2.684a.724.724,0,0,1,.706.706A.694.694,0,0,1,93.582,364.743Zm-5.368,0H85.53a.706.706,0,1,1,0-1.413h2.684a.724.724,0,0,1,.706.706A.694.694,0,0,1,88.214,364.743Zm-5.368,0H80.161a.706.706,0,1,1,0-1.413h2.684a.706.706,0,1,1,0,1.413Z" transform="translate(-69.848 -318.216)" fill="#33363a"/>
        <path id="Trazado_771535" data-name="Trazado 771535" d="M254.9,364.743h-1.413a.706.706,0,1,1,0-1.413H254.9a.706.706,0,0,1,0,1.413Z" transform="translate(-221.649 -318.216)" fill="#33363a"/>
        <path id="Trazado_771536" data-name="Trazado 771536" d="M85.594,99.284H47.544a.724.724,0,0,1-.706-.706V93.021a.724.724,0,0,1,.706-.706H79.331V45.458a.724.724,0,0,1,.706-.706h5.557a.724.724,0,0,1,.706.706V98.578A.724.724,0,0,1,85.594,99.284ZM48.251,97.871H84.888V46.165H80.744V93.021a.724.724,0,0,1-.706.706H48.251Z" transform="translate(-41.281 -39.195)" fill="#33363a"/>
      </g>
      <path id="Trazado_771537" data-name="Trazado 771537" d="M58.8,69.8H55.033V66.036a.422.422,0,0,0-.424-.424H51.454a.422.422,0,0,0-.424.424V69.8H47.263a.422.422,0,0,0-.424.424v3.155a.422.422,0,0,0,.424.424H51.03v3.767a.422.422,0,0,0,.424.424h3.155a.422.422,0,0,0,.424-.424V73.806H58.8a.422.422,0,0,0,.424-.424V70.227A.422.422,0,0,0,58.8,69.8Z" transform="translate(-41.282 -57.465)" fill="#fabf40"/>
      <path id="Trazado_771538" data-name="Trazado 771538" d="M58.8,69.8H55.033V66.036a.422.422,0,0,0-.424-.424H51.454a.422.422,0,0,0-.424.424V69.8H47.263a.422.422,0,0,0-.424.424v1.554H59.318V70.227A.6.6,0,0,0,58.8,69.8Z" transform="translate(-41.282 -57.465)" fill="#fabf40"/>
      <g id="Grupo_1042939" data-name="Grupo 1042939" transform="translate(4.85 7.44)">
        <path id="Trazado_771539" data-name="Trazado 771539" d="M49.626,73.721H46.471a1.146,1.146,0,0,1-1.13-1.13V69.53H42.28a1.146,1.146,0,0,1-1.13-1.13V65.244a1.146,1.146,0,0,1,1.13-1.13h3.061V61.053a1.146,1.146,0,0,1,1.13-1.13h3.155a1.146,1.146,0,0,1,1.13,1.13v3.061h3.061a1.146,1.146,0,0,1,1.13,1.13V68.4a1.146,1.146,0,0,1-1.13,1.13H50.757v3.061A1.146,1.146,0,0,1,49.626,73.721Zm-2.873-1.413h2.59V68.823a.724.724,0,0,1,.706-.706h3.485v-2.59H50.05a.724.724,0,0,1-.706-.706V61.336h-2.59v3.485a.724.724,0,0,1-.706.706H42.563v2.59h3.485a.724.724,0,0,1,.706.706v3.485Z" transform="translate(-41.15 -59.923)" fill="#33363a"/>
        <rect id="Rectángulo_355662" data-name="Rectángulo 355662" width="1.931" height="8.005" transform="matrix(0.707, 0.707, -0.707, 0.707, 52.693, 7.949)" fill="#33363a"/>
        <path id="Trazado_771540" data-name="Trazado 771540" d="M416.412,126.592a.708.708,0,0,1-.518-.188l-1.366-1.366a.708.708,0,0,1-.188-.518.987.987,0,0,1,.188-.518l5.651-5.651a.683.683,0,0,1,.989,0l1.366,1.366a.708.708,0,0,1,.188.518.988.988,0,0,1-.188.518l-5.651,5.651A.6.6,0,0,1,416.412,126.592Zm-.377-2.072.377.377,4.662-4.662-.377-.377Z" transform="translate(-368.002 -110.91)" fill="#33363a"/>
      </g>
      <path id="SVGCleanerId_0" d="M159.788,186.4a3.166,3.166,0,0,1-2.355-.989,3.3,3.3,0,0,1,0-4.709l29.9-29.9a3.33,3.33,0,0,1,4.709,4.709l-29.9,29.9A3.53,3.53,0,0,1,159.788,186.4Zm29.9-35.224a1.966,1.966,0,0,0-1.366.565l-29.9,29.9a1.931,1.931,0,0,0,2.731,2.731h0l29.9-29.9a1.933,1.933,0,0,0,0-2.731A2.313,2.313,0,0,0,189.691,151.173Z" transform="translate(-137.278 -131.207)" fill="#33363a"/>
      <path id="Trazado_771541" data-name="Trazado 771541" d="M166.441,189.707a2.615,2.615,0,0,1-3.72,0h0a2.615,2.615,0,0,1,0-3.72l29.9-29.9a2.615,2.615,0,0,1,3.72,0h0a2.615,2.615,0,0,1,0,3.72Z" transform="translate(-142.095 -136.023)" fill="#474c51"/>
      <path id="Trazado_771542" data-name="Trazado 771542" d="M201.825,161.564h0a2.615,2.615,0,0,1,0,3.72l-29.9,29.9a2.615,2.615,0,0,1-3.72,0h0" transform="translate(-147.576 -141.503)" fill="#33363a"/>
      <g id="Grupo_1042940" data-name="Grupo 1042940" transform="translate(19.166 18.601)">
        <path id="SVGCleanerId_0_1_" d="M159.788,186.4a3.166,3.166,0,0,1-2.355-.989,3.3,3.3,0,0,1,0-4.709l29.9-29.9a3.33,3.33,0,0,1,4.709,4.709l-29.9,29.9A3.53,3.53,0,0,1,159.788,186.4Zm29.9-35.224a1.966,1.966,0,0,0-1.366.565l-29.9,29.9a1.931,1.931,0,0,0,2.731,2.731h0l29.9-29.9a1.933,1.933,0,0,0,0-2.731A2.313,2.313,0,0,0,189.691,151.173Z" transform="translate(-156.445 -149.808)" fill="#33363a"/>
      </g>
      <path id="Trazado_771543" data-name="Trazado 771543" d="M132.615,406.566,128,414.76l8.194-4.568Z" transform="translate(-112.366 -356.084)" fill="#bfdee2"/>
      <path id="Trazado_771544" data-name="Trazado 771544" d="M133.981,417.564,128,424.392l8.194-4.568Z" transform="translate(-112.366 -365.716)" fill="#71abff"/>
      <path id="Trazado_771545" data-name="Trazado 771545" d="M122.862,410.4a.988.988,0,0,1-.518-.188.649.649,0,0,1-.094-.848l4.615-8.194a.729.729,0,0,1,.518-.377.741.741,0,0,1,.612.188l3.579,3.626a.7.7,0,0,1,.188.612.625.625,0,0,1-.377.518l-8.194,4.568A.871.871,0,0,1,122.862,410.4Zm4.756-7.723-2.92,5.18,5.18-2.873Z" transform="translate(-107.227 -351.015)" fill="#33363a"/>
      <path id="Trazado_771546" data-name="Trazado 771546" d="M308.946,217.491a.708.708,0,0,1-.518-.188.683.683,0,0,1,0-.989l12.9-12.95a2.112,2.112,0,0,0,.659-1.46,2.216,2.216,0,0,0-.659-1.554,2.111,2.111,0,0,0-1.46-.659,2.216,2.216,0,0,0-1.554.659l-12.95,12.95a.7.7,0,0,1-.989-.989l12.95-12.95a3.342,3.342,0,0,1,2.543-1.036,3.286,3.286,0,0,1,2.449,1.083,3.639,3.639,0,0,1,1.036,2.543,3.286,3.286,0,0,1-1.083,2.449l-12.9,12.95C309.323,217.444,309.134,217.491,308.946,217.491Z" transform="translate(-266.658 -173.696)" fill="#33363a"/>
    </g>
  </g>
</svg>
