<svg xmlns="http://www.w3.org/2000/svg" width="85" height="85" viewBox="0 0 85 85">
  <g id="Grupo_1044044" data-name="Grupo 1044044" transform="translate(-180 -2139)">
    <rect id="Rectángulo_34827" data-name="Rectángulo 34827" width="85" height="85" rx="13" transform="translate(180 2139)" fill="#b8bfe8"/>
    <g id="saludable" transform="translate(116.427 2141.999)">
      <g id="Grupo_1044042" data-name="Grupo 1044042" transform="translate(84.073 7.5)">
        <path id="Trazado_773654" data-name="Trazado 773654" d="M187.132,292.02h-8.324l-3.661-16.872-3.661,16.872h-8.324l4.066-23.508h15.839Z" transform="translate(-152.952 -234.816)" fill="#60b7ff"/>
        <path id="Trazado_773655" data-name="Trazado 773655" d="M203.521,319.913h1.434l-3.661,16.873h-3.906l3.137-14.457A3.066,3.066,0,0,1,203.521,319.913Z" transform="translate(-182.759 -279.581)" fill="#26a6fe"/>
        <path id="Trazado_773656" data-name="Trazado 773656" d="M295.062,292.02h-3.906l-4.066-23.508H291Z" transform="translate(-260.882 -234.816)" fill="#26a6fe"/>
        <path id="Trazado_773657" data-name="Trazado 773657" d="M223.2,19.28h0a4.862,4.862,0,0,1-4.862-4.862V12.182a3.751,3.751,0,0,1,3.751-3.751h2.221a3.751,3.751,0,0,1,3.751,3.751v2.235A4.862,4.862,0,0,1,223.2,19.28Z" transform="translate(-201.001 -8.311)" fill="#ffdfcf"/>
        <path id="Trazado_773658" data-name="Trazado 773658" d="M247.684,12.182V14.32a4.926,4.926,0,0,1-4.84,4.96,4.837,4.837,0,0,1-1.976-.409,4.862,4.862,0,0,0,2.91-4.454v-3.3c0-1.482-.586-2.683-2.068-2.683h2.222A3.751,3.751,0,0,1,247.684,12.182Z" transform="translate(-220.627 -8.311)" fill="#ffcebf"/>
        <path id="Trazado_773659" data-name="Trazado 773659" d="M188.2,92.437l-3.035,3.034a2.886,2.886,0,0,0-.846,2.041V111.87H168.483V97.512a2.886,2.886,0,0,0-.845-2.041L164.6,92.437l4.408-4.408,1.473,1.473a8.37,8.37,0,0,0,5.918,2.451h0a8.37,8.37,0,0,0,5.917-2.45l1.475-1.474Z" transform="translate(-154.207 -77.633)" fill="#fee97d"/>
        <path id="Trazado_773660" data-name="Trazado 773660" d="M294.877,109l-3.035,3.035a2.885,2.885,0,0,0-.846,2.041v14.357H287.09V114.077a2.885,2.885,0,0,1,.846-2.041l4.988-4.988Z" transform="translate(-260.881 -94.197)" fill="#fedf30"/>
        <circle id="Elipse_4984" data-name="Elipse 4984" cx="10.787" cy="10.787" r="10.787" transform="translate(11.409 18.759)" fill="#70d162"/>
        <path id="Trazado_773661" data-name="Trazado 773661" d="M253.612,163.591a10.8,10.8,0,0,1-12.739,10.61,10.79,10.79,0,0,0,0-21.222,10.8,10.8,0,0,1,12.739,10.612Z" transform="translate(-220.63 -134.045)" fill="#58c945"/>
        <path id="Trazado_773662" data-name="Trazado 773662" d="M206.8,206.545l-2.141-2.141a1.941,1.941,0,0,0-2.746,0h0a1.941,1.941,0,0,0,0,2.746l3.685,3.685a2.135,2.135,0,0,0,3.019,0l5.6-5.6a1.941,1.941,0,0,0,0-2.746h0a1.941,1.941,0,0,0-2.746,0l-4.057,4.057A.436.436,0,0,1,206.8,206.545Z" transform="translate(-186.201 -176.82)" fill="#dcf5f8"/>
        <path id="Trazado_773663" data-name="Trazado 773663" d="M327.152,12.821,317.67,22.3,313.262,17.9l9.482-9.483a3.117,3.117,0,1,1,4.408,4.408Z" transform="translate(-283.674 -7.5)" fill="#ffdfcf"/>
        <path id="Trazado_773664" data-name="Trazado 773664" d="M343.714,12.824l-9.482,9.483-1.953-1.953,7.529-7.53a3.117,3.117,0,0,0,0-4.408,2.933,2.933,0,0,0-.251-.225,3.117,3.117,0,0,1,4.157,4.633Z" transform="translate(-300.236 -7.502)" fill="#ffcebf"/>
        <path id="Trazado_773665" data-name="Trazado 773665" d="M98.878,17.9,94.47,22.3l-9.483-9.483a3.117,3.117,0,0,1,4.408-4.408Z" transform="translate(-84.073 -7.5)" fill="#ffdfcf"/>
        <path id="Trazado_773666" data-name="Trazado 773666" d="M293.228,457.565h-5.783a1.966,1.966,0,0,1-1.95-1.721l-1.137-5.236h8.324l2.053,4.643A1.649,1.649,0,0,1,293.228,457.565Z" transform="translate(-258.502 -393.404)" fill="#918291"/>
        <path id="Trazado_773667" data-name="Trazado 773667" d="M323.036,457.566H319.13a1.649,1.649,0,0,0,1.508-2.315l-2.053-4.642h3.906l2.053,4.642A1.649,1.649,0,0,1,323.036,457.566Z" transform="translate(-288.31 -393.404)" fill="#7a6d79"/>
        <path id="Trazado_773668" data-name="Trazado 773668" d="M156.677,450.608l-1.137,5.236a1.966,1.966,0,0,1-1.95,1.721h-5.783a1.649,1.649,0,0,1-1.508-2.315l2.053-4.643h8.325Z" transform="translate(-138.143 -393.404)" fill="#918291"/>
        <path id="Trazado_773669" data-name="Trazado 773669" d="M180.47,450.608l-1.137,5.236a1.966,1.966,0,0,1-1.95,1.721h-3.906a1.966,1.966,0,0,0,1.95-1.721l1.137-5.236Z" transform="translate(-161.935 -393.404)" fill="#7a6d79"/>
      </g>
      <g id="Grupo_1044043" data-name="Grupo 1044043" transform="translate(84.073 7.5)">
        <path id="Trazado_773670" data-name="Trazado 773670" d="M172.869,317.322h-5.784a2.472,2.472,0,0,1-2.443-2.135l-4.3-19.837-4.3,19.836a2.471,2.471,0,0,1-2.443,2.135h-5.784a2.149,2.149,0,0,1-1.964-3.017l2.028-4.587,2.679-15.492a.5.5,0,0,1,.985.17l-2.69,15.552a.5.5,0,0,1-.035.117l-2.053,4.643a1.149,1.149,0,0,0,1.05,1.612h5.784a1.47,1.47,0,0,0,1.454-1.284q0-.022.007-.043l4.8-22.108a.5.5,0,0,1,.977,0l4.8,22.109q0,.021.007.043a1.47,1.47,0,0,0,1.454,1.284h5.784a1.149,1.149,0,0,0,1.05-1.613l-2.053-4.642a.5.5,0,0,1-.035-.117l-3.608-20.863a.5.5,0,0,1,.985-.17l3.6,20.8,2.028,4.586a2.149,2.149,0,0,1-1.964,3.017Z" transform="translate(-138.143 -252.661)"/>
        <path id="Trazado_773671" data-name="Trazado 773671" d="M223.2,19.78a5.368,5.368,0,0,1-5.362-5.362V12.182a4.256,4.256,0,0,1,4.251-4.251h2.222a4.256,4.256,0,0,1,4.251,4.251v2.235A5.368,5.368,0,0,1,223.2,19.78ZM222.089,8.931a3.255,3.255,0,0,0-3.251,3.251v2.235a4.362,4.362,0,0,0,8.724,0V12.182a3.255,3.255,0,0,0-3.251-3.251Z" transform="translate(-201.005 -8.311)"/>
        <path id="Trazado_773672" data-name="Trazado 773672" d="M184.321,100.356a.5.5,0,0,1-.5-.5V97.513a3.364,3.364,0,0,1,.992-2.395l2.682-2.681-3.7-3.7-1.121,1.121a8.87,8.87,0,0,1-12.543,0l-1.119-1.119-3.7,3.7,2.681,2.681a3.363,3.363,0,0,1,.992,2.394v2.343a.5.5,0,0,1-1,0V97.512a2.37,2.37,0,0,0-.7-1.687l-3.035-3.035a.5.5,0,0,1,0-.707l4.408-4.408a.5.5,0,0,1,.354-.146h0a.5.5,0,0,1,.354.146l1.473,1.473a7.87,7.87,0,0,0,11.129,0l1.475-1.474a.5.5,0,0,1,.707,0l4.408,4.408a.5.5,0,0,1,0,.707l-3.035,3.034a2.37,2.37,0,0,0-.7,1.687v2.343A.5.5,0,0,1,184.321,100.356Z" transform="translate(-154.206 -77.633)"/>
        <path id="Trazado_773673" data-name="Trazado 773673" d="M183.233,174.879a11.289,11.289,0,0,1-9.761-16.957,11.354,11.354,0,0,1,4.011-4.044.5.5,0,0,1,.51.86,10.255,10.255,0,1,0,3.927-1.35.5.5,0,1,1-.126-.992,11.429,11.429,0,0,1,1.438-.091,11.287,11.287,0,0,1,0,22.573Z" transform="translate(-161.037 -134.047)"/>
        <path id="Trazado_773674" data-name="Trazado 773674" d="M212.842,201.419a2.441,2.441,0,0,1,1.726,4.168l-5.6,5.6a2.635,2.635,0,0,1-3.726,0l-3.685-3.685a2.441,2.441,0,0,1,3.453-3.453l2.1,2.1,4.012-4.012A2.426,2.426,0,0,1,212.842,201.419ZM207.1,210.96a1.624,1.624,0,0,0,1.156-.479l5.6-5.6a1.441,1.441,0,1,0-2.039-2.039l-4.057,4.057a.936.936,0,0,1-1.324,0l-2.141-2.141a1.441,1.441,0,1,0-2.039,2.039l3.685,3.685A1.624,1.624,0,0,0,207.1,210.96Z" transform="translate(-186.201 -176.82)"/>
        <path id="Trazado_773675" data-name="Trazado 773675" d="M317.67,22.8a.5.5,0,0,1-.354-.146l-4.408-4.408a.5.5,0,0,1,0-.707l5.238-5.239a.5.5,0,0,1,.707.707L313.969,17.9l3.7,3.7,9.129-9.13a2.617,2.617,0,0,0-3.7-3.7l-1,1a.5.5,0,0,1-.707-.707l1-1a3.617,3.617,0,1,1,5.115,5.115l-9.482,9.483A.5.5,0,0,1,317.67,22.8Z" transform="translate(-283.674 -7.5)"/>
        <path id="Trazado_773676" data-name="Trazado 773676" d="M94.47,22.8a.5.5,0,0,1-.354-.146l-9.483-9.483A3.617,3.617,0,0,1,89.748,8.06l9.483,9.483a.5.5,0,0,1,0,.707l-4.408,4.408A.5.5,0,0,1,94.47,22.8ZM87.191,8a2.617,2.617,0,0,0-1.851,4.467l9.13,9.13,3.7-3.7-9.13-9.13A2.6,2.6,0,0,0,87.191,8Z" transform="translate(-84.073 -7.5)"/>
        <path id="Línea_154" data-name="Línea 154" d="M8.324.5H0A.5.5,0,0,1-.5,0,.5.5,0,0,1,0-.5H8.324a.5.5,0,0,1,.5.5A.5.5,0,0,1,8.324.5Z" transform="translate(25.856 57.204)"/>
        <path id="Línea_155" data-name="Línea 155" d="M0,.5A.5.5,0,0,1-.5,0,.5.5,0,0,1,0-.5H8.324a.5.5,0,0,1,.5.5.5.5,0,0,1-.5.5Z" transform="translate(10.21 57.204)"/>
      </g>
    </g>
  </g>
</svg>
