<svg xmlns="http://www.w3.org/2000/svg" width="400" height="278.824" viewBox="0 0 400 278.824">
  <g id="Grupo_1044016" data-name="Grupo 1044016" transform="translate(-1020 -397.382)">
    <g id="Grupo_80138" data-name="Grupo 80138">
      <path id="Trazado_145968" data-name="Trazado 145968" d="M52.535,0A52.535,52.535,0,1,1,0,52.535,52.535,52.535,0,0,1,52.535,0Z" transform="translate(1307 541.369)" fill="#3449bc" style="mix-blend-mode: multiply;isolation: isolate"/>
      <rect id="Rectángulo_34816" data-name="Rectángulo 34816" width="324" height="191" rx="8" transform="translate(1053 418)" fill="#c1ede9"/>
      <g id="Grupo_145969" data-name="Grupo 145969" transform="translate(1034.352 397.707)" style="isolation: isolate">
        <path id="Trazado_145969" data-name="Trazado 145969" d="M35.9,0A35.9,35.9,0,1,1,0,35.9,35.9,35.9,0,0,1,35.9,0Z" transform="translate(0 0)" fill="#3449bc"/>
        <path id="Trazado_145969_-_Contorno" data-name="Trazado 145969 - Contorno" d="M35.9,0A35.9,35.9,0,1,1,0,35.9,35.9,35.9,0,0,1,35.9,0Z" transform="translate(0 0)" fill="#3449bc"/>
      </g>
      <g id="Grupo_80137" data-name="Grupo 80137" transform="translate(1052.982 609.335)" style="isolation: isolate">
        <path id="Trazado_145969-2" data-name="Trazado 145969" d="M13.267,0A13.267,13.267,0,1,1,0,13.267,13.267,13.267,0,0,1,13.267,0Z" transform="translate(0 0)" fill="#4dcbbf"/>
        <path id="Trazado_145969_-_Contorno-2" data-name="Trazado 145969 - Contorno" d="M13.267,0A13.267,13.267,0,1,1,0,13.267,13.267,13.267,0,0,1,13.267,0Z" transform="translate(0 0)" fill="#4dcbbf"/>
      </g>
      <rect id="Rectángulo_34812" data-name="Rectángulo 34812" width="400" height="253.618" transform="translate(1020 397.382)" fill="none"/>
      <g id="Grupo_78276" data-name="Grupo 78276" transform="translate(1327 563.369)">
        <g id="Grupo_53306" data-name="Grupo 53306">
          <path id="Trazado_99200" data-name="Trazado 99200" d="M415.641,50.906a.714.714,0,1,1-.714-.682A.7.7,0,0,1,415.641,50.906Z" transform="translate(-414.214 -50.224)" fill="#fff" stroke="#fff" stroke-width="1"/>
          <path id="Trazado_99201" data-name="Trazado 99201" d="M424.087,50.906a.714.714,0,1,1-.713-.682A.7.7,0,0,1,424.087,50.906Z" transform="translate(-416.24 -50.224)" fill="#fff" stroke="#fff" stroke-width="1"/>
          <path id="Trazado_99202" data-name="Trazado 99202" d="M432.533,50.906a.714.714,0,1,1-.713-.682A.7.7,0,0,1,432.533,50.906Z" transform="translate(-418.266 -50.224)" fill="#fff" stroke="#fff" stroke-width="1"/>
          <path id="Trazado_99203" data-name="Trazado 99203" d="M440.98,50.906a.714.714,0,1,1-.714-.682A.7.7,0,0,1,440.98,50.906Z" transform="translate(-420.292 -50.224)" fill="#fff" stroke="#fff" stroke-width="1"/>
          <path id="Trazado_99204" data-name="Trazado 99204" d="M449.426,50.906a.714.714,0,1,1-.713-.682A.7.7,0,0,1,449.426,50.906Z" transform="translate(-422.318 -50.224)" fill="#fff" stroke="#fff" stroke-width="1"/>
          <path id="Trazado_99205" data-name="Trazado 99205" d="M457.872,50.906a.714.714,0,1,1-.713-.682A.7.7,0,0,1,457.872,50.906Z" transform="translate(-424.344 -50.224)" fill="#fff" stroke="#fff" stroke-width="1"/>
          <path id="Trazado_99206" data-name="Trazado 99206" d="M466.319,50.906a.714.714,0,1,1-.714-.682A.7.7,0,0,1,466.319,50.906Z" transform="translate(-426.37 -50.224)" fill="#fff" stroke="#fff" stroke-width="1"/>
          <path id="Trazado_99207" data-name="Trazado 99207" d="M474.765,50.906a.714.714,0,1,1-.713-.682A.7.7,0,0,1,474.765,50.906Z" transform="translate(-428.396 -50.224)" fill="#fff" stroke="#fff" stroke-width="1"/>
          <path id="Trazado_99208" data-name="Trazado 99208" d="M483.211,50.906a.714.714,0,1,1-.713-.682A.7.7,0,0,1,483.211,50.906Z" transform="translate(-430.422 -50.224)" fill="#fff" stroke="#fff" stroke-width="1"/>
          <path id="Trazado_99209" data-name="Trazado 99209" d="M491.658,50.906a.714.714,0,1,1-.714-.682A.7.7,0,0,1,491.658,50.906Z" transform="translate(-432.448 -50.224)" fill="#fff" stroke="#fff" stroke-width="1"/>
          <path id="Trazado_99210" data-name="Trazado 99210" d="M500.1,50.906a.714.714,0,1,1-.714-.682A.7.7,0,0,1,500.1,50.906Z" transform="translate(-434.475 -50.224)" fill="#fff" stroke="#fff" stroke-width="1"/>
        </g>
        <g id="Grupo_53307" data-name="Grupo 53307" transform="translate(0 5.458)">
          <path id="Trazado_99211" data-name="Trazado 99211" d="M415.641,58.414a.714.714,0,1,1-.714-.682A.7.7,0,0,1,415.641,58.414Z" transform="translate(-414.214 -57.732)" fill="#fff" stroke="#fff" stroke-width="1"/>
          <path id="Trazado_99212" data-name="Trazado 99212" d="M424.087,58.414a.714.714,0,1,1-.713-.682A.7.7,0,0,1,424.087,58.414Z" transform="translate(-416.24 -57.732)" fill="#fff" stroke="#fff" stroke-width="1"/>
          <path id="Trazado_99213" data-name="Trazado 99213" d="M432.533,58.414a.714.714,0,1,1-.713-.682A.7.7,0,0,1,432.533,58.414Z" transform="translate(-418.266 -57.732)" fill="#fff" stroke="#fff" stroke-width="1"/>
          <path id="Trazado_99214" data-name="Trazado 99214" d="M440.98,58.414a.714.714,0,1,1-.714-.682A.7.7,0,0,1,440.98,58.414Z" transform="translate(-420.292 -57.732)" fill="#fff" stroke="#fff" stroke-width="1"/>
          <path id="Trazado_99215" data-name="Trazado 99215" d="M449.426,58.414a.714.714,0,1,1-.713-.682A.7.7,0,0,1,449.426,58.414Z" transform="translate(-422.318 -57.732)" fill="#fff" stroke="#fff" stroke-width="1"/>
          <path id="Trazado_99216" data-name="Trazado 99216" d="M457.872,58.414a.714.714,0,1,1-.713-.682A.7.7,0,0,1,457.872,58.414Z" transform="translate(-424.344 -57.732)" fill="#fff" stroke="#fff" stroke-width="1"/>
          <path id="Trazado_99217" data-name="Trazado 99217" d="M466.319,58.414a.714.714,0,1,1-.714-.682A.7.7,0,0,1,466.319,58.414Z" transform="translate(-426.37 -57.732)" fill="#fff" stroke="#fff" stroke-width="1"/>
          <path id="Trazado_99218" data-name="Trazado 99218" d="M474.765,58.414a.714.714,0,1,1-.713-.682A.7.7,0,0,1,474.765,58.414Z" transform="translate(-428.396 -57.732)" fill="#fff" stroke="#fff" stroke-width="1"/>
          <path id="Trazado_99219" data-name="Trazado 99219" d="M483.211,58.414a.714.714,0,1,1-.713-.682A.7.7,0,0,1,483.211,58.414Z" transform="translate(-430.422 -57.732)" fill="#fff" stroke="#fff" stroke-width="1"/>
          <path id="Trazado_99220" data-name="Trazado 99220" d="M491.658,58.414a.714.714,0,1,1-.714-.682A.7.7,0,0,1,491.658,58.414Z" transform="translate(-432.448 -57.732)" fill="#fff" stroke="#fff" stroke-width="1"/>
          <path id="Trazado_99221" data-name="Trazado 99221" d="M500.1,58.414a.714.714,0,1,1-.714-.682A.7.7,0,0,1,500.1,58.414Z" transform="translate(-434.475 -57.732)" fill="#fff" stroke="#fff" stroke-width="1"/>
        </g>
        <g id="Grupo_53308" data-name="Grupo 53308" transform="translate(0 10.915)">
          <ellipse id="Elipse_3955" data-name="Elipse 3955" cx="0.713" cy="0.682" rx="0.713" ry="0.682" fill="#fff" stroke="#fff" stroke-width="1"/>
          <path id="Trazado_99222" data-name="Trazado 99222" d="M424.087,65.922a.714.714,0,1,1-.713-.682A.7.7,0,0,1,424.087,65.922Z" transform="translate(-416.24 -65.24)" fill="#fff" stroke="#fff" stroke-width="1"/>
          <ellipse id="Elipse_3956" data-name="Elipse 3956" cx="0.713" cy="0.682" rx="0.713" ry="0.682" transform="translate(12.84)" fill="#fff" stroke="#fff" stroke-width="1"/>
          <path id="Trazado_99223" data-name="Trazado 99223" d="M440.98,65.922a.714.714,0,1,1-.714-.682A.7.7,0,0,1,440.98,65.922Z" transform="translate(-420.292 -65.24)" fill="#fff" stroke="#fff" stroke-width="1"/>
          <path id="Trazado_99224" data-name="Trazado 99224" d="M449.426,65.922a.714.714,0,1,1-.713-.682A.7.7,0,0,1,449.426,65.922Z" transform="translate(-422.318 -65.24)" fill="#fff" stroke="#fff" stroke-width="1"/>
          <ellipse id="Elipse_3957" data-name="Elipse 3957" cx="0.713" cy="0.682" rx="0.713" ry="0.682" transform="translate(32.101)" fill="#fff" stroke="#fff" stroke-width="1"/>
          <path id="Trazado_99225" data-name="Trazado 99225" d="M466.319,65.922a.714.714,0,1,1-.714-.682A.7.7,0,0,1,466.319,65.922Z" transform="translate(-426.37 -65.24)" fill="#fff" stroke="#fff" stroke-width="1"/>
          <ellipse id="Elipse_3958" data-name="Elipse 3958" cx="0.713" cy="0.682" rx="0.713" ry="0.682" transform="translate(44.942)" fill="#fff" stroke="#fff" stroke-width="1"/>
          <ellipse id="Elipse_3959" data-name="Elipse 3959" cx="0.713" cy="0.682" rx="0.713" ry="0.682" transform="translate(51.362)" fill="#fff" stroke="#fff" stroke-width="1"/>
          <path id="Trazado_99226" data-name="Trazado 99226" d="M491.658,65.922a.714.714,0,1,1-.714-.682A.7.7,0,0,1,491.658,65.922Z" transform="translate(-432.448 -65.24)" fill="#fff" stroke="#fff" stroke-width="1"/>
          <path id="Trazado_99227" data-name="Trazado 99227" d="M500.1,65.922a.714.714,0,1,1-.714-.682A.7.7,0,0,1,500.1,65.922Z" transform="translate(-434.474 -65.24)" fill="#fff" stroke="#fff" stroke-width="1"/>
        </g>
        <g id="Grupo_53309" data-name="Grupo 53309" transform="translate(0 16.373)">
          <ellipse id="Elipse_3960" data-name="Elipse 3960" cx="0.713" cy="0.682" rx="0.713" ry="0.682" transform="translate(0 0)" fill="#fff" stroke="#fff" stroke-width="1"/>
          <path id="Trazado_99228" data-name="Trazado 99228" d="M424.087,73.43a.714.714,0,1,1-.713-.683A.7.7,0,0,1,424.087,73.43Z" transform="translate(-416.24 -72.747)" fill="#fff" stroke="#fff" stroke-width="1"/>
          <ellipse id="Elipse_3961" data-name="Elipse 3961" cx="0.713" cy="0.682" rx="0.713" ry="0.682" transform="translate(12.84 0)" fill="#fff" stroke="#fff" stroke-width="1"/>
          <path id="Trazado_99229" data-name="Trazado 99229" d="M440.98,73.43a.714.714,0,1,1-.714-.683A.7.7,0,0,1,440.98,73.43Z" transform="translate(-420.292 -72.747)" fill="#fff" stroke="#fff" stroke-width="1"/>
          <path id="Trazado_99230" data-name="Trazado 99230" d="M449.426,73.43a.714.714,0,1,1-.713-.683A.7.7,0,0,1,449.426,73.43Z" transform="translate(-422.318 -72.747)" fill="#fff" stroke="#fff" stroke-width="1"/>
          <ellipse id="Elipse_3962" data-name="Elipse 3962" cx="0.713" cy="0.682" rx="0.713" ry="0.682" transform="translate(32.101 0)" fill="#fff" stroke="#fff" stroke-width="1"/>
          <path id="Trazado_99231" data-name="Trazado 99231" d="M466.319,73.43a.714.714,0,1,1-.714-.683A.7.7,0,0,1,466.319,73.43Z" transform="translate(-426.37 -72.747)" fill="#fff" stroke="#fff" stroke-width="1"/>
          <ellipse id="Elipse_3963" data-name="Elipse 3963" cx="0.713" cy="0.682" rx="0.713" ry="0.682" transform="translate(44.942 0)" fill="#fff" stroke="#fff" stroke-width="1"/>
          <ellipse id="Elipse_3964" data-name="Elipse 3964" cx="0.713" cy="0.682" rx="0.713" ry="0.682" transform="translate(51.362 0)" fill="#fff" stroke="#fff" stroke-width="1"/>
          <path id="Trazado_99232" data-name="Trazado 99232" d="M491.658,73.43a.714.714,0,1,1-.714-.683A.7.7,0,0,1,491.658,73.43Z" transform="translate(-432.448 -72.747)" fill="#fff" stroke="#fff" stroke-width="1"/>
          <path id="Trazado_99233" data-name="Trazado 99233" d="M500.1,73.43a.714.714,0,1,1-.714-.683A.7.7,0,0,1,500.1,73.43Z" transform="translate(-434.474 -72.747)" fill="#fff" stroke="#fff" stroke-width="1"/>
        </g>
        <g id="Grupo_53310" data-name="Grupo 53310" transform="translate(0 21.83)">
          <path id="Trazado_99234" data-name="Trazado 99234" d="M415.641,80.938a.714.714,0,1,1-.714-.683A.7.7,0,0,1,415.641,80.938Z" transform="translate(-414.214 -80.255)" fill="#fff" stroke="#fff" stroke-width="1"/>
          <path id="Trazado_99235" data-name="Trazado 99235" d="M424.087,80.938a.714.714,0,1,1-.713-.683A.7.7,0,0,1,424.087,80.938Z" transform="translate(-416.24 -80.255)" fill="#fff" stroke="#fff" stroke-width="1"/>
          <path id="Trazado_99236" data-name="Trazado 99236" d="M432.533,80.938a.714.714,0,1,1-.713-.683A.7.7,0,0,1,432.533,80.938Z" transform="translate(-418.266 -80.255)" fill="#fff" stroke="#fff" stroke-width="1"/>
          <path id="Trazado_99237" data-name="Trazado 99237" d="M440.98,80.938a.714.714,0,1,1-.714-.683A.7.7,0,0,1,440.98,80.938Z" transform="translate(-420.292 -80.255)" fill="#fff" stroke="#fff" stroke-width="1"/>
          <path id="Trazado_99238" data-name="Trazado 99238" d="M449.426,80.938a.714.714,0,1,1-.713-.683A.7.7,0,0,1,449.426,80.938Z" transform="translate(-422.318 -80.255)" fill="#fff" stroke="#fff" stroke-width="1"/>
          <path id="Trazado_99239" data-name="Trazado 99239" d="M457.872,80.938a.714.714,0,1,1-.713-.683A.7.7,0,0,1,457.872,80.938Z" transform="translate(-424.344 -80.255)" fill="#fff" stroke="#fff" stroke-width="1"/>
          <path id="Trazado_99240" data-name="Trazado 99240" d="M466.319,80.938a.714.714,0,1,1-.714-.683A.7.7,0,0,1,466.319,80.938Z" transform="translate(-426.37 -80.255)" fill="#fff" stroke="#fff" stroke-width="1"/>
          <path id="Trazado_99241" data-name="Trazado 99241" d="M474.765,80.938a.714.714,0,1,1-.713-.683A.7.7,0,0,1,474.765,80.938Z" transform="translate(-428.396 -80.255)" fill="#fff" stroke="#fff" stroke-width="1"/>
          <path id="Trazado_99242" data-name="Trazado 99242" d="M483.211,80.938a.714.714,0,1,1-.713-.683A.7.7,0,0,1,483.211,80.938Z" transform="translate(-430.422 -80.255)" fill="#fff" stroke="#fff" stroke-width="1"/>
          <path id="Trazado_99243" data-name="Trazado 99243" d="M491.658,80.938a.714.714,0,1,1-.714-.683A.7.7,0,0,1,491.658,80.938Z" transform="translate(-432.448 -80.255)" fill="#fff" stroke="#fff" stroke-width="1"/>
          <path id="Trazado_99244" data-name="Trazado 99244" d="M500.1,80.938a.714.714,0,1,1-.714-.683A.7.7,0,0,1,500.1,80.938Z" transform="translate(-434.475 -80.255)" fill="#fff" stroke="#fff" stroke-width="1"/>
        </g>
        <g id="Grupo_53311" data-name="Grupo 53311" transform="translate(0 27.288)">
          <ellipse id="Elipse_3965" data-name="Elipse 3965" cx="0.713" cy="0.682" rx="0.713" ry="0.682" transform="translate(0 0)" fill="#fff" stroke="#fff" stroke-width="1"/>
          <path id="Trazado_99245" data-name="Trazado 99245" d="M424.087,88.446a.714.714,0,1,1-.713-.683A.7.7,0,0,1,424.087,88.446Z" transform="translate(-416.24 -87.763)" fill="#fff" stroke="#fff" stroke-width="1"/>
          <ellipse id="Elipse_3966" data-name="Elipse 3966" cx="0.713" cy="0.682" rx="0.713" ry="0.682" transform="translate(12.84 0)" fill="#fff" stroke="#fff" stroke-width="1"/>
          <path id="Trazado_99246" data-name="Trazado 99246" d="M440.98,88.446a.714.714,0,1,1-.714-.683A.7.7,0,0,1,440.98,88.446Z" transform="translate(-420.292 -87.763)" fill="#fff" stroke="#fff" stroke-width="1"/>
          <path id="Trazado_99247" data-name="Trazado 99247" d="M449.426,88.446a.714.714,0,1,1-.713-.683A.7.7,0,0,1,449.426,88.446Z" transform="translate(-422.318 -87.763)" fill="#fff" stroke="#fff" stroke-width="1"/>
          <ellipse id="Elipse_3967" data-name="Elipse 3967" cx="0.713" cy="0.682" rx="0.713" ry="0.682" transform="translate(32.101 0)" fill="#fff" stroke="#fff" stroke-width="1"/>
          <path id="Trazado_99248" data-name="Trazado 99248" d="M466.319,88.446a.714.714,0,1,1-.714-.683A.7.7,0,0,1,466.319,88.446Z" transform="translate(-426.37 -87.763)" fill="#fff" stroke="#fff" stroke-width="1"/>
          <ellipse id="Elipse_3968" data-name="Elipse 3968" cx="0.713" cy="0.682" rx="0.713" ry="0.682" transform="translate(44.942 0)" fill="#fff" stroke="#fff" stroke-width="1"/>
          <ellipse id="Elipse_3969" data-name="Elipse 3969" cx="0.713" cy="0.682" rx="0.713" ry="0.682" transform="translate(51.362 0)" fill="#fff" stroke="#fff" stroke-width="1"/>
          <path id="Trazado_99249" data-name="Trazado 99249" d="M491.658,88.446a.714.714,0,1,1-.714-.683A.7.7,0,0,1,491.658,88.446Z" transform="translate(-432.448 -87.763)" fill="#fff" stroke="#fff" stroke-width="1"/>
          <path id="Trazado_99250" data-name="Trazado 99250" d="M500.1,88.446a.714.714,0,1,1-.714-.683A.7.7,0,0,1,500.1,88.446Z" transform="translate(-434.474 -87.763)" fill="#fff" stroke="#fff" stroke-width="1"/>
        </g>
        <g id="Grupo_53312" data-name="Grupo 53312" transform="translate(0 32.746)">
          <ellipse id="Elipse_3970" data-name="Elipse 3970" cx="0.713" cy="0.682" rx="0.713" ry="0.682" fill="#fff" stroke="#fff" stroke-width="1"/>
          <path id="Trazado_99251" data-name="Trazado 99251" d="M424.087,95.953a.714.714,0,1,1-.713-.682A.7.7,0,0,1,424.087,95.953Z" transform="translate(-416.24 -95.271)" fill="#fff" stroke="#fff" stroke-width="1"/>
          <ellipse id="Elipse_3971" data-name="Elipse 3971" cx="0.713" cy="0.682" rx="0.713" ry="0.682" transform="translate(12.84)" fill="#fff" stroke="#fff" stroke-width="1"/>
          <path id="Trazado_99252" data-name="Trazado 99252" d="M440.98,95.953a.714.714,0,1,1-.714-.682A.7.7,0,0,1,440.98,95.953Z" transform="translate(-420.292 -95.271)" fill="#fff" stroke="#fff" stroke-width="1"/>
          <path id="Trazado_99253" data-name="Trazado 99253" d="M449.426,95.953a.714.714,0,1,1-.713-.682A.7.7,0,0,1,449.426,95.953Z" transform="translate(-422.318 -95.271)" fill="#fff" stroke="#fff" stroke-width="1"/>
          <ellipse id="Elipse_3972" data-name="Elipse 3972" cx="0.713" cy="0.682" rx="0.713" ry="0.682" transform="translate(32.101)" fill="#fff" stroke="#fff" stroke-width="1"/>
          <path id="Trazado_99254" data-name="Trazado 99254" d="M466.319,95.953a.714.714,0,1,1-.714-.682A.7.7,0,0,1,466.319,95.953Z" transform="translate(-426.37 -95.271)" fill="#fff" stroke="#fff" stroke-width="1"/>
          <ellipse id="Elipse_3973" data-name="Elipse 3973" cx="0.713" cy="0.682" rx="0.713" ry="0.682" transform="translate(44.942)" fill="#fff" stroke="#fff" stroke-width="1"/>
          <ellipse id="Elipse_3974" data-name="Elipse 3974" cx="0.713" cy="0.682" rx="0.713" ry="0.682" transform="translate(51.362)" fill="#fff" stroke="#fff" stroke-width="1"/>
          <path id="Trazado_99255" data-name="Trazado 99255" d="M491.658,95.953a.714.714,0,1,1-.714-.682A.7.7,0,0,1,491.658,95.953Z" transform="translate(-432.448 -95.271)" fill="#fff" stroke="#fff" stroke-width="1"/>
          <path id="Trazado_99256" data-name="Trazado 99256" d="M500.1,95.953a.714.714,0,1,1-.714-.682A.7.7,0,0,1,500.1,95.953Z" transform="translate(-434.474 -95.271)" fill="#fff" stroke="#fff" stroke-width="1"/>
        </g>
        <g id="Grupo_53313" data-name="Grupo 53313" transform="translate(0 38.203)">
          <path id="Trazado_99257" data-name="Trazado 99257" d="M415.641,103.461a.714.714,0,1,1-.714-.682A.7.7,0,0,1,415.641,103.461Z" transform="translate(-414.214 -102.779)" fill="#fff" stroke="#fff" stroke-width="1"/>
          <path id="Trazado_99258" data-name="Trazado 99258" d="M424.087,103.461a.714.714,0,1,1-.713-.682A.7.7,0,0,1,424.087,103.461Z" transform="translate(-416.24 -102.779)" fill="#fff" stroke="#fff" stroke-width="1"/>
          <path id="Trazado_99259" data-name="Trazado 99259" d="M432.533,103.461a.714.714,0,1,1-.713-.682A.7.7,0,0,1,432.533,103.461Z" transform="translate(-418.266 -102.779)" fill="#fff" stroke="#fff" stroke-width="1"/>
          <path id="Trazado_99260" data-name="Trazado 99260" d="M440.98,103.461a.714.714,0,1,1-.714-.682A.7.7,0,0,1,440.98,103.461Z" transform="translate(-420.292 -102.779)" fill="#fff" stroke="#fff" stroke-width="1"/>
          <path id="Trazado_99261" data-name="Trazado 99261" d="M449.426,103.461a.714.714,0,1,1-.713-.682A.7.7,0,0,1,449.426,103.461Z" transform="translate(-422.318 -102.779)" fill="#fff" stroke="#fff" stroke-width="1"/>
          <path id="Trazado_99262" data-name="Trazado 99262" d="M457.872,103.461a.714.714,0,1,1-.713-.682A.7.7,0,0,1,457.872,103.461Z" transform="translate(-424.344 -102.779)" fill="#fff" stroke="#fff" stroke-width="1"/>
          <path id="Trazado_99263" data-name="Trazado 99263" d="M466.319,103.461a.714.714,0,1,1-.714-.682A.7.7,0,0,1,466.319,103.461Z" transform="translate(-426.37 -102.779)" fill="#fff" stroke="#fff" stroke-width="1"/>
          <path id="Trazado_99264" data-name="Trazado 99264" d="M474.765,103.461a.714.714,0,1,1-.713-.682A.7.7,0,0,1,474.765,103.461Z" transform="translate(-428.396 -102.779)" fill="#fff" stroke="#fff" stroke-width="1"/>
          <path id="Trazado_99265" data-name="Trazado 99265" d="M483.211,103.461a.714.714,0,1,1-.713-.682A.7.7,0,0,1,483.211,103.461Z" transform="translate(-430.422 -102.779)" fill="#fff" stroke="#fff" stroke-width="1"/>
          <path id="Trazado_99266" data-name="Trazado 99266" d="M491.658,103.461a.714.714,0,1,1-.714-.682A.7.7,0,0,1,491.658,103.461Z" transform="translate(-432.448 -102.779)" fill="#fff" stroke="#fff" stroke-width="1"/>
          <path id="Trazado_99267" data-name="Trazado 99267" d="M500.1,103.461a.714.714,0,1,1-.714-.682A.7.7,0,0,1,500.1,103.461Z" transform="translate(-434.475 -102.779)" fill="#fff" stroke="#fff" stroke-width="1"/>
        </g>
        <g id="Grupo_53314" data-name="Grupo 53314" transform="translate(0 43.661)">
          <ellipse id="Elipse_3975" data-name="Elipse 3975" cx="0.713" cy="0.682" rx="0.713" ry="0.682" fill="#fff" stroke="#fff" stroke-width="1"/>
          <path id="Trazado_99268" data-name="Trazado 99268" d="M424.087,110.969a.714.714,0,1,1-.713-.682A.7.7,0,0,1,424.087,110.969Z" transform="translate(-416.24 -110.287)" fill="#fff" stroke="#fff" stroke-width="1"/>
          <ellipse id="Elipse_3976" data-name="Elipse 3976" cx="0.713" cy="0.682" rx="0.713" ry="0.682" transform="translate(12.84)" fill="#fff" stroke="#fff" stroke-width="1"/>
          <path id="Trazado_99269" data-name="Trazado 99269" d="M440.98,110.969a.714.714,0,1,1-.714-.682A.7.7,0,0,1,440.98,110.969Z" transform="translate(-420.292 -110.287)" fill="#fff" stroke="#fff" stroke-width="1"/>
          <path id="Trazado_99270" data-name="Trazado 99270" d="M449.426,110.969a.714.714,0,1,1-.713-.682A.7.7,0,0,1,449.426,110.969Z" transform="translate(-422.318 -110.287)" fill="#fff" stroke="#fff" stroke-width="1"/>
          <ellipse id="Elipse_3977" data-name="Elipse 3977" cx="0.713" cy="0.682" rx="0.713" ry="0.682" transform="translate(32.101)" fill="#fff" stroke="#fff" stroke-width="1"/>
          <path id="Trazado_99271" data-name="Trazado 99271" d="M466.319,110.969a.714.714,0,1,1-.714-.682A.7.7,0,0,1,466.319,110.969Z" transform="translate(-426.37 -110.287)" fill="#fff" stroke="#fff" stroke-width="1"/>
          <ellipse id="Elipse_3978" data-name="Elipse 3978" cx="0.713" cy="0.682" rx="0.713" ry="0.682" transform="translate(44.942)" fill="#fff" stroke="#fff" stroke-width="1"/>
          <ellipse id="Elipse_3979" data-name="Elipse 3979" cx="0.713" cy="0.682" rx="0.713" ry="0.682" transform="translate(51.362)" fill="#fff" stroke="#fff" stroke-width="1"/>
          <path id="Trazado_99272" data-name="Trazado 99272" d="M491.658,110.969a.714.714,0,1,1-.714-.682A.7.7,0,0,1,491.658,110.969Z" transform="translate(-432.448 -110.287)" fill="#fff" stroke="#fff" stroke-width="1"/>
          <path id="Trazado_99273" data-name="Trazado 99273" d="M500.1,110.969a.714.714,0,1,1-.714-.682A.7.7,0,0,1,500.1,110.969Z" transform="translate(-434.474 -110.287)" fill="#fff" stroke="#fff" stroke-width="1"/>
        </g>
        <g id="Grupo_53315" data-name="Grupo 53315" transform="translate(0 49.118)">
          <path id="Trazado_99274" data-name="Trazado 99274" d="M415.641,118.477a.714.714,0,1,1-.714-.683A.7.7,0,0,1,415.641,118.477Z" transform="translate(-414.214 -117.794)" fill="#fff" stroke="#fff" stroke-width="1"/>
          <path id="Trazado_99275" data-name="Trazado 99275" d="M424.087,118.477a.714.714,0,1,1-.713-.683A.7.7,0,0,1,424.087,118.477Z" transform="translate(-416.24 -117.794)" fill="#fff" stroke="#fff" stroke-width="1"/>
          <path id="Trazado_99276" data-name="Trazado 99276" d="M432.533,118.477a.714.714,0,1,1-.713-.683A.7.7,0,0,1,432.533,118.477Z" transform="translate(-418.266 -117.794)" fill="#fff" stroke="#fff" stroke-width="1"/>
          <path id="Trazado_99277" data-name="Trazado 99277" d="M440.98,118.477a.714.714,0,1,1-.714-.683A.7.7,0,0,1,440.98,118.477Z" transform="translate(-420.292 -117.794)" fill="#fff" stroke="#fff" stroke-width="1"/>
          <path id="Trazado_99278" data-name="Trazado 99278" d="M449.426,118.477a.714.714,0,1,1-.713-.683A.7.7,0,0,1,449.426,118.477Z" transform="translate(-422.318 -117.794)" fill="#fff" stroke="#fff" stroke-width="1"/>
          <path id="Trazado_99279" data-name="Trazado 99279" d="M457.872,118.477a.714.714,0,1,1-.713-.683A.7.7,0,0,1,457.872,118.477Z" transform="translate(-424.344 -117.794)" fill="#fff" stroke="#fff" stroke-width="1"/>
          <path id="Trazado_99280" data-name="Trazado 99280" d="M466.319,118.477a.714.714,0,1,1-.714-.683A.7.7,0,0,1,466.319,118.477Z" transform="translate(-426.37 -117.794)" fill="#fff" stroke="#fff" stroke-width="1"/>
          <path id="Trazado_99281" data-name="Trazado 99281" d="M474.765,118.477a.714.714,0,1,1-.713-.683A.7.7,0,0,1,474.765,118.477Z" transform="translate(-428.396 -117.794)" fill="#fff" stroke="#fff" stroke-width="1"/>
          <path id="Trazado_99282" data-name="Trazado 99282" d="M483.211,118.477a.714.714,0,1,1-.713-.683A.7.7,0,0,1,483.211,118.477Z" transform="translate(-430.422 -117.794)" fill="#fff" stroke="#fff" stroke-width="1"/>
          <path id="Trazado_99283" data-name="Trazado 99283" d="M491.658,118.477a.714.714,0,1,1-.714-.683A.7.7,0,0,1,491.658,118.477Z" transform="translate(-432.448 -117.794)" fill="#fff" stroke="#fff" stroke-width="1"/>
          <path id="Trazado_99284" data-name="Trazado 99284" d="M500.1,118.477a.714.714,0,1,1-.714-.683A.7.7,0,0,1,500.1,118.477Z" transform="translate(-434.475 -117.794)" fill="#fff" stroke="#fff" stroke-width="1"/>
        </g>
        <g id="Grupo_53316" data-name="Grupo 53316" transform="translate(0 54.576)">
          <ellipse id="Elipse_3980" data-name="Elipse 3980" cx="0.713" cy="0.682" rx="0.713" ry="0.682" transform="translate(0 0)" fill="#fff" stroke="#fff" stroke-width="1"/>
          <path id="Trazado_99285" data-name="Trazado 99285" d="M424.087,125.985a.714.714,0,1,1-.713-.683A.7.7,0,0,1,424.087,125.985Z" transform="translate(-416.24 -125.302)" fill="#fff" stroke="#fff" stroke-width="1"/>
          <ellipse id="Elipse_3981" data-name="Elipse 3981" cx="0.713" cy="0.682" rx="0.713" ry="0.682" transform="translate(12.84 0)" fill="#fff" stroke="#fff" stroke-width="1"/>
          <path id="Trazado_99286" data-name="Trazado 99286" d="M440.98,125.985a.714.714,0,1,1-.714-.683A.7.7,0,0,1,440.98,125.985Z" transform="translate(-420.292 -125.302)" fill="#fff" stroke="#fff" stroke-width="1"/>
          <path id="Trazado_99287" data-name="Trazado 99287" d="M449.426,125.985a.714.714,0,1,1-.713-.683A.7.7,0,0,1,449.426,125.985Z" transform="translate(-422.318 -125.302)" fill="#fff" stroke="#fff" stroke-width="1"/>
          <ellipse id="Elipse_3982" data-name="Elipse 3982" cx="0.713" cy="0.682" rx="0.713" ry="0.682" transform="translate(32.101 0)" fill="#fff" stroke="#fff" stroke-width="1"/>
          <path id="Trazado_99288" data-name="Trazado 99288" d="M466.319,125.985a.714.714,0,1,1-.714-.683A.7.7,0,0,1,466.319,125.985Z" transform="translate(-426.37 -125.302)" fill="#fff" stroke="#fff" stroke-width="1"/>
          <ellipse id="Elipse_3983" data-name="Elipse 3983" cx="0.713" cy="0.682" rx="0.713" ry="0.682" transform="translate(44.942 0)" fill="#fff" stroke="#fff" stroke-width="1"/>
          <ellipse id="Elipse_3984" data-name="Elipse 3984" cx="0.713" cy="0.682" rx="0.713" ry="0.682" transform="translate(51.362 0)" fill="#fff" stroke="#fff" stroke-width="1"/>
          <path id="Trazado_99289" data-name="Trazado 99289" d="M491.658,125.985a.714.714,0,1,1-.714-.683A.7.7,0,0,1,491.658,125.985Z" transform="translate(-432.448 -125.302)" fill="#fff" stroke="#fff" stroke-width="1"/>
          <path id="Trazado_99290" data-name="Trazado 99290" d="M500.1,125.985a.714.714,0,1,1-.714-.683A.7.7,0,0,1,500.1,125.985Z" transform="translate(-434.474 -125.302)" fill="#fff" stroke="#fff" stroke-width="1"/>
        </g>
        <g id="Grupo_53317" data-name="Grupo 53317" transform="translate(0 60.034)">
          <ellipse id="Elipse_3985" data-name="Elipse 3985" cx="0.713" cy="0.682" rx="0.713" ry="0.682" transform="translate(0 0)" fill="#fff" stroke="#fff" stroke-width="1"/>
          <path id="Trazado_99291" data-name="Trazado 99291" d="M424.087,133.493a.714.714,0,1,1-.713-.683A.7.7,0,0,1,424.087,133.493Z" transform="translate(-416.24 -132.81)" fill="#fff" stroke="#fff" stroke-width="1"/>
          <ellipse id="Elipse_3986" data-name="Elipse 3986" cx="0.713" cy="0.682" rx="0.713" ry="0.682" transform="translate(12.84 0)" fill="#fff" stroke="#fff" stroke-width="1"/>
          <path id="Trazado_99292" data-name="Trazado 99292" d="M440.98,133.493a.714.714,0,1,1-.714-.683A.7.7,0,0,1,440.98,133.493Z" transform="translate(-420.292 -132.81)" fill="#fff" stroke="#fff" stroke-width="1"/>
          <path id="Trazado_99293" data-name="Trazado 99293" d="M449.426,133.493a.714.714,0,1,1-.713-.683A.7.7,0,0,1,449.426,133.493Z" transform="translate(-422.318 -132.81)" fill="#fff" stroke="#fff" stroke-width="1"/>
          <ellipse id="Elipse_3987" data-name="Elipse 3987" cx="0.713" cy="0.682" rx="0.713" ry="0.682" transform="translate(32.101 0)" fill="#fff" stroke="#fff" stroke-width="1"/>
          <path id="Trazado_99294" data-name="Trazado 99294" d="M466.319,133.493a.714.714,0,1,1-.714-.683A.7.7,0,0,1,466.319,133.493Z" transform="translate(-426.37 -132.81)" fill="#fff" stroke="#fff" stroke-width="1"/>
          <ellipse id="Elipse_3988" data-name="Elipse 3988" cx="0.713" cy="0.682" rx="0.713" ry="0.682" transform="translate(44.942 0)" fill="#fff" stroke="#fff" stroke-width="1"/>
          <ellipse id="Elipse_3989" data-name="Elipse 3989" cx="0.713" cy="0.682" rx="0.713" ry="0.682" transform="translate(51.362 0)" fill="#fff" stroke="#fff" stroke-width="1"/>
          <path id="Trazado_99295" data-name="Trazado 99295" d="M491.658,133.493a.714.714,0,1,1-.714-.683A.7.7,0,0,1,491.658,133.493Z" transform="translate(-432.448 -132.81)" fill="#fff" stroke="#fff" stroke-width="1"/>
          <path id="Trazado_99296" data-name="Trazado 99296" d="M500.1,133.493a.714.714,0,1,1-.714-.683A.7.7,0,0,1,500.1,133.493Z" transform="translate(-434.474 -132.81)" fill="#fff" stroke="#fff" stroke-width="1"/>
        </g>
      </g>
      <line id="Línea_138" data-name="Línea 138" y2="139.568" transform="translate(1030.313 462.294)" fill="none" stroke="#3449bc" stroke-linecap="round" stroke-width="2" stroke-dasharray="8"/>
    </g>
    <g id="Grupo_1044014" data-name="Grupo 1044014" transform="translate(1074.843 397.382)">
      <g id="Grupo_1044015" data-name="Grupo 1044015" transform="translate(0 0)">
        <path id="Trazado_773487" data-name="Trazado 773487" d="M124.456,298.472l84.257,3.676a105.352,105.352,0,0,1,70.392,38.1c-34.313,18.723-92.286,24.505-131.365,25.409-52.4,1.211-97.724-5.824-145.9-34.053,33.2-28.531,79.565-41.06,122.617-33.136" transform="translate(-1.403 -86.967)" fill="#b8bfe8"/>
        <path id="Trazado_773488" data-name="Trazado 773488" d="M263.175,319.648l-19.709,35.874a.448.448,0,0,1-.5.2l-9.374-2.936-22.464-7.033-27.071-8.476-23.19-7.26c-3.592-1.124-7.279-2.1-10.818-3.387-.208-.076.153-.025.128-.023a2.159,2.159,0,0,0-.291.055c-.5.112-1.011.191-1.514.285l-6.31,1.191-22.17,4.182-27.788,5.242-24.916,4.7-13.536,2.553-.637.121a.448.448,0,0,1-.544-.309q-1.8-11.549-3.595-23.1-.253-1.622-.5-3.243c-.088-.556.764-.8.851-.235q1.8,11.549,3.595,23.1.253,1.622.505,3.243l-.543-.308,9.6-1.812,22.983-4.335,27.873-5.259,24.349-4.593c4.033-.761,8.077-1.7,12.14-2.291a3.569,3.569,0,0,1,1.627.317l5.565,1.743,20.9,6.544,27,8.453,24.38,7.633,13.372,4.186.628.2-.5.2L262.414,319.2c.273-.5,1.035-.053.761.446" transform="translate(-18.396 -93.31)" fill="#bdd1da"/>
        <path id="Trazado_773489" data-name="Trazado 773489" d="M211.352,345.589a207.3,207.3,0,0,0-6.269,33.483c-.058.56-.942.566-.883,0a208.606,208.606,0,0,1,6.3-33.717.441.441,0,0,1,.85.234" transform="translate(-76.6 -101.329)" fill="#bdd1da"/>
        <path id="Trazado_773490" data-name="Trazado 773490" d="M278.582,356.04c-17.491,2.277-34.933,4.907-52.417,7.227q-25.787,3.421-51.714,5.447-12.094.932-24.209,1.578-5.641.3-11.284.535a92.054,92.054,0,0,1-10.819.215,81.707,81.707,0,0,1-9.057-1.555L79.6,361.88l-50.338-9.7-18.947-3.652c-3.184-.613-6.428-1.1-9.584-1.846-.136-.032-.275-.054-.412-.08-.557-.107-.321-.958.234-.851l23.709,4.569,49.166,9.475L116.02,368c2.94.566,5.879,1.141,8.82,1.7,4.939.939,10.045.417,15.036.2q11.365-.483,22.717-1.229c17.22-1.127,34.416-2.66,51.546-4.756,17.469-2.137,34.875-4.739,52.309-7.137q6.065-.834,12.135-1.627c.562-.073.557.81,0,.883" transform="translate(0 -101.534)" fill="#282828"/>
        <path id="Trazado_773491" data-name="Trazado 773491" d="M185.668,50.017c2.582-1.81,14.122-10.375,18.514-28.529,1.351-5.588,1.966-12.227,1.108-13.571" transform="translate(-57.826 -2.325)" fill="none" stroke="#588b7e" stroke-linecap="round" stroke-linejoin="round" stroke-width="1"/>
        <path id="Trazado_773492" data-name="Trazado 773492" d="M151.776,62.78c.519-7.618-3.992-14.589-5.715-22.028-2.834-12.241,4.272-27,14.856-33.772l2.78-1.754A32.853,32.853,0,0,1,183.319.066c17.4,1.148,26.7,15.454,32.108,24.4,3.5,5.786,7.806,13.922,11.992,17.778,4.975,4.581,10.719,9.618,17.468,10.054a8.912,8.912,0,0,1-15.577,5.009L235.7,64.33c-5.153,6.859-12.658,11.661-20.611,14.881s-16.407,4.974-24.808,6.712l-22.449,4.646c-2.944.609-6.092,1.2-8.881.081s-4.785-4.7-3.162-7.233a14.862,14.862,0,0,0-2.438,7.965l-8.7-.251c-2.636-9.551,6.446-18.467,7.12-28.352" transform="translate(-67.723 0)" fill="#282828"/>
        <path id="Trazado_773493" data-name="Trazado 773493" d="M179.313,82.939c.271.61,5.19,23.019,5.19,23.019l28.384-12.615L200.368,65.174Z" transform="translate(-60.54 -19.14)" fill="#f7c2a0"/>
        <path id="Trazado_773494" data-name="Trazado 773494" d="M231.565,73.674s-16.638,4.511-24.34-12.769a209.215,209.215,0,0,1-9.078-23.71c-3.991-12.384,2.715-21.211,15.481-26.576l1.269-.533c13.993-5,25.767-1.437,29.972,11.88l3.912,12.891s12.967,26.179-17.19,38.828" transform="translate(-111.695 -2.328)" fill="#f7c2a0"/>
        <path id="Trazado_773495" data-name="Trazado 773495" d="M234.607,45.8a6.1,6.1,0,0,0-5.688,2.284.444.444,0,0,1-.624,0,.452.452,0,0,1,0-.624,6.969,6.969,0,0,1,6.547-2.511.445.445,0,0,1,.309.542.451.451,0,0,1-.543.309" transform="translate(-117.324 -13.174)" fill="#282828"/>
        <path id="Trazado_773496" data-name="Trazado 773496" d="M261.077,56.221a6.105,6.105,0,0,0-5.689,2.284.443.443,0,0,1-.624,0,.451.451,0,0,1,0-.624,6.968,6.968,0,0,1,6.547-2.512.445.445,0,0,1,.309.542.451.451,0,0,1-.543.309" transform="translate(-162.491 -16.235)" fill="#282828"/>
        <path id="Trazado_773497" data-name="Trazado 773497" d="M265.256,47.431a15.294,15.294,0,0,0-4.929,2.171" transform="translate(-170.132 -13.929)" fill="none" stroke="#282828" stroke-linecap="round" stroke-linejoin="round" stroke-width="3"/>
        <path id="Trazado_773498" data-name="Trazado 773498" d="M239.805,37.39a21.627,21.627,0,0,0-4.841,2.322" transform="translate(-126.766 -10.98)" fill="none" stroke="#282828" stroke-linecap="round" stroke-linejoin="round" stroke-width="3"/>
        <path id="Trazado_773499" data-name="Trazado 773499" d="M246.529,34.322c-6.141,3.948-13.348-7.942-27.254-8.413-7.5-.254-16.564-6.958-20.972-13.246,0,0,11.38-15.059,27.5-11.877s23.872,18.593,23.872,18.593Z" transform="translate(-110.742 -0.101)" fill="#282828"/>
        <path id="Trazado_773500" data-name="Trazado 773500" d="M188.734,44.622c1.533-2.008,3.785-3.623,6.305-3.558a6.856,6.856,0,0,1,5.952,4.572,7.77,7.77,0,0,1-1.358,7.467,8.264,8.264,0,0,1-6.882,2.774Z" transform="translate(-55.724 -12.059)" fill="#f7c2a0"/>
        <path id="Trazado_773501" data-name="Trazado 773501" d="M195.31,47.634a1.949,1.949,0,0,1,2.24-.1,2.625,2.625,0,0,1,1.149,2.007,4.079,4.079,0,0,1-.564,2.3,2.9,2.9,0,0,1-1.462,1.394,2.159,2.159,0,0,1-2.259-.622,2.66,2.66,0,0,1-.563-2.325,3.483,3.483,0,0,1,1.367-2.01" transform="translate(-56.586 -13.869)" fill="#f5b297"/>
        <path id="Trazado_773502" data-name="Trazado 773502" d="M194.564,51.092a4.4,4.4,0,0,1,2.494-4.568,3.918,3.918,0,0,1,1.8-.315c.339.02.341.55,0,.53a3.37,3.37,0,0,0-2.513.88,4.177,4.177,0,0,0-1.223,2.147,3.008,3.008,0,0,0-.046,1.186c.061.333-.449.476-.511.141" transform="translate(-57.498 -13.568)" fill="#f07666"/>
        <path id="Trazado_773503" data-name="Trazado 773503" d="M212.148,97.371c3.3-1.5,7.386-4.269,9.412-8.943,0,0,.581,9.187-7.645,12.917Z" transform="translate(-92.415 -25.969)" fill="#f07666"/>
        <path id="Trazado_773504" data-name="Trazado 773504" d="M239.149,54.525a53.77,53.77,0,0,1,2.257,5.65,8.7,8.7,0,0,1,.506,2.806,9.372,9.372,0,0,1-.346,1.937,7.142,7.142,0,0,0-.278,1.729c.025,1.762,2.166,1.637,3.393,1.5.564-.063.559.821,0,.883-1.586.177-3.882.079-4.232-1.918a7.021,7.021,0,0,1,.355-2.787,6.871,6.871,0,0,0-.249-3.916,51.962,51.962,0,0,0-2.168-5.439c-.228-.515.532-.965.762-.446" transform="translate(-134.452 -15.945)" fill="#282828"/>
        <path id="Trazado_773505" data-name="Trazado 773505" d="M229.432,71.154a6.944,6.944,0,0,0-2.96.4,2.413,2.413,0,0,0-1.533,2.351,3.556,3.556,0,0,0,1.1,1.812,2.944,2.944,0,0,0,1.212.915A2.064,2.064,0,0,0,229.4,75.7a3.29,3.29,0,0,0-.191-3.946" transform="translate(-109.841 -20.895)" fill="#f07666"/>
        <path id="Trazado_773506" data-name="Trazado 773506" d="M229.413,69.111a7.374,7.374,0,0,1-4.5,6.394.445.445,0,0,1-.543-.308.452.452,0,0,1,.309-.543,6.457,6.457,0,0,0,3.847-5.543c.026-.566.909-.569.883,0" transform="translate(-108.882 -20.171)" fill="#282828"/>
        <path id="Trazado_773507" data-name="Trazado 773507" d="M223.394,60.04a3.7,3.7,0,1,1-4.887-1.88,3.7,3.7,0,0,1,4.887,1.88" transform="translate(-97.497 -16.986)" fill="#f5b297"/>
        <path id="Trazado_773508" data-name="Trazado 773508" d="M252.938,65.348a1.759,1.759,0,0,0,2.181,1.134,1.691,1.691,0,0,0,1.043-2.181,1.76,1.76,0,0,0-2.18-1.136,1.692,1.692,0,0,0-1.043,2.183" transform="translate(-155.846 -18.526)" fill="#282828"/>
        <path id="Trazado_773509" data-name="Trazado 773509" d="M230.163,55.485a1.758,1.758,0,0,0,2.181,1.134,1.69,1.69,0,0,0,1.042-2.181,1.76,1.76,0,0,0-2.18-1.136,1.692,1.692,0,0,0-1.043,2.183" transform="translate(-116.985 -15.629)" fill="#282828"/>
        <path id="Trazado_773510" data-name="Trazado 773510" d="M284.08,19.314a32.331,32.331,0,0,0-11.57,26.491,30.135,30.135,0,0,0,1.379,7.512c.9,2.851,2.117,5.6,2.881,8.5a17.722,17.722,0,0,1,.328,8.273,37.9,37.9,0,0,1-2.966,7.929c-2.442,5.283-5.424,12.2-1.519,17.565.336.46-.431.9-.762.445-3.174-4.359-2.02-10.23-.1-14.856C274.115,75.5,277.5,70.1,276.3,63.709a64.35,64.35,0,0,0-2.864-8.962,32.1,32.1,0,0,1,.343-22.477,32.277,32.277,0,0,1,9.679-13.58c.437-.356,1.065.266.624.624" transform="translate(-195.849 -5.457)" fill="#282828"/>
        <path id="Trazado_773511" data-name="Trazado 773511" d="M199.262,51.045a31.374,31.374,0,0,1-13.292-4.464,33.374,33.374,0,0,1-10.179-10.063c-2.825-4.212-5.045-8.8-7.907-12.984a43.009,43.009,0,0,0-10.168-10.478,43.527,43.527,0,0,0-14.567-6.922.442.442,0,0,1,.235-.851,44.357,44.357,0,0,1,23.054,14.838c6.308,7.779,9.389,17.919,17.63,24.1a30.469,30.469,0,0,0,15.195,5.938c.56.056.566.939,0,.883" transform="translate(-21.572 -1.547)" fill="#282828"/>
        <path id="Trazado_773512" data-name="Trazado 773512" d="M230.641,59.573a14.449,14.449,0,0,1-17.579,1.369,15.022,15.022,0,0,1-5.624-7.141c-1.226-3.121-1.66-6.473-2.39-9.728a19.61,19.61,0,0,0-4.128-9.068,20.153,20.153,0,0,0-8.032-5.249c-7.308-2.736-15.216-2.006-22.86-2.368a54.291,54.291,0,0,1-24.236-6.9.442.442,0,0,1,.446-.762,52.4,52.4,0,0,0,21.377,6.627c7.553.63,15.309-.285,22.715,1.67,5.764,1.522,11.332,4.819,13.868,10.435,2.65,5.869,2,13.013,5.838,18.379a13.408,13.408,0,0,0,19.98,2.114c.422-.379,1.048.244.624.624" transform="translate(-54.606 -5.774)" fill="#443b3b"/>
        <path id="Trazado_773513" data-name="Trazado 773513" d="M272.278,21.084a19.723,19.723,0,0,0-6.44,11.788c-.718,4.738.6,9.408,2.346,13.777,1.756,4.407,3.932,8.657,5.176,13.254A41.85,41.85,0,0,1,270.5,89.15c-.251.51-1.013.063-.763-.446a41.012,41.012,0,0,0,2.693-28.859c-2.481-8.9-8.8-17.162-7.5-26.814a20.512,20.512,0,0,1,6.722-12.571c.424-.374,1.052.248.624.624" transform="translate(-182.786 -5.975)" fill="#443b3b"/>
        <path id="Trazado_773514" data-name="Trazado 773514" d="M200.184,340.425c-3.636-1.26-8.178-3.483-8.272-7.331a15.5,15.5,0,0,1,4.3-10.423,39.257,39.257,0,0,1,9.115-7.017c3.383-2.06,7.051-4.242,8.627-7.876,1.011-2.332.45-6.783,1.731-8.978a8.532,8.532,0,0,1,6.711-4.208,64.5,64.5,0,0,1,8.132-.455c4.939.225,9.288,2.416,14.213,2.856a2,2,0,0,1,2.228,2.345l1.24,17.46c-4.4,1.908-7.594.083-11.763,2.447a13.747,13.747,0,0,0-3.566,3.3c-4.133,4.92-10.19,9.943-15.109,14.076s-11.36,7.021-17.7,5.966" transform="translate(-104.755 -86.373)" fill="#f7c2a0"/>
        <path id="Trazado_773515" data-name="Trazado 773515" d="M223.076,357.147c.355,1.4,2.048,1.982,3.489,1.949a3.814,3.814,0,0,0,2.7-.961,10.793,10.793,0,0,0,1.114-1.779c1.067-1.654,11.764-9.127,13.985-11.824" transform="translate(-122.925 -101.179)" fill="#f7c2a0"/>
        <path id="Trazado_773516" data-name="Trazado 773516" d="M223.353,356.838c.395,1.26,1.877,1.649,3.063,1.625a3.823,3.823,0,0,0,1.959-.492,4.235,4.235,0,0,0,1.27-1.687,9.077,9.077,0,0,1,2.25-2.312c2.8-2.332,5.738-4.488,8.555-6.8a25.218,25.218,0,0,0,3.45-3.146c.366-.437.987.191.624.624a24.867,24.867,0,0,1-3.375,3.085c-1.631,1.339-3.3,2.63-4.961,3.93-1.464,1.145-2.944,2.279-4.345,3.5a8.408,8.408,0,0,0-1.152,1.107c-.626.8-.866,1.793-1.759,2.387-1.932,1.285-5.657.882-6.431-1.592-.17-.543.682-.775.851-.234" transform="translate(-122.777 -100.989)" fill="#f07666"/>
        <path id="Trazado_773517" data-name="Trazado 773517" d="M248.147,358.5c.784,3.3,5.246,2.791,7.227,1.964a6.607,6.607,0,0,0,3.88-4.81" transform="translate(-155.527 -104.444)" fill="#f7c2a0"/>
        <path id="Trazado_773518" data-name="Trazado 773518" d="M248.4,358.2c.578,2.254,3.145,2.48,5.081,2.118a6.3,6.3,0,0,0,5.175-4.964c.11-.557.961-.321.851.234a7.172,7.172,0,0,1-6.015,5.62c-2.372.383-5.255-.09-5.943-2.774a.441.441,0,0,1,.85-.234" transform="translate(-155.351 -104.263)" fill="#f07666"/>
        <path id="Trazado_773519" data-name="Trazado 773519" d="M254.429,353.521a4.174,4.174,0,0,0,3.344,3.414,5.7,5.7,0,0,0,4.731-1.4,9.159,9.159,0,0,0,2.623-4.307" transform="translate(-165.837 -103.144)" fill="#f7c2a0"/>
        <path id="Trazado_773520" data-name="Trazado 773520" d="M254.652,353.227a3.959,3.959,0,0,0,5.148,2.994c2.475-.687,3.972-2.961,4.7-5.291.169-.541,1.021-.31.852.234-.849,2.723-2.7,5.361-5.646,5.99-2.57.548-5.516-.913-5.9-3.693-.078-.555.773-.8.851-.234" transform="translate(-165.634 -102.968)" fill="#f07666"/>
        <path id="Trazado_773521" data-name="Trazado 773521" d="M265.657,329.613a19.356,19.356,0,0,0-8.163,6.728,9.385,9.385,0,0,0-1.964,6.478c.333,2.287,2.37,4.42,4.67,4.2,1.894-.182,3.316-1.773,4.431-3.316s2.255-3.254,4.046-3.9" transform="translate(-170.119 -96.798)" fill="#f7c2a0"/>
        <path id="Trazado_773522" data-name="Trazado 773522" d="M265.732,329.818a19.3,19.3,0,0,0-7.053,5.31c-1.892,2.284-3.866,5.719-2.481,8.72a4.321,4.321,0,0,0,3.005,2.526,4.384,4.384,0,0,0,3.8-1.719c1.779-1.906,2.832-4.441,5.4-5.454.528-.208.758.645.234.851-2.432.957-3.464,3.654-5.2,5.418-1.525,1.552-3.662,2.4-5.709,1.31a5.8,5.8,0,0,1-2.84-5.625,12.592,12.592,0,0,1,3.335-6.867,19.87,19.87,0,0,1,7.051-5.232c.515-.23.964.531.446.761" transform="translate(-169.971 -96.622)" fill="#f07666"/>
        <path id="Trazado_773523" data-name="Trazado 773523" d="M103.831,260.626c14.091-13.827,30.925-23.958,48.707-25.4,7.811-.634,15.984.533,22.675,5.682a28.7,28.7,0,0,1,10.53,24.765,29.047,29.047,0,0,1-8.066,16.927c-4.122,4.277-9.071,7.06-14.054,9.445-13.883,6.645-84.518,20.758-99.334,21.815L50.036,289.312Z" transform="translate(57.784 -69.033)" fill="#be5f5a"/>
        <path id="Trazado_773524" data-name="Trazado 773524" d="M140.361,264.583c-20.95-.972-41.386,11.837-63.339,26.985" transform="translate(84.237 -77.685)" fill="#be5f5a"/>
        <path id="Trazado_773525" data-name="Trazado 773525" d="M140.179,264.843c-17.815-.776-34.366,8.2-48.951,17.467-4.793,3.044-9.492,6.234-14.166,9.458-.469.324-.91-.441-.446-.762A291.375,291.375,0,0,1,102,274.88c7.724-4.225,15.9-7.878,24.546-9.723a54.109,54.109,0,0,1,13.633-1.2c.566.025.569.908,0,.883" transform="translate(84.419 -77.504)" fill="#282828"/>
        <path id="Trazado_773526" data-name="Trazado 773526" d="M156.14,355.644c3.636-1.26,8.177-3.483,8.272-7.331a15.5,15.5,0,0,0-4.3-10.423A39.258,39.258,0,0,0,151,330.874c-3.383-2.06-7.051-4.242-8.627-7.876-1.011-2.332-.45-6.784-1.731-8.979a8.529,8.529,0,0,0-6.711-4.208,64.365,64.365,0,0,0-8.132-.456c-4.939.225-9.288,2.416-14.213,2.857a2,2,0,0,0-2.228,2.344l-1.24,17.46c4.4,1.908,7.594.083,11.763,2.447a13.75,13.75,0,0,1,3.566,3.3c4.133,4.92,10.19,9.942,15.109,14.076s11.36,7.021,17.7,5.966" transform="translate(38.218 -90.842)" fill="#f7c2a0"/>
        <path id="Trazado_773527" data-name="Trazado 773527" d="M147.8,372.367c-.355,1.4-2.048,1.981-3.489,1.949a3.815,3.815,0,0,1-2.7-.961,10.791,10.791,0,0,1-1.114-1.779c-1.067-1.654-11.764-9.127-13.985-11.824" transform="translate(41.833 -105.649)" fill="#f7c2a0"/>
        <path id="Trazado_773528" data-name="Trazado 773528" d="M148.017,372.293c-.684,2.185-3.56,2.654-5.492,2.031-1.8-.581-2.173-2.415-3.462-3.59-2.839-2.587-6.022-4.806-9.009-7.217a28.553,28.553,0,0,1-4.061-3.643c-.362-.432.259-1.06.624-.624a22.521,22.521,0,0,0,2.936,2.723c1.445,1.2,2.926,2.358,4.405,3.515,1.414,1.105,2.835,2.2,4.223,3.341a13.142,13.142,0,0,1,2.422,2.24c.307.424.5.92.785,1.355a2.879,2.879,0,0,0,2.176,1.226c1.308.158,3.15-.15,3.6-1.591.169-.54,1.021-.31.851.234" transform="translate(42.045 -105.458)" fill="#f07666"/>
        <path id="Trazado_773529" data-name="Trazado 773529" d="M126.965,373.716c-.784,3.3-5.246,2.791-7.227,1.964a6.607,6.607,0,0,1-3.88-4.81" transform="translate(70.202 -108.914)" fill="#f7c2a0"/>
        <path id="Trazado_773530" data-name="Trazado 773530" d="M127.2,373.652c-.687,2.684-3.571,3.157-5.943,2.774a7.174,7.174,0,0,1-6.015-5.62c-.109-.555.742-.793.852-.234a6.3,6.3,0,0,0,5.174,4.964c1.937.361,4.5.136,5.082-2.118a.441.441,0,0,1,.85.234" transform="translate(70.391 -108.733)" fill="#f07666"/>
        <path id="Trazado_773531" data-name="Trazado 773531" d="M120.853,368.741a4.174,4.174,0,0,1-3.344,3.414,5.7,5.7,0,0,1-4.731-1.4,9.159,9.159,0,0,1-2.623-4.307" transform="translate(80.342 -107.614)" fill="#f7c2a0"/>
        <path id="Trazado_773532" data-name="Trazado 773532" d="M121.116,368.681c-.386,2.774-3.335,4.249-5.9,3.693-2.95-.639-4.795-3.26-5.646-5.99-.17-.544.682-.776.851-.235.728,2.335,2.224,4.6,4.7,5.292a3.959,3.959,0,0,0,5.148-2.994c.078-.561.929-.322.851.234" transform="translate(80.505 -107.437)" fill="#f07666"/>
        <path id="Trazado_773533" data-name="Trazado 773533" d="M108.58,344.832a19.353,19.353,0,0,1,8.164,6.728,9.389,9.389,0,0,1,1.964,6.478c-.333,2.287-2.37,4.42-4.67,4.2-1.9-.182-3.316-1.773-4.431-3.316s-2.255-3.254-4.047-3.9" transform="translate(85.668 -101.267)" fill="#f7c2a0"/>
        <path id="Trazado_773534" data-name="Trazado 773534" d="M108.613,344.275a20,20,0,0,1,6.293,4.4,14.328,14.328,0,0,1,3.947,6.7,6.1,6.1,0,0,1-1.995,6.159,4.413,4.413,0,0,1-5.629-.145c-2.235-1.759-3.217-5.032-5.977-6.118-.523-.206-.3-1.06.234-.851,2.573,1.012,3.626,3.548,5.4,5.454a4.381,4.381,0,0,0,3.8,1.719,4.318,4.318,0,0,0,3.005-2.526c1.385-3-.588-6.434-2.48-8.72a19.318,19.318,0,0,0-7.054-5.31c-.518-.23-.069-.991.446-.762" transform="translate(85.859 -101.091)" fill="#f07666"/>
        <path id="Trazado_773535" data-name="Trazado 773535" d="M237.85,260.626c-14.09-13.827-30.925-23.958-48.706-25.4-7.811-.634-15.985.533-22.675,5.682a28.7,28.7,0,0,0-10.531,24.765A29.055,29.055,0,0,0,164,282.6c4.122,4.277,9.071,7.06,14.055,9.445,13.883,6.645,84.518,20.758,99.334,21.815l12.931-27.442Z" transform="translate(-121.372 -69.033)" fill="#be5f5a"/>
        <path id="Trazado_773536" data-name="Trazado 773536" d="M311.1,264.9a23.981,23.981,0,0,0-12.317-1.863c-.564.063-.559-.821,0-.883a24.831,24.831,0,0,1,12.763,1.984c.518.228.07.99-.446.762" transform="translate(-243.515 -76.944)" fill="#282828"/>
        <path id="Trazado_773537" data-name="Trazado 773537" d="M208.313,295.563c4.05,1.216,8.124,2.363,12.139,3.693,3.978,1.319,7.863,2.883,11.71,4.54a.441.441,0,0,1,.2.5,188.9,188.9,0,0,1-13.223,27.99.454.454,0,0,1-.5.2q-9.362-1.737-18.717-3.5c-10.913-2.053-21.826-4.114-32.72-6.264-3.911-.771-7.835-1.514-11.717-2.421-.553-.129-.319-.98.234-.851,8.467,1.98,17.064,3.479,25.6,5.114q15.393,2.948,30.8,5.815,3.374.63,6.75,1.257l-.5.2a187.449,187.449,0,0,0,13.133-27.78l.2.5c-3.847-1.658-7.736-3.211-11.716-4.522-3.945-1.3-7.946-2.428-11.923-3.623a.442.442,0,0,1,.235-.851" transform="translate(-62.988 -86.792)" fill="#282828"/>
        <path id="Trazado_773538" data-name="Trazado 773538" d="M93.737,217.268c3.093-5.425,8.506-9.223,14.3-11.544s12.025-3.312,18.193-4.287l106.283,10.777c8.775,2.5,14.162,12.364,13.249,21.441s-7.061,17.025-14.708,22-16.679,7.359-25.65,9.018a190.56,190.56,0,0,1-72.939-.756c-11.6-2.394-23.439-6.143-31.952-14.371s-12.643-21.992-6.778-32.278" transform="translate(-31.135 -59.156)" fill="#f0b478"/>
        <path id="Trazado_773539" data-name="Trazado 773539" d="M262.859,272.21c-19.921,4.648-40.612,3.239-60.711.607-10.026-1.312-20.064-2.837-29.469-6.724-7.7-3.182-14.966-8.143-19.433-15.321a28.719,28.719,0,0,1-3.963-12.354,25.638,25.638,0,0,1,1.85-12.991c.233-.517.995-.069.762.446-3.181,7.062-2.267,16.181,1.254,22.949,3.828,7.356,11.058,12.576,18.486,15.873,8.964,3.979,18.65,5.636,28.3,6.945a276.077,276.077,0,0,0,29.7,2.668,129.8,129.8,0,0,0,32.993-2.948c.552-.129.788.722.235.851" transform="translate(-89.512 -66.134)" fill="#282828"/>
        <path id="Trazado_773540" data-name="Trazado 773540" d="M245.476,243.433c-4.785,7.983-14.359,10.928-22.9,12.917a282.216,282.216,0,0,1-35.771,6.145,168.172,168.172,0,0,1-36.259,0,123.588,123.588,0,0,1-30.486-7.429,98.323,98.323,0,0,1-26.691-15.368q-1.531-1.252-3-2.575c-.425-.379.2-1,.624-.624a94.967,94.967,0,0,0,25.881,16.315,119.624,119.624,0,0,0,29.71,8.273,158.367,158.367,0,0,0,34.929.992A260.13,260.13,0,0,0,217.2,256.65c8.829-1.911,19.232-3.789,25.518-10.91a18.547,18.547,0,0,0,2-2.753.442.442,0,0,1,.762.446" transform="translate(-30.272 -69.417)" fill="#e4e5d1"/>
        <path id="Trazado_773541" data-name="Trazado 773541" d="M148.058,107.007l33.318-6.929s34.463,3.395,38.6,7.045S209.51,190.6,209.51,190.6H131.878V125.73Z" transform="translate(-34.861 -29.39)" fill="#f7c2a0"/>
        <path id="Trazado_773542" data-name="Trazado 773542" d="M219.358,113.861a70.054,70.054,0,0,1,12.494-2.344c.565-.054.562.829,0,.883a68.76,68.76,0,0,0-12.26,2.312.442.442,0,0,1-.234-.851" transform="translate(-107.993 -32.749)" fill="#f07666"/>
        <path id="Trazado_773543" data-name="Trazado 773543" d="M183.035,110.447l7.632-1.494c.555-.109.793.742.235.851l-7.633,1.494c-.555.109-.792-.742-.234-.851" transform="translate(-41.277 -31.994)" fill="#f07666"/>
        <path id="Trazado_773544" data-name="Trazado 773544" d="M241.117,161.359A11.175,11.175,0,0,1,249,151.831a.442.442,0,0,1,.234.851A10.264,10.264,0,0,0,242,161.359c-.054.561-.937.566-.883,0" transform="translate(-140.849 -44.583)" fill="#f07666"/>
        <path id="Trazado_773545" data-name="Trazado 773545" d="M245.69,136.4a88.378,88.378,0,0,0,3.794,11.879c.21.528-.643.757-.852.235a88.486,88.486,0,0,1-3.793-11.88c-.134-.552.717-.788.851-.235" transform="translate(-143.442 -39.966)" fill="#f07666"/>
        <path id="Trazado_773546" data-name="Trazado 773546" d="M208.563,169.639a14.7,14.7,0,0,0-6.1-12.189c-.46-.326-.019-1.092.446-.762a15.611,15.611,0,0,1,6.535,12.951.442.442,0,0,1-.883,0" transform="translate(-73.318 -45.991)" fill="#f07666"/>
        <path id="Trazado_773547" data-name="Trazado 773547" d="M193.73,155.361a11.418,11.418,0,0,0-4.013,6.033.442.442,0,0,1-.851-.234,12.387,12.387,0,0,1,4.419-6.561.443.443,0,0,1,.6.158.452.452,0,0,1-.158.6" transform="translate(-48.338 -45.382)" fill="#f07666"/>
        <path id="Trazado_773548" data-name="Trazado 773548" d="M141.794,182.676l54.994-31.709,9.85,4.405,4.672,15.6-2.887,17.482-69.02-1.178Z" transform="translate(-30.773 -44.335)" fill="#fff"/>
        <path id="Trazado_773549" data-name="Trazado 773549" d="M265.573,109.987s-18.556,2.687-23.048,9.744c-3.337,5.242-8.028,18.783-8.028,18.783l21.994,3.141,8.854-31.223" transform="translate(-152.205 -32.3)" fill="#f7c2a0"/>
        <path id="Trazado_773550" data-name="Trazado 773550" d="M251.308,180.48c3.511-14.549,16.867-48.076,16.867-48.076l15.163,9.871-6.416,39.587-14.7,25.7c-13.338-5.395-13.338-17.026-10.911-27.08" transform="translate(-180.972 -38.883)" fill="#f7c2a0"/>
        <path id="Trazado_773551" data-name="Trazado 773551" d="M242.693,157.26l30.663,27.3-2.391,4.6-29.847-27.617Z" transform="translate(-164.662 -46.183)" fill="#fff"/>
        <path id="Trazado_773552" data-name="Trazado 773552" d="M253.9,193.476a22.972,22.972,0,0,1-10.8,4.078,25.543,25.543,0,0,1-15.66-4.647s-12.052-6.516-4.781-21.365,22.539-9.219,24.243-7.628a15.946,15.946,0,0,0,4.411,2.779c.9.431,5.769-.42,8.968,2.135,2.784,2.223,4.03,7.23,3.674,10.043s-1.252,6.565-1.252,6.565" transform="translate(-140.638 -47.439)" fill="#f7c2a0"/>
        <path id="Trazado_773553" data-name="Trazado 773553" d="M253.9,193.476a22.972,22.972,0,0,1-10.8,4.078,25.543,25.543,0,0,1-15.66-4.647s-12.052-6.516-4.781-21.365,22.539-9.219,24.243-7.628a15.946,15.946,0,0,0,4.411,2.779c.9.431,5.769-.42,8.968,2.135,2.784,2.223,4.03,7.23,3.674,10.043s-1.252,6.565-1.252,6.565" transform="translate(-140.638 -47.439)" fill="none" stroke="#f07666" stroke-miterlimit="10" stroke-width="1"/>
        <path id="Trazado_773554" data-name="Trazado 773554" d="M240.16,177.035a2.627,2.627,0,0,0-1.364,2.628,3.326,3.326,0,0,0,1.842,2.462,3.55,3.55,0,0,0,5.22-2.791c.022-.566.9-.569.883,0a4.337,4.337,0,0,1-4.637,4.076c-2.176-.13-4.346-1.916-4.2-4.24a3.474,3.474,0,0,1,1.808-2.9c.505-.258.953.5.446.762" transform="translate(-135.777 -51.751)" fill="#f07666"/>
        <path id="Trazado_773555" data-name="Trazado 773555" d="M238.858,167.148a3.3,3.3,0,0,1-.723,2.743.444.444,0,0,1-.624,0,.452.452,0,0,1,0-.624l.047-.057c-.03.041-.031.042,0,0s.057-.08.085-.121a2.682,2.682,0,0,0,.148-.255c.023-.044.043-.088.064-.133s.02-.045,0,0c.009-.023.018-.046.026-.069a2.723,2.723,0,0,0,.083-.264c.024-.09.04-.18.058-.271.007-.052.007-.049,0,.008l.008-.073c0-.049.008-.1.01-.148a2.733,2.733,0,0,0,0-.295c0-.049-.008-.1-.013-.147.013.114-.009-.044-.013-.065a.441.441,0,1,1,.851-.234" transform="translate(-127.587 -48.993)" fill="#282828"/>
        <path id="Trazado_773556" data-name="Trazado 773556" d="M149.205,194.665a10.739,10.739,0,0,1,7.323-4.008,24.482,24.482,0,0,1,8.508.676,70.2,70.2,0,0,1,26.2,11.823c4.484,3.275,8.847,7.211,14.31,8.208,1.873.342,4.053.446,5.208,1.959.843,1.1,3.26,2.693,2.894,4.034-1.247,4.557-3.833,11.695-8.119,13.681-5.288,2.45-15.215.058-20.982.9A31.421,31.421,0,0,1,167.4,230c-4.167-1.836-9.453-4.465-12.8-7.551-3.232-2.979-4.645-6.5-6.667-10.406s-2.851-8.6-1.374-12.743" transform="translate(-37.679 -55.949)" fill="#cb4dae"/>
        <path id="Trazado_773557" data-name="Trazado 773557" d="M148.7,212.783c-2.69-3.568-7.454-10.8-10.94-13.593s-7.864-4.742-12.323-4.433-9.648,2.325-10.793,6.644h0l-2.825,7.323,14.206,8.553,19.093,8.109a21.219,21.219,0,0,0,6.741,1.533,7.177,7.177,0,0,0,6.05-2.8,10.613,10.613,0,0,0,1.341-4.249q1.062-6.414,2.124-12.828a4.222,4.222,0,0,0-.268-3.061c-.985-1.459-3.626-2.071-5.334-1.649-1.976.489-2.773,2.2-4,4.679-1.807,3.666-3.075,5.769-3.075,5.769" transform="translate(38.501 -57.185)" fill="#cb4dae"/>
        <path id="Trazado_773558" data-name="Trazado 773558" d="M167.342,205.822c-2.642-5.072-7.214-9.3-12.923-10.5-5.793-1.221-12.19.862-15.275,6.109a11.945,11.945,0,0,0-1.384,9.014.442.442,0,0,1-.852.235,13.377,13.377,0,0,1,6.653-14.724c5.627-3.062,12.65-2.156,17.766,1.5a22.41,22.41,0,0,1,6.778,7.924c.263.5-.5.95-.762.446" transform="translate(14.408 -57.003)" fill="#282828"/>
        <path id="Trazado_773559" data-name="Trazado 773559" d="M214.127,238.174c-8.386,5.05-18.865,5.035-28.324,4.287a49.326,49.326,0,0,1-15.221-3.325,35.589,35.589,0,0,1-18.858-18.788c-.22-.516.54-.967.762-.445a34.955,34.955,0,0,0,17.2,17.879,44.573,44.573,0,0,0,14.489,3.65,84.252,84.252,0,0,0,14.345.3,33.765,33.765,0,0,0,15.157-4.319.442.442,0,0,1,.446.762" transform="translate(-42.476 -64.511)" fill="#282828"/>
        <path id="Trazado_773560" data-name="Trazado 773560" d="M185.428,185.44c-.55-.889.622-2.036,1.112-2.959a23.032,23.032,0,0,1,1.851-2.526,10.131,10.131,0,0,0,.98-9.942,1.818,1.818,0,0,0-2.746-1.863,1.386,1.386,0,0,0-1.431-1.683c-.871.074-1.464.432-1.44,1.3-.039-.4-.764-.61-1.142-.48s-.609.779-.545,1.417c.04.4-.037.8-.017,1.2a9.5,9.5,0,0,1-.221,2.579,2.7,2.7,0,0,1-.8,1.554,1.145,1.145,0,0,1-1.591-.071c-.4-.54-.068-1.378-.455-1.924a1.178,1.178,0,0,0-1.777.109,2.936,2.936,0,0,0-.487,1.953,11.247,11.247,0,0,0,1.988,5.861l-1.053,2.938Z" transform="translate(-36.066 -48.886)" fill="#f7c2a0"/>
        <path id="Trazado_773561" data-name="Trazado 773561" d="M184.865,185.5c-.6-1.268.5-2.368,1.112-3.4.9-1.525,2.207-2.733,2.895-4.391a9.856,9.856,0,0,0,.648-5.164,9.376,9.376,0,0,0-.278-1.283c-.12-.412-.37-.824-.456-1.235s.015-.814-.218-1.2a1.421,1.421,0,0,0-1.9-.451.447.447,0,0,1-.648-.5c.282-1.269-1.954-1.56-2-.261a.444.444,0,0,1-.867.117.339.339,0,0,0-.316-.182.638.638,0,0,0-.513.729c-.018.283.015.586.008.869-.016.742.014,1.48-.071,2.219a4.042,4.042,0,0,1-1.183,2.894,1.588,1.588,0,0,1-2.125-.14,2.385,2.385,0,0,1-.36-1.271c-.1-.542-.244-1.062-.882-.8a1.234,1.234,0,0,0-.664.978,7.623,7.623,0,0,0,.448,3.684,10.724,10.724,0,0,0,.741,1.8c.2.379.717.867.74,1.3a4.833,4.833,0,0,1-.513,1.5q-.279.774-.556,1.55l-.309-.542,7.771,2.536c.538.175.307,1.028-.234.851l-7.771-2.536a.447.447,0,0,1-.309-.543q.249-.693.5-1.387c.13-.362.593-1.135.546-1.521.03.245-.241-.11-.3-.2-.14-.222-.268-.451-.388-.684a12.278,12.278,0,0,1-.637-1.492,11.186,11.186,0,0,1-.662-3.171,3.343,3.343,0,0,1,.681-2.563,1.685,1.685,0,0,1,2.024-.305,1.365,1.365,0,0,1,.564.8c.153.535.1,2.014,1.064,1.519,1.209-.618.967-3.08.987-4.175.016-.845-.177-2.246.78-2.695A1.361,1.361,0,0,1,184,167.5l-.867.117c.1-2.582,4.3-2.056,3.738.5l-.649-.5a2.29,2.29,0,0,1,3.415,1.666c.132.875.478,1.672.653,2.549a10.719,10.719,0,0,1,.186,2.854,10.454,10.454,0,0,1-1.726,5.113c-.586.862-1.326,1.61-1.869,2.5-.383.629-1.617,2-1.253,2.761.243.511-.518.959-.762.446" transform="translate(-35.883 -48.725)" fill="#f07666"/>
        <path id="Trazado_773562" data-name="Trazado 773562" d="M184.444,173.672a6.043,6.043,0,0,0,.088-5.317c-.256-.506.506-.954.762-.446a6.976,6.976,0,0,1-.088,6.209c-.254.508-1.016.061-.762-.446" transform="translate(-37.223 -49.244)" fill="#f07666"/>
        <path id="Trazado_773563" data-name="Trazado 773563" d="M180.757,174.108a9.115,9.115,0,0,0-.056-5.466c-.182-.54.671-.772.851-.235a9.96,9.96,0,0,1,.056,5.935.442.442,0,0,1-.851-.235" transform="translate(-30.648 -49.367)" fill="#f07666"/>
        <path id="Trazado_773564" data-name="Trazado 773564" d="M177.262,175.331a6.464,6.464,0,0,0,.46-1.9,7.668,7.668,0,0,0-.012-2.008.455.455,0,0,1,.308-.543.445.445,0,0,1,.543.309,8.285,8.285,0,0,1,.037,2.308,7.637,7.637,0,0,1-.574,2.279.445.445,0,0,1-.6.158.453.453,0,0,1-.158-.6" transform="translate(-24.828 -50.179)" fill="#f07666"/>
        <path id="Trazado_773565" data-name="Trazado 773565" d="M214.562,188.53a37.739,37.739,0,0,1-.823,8.653,12.687,12.687,0,0,1-4.514,7.247,16.918,16.918,0,0,1-5.576,2.356,28.243,28.243,0,0,1-11.1,1.228c-3.715-.5-7.4-2.4-9.261-5.659a11.082,11.082,0,0,1-1.372-4.7,5.438,5.438,0,0,1,1.415-4.566,6.161,6.161,0,0,1,3.929-1.117,65.525,65.525,0,0,1,9.689.691l4.008.486a1.827,1.827,0,0,0,.959-.055,1.758,1.758,0,0,0,.6-.522c1.574-1.882,1.687-4.6,2.577-6.883" transform="translate(-64.034 -54.53)" fill="#cb4dae"/>
        <path id="Trazado_773566" data-name="Trazado 773566" d="M215.7,191.237c-1.747,5.523-.85,12.6-5.621,16.789-2.314,2.031-5.273,2.221-8.21,1.868-3.279-.394-6.567-.909-9.805-1.561a47.1,47.1,0,0,1-10.77-3.395c-.514-.241-.066-1,.445-.762,5.663,2.656,11.886,3.65,18.024,4.542,3.029.44,6.418,1.04,9.1-.85a11.252,11.252,0,0,0,3.951-6.4c.927-3.441.956-7.055,2.035-10.464.17-.54,1.023-.309.851.234" transform="translate(-64.62 -56.002)" fill="#282828"/>
        <path id="Trazado_773567" data-name="Trazado 773567" d="M198.4,201.592a11.105,11.105,0,0,1-.5-5.91c.1-.558.954-.322.852.235a10.236,10.236,0,0,0,.5,5.441c.2.533-.653.763-.851.234" transform="translate(-59.937 -57.373)" fill="#282828"/>
        <path id="Trazado_773568" data-name="Trazado 773568" d="M211.979,206.748l39,1.574,12.354-.365L254.6,225.418s-24.086,2.859-41.033,4.487c-20.433,1.964-21.261-10-17.9-17.636,3.008-6.835,16.313-5.521,16.313-5.521" transform="translate(-121.475 -60.686)" fill="#f7c2a0"/>
        <path id="Trazado_773569" data-name="Trazado 773569" d="M259.22,208.11c-14.16.589-28.312-1.314-42.472-1.271a98.193,98.193,0,0,0-11.162.58c-.563.066-.558-.817,0-.883a133.1,133.1,0,0,1,20.634-.384c7.313.283,14.616.795,21.931,1.043,3.688.126,7.382.186,11.07.033.568-.023.567.86,0,.883" transform="translate(-125.559 -60.478)" fill="#f07666"/>
        <path id="Trazado_773570" data-name="Trazado 773570" d="M218.355,191.767a9.076,9.076,0,0,0,1.45-2.674c.428-1.541-.071-3.492-2.308-3.671a3.408,3.408,0,0,0-1.389.194,5.412,5.412,0,0,0-2.749,1.987c-2.6,3.927-5.033,7.178-7.64,10.851A5.954,5.954,0,0,1,201.23,201a4.458,4.458,0,0,1-1.1-.056c-.942-.742-.579-2.565-.235-3.8a8.143,8.143,0,0,1,1.1-2.382c1.01-1.49,2.414-3.344,1.978-5.348a2.478,2.478,0,0,0-1.736-1.935c-1.287-.319-2.3.634-3.143,1.513l-7.342,7.645c-2.075,2.161-4.2,4.4-5.26,7.209a14.893,14.893,0,0,0-.451,7.976c.5,2.649-6.986,2.271-6.015,4.786.453,1.172-6.982,5.1-5.859,5.661.933.467,17.06-.321,18.092-.476,4.2-.632,9.511-1.1,13.328-2.967A34.807,34.807,0,0,0,218.2,206.36a8.734,8.734,0,0,0,1.466-3.058,3.125,3.125,0,0,0-.978-3.087,13.28,13.28,0,0,0,2.467-3.021,4.481,4.481,0,0,0,.355-3.77,2.743,2.743,0,0,0-3.159-1.657" transform="translate(-65.022 -54.45)" fill="#f7c2a0"/>
        <path id="Trazado_773571" data-name="Trazado 773571" d="M175.333,206.065c3.631-3.7,8.713-9.566,11.709-14.98" transform="translate(-31.884 -56.116)" fill="#f7c2a0"/>
        <path id="Trazado_773572" data-name="Trazado 773572" d="M174.836,205.57a71.592,71.592,0,0,0,11.64-14.89c.277-.5,1.04-.052.762.446a72.541,72.541,0,0,1-11.777,15.069c-.4.406-1.023-.218-.625-.624" transform="translate(-31.699 -55.934)" fill="#f07666"/>
        <path id="Trazado_773573" data-name="Trazado 773573" d="M174.5,213.93c2.885-3.053,5.722-6.738,8.451-9.923" transform="translate(-27.208 -59.911)" fill="#f7c2a0"/>
        <path id="Trazado_773574" data-name="Trazado 773574" d="M174.024,213.427c2.981-3.164,5.627-6.622,8.451-9.923.37-.432.992.194.624.624-2.824,3.3-5.47,6.758-8.451,9.923-.391.415-1.014-.211-.624-.624" transform="translate(-27.043 -59.721)" fill="#f07666"/>
        <path id="Trazado_773575" data-name="Trazado 773575" d="M172.292,221.6a195.839,195.839,0,0,0,23.766-1.453,69.711,69.711,0,0,0,8.87-1.467c3.4-.862,6.453-3.133,9.059-5.4a38.115,38.115,0,0,0,5.49-5.9c1.3-1.734,4.234-5.094,1.877-6.978a.448.448,0,0,1,0-.624,9.824,9.824,0,0,0,2.716-4.406c.261-1.533-.583-4.335-2.617-3.821-.348.088-.729-.318-.5-.648a6.1,6.1,0,0,0,1.524-3.6,2.2,2.2,0,0,0-2.8-2.035,4.485,4.485,0,0,0-2.69,2.291c-.679,1.012-1.379,2.008-2.116,2.977-1.2,1.58-2.495,3.089-3.738,4.636-1.459,1.817-2.719,3.838-4.727,5.107-1.027.648-2.671,1.444-3.893.855-1.557-.752-.647-3.043-.247-4.22a13.209,13.209,0,0,1,1.245-2.847,15.063,15.063,0,0,0,1.9-3.373c.369-1.189.175-2.863-1.162-3.371-1.353-.513-2.508.973-3.329,1.828l-6.75,7.028c-2.053,2.138-4.166,4.331-5.266,7.137-.2.523-1.059.3-.851-.234a20.8,20.8,0,0,1,4.543-6.534c2.113-2.239,4.264-4.444,6.4-6.665,1.342-1.4,3.341-4.338,5.653-3.357,2.269.962,2.046,3.782,1.117,5.6-.605,1.187-1.5,2.207-2.065,3.414a15.161,15.161,0,0,0-1.084,3.3c-.087.438-.227,1.147.2,1.46a1.454,1.454,0,0,0,1,.1,6.176,6.176,0,0,0,2.645-1.226,15.109,15.109,0,0,0,2.862-3.125c.784-1.012,1.588-2.008,2.4-3,1.513-1.84,2.988-3.7,4.32-5.675a6.9,6.9,0,0,1,2.574-2.693,3.741,3.741,0,0,1,3.191,0,3,3,0,0,1,1.551,2.743,7.039,7.039,0,0,1-1.65,3.914l-.5-.648c2.189-.554,3.539,1.577,3.757,3.493.263,2.319-1.472,4.624-3,6.21v-.624c1.771,1.415,1.187,3.518.17,5.241a35.753,35.753,0,0,1-4.491,5.923,37.9,37.9,0,0,1-5.418,4.863,25.088,25.088,0,0,1-5.387,3.2,34.616,34.616,0,0,1-8.012,1.663c-4.06.563-8.145.952-12.234,1.251-4.761.347-9.538.576-14.314.56a.442.442,0,0,1,0-.883" transform="translate(-67.395 -54.135)" fill="#f07666"/>
        <path id="Trazado_773576" data-name="Trazado 773576" d="M96.543,196.383,130.83,170.19l-19.187-66.709c15.454,3.031,22.607,1.2,30.587,20.429,0,0,8.728,27.735,13.139,42.753,2.765,9.414.745,19.243-10.853,26.7-5.312,3.417-42.852,19.766-42.852,19.766Z" transform="translate(54.339 -30.389)" fill="#f7c2a0"/>
        <path id="Trazado_773577" data-name="Trazado 773577" d="M127.863,201.408a10.687,10.687,0,0,0-8.854-2.475c-.555.1-.794-.75-.234-.851a11.632,11.632,0,0,1,9.713,2.7c.427.376-.2,1-.624.624" transform="translate(66.702 -58.118)" fill="#f07666"/>
        <path id="Trazado_773578" data-name="Trazado 773578" d="M172.572,233.665a9.09,9.09,0,0,1-2.612-1.559,3.073,3.073,0,0,1-1.023-2.743,3.016,3.016,0,0,1,2.427-2.134,5.409,5.409,0,0,1,3.378.305c4.733,2.283,7.1,3.172,11.8,5.29,3.432,1.4,5.121.458,5.579-.733a3.243,3.243,0,0,0-1.1-3.39c-.934-.871-2.9-1.32-4.04-1.892a4.743,4.743,0,0,1-2.141-2.457c-.6-1.124.494-1.989,1.583-2.654a15.45,15.45,0,0,1,6.178-.754c3.406.942,3.089,1.2,6.495,2.143,2.888.8,5.778,3.356,8.119,5.227a11.552,11.552,0,0,1,4.243,5.587,44.484,44.484,0,0,1,1.826,7.868,3.875,3.875,0,0,1-2.842,5.379c-3.935,1.6-7.948,3.222-12.183,3.567-6.278.51-12.43-1.828-18.1-4.581a8.749,8.749,0,0,1-2.822-1.881,3.126,3.126,0,0,1-.735-3.153,13.283,13.283,0,0,1-3.663-1.339,4.483,4.483,0,0,1-2.231-3.06,2.744,2.744,0,0,1,1.87-3.038" transform="translate(-53.754 -64.86)" fill="#f7c2a0"/>
        <path id="Trazado_773579" data-name="Trazado 773579" d="M215.989,228.4a47.228,47.228,0,0,0-8.744-5.815,15.869,15.869,0,0,0-10.225-1.451c-1.526.359-3.214,1.36-3.22,2.928-.006,1.415,1.384,2.428,2.721,2.892s2.829.668,3.9,1.593c1.252,1.08,1.5,3.3.223,4.351-1.415,1.169-3.52.377-5.184-.4a79.284,79.284,0,0,0-11.389-4.278,7.41,7.41,0,0,0-2.8-.417,2.959,2.959,0,0,0-2.829,1.566c-.675,1.35.662,2.719,1.611,3.438l1.9.969a76.308,76.308,0,0,0,14.491,6.543" transform="translate(-62.897 -64.845)" fill="#f7c2a0"/>
        <path id="Trazado_773580" data-name="Trazado 773580" d="M215.47,228.515c-4.9-3.813-10.543-8.084-17.138-7.392-1.355.142-3.115.5-3.948,1.709-.987,1.43.36,2.761,1.63,3.331,2.133.957,5.027,1.031,5.622,3.809a3.048,3.048,0,0,1-3.568,3.72,12.052,12.052,0,0,1-3.486-1.214q-2.267-1.039-4.6-1.931-2.305-.883-4.663-1.62a11.083,11.083,0,0,0-4.624-.839c-1.415.174-2.793,1.31-1.885,2.819a4.67,4.67,0,0,0,2.054,1.733c2.272,1.16,4.449,2.483,6.762,3.569,2.837,1.333,5.781,2.414,8.722,3.491.53.194.3,1.047-.235.851-2.771-1.014-5.543-2.034-8.231-3.255-2.366-1.075-4.572-2.418-6.881-3.6-1.531-.781-3.775-2.091-3.355-4.166.551-2.719,4-2.58,6.028-2.02a75.288,75.288,0,0,1,9.848,3.532,18.16,18.16,0,0,0,4.6,1.766,2.185,2.185,0,0,0,2.6-2.825c-.477-1.685-2.235-2.112-3.718-2.548a6,6,0,0,1-3.28-1.92c-1.62-2.155.449-4.234,2.5-4.881,3.357-1.056,7.164-.293,10.317,1.053a44.265,44.265,0,0,1,9.541,6.2c.448.348-.181.969-.624.624" transform="translate(-62.689 -64.649)" fill="#f07666"/>
        <path id="Trazado_773581" data-name="Trazado 773581" d="M208.985,238.927a5.288,5.288,0,0,0-.78,1.422,2.951,2.951,0,0,0,.5,2.718,7.2,7.2,0,0,0,2.893,2.009,58.879,58.879,0,0,0,11.457,5.04.442.442,0,0,1-.234.852,46.628,46.628,0,0,1-6.574-2.563c-2.123-.985-4.255-2.024-6.272-3.214a5.281,5.281,0,0,1-2.531-2.62,4.2,4.2,0,0,1,.913-4.267c.359-.441.98.187.624.624" transform="translate(-90.709 -69.939)" fill="#f07666"/>
        <path id="Trazado_773582" data-name="Trazado 773582" d="M141.155,187.237l-9.342-27.672c-.182-.54.67-.771.852-.235L142.006,187c.182.54-.67.771-.851.234" transform="translate(43.883 -46.701)" fill="#f07666"/>
        <path id="Trazado_773583" data-name="Trazado 773583" d="M152.474,111.63l-11.955,34.876-11.225-6.935,19.755-30.581s2.491-.652,3.424,2.641" transform="translate(35.203 -31.992)" fill="#fff"/>
      </g>
    </g>
  </g>
</svg>
