<svg xmlns="http://www.w3.org/2000/svg" xmlns:xlink="http://www.w3.org/1999/xlink" width="400" height="322" viewBox="0 0 400 322">
  <defs>
    <clipPath id="clip-path">
      <rect id="Rectángulo_356127" data-name="Rectángulo 356127" width="347.688" height="312.301" fill="none"/>
    </clipPath>
    <clipPath id="clip-path-3">
      <rect id="Rectángulo_356100" data-name="Rectángulo 356100" width="39.46" height="34.981" fill="none"/>
    </clipPath>
    <clipPath id="clip-path-4">
      <rect id="Rectángulo_356101" data-name="Rectángulo 356101" width="91.954" height="40.964" fill="none"/>
    </clipPath>
    <clipPath id="clip-path-5">
      <rect id="Rectángulo_356102" data-name="Rectángulo 356102" width="15.642" height="17.735" fill="none"/>
    </clipPath>
    <clipPath id="clip-path-6">
      <rect id="Rectángulo_356103" data-name="Rectángulo 356103" width="77.927" height="86.918" fill="none"/>
    </clipPath>
    <clipPath id="clip-path-7">
      <rect id="Rectángulo_356104" data-name="Rectángulo 356104" width="76.889" height="30.843" fill="none"/>
    </clipPath>
    <clipPath id="clip-path-8">
      <rect id="Rectángulo_356105" data-name="Rectángulo 356105" width="49.622" height="61.842" fill="none"/>
    </clipPath>
    <clipPath id="clip-path-9">
      <rect id="Rectángulo_356106" data-name="Rectángulo 356106" width="9.079" height="3.519" fill="none"/>
    </clipPath>
    <clipPath id="clip-path-10">
      <path id="Trazado_773696" data-name="Trazado 773696" d="M254.675,202.137c.253.032.976.053,1.05.3a2.785,2.785,0,0,1-.554.819,7.607,7.607,0,0,1,1.146-.454,1.062,1.062,0,0,1,1.406.6.886.886,0,0,1-.141.673,1.643,1.643,0,0,1,1.563.178,1.224,1.224,0,0,1,.291,1.251,1.7,1.7,0,0,1,1.145-.248,1.539,1.539,0,0,1,1.193,1.541,4.126,4.126,0,0,1-.79,1.735c-1.136,1.965-.931,4.386-1.12,6.647a29.252,29.252,0,0,1-3.552,10.767c-2.372,4.617-5.811,9.395-10.925,10.284a5.673,5.673,0,0,1-4.683-.994,6.554,6.554,0,0,1-1.836-4.612c-.308-4.451.987-10.956,4.633-13.527a47.636,47.636,0,0,0,6.075-5.089,8.326,8.326,0,0,1,1.893-8.571,4.31,4.31,0,0,1,2.845-1.322,2.8,2.8,0,0,1,.361.024" transform="translate(-238.824 -202.113)" fill="none"/>
    </clipPath>
    <clipPath id="clip-path-12">
      <rect id="Rectángulo_356108" data-name="Rectángulo 356108" width="15.599" height="17.712" fill="none"/>
    </clipPath>
    <clipPath id="clip-path-13">
      <rect id="Rectángulo_356109" data-name="Rectángulo 356109" width="43.11" height="26.617" fill="none"/>
    </clipPath>
    <clipPath id="clip-path-14">
      <rect id="Rectángulo_356110" data-name="Rectángulo 356110" width="37.248" height="14.537" fill="none"/>
    </clipPath>
    <clipPath id="clip-path-15">
      <rect id="Rectángulo_356111" data-name="Rectángulo 356111" width="53.38" height="72.348" fill="none"/>
    </clipPath>
    <clipPath id="clip-path-16">
      <path id="Trazado_773713" data-name="Trazado 773713" d="M255.5,27.812c4.668,1.595-.575,25.886-.517,31.078A87.8,87.8,0,0,0,275.9,114.507c2.853,3.33,5.871,8.737,2.4,11.417a7.8,7.8,0,0,1-3.6,1.22l-27.863,4.538c-5.694.927-12.249,1.624-16.562-2.207-3.6-3.2-4.342-8.589-3.715-13.361s2.364-9.362,2.807-14.157c1.081-11.693-5.59-23.571-2.406-34.874,2.165-7.685,8.433-13.369,13.259-19.728,2.384-3.141,8.373-19.715,14.265-19.714a3.1,3.1,0,0,1,1.015.17" transform="translate(-226.092 -27.642)" fill="none"/>
    </clipPath>
    <clipPath id="clip-path-17">
      <rect id="Rectángulo_356113" data-name="Rectángulo 356113" width="11.564" height="82.477" fill="none"/>
    </clipPath>
    <clipPath id="clip-path-18">
      <rect id="Rectángulo_356114" data-name="Rectángulo 356114" width="19.969" height="88.649" fill="none"/>
    </clipPath>
    <clipPath id="clip-path-20">
      <path id="Trazado_773720" data-name="Trazado 773720" d="M187.268,38.5c11.281,1.9,23.354,4.278,31.31,12.5,7.7,7.956,10.9,20.478,9.292,31.534a5.57,5.57,0,0,1,3.426-3.272c2.084-.651,4.327,0,6.41.651,2.793.872,5.983,2.14,6.784,4.953a7.8,7.8,0,0,1-.376,4.405,16.851,16.851,0,0,1-4.2,7.336c-2.07,1.958-4.114,3.365-6.906,2.789-3.964,8.824-8.952,17.541-16.672,23.37s-18.714,8.167-27.229,3.576a32.416,32.416,0,0,1-6.452-4.866c-4.6-4.245-8.886-8.007-12.462-13.143a8.5,8.5,0,0,1-6.708-1.607,6.046,6.046,0,0,1-2.031-6.369,4.718,4.718,0,0,1,5.639-3.036q-4.562-9.569-8.423-19.452c-2.812-7.2-5.343-15.269-2.585-22.489,3.081-8.062,14.01-16.833,22.609-17.583.545-.048,1.091-.069,1.636-.069a42.035,42.035,0,0,1,6.944.774" transform="translate(-154.89 -37.722)" fill="none"/>
    </clipPath>
    <clipPath id="clip-path-21">
      <rect id="Rectángulo_356116" data-name="Rectángulo 356116" width="20.434" height="16.387" fill="none"/>
    </clipPath>
    <clipPath id="clip-path-23">
      <rect id="Rectángulo_356117" data-name="Rectángulo 356117" width="58.002" height="77.529" fill="none"/>
    </clipPath>
    <clipPath id="clip-path-24">
      <path id="Trazado_773728" data-name="Trazado 773728" d="M154.874,4.544c14.079,1.186,28.509,6.545,37.193,17.691,4.238,5.437,6.973,12.046,11.924,16.844,4.494,4.355,10.423,6.84,16.161,9.334s11.609,5.219,15.777,9.886,6.211,11.806,3.242,17.315c-1.127,2.09-2.866,3.788-4.1,5.818a14.18,14.18,0,0,0-.951,12.619c1.758,4.21,5.615,7.746,5.606,12.309a10.718,10.718,0,0,1-2.047,5.862,16.946,16.946,0,0,1-6.9,5.8,11.839,11.839,0,0,1-2.06,2.552c-4.061,3.765-9.84,4.958-15.345,5.558s-11.2.792-16.239,3.088a65.891,65.891,0,0,1-6.07,2.912c-2.129.717-4.647.8-6.462-.522-2.259-1.65-2.678-4.964-1.866-7.642s2.577-4.941,4.048-7.32a36.931,36.931,0,0,0,4.8-12.22c.515-2.606.767-5.327,2.008-7.676a6.911,6.911,0,0,1,5-3.754c0-.159-.008-.318,0-.478a13.044,13.044,0,0,0,8.241-6.624c1.539-3.291,1.107-7.569-1.489-10.108s-10.392-3.336-12.268-.225l-1.417,2.349c-2.185-1.742-2.127-4.988-2.8-7.7-1.592-6.461-8.069-10.684-14.576-12.069-4.714-1-9.552-.859-14.388-.716-1.842.055-3.683.109-5.518.1-6.653-.03-13.732-1.087-18.761-5.443-2-1.735-3.589-3.923-5.692-5.535s-5.03-2.576-7.408-1.407a4.345,4.345,0,0,1-6.125-1.981c-1-2.411-.761-5.132-.5-7.729.595-5.925,1.346-12.2,5.016-16.884,2.154-2.751,5.136-4.71,8.064-6.619C132.947,9.332,137,6.7,141.57,5.4a30.865,30.865,0,0,1,8.513-1.072c1.6,0,3.2.087,4.791.22" transform="translate(-115.661 -4.324)" fill="none"/>
    </clipPath>
    <clipPath id="clip-path-25">
      <rect id="Rectángulo_356119" data-name="Rectángulo 356119" width="76.979" height="40.318" fill="none"/>
    </clipPath>
    <clipPath id="clip-path-26">
      <rect id="Rectángulo_356120" data-name="Rectángulo 356120" width="77.432" height="35.366" fill="none"/>
    </clipPath>
    <clipPath id="clip-path-27">
      <rect id="Rectángulo_356121" data-name="Rectángulo 356121" width="109.537" height="115.227" fill="none"/>
    </clipPath>
    <clipPath id="clip-path-28">
      <rect id="Rectángulo_356122" data-name="Rectángulo 356122" width="120.259" height="116.59" fill="none"/>
    </clipPath>
    <clipPath id="clip-path-30">
      <rect id="Rectángulo_356123" data-name="Rectángulo 356123" width="71.612" height="34.569" fill="none"/>
    </clipPath>
    <clipPath id="clip-path-31">
      <path id="Trazado_773734" data-name="Trazado 773734" d="M91.123,230.544a12.949,12.949,0,0,1,9.439,8.3c2.333,6.769-1.158,14.959,2.583,21.063.962,1.569,2.342,2.859,3.228,4.471,1.929,3.507,1.143,8.04-1.087,11.363s-5.679,5.628-9.214,7.5c-5.3,2.813-11.012,4.869-16.048,8.134s-9.493,8.087-10.447,14.012c-1.186,7.364-9.525,14.83-15.383,19.446a53.38,53.38,0,0,0,.082-22.865c-1.615-7.463-4.827-14.545-5.957-22.1s.333-16.192,6.341-20.9c4.717-3.7,11.45-4.379,15.635-8.671,4.259-4.367,4.769-11.364,8.876-15.873a12.99,12.99,0,0,1,9.5-4.133,12.15,12.15,0,0,1,2.456.248" transform="translate(-47.967 -230.296)" fill="none"/>
    </clipPath>
    <clipPath id="clip-path-32">
      <path id="Trazado_773736" data-name="Trazado 773736" d="M120.591,296.493c4.232,1,5.962,6.053,6.438,10.376a53.832,53.832,0,0,1-4.832,28.75,12.259,12.259,0,0,1-5.169,5.19c-3.973,1.884-7.778,3.328-11.752,5.212,1.2-7.284.674-14.725.8-22.107s1-15,4.673-21.4c1.817-3.165,4.97-6.179,8.452-6.179a6.012,6.012,0,0,1,1.387.162" transform="translate(-105.276 -296.331)" fill="none"/>
    </clipPath>
    <clipPath id="clip-path-34">
      <path id="Trazado_773750" data-name="Trazado 773750" d="M347.769,289.593c2.806.55,4.659,3.268,5.623,5.959a13.711,13.711,0,0,1,.883,5.945c-.551,5.553-5.313,9.552-8.809,13.9a9.8,9.8,0,0,0-2.505,5.215c-.3,4.134,7.486,12.63,7.319,16.771,0,0-16.206,15.881-36.446,13.263-3.023-.392-4.567-3.907-5.135-6.9a17.889,17.889,0,0,1,1.06-8.982c.98-2.887,2.292-5.66,3.117-8.6a27.256,27.256,0,0,0,.687-11.522c-.544-3.487-1.763-6.837-2.365-10.314s-.518-7.268,1.353-10.259a8.046,8.046,0,0,1,4.71-3.594,6.044,6.044,0,0,1,5.641,1.393c1.305,1.281,1.912,3.206,3.4,4.271a5.821,5.821,0,0,0,5.549.236,30.2,30.2,0,0,0,4.9-3.085,26.387,26.387,0,0,1,6.785-3.236,10.671,10.671,0,0,1,3.122-.568,5.8,5.8,0,0,1,1.11.1" transform="translate(-308.485 -289.489)" fill="none"/>
    </clipPath>
    <clipPath id="clip-path-36">
      <path id="Trazado_773754" data-name="Trazado 773754" d="M396.633,350.34s-15.068,5.155-31.235-6.615,6.648-48.459,6.648-48.459,25.171,15.71,24.587,55.073" transform="translate(-359.607 -295.266)" fill="none"/>
    </clipPath>
  </defs>
  <g id="Grupo_1044139" data-name="Grupo 1044139" transform="translate(-1020 -394)">
    <g id="Grupo_1044137" data-name="Grupo 1044137">
      <g id="Grupo_80138" data-name="Grupo 80138" transform="translate(0 -3.382)">
        <path id="Trazado_145968" data-name="Trazado 145968" d="M52.535,0A52.535,52.535,0,1,1,0,52.535,52.535,52.535,0,0,1,52.535,0Z" transform="translate(1307 609.751)" fill="#3449bc" style="mix-blend-mode: multiply;isolation: isolate"/>
        <rect id="Rectángulo_34816" data-name="Rectángulo 34816" width="324" height="259.718" rx="8" transform="translate(1053 418)" fill="#fffae3"/>
        <g id="Grupo_145969" data-name="Grupo 145969" transform="translate(1034.352 397.707)" style="isolation: isolate">
          <path id="Trazado_145969" data-name="Trazado 145969" d="M35.9,0A35.9,35.9,0,1,1,0,35.9,35.9,35.9,0,0,1,35.9,0Z" transform="translate(0 0)" fill="#3449bc"/>
          <path id="Trazado_145969_-_Contorno" data-name="Trazado 145969 - Contorno" d="M35.9,0A35.9,35.9,0,1,1,0,35.9,35.9,35.9,0,0,1,35.9,0Z" transform="translate(0 0)" fill="#3449bc"/>
        </g>
        <rect id="Rectángulo_34812" data-name="Rectángulo 34812" width="400" height="322" transform="translate(1020 397.382)" fill="none"/>
        <g id="Grupo_78276" data-name="Grupo 78276" transform="translate(1327 631.751)">
          <g id="Grupo_53306" data-name="Grupo 53306">
            <path id="Trazado_99200" data-name="Trazado 99200" d="M415.641,50.906a.714.714,0,1,1-.714-.682A.7.7,0,0,1,415.641,50.906Z" transform="translate(-414.214 -50.224)" fill="#fff" stroke="#fff" stroke-width="1"/>
            <path id="Trazado_99201" data-name="Trazado 99201" d="M424.087,50.906a.714.714,0,1,1-.713-.682A.7.7,0,0,1,424.087,50.906Z" transform="translate(-416.24 -50.224)" fill="#fff" stroke="#fff" stroke-width="1"/>
            <path id="Trazado_99202" data-name="Trazado 99202" d="M432.533,50.906a.714.714,0,1,1-.713-.682A.7.7,0,0,1,432.533,50.906Z" transform="translate(-418.266 -50.224)" fill="#fff" stroke="#fff" stroke-width="1"/>
            <path id="Trazado_99203" data-name="Trazado 99203" d="M440.98,50.906a.714.714,0,1,1-.714-.682A.7.7,0,0,1,440.98,50.906Z" transform="translate(-420.292 -50.224)" fill="#fff" stroke="#fff" stroke-width="1"/>
            <path id="Trazado_99204" data-name="Trazado 99204" d="M449.426,50.906a.714.714,0,1,1-.713-.682A.7.7,0,0,1,449.426,50.906Z" transform="translate(-422.318 -50.224)" fill="#fff" stroke="#fff" stroke-width="1"/>
            <path id="Trazado_99205" data-name="Trazado 99205" d="M457.872,50.906a.714.714,0,1,1-.713-.682A.7.7,0,0,1,457.872,50.906Z" transform="translate(-424.344 -50.224)" fill="#fff" stroke="#fff" stroke-width="1"/>
            <path id="Trazado_99206" data-name="Trazado 99206" d="M466.319,50.906a.714.714,0,1,1-.714-.682A.7.7,0,0,1,466.319,50.906Z" transform="translate(-426.37 -50.224)" fill="#fff" stroke="#fff" stroke-width="1"/>
            <path id="Trazado_99207" data-name="Trazado 99207" d="M474.765,50.906a.714.714,0,1,1-.713-.682A.7.7,0,0,1,474.765,50.906Z" transform="translate(-428.396 -50.224)" fill="#fff" stroke="#fff" stroke-width="1"/>
            <path id="Trazado_99208" data-name="Trazado 99208" d="M483.211,50.906a.714.714,0,1,1-.713-.682A.7.7,0,0,1,483.211,50.906Z" transform="translate(-430.422 -50.224)" fill="#fff" stroke="#fff" stroke-width="1"/>
            <path id="Trazado_99209" data-name="Trazado 99209" d="M491.658,50.906a.714.714,0,1,1-.714-.682A.7.7,0,0,1,491.658,50.906Z" transform="translate(-432.448 -50.224)" fill="#fff" stroke="#fff" stroke-width="1"/>
            <path id="Trazado_99210" data-name="Trazado 99210" d="M500.1,50.906a.714.714,0,1,1-.714-.682A.7.7,0,0,1,500.1,50.906Z" transform="translate(-434.475 -50.224)" fill="#fff" stroke="#fff" stroke-width="1"/>
          </g>
          <g id="Grupo_53307" data-name="Grupo 53307" transform="translate(0 5.458)">
            <path id="Trazado_99211" data-name="Trazado 99211" d="M415.641,58.414a.714.714,0,1,1-.714-.682A.7.7,0,0,1,415.641,58.414Z" transform="translate(-414.214 -57.732)" fill="#fff" stroke="#fff" stroke-width="1"/>
            <path id="Trazado_99212" data-name="Trazado 99212" d="M424.087,58.414a.714.714,0,1,1-.713-.682A.7.7,0,0,1,424.087,58.414Z" transform="translate(-416.24 -57.732)" fill="#fff" stroke="#fff" stroke-width="1"/>
            <path id="Trazado_99213" data-name="Trazado 99213" d="M432.533,58.414a.714.714,0,1,1-.713-.682A.7.7,0,0,1,432.533,58.414Z" transform="translate(-418.266 -57.732)" fill="#fff" stroke="#fff" stroke-width="1"/>
            <path id="Trazado_99214" data-name="Trazado 99214" d="M440.98,58.414a.714.714,0,1,1-.714-.682A.7.7,0,0,1,440.98,58.414Z" transform="translate(-420.292 -57.732)" fill="#fff" stroke="#fff" stroke-width="1"/>
            <path id="Trazado_99215" data-name="Trazado 99215" d="M449.426,58.414a.714.714,0,1,1-.713-.682A.7.7,0,0,1,449.426,58.414Z" transform="translate(-422.318 -57.732)" fill="#fff" stroke="#fff" stroke-width="1"/>
            <path id="Trazado_99216" data-name="Trazado 99216" d="M457.872,58.414a.714.714,0,1,1-.713-.682A.7.7,0,0,1,457.872,58.414Z" transform="translate(-424.344 -57.732)" fill="#fff" stroke="#fff" stroke-width="1"/>
            <path id="Trazado_99217" data-name="Trazado 99217" d="M466.319,58.414a.714.714,0,1,1-.714-.682A.7.7,0,0,1,466.319,58.414Z" transform="translate(-426.37 -57.732)" fill="#fff" stroke="#fff" stroke-width="1"/>
            <path id="Trazado_99218" data-name="Trazado 99218" d="M474.765,58.414a.714.714,0,1,1-.713-.682A.7.7,0,0,1,474.765,58.414Z" transform="translate(-428.396 -57.732)" fill="#fff" stroke="#fff" stroke-width="1"/>
            <path id="Trazado_99219" data-name="Trazado 99219" d="M483.211,58.414a.714.714,0,1,1-.713-.682A.7.7,0,0,1,483.211,58.414Z" transform="translate(-430.422 -57.732)" fill="#fff" stroke="#fff" stroke-width="1"/>
            <path id="Trazado_99220" data-name="Trazado 99220" d="M491.658,58.414a.714.714,0,1,1-.714-.682A.7.7,0,0,1,491.658,58.414Z" transform="translate(-432.448 -57.732)" fill="#fff" stroke="#fff" stroke-width="1"/>
            <path id="Trazado_99221" data-name="Trazado 99221" d="M500.1,58.414a.714.714,0,1,1-.714-.682A.7.7,0,0,1,500.1,58.414Z" transform="translate(-434.475 -57.732)" fill="#fff" stroke="#fff" stroke-width="1"/>
          </g>
          <g id="Grupo_53308" data-name="Grupo 53308" transform="translate(0 10.915)">
            <ellipse id="Elipse_3955" data-name="Elipse 3955" cx="0.713" cy="0.682" rx="0.713" ry="0.682" fill="#fff" stroke="#fff" stroke-width="1"/>
            <path id="Trazado_99222" data-name="Trazado 99222" d="M424.087,65.922a.714.714,0,1,1-.713-.682A.7.7,0,0,1,424.087,65.922Z" transform="translate(-416.24 -65.24)" fill="#fff" stroke="#fff" stroke-width="1"/>
            <ellipse id="Elipse_3956" data-name="Elipse 3956" cx="0.713" cy="0.682" rx="0.713" ry="0.682" transform="translate(12.84)" fill="#fff" stroke="#fff" stroke-width="1"/>
            <path id="Trazado_99223" data-name="Trazado 99223" d="M440.98,65.922a.714.714,0,1,1-.714-.682A.7.7,0,0,1,440.98,65.922Z" transform="translate(-420.292 -65.24)" fill="#fff" stroke="#fff" stroke-width="1"/>
            <path id="Trazado_99224" data-name="Trazado 99224" d="M449.426,65.922a.714.714,0,1,1-.713-.682A.7.7,0,0,1,449.426,65.922Z" transform="translate(-422.318 -65.24)" fill="#fff" stroke="#fff" stroke-width="1"/>
            <ellipse id="Elipse_3957" data-name="Elipse 3957" cx="0.713" cy="0.682" rx="0.713" ry="0.682" transform="translate(32.101)" fill="#fff" stroke="#fff" stroke-width="1"/>
            <path id="Trazado_99225" data-name="Trazado 99225" d="M466.319,65.922a.714.714,0,1,1-.714-.682A.7.7,0,0,1,466.319,65.922Z" transform="translate(-426.37 -65.24)" fill="#fff" stroke="#fff" stroke-width="1"/>
            <ellipse id="Elipse_3958" data-name="Elipse 3958" cx="0.713" cy="0.682" rx="0.713" ry="0.682" transform="translate(44.942)" fill="#fff" stroke="#fff" stroke-width="1"/>
            <ellipse id="Elipse_3959" data-name="Elipse 3959" cx="0.713" cy="0.682" rx="0.713" ry="0.682" transform="translate(51.362)" fill="#fff" stroke="#fff" stroke-width="1"/>
            <path id="Trazado_99226" data-name="Trazado 99226" d="M491.658,65.922a.714.714,0,1,1-.714-.682A.7.7,0,0,1,491.658,65.922Z" transform="translate(-432.448 -65.24)" fill="#fff" stroke="#fff" stroke-width="1"/>
            <path id="Trazado_99227" data-name="Trazado 99227" d="M500.1,65.922a.714.714,0,1,1-.714-.682A.7.7,0,0,1,500.1,65.922Z" transform="translate(-434.474 -65.24)" fill="#fff" stroke="#fff" stroke-width="1"/>
          </g>
          <g id="Grupo_53309" data-name="Grupo 53309" transform="translate(0 16.373)">
            <ellipse id="Elipse_3960" data-name="Elipse 3960" cx="0.713" cy="0.682" rx="0.713" ry="0.682" transform="translate(0 0)" fill="#fff" stroke="#fff" stroke-width="1"/>
            <path id="Trazado_99228" data-name="Trazado 99228" d="M424.087,73.43a.714.714,0,1,1-.713-.683A.7.7,0,0,1,424.087,73.43Z" transform="translate(-416.24 -72.747)" fill="#fff" stroke="#fff" stroke-width="1"/>
            <ellipse id="Elipse_3961" data-name="Elipse 3961" cx="0.713" cy="0.682" rx="0.713" ry="0.682" transform="translate(12.84 0)" fill="#fff" stroke="#fff" stroke-width="1"/>
            <path id="Trazado_99229" data-name="Trazado 99229" d="M440.98,73.43a.714.714,0,1,1-.714-.683A.7.7,0,0,1,440.98,73.43Z" transform="translate(-420.292 -72.747)" fill="#fff" stroke="#fff" stroke-width="1"/>
            <path id="Trazado_99230" data-name="Trazado 99230" d="M449.426,73.43a.714.714,0,1,1-.713-.683A.7.7,0,0,1,449.426,73.43Z" transform="translate(-422.318 -72.747)" fill="#fff" stroke="#fff" stroke-width="1"/>
            <ellipse id="Elipse_3962" data-name="Elipse 3962" cx="0.713" cy="0.682" rx="0.713" ry="0.682" transform="translate(32.101 0)" fill="#fff" stroke="#fff" stroke-width="1"/>
            <path id="Trazado_99231" data-name="Trazado 99231" d="M466.319,73.43a.714.714,0,1,1-.714-.683A.7.7,0,0,1,466.319,73.43Z" transform="translate(-426.37 -72.747)" fill="#fff" stroke="#fff" stroke-width="1"/>
            <ellipse id="Elipse_3963" data-name="Elipse 3963" cx="0.713" cy="0.682" rx="0.713" ry="0.682" transform="translate(44.942 0)" fill="#fff" stroke="#fff" stroke-width="1"/>
            <ellipse id="Elipse_3964" data-name="Elipse 3964" cx="0.713" cy="0.682" rx="0.713" ry="0.682" transform="translate(51.362 0)" fill="#fff" stroke="#fff" stroke-width="1"/>
            <path id="Trazado_99232" data-name="Trazado 99232" d="M491.658,73.43a.714.714,0,1,1-.714-.683A.7.7,0,0,1,491.658,73.43Z" transform="translate(-432.448 -72.747)" fill="#fff" stroke="#fff" stroke-width="1"/>
            <path id="Trazado_99233" data-name="Trazado 99233" d="M500.1,73.43a.714.714,0,1,1-.714-.683A.7.7,0,0,1,500.1,73.43Z" transform="translate(-434.474 -72.747)" fill="#fff" stroke="#fff" stroke-width="1"/>
          </g>
          <g id="Grupo_53310" data-name="Grupo 53310" transform="translate(0 21.83)">
            <path id="Trazado_99234" data-name="Trazado 99234" d="M415.641,80.938a.714.714,0,1,1-.714-.683A.7.7,0,0,1,415.641,80.938Z" transform="translate(-414.214 -80.255)" fill="#fff" stroke="#fff" stroke-width="1"/>
            <path id="Trazado_99235" data-name="Trazado 99235" d="M424.087,80.938a.714.714,0,1,1-.713-.683A.7.7,0,0,1,424.087,80.938Z" transform="translate(-416.24 -80.255)" fill="#fff" stroke="#fff" stroke-width="1"/>
            <path id="Trazado_99236" data-name="Trazado 99236" d="M432.533,80.938a.714.714,0,1,1-.713-.683A.7.7,0,0,1,432.533,80.938Z" transform="translate(-418.266 -80.255)" fill="#fff" stroke="#fff" stroke-width="1"/>
            <path id="Trazado_99237" data-name="Trazado 99237" d="M440.98,80.938a.714.714,0,1,1-.714-.683A.7.7,0,0,1,440.98,80.938Z" transform="translate(-420.292 -80.255)" fill="#fff" stroke="#fff" stroke-width="1"/>
            <path id="Trazado_99238" data-name="Trazado 99238" d="M449.426,80.938a.714.714,0,1,1-.713-.683A.7.7,0,0,1,449.426,80.938Z" transform="translate(-422.318 -80.255)" fill="#fff" stroke="#fff" stroke-width="1"/>
            <path id="Trazado_99239" data-name="Trazado 99239" d="M457.872,80.938a.714.714,0,1,1-.713-.683A.7.7,0,0,1,457.872,80.938Z" transform="translate(-424.344 -80.255)" fill="#fff" stroke="#fff" stroke-width="1"/>
            <path id="Trazado_99240" data-name="Trazado 99240" d="M466.319,80.938a.714.714,0,1,1-.714-.683A.7.7,0,0,1,466.319,80.938Z" transform="translate(-426.37 -80.255)" fill="#fff" stroke="#fff" stroke-width="1"/>
            <path id="Trazado_99241" data-name="Trazado 99241" d="M474.765,80.938a.714.714,0,1,1-.713-.683A.7.7,0,0,1,474.765,80.938Z" transform="translate(-428.396 -80.255)" fill="#fff" stroke="#fff" stroke-width="1"/>
            <path id="Trazado_99242" data-name="Trazado 99242" d="M483.211,80.938a.714.714,0,1,1-.713-.683A.7.7,0,0,1,483.211,80.938Z" transform="translate(-430.422 -80.255)" fill="#fff" stroke="#fff" stroke-width="1"/>
            <path id="Trazado_99243" data-name="Trazado 99243" d="M491.658,80.938a.714.714,0,1,1-.714-.683A.7.7,0,0,1,491.658,80.938Z" transform="translate(-432.448 -80.255)" fill="#fff" stroke="#fff" stroke-width="1"/>
            <path id="Trazado_99244" data-name="Trazado 99244" d="M500.1,80.938a.714.714,0,1,1-.714-.683A.7.7,0,0,1,500.1,80.938Z" transform="translate(-434.475 -80.255)" fill="#fff" stroke="#fff" stroke-width="1"/>
          </g>
          <g id="Grupo_53311" data-name="Grupo 53311" transform="translate(0 27.288)">
            <ellipse id="Elipse_3965" data-name="Elipse 3965" cx="0.713" cy="0.682" rx="0.713" ry="0.682" transform="translate(0 0)" fill="#fff" stroke="#fff" stroke-width="1"/>
            <path id="Trazado_99245" data-name="Trazado 99245" d="M424.087,88.446a.714.714,0,1,1-.713-.683A.7.7,0,0,1,424.087,88.446Z" transform="translate(-416.24 -87.763)" fill="#fff" stroke="#fff" stroke-width="1"/>
            <ellipse id="Elipse_3966" data-name="Elipse 3966" cx="0.713" cy="0.682" rx="0.713" ry="0.682" transform="translate(12.84 0)" fill="#fff" stroke="#fff" stroke-width="1"/>
            <path id="Trazado_99246" data-name="Trazado 99246" d="M440.98,88.446a.714.714,0,1,1-.714-.683A.7.7,0,0,1,440.98,88.446Z" transform="translate(-420.292 -87.763)" fill="#fff" stroke="#fff" stroke-width="1"/>
            <path id="Trazado_99247" data-name="Trazado 99247" d="M449.426,88.446a.714.714,0,1,1-.713-.683A.7.7,0,0,1,449.426,88.446Z" transform="translate(-422.318 -87.763)" fill="#fff" stroke="#fff" stroke-width="1"/>
            <ellipse id="Elipse_3967" data-name="Elipse 3967" cx="0.713" cy="0.682" rx="0.713" ry="0.682" transform="translate(32.101 0)" fill="#fff" stroke="#fff" stroke-width="1"/>
            <path id="Trazado_99248" data-name="Trazado 99248" d="M466.319,88.446a.714.714,0,1,1-.714-.683A.7.7,0,0,1,466.319,88.446Z" transform="translate(-426.37 -87.763)" fill="#fff" stroke="#fff" stroke-width="1"/>
            <ellipse id="Elipse_3968" data-name="Elipse 3968" cx="0.713" cy="0.682" rx="0.713" ry="0.682" transform="translate(44.942 0)" fill="#fff" stroke="#fff" stroke-width="1"/>
            <ellipse id="Elipse_3969" data-name="Elipse 3969" cx="0.713" cy="0.682" rx="0.713" ry="0.682" transform="translate(51.362 0)" fill="#fff" stroke="#fff" stroke-width="1"/>
            <path id="Trazado_99249" data-name="Trazado 99249" d="M491.658,88.446a.714.714,0,1,1-.714-.683A.7.7,0,0,1,491.658,88.446Z" transform="translate(-432.448 -87.763)" fill="#fff" stroke="#fff" stroke-width="1"/>
            <path id="Trazado_99250" data-name="Trazado 99250" d="M500.1,88.446a.714.714,0,1,1-.714-.683A.7.7,0,0,1,500.1,88.446Z" transform="translate(-434.474 -87.763)" fill="#fff" stroke="#fff" stroke-width="1"/>
          </g>
          <g id="Grupo_53312" data-name="Grupo 53312" transform="translate(0 32.746)">
            <ellipse id="Elipse_3970" data-name="Elipse 3970" cx="0.713" cy="0.682" rx="0.713" ry="0.682" fill="#fff" stroke="#fff" stroke-width="1"/>
            <path id="Trazado_99251" data-name="Trazado 99251" d="M424.087,95.953a.714.714,0,1,1-.713-.682A.7.7,0,0,1,424.087,95.953Z" transform="translate(-416.24 -95.271)" fill="#fff" stroke="#fff" stroke-width="1"/>
            <ellipse id="Elipse_3971" data-name="Elipse 3971" cx="0.713" cy="0.682" rx="0.713" ry="0.682" transform="translate(12.84)" fill="#fff" stroke="#fff" stroke-width="1"/>
            <path id="Trazado_99252" data-name="Trazado 99252" d="M440.98,95.953a.714.714,0,1,1-.714-.682A.7.7,0,0,1,440.98,95.953Z" transform="translate(-420.292 -95.271)" fill="#fff" stroke="#fff" stroke-width="1"/>
            <path id="Trazado_99253" data-name="Trazado 99253" d="M449.426,95.953a.714.714,0,1,1-.713-.682A.7.7,0,0,1,449.426,95.953Z" transform="translate(-422.318 -95.271)" fill="#fff" stroke="#fff" stroke-width="1"/>
            <ellipse id="Elipse_3972" data-name="Elipse 3972" cx="0.713" cy="0.682" rx="0.713" ry="0.682" transform="translate(32.101)" fill="#fff" stroke="#fff" stroke-width="1"/>
            <path id="Trazado_99254" data-name="Trazado 99254" d="M466.319,95.953a.714.714,0,1,1-.714-.682A.7.7,0,0,1,466.319,95.953Z" transform="translate(-426.37 -95.271)" fill="#fff" stroke="#fff" stroke-width="1"/>
            <ellipse id="Elipse_3973" data-name="Elipse 3973" cx="0.713" cy="0.682" rx="0.713" ry="0.682" transform="translate(44.942)" fill="#fff" stroke="#fff" stroke-width="1"/>
            <ellipse id="Elipse_3974" data-name="Elipse 3974" cx="0.713" cy="0.682" rx="0.713" ry="0.682" transform="translate(51.362)" fill="#fff" stroke="#fff" stroke-width="1"/>
            <path id="Trazado_99255" data-name="Trazado 99255" d="M491.658,95.953a.714.714,0,1,1-.714-.682A.7.7,0,0,1,491.658,95.953Z" transform="translate(-432.448 -95.271)" fill="#fff" stroke="#fff" stroke-width="1"/>
            <path id="Trazado_99256" data-name="Trazado 99256" d="M500.1,95.953a.714.714,0,1,1-.714-.682A.7.7,0,0,1,500.1,95.953Z" transform="translate(-434.474 -95.271)" fill="#fff" stroke="#fff" stroke-width="1"/>
          </g>
          <g id="Grupo_53313" data-name="Grupo 53313" transform="translate(0 38.203)">
            <path id="Trazado_99257" data-name="Trazado 99257" d="M415.641,103.461a.714.714,0,1,1-.714-.682A.7.7,0,0,1,415.641,103.461Z" transform="translate(-414.214 -102.779)" fill="#fff" stroke="#fff" stroke-width="1"/>
            <path id="Trazado_99258" data-name="Trazado 99258" d="M424.087,103.461a.714.714,0,1,1-.713-.682A.7.7,0,0,1,424.087,103.461Z" transform="translate(-416.24 -102.779)" fill="#fff" stroke="#fff" stroke-width="1"/>
            <path id="Trazado_99259" data-name="Trazado 99259" d="M432.533,103.461a.714.714,0,1,1-.713-.682A.7.7,0,0,1,432.533,103.461Z" transform="translate(-418.266 -102.779)" fill="#fff" stroke="#fff" stroke-width="1"/>
            <path id="Trazado_99260" data-name="Trazado 99260" d="M440.98,103.461a.714.714,0,1,1-.714-.682A.7.7,0,0,1,440.98,103.461Z" transform="translate(-420.292 -102.779)" fill="#fff" stroke="#fff" stroke-width="1"/>
            <path id="Trazado_99261" data-name="Trazado 99261" d="M449.426,103.461a.714.714,0,1,1-.713-.682A.7.7,0,0,1,449.426,103.461Z" transform="translate(-422.318 -102.779)" fill="#fff" stroke="#fff" stroke-width="1"/>
            <path id="Trazado_99262" data-name="Trazado 99262" d="M457.872,103.461a.714.714,0,1,1-.713-.682A.7.7,0,0,1,457.872,103.461Z" transform="translate(-424.344 -102.779)" fill="#fff" stroke="#fff" stroke-width="1"/>
            <path id="Trazado_99263" data-name="Trazado 99263" d="M466.319,103.461a.714.714,0,1,1-.714-.682A.7.7,0,0,1,466.319,103.461Z" transform="translate(-426.37 -102.779)" fill="#fff" stroke="#fff" stroke-width="1"/>
            <path id="Trazado_99264" data-name="Trazado 99264" d="M474.765,103.461a.714.714,0,1,1-.713-.682A.7.7,0,0,1,474.765,103.461Z" transform="translate(-428.396 -102.779)" fill="#fff" stroke="#fff" stroke-width="1"/>
            <path id="Trazado_99265" data-name="Trazado 99265" d="M483.211,103.461a.714.714,0,1,1-.713-.682A.7.7,0,0,1,483.211,103.461Z" transform="translate(-430.422 -102.779)" fill="#fff" stroke="#fff" stroke-width="1"/>
            <path id="Trazado_99266" data-name="Trazado 99266" d="M491.658,103.461a.714.714,0,1,1-.714-.682A.7.7,0,0,1,491.658,103.461Z" transform="translate(-432.448 -102.779)" fill="#fff" stroke="#fff" stroke-width="1"/>
            <path id="Trazado_99267" data-name="Trazado 99267" d="M500.1,103.461a.714.714,0,1,1-.714-.682A.7.7,0,0,1,500.1,103.461Z" transform="translate(-434.475 -102.779)" fill="#fff" stroke="#fff" stroke-width="1"/>
          </g>
          <g id="Grupo_53314" data-name="Grupo 53314" transform="translate(0 43.661)">
            <ellipse id="Elipse_3975" data-name="Elipse 3975" cx="0.713" cy="0.682" rx="0.713" ry="0.682" fill="#fff" stroke="#fff" stroke-width="1"/>
            <path id="Trazado_99268" data-name="Trazado 99268" d="M424.087,110.969a.714.714,0,1,1-.713-.682A.7.7,0,0,1,424.087,110.969Z" transform="translate(-416.24 -110.287)" fill="#fff" stroke="#fff" stroke-width="1"/>
            <ellipse id="Elipse_3976" data-name="Elipse 3976" cx="0.713" cy="0.682" rx="0.713" ry="0.682" transform="translate(12.84)" fill="#fff" stroke="#fff" stroke-width="1"/>
            <path id="Trazado_99269" data-name="Trazado 99269" d="M440.98,110.969a.714.714,0,1,1-.714-.682A.7.7,0,0,1,440.98,110.969Z" transform="translate(-420.292 -110.287)" fill="#fff" stroke="#fff" stroke-width="1"/>
            <path id="Trazado_99270" data-name="Trazado 99270" d="M449.426,110.969a.714.714,0,1,1-.713-.682A.7.7,0,0,1,449.426,110.969Z" transform="translate(-422.318 -110.287)" fill="#fff" stroke="#fff" stroke-width="1"/>
            <ellipse id="Elipse_3977" data-name="Elipse 3977" cx="0.713" cy="0.682" rx="0.713" ry="0.682" transform="translate(32.101)" fill="#fff" stroke="#fff" stroke-width="1"/>
            <path id="Trazado_99271" data-name="Trazado 99271" d="M466.319,110.969a.714.714,0,1,1-.714-.682A.7.7,0,0,1,466.319,110.969Z" transform="translate(-426.37 -110.287)" fill="#fff" stroke="#fff" stroke-width="1"/>
            <ellipse id="Elipse_3978" data-name="Elipse 3978" cx="0.713" cy="0.682" rx="0.713" ry="0.682" transform="translate(44.942)" fill="#fff" stroke="#fff" stroke-width="1"/>
            <ellipse id="Elipse_3979" data-name="Elipse 3979" cx="0.713" cy="0.682" rx="0.713" ry="0.682" transform="translate(51.362)" fill="#fff" stroke="#fff" stroke-width="1"/>
            <path id="Trazado_99272" data-name="Trazado 99272" d="M491.658,110.969a.714.714,0,1,1-.714-.682A.7.7,0,0,1,491.658,110.969Z" transform="translate(-432.448 -110.287)" fill="#fff" stroke="#fff" stroke-width="1"/>
            <path id="Trazado_99273" data-name="Trazado 99273" d="M500.1,110.969a.714.714,0,1,1-.714-.682A.7.7,0,0,1,500.1,110.969Z" transform="translate(-434.474 -110.287)" fill="#fff" stroke="#fff" stroke-width="1"/>
          </g>
          <g id="Grupo_53315" data-name="Grupo 53315" transform="translate(0 49.118)">
            <path id="Trazado_99274" data-name="Trazado 99274" d="M415.641,118.477a.714.714,0,1,1-.714-.683A.7.7,0,0,1,415.641,118.477Z" transform="translate(-414.214 -117.794)" fill="#fff" stroke="#fff" stroke-width="1"/>
            <path id="Trazado_99275" data-name="Trazado 99275" d="M424.087,118.477a.714.714,0,1,1-.713-.683A.7.7,0,0,1,424.087,118.477Z" transform="translate(-416.24 -117.794)" fill="#fff" stroke="#fff" stroke-width="1"/>
            <path id="Trazado_99276" data-name="Trazado 99276" d="M432.533,118.477a.714.714,0,1,1-.713-.683A.7.7,0,0,1,432.533,118.477Z" transform="translate(-418.266 -117.794)" fill="#fff" stroke="#fff" stroke-width="1"/>
            <path id="Trazado_99277" data-name="Trazado 99277" d="M440.98,118.477a.714.714,0,1,1-.714-.683A.7.7,0,0,1,440.98,118.477Z" transform="translate(-420.292 -117.794)" fill="#fff" stroke="#fff" stroke-width="1"/>
            <path id="Trazado_99278" data-name="Trazado 99278" d="M449.426,118.477a.714.714,0,1,1-.713-.683A.7.7,0,0,1,449.426,118.477Z" transform="translate(-422.318 -117.794)" fill="#fff" stroke="#fff" stroke-width="1"/>
            <path id="Trazado_99279" data-name="Trazado 99279" d="M457.872,118.477a.714.714,0,1,1-.713-.683A.7.7,0,0,1,457.872,118.477Z" transform="translate(-424.344 -117.794)" fill="#fff" stroke="#fff" stroke-width="1"/>
            <path id="Trazado_99280" data-name="Trazado 99280" d="M466.319,118.477a.714.714,0,1,1-.714-.683A.7.7,0,0,1,466.319,118.477Z" transform="translate(-426.37 -117.794)" fill="#fff" stroke="#fff" stroke-width="1"/>
            <path id="Trazado_99281" data-name="Trazado 99281" d="M474.765,118.477a.714.714,0,1,1-.713-.683A.7.7,0,0,1,474.765,118.477Z" transform="translate(-428.396 -117.794)" fill="#fff" stroke="#fff" stroke-width="1"/>
            <path id="Trazado_99282" data-name="Trazado 99282" d="M483.211,118.477a.714.714,0,1,1-.713-.683A.7.7,0,0,1,483.211,118.477Z" transform="translate(-430.422 -117.794)" fill="#fff" stroke="#fff" stroke-width="1"/>
            <path id="Trazado_99283" data-name="Trazado 99283" d="M491.658,118.477a.714.714,0,1,1-.714-.683A.7.7,0,0,1,491.658,118.477Z" transform="translate(-432.448 -117.794)" fill="#fff" stroke="#fff" stroke-width="1"/>
            <path id="Trazado_99284" data-name="Trazado 99284" d="M500.1,118.477a.714.714,0,1,1-.714-.683A.7.7,0,0,1,500.1,118.477Z" transform="translate(-434.475 -117.794)" fill="#fff" stroke="#fff" stroke-width="1"/>
          </g>
          <g id="Grupo_53316" data-name="Grupo 53316" transform="translate(0 54.576)">
            <ellipse id="Elipse_3980" data-name="Elipse 3980" cx="0.713" cy="0.682" rx="0.713" ry="0.682" transform="translate(0 0)" fill="#fff" stroke="#fff" stroke-width="1"/>
            <path id="Trazado_99285" data-name="Trazado 99285" d="M424.087,125.985a.714.714,0,1,1-.713-.683A.7.7,0,0,1,424.087,125.985Z" transform="translate(-416.24 -125.302)" fill="#fff" stroke="#fff" stroke-width="1"/>
            <ellipse id="Elipse_3981" data-name="Elipse 3981" cx="0.713" cy="0.682" rx="0.713" ry="0.682" transform="translate(12.84 0)" fill="#fff" stroke="#fff" stroke-width="1"/>
            <path id="Trazado_99286" data-name="Trazado 99286" d="M440.98,125.985a.714.714,0,1,1-.714-.683A.7.7,0,0,1,440.98,125.985Z" transform="translate(-420.292 -125.302)" fill="#fff" stroke="#fff" stroke-width="1"/>
            <path id="Trazado_99287" data-name="Trazado 99287" d="M449.426,125.985a.714.714,0,1,1-.713-.683A.7.7,0,0,1,449.426,125.985Z" transform="translate(-422.318 -125.302)" fill="#fff" stroke="#fff" stroke-width="1"/>
            <ellipse id="Elipse_3982" data-name="Elipse 3982" cx="0.713" cy="0.682" rx="0.713" ry="0.682" transform="translate(32.101 0)" fill="#fff" stroke="#fff" stroke-width="1"/>
            <path id="Trazado_99288" data-name="Trazado 99288" d="M466.319,125.985a.714.714,0,1,1-.714-.683A.7.7,0,0,1,466.319,125.985Z" transform="translate(-426.37 -125.302)" fill="#fff" stroke="#fff" stroke-width="1"/>
            <ellipse id="Elipse_3983" data-name="Elipse 3983" cx="0.713" cy="0.682" rx="0.713" ry="0.682" transform="translate(44.942 0)" fill="#fff" stroke="#fff" stroke-width="1"/>
            <ellipse id="Elipse_3984" data-name="Elipse 3984" cx="0.713" cy="0.682" rx="0.713" ry="0.682" transform="translate(51.362 0)" fill="#fff" stroke="#fff" stroke-width="1"/>
            <path id="Trazado_99289" data-name="Trazado 99289" d="M491.658,125.985a.714.714,0,1,1-.714-.683A.7.7,0,0,1,491.658,125.985Z" transform="translate(-432.448 -125.302)" fill="#fff" stroke="#fff" stroke-width="1"/>
            <path id="Trazado_99290" data-name="Trazado 99290" d="M500.1,125.985a.714.714,0,1,1-.714-.683A.7.7,0,0,1,500.1,125.985Z" transform="translate(-434.474 -125.302)" fill="#fff" stroke="#fff" stroke-width="1"/>
          </g>
          <g id="Grupo_53317" data-name="Grupo 53317" transform="translate(0 60.034)">
            <ellipse id="Elipse_3985" data-name="Elipse 3985" cx="0.713" cy="0.682" rx="0.713" ry="0.682" transform="translate(0 0)" fill="#fff" stroke="#fff" stroke-width="1"/>
            <path id="Trazado_99291" data-name="Trazado 99291" d="M424.087,133.493a.714.714,0,1,1-.713-.683A.7.7,0,0,1,424.087,133.493Z" transform="translate(-416.24 -132.81)" fill="#fff" stroke="#fff" stroke-width="1"/>
            <ellipse id="Elipse_3986" data-name="Elipse 3986" cx="0.713" cy="0.682" rx="0.713" ry="0.682" transform="translate(12.84 0)" fill="#fff" stroke="#fff" stroke-width="1"/>
            <path id="Trazado_99292" data-name="Trazado 99292" d="M440.98,133.493a.714.714,0,1,1-.714-.683A.7.7,0,0,1,440.98,133.493Z" transform="translate(-420.292 -132.81)" fill="#fff" stroke="#fff" stroke-width="1"/>
            <path id="Trazado_99293" data-name="Trazado 99293" d="M449.426,133.493a.714.714,0,1,1-.713-.683A.7.7,0,0,1,449.426,133.493Z" transform="translate(-422.318 -132.81)" fill="#fff" stroke="#fff" stroke-width="1"/>
            <ellipse id="Elipse_3987" data-name="Elipse 3987" cx="0.713" cy="0.682" rx="0.713" ry="0.682" transform="translate(32.101 0)" fill="#fff" stroke="#fff" stroke-width="1"/>
            <path id="Trazado_99294" data-name="Trazado 99294" d="M466.319,133.493a.714.714,0,1,1-.714-.683A.7.7,0,0,1,466.319,133.493Z" transform="translate(-426.37 -132.81)" fill="#fff" stroke="#fff" stroke-width="1"/>
            <ellipse id="Elipse_3988" data-name="Elipse 3988" cx="0.713" cy="0.682" rx="0.713" ry="0.682" transform="translate(44.942 0)" fill="#fff" stroke="#fff" stroke-width="1"/>
            <ellipse id="Elipse_3989" data-name="Elipse 3989" cx="0.713" cy="0.682" rx="0.713" ry="0.682" transform="translate(51.362 0)" fill="#fff" stroke="#fff" stroke-width="1"/>
            <path id="Trazado_99295" data-name="Trazado 99295" d="M491.658,133.493a.714.714,0,1,1-.714-.683A.7.7,0,0,1,491.658,133.493Z" transform="translate(-432.448 -132.81)" fill="#fff" stroke="#fff" stroke-width="1"/>
            <path id="Trazado_99296" data-name="Trazado 99296" d="M500.1,133.493a.714.714,0,1,1-.714-.683A.7.7,0,0,1,500.1,133.493Z" transform="translate(-434.474 -132.81)" fill="#fff" stroke="#fff" stroke-width="1"/>
          </g>
        </g>
        <line id="Línea_138" data-name="Línea 138" y2="139.568" transform="translate(1030.313 501.213)" fill="none" stroke="#3449bc" stroke-linecap="round" stroke-width="2" stroke-dasharray="8"/>
      </g>
      <g id="Grupo_1044136" data-name="Grupo 1044136" transform="translate(1046 399)">
        <g id="Grupo_1044135" data-name="Grupo 1044135" transform="translate(0)" clip-path="url(#clip-path)">
          <g id="Grupo_1044067" data-name="Grupo 1044067">
            <g id="Grupo_1044066" data-name="Grupo 1044066" clip-path="url(#clip-path)">
              <path id="Trazado_773670" data-name="Trazado 773670" d="M252.506,41.759c14.791,3.867,28.053,15.3,31.486,30.2,4.08,17.71-5.445,37.938,3.61,53.695,5.223,9.089,15.279,13.995,23.857,20.02,13.6,9.556,24.663,23.582,27.855,39.9s-2.654,34.783-16.391,44.145c-12.237,8.341-28.974,8.925-39.913,18.908-8.237,7.518-11.549,18.907-17.726,28.192a53.175,53.175,0,0,1-45.065,23.249c-22.091-.691-41.451-15.094-63.183-19.116-39.357-7.285-77.811,20.228-117.769,17.893-6.606-.386-13.489-1.743-18.57-5.983-9.035-7.539-9.348-21.066-8.919-32.826.646-17.7,1.9-36.97,13.729-50.146,3.635-4.049,8.111-7.295,11.6-11.466s5.991-9.754,4.593-15.012c-1.241-4.668-5.188-8.007-8.436-11.582a47.623,47.623,0,0,1,17.487-76.21c4.478-1.8,9.251-2.931,13.445-5.32C78.98,81.871,81.306,61.989,89.334,46.99c13.138-24.545,46.2-36.125,71.779-25.144,14.916,6.4,26.788,18.382,42.878,22.27,7.832,1.893,13.557-1.261,21.318-2.787a61.123,61.123,0,0,1,27.2.429" transform="translate(-2.07 -3.14)" fill="#ffdfca"/>
              <path id="Trazado_773671" data-name="Trazado 773671" d="M254.805,35.016C270.424,39.1,284.427,51.174,288.051,66.9c4.31,18.7-5.748,40.058,3.813,56.7,5.514,9.6,16.132,14.777,25.19,21.14,14.363,10.09,26.043,24.9,29.412,42.126s-2.8,36.727-17.307,46.612c-12.921,8.806-30.594,9.423-42.144,19.964-8.7,7.938-12.2,19.964-18.718,29.768a56.146,56.146,0,0,1-47.583,24.548c-23.326-.73-43.768-15.937-66.714-20.186-41.557-7.692-82.16,21.36-124.351,18.894-6.976-.408-14.243-1.841-19.608-6.318C.5,292.189.17,277.906.622,265.488c.682-18.685,2-39.036,14.5-52.948,3.839-4.275,8.564-7.7,12.254-12.106s6.325-10.3,4.849-15.852c-1.31-4.928-5.478-8.454-8.907-12.229A50.285,50.285,0,0,1,41.78,91.883c4.728-1.9,9.768-3.094,14.195-5.618,15.606-8.9,18.062-29.889,26.539-45.726C96.386,14.623,131.293,2.4,158.305,13.99,174.054,20.75,186.589,33.4,203.58,37.5c8.269,2,14.314-1.331,22.508-2.942A64.537,64.537,0,0,1,254.805,35.016Z" transform="translate(-0.089 -1.704)" fill="none" stroke="#f8ebe0" stroke-linecap="round" stroke-linejoin="round" stroke-width="1" stroke-dasharray="2 2"/>
              <path id="Trazado_773672" data-name="Trazado 773672" d="M309.7,148.1c.229.234.466.482.722.764a3.63,3.63,0,0,1-.776-2.7,20.537,20.537,0,0,1,.552-2.829,6.231,6.231,0,0,0-.563-4.8,3.733,3.733,0,0,0-2.935-1.614,3.408,3.408,0,0,0-2.93,1.568,3.138,3.138,0,0,0,.026,3.295c.077.117.164.221.245.333-.108-.087-.207-.18-.319-.263a3.138,3.138,0,0,0-3.288-.211,3.41,3.41,0,0,0-1.729,2.838,3.733,3.733,0,0,0,1.448,3.02,6.226,6.226,0,0,0,4.763.83,20.667,20.667,0,0,1,2.857-.393,3.628,3.628,0,0,1,2.65.926c-.267-.271-.5-.522-.722-.764" transform="translate(-208.415 -24.304)" fill="#ff7a40"/>
              <path id="Trazado_773673" data-name="Trazado 773673" d="M318.607,98.013c.044.248.086.509.124.8a2.8,2.8,0,0,1,.686-2.05A15.884,15.884,0,0,1,321,95.21a4.8,4.8,0,0,0,1.74-3.291,2.875,2.875,0,0,0-1.156-2.305,2.624,2.624,0,0,0-2.543-.285,2.415,2.415,0,0,0-1.421,2.1c0,.107.007.211.009.317-.03-.1-.052-.2-.087-.306a2.416,2.416,0,0,0-1.993-1.569,2.629,2.629,0,0,0-2.336,1.045,2.876,2.876,0,0,0-.4,2.548,4.8,4.8,0,0,0,2.658,2.606,15.791,15.791,0,0,1,1.982,1,2.786,2.786,0,0,1,1.277,1.745c-.051-.29-.09-.551-.124-.8" transform="translate(-232.233 -15.82)" fill="#ff7a40"/>
              <path id="Trazado_773674" data-name="Trazado 773674" d="M330.956,130.289c.21.453.424.931.648,1.467a5.538,5.538,0,0,1,.262-4.275,31.343,31.343,0,0,1,2.239-3.786c1.319-2.157,2.295-4.747,1.643-7.19a5.7,5.7,0,0,0-3.394-3.82,5.2,5.2,0,0,0-5.014.758,4.788,4.788,0,0,0-1.644,4.75c.051.206.123.4.182.6-.109-.18-.206-.364-.324-.541a4.787,4.787,0,0,0-4.619-1.981,5.2,5.2,0,0,0-3.936,3.2,5.693,5.693,0,0,0,.539,5.081c1.367,2.127,3.939,3.149,6.423,3.626a31.4,31.4,0,0,1,4.306.894,5.535,5.535,0,0,1,3.338,2.685c-.245-.527-.455-1.008-.648-1.467" transform="translate(-248.697 -19.943)" fill="#ff7a40"/>
              <path id="Trazado_773675" data-name="Trazado 773675" d="M256.022,146.42c-7.62,5.7-13.45,13.415-20.33,19.987-4.738,4.525-10.033,8.572-13.823,13.915s-5.879,12.492-3.286,18.508c1.573,3.649,4.679,6.452,8.1,8.476a4.044,4.044,0,0,0,2.426.765,4.317,4.317,0,0,0,2.113-1.136l36.256-29.441c5.248-4.261,10.665-8.736,13.527-14.859,2.02-4.325,2.575-9.127,2.611-13.852.033-4.289.939-7.912-3.823-8.953-8.371-1.83-17.12,1.619-23.77,6.59" transform="translate(-114.855 -24.732)" fill="#e5755e"/>
              <path id="Trazado_773676" data-name="Trazado 773676" d="M234.907,129.891c4.864,3.262,12.018.533,15.2,5.448a29.456,29.456,0,0,1,4.221,14.771c.554,12.592-6.38,31.066-13.227,41.647-12.232,18.905-32.945,33.711-55.458,33.251-7.565-.154-14.985-1.984-22.492-2.926-7.489-.94-14.637,4.186-21.787,6.6-7.815,2.641-17.091,5.091-23.754.229-3.941-2.875-5.945-7.742-6.837-12.537-1.3-6.987-.558-14.482,2.877-20.7,2.6-4.7,6.577-8.479,10.7-11.92,8.03-6.7,16.858-12.444,24.477-19.608s14.128-16.12,15.817-26.442a8.176,8.176,0,0,1,1.365-4.114,7.58,7.58,0,0,1,3.432-1.9,88.468,88.468,0,0,0,17.177-8.193c5.305-3.274,10.807-7.273,17.03-6.907,3.511.206,6.768,1.807,9.914,3.378,7.013,3.5,14.829,5.558,21.34,9.924" transform="translate(2.708 -20.691)" fill="#ff9076"/>
              <path id="Trazado_773677" data-name="Trazado 773677" d="M230.3,215.929c-4.4,4.311-7.142,10.967-8.68,16.934" transform="translate(-64.886 -38.328)" fill="none" stroke="#190807" stroke-linecap="round" stroke-linejoin="round" stroke-width="1"/>
              <path id="Trazado_773678" data-name="Trazado 773678" d="M279.738,167.882c-8.651,12.684-23.587,19.691-33.409,31.491-1.828,2.2-3.464,4.542-5.1,6.885l-6.813,9.766" transform="translate(-124.858 -29.8)" fill="none" stroke="#190807" stroke-linecap="round" stroke-linejoin="round" stroke-width="1"/>
              <g id="Grupo_1044047" data-name="Grupo 1044047" transform="translate(110.253 143.776)" opacity="0.18" style="mix-blend-mode: multiply;isolation: isolate">
                <g id="Grupo_1044046" data-name="Grupo 1044046" transform="translate(0)">
                  <g id="Grupo_1044045" data-name="Grupo 1044045" transform="translate(0)" clip-path="url(#clip-path-3)">
                    <path id="Trazado_773679" data-name="Trazado 773679" d="M263.457,185.833c-4.924,2.348-10.161,4.151-14.624,7.287s-8.169,8.011-8.133,13.466c.008,1.167.316,2.518,1.37,3.018,1.2.565,2.555-.3,3.543-1.173,3.552-3.152,6.343-7.056,9.619-10.494,7.425-7.791,19.843-13.431,24.927-23.132-5.452,4.034-10.516,8.078-16.7,11.028" transform="translate(-240.7 -174.804)" fill="#c44643"/>
                  </g>
                </g>
              </g>
              <g id="Grupo_1044050" data-name="Grupo 1044050" transform="translate(131.339 98.931)" opacity="0.18" style="mix-blend-mode: multiply;isolation: isolate">
                <g id="Grupo_1044049" data-name="Grupo 1044049" transform="translate(0)">
                  <g id="Grupo_1044048" data-name="Grupo 1044048" transform="translate(0)" clip-path="url(#clip-path-4)">
                    <path id="Trazado_773680" data-name="Trazado 773680" d="M152.545,150.232c4.075-5.034,8.389-10.02,13.852-13.5s12.292-5.315,18.518-3.529a12.257,12.257,0,0,1,6.017,3.624c.023.027.042.057.064.084a77.919,77.919,0,0,1,20.858-14.622,18.082,18.082,0,0,1,6.119-1.972,7.215,7.215,0,0,1,5.92,1.977c2.371,2.562,1.828,6.717,3.6,9.723a7.2,7.2,0,0,0,7.725,3.231c1.438-.359,2.824.285,4.168.909a6.625,6.625,0,0,1,3.655,3.412c.587,1.608-.659,4.469-2.326,4.857-4.5-.123-8.864,1.6-12.776,3.823s-7.508,4.976-11.422,7.2c-2.682,1.523-5.878,2.82-8.78,1.773-2.375-.855-4.034-3.123-6.415-3.962a10.445,10.445,0,0,0-5.085-.149c-6.7,1.058-13.006,3.768-19.158,6.672l-1.542,1.465.109-.784-.513.243a7.5,7.5,0,0,1,.985-3.668l.217-1.573a7.878,7.878,0,0,0,.009-3.139,5.6,5.6,0,0,0-3.992-3.555c-7-2.068-13.782,4.493-21.085,4.516-.2-1.121.554-2.168,1.272-3.054" transform="translate(-151.241 -120.282)" fill="#c44643"/>
                  </g>
                </g>
              </g>
              <g id="Grupo_1044053" data-name="Grupo 1044053" transform="translate(110.752 172.316)" opacity="0.27">
                <g id="Grupo_1044052" data-name="Grupo 1044052" transform="translate(0)">
                  <g id="Grupo_1044051" data-name="Grupo 1044051" transform="translate(0)" clip-path="url(#clip-path-5)">
                    <path id="Trazado_773681" data-name="Trazado 773681" d="M269.052,218.371c0,4.9,3.5,8.867,7.821,8.867s7.82-3.97,7.82-8.867-3.5-8.867-7.82-8.867-7.821,3.97-7.821,8.867" transform="translate(-269.052 -209.504)" fill="#d30715"/>
                  </g>
                </g>
              </g>
              <path id="Trazado_773682" data-name="Trazado 773682" d="M135.458,244.114l47.146-2.482,5.318,2.482,40.945-1.172,33.418,9.741-7.6,42.266a261.975,261.975,0,0,1-5.362,44.23s-16.8,6.714-39.639-5.125c-14.886-7.717-47.337-20.2-83.876-11.077Z" transform="translate(-18.074 -42.891)" fill="#d30715"/>
              <path id="Trazado_773683" data-name="Trazado 773683" d="M247.2,316.244a33.052,33.052,0,0,1-8.7,4.053c-1.537.46-3.335.767-4.637-.172a5.531,5.531,0,0,1-1.534-2.081,70.628,70.628,0,0,1-5.133-13.217c-.493-1.786-.894-3.794,0-5.416,1.295-2.338,4.6-2.636,7.166-1.884a18.572,18.572,0,0,1,8.479,5.79,55.387,55.387,0,0,1,5.832,8.6c.762,1.291,1.628,2.259.6,3.347s-.826.159-2.078.983" transform="translate(-88.496 -52.747)" fill="#edddd1"/>
              <g id="Grupo_1044056" data-name="Grupo 1044056" transform="translate(166.147 210.548)" opacity="0.53" style="mix-blend-mode: multiply;isolation: isolate">
                <g id="Grupo_1044055" data-name="Grupo 1044055">
                  <g id="Grupo_1044054" data-name="Grupo 1044054" clip-path="url(#clip-path-6)">
                    <path id="Trazado_773684" data-name="Trazado 773684" d="M134.767,301.848c-2.358-.349-3.925-2.013-5.2-4.029-5.581-8.848-4.41-19.723,1.766-28.143-.137.02-.3-.026-.32-.174-.044-.3.264-.524.533-.668,18.106-9.687,40.348-5.563,60.334-10.279,3.559-.84,7.06-1.965,10.68-2.482a8.174,8.174,0,0,1,1.34-.082L196.441,297.5a261.969,261.969,0,0,1-5.362,44.229,26.38,26.38,0,0,1-4.5,1.179c-1.194-.012-2.388-.033-3.581-.074a3.664,3.664,0,0,1-2.246-.582,3.461,3.461,0,0,1-.971-1.854c-1.851-6.9-.745-14.191-.226-21.316s.293-14.782-3.735-20.682c-5-7.33-14.779-10.052-23.624-9.328a24.173,24.173,0,0,0-11.125,3.341,13.342,13.342,0,0,0-6.3,9.436" transform="translate(-125.975 -255.987)" fill="#d30715"/>
                  </g>
                </g>
              </g>
              <g id="Grupo_1044059" data-name="Grupo 1044059" transform="translate(107.735 249.244)" opacity="0.53" style="mix-blend-mode: multiply;isolation: isolate">
                <g id="Grupo_1044058" data-name="Grupo 1044058" transform="translate(0)">
                  <g id="Grupo_1044057" data-name="Grupo 1044057" transform="translate(0)" clip-path="url(#clip-path-7)">
                    <path id="Trazado_773685" data-name="Trazado 773685" d="M201.681,305.885c3.329-1.962,7.357-2.468,11.243-2.7a48.315,48.315,0,0,1,14.222.86A76.862,76.862,0,0,1,235.851,307c10.959,4.09,22.35,6.884,33.711,9.668,1.661.407,3.888,1.395,5.582,1.624a20.72,20.72,0,0,1-23.528,7.316,7.505,7.505,0,0,0-2.109-.6,9.126,9.126,0,0,0-3.631,1.051,10.37,10.37,0,0,1-7.123.039c-2.012-.732-3.751-2.075-5.742-2.866-5.132-2.041-11.026-.086-15.684,2.881-2.643,1.684-5.081,3.682-7.588,5.567a106.726,106.726,0,0,0-11.483,2.194Z" transform="translate(-198.256 -303.034)" fill="#d30715"/>
                  </g>
                </g>
              </g>
              <path id="Trazado_773686" data-name="Trazado 773686" d="M339.737,212.513c-6.112.883-12.314.965-18.446,1.691s-12.323,2.152-17.546,5.448c-4.6,2.906-8.687,7.246-14.028,8.3a33.411,33.411,0,0,1-16.292-26.961,36.421,36.421,0,0,1,12.811-29.018,23.4,23.4,0,0,1,5.286-3.5,26.363,26.363,0,0,1,7.862-1.991,39.327,39.327,0,0,1,12.133.2,29.474,29.474,0,0,1,23.455,34.3,3.492,3.492,0,0,1,3.666,1.67c.587,1.2-.318,2.946-1.65,2.88a12.771,12.771,0,0,1,2.748,6.985" transform="translate(-216.906 -29.485)" fill="#ff9f8f"/>
              <g id="Grupo_1044062" data-name="Grupo 1044062" transform="translate(56.478 136.625)" opacity="0.36">
                <g id="Grupo_1044061" data-name="Grupo 1044061">
                  <g id="Grupo_1044060" data-name="Grupo 1044060" clip-path="url(#clip-path-8)">
                    <path id="Trazado_773687" data-name="Trazado 773687" d="M293.766,200.991a36.42,36.42,0,0,1,12.811-29.018,23.4,23.4,0,0,1,5.286-3.5,26.336,26.336,0,0,1,7.862-1.99,44.9,44.9,0,0,1,7.585-.33,57.3,57.3,0,0,1,14.291,4.312c.262.159.522.317.778.484,1.365,1.034,3.043,3.535-8.528,5.584-14.985,2.653-10.19,22.623-10.19,22.623s-13.415-.513-11.389,8.462,6.827,5.629,6.827,5.629l-9.041,14.706a33.411,33.411,0,0,1-16.292-26.961" transform="translate(-293.725 -166.11)" fill="#c44643"/>
                  </g>
                </g>
              </g>
              <path id="Trazado_773688" data-name="Trazado 773688" d="M289.44,204.643a6.4,6.4,0,0,1-9.107,1.393c-.075-.058-.182-.117-.254-.057s.1.174.09.081" transform="translate(-172.101 -36.325)" fill="none" stroke="#190807" stroke-linecap="round" stroke-linejoin="round" stroke-width="1"/>
              <path id="Trazado_773689" data-name="Trazado 773689" d="M319.414,211.194c.688-1.073,2.438-.9,3.32.021a6.132,6.132,0,0,1,1.292,3.528,1.828,1.828,0,1,0-.721,2.983" transform="translate(-239.055 -37.357)" fill="none" stroke="#190807" stroke-linecap="round" stroke-linejoin="round" stroke-width="1"/>
              <path id="Trazado_773690" data-name="Trazado 773690" d="M274.12,208.663a3.605,3.605,0,0,1,1.692,1.842,3.384,3.384,0,0,1-.1,1.754,1.326,1.326,0,0,1-1.39.866,11.174,11.174,0,0,1,2.18,5.405" transform="translate(-154.275 -37.039)" fill="none" stroke="#190807" stroke-linecap="round" stroke-linejoin="round" stroke-width="1"/>
              <g id="Grupo_1044065" data-name="Grupo 1044065" transform="translate(106.1 160.394)" opacity="0.36">
                <g id="Grupo_1044064" data-name="Grupo 1044064">
                  <g id="Grupo_1044063" data-name="Grupo 1044063" clip-path="url(#clip-path-9)">
                    <path id="Trazado_773691" data-name="Trazado 773691" d="M285.3,198.5c-.952.106-2.136-.03-2.514-.8a1.374,1.374,0,0,1,.553-1.623,4.5,4.5,0,0,1,1.879-.706,17.4,17.4,0,0,1,5.265-.261,2.255,2.255,0,0,1,.9.239.65.65,0,0,1,.358.713c-.1.29-.452.439-.771.554-1.889.679-3.607,1.656-5.671,1.888" transform="translate(-282.686 -195.009)" fill="#c44643"/>
                  </g>
                </g>
              </g>
              <path id="Trazado_773692" data-name="Trazado 773692" d="M243.5,217.095a47.635,47.635,0,0,0,6.2-5.217l.022.466a8.25,8.25,0,0,1,1.742-8.908,4.082,4.082,0,0,1,3.207-1.3c.253.033.975.054,1.05.3a2.817,2.817,0,0,1-1.01,1.2,3.445,3.445,0,0,1,1.6-.832,1.06,1.06,0,0,1,1.4.6c.128.588-.434,1.077-.931,1.416.19-.827,1.726-1.136,2.352-.565a1.286,1.286,0,0,1-.437,2.063,1.838,1.838,0,0,1,1.874-1.06,1.54,1.54,0,0,1,1.194,1.541,4.147,4.147,0,0,1-.791,1.735c-1.135,1.965-.931,4.386-1.119,6.647a29.254,29.254,0,0,1-3.553,10.767c-2.372,4.617-5.811,9.395-10.924,10.284a5.677,5.677,0,0,1-4.684-.994,6.558,6.558,0,0,1-1.836-4.613c-.308-4.45.987-10.956,4.633-13.526" transform="translate(-110.519 -35.876)" fill="#ff9f8f"/>
            </g>
          </g>
          <g id="Grupo_1044069" data-name="Grupo 1044069" transform="translate(128.303 166.237)">
            <g id="Grupo_1044068" data-name="Grupo 1044068" transform="translate(0)" clip-path="url(#clip-path-10)">
              <path id="Trazado_773693" data-name="Trazado 773693" d="M248.876,202.469a6.544,6.544,0,0,0-3.3,3.5" transform="translate(-231.479 -202.176)" fill="none" stroke="#280c0b" stroke-linecap="round" stroke-linejoin="round" stroke-width="1"/>
              <path id="Trazado_773694" data-name="Trazado 773694" d="M246.283,203.863a10.809,10.809,0,0,0-2.041,1.7,4.081,4.081,0,0,0-1.073,2.388" transform="translate(-226.904 -202.424)" fill="none" stroke="#280c0b" stroke-linecap="round" stroke-linejoin="round" stroke-width="1"/>
              <path id="Trazado_773695" data-name="Trazado 773695" d="M243.368,205.069a10.114,10.114,0,0,0-1.892,1.794,3.612,3.612,0,0,0-.8,2.428" transform="translate(-221.931 -202.638)" fill="none" stroke="#280c0b" stroke-linecap="round" stroke-linejoin="round" stroke-width="1"/>
            </g>
          </g>
          <g id="Grupo_1044083" data-name="Grupo 1044083">
            <g id="Grupo_1044082" data-name="Grupo 1044082" clip-path="url(#clip-path)">
              <g id="Grupo_1044072" data-name="Grupo 1044072" transform="translate(135.658 169.824)" opacity="0.27">
                <g id="Grupo_1044071" data-name="Grupo 1044071" transform="translate(0)">
                  <g id="Grupo_1044070" data-name="Grupo 1044070" clip-path="url(#clip-path-12)">
                    <path id="Trazado_773697" data-name="Trazado 773697" d="M240.815,214.829c3.33,1.167,5.868,4.65,9.395,4.541a1.076,1.076,0,0,0,.734-.229,1.236,1.236,0,0,0,.253-.872,30.331,30.331,0,0,1,2.792-11.7.327.327,0,0,1,.007-.1,1.508,1.508,0,0,1,.425,1.095,4.147,4.147,0,0,1-.791,1.735c-1.135,1.965-.931,4.386-1.119,6.647a25.361,25.361,0,0,1-2.322,8.218,6.2,6.2,0,0,1-.883,0,14.668,14.668,0,0,1-6.862-1.8,7.121,7.121,0,0,1-3.62-5.821,2.911,2.911,0,0,1,.124-.829c.413-.339.818-.686,1.218-1.039a2.293,2.293,0,0,1,.65.145" transform="translate(-238.823 -206.474)" fill="#d30715"/>
                  </g>
                </g>
              </g>
              <path id="Trazado_773698" data-name="Trazado 773698" d="M241.694,206.66c.425.083.578.651.431,1.059a5.3,5.3,0,0,1-.724,1.073,4.327,4.327,0,0,0-.6,1.7,52.1,52.1,0,0,0-.289,5.616,8.578,8.578,0,0,1-1.78,5.229" transform="translate(-90.852 -36.683)" fill="none" stroke="#190807" stroke-linecap="round" stroke-linejoin="round" stroke-width="1"/>
              <path id="Trazado_773699" data-name="Trazado 773699" d="M258.666,216.574c-3.608,3.13-9.162,3.918-13.919,3.494s-9.372-1.845-14.108-2.465a42.492,42.492,0,0,0-25.3,4.6,20.475,20.475,0,0,0-4.8,3.347c-3.913,3.849-5.118,9.75-4.8,15.229s1.956,10.787,2.894,16.195c.809,4.657,5.039,8.147,7.991,11.838,2.546,3.184,5.2,6.457,8.816,8.339,4.118,2.142,8.95,2.212,13.528,2.977,5.971,1,11.658,3.227,17.521,4.732s12.168,2.259,17.9.31a13.645,13.645,0,0,1,8.229,3.726,75.954,75.954,0,0,1,9.731,10.843c2.354,3.193,4.674,6.751,8.347,8.247a14.07,14.07,0,0,0,9.075.026c4.986-1.416,9.984-5.063,10.424-10.228a3.292,3.292,0,0,0-2.046-3.828,9.291,9.291,0,0,0-10.042,1.55,38.469,38.469,0,0,0-5.559-23.022,50.4,50.4,0,0,0-3.936-5.342c-3.49-4.195-7.61-8.108-12.74-9.967s-11.448-1.243-15.253,2.668c-1.724-1.944-2.667-3.844-4.636-5.54-3.344-2.88-7.1-5.469-9.393-9.239a24.437,24.437,0,0,0,16.8-5.747,24.716,24.716,0,0,0,8.3-15.817c-2.821-1.183-5.4-2.515-8.225-3.7-1.555-.651-3.9-1.8-4.8-3.229" transform="translate(-123.484 -38.443)" fill="#f8ebe0"/>
              <g id="Grupo_1044075" data-name="Grupo 1044075" transform="translate(73.418 209.43)" opacity="0.08" style="mix-blend-mode: multiply;isolation: isolate">
                <g id="Grupo_1044074" data-name="Grupo 1044074" transform="translate(0)">
                  <g id="Grupo_1044073" data-name="Grupo 1044073" transform="translate(0)" clip-path="url(#clip-path-13)">
                    <path id="Trazado_773700" data-name="Trazado 773700" d="M281.046,254.627a30.417,30.417,0,0,0,17.47,18.43,36.236,36.236,0,0,0,25.641.234c-4.045,2.064-7.625,5.034-11.869,6.648a20.458,20.458,0,0,1-27.489-16c-.252-1.629-.526-3.609-2.047-4.248-.109-1.6-1.186-3.544-1.7-5.065" transform="translate(-281.046 -254.627)" fill="#d30715"/>
                  </g>
                </g>
              </g>
              <g id="Grupo_1044078" data-name="Grupo 1044078" transform="translate(110.876 225.585)" opacity="0.08" style="mix-blend-mode: multiply;isolation: isolate">
                <g id="Grupo_1044077" data-name="Grupo 1044077" transform="translate(0)">
                  <g id="Grupo_1044076" data-name="Grupo 1044076" transform="translate(0)" clip-path="url(#clip-path-14)">
                    <path id="Trazado_773701" data-name="Trazado 773701" d="M252.722,274.269a11.442,11.442,0,0,1-2.542,7.836c4.809,1.411,10.09,2.709,15.011,1.758,4.265-.824,8.285-3.409,12.6-2.921a2.845,2.845,0,0,1,1.312.409,2.31,2.31,0,0,1,.49,2.886,6.733,6.733,0,0,1-2.234,2.24c-3.836,2.785-9.2,2.31-13.935,2.281-6.6-.041-13.361-.54-19.394-3.219a2.419,2.419,0,0,1-1.256-.957,1.767,1.767,0,0,1,.521-2.011,6.693,6.693,0,0,1,1.949-1.064c2.936-1.285,5.875-4.462,7.476-7.238" transform="translate(-242.632 -274.269)" fill="#d30715"/>
                  </g>
                </g>
              </g>
              <path id="Trazado_773702" data-name="Trazado 773702" d="M274.111,276.933a100.466,100.466,0,0,0,14.172-6.887c.569-.335,1.346-.659,1.828-.207.443.415.255,1.147.008,1.7a19.5,19.5,0,0,1-6.728,8.1,31.643,31.643,0,0,0,25.722.419,32.114,32.114,0,0,1,6.437-2.533c.408-.079.908-.1,1.156.233a1.12,1.12,0,0,1,.051.961,8.852,8.852,0,0,1-2.711,4.317c.775-.955,2.562-.344,3.13.748.6,1.143-.112,2.524-.924,3.525a15.44,15.44,0,0,1-1.678,1.762,5.239,5.239,0,0,1,1.865-.567,1.4,1.4,0,0,1,1.443.736,1.841,1.841,0,0,1-.29,1.552,7.872,7.872,0,0,1-2.986,2.949c.342.018,1.04-.287,1.383-.268a7.8,7.8,0,0,1-3.833,6.191,20.447,20.447,0,0,1-7.124,2.484c-10.156,2.07-23.486,4.312-32.454-.887-8.666-5.023-15.561-12.09-21.293-20.3s-9.441-18-9.564-28.016c2.379,7.379,7.143,13.43,12.619,18.917a24.985,24.985,0,0,0,8.385,5.9c3.209,1.249,8.18.423,11.385-.834" transform="translate(-169.09 -44.9)" fill="#ff9076"/>
              <path id="Trazado_773703" data-name="Trazado 773703" d="M255.332,302.641a29.416,29.416,0,0,1-10.77,3.827" transform="translate(-108.795 -53.72)" fill="none" stroke="#190807" stroke-linecap="round" stroke-linejoin="round" stroke-width="1"/>
              <path id="Trazado_773704" data-name="Trazado 773704" d="M256.02,296.335a21.355,21.355,0,0,1-11.351,3.581" transform="translate(-109.572 -52.601)" fill="none" stroke="#190807" stroke-linecap="round" stroke-linejoin="round" stroke-width="1"/>
              <path id="Trazado_773705" data-name="Trazado 773705" d="M255.889,288.933a17.234,17.234,0,0,1-10.7,4.525" transform="translate(-109.866 -51.287)" fill="none" stroke="#190807" stroke-linecap="round" stroke-linejoin="round" stroke-width="1"/>
              <path id="Trazado_773706" data-name="Trazado 773706" d="M116.87,215.567c21.683,2.931,44.689-4.426,59.679-15.842,6.4-7.139,10.618-16.431,14.126-25.51,4.794-12.409,9.125-25.534,18.375-35.093,1.965-2.032,7.393-6.784,10.638-4.623,2.8,1.862,7.2,2.226,5.222,3.879-3.862,3.225-10.545,6.346-15.673,10.173a45.557,45.557,0,0,0-8.352,17.728,75.873,75.873,0,0,1-3.8,11.874c-.769,1.835-1.536,3.513-2.292,5.049,0,0-4.955,12.4-14.195,47.023-2.745,10.287-16.625-2.571-36.33-7.707-21.459-5.592-29.207-6.583-29.207-6.583Z" transform="translate(27.647 -23.776)" fill="#d30715"/>
              <path id="Trazado_773707" data-name="Trazado 773707" d="M202.449,264.033c-25.161-8.087-46.091-27.32-72.44-29.381a196.1,196.1,0,0,0-26.933-.253,1.26,1.26,0,0,1-.99-2.125,6.243,6.243,0,0,1,1.373-1.087,48.932,48.932,0,0,1,13.116-5.707q-8.683,2.459-17.512,4.359a1.792,1.792,0,0,1-2.024-2.484,3.9,3.9,0,0,1,.423-.672,9.414,9.414,0,0,1,3.086-2.256,43.142,43.142,0,0,1,12.257-4.692l-15.428,1.545c-1.177.118-2.6.144-3.109-1.127a2.146,2.146,0,0,1,.489-2.254c1.981-2.06,4.839-2.569,7.569-2.945a144.786,144.786,0,0,1,15.119-1.022,125.164,125.164,0,0,1-18.665-.487,1.308,1.308,0,0,1-.941-.365c-.51-.654.473-1.432,1.267-1.67a71.079,71.079,0,0,1,13.546-2.623,49.2,49.2,0,0,1,25.59,4.529l6.423,3.018,49.161,8.814c3.808.683,8.107,1.262,11.223-1.032a9.271,9.271,0,0,0,2.1-2.236,98.347,98.347,0,0,0,14.311-32.624,265.76,265.76,0,0,1,9.008-29.984c1.959-5.226,3.681-11.025,7.587-15.195,6.4-6.829,18.4-7.264,25.279-.916a22.324,22.324,0,0,1,5.119,7.4c3.25,7.321,3.359,15.615,3.018,23.618a242.84,242.84,0,0,1-2.609,26.607,225.274,225.274,0,0,1-8.253,34.218c-3.277,10.029-13.594,22.321-23.04,27.023q-.721.359-1.453.695s-13.32,7.847-33.664,1.309" transform="translate(-1.332 -24.614)" fill="#ff9076"/>
              <path id="Trazado_773708" data-name="Trazado 773708" d="M215.36,138.517c-7.719,8.73-20.135,11.643-30.087,7.059" transform="translate(-20.058 -24.587)" fill="none" stroke="#190807" stroke-linecap="round" stroke-linejoin="round" stroke-width="1"/>
              <path id="Trazado_773709" data-name="Trazado 773709" d="M240.221,47.356c-4.826,6.359-11.095,12.044-13.259,19.728-3.185,11.3,3.486,23.181,2.4,34.874-.443,4.794-2.18,9.383-2.807,14.157s.116,10.164,3.715,13.361c4.313,3.831,10.868,3.135,16.562,2.207l27.864-4.537a7.819,7.819,0,0,0,3.6-1.22c3.47-2.681.453-8.087-2.4-11.417A87.8,87.8,0,0,1,254.983,58.89c-.058-5.192,5.186-29.483.518-31.078-6.207-2.12-12.759,16.222-15.28,19.543" transform="translate(-118.131 -4.907)" fill="#c44643"/>
              <g id="Grupo_1044081" data-name="Grupo 1044081" transform="translate(108.348 55.156)" opacity="0.29" style="mix-blend-mode: multiply;isolation: isolate">
                <g id="Grupo_1044080" data-name="Grupo 1044080" transform="translate(0)">
                  <g id="Grupo_1044079" data-name="Grupo 1044079" transform="translate(0)" clip-path="url(#clip-path-15)">
                    <path id="Trazado_773710" data-name="Trazado 773710" d="M226.393,127.619c5.475,3.513,12.249,5.542,18.558,3.957s11.72-7.484,11.326-13.978c-.229-3.753-2.228-7.146-3.2-10.778a47.067,47.067,0,0,1-1.11-8.788,137.809,137.809,0,0,0-3.334-21.628c-.715-3.022-1.528-6.228-.537-9.172,1.852-.605,4.584.5,6.587,1.133A87.84,87.84,0,0,0,275.515,121.5c2.853,3.33,5.87,8.737,2.4,11.417a7.811,7.811,0,0,1-3.6,1.221l-27.864,4.537c-5.694.927-12.249,1.624-16.562-2.207a12.477,12.477,0,0,1-3.795-8.185c.092-.225.187-.448.3-.666" transform="translate(-226.092 -67.059)" fill="#c44643"/>
                  </g>
                </g>
              </g>
            </g>
          </g>
          <g id="Grupo_1044091" data-name="Grupo 1044091" transform="translate(107.96 22.735)">
            <g id="Grupo_1044090" data-name="Grupo 1044090" transform="translate(0)" clip-path="url(#clip-path-16)">
              <g id="Grupo_1044086" data-name="Grupo 1044086" transform="translate(14.508 22.25)" style="mix-blend-mode: multiply;isolation: isolate">
                <g id="Grupo_1044085" data-name="Grupo 1044085" transform="translate(0)">
                  <g id="Grupo_1044084" data-name="Grupo 1044084" clip-path="url(#clip-path-17)">
                    <path id="Trazado_773711" data-name="Trazado 773711" d="M270.3,55.194c-3.478,3.951-7.365,7.809-9.068,12.789-2.221,6.492-.3,13.658,2.372,19.975s6.146,12.439,7.157,19.225a14.388,14.388,0,0,1-.906,8.487,23.826,23.826,0,0,1-3.207,4.393c-2.036,2.47-3.884,5.247-4.4,8.4s.6,6.763,3.361,8.381" transform="translate(-259.853 -54.783)" fill="none" stroke="#c44643" stroke-linecap="round" stroke-linejoin="round" stroke-width="1"/>
                  </g>
                </g>
              </g>
              <g id="Grupo_1044089" data-name="Grupo 1044089" transform="translate(2.996 17.063)" style="mix-blend-mode: multiply;isolation: isolate">
                <g id="Grupo_1044088" data-name="Grupo 1044088" transform="translate(0)">
                  <g id="Grupo_1044087" data-name="Grupo 1044087" clip-path="url(#clip-path-18)">
                    <path id="Trazado_773712" data-name="Trazado 773712" d="M283.188,48.888c-1.6,6.75-9.318,10.087-12.8,16.085-3.014,5.189-2.469,11.712-.9,17.5s4.08,11.371,4.761,17.333a13.045,13.045,0,0,1-1.092,7.815c-1.576,2.839-4.644,4.516-6.636,7.081a13.25,13.25,0,0,0-1.66,12.388,18.81,18.81,0,0,0,8.4,9.621" transform="translate(-263.631 -48.477)" fill="none" stroke="#c44643" stroke-linecap="round" stroke-linejoin="round" stroke-width="1"/>
                  </g>
                </g>
              </g>
            </g>
          </g>
          <g id="Grupo_1044093" data-name="Grupo 1044093">
            <g id="Grupo_1044092" data-name="Grupo 1044092" clip-path="url(#clip-path)">
              <path id="Trazado_773714" data-name="Trazado 773714" d="M156.081,55.374c-2.759,7.219-.227,15.29,2.585,22.489q3.857,9.874,8.423,19.451a4.72,4.72,0,0,0-5.64,3.037,6.045,6.045,0,0,0,2.032,6.369,8.5,8.5,0,0,0,6.707,1.607c3.577,5.136,7.864,8.9,12.463,13.143a32.3,32.3,0,0,0,6.452,4.866c8.514,4.591,19.509,2.253,27.228-3.575S229.04,108.214,233,99.391c2.792.575,4.835-.831,6.906-2.789a16.859,16.859,0,0,0,4.2-7.336,7.8,7.8,0,0,0,.376-4.405c-.8-2.814-3.992-4.081-6.784-4.954-2.083-.651-4.326-1.3-6.41-.65a5.575,5.575,0,0,0-3.795,5.377c2.375-11.538-.731-25.173-8.922-33.639-7.956-8.221-20.029-10.6-31.31-12.5a34.04,34.04,0,0,0-8.58-.7c-8.6.75-19.528,9.521-22.608,17.583" transform="translate(-24.383 -6.696)" fill="#ff9076"/>
            </g>
          </g>
          <g id="Grupo_1044098" data-name="Grupo 1044098" transform="translate(130.508 31.026)">
            <g id="Grupo_1044097" data-name="Grupo 1044097" transform="translate(0)" clip-path="url(#clip-path-20)">
              <g id="Grupo_1044096" data-name="Grupo 1044096" transform="translate(20.449 53.892)" opacity="0.27">
                <g id="Grupo_1044095" data-name="Grupo 1044095" transform="translate(0)">
                  <g id="Grupo_1044094" data-name="Grupo 1044094" transform="translate(0)" clip-path="url(#clip-path-21)">
                    <path id="Trazado_773715" data-name="Trazado 773715" d="M234.551,108.683c1.175,4.26-2.345,8.947-7.863,10.47s-10.943-.7-12.119-4.957,2.345-8.948,7.863-10.47,10.943.7,12.119,4.957" transform="translate(-214.343 -103.245)" fill="#d30715"/>
                  </g>
                </g>
              </g>
              <path id="Trazado_773716" data-name="Trazado 773716" d="M224.457,101.347a7.806,7.806,0,0,0,6.851,3.056,8.1,8.1,0,0,0,6.283-4.279" transform="translate(-205.027 -48.798)" fill="none" stroke="#280c0b" stroke-linecap="round" stroke-linejoin="round" stroke-width="1"/>
              <path id="Trazado_773717" data-name="Trazado 773717" d="M219.357,134.818a6.616,6.616,0,0,0,4.98.351,12.183,12.183,0,0,0,4.381-2.58,21.274,21.274,0,0,0,2.979-3.164" transform="translate(-194.939 -54)" fill="none" stroke="#280c0b" stroke-linecap="round" stroke-linejoin="round" stroke-width="1"/>
              <path id="Trazado_773718" data-name="Trazado 773718" d="M169.814,93.05a3.512,3.512,0,0,0-4.137,1.8,6.72,6.72,0,0,0-.293,4.817,3.118,3.118,0,0,1,1.727-1.485,1.865,1.865,0,0,1,2.07.669,3.052,3.052,0,0,1,.12,2.26,4.787,4.787,0,0,1-.491,1.505,1.612,1.612,0,0,1-1.272.841" transform="translate(-88.413 -47.51)" fill="none" stroke="#280c0b" stroke-linecap="round" stroke-linejoin="round" stroke-width="1"/>
              <path id="Trazado_773719" data-name="Trazado 773719" d="M224.457,87.059c0,1.8,3.379,3.254,7.547,3.254s7.546-1.457,7.546-3.254-3.379-3.254-7.546-3.254-7.547,1.457-7.547,3.254" transform="translate(-206.986 -45.902)" fill="#c44643"/>
            </g>
          </g>
          <g id="Grupo_1044103" data-name="Grupo 1044103">
            <g id="Grupo_1044102" data-name="Grupo 1044102" clip-path="url(#clip-path)">
              <path id="Trazado_773721" data-name="Trazado 773721" d="M236.551,5.461a26.452,26.452,0,0,1,3.76-.765,52.424,52.424,0,0,0-8.848,2.8,29.435,29.435,0,0,1,5.088-2.031" transform="translate(-83.001 -0.834)" fill="#c44643"/>
              <path id="Trazado_773722" data-name="Trazado 773722" d="M115.889,34.662c.595-5.925,1.346-12.2,5.016-16.884,2.153-2.751,5.136-4.71,8.063-6.619,1.273-.831,2.556-1.661,3.86-2.454a7.686,7.686,0,0,1,3.463-2.8C145.012,2.6,154.174.171,163.5.008S182.358,2.07,190.009,7.4c15.456,10.77,20.981,32.116,36.763,42.4,2.263,1.475,4.782,2.779,6.279,5.018a25.013,25.013,0,0,1,2.879,2.709c4.168,4.667,6.21,11.806,3.242,17.315-1.127,2.09-2.866,3.788-4.1,5.818a14.182,14.182,0,0,0-.95,12.619c1.758,4.21,5.615,7.746,5.606,12.308a10.718,10.718,0,0,1-2.047,5.863,16.951,16.951,0,0,1-6.9,5.8,11.864,11.864,0,0,1-2.06,2.552c-4.061,3.765-9.84,4.959-15.344,5.557s-11.2.792-16.239,3.088a65.991,65.991,0,0,1-6.07,2.912c-2.129.717-4.647.8-6.462-.522-2.26-1.65-2.678-4.964-1.867-7.642s2.578-4.941,4.048-7.321a36.921,36.921,0,0,0,4.8-12.219c.515-2.606.767-5.327,2.007-7.676,1.01-1.912,2.919-4.01,4.993-4.232,0-.16,0,.159,0,0a13.046,13.046,0,0,0,8.241-6.624c1.539-3.29,1.107-7.569-1.489-10.109s-10.392-3.335-12.268-.225l-1.416,2.349c-1.542-1.23-1.967-3.21-2.319-5.222-.146-.838-.28-1.682-.477-2.48-1.592-6.461-8.069-10.684-14.577-12.069s-13.251-.584-19.905-.614-13.732-1.087-18.76-5.443c-2-1.735-3.591-3.924-5.694-5.535s-5.029-2.575-7.407-1.408a4.346,4.346,0,0,1-6.126-1.981c-1-2.411-.761-5.132-.5-7.729" transform="translate(11.979 0)" fill="#c44643"/>
              <g id="Grupo_1044101" data-name="Grupo 1044101" transform="translate(194.556 54.348)" opacity="0.29" style="mix-blend-mode: multiply;isolation: isolate">
                <g id="Grupo_1044100" data-name="Grupo 1044100" transform="translate(0)">
                  <g id="Grupo_1044099" data-name="Grupo 1044099" clip-path="url(#clip-path-23)">
                    <path id="Trazado_773723" data-name="Trazado 773723" d="M121.912,137.007a56.115,56.115,0,0,0,5.07-5.646,29.247,29.247,0,0,1,19.32-9.538c4.894-.377,10.631.18,13.847-3.528,1.925-2.219,2.294-5.394,2.1-8.326-.272-4.176-1.5-8.239-1.908-12.4s.119-8.707,2.866-11.866c1.443-1.659,3.4-2.82,4.791-4.521a9.7,9.7,0,0,0-2.06-13.647,5.4,5.4,0,0,1-.369-1.454,25.623,25.623,0,0,1,3.445,3.183c4.168,4.667,6.21,11.807,3.242,17.315-1.127,2.091-2.867,3.788-4.1,5.818a14.183,14.183,0,0,0-.95,12.619c1.758,4.21,5.614,7.746,5.605,12.309a10.726,10.726,0,0,1-2.046,5.863,16.957,16.957,0,0,1-6.9,5.8,11.839,11.839,0,0,1-2.06,2.551c-4.061,3.765-9.84,4.958-15.344,5.558s-11.2.792-16.24,3.088a65.881,65.881,0,0,1-6.069,2.912c-2.129.717-4.647.8-6.462-.522a5.476,5.476,0,0,1-2.031-3.246,8.7,8.7,0,0,0,6.251-2.319" transform="translate(-115.66 -66.077)" fill="#c44643"/>
                  </g>
                </g>
              </g>
            </g>
          </g>
          <g id="Grupo_1044117" data-name="Grupo 1044117" transform="translate(127.641 3.556)">
            <g id="Grupo_1044116" data-name="Grupo 1044116" transform="translate(0)" clip-path="url(#clip-path-24)">
              <g id="Grupo_1044106" data-name="Grupo 1044106" transform="translate(5.07 28.845)" style="mix-blend-mode: multiply;isolation: isolate">
                <g id="Grupo_1044105" data-name="Grupo 1044105" transform="translate(0)">
                  <g id="Grupo_1044104" data-name="Grupo 1044104" transform="translate(0)" clip-path="url(#clip-path-25)">
                    <path id="Trazado_773724" data-name="Trazado 773724" d="M168.279,50.724c1.4-3.486,3.031-7.107,6.089-9.286s7.96-2.205,10.057.909c.913,1.356,1.153,3.039,1.712,4.575,2.14,5.892,8.793,9.022,15.048,9.443s12.442-1.223,18.68-1.838,13.094.009,17.783,4.169c4.849,4.3,6.189,14.237,6.788,20.694" transform="translate(-167.868 -39.483)" fill="none" stroke="#c44643" stroke-linecap="round" stroke-linejoin="round" stroke-width="1"/>
                  </g>
                </g>
              </g>
              <g id="Grupo_1044109" data-name="Grupo 1044109" transform="translate(4.617 33.797)" style="mix-blend-mode: multiply;isolation: isolate">
                <g id="Grupo_1044108" data-name="Grupo 1044108">
                  <g id="Grupo_1044107" data-name="Grupo 1044107" clip-path="url(#clip-path-26)">
                    <path id="Trazado_773725" data-name="Trazado 773725" d="M168.28,52.534c.595-3.069,2.473-6.509,5.6-6.616a6.192,6.192,0,0,1,4.724,2.576c1.181,1.435,2.009,3.131,3.147,4.6,4.569,5.9,13.009,6.972,20.459,6.595s15.234-1.677,22.137,1.148a20,20,0,0,1,11.842,14.45c.67,3.472,5.627,3.426,8.7,5.171" transform="translate(-167.869 -45.504)" fill="none" stroke="#c44643" stroke-linecap="round" stroke-linejoin="round" stroke-width="1"/>
                  </g>
                </g>
              </g>
              <g id="Grupo_1044112" data-name="Grupo 1044112" transform="translate(2.381 12.371)" style="mix-blend-mode: multiply;isolation: isolate">
                <g id="Grupo_1044111" data-name="Grupo 1044111">
                  <g id="Grupo_1044110" data-name="Grupo 1044110" clip-path="url(#clip-path-27)">
                    <path id="Trazado_773726" data-name="Trazado 773726" d="M134.346,48.44A19.27,19.27,0,0,1,147.916,20.1a11.48,11.48,0,0,1,5.892.325c2.708,1,4.657,3.324,6.833,5.22,6.97,6.072,16.551,7.868,25.543,10.016s18.545,5.354,23.773,12.977c3.024,4.41,4.288,9.918,7.725,14.015,5.475,6.527,15.394,8.243,20.287,15.215,3.713,5.289,3.5,12.824.049,18.288-3,4.761-7.986,7.892-13,10.461s-10.286,4.783-14.616,8.38-7.664,8.972-7.125,14.575a7.78,7.78,0,0,1,.045,2.635,3.118,3.118,0,0,1-5.217,1.063" transform="translate(-131.552 -19.454)" fill="none" stroke="#c44643" stroke-linecap="round" stroke-linejoin="round" stroke-width="1"/>
                  </g>
                </g>
              </g>
              <g id="Grupo_1044115" data-name="Grupo 1044115" transform="translate(0.941 6.15)" style="mix-blend-mode: multiply;isolation: isolate">
                <g id="Grupo_1044114" data-name="Grupo 1044114" transform="translate(0)">
                  <g id="Grupo_1044113" data-name="Grupo 1044113" transform="translate(0)" clip-path="url(#clip-path-28)">
                    <path id="Trazado_773727" data-name="Trazado 773727" d="M123.8,47.431c-3.492-8.358-4.951-18.679.452-25.949,2.767-3.723,7-6.123,11.386-7.625,4.883-1.672,10.386-2.32,15.131-.29a35.641,35.641,0,0,1,7.2,4.774,78.04,78.04,0,0,0,25.922,12.87c4.761,1.337,9.866,2.326,13.618,5.549,2.8,2.4,4.52,5.79,6.276,9.034,3.764,6.951,8.359,13.986,15.456,17.465,3.481,1.706,7.361,2.444,10.9,4.028s6.919,4.372,7.585,8.191c.6,3.46-1.129,6.841-1.968,10.252a20.579,20.579,0,0,0,1.21,13.245c1.466,3.255,3.855,6.588,2.944,10.04-1.052,3.981-5.811,5.551-9.894,6.082-4.468.581-9.1.725-13.215,2.554s-7.665,5.949-7.093,10.418" transform="translate(-120.267 -11.89)" fill="none" stroke="#c44643" stroke-linecap="round" stroke-linejoin="round" stroke-width="1"/>
                  </g>
                </g>
              </g>
            </g>
          </g>
          <g id="Grupo_1044122" data-name="Grupo 1044122">
            <g id="Grupo_1044121" data-name="Grupo 1044121" clip-path="url(#clip-path)">
              <g id="Grupo_1044120" data-name="Grupo 1044120" transform="translate(133.454 42.574)" opacity="0.29" style="mix-blend-mode: multiply;isolation: isolate">
                <g id="Grupo_1044119" data-name="Grupo 1044119" transform="translate(0)">
                  <g id="Grupo_1044118" data-name="Grupo 1044118" transform="translate(0)" clip-path="url(#clip-path-30)">
                    <path id="Trazado_773729" data-name="Trazado 773729" d="M173.424,53.738a7.8,7.8,0,0,1,9.994-.319c1.123.934,1.948,2.171,2.983,3.2,4.031,4.015,10.36,4.267,16.05,4.269l12.345,0c4.768,0,9.6.011,14.2,1.281s9,3.978,11.258,8.179c1.9,3.533,2.109,7.727,3.589,11.454a8.608,8.608,0,0,0,1.17,2.157c0,.007-.011.012-.015.019l-.082.137a3.81,3.81,0,0,0-.77,1.277l-.564.935c-2.185-1.742-2.128-4.989-2.8-7.7-1.592-6.461-8.069-10.684-14.576-12.069s-13.252-.584-19.906-.614-13.732-1.087-18.76-5.443c-2-1.735-3.59-3.924-5.693-5.535s-5.03-2.575-7.407-1.408a5.293,5.293,0,0,1-1.041.372c.009-.063.012-.129.023-.192" transform="translate(-173.401 -51.762)" fill="#c44643"/>
                  </g>
                </g>
              </g>
              <path id="Trazado_773730" data-name="Trazado 773730" d="M69.577,305.391c.954-5.925,5.412-10.747,10.447-14.012s10.746-5.322,16.047-8.134c3.536-1.875,6.985-4.18,9.215-7.5s3.015-7.855,1.087-11.362c-.887-1.613-2.267-2.9-3.228-4.472-3.742-6.1-.25-14.294-2.583-21.063a12.7,12.7,0,0,0-21.392-4.414c-4.107,4.509-4.617,11.507-8.876,15.873-4.184,4.292-10.918,4.973-15.635,8.671-6.008,4.71-7.472,13.352-6.341,20.9s4.343,14.633,5.957,22.1a53.393,53.393,0,0,1-.081,22.865c5.858-4.617,14.2-12.082,15.383-19.446" transform="translate(200.768 -40.879)" fill="#ff7a40"/>
              <path id="Trazado_773731" data-name="Trazado 773731" d="M122.2,335.618a53.824,53.824,0,0,0,4.832-28.75c-.475-4.324-2.206-9.373-6.438-10.376-4.017-.952-7.783,2.437-9.839,6.017-3.677,6.4-4.543,14.023-4.673,21.4s.4,14.823-.8,22.107c3.973-1.884,7.778-3.328,11.752-5.212a12.249,12.249,0,0,0,5.169-5.19" transform="translate(133.755 -52.6)" fill="#d45a40"/>
            </g>
          </g>
          <g id="Grupo_1044124" data-name="Grupo 1044124" transform="translate(248.736 189.417)">
            <g id="Grupo_1044123" data-name="Grupo 1044123" transform="translate(0)" clip-path="url(#clip-path-31)">
              <path id="Trazado_773732" data-name="Trazado 773732" d="M93.524,255.9l.739.361a5.877,5.877,0,0,1-5.112,3,6.126,6.126,0,0,1-2.579-.55A9.373,9.373,0,0,1,81.8,252.2l.8-.194a8.562,8.562,0,0,0,4.319,5.956c2.107.986,5.511.164,6.6-2.067" transform="translate(-62.594 -234.15)" fill="#c44643"/>
              <path id="Trazado_773733" data-name="Trazado 773733" d="M55.066,281.512l-.219-.266a49.778,49.778,0,0,1-6.865-10.171c-1.384-2.943-3.591-8.555-2.82-13.078l.81.138c-.732,4.3,1.411,9.734,2.755,12.59a38.173,38.173,0,0,0,3.858,6.3.387.387,0,0,0,.33.083c.629-.124,1.61-1.343,2.559-3.181,3.189-6.177,2.072-15.3-.6-20.752l.739-.362c2.759,5.63,3.9,15.076.591,21.492-.753,1.458-1.87,3.214-2.988,3.56.744.978,1.507,1.931,2.266,2.855l.219.266c3.164,3.849,6.162,7.481,10.813,7.907a239.806,239.806,0,0,0,12.038-36.039,4.1,4.1,0,0,1-2.193.555,10.475,10.475,0,0,1-2.837-.48,8.552,8.552,0,0,1-3.868-2.59c-.172-.177-.35-.37-.547-.572-3.714-3.833-5.62-7.276-6-10.836l.818-.086c.36,3.368,2.2,6.657,5.774,10.351.2.2.381.4.554.579a6.688,6.688,0,0,0,3.5,2.365c2.664.773,4.3.529,5.148-.764q.983-4.281,1.745-8.621c-3.6-2.239-5.425-6.654-4.876-11.891l.818.085c-.5,4.776,1.069,8.807,4.214,10.93q.786-4.643,1.291-9.355c.1-.972.254-1.86.4-2.72.176-1.035.343-2.013.433-3.129l.821.066c-.094,1.153-.271,2.194-.443,3.2-.144.846-.294,1.721-.394,2.669a168.324,168.324,0,0,1-5.7,28.6c8.088-1.036,15.68-7.509,17.37-14.881l.8.183c-1.786,7.79-9.872,14.626-18.406,15.565l0-.036c-1.5,5.155-3.193,10.25-5.044,15.293a24.748,24.748,0,0,0,15.607,1.7c-1.144-1.554-.832-3.83.948-6.788A19.129,19.129,0,0,1,99.99,263.67l.206.8a18.306,18.306,0,0,0-11.012,8.213c-1.729,2.872-1.963,4.883-.744,6.152a22.357,22.357,0,0,0,12.777-8.959l.679.462a23.177,23.177,0,0,1-13.5,9.359,26.141,26.141,0,0,1-6.17.721,24.128,24.128,0,0,1-10.592-2.3c-5.952,16.066-13.411,31.608-20.743,46.877l-.742-.356c5.5-11.46,11.077-23.073,16.03-34.943-4.852-.57-8.036-4.431-11.116-8.179" transform="translate(-39.959 -229.654)" fill="#c44643"/>
            </g>
          </g>
          <g id="Grupo_1044126" data-name="Grupo 1044126" transform="translate(239.031 243.731)">
            <g id="Grupo_1044125" data-name="Grupo 1044125" transform="translate(0)" clip-path="url(#clip-path-32)">
              <path id="Trazado_773735" data-name="Trazado 773735" d="M103.751,318.822a12.525,12.525,0,0,0,3.518,4.327,9.852,9.852,0,0,0,1.543.949l.039-.2a.174.174,0,0,0-.141.031.448.448,0,0,0,.072-.156c1.061-3.829-1.105-7.723-2.491-9.7-.424-.607-.947-1.232-1.6-1.277l.055-.821a3.221,3.221,0,0,1,2.224,1.626c1.468,2.1,3.76,6.242,2.61,10.4a1.269,1.269,0,0,1-.174.369,8.542,8.542,0,0,0,3,.672,4.606,4.606,0,0,0,2.537-.568,129.961,129.961,0,0,0,1.573-14.381,3.739,3.739,0,0,1-2.051.514l-.174,0a12.155,12.155,0,0,1-6.989-2.476,5.924,5.924,0,0,1-1.76-1.954l.73-.378a5.146,5.146,0,0,0,1.529,1.678,11.324,11.324,0,0,0,6.513,2.307c.546.02,1.855-.041,2.2-.887l.068.027a130.521,130.521,0,0,0-.327-16.662l.819-.069q.421,5.019.449,10.03a4.568,4.568,0,0,0,2.407-2.08,13.816,13.816,0,0,0,1.32-3.677l.8.2a14.429,14.429,0,0,1-1.41,3.895,5.271,5.271,0,0,1-3.1,2.505q0,6.443-.628,12.846a5.025,5.025,0,0,0,4.562.07,10.476,10.476,0,0,0,3.362-3.334l1.772-2.39.661.49-1.772,2.39a11.1,11.1,0,0,1-3.653,3.578,5.731,5.731,0,0,1-2.585.605,5.888,5.888,0,0,1-2.434-.525q-.416,3.964-1.076,7.9l.11.127c-.048.041-.1.074-.149.113q-.378,2.236-.836,4.46c.718-.377,1.441-.741,2.152-1.089,1.076-.527,2.188-1.073,3.239-1.674a14.119,14.119,0,0,0,5.177-4.581l.7.435a14.884,14.884,0,0,1-5.467,4.858c-1.073.614-2.2,1.166-3.284,1.7-.9.443-1.832.906-2.729,1.4q-.613,2.878-1.355,5.735a22.047,22.047,0,0,1-2.816,7.043l-.679-.464a21.363,21.363,0,0,0,2.7-6.786q.777-2.982,1.4-5.987l-.033-.058c.016-.01.034-.018.051-.027q.464-2.208.854-4.428a5.78,5.78,0,0,1-2.166.392c-.079,0-.155,0-.229,0a9.929,9.929,0,0,1-5.6-2.058,13.354,13.354,0,0,1-3.756-4.61Z" transform="translate(-103.328 -295.596)" fill="#ffdfca"/>
            </g>
          </g>
          <g id="Grupo_1044128" data-name="Grupo 1044128">
            <g id="Grupo_1044127" data-name="Grupo 1044127" clip-path="url(#clip-path)">
              <path id="Trazado_773737" data-name="Trazado 773737" d="M49.885,266.869a73.224,73.224,0,0,0-.346-7.59,10.8,10.8,0,0,1-9.509-5.587,22,22,0,0,1,5.711,2.121,28.33,28.33,0,0,1,3.661,2.2q-.225-1.963-.549-3.909a13.21,13.21,0,0,1-4.716-2.135,10.739,10.739,0,0,1-4.441-5.315,35.012,35.012,0,0,1,5.864,3.209,22.648,22.648,0,0,1,2.955,2.354q-.35-1.828-.784-3.64a7.7,7.7,0,0,1-6.595-7.03,27.48,27.48,0,0,1,4.247,3.228c.633.577,1.234,1.122,1.814,1.7q-.582-2.183-1.278-4.335a7.521,7.521,0,0,1-5.859-6.964,12.778,12.778,0,0,1,3.862,2.979c.386.432.746.859,1.081,1.3-.378-1.055-.771-2.106-1.189-3.149-.081-.2-.164-.4-.246-.605a10.1,10.1,0,0,1-6.948-7.141,25.647,25.647,0,0,1,5.045,3.3l.418.345c-.468-1.039-.954-2.066-1.473-3.073a3.6,3.6,0,0,1-3.955-3.464,5.359,5.359,0,0,1,2.194.338c-.5-.807-1.026-1.592-1.582-2.362a4.7,4.7,0,0,1-5.373-3.081,6.736,6.736,0,0,1,3.167.26c-.563-.667-1.143-1.323-1.735-1.97a2.822,2.822,0,0,1-4.241-1.784,4.412,4.412,0,0,1,2.16-.414c-.711-.725-1.434-1.444-2.163-2.159-1.3,1.206-2.863.656-3.108-1.159a2.371,2.371,0,0,1,1.208-.7q-.722-.7-1.443-1.4c.514.329,1.026.668,1.538,1.011a3.655,3.655,0,0,1,.215-1.236,1.889,1.889,0,0,1,2.119,2.862c.353.257.706.516,1.054.78a8.037,8.037,0,0,1-.435-2.046,5.585,5.585,0,0,1,4.411,5.34c.682.62,1.348,1.258,1.992,1.915a17.377,17.377,0,0,1-.551-1.966,9.924,9.924,0,0,1-.206-2.272,4.528,4.528,0,0,1,1.986,1.359,5.912,5.912,0,0,1,1.231,5.622q.8.977,1.531,2.006a10.651,10.651,0,0,1,.3-2.521,5.4,5.4,0,0,1,2.082,6.415q.734,1.4,1.416,2.84a26.577,26.577,0,0,1-.029-5.153,9.456,9.456,0,0,1,2.084,9.946q.474,1.226.9,2.472a19.326,19.326,0,0,1,.221-2.04,12.765,12.765,0,0,1,1.619-4.6,7.522,7.522,0,0,1-1.082,8.981q.766,2.525,1.324,5.1c.318-2.234.711-4.5,1-6.591.183-1.155.356-2.328.672-3.6a9.059,9.059,0,0,1,1.328,3.583A12.061,12.061,0,0,1,50,248.907c.229,1.383.41,2.773.535,4.167.44-1.165.936-2.277,1.444-3.453a39.6,39.6,0,0,1,2.912-5.627,10.259,10.259,0,0,1-4.221,11.018q.091,1.7.072,3.391c1.038-1.781,2.063-3.437,3.019-5.27,1.221-2.26,2.151-4.444,3.353-6.811,1.355,5.032-1.643,11-6.393,13.1a46.625,46.625,0,0,1-.841,7.448" transform="translate(269.072 -37.444)" fill="#d45a40"/>
              <path id="Trazado_773738" data-name="Trazado 773738" d="M336.365,262.381l.83,0a15.078,15.078,0,0,0,.276,3.594,4.741,4.741,0,0,0,1.771,2.831,4.03,4.03,0,0,0,4.685-.045,12.192,12.192,0,0,1-.12-4.478l.821.128c-.555,3.52.481,6.9,2.7,8.807a4.393,4.393,0,0,0,3.042,1.186,2.1,2.1,0,0,0,2.119-1.552l.1.034q.444-2.261.932-4.512a2.4,2.4,0,0,1-1.659-.738,4.97,4.97,0,0,1-1.034-1.989,23.539,23.539,0,0,1-1.1-7.66,2.306,2.306,0,0,1-.4.1,2.642,2.642,0,0,1-.926-.043,3.425,3.425,0,0,1-2.155-1.57,7.107,7.107,0,0,1-.6-4.234l.827.071a6.38,6.38,0,0,0,.487,3.745,2.574,2.574,0,0,0,1.616,1.178,1.6,1.6,0,0,0,1.189-.173,23.547,23.547,0,0,1,.579-4l.809.193a22.709,22.709,0,0,0,.456,12.136,4.261,4.261,0,0,0,.843,1.666,1.48,1.48,0,0,0,1.246.465c.206-.937.4-1.877.62-2.81l.808.189c-.385,1.644-.743,3.295-1.091,4.948a.548.548,0,0,0,.265.085,8.893,8.893,0,0,0,7.047-2.654,8.655,8.655,0,0,0,1.254-1.67,4.78,4.78,0,0,1-1.817-4.776l.81.183a3.932,3.932,0,0,0,1.4,3.854,8.866,8.866,0,0,0,.774-4.721l.826-.095a9.632,9.632,0,0,1-8.311,10.651,9.549,9.549,0,0,1-2.05.057,1.541,1.541,0,0,1-.379-.087c-.258,1.244-.489,2.495-.726,3.744a2.192,2.192,0,0,0,1.346,1.434,5.233,5.233,0,0,0,2.226.271,12.8,12.8,0,0,0,11.095-8.539l.79.257a12.67,12.67,0,0,1-1.351,2.846,3.344,3.344,0,0,0,2.889.393,5.992,5.992,0,0,0,2.885-2.188.628.628,0,0,0,.189-.43.12.12,0,0,0,.107,0l-.345-.755a.7.7,0,0,1,.673.052.889.889,0,0,1,.416.7,1.445,1.445,0,0,1-.385.945,6.8,6.8,0,0,1-3.3,2.472,4.362,4.362,0,0,1-.7.155,4.1,4.1,0,0,1-2.893-.657,13.587,13.587,0,0,1-9.042,5.487q-.489.067-.984.094a6,6,0,0,1-2.59-.332,3.3,3.3,0,0,1-1.275-.931,230.19,230.19,0,0,0-3.753,36.358l-.831-.019a231.091,231.091,0,0,1,3.945-37.411,3.162,3.162,0,0,1-1.514.577c-.1.013-.2.024-.3.032a5.081,5.081,0,0,1-3.65-1.383,8.937,8.937,0,0,1-2.655-4.239,5.342,5.342,0,0,1-1.981.711,4.758,4.758,0,0,1-3.385-.832,5.551,5.551,0,0,1-2.106-3.316,15.64,15.64,0,0,1-.3-3.795m17.7,7.6a.151.151,0,0,0-.025-.123c-.007.037-.016.074-.025.111Z" transform="translate(-303.028 -44.775)" fill="#d45a40"/>
              <path id="Trazado_773739" data-name="Trazado 773739" d="M333.83,269.93a2.2,2.2,0,1,0,1.883-2.477,2.2,2.2,0,0,0-1.883,2.477" transform="translate(-265.079 -47.47)" fill="#ffb799"/>
              <path id="Trazado_773740" data-name="Trazado 773740" d="M344.785,259.722a2.2,2.2,0,1,0,1.883-2.477,2.2,2.2,0,0,0-1.883,2.477" transform="translate(-285.045 -45.658)" fill="#ffb799"/>
              <path id="Trazado_773741" data-name="Trazado 773741" d="M350.919,263.166a1.1,1.1,0,1,0,.942-1.239,1.1,1.1,0,0,0-.942,1.239" transform="translate(-294.043 -46.492)" fill="#ffb799"/>
              <path id="Trazado_773742" data-name="Trazado 773742" d="M342.024,270.955a1.1,1.1,0,1,0,.942-1.239,1.1,1.1,0,0,0-.942,1.239" transform="translate(-277.832 -47.874)" fill="#ffb799"/>
              <path id="Trazado_773743" data-name="Trazado 773743" d="M380.183,264.456a1.1,1.1,0,1,0,.942-1.239,1.1,1.1,0,0,0-.942,1.239" transform="translate(-347.376 -46.72)" fill="#ffb799"/>
              <path id="Trazado_773744" data-name="Trazado 773744" d="M369.444,252.25a1.1,1.1,0,1,0,.942-1.239,1.1,1.1,0,0,0-.942,1.239" transform="translate(-327.804 -44.554)" fill="#ffb799"/>
              <path id="Trazado_773745" data-name="Trazado 773745" d="M358.533,267.437a1.1,1.1,0,1,0,.942-1.239,1.1,1.1,0,0,0-.942,1.239" transform="translate(-307.919 -47.25)" fill="#ffb799"/>
              <path id="Trazado_773746" data-name="Trazado 773746" d="M368.318,265.631a2.2,2.2,0,1,0,1.883-2.477,2.2,2.2,0,0,0-1.883,2.477" transform="translate(-327.933 -46.707)" fill="#ffb799"/>
              <path id="Trazado_773747" data-name="Trazado 773747" d="M362.208,251.356a2.2,2.2,0,1,0,1.883-2.477,2.2,2.2,0,0,0-1.883,2.477" transform="translate(-316.798 -44.173)" fill="#ffb799"/>
              <path id="Trazado_773748" data-name="Trazado 773748" d="M350.278,337.384s-16.828,16.3-36.446,13.262c-3.013-.466-4.568-3.907-5.135-6.9a17.886,17.886,0,0,1,1.06-8.981c.98-2.888,2.292-5.66,3.117-8.6a27.229,27.229,0,0,0,.687-11.522c-.544-3.486-1.763-6.837-2.365-10.314s-.519-7.268,1.353-10.259a8.043,8.043,0,0,1,4.71-3.594,6.043,6.043,0,0,1,5.641,1.393c1.305,1.281,1.912,3.207,3.4,4.271a5.818,5.818,0,0,0,5.549.236,30.289,30.289,0,0,0,4.9-3.084,26.307,26.307,0,0,1,6.785-3.236,8.735,8.735,0,0,1,4.233-.465c2.806.549,4.658,3.267,5.623,5.958a13.723,13.723,0,0,1,.882,5.945c-.551,5.553-5.314,9.552-8.809,13.9a9.816,9.816,0,0,0-2.506,5.215c-.3,4.134,7.487,12.63,7.319,16.772" transform="translate(-260.366 -51.386)" fill="#ff7a40"/>
            </g>
          </g>
          <g id="Grupo_1044130" data-name="Grupo 1044130" transform="translate(48.12 238.103)">
            <g id="Grupo_1044129" data-name="Grupo 1044129" transform="translate(0)" clip-path="url(#clip-path-34)">
              <path id="Trazado_773749" data-name="Trazado 773749" d="M306.069,325.038l.489-.375a74.056,74.056,0,0,0,7.336,8.6,15.519,15.519,0,0,0-3.169-11.814l.482-.383a16.131,16.131,0,0,1,3.223,12.707,13.2,13.2,0,0,0,4.694,3,13.484,13.484,0,0,0,6.587.157q1.118-5.693,1.927-11.431c-4.58-.433-9.191-3.153-12.738-7.546-3.307-4.1-5.373-8.992-7.37-13.727l.568-.239c1.98,4.7,4.028,9.551,7.281,13.579,3.447,4.271,7.916,6.911,12.337,7.322q.882-6.481,1.355-13.009a26.882,26.882,0,0,1-6.281-4.217,11.338,11.338,0,0,1-2.568.3,11.471,11.471,0,0,1-5.911-1.638,11.8,11.8,0,0,1-5.317-7.254l.641-.163a11.126,11.126,0,0,0,5.012,6.839,10.82,10.82,0,0,0,7.532,1.353c-.626-.6-1.226-1.224-1.789-1.879a48.056,48.056,0,0,1-6.019-9.631c-2.1-4.11-4.1-8.331-5.967-12.547l.563-.249c1.859,4.205,3.861,8.417,5.952,12.516.993,1.945,2.049,3.948,3.269,5.864a18.941,18.941,0,0,0-.093-16.17l.553-.271a19.553,19.553,0,0,1-.067,17.043,30.868,30.868,0,0,0,2.277,3.046,25.8,25.8,0,0,0,2.054,2.125l.045-.01.016.064a26.237,26.237,0,0,0,6.143,4.213,208.909,208.909,0,0,0,.276-24.333l.615-.029q.438,9.257.052,18.472a46.837,46.837,0,0,0,5.24-5.286,22.667,22.667,0,0,1-.178-11.856l.6.153a22.057,22.057,0,0,0,.063,11.119,47.025,47.025,0,0,0,7.019-11.692c1.816-4.366,2.271-7.774,1.434-10.727l.592-.169c.878,3.093.415,6.63-1.457,11.133a47.525,47.525,0,0,1-4.815,8.8,13.841,13.841,0,0,0,15.76-7.421l.563.249a14.361,14.361,0,0,1-12.977,8.249,13.014,13.014,0,0,1-3.712-.533l.017-.056a47.621,47.621,0,0,1-8.185,8.876q-.3,6.679-1.026,13.32a38.139,38.139,0,0,0,6.985-2.47c.12-4.074,2.358-8.251,6.177-11.5,3.468-2.945,7.659-4.81,11.713-6.614l.25.563c-4.014,1.785-8.164,3.632-11.564,6.52-3.588,3.048-5.729,6.931-5.947,10.733a38.608,38.608,0,0,0,11.572-8.643l.455.415a39.317,39.317,0,0,1-19.71,11.644q-1.135,10.075-3.247,20.02l10.062-7.365a3.509,3.509,0,0,1-.391-2.889,8.363,8.363,0,0,1,1.555-2.787,44,44,0,0,1,6.058-6.469l.4.464a43.463,43.463,0,0,0-5.973,6.378,7.731,7.731,0,0,0-1.449,2.574,2.938,2.938,0,0,0,.3,2.363l12.292-9,.364.5-23.412,17.138q-1.552,7.152-3.6,14.215l-.591-.172q2.533-8.7,4.293-17.539a22.316,22.316,0,0,1-3.283.31,10.8,10.8,0,0,1-3.366-.521,13.939,13.939,0,0,1-5.01-3.212l-.183-.037c.008-.038.013-.077.021-.114a71.926,71.926,0,0,1-7.7-8.954" transform="translate(-307.051 -287.247)" fill="#f8ebe0"/>
            </g>
          </g>
          <g id="Grupo_1044132" data-name="Grupo 1044132">
            <g id="Grupo_1044131" data-name="Grupo 1044131" clip-path="url(#clip-path)">
              <path id="Trazado_773751" data-name="Trazado 773751" d="M396.632,350.34s-15.067,5.155-31.234-6.614,6.648-48.459,6.648-48.459,25.17,15.71,24.586,55.073" transform="translate(-344.729 -52.411)" fill="#d45a40"/>
              <path id="Trazado_773752" data-name="Trazado 773752" d="M396.632,350.34s-15.067,5.155-31.234-6.614,6.648-48.459,6.648-48.459,25.17,15.71,24.586,55.073" transform="translate(-344.729 -52.411)" fill="#d45a40"/>
            </g>
          </g>
          <g id="Grupo_1044134" data-name="Grupo 1044134" transform="translate(14.877 242.855)">
            <g id="Grupo_1044133" data-name="Grupo 1044133" transform="translate(0)" clip-path="url(#clip-path-36)">
              <path id="Trazado_773753" data-name="Trazado 773753" d="M381.888,319.818q-.8-4.429-1.847-8.809a6.591,6.591,0,0,1-3.519.531,13.751,13.751,0,0,1-4.444-1.358c-3.374-1.619-5.312-3.742-5.606-6.138l.817-.1c.325,2.659,2.977,4.457,5.146,5.5,2.138,1.026,5.1,1.948,7.4.753a159.858,159.858,0,0,0-6.635-20.885l.765-.3a160.474,160.474,0,0,1,5.483,16.431c1.643-.441,2.323-2.553,2.579-3.811a22.2,22.2,0,0,0,.43-5.3l.822-.032a23.04,23.04,0,0,1-.446,5.5c-.3,1.447-1.1,3.893-3.161,4.448q1.789,6.617,3.01,13.367c1.806.66,3.894-.616,4.534-1.059a12.53,12.53,0,0,0,2.062-1.8,10.953,10.953,0,0,1,.813-11.124l.669.479a10.12,10.12,0,0,0-.9,9.958,13.216,13.216,0,0,0,2.933-7.362l-.268-.3,1.142-1.025-.032.963a14.047,14.047,0,0,1-3.354,8.523c.061.1-.065-.1,0,0l-.554.677-.024-.038a13.26,13.26,0,0,1-2.017,1.723,6.686,6.686,0,0,1-4.347,1.368,4.273,4.273,0,0,1-.485-.081q1.381,7.85,1.983,15.808a11.635,11.635,0,0,0,7.649-2.454c.406-.294.794-.611,1.172-.937a3.385,3.385,0,0,1-.771-2.25,22.54,22.54,0,0,1,2.993-12.12l.711.414a21.714,21.714,0,0,0-2.882,11.671,2.87,2.87,0,0,0,.557,1.722,18.19,18.19,0,0,0,5.381-9.8l.809.151a19.034,19.034,0,0,1-5.924,10.535l-.028.146c-.032-.007-.06-.021-.091-.029a18.335,18.335,0,0,1-1.444,1.162,12.477,12.477,0,0,1-8.074,2.624q.3,4.277.388,8.565a13.56,13.56,0,0,0,15.613-5.9,1.792,1.792,0,0,0,.355-.97.562.562,0,0,0-.183-.374.222.222,0,0,0-.174-.068l-.081-.818a1.056,1.056,0,0,1,.791.262,1.382,1.382,0,0,1,.468.954,2.539,2.539,0,0,1-.475,1.442,14.378,14.378,0,0,1-13.747,6.831,14.281,14.281,0,0,1-2.559-.51,160.316,160.316,0,0,1-.662,17.027l-.819-.077a159.933,159.933,0,0,0,.507-22.177,25.051,25.051,0,0,1-6.237.531,4.291,4.291,0,0,1-3.232,3.787,6.805,6.805,0,0,1-2.56.189,12.546,12.546,0,0,1-2.493-.546l.246-.785a7.938,7.938,0,0,0,4.58.35,3.5,3.5,0,0,0,2.641-3.046c-.276-.019-.554-.023-.829-.051a27.136,27.136,0,0,1-18.862-10.431l.66-.492a25.667,25.667,0,0,0,12,8.685,12.092,12.092,0,0,0-8.163-6.969l.191-.8a12.9,12.9,0,0,1,8.98,8.1,25.465,25.465,0,0,0,13.041.647q-.307-6.055-1.077-12.073a17.476,17.476,0,0,1-9.622,1.8,16.666,16.666,0,0,1-3.478-.725,17.4,17.4,0,0,1-10.368-9.307l.751-.336a16.573,16.573,0,0,0,8.813,8.454,3.743,3.743,0,0,0,.335-1.029,6.619,6.619,0,0,0-.378-2.99,20.059,20.059,0,0,0-2.305-4.912c-1.254-1.939-2.613-3.007-4.043-3.173l.095-.817c1.684.2,3.246,1.388,4.639,3.542a20.966,20.966,0,0,1,2.4,5.113,7.474,7.474,0,0,1,.4,3.368,4.532,4.532,0,0,1-.382,1.192c.1.034.192.08.291.112a16.564,16.564,0,0,0,12.735-1.166q-.489-3.7-1.141-7.385" transform="translate(-363.368 -294.155)" fill="#b53a2d"/>
            </g>
          </g>
        </g>
      </g>
    </g>
    <g id="Grupo_1044138" data-name="Grupo 1044138" transform="translate(1052.982 674.336)" style="isolation: isolate">
      <path id="Trazado_145969-2" data-name="Trazado 145969" d="M13.267,0A13.267,13.267,0,1,1,0,13.267,13.267,13.267,0,0,1,13.267,0Z" transform="translate(0 0)" fill="#4dcbbf"/>
      <path id="Trazado_145969_-_Contorno-2" data-name="Trazado 145969 - Contorno" d="M13.267,0A13.267,13.267,0,1,1,0,13.267,13.267,13.267,0,0,1,13.267,0Z" transform="translate(0 0)" fill="#4dcbbf"/>
    </g>
  </g>
</svg>
