<svg xmlns="http://www.w3.org/2000/svg" width="400" height="186" viewBox="0 0 400 186">
  <g id="Grupo_1043377" data-name="Grupo 1043377" transform="translate(-1020 -15874)">
    <rect id="Rectángulo_355768" data-name="Rectángulo 355768" width="400" height="186" rx="12" transform="translate(1020 15874)" fill="#fff6e2"/>
    <g id="cuidado-de-la-salud" transform="translate(1137 15886.51)">
      <g id="Grupo_1043376" data-name="Grupo 1043376" transform="translate(4 5.5)">
        <g id="Grupo_1043371" data-name="Grupo 1043371" transform="translate(0 86.494)">
          <g id="Grupo_1043370" data-name="Grupo 1043370">
            <g id="Grupo_1043365" data-name="Grupo 1043365" transform="translate(132.503 2.486)">
              <path id="Trazado_772519" data-name="Trazado 772519" d="M83.692,59.017l0,0" transform="translate(-83.687 -59.012)" fill="#fff"/>
            </g>
            <path id="Trazado_772520" data-name="Trazado 772520" d="M145.671,60.328a5.858,5.858,0,0,0-6.565-1.249,30.578,30.578,0,0,0-2.71,1.433,6.3,6.3,0,0,0-3.206-2.632c-1.794-.62-3.846-.316-6.209.933a7.427,7.427,0,0,0-7.8.06c-.673.451-1.924,1.186-3.678,2.167a14.452,14.452,0,0,0-8.477,1.146c-3.257,1.526-13.04,6.1-15.364,7.04-1.9.088-3.833.241-5.752.4-6.808.554-13.236,1.076-17.942-1.46-1.954-1.051-3.715-2.223-5.419-3.356-4.844-3.223-9.42-6.269-15.978-4.391a54.951,54.951,0,0,0-7.782,3.078c-5.226,2.381-10.63,4.844-19.367,4.844a1.006,1.006,0,0,0-1.006,1.006V102.37a1.006,1.006,0,0,0,1.006,1.006H31.22c6.635,0,19.453,3.414,26.811,6.478,5.762,2.4,13.191,2.651,17.81,2.651.685,0,2.98-.017,2.98-.017,3.748,0,18.243-5.015,39.111-20.516,21.746-16.156,27.165-20.845,28.983-25.087a5.848,5.848,0,0,0-1.244-6.558ZM107.346,78.085c-.027-1.54-1.708-4.606-1.738-4.649L127.894,60.6c1.8-.981,3.357-1.252,4.638-.811a4.32,4.32,0,0,1,2.127,1.743ZM120.3,60.549a5.038,5.038,0,0,1,4.475-.514L104.249,71.9c-.076-.068-2.007-1.372-2.1-1.418ZM99.538,69.568c-.219-.05-2.02-.313-2.494-.341l-.086,0c4-1.689,8.652-4.179,11.191-5.361a9.428,9.428,0,0,1,4.345-1.157Zm45.527-3.47c-1.718,4-8.918,9.839-28.334,24.264-20.265,15.052-34.518,20.118-37.91,20.118l-1.144.007c-4.107.033-12.639.11-18.873-2.484-6.676-2.782-19.977-6.635-27.584-6.635H20.432V70.341c8.6-.186,14.217-2.747,19.2-5.015a53.385,53.385,0,0,1,7.5-2.975c5.665-1.613,9.478.92,14.31,4.132,1.743,1.157,3.543,2.356,5.579,3.452,5.228,2.817,12.26,2.246,19.061,1.694,1.954-.158,9.386-.482,10.848-.394.89.052,7.8-.226,8.485,7.868-1.214,4.608-6.37,5.361-18.141,5.361a82.778,82.778,0,0,0-22.99,3.607,1.006,1.006,0,0,0,.313,1.962,1.023,1.023,0,0,0,.313-.05A82.172,82.172,0,0,1,87.27,86.477c10.841,0,17.747-.431,19.817-6.014,3.008-1.408,32.222-19.282,32.81-19.535a3.925,3.925,0,0,1,5.168,5.17Z" transform="translate(5.558 -57.483)"/>
            <g id="Grupo_1043366" data-name="Grupo 1043366" transform="translate(0 7.524)">
              <path id="Trazado_772521" data-name="Trazado 772521" d="M4.605,71.915,4.7,110.472a2.318,2.318,0,0,0,2.311,2.311H27.651a2.318,2.318,0,0,0,2.311-2.311V64.958a2.318,2.318,0,0,0-2.311-2.311H7.008A2.318,2.318,0,0,0,4.7,64.958" transform="translate(-3.599 -61.641)" fill="#fabf40"/>
              <path id="Trazado_772522" data-name="Trazado 772522" d="M28.051,114.191H7.409a3.321,3.321,0,0,1-3.317-3.317L4,72.32A1.009,1.009,0,0,1,5,71.31h0a1.007,1.007,0,0,1,1.006,1L6.1,110.872a1.307,1.307,0,0,0,1.305,1.307H28.051a1.306,1.306,0,0,0,1.305-1.305V65.359a1.306,1.306,0,0,0-1.305-1.305H7.409A1.306,1.306,0,0,0,6.1,65.359a1.006,1.006,0,1,1-2.012,0,3.321,3.321,0,0,1,3.317-3.317H28.051a3.323,3.323,0,0,1,3.319,3.317v45.514a3.321,3.321,0,0,1-3.319,3.317Z" transform="translate(-4 -62.042)"/>
            </g>
            <g id="Grupo_1043367" data-name="Grupo 1043367" transform="translate(8.655 41.981)">
              <path id="Trazado_772523" data-name="Trazado 772523" d="M13.879,91.507a4.069,4.069,0,1,1,4.069-4.069" transform="translate(-8.804 -82.363)" fill="#fff"/>
              <path id="Trazado_772524" data-name="Trazado 772524" d="M14.28,92.914a5.075,5.075,0,1,1,5.075-5.075,1.006,1.006,0,1,1-2.012,0A3.062,3.062,0,1,0,14.28,90.9a1.007,1.007,0,0,1,0,2.014Z" transform="translate(-9.205 -82.764)"/>
            </g>
            <g id="Grupo_1043368" data-name="Grupo 1043368" transform="translate(60.996 56.027)">
              <path id="Trazado_772525" data-name="Trazado 772525" d="M47.143,95.229a.976.976,0,0,1-.274-.038,38.819,38.819,0,0,1-5.6-2.059,1.006,1.006,0,0,1,.838-1.829,36.617,36.617,0,0,0,5.3,1.95,1.006,1.006,0,0,1-.269,1.975Z" transform="translate(-40.683 -91.211)"/>
              <path id="Trazado_772526" data-name="Trazado 772526" d="M53.192,96.681a42.053,42.053,0,0,1-4.539-.243,1.007,1.007,0,0,1,.216-2,42.922,42.922,0,0,0,20.91-3.128,1.006,1.006,0,0,1,.866,1.816A43.763,43.763,0,0,1,53.192,96.681Z" transform="translate(-35.997 -91.212)"/>
            </g>
            <g id="Grupo_1043369" data-name="Grupo 1043369" transform="translate(1.112)">
              <path id="Trazado_772527" data-name="Trazado 772527" d="M19.322,59.529H5.675a1.006,1.006,0,1,1,0-2.012H19.322a1.006,1.006,0,1,1,0,2.012Z" transform="translate(-4.669 -57.517)"/>
              <path id="Trazado_772528" data-name="Trazado 772528" d="M21.106,59.529H17.28a1.006,1.006,0,1,1,0-2.012h3.826a1.006,1.006,0,0,1,0,2.012Z" transform="translate(3.023 -57.517)"/>
            </g>
          </g>
          <path id="Trazado_772529" data-name="Trazado 772529" d="M5.969,63.678H7.963v45.77H5.969Z" transform="translate(-2.695 -53.434)" fill="#fff"/>
        </g>
        <g id="Grupo_1043373" data-name="Grupo 1043373" transform="translate(30.092)">
          <g id="Grupo_1043372" data-name="Grupo 1043372">
            <path id="Trazado_772530" data-name="Trazado 772530" d="M49.777,6.105A26.561,26.561,0,0,0,30.65,14.236a28.394,28.394,0,0,0,.05,39.457S73.323,97.4,73.517,97.6l42.89-43.815a28.08,28.08,0,0,0,7.97-19.736,27.947,27.947,0,0,0-7.93-19.741A26.71,26.71,0,0,0,97.3,6.175C83.559,6.105,74.194,18.006,73.57,18.006s-10.687-11.9-23.793-11.9Z" transform="translate(-21.696 -5.099)" fill="#bae9d9"/>
            <path id="Trazado_772531" data-name="Trazado 772531" d="M73.918,99a1,1,0,0,1-.715-.3c-.195-.2-41.081-42.124-42.822-43.908a29.4,29.4,0,0,1-.05-40.862A27.56,27.56,0,0,1,50.18,5.5c11.154,0,19.957,8.109,23.271,11.162.175.161.353.326.509.467l.422-.411c2.853-2.762,11.52-11.147,23.2-11.147h.125a27.74,27.74,0,0,1,19.86,8.434,28.957,28.957,0,0,1,8.216,20.447,29.08,29.08,0,0,1-8.257,20.436c-1.744,1.783-42.709,43.632-42.894,43.818A1.015,1.015,0,0,1,73.918,99ZM50.178,7.512a25.566,25.566,0,0,0-18.407,7.827,27.392,27.392,0,0,0,.05,38.051c.394.4,36.528,37.458,42.1,43.168,5.61-5.73,42.169-43.078,42.169-43.078a27.084,27.084,0,0,0,7.684-19.034,26.956,26.956,0,0,0-7.644-19.037A25.743,25.743,0,0,0,97.7,7.582H97.58c-10.865,0-18.8,7.682-21.8,10.582-1.044,1.011-1.292,1.25-1.809,1.25s-.742-.219-1.886-1.274C68.93,15.234,60.548,7.512,50.178,7.512Z" transform="translate(-22.097 -5.5)"/>
          </g>
        </g>
        <g id="Grupo_1043374" data-name="Grupo 1043374" transform="translate(36.028 5.078)">
          <path id="Trazado_772532" data-name="Trazado 772532" d="M37.157,50.309a24.914,24.914,0,0,1-.043-34.619A23.357,23.357,0,0,1,51.547,8.672a19.456,19.456,0,0,0-2.125-.118,23.3,23.3,0,0,0-16.781,7.133,24.914,24.914,0,0,0,.043,34.619s37.4,38.349,37.568,38.522C70.275,88.806,37.157,50.309,37.157,50.309Z" transform="translate(-25.667 -8.554)" fill="#fff"/>
        </g>
        <g id="Grupo_1043375" data-name="Grupo 1043375" transform="translate(59.966 24.784)">
          <path id="Trazado_772533" data-name="Trazado 772533" d="M40.668,36.732H56.391V21.009H66.874V36.732H82.6V47.215H66.874V62.938H56.391V47.215H40.668Z" transform="translate(-39.662 -20.005)" fill="#fff"/>
          <path id="Trazado_772534" data-name="Trazado 772534" d="M67.273,64.344H56.791a1.006,1.006,0,0,1-1.006-1.006V48.621H41.069a1.006,1.006,0,0,1-1.006-1.006V37.133a1.006,1.006,0,0,1,1.006-1.006H55.785V21.411a1.006,1.006,0,0,1,1.006-1.006H67.273a1.006,1.006,0,0,1,1.006,1.006V36.127H82.995A1.006,1.006,0,0,1,84,37.133V47.615a1.006,1.006,0,0,1-1.006,1.006H68.279V63.338A1,1,0,0,1,67.273,64.344ZM57.8,62.331h8.469V47.613a1.006,1.006,0,0,1,1.006-1.006H81.989V38.139H67.273a1.006,1.006,0,0,1-1.006-1.006V22.417H57.8V37.133a1.006,1.006,0,0,1-1.006,1.006H42.077v8.469H56.792A1.006,1.006,0,0,1,57.8,47.613Z" transform="translate(-40.063 -20.405)"/>
        </g>
      </g>
      <path id="Trazado_772535" data-name="Trazado 772535" d="M90.15,47.916a1.008,1.008,0,0,1-.92-1.413,30.879,30.879,0,0,0,2.631-12.576A30.483,30.483,0,0,0,83.218,12.4,30.086,30.086,0,0,0,79.4,9.088,1.006,1.006,0,0,1,80.579,7.46a31.888,31.888,0,0,1,4.079,3.532A32.481,32.481,0,0,1,93.874,33.93a32.866,32.866,0,0,1-2.8,13.387,1,1,0,0,1-.921.6Z" transform="translate(49.698 1.171)"/>
      <path id="Trazado_772536" data-name="Trazado 772536" d="M82.335,40.21a1.006,1.006,0,0,1-.72-1.709,30.555,30.555,0,0,0,4.067-5.185,1.007,1.007,0,0,1,1.709,1.064,32.662,32.662,0,0,1-4.337,5.525,1,1,0,0,1-.72.3Z" transform="translate(51.253 18.123)"/>
    </g>
  </g>
</svg>
