<svg xmlns="http://www.w3.org/2000/svg" width="190" height="190.389" viewBox="0 0 190 190.389">
  <g id="Grupo_1043382" data-name="Grupo 1043382" transform="translate(-600 -14315.805)">
    <rect id="Rectángulo_355765" data-name="Rectángulo 355765" width="190" height="187.389" rx="12" transform="translate(600 14315.805)" fill="#fde9bc"/>
    <g id="embarazada" transform="translate(616.339 14344.314)">
      <path id="Trazado_774048" data-name="Trazado 774048" d="M289.2,39.884s-12.264-3.748-22.06-11.189a34.035,34.035,0,0,0-20.6-6.886l-24.191.872-.127,36.606S275.153,65.506,289.2,39.884Z" transform="translate(-205.959 -19.896)" fill="#ffcec7"/>
      <path id="Trazado_774049" data-name="Trazado 774049" d="M45.661,23.123s15.5-3.143,35.831,14.5a27.036,27.036,0,0,0,16.5,6.678A25.4,25.4,0,0,0,112.6,40.6s38.174,11.006,19.87,31.907c0,0,44.418,22.874,41.1,73-3.54,15.273-13.139,26.182-26.809,34.159h-71C65.088,165.035,55.442,90.1,45.661,23.123Z" transform="translate(-29.353 -20.613)" fill="#7aaeed"/>
      <path id="Trazado_774050" data-name="Trazado 774050" d="M81.632,376.907S86.2,392.582,76.4,403.894a23.213,23.213,0,0,1-21.371,7.781,20.049,20.049,0,0,1-6.181-2.091,11.138,11.138,0,0,1-2.167-17.939,9.713,9.713,0,0,1,11.348-1.361l3.11,1.738L59.8,390.577a4.168,4.168,0,0,1,5.2-6.408c3.8,2.294,10.656,4.038,16.627-7.262Z" transform="translate(62.584 -252.017)" fill="#ffcec7"/>
      <path id="Trazado_774051" data-name="Trazado 774051" d="M89.01,290.691c5.707-6.521,14.266,2.038,14.266,2.038s8.56-8.559,14.266-2.038c6.009,6.868-2.935,12.776-2.935,12.776a81.2,81.2,0,0,0-11.331,9.845,81.2,81.2,0,0,0-11.331-9.845S83,297.559,89.01,290.691Z" transform="translate(10.481 -194.058)" fill="#fff"/>
      <g id="Grupo_1044320" data-name="Grupo 1044320" transform="translate(20.467 15.722)">
        <path id="Trazado_774052" data-name="Trazado 774052" d="M229.373,163.668s-15.584,4.071-27.443-6.383a1.371,1.371,0,0,0-2.2,1.455,19.05,19.05,0,0,0,12.72,12.63Z" transform="translate(-158.779 -123.958)" fill="#497fce"/>
        <path id="Trazado_774053" data-name="Trazado 774053" d="M111.42,293.137s-1.108-10.454,6.138-26.015A42.947,42.947,0,0,0,121,242.028a95.162,95.162,0,0,0-5.705-20.278l6.843-1.405,37.532-9.746,40.161-14.1s9.584.05,12.7,8.527c-18.68,1.162-35.407,11.051-47.3,26.715a74.7,74.7,0,0,0-15.1,38.663c-1.225,14.151,2.106,22.733,2.106,22.733Z" transform="translate(-111.356 -149.811)" fill="#497fce"/>
        <path id="Trazado_774054" data-name="Trazado 774054" d="M247.76,61.684l15.965,38.071a11.1,11.1,0,0,0,12.719,6.523l11.973-2.754,6.17,4.848L251.4,129.233,236.885,77.258Z" transform="translate(-236.885 -61.684)" fill="#497fce"/>
      </g>
      <path id="Trazado_774055" data-name="Trazado 774055" d="M81.138,36.347c-.509-7.949,5.28-13.831,14.325-14.132,7.96-.265,13.479,4.633,15.225,14.472l6.749,47.182a8.268,8.268,0,0,0,10.828,6.545c21-7.706,41.653-15.223,54.042-18.366a29.457,29.457,0,0,1,24.5,5.939,9.921,9.921,0,0,1,4.359,6.286,6.464,6.464,0,0,1-7.97,7.619,18.387,18.387,0,0,1-3.172-1.157,20.672,20.672,0,0,0-11.414-1.865c-4.184.554-9.664,2.255-16.2,6.442-12.84,8.226-26.982,18.566-49.679,26.669A20.5,20.5,0,0,1,96.967,110.7c-6.381-15.033-14.2-48.931-15.829-74.356Z" transform="translate(-79.192 -20.155)" fill="#ffcec7"/>
      <path id="Trazado_774056" data-name="Trazado 774056" d="M81.508,293.165a8.972,8.972,0,0,1,2.474-7.273c4.637-5.506,11.755-2.579,15.7.758,3.932-3.333,11.064-6.268,15.7-.758a8.971,8.971,0,0,1,2.473,7.273c-.636,4.713-5.2,7.945-5.745,8.316a80.479,80.479,0,0,0-11.013,9.562,1.9,1.9,0,0,1-2.831,0,80.3,80.3,0,0,0-11.013-9.563C86.708,301.11,82.144,297.877,81.508,293.165Zm3.775-.522c.526,3.321,3.987,5.578,4.2,5.745a91.546,91.546,0,0,1,10.2,8.64,91.576,91.576,0,0,1,10.2-8.64c.023-.017.05-.035.073-.051s3.7-2.509,4.121-5.694a5.279,5.279,0,0,0-1.567-4.242c-3.314-4.213-9.5.13-11.486,2.131a1.908,1.908,0,0,1-2.691,0c-1.977-2-8.173-6.351-11.487-2.133a5.277,5.277,0,0,0-1.566,4.241Z" transform="translate(14.076 -190.513)" fill="#2b2b38"/>
      <path id="Trazado_774057" data-name="Trazado 774057" d="M53.472,16.45c1.638-.244,17.252-2.013,37.322,15.409a24.869,24.869,0,0,0,24.986,4.7A78.308,78.308,0,0,1,97.438,26.6a31.677,31.677,0,0,0-12.161-5.674,1.9,1.9,0,1,1,.852-3.713,35.456,35.456,0,0,1,13.613,6.354C109.1,30.673,120.975,34.38,121.2,34.45c5.257,1.293,35.324,12.571,23.543,31.231A31.628,31.628,0,0,1,166.1,72.549,11.933,11.933,0,0,1,171.236,80a8.35,8.35,0,0,1-4.4,9.237c10.472,14.46,16.081,31.825,16.678,51.65,3.752,12.3-1.064,36.465-24.746,37.281a23.079,23.079,0,0,1-10.836-2.637c-12.878-7.037-5.734-27.6,8.835-23.582a6.106,6.106,0,0,1,9.21-5.138c6.061,3.456,10.112.266,13.72-6.086-.638-19.548-6.334-36.567-16.939-50.594a14.578,14.578,0,0,1-5.33-1.536c-9.127-4.061-17-.843-25.781,4.452-15.156,9.735-27.166,18.563-50.066,26.859a22.261,22.261,0,0,1-12.805.671A45.534,45.534,0,0,1,65.8,150.123a63.861,63.861,0,0,0-6.007,25.212H55.968a66.966,66.966,0,0,1,6.377-26.819c4.413-9.2,4.737-19.619,2.221-29.415a22.3,22.3,0,0,1-11.14-11.524C47.068,92.6,39.132,58.9,37.448,32.6c-.679-9.343,6.684-15.911,16.023-16.15ZM173.335,151.655a11.735,11.735,0,0,1-9.325-1.586,2.267,2.267,0,0,0-2.823,3.481L162.527,155a1.908,1.908,0,0,1-2.325,2.958l-3.11-1.738a7.788,7.788,0,0,0-9.123,1.094c-4.586,4.038-3.7,12.078,1.777,14.867,8.266,4.393,19.1,1.9,25.206-5.261,5.858-6.763,6.151-15.369,5.635-20.575A14.168,14.168,0,0,1,173.335,151.655ZM143.193,54.488c-2.725-9.3-18.6-14.945-22.3-16.144-10.112,5.919-23.741,4.263-32.6-3.608-8.522-7.4-16.18-11.094-22.087-12.916a22.581,22.581,0,0,1,4.567,10.667c-.008,0,6.759,47.2,6.753,47.22a6.363,6.363,0,0,0,8.312,5.046c10.811-3.966,20.95-7.66,29.9-10.768a31.4,31.4,0,0,1-15.111-8.46,1.9,1.9,0,1,1,2.647-2.74c10.83,10.463,21.763,7.982,24.088,7.29,4.4-1.423,8.663-2.7,12.083-3.583C143.022,62.247,144.285,58.213,143.193,54.488ZM41.252,32.358c1.634,25.526,9.576,59.346,15.682,73.731A18.594,18.594,0,0,0,80.3,116.317c22.476-8.149,34.32-16.863,49.292-26.48,6.892-4.294,12.859-6.7,19.731-6.9a23.059,23.059,0,0,1,9.711,2.206,16.613,16.613,0,0,0,2.843,1.039,4.584,4.584,0,0,0,5.636-5.365,7.892,7.892,0,0,0-3.68-5.2,27.321,27.321,0,0,0-22.811-5.6c-12.842,3.255-35.618,11.616-53.933,18.332a10.172,10.172,0,0,1-13.326-8.081L67.02,33.119C65.962,27.2,62.889,20.24,54.286,20.24c-7.431-.066-13.584,4.6-13.034,12.116Z" transform="translate(-37.405 -16.286)" fill="#2b2b38"/>
    </g>
  </g>
</svg>
