<svg id="Grupo_1044690" data-name="Grupo 1044690" xmlns="http://www.w3.org/2000/svg" width="166.018" height="203.34" viewBox="0 0 166.018 203.34">
  <g id="Grupo_1044644" data-name="Grupo 1044644" transform="translate(0 19.203)">
    <rect id="Rectángulo_355765" data-name="Rectángulo 355765" width="166.019" height="163.737" rx="12" fill="#edc1e3"/>
  </g>
  <g id="el-embarazo" transform="translate(26.486 0)">
    <g id="Grupo_1044682" data-name="Grupo 1044682" transform="translate(0.882 13.366)">
      <g id="Grupo_1044646" data-name="Grupo 1044646" transform="translate(65.509 136.083)">
        <g id="Grupo_1044645" data-name="Grupo 1044645">
          <path id="Trazado_774616" data-name="Trazado 774616" d="M274.1,346.906s43.283,18.878,27.406,38.875c-3.312,4.171-8.293,4.005-12.591,3.013L267.469,375.74l-6.359-21.83,17.8-2.01" transform="translate(-261.11 -346.906)" fill="#ffdcd2"/>
        </g>
      </g>
      <g id="Grupo_1044648" data-name="Grupo 1044648" transform="translate(78.495 136.083)">
        <g id="Grupo_1044647" data-name="Grupo 1044647">
          <path id="Trazado_774617" data-name="Trazado 774617" d="M291.252,346.906l4.818,4.993-.374.042c11.718,6.932,28.665,20.122,17.773,33.839a9.125,9.125,0,0,1-5.544,3.374c3.815.591,7.889.208,10.733-3.374C334.535,365.784,291.252,346.906,291.252,346.906Z" transform="translate(-291.252 -346.906)" fill="#ffc8cc"/>
        </g>
      </g>
      <g id="Grupo_1044650" data-name="Grupo 1044650" transform="translate(4.46 151.248)">
        <g id="Grupo_1044649" data-name="Grupo 1044649">
          <path id="Trazado_774618" data-name="Trazado 774618" d="M192.322,382.107s27.363,15.451,13.217,30.809a21.505,21.505,0,0,1-13.05,6.637A53.97,53.97,0,0,1,163.577,415c-10.95-5.074-21.348-7.971-27.238-8.585a19.984,19.984,0,0,0-7.247.581c-3.851,1.031-10.206,2.129-9.659-2.055a4.508,4.508,0,0,1,3.075-3.639,12.655,12.655,0,0,0,8.081-7.869c4.62-14.127,35.451,3.412,35.451,3.412" transform="translate(-119.4 -382.107)" fill="#ffdcd2"/>
        </g>
      </g>
      <g id="Grupo_1044652" data-name="Grupo 1044652" transform="translate(4.46 170.085)">
        <g id="Grupo_1044651" data-name="Grupo 1044651">
          <path id="Trazado_774619" data-name="Trazado 774619" d="M205.54,432.631a21.505,21.505,0,0,1-13.05,6.637,53.971,53.971,0,0,1-28.912-4.551c-10.95-5.075-21.348-7.971-27.238-8.585a19.994,19.994,0,0,0-7.247.581c-2.6.7-6.331,1.419-8.321.534a4.347,4.347,0,0,0-1.339,2.585c-.546,4.184,5.808,3.087,9.659,2.055a19.993,19.993,0,0,1,7.247-.581c5.89.614,16.288,3.51,27.238,8.585a53.967,53.967,0,0,0,28.912,4.551,21.5,21.5,0,0,0,13.05-6.637c3.759-4.081,4.587-8.169,3.776-11.972A14.763,14.763,0,0,1,205.54,432.631Z" transform="translate(-119.401 -425.833)" fill="#ffc8cc"/>
        </g>
      </g>
      <g id="Grupo_1044681" data-name="Grupo 1044681" transform="translate(0)">
        <g id="Grupo_1044665" data-name="Grupo 1044665" transform="translate(15.815)">
          <g id="Grupo_1044656" data-name="Grupo 1044656" transform="translate(0 35.148)">
            <g id="Grupo_1044655" data-name="Grupo 1044655" opacity="0.3">
              <g id="Grupo_1044654" data-name="Grupo 1044654">
                <g id="Grupo_1044653" data-name="Grupo 1044653">
                  <path id="Trazado_774620" data-name="Trazado 774620" d="M147.916,112.612l-2.158,15.207A71.285,71.285,0,0,0,147.916,112.612Z" transform="translate(-145.758 -112.612)" fill="#ff5fe8"/>
                </g>
              </g>
            </g>
          </g>
          <g id="Grupo_1044658" data-name="Grupo 1044658" transform="translate(4.663 23.556)">
            <g id="Grupo_1044657" data-name="Grupo 1044657">
              <path id="Trazado_774621" data-name="Trazado 774621" d="M156.581,110.167a25.356,25.356,0,0,0,12.877-19.64c1.5-14.132,15.669,7.3,15.669,7.3s2.074,11.432,15.9,10.512c2.36-.157.843,4.695,1.681,5.258,4.073,2.74-4.1,7.724-4.1,7.724l-17.4,4.481s-14.4-3.332-14.172-3.676S156.581,110.167,156.581,110.167Z" transform="translate(-156.581 -85.705)" fill="#ffdcd2"/>
            </g>
          </g>
          <g id="Grupo_1044660" data-name="Grupo 1044660" transform="translate(4.663 23.556)">
            <g id="Grupo_1044659" data-name="Grupo 1044659">
              <path id="Trazado_774622" data-name="Trazado 774622" d="M172.053,93.113c.691-6.519,4.079-5.469,7.528-2.449-4.151-4.591-9.256-8.311-10.122-.138a25.357,25.357,0,0,1-12.877,19.64s10.688,11.61,10.458,11.955c-.037.055.3.184.877.364-2.968-3.461-8.741-9.732-8.741-9.732A25.355,25.355,0,0,0,172.053,93.113Z" transform="translate(-156.582 -85.704)" fill="#ffc8cc"/>
            </g>
          </g>
          <g id="Grupo_1044662" data-name="Grupo 1044662" transform="translate(9.402)">
            <g id="Grupo_1044661" data-name="Grupo 1044661">
              <path id="Trazado_774623" data-name="Trazado 774623" d="M188.855,31.446c-12.751,1.149-13.442,14.17-13.442,14.17s-1.152-6.664-3.808-6.288a4.21,4.21,0,0,0-3.412,2.8c-2.788,8.246,4.878,9.923,4.878,9.923s.961,18.983,18.645,16.817C204.082,67.353,209.654,31,194.5,31.025Z" transform="translate(-167.582 -31.025)" fill="#ffdcd2"/>
            </g>
          </g>
          <g id="Grupo_1044664" data-name="Grupo 1044664" transform="translate(9.402 8.511)">
            <g id="Grupo_1044663" data-name="Grupo 1044663">
              <path id="Trazado_774624" data-name="Trazado 774624" d="M175.665,60.709s-7.666-1.676-4.878-9.923l0,0a4.178,4.178,0,0,0-2.6,2.59c-2.788,8.246,4.878,9.923,4.878,9.923s.961,18.983,18.645,16.817c2.325-.285,4.41-1.8,6.162-4.076a7.621,7.621,0,0,1-3.568,1.489c-17.684,2.167-18.645-16.816-18.645-16.816Z" transform="translate(-167.583 -50.782)" fill="#ffc8cc"/>
            </g>
          </g>
        </g>
        <g id="Grupo_1044680" data-name="Grupo 1044680" transform="translate(0 44.203)">
          <g id="Grupo_1044666" data-name="Grupo 1044666" transform="translate(20.92 6.187)">
            <path id="Trazado_774625" data-name="Trazado 774625" d="M219.157,201.2c16.944,1.034-2.375-39.728-8.31-51.527a3.059,3.059,0,0,0-4.5-1.113l-21.636,10.407-27.1,1.824" transform="translate(-157.608 -147.994)" fill="#ffdcd2"/>
          </g>
          <g id="Grupo_1044667" data-name="Grupo 1044667" transform="translate(47.203 29.042)">
            <path id="Trazado_774626" data-name="Trazado 774626" d="M254.97,201.045c5.182,13.495,9.764,31.954-1.088,30.352,0,0-2.654-12.34-11.2-10l-5.65,2.251c-9.658,5.311-25.592.493-14.811-8.366,0,0-5.25-1.919.652-5.04a17.343,17.343,0,0,1,13.256-1.164,24.759,24.759,0,0,1,7.456,4.079" transform="translate(-218.617 -201.045)" fill="#ffdcd2"/>
          </g>
          <g id="Grupo_1044669" data-name="Grupo 1044669" transform="translate(0.983 22.645)">
            <g id="Grupo_1044668" data-name="Grupo 1044668">
              <path id="Trazado_774627" data-name="Trazado 774627" d="M157.756,238.414a31.883,31.883,0,0,1,7.015-.676,16.355,16.355,0,0,1,9.687,3.425c5.227,4.08-.26,5.058-.26,5.058,9.075,10.591-7.456,12.577-16.042,5.674a16.5,16.5,0,0,0-5.532-2.883c-7.239-2.213-23.928-8.212-36.577-19.6a12.594,12.594,0,0,1-4.075-8.184,161.34,161.34,0,0,1,.56-34.131l16.887-.9,5.859,2.145a130.02,130.02,0,0,0-5.232,31.108s14.328,14.04,27.711,18.965" transform="translate(-111.33 -186.196)" fill="#ffdcd2"/>
            </g>
          </g>
          <g id="Grupo_1044671" data-name="Grupo 1044671" transform="translate(0.983 23.352)">
            <g id="Grupo_1044670" data-name="Grupo 1044670">
              <path id="Trazado_774628" data-name="Trazado 774628" d="M162.046,250.672a16.5,16.5,0,0,0-5.532-2.883c-7.239-2.213-23.928-8.212-36.577-19.6a12.6,12.6,0,0,1-4.075-8.184,164.813,164.813,0,0,1,.3-32.169l-3.634.194a161.339,161.339,0,0,0-.56,34.131,12.6,12.6,0,0,0,4.075,8.184c12.648,11.389,29.338,17.387,36.577,19.6a16.5,16.5,0,0,1,5.532,2.883c5.94,4.775,15.681,5.3,18.117,1.656A18.948,18.948,0,0,1,162.046,250.672Z" transform="translate(-111.329 -187.836)" fill="#ffc8cc"/>
            </g>
          </g>
          <g id="Grupo_1044673" data-name="Grupo 1044673" transform="translate(0)">
            <g id="Grupo_1044672" data-name="Grupo 1044672">
              <path id="Trazado_774629" data-name="Trazado 774629" d="M200.4,232.535a100.953,100.953,0,0,0-12.853-7.024,25.947,25.947,0,0,0,9.085-23.246c-1.611-15.13-11.007-21.437-16.828-19.038l.515-.205c-2.049.807-4.918,1.948-6.888,2.863-9.7,4.291-23.905-.487-13.573-8.978,0,0-5.25-1.919.652-5.04a20.368,20.368,0,0,1,13.256-1.164,19.778,19.778,0,0,1,2.418.928h0s7.669-11.168,2.753-21.45c3.57.253,4.092-1.978,4-3.636a3.5,3.5,0,0,1,1.09-2.653,3.2,3.2,0,0,0,.9-2.855,3.824,3.824,0,0,0-3.464-3.153c-3.123-.336-6.958-2.457-8.877-3.63a4.24,4.24,0,0,0-2.724-.593l-4.5.546s4.558,10.9-7.727,14.588-28.1-11.35-28.1-11.35l-4.564,1.206a4.214,4.214,0,0,0-2.454,1.766c-1.691,2.587-5.8,8.24-11.148,10.908a4.187,4.187,0,0,0-2.31,3.788c.025,2.681,1.18,6.036,7.145,4.9,0,0,2.021,7.508,8.953,4.885a4.08,4.08,0,0,1,4.452,1.113,5.647,5.647,0,0,0,2.166,1.526q.811,2.559,1.4,5.2a67.668,67.668,0,0,1,1.177,21.789c5.4,4.534,13.929,10.951,22.113,13.962a31.562,31.562,0,0,1,7.288-.668,16.162,16.162,0,0,1,9.435,3.434c5.192,4.066-.281,5.041-.281,5.041,9.066,10.581-7.424,12.573-16.017,5.694a16.66,16.66,0,0,0-5.553-2.9,116.677,116.677,0,0,1-20.26-8.386c-1.923,7.212-7.916,33.118,3.126,40.029,9.052,5.666,29,9.962,40.525,12.1,0,0-3.819-21.078,25.676-30.3Z" transform="translate(-109.049 -133.631)" fill="#ff85ab"/>
            </g>
          </g>
          <g id="Grupo_1044675" data-name="Grupo 1044675" transform="translate(0 16.481)">
            <g id="Grupo_1044674" data-name="Grupo 1044674">
              <path id="Trazado_774630" data-name="Trazado 774630" d="M137.491,190.207q-.114-.512-.237-1.022c-.512-2.111-3.284-7.041-7.77-6.824-4.157.2-6.235-.23-7.546-2.02a7.093,7.093,0,0,0-4.726-2.713c-3.118-.472-3.82-2.966-3.84-5.051a4.183,4.183,0,0,1,.056-.691,18.638,18.638,0,0,1-2.07,1.215,4.187,4.187,0,0,0-2.31,3.788c.025,2.681,1.18,6.036,7.145,4.9,0,0,2.024,7.518,8.967,4.88a4.06,4.06,0,0,1,4.438,1.118,5.643,5.643,0,0,0,2.166,1.526q.811,2.559,1.4,5.2a67.667,67.667,0,0,1,1.177,21.789c1.345,1.13,2.885,2.377,4.566,3.658C139.672,212.691,139.086,197.36,137.491,190.207Z" transform="translate(-109.048 -171.887)" fill="#f75aa1"/>
            </g>
          </g>
          <g id="Grupo_1044677" data-name="Grupo 1044677" transform="translate(76.084 49.583)">
            <g id="Grupo_1044676" data-name="Grupo 1044676">
              <path id="Trazado_774631" data-name="Trazado 774631" d="M294.557,266.483a26.313,26.313,0,0,1-7.033,21.374,1.948,1.948,0,0,0,.549,3.1l.049.024a25.984,25.984,0,0,0,9.029-23.2c-1.172-11-6.46-17.334-11.5-19.05C289.792,251.464,293.587,257.371,294.557,266.483Z" transform="translate(-285.656 -248.726)" fill="#fff"/>
            </g>
          </g>
          <g id="Grupo_1044679" data-name="Grupo 1044679" transform="translate(18.666 77.076)">
            <g id="Grupo_1044678" data-name="Grupo 1044678">
              <path id="Trazado_774632" data-name="Trazado 774632" d="M159.3,314.359c-1.174-.57-2.366-1.172-3.57-1.815-1.923,7.212-7.916,33.118,3.125,40.029,9.052,5.666,29,9.962,40.524,12.1a19.709,19.709,0,0,1,.157-6.148c-11.634-2.341-27.652-6.22-35.493-11.129C155.409,341.994,157.193,324.971,159.3,314.359Z" transform="translate(-152.375 -312.544)" fill="#f75aa1"/>
            </g>
          </g>
        </g>
      </g>
    </g>
    <g id="Grupo_1044687" data-name="Grupo 1044687" transform="translate(64.294 116.141)">
      <g id="Grupo_1044684" data-name="Grupo 1044684" transform="translate(0)">
        <g id="Grupo_1044683" data-name="Grupo 1044683">
          <path id="Trazado_774633" data-name="Trazado 774633" d="M263.58,283.9c.823-.505,10.609-8,6.207-12.859-3.109-3.432-6.207.284-6.207.284h0s-3.1-3.717-6.207-.284c-4.4,4.859,5.384,12.353,6.207,12.859" transform="translate(-256.241 -269.59)" fill="#f5f5f5"/>
        </g>
      </g>
      <g id="Grupo_1044686" data-name="Grupo 1044686" transform="translate(0 0.001)">
        <g id="Grupo_1044685" data-name="Grupo 1044685">
          <path id="Trazado_774634" data-name="Trazado 774634" d="M260.833,270.185a5.886,5.886,0,0,1,.428-.424,3.534,3.534,0,0,0-3.887,1.286c-4.4,4.859,5.382,12.352,6.207,12.858a21.122,21.122,0,0,0,2.228-1.8c-2.728-2.251-8.564-7.96-4.976-11.921Z" transform="translate(-256.241 -269.594)" fill="#e1e1e1"/>
        </g>
      </g>
    </g>
    <path id="Trazado_774635" data-name="Trazado 774635" d="M217.7,175.659c-2.077-8.307-11.045-15.554-18.807-20.446l-.015.016a106.542,106.542,0,0,0-10.9-5.993,26.885,26.885,0,0,0,8.343-23.124,33.922,33.922,0,0,0-2.074-8.734,5.71,5.71,0,0,0,2.871-3.313c2.338-5.381-.33-15.889-4.2-26.247,1.115-8.826-1.1-19.713-6.232-28.909-5-8.946-5.3-19.905-5.439-25.172-.29-10.589-2.338-20.3-10.4-27.757-7.655-7.073-18.65-8.346-26.823-1.244-17.576-3.191-19.062,24.282-18.894,35.006.14,8.942-.483,16.327-1.843,22.108a5.063,5.063,0,0,0-2.664,2.036c-1.889,2.891-5.807,8.112-10.811,10.608-3.366,1.678-3.736,6.875-.935,9.278a166.328,166.328,0,0,0-.225,31.555A13.423,13.423,0,0,0,113,124.07a82.477,82.477,0,0,0,15.9,10.992c-1.816,6.994-5.74,25.122-.8,35.191a8.366,8.366,0,0,0-5.392,5.422,11.784,11.784,0,0,1-7.536,7.319c-2.546.857-5.341,4.973-2.693,7.284,1.558,1.36,4.847,1.38,9.778.06a19.075,19.075,0,0,1,6.933-.556c5.119.534,15.253,3.082,26.964,8.509a54.1,54.1,0,0,0,29.389,4.624c6.529-.86,13.086-4.651,16.207-10.587,4.641.938,9.585.464,12.708-3.469,3.3-4.159,4.394-8.6,3.244-13.2ZM190.631,86.92c4.756,12.386,6.5,21.982,4.9,26.449a4.423,4.423,0,0,1-2.056,2.235,18.63,18.63,0,0,0-7.005-8.235c-5.04-2.99-9.79-.552-14.564,1.665-6.124,2.709-13.812,1.507-15.575-1.34-1.357-2.19,1.236-4.814,2.9-6.183a.861.861,0,0,0-.252-1.475c-2.779-1.015-.981-2.548.739-3.458a18.48,18.48,0,0,1,15.18-.155c1.6.886,3.115,1.986,4.669,3.016A.863.863,0,1,0,180.531,98a49.442,49.442,0,0,0-4.275-2.781c1.631-2.718,6.206-11.55,2.815-20.261a4,4,0,0,0,3.555-4.526,2.386,2.386,0,0,1,.293-1.264C185.721,74.932,190.631,86.92,190.631,86.92Zm-56.1-62.176a3.281,3.281,0,0,1,2.8-2.227c1.159,0,2.332,3.2,2.747,5.587a.868.868,0,0,0,1.715-.1c.027-.5.788-12.283,12.65-13.356,8.532-1.475,13.267,2.372,13.812,11.152.647,10.425-4.173,23.7-11.129,24.554-10.009,1.225-17.169-6.343-17.675-16.005a.864.864,0,0,0-.679-.8c-4.24-.928-5.5-5.08-4.243-8.8Zm6.92,20.8c3.522,5.177,9.515,7.234,15.635,6.546a14.279,14.279,0,0,0,6.407,6.664c2.146,6.234-1.26,11.349-7.278,13.158-10.06,3.023-22.937-7.362-26.378-10.361A26.12,26.12,0,0,0,141.448,45.542ZM114.162,122.79a11.7,11.7,0,0,1-3.794-7.626,165.366,165.366,0,0,1,.139-30.476,8.613,8.613,0,0,0,3.939.237c1.608,4.138,5.469,6.376,9.842,4.722,2.315-.876,3.478,1.276,5.186,2.248a128.016,128.016,0,0,0-2.758,21.553.86.86,0,0,0,.258.633c7.888,7.732,17.546,15.307,28.018,19.16a.871.871,0,0,0,.47.036c4.556-.918,9.323-1.117,13.558,1.056,1.428.733,7.023,4.236,2.56,5.057a.861.861,0,0,0-.505,1.409c1.434,1.673,3.561,4.767,1.7,6.684-2.625,2.7-11.106,2.107-16.514-2.222a17.448,17.448,0,0,0-5.841-3.054c-13.054-3.991-26.057-10.236-36.254-19.418Zm16.5-27.975a65.92,65.92,0,0,1,1.812,21.912c-2.025-1.743-3.452-3.081-4.017-3.618A119.648,119.648,0,0,1,130.658,94.814Zm-.193,41.1a118.846,118.846,0,0,0,19.444,7.938,15.732,15.732,0,0,1,5.265,2.75c5.7,4.563,15.384,5.631,18.839,2.078,1.125-1.157,2.414-3.682-.819-8,5.143-2.287-1.294-6.9-3.688-8.067-4.422-2.158-9.42-1.994-14.142-1.073-7.724-2.9-15.76-8.833-21.278-13.436a67.364,67.364,0,0,0-2.662-26.883.864.864,0,0,0-.52-.548c-2.719-1.019-3.735-3.962-7.229-2.638-3.607,1.365-6.827-.71-7.811-4.3a.863.863,0,0,0-1-.623c-2.2.419-3.823.217-4.819-.6-1.918-1.567-1.746-5.339.534-6.476,5.369-2.677,9.5-8.171,11.486-11.208a3.348,3.348,0,0,1,1.952-1.4l4.1-1.084c7.125,6.5,18.447,14.267,28.591,11.22,6.675-2.005,10.627-7.681,8.632-14.685l3.45-.418a3.391,3.391,0,0,1,2.168.472c2.046,1.25,5.965,3.4,9.236,3.751,2.059.222,3.73,2.855,2.043,4.542a4.376,4.376,0,0,0-1.341,3.311c.116,2.012-1.149,2.864-3.072,2.726q-1.131.133-.842,1.231c4.01,8.388-.865,17.582-2.308,19.989a19.95,19.95,0,0,0-15.743.563c-2.282,1.207-4.925,3.853-1.762,5.983-3.823,3.595-3.125,6.258-2.309,7.574,2.419,3.906,11.21,4.9,17.763,2,4.765-2.212,9.42-4.448,14.186-.924a18.65,18.65,0,0,1,5.709,8.026,32.084,32.084,0,0,1,2.079,8.588,25.317,25.317,0,0,1-8.735,22.459.861.861,0,0,0,.164,1.486,100.324,100.324,0,0,1,11.19,5.986c-12.779,4.4-25.671,14.567-24.654,29.489-11.372-2.153-30.454-6.372-39.079-11.77C123.328,167.585,128.654,143.074,130.466,135.917Zm67.378,58.922a20.659,20.659,0,0,1-12.526,6.366,53.029,53.029,0,0,1-28.434-4.479c-11.9-5.516-22.261-8.113-27.513-8.66a20.8,20.8,0,0,0-7.561.606c-4.094,1.1-7.155,1.211-8.19.308-1.567-1.368.859-3.932,2.107-4.352a13.5,13.5,0,0,0,8.627-8.418,6.757,6.757,0,0,1,4.61-4.427,11.639,11.639,0,0,0,3.6,3.622c8.7,5.448,27.006,9.652,40.826,12.219a.9.9,0,0,0,1.009-1c-1.447-8.12,3.595-16.514,9.66-21.45C193.533,170.82,208.354,183.428,197.844,194.839Zm15.26-7.051c-2.313,2.912-5.71,3.855-10.634,2.934,4.227-11.34-8.491-21.536-16.934-26.681a47.592,47.592,0,0,1,13.551-6.612c7.227,4.71,15.111,11.333,16.94,18.649C217.039,180.13,216.056,184.07,213.1,187.788Z" transform="translate(-107 0)" fill="#371731"/>
    <path id="Trazado_774636" data-name="Trazado 774636" d="M161.637,17.3c-4.084,3.163-8.886,11.123-8.574,31.078q.043,2.712-.009,5.24a64.905,64.905,0,0,0,1.855-12.355c.911-17.426,6.363-23.814,11.058-26.043A11.063,11.063,0,0,0,161.637,17.3Z" transform="translate(-133.21 -8.663)" fill="#ff5fe8" opacity="0.3"/>
    <g id="Grupo_1044689" data-name="Grupo 1044689" transform="translate(63.431 115.299)">
      <g id="Grupo_1044688" data-name="Grupo 1044688">
        <path id="Trazado_774637" data-name="Trazado 774637" d="M262.442,283.655a.878.878,0,0,1-.552-.2c-.852-.614-6.923-5.171-7.593-9.842A4.96,4.96,0,0,1,262.431,269a4.73,4.73,0,0,1,5.335-.875,5.4,5.4,0,0,1,2.82,5.488c-.671,4.67-6.742,9.228-7.593,9.842A.888.888,0,0,1,262.442,283.655Zm-3.36-14.314c-1.974,0-3.328,2.26-3.073,4.03.489,3.4,4.889,7.2,6.433,8.366,1.544-1.166,5.945-4.967,6.433-8.366a3.621,3.621,0,0,0-2.594-3.975,3.512,3.512,0,0,0-3.176,1.376.842.842,0,0,1-1.328,0A3.837,3.837,0,0,0,259.081,269.341Z" transform="translate(-254.239 -267.637)" fill="#371731"/>
      </g>
    </g>
  </g>
</svg>
