<svg xmlns="http://www.w3.org/2000/svg" width="110" height="110" viewBox="0 0 110 110">
  <g id="Grupo_1044037" data-name="Grupo 1044037" transform="translate(-745 -901)">
    <g id="Grupo_1043391" data-name="Grupo 1043391" transform="translate(417 18)">
      <circle id="Elipse_4711" data-name="Elipse 4711" cx="55" cy="55" r="55" transform="translate(328 883)" fill="#3449bc"/>
    </g>
    <g id="conductual" transform="translate(753.657 893.559)">
      <g id="Grupo_1044028" data-name="Grupo 1044028" transform="translate(6.242 25.438)">
        <g id="Grupo_1044025" data-name="Grupo 1044025" transform="translate(0 0)">
          <g id="Grupo_1044023" data-name="Grupo 1044023">
            <path id="Trazado_773624" data-name="Trazado 773624" d="M35.918,43.137A14.29,14.29,0,1,0,21.79,55.275a14.251,14.251,0,0,0,5.324-1.026A21.4,21.4,0,0,1,35.918,43.137Z" transform="translate(-7.5 -26.696)" fill="#ffe177"/>
            <path id="Trazado_773625" data-name="Trazado 773625" d="M78.607,26.7a14.327,14.327,0,0,0-3.357.4,14.293,14.293,0,0,1,0,27.784,14.347,14.347,0,0,0,8.68-.628,21.4,21.4,0,0,1,8.8-11.112A14.3,14.3,0,0,0,78.607,26.7Z" transform="translate(-64.317 -26.696)" fill="#ffd15b"/>
          </g>
          <g id="Grupo_1044024" data-name="Grupo 1044024" transform="translate(51.622 0)">
            <path id="Trazado_773626" data-name="Trazado 773626" d="M341.688,26.7a14.3,14.3,0,0,0-14.032,17,21.418,21.418,0,0,1,3.08,2.632,21.174,21.174,0,0,1,4.709,7.516A14.291,14.291,0,1,0,341.688,26.7Z" transform="translate(-327.398 -26.696)" fill="#bd80e1"/>
            <path id="Trazado_773627" data-name="Trazado 773627" d="M398.547,26.7a14.328,14.328,0,0,0-3.349.4,14.292,14.292,0,0,1,0,27.788A14.29,14.29,0,1,0,398.547,26.7Z" transform="translate(-384.258 -26.696)" fill="#af66da"/>
          </g>
        </g>
        <g id="Grupo_1044027" data-name="Grupo 1044027" transform="translate(18.313 13.006)">
          <path id="Trazado_773628" data-name="Trazado 773628" d="M166.287,135.74l-2.2-3.583a2.743,2.743,0,0,1-.388-1.668q.075-.891.075-1.8a21.394,21.394,0,1,0-34.532,16.881,2.168,2.168,0,0,1,.825,1.713v11.855h17.85v-3.667a2.193,2.193,0,0,1,2.193-2.193h5.658a6.177,6.177,0,0,0,6.177-6.177v-6.874a.922.922,0,0,1,.922-.922H164.3A2.338,2.338,0,0,0,166.287,135.74Z" transform="translate(-120.984 -107.294)" fill="#ffcebf"/>
          <g id="Grupo_1044026" data-name="Grupo 1044026" transform="translate(21.784 45.982)">
            <path id="Trazado_773629" data-name="Trazado 773629" d="M255.976,394.431V398.1h5.147v-3.667a2.193,2.193,0,0,1,2.193-2.193h-5.147A2.193,2.193,0,0,0,255.976,394.431Z" transform="translate(-255.976 -392.238)" fill="#ffb09e"/>
          </g>
          <path id="Trazado_773630" data-name="Trazado 773630" d="M264.138,135.739l-2.2-3.583a2.743,2.743,0,0,1-.388-1.668q.075-.891.075-1.8a21.384,21.384,0,0,0-23.959-21.238,21.4,21.4,0,0,1,18.813,21.238V147.1c0,3.411-4.6,6.177-8.007,6.177h5.147a6.177,6.177,0,0,0,6.177-6.177v-6.874a.922.922,0,0,1,.922-.922h1.432A2.338,2.338,0,0,0,264.138,135.739Z" transform="translate(-218.834 -107.293)" fill="#ffb09e"/>
        </g>
        <path id="Trazado_773631" data-name="Trazado 773631" d="M176.166,436.871H146.606a1.759,1.759,0,0,1-1.759-1.759v-5.8a1.759,1.759,0,0,1,1.759-1.759h25.407a5.912,5.912,0,0,1,5.912,5.912v1.648A1.759,1.759,0,0,1,176.166,436.871Z" transform="translate(-122.683 -362.865)" fill="#26a6fe"/>
        <path id="Trazado_773632" data-name="Trazado 773632" d="M278.1,427.553h-6.753a5.912,5.912,0,0,1,5.912,5.912v1.648a1.759,1.759,0,0,1-1.759,1.759h6.753a1.759,1.759,0,0,0,1.759-1.759v-1.648A5.912,5.912,0,0,0,278.1,427.553Z" transform="translate(-228.766 -362.866)" fill="#0593fc"/>
      </g>
      <g id="Grupo_1044036" data-name="Grupo 1044036" transform="translate(6 25.196)">
        <g id="Grupo_1044029" data-name="Grupo 1044029" transform="translate(6.157 2.369)">
          <path id="Trazado_773633" data-name="Trazado 773633" d="M165.095,43.595a.242.242,0,0,1-.1-.461c.255-.12.515-.239.773-.353a.242.242,0,0,1,.2.443c-.254.112-.51.229-.762.348A.241.241,0,0,1,165.095,43.595Zm28.935,0a.241.241,0,0,1-.1-.023c-.722-.34-1.465-.659-2.208-.947a.242.242,0,0,1,.175-.452c.754.292,1.508.615,2.24.96a.242.242,0,0,1-.1.461Zm-23.615-1.98a.242.242,0,0,1-.065-.475c.779-.218,1.576-.41,2.37-.571a.242.242,0,1,1,.1.474c-.782.159-1.568.349-2.336.563A.242.242,0,0,1,170.415,41.611Zm16.767-.391a.243.243,0,0,1-.054-.006c-.777-.178-1.571-.331-2.36-.453a.242.242,0,1,1,.074-.478c.8.124,1.606.279,2.394.46a.242.242,0,0,1-.054.478Zm-9.617-.8a.242.242,0,0,1-.014-.484c.667-.039,1.345-.059,2.016-.059l.421,0a.242.242,0,0,1-.006.484l-.415,0c-.661,0-1.33.019-1.988.058Z" transform="translate(-145.375 -39.878)"/>
          <path id="Trazado_773634" data-name="Trazado 773634" d="M341.994,244.664a.242.242,0,0,1-.1-.462c.725-.331,1.448-.693,2.149-1.075a.242.242,0,0,1,.232.425c-.711.388-1.444.755-2.18,1.09A.242.242,0,0,1,341.994,244.664Zm6.235-3.7a.242.242,0,0,1-.145-.436c.639-.478,1.269-.984,1.872-1.506a.242.242,0,1,1,.317.366c-.612.529-1.251,1.043-1.9,1.528A.241.241,0,0,1,348.229,240.968Zm5.311-4.932a.242.242,0,0,1-.182-.4c.524-.6,1.033-1.23,1.512-1.867a.242.242,0,0,1,.387.291c-.486.646-1,1.284-1.534,1.894A.242.242,0,0,1,353.54,236.036Zm4.149-5.943a.242.242,0,0,1-.212-.359c.384-.7.748-1.421,1.082-2.145a.242.242,0,1,1,.44.2c-.338.735-.707,1.467-1.1,2.176A.242.242,0,0,1,357.689,230.093Zm2.791-6.689a.242.242,0,0,1-.232-.311c.226-.765.427-1.548.6-2.327a.242.242,0,0,1,.473.1c-.173.791-.377,1.585-.607,2.361A.242.242,0,0,1,360.48,223.4Zm1.3-7.131h-.018a.242.242,0,0,1-.224-.259c.058-.794.089-1.6.091-2.4a.242.242,0,0,1,.242-.241h0a.242.242,0,0,1,.241.243c0,.811-.033,1.63-.092,2.435A.242.242,0,0,1,361.778,216.273Zm-.237-7.245a.242.242,0,0,1-.239-.209c-.11-.79-.251-1.587-.417-2.366a.242.242,0,1,1,.473-.1c.169.791.311,1.6.423,2.4a.242.242,0,0,1-.206.273Z" transform="translate(-293.728 -179.328)"/>
          <path id="Trazado_773635" data-name="Trazado 773635" d="M60.77,230.651a.241.241,0,0,1-.125-.035c-.25-.151-.5-.308-.747-.466a.242.242,0,0,1,.262-.407c.242.156.49.31.736.459a.242.242,0,0,1-.126.449Zm-4.616-3.359a.241.241,0,0,1-.158-.059c-.612-.529-1.213-1.087-1.786-1.658a.242.242,0,1,1,.342-.343c.565.563,1.158,1.113,1.761,1.635a.242.242,0,0,1-.158.425ZM51.2,222a.242.242,0,0,1-.194-.1c-.487-.647-.957-1.319-1.4-2a.242.242,0,0,1,.406-.263c.433.669.9,1.332,1.376,1.97A.242.242,0,0,1,51.2,222Zm-3.717-6.222a.242.242,0,0,1-.22-.141c-.338-.735-.654-1.492-.939-2.249a.242.242,0,1,1,.453-.17c.281.746.592,1.492.926,2.217a.242.242,0,0,1-.22.343ZM45.182,208.9a.242.242,0,0,1-.236-.19c-.173-.79-.32-1.6-.437-2.4a.242.242,0,0,1,.479-.07c.115.79.26,1.585.43,2.364a.242.242,0,0,1-.237.294Zm-.788-7.205a.242.242,0,0,1-.242-.241q0-.05,0-.1c0-.777.026-1.563.079-2.335a.242.242,0,0,1,.483.033c-.052.762-.078,1.536-.078,2.3q0,.05,0,.1a.242.242,0,0,1-.241.243Zm.747-7.21a.242.242,0,0,1-.237-.293c.169-.791.368-1.587.593-2.364a.242.242,0,0,1,.465.135c-.222.766-.419,1.55-.585,2.33A.242.242,0,0,1,45.141,194.489Z" transform="translate(-44.152 -167.165)"/>
        </g>
        <path id="Trazado_773636" data-name="Trazado 773636" d="M66.2,41.922l-.033,0a.242.242,0,0,1-.207-.273,14.089,14.089,0,0,0-.153-4.75,13.969,13.969,0,0,0-2.114-5.023,14.089,14.089,0,0,0-6.181-5.09,13.975,13.975,0,0,0-2.637-.818,14.147,14.147,0,0,0-7.146.39A13.99,13.99,0,0,0,43.96,28.24a.242.242,0,0,1-.279-.4A14.466,14.466,0,0,1,52.046,25.2a14.638,14.638,0,0,1,2.928.3,14.453,14.453,0,0,1,5.2,2.187,14.574,14.574,0,0,1,5.265,6.393,14.46,14.46,0,0,1,.847,2.728,14.573,14.573,0,0,1,.158,4.913A.242.242,0,0,1,66.2,41.922Z" transform="translate(-37.515 -25.196)"/>
        <path id="Trazado_773637" data-name="Trazado 773637" d="M20.532,89.1a14.637,14.637,0,0,1-2.928-.3,14.453,14.453,0,0,1-5.2-2.187A14.573,14.573,0,0,1,7.142,80.23,14.46,14.46,0,0,1,6.3,77.5a14.637,14.637,0,0,1,.286-7.009A14.471,14.471,0,0,1,8.215,66.86a.242.242,0,1,1,.41.257,13.98,13.98,0,0,0-2.141,7.456A14.152,14.152,0,0,0,6.77,77.4a13.969,13.969,0,0,0,2.114,5.023,14.089,14.089,0,0,0,6.181,5.09,13.975,13.975,0,0,0,2.637.818,14.152,14.152,0,0,0,2.831.285,13.983,13.983,0,0,0,5.043-.937.242.242,0,0,1,.174.452A14.465,14.465,0,0,1,20.532,89.1Z" transform="translate(-6 -60.042)"/>
        <g id="Grupo_1044031" data-name="Grupo 1044031" transform="translate(9.699 7.887)">
          <path id="Trazado_773638" data-name="Trazado 773638" d="M71.705,136.809a4.681,4.681,0,0,1-4.684-4.684.242.242,0,1,1,.484,0,4.2,4.2,0,1,0,8.4,0,.242.242,0,1,1,.484,0,4.681,4.681,0,0,1-4.684,4.684Z" transform="translate(-66.873 -122.554)"/>
          <g id="Grupo_1044030" data-name="Grupo 1044030" transform="translate(0 0)">
            <path id="Línea_154" data-name="Línea 154" d="M-1.258,1.946A.242.242,0,0,1-1.5,1.7V-1.258A.242.242,0,0,1-1.258-1.5a.242.242,0,0,1,.242.242V1.7A.242.242,0,0,1-1.258,1.946Z" transform="translate(1.5 1.5)"/>
            <path id="Línea_155" data-name="Línea 155" d="M-1.258,1.946A.242.242,0,0,1-1.5,1.7V-1.258A.242.242,0,0,1-1.258-1.5a.242.242,0,0,1,.242.242V1.7A.242.242,0,0,1-1.258,1.946Z" transform="translate(10.681 1.5)"/>
          </g>
        </g>
        <path id="Trazado_773639" data-name="Trazado 773639" d="M383.31,54.259a14.475,14.475,0,0,1-6.141-1.36.242.242,0,0,1,.2-.439,13.99,13.99,0,0,0,5.936,1.314,14.152,14.152,0,0,0,2.831-.285,13.969,13.969,0,0,0,5.023-2.114,14.089,14.089,0,0,0,5.09-6.181,13.969,13.969,0,0,0,.818-2.637,14.187,14.187,0,0,0,0-5.663,13.971,13.971,0,0,0-2.114-5.023,14.089,14.089,0,0,0-6.181-5.09,13.976,13.976,0,0,0-2.637-.818,14.171,14.171,0,0,0-6.032.081.242.242,0,1,1-.11-.471,14.656,14.656,0,0,1,6.239-.084,14.454,14.454,0,0,1,5.2,2.187,14.573,14.573,0,0,1,5.265,6.393,14.458,14.458,0,0,1,.847,2.728,14.671,14.671,0,0,1,0,5.857,14.452,14.452,0,0,1-2.187,5.2,14.574,14.574,0,0,1-6.393,5.265,14.46,14.46,0,0,1-2.728.847A14.638,14.638,0,0,1,383.31,54.259Z" transform="translate(-317.156 -25.196)"/>
        <path id="Trazado_773640" data-name="Trazado 773640" d="M326.361,56.62a.242.242,0,0,1-.238-.2,14.536,14.536,0,0,1,.2-6.04,14.492,14.492,0,0,1,3.1-5.983,14.635,14.635,0,0,1,2.47-2.272.242.242,0,1,1,.285.392,14.116,14.116,0,0,0-4.216,4.889,13.982,13.982,0,0,0-1.581,6.48,14.156,14.156,0,0,0,.217,2.449.242.242,0,0,1-.239.284Z" transform="translate(-274.276 -39.354)"/>
        <path id="Trazado_773641" data-name="Trazado 773641" d="M387.163,136.808a.242.242,0,0,1-.242-.242,4.684,4.684,0,1,1,9.369,0,.242.242,0,1,1-.484,0,4.2,4.2,0,1,0-8.4,0A.242.242,0,0,1,387.163,136.808Z" transform="translate(-325.451 -114.666)"/>
        <g id="Grupo_1044033" data-name="Grupo 1044033" transform="translate(61.322 7.887)">
          <g id="Grupo_1044032" data-name="Grupo 1044032" transform="translate(0 0)">
            <path id="Línea_156" data-name="Línea 156" d="M-1.258,1.946A.242.242,0,0,1-1.5,1.7V-1.258A.242.242,0,0,1-1.258-1.5a.242.242,0,0,1,.242.242V1.7A.242.242,0,0,1-1.258,1.946Z" transform="translate(1.5 1.5)"/>
            <path id="Línea_157" data-name="Línea 157" d="M-1.258,1.946A.242.242,0,0,1-1.5,1.7V-1.258A.242.242,0,0,1-1.258-1.5a.242.242,0,0,1,.242.242V1.7A.242.242,0,0,1-1.258,1.946Z" transform="translate(10.681 1.5)"/>
          </g>
        </g>
        <g id="Grupo_1044034" data-name="Grupo 1044034" transform="translate(49.292 28.892)">
          <path id="Línea_158" data-name="Línea 158" d="M-1.258,1.466A.242.242,0,0,1-1.5,1.224V-1.258A.242.242,0,0,1-1.258-1.5a.242.242,0,0,1,.242.242V1.224A.242.242,0,0,1-1.258,1.466Z" transform="translate(6.387 6.661)"/>
          <path id="Línea_159" data-name="Línea 159" d="M5.77-1.016H-1.258A.242.242,0,0,1-1.5-1.258.242.242,0,0,1-1.258-1.5H5.77a.242.242,0,0,1,.242.242A.242.242,0,0,1,5.77-1.016Z" transform="translate(4.452 23.703)"/>
          <path id="Línea_160" data-name="Línea 160" d="M-1.258,2.452a.241.241,0,0,1-.171-.071.242.242,0,0,1,0-.342L2.038-1.429a.242.242,0,0,1,.342,0,.242.242,0,0,1,0,.342L-1.087,2.381A.241.241,0,0,1-1.258,2.452Z" transform="translate(1.5 1.5)"/>
        </g>
        <path id="Trazado_773642" data-name="Trazado 773642" d="M191.336,250.135H189.8a5.109,5.109,0,0,1-2.009-.408,5.219,5.219,0,0,1-2.755-2.754,5.109,5.109,0,0,1-.408-2.009v-2.922a5.078,5.078,0,0,1,.458-2.116,5.2,5.2,0,0,1,1.234-1.695,5.129,5.129,0,0,1,5.959-.722,5.248,5.248,0,0,1,1.829,1.686.242.242,0,1,1-.4.268,4.762,4.762,0,0,0-1.66-1.53,4.647,4.647,0,0,0-5.4.655,4.721,4.721,0,0,0-1.12,1.538,4.6,4.6,0,0,0-.415,1.915v2.922a4.627,4.627,0,0,0,.37,1.819,4.735,4.735,0,0,0,2.5,2.5,4.627,4.627,0,0,0,1.819.37h1.534a.242.242,0,0,1,0,.484Z" transform="translate(-155.804 -202.713)"/>
        <g id="Grupo_1044035" data-name="Grupo 1044035" transform="translate(32.741 38.716)">
          <path id="Línea_161" data-name="Línea 161" d="M-1.258,3.078A.242.242,0,0,1-1.5,2.836V-1.258A.242.242,0,0,1-1.258-1.5a.242.242,0,0,1,.242.242V2.836A.242.242,0,0,1-1.258,3.078Z" transform="translate(4.194 1.5)"/>
          <path id="Línea_162" data-name="Línea 162" d="M1.436-1.016H-1.258A.242.242,0,0,1-1.5-1.258.242.242,0,0,1-1.258-1.5H1.436a.242.242,0,0,1,.242.242A.242.242,0,0,1,1.436-1.016Z" transform="translate(1.5 3.547)"/>
        </g>
        <path id="Trazado_773643" data-name="Trazado 773643" d="M174.908,435.856H145.348a2,2,0,0,1-2-2v-5.8a2,2,0,0,1,2-2h25.407a6.149,6.149,0,0,1,6.154,6.154v1.648a2,2,0,0,1-2,2Zm-29.559-9.32a1.519,1.519,0,0,0-1.517,1.517v5.8a1.519,1.519,0,0,0,1.517,1.517h29.559a1.519,1.519,0,0,0,1.517-1.517v-1.648a5.665,5.665,0,0,0-5.67-5.67Z" transform="translate(-121.183 -361.365)"/>
        <path id="Trazado_773644" data-name="Trazado 773644" d="M146.656,157.958h-17.85a.242.242,0,0,1-.242-.242v-4.124a.242.242,0,0,1,.484,0v3.881h17.365V154.21a2.435,2.435,0,0,1,2.435-2.435h5.658a5.93,5.93,0,0,0,5.935-5.935v-6.874a1.166,1.166,0,0,1,1.164-1.164h1.432a2.1,2.1,0,0,0,1.785-3.193l-2.2-3.583a2.915,2.915,0,0,1-.357-.875,3.052,3.052,0,0,1-.066-.94c.049-.59.074-1.189.074-1.782a21.318,21.318,0,0,0-.412-4.176,21.031,21.031,0,0,0-3.058-7.436,21.224,21.224,0,0,0-8.974-7.669,21.062,21.062,0,0,0-20.085,1.481,21.444,21.444,0,0,0-5.936,5.691,21.217,21.217,0,0,0-2.047,3.614,20.926,20.926,0,0,0-1.791,8.325,21.259,21.259,0,0,0,.548,4.977,21.068,21.068,0,0,0,4.218,8.566,21.32,21.32,0,0,0,3.4,3.317,2.38,2.38,0,0,1,.679.847,2.464,2.464,0,0,1,.239,1.057v1.922a.242.242,0,0,1-.484,0v-1.922a1.977,1.977,0,0,0-.192-.848,1.893,1.893,0,0,0-.54-.674,21.729,21.729,0,0,1-6.116-7.491,21.505,21.505,0,0,1-1.672-4.665,21.716,21.716,0,0,1-.068-9.506,21.444,21.444,0,0,1,1.341-4.1,21.7,21.7,0,0,1,2.094-3.7,21.851,21.851,0,0,1,9.858-7.758,21.454,21.454,0,0,1,8.6-1.476,21.612,21.612,0,0,1,20.887,21.623c0,.606-.026,1.219-.076,1.822a2.487,2.487,0,0,0,.353,1.521l2.2,3.583a2.575,2.575,0,0,1-2.2,3.931h-1.432a.681.681,0,0,0-.68.68v6.874a6.414,6.414,0,0,1-6.419,6.419H148.85a1.951,1.951,0,0,0-1.951,1.951v3.506A.242.242,0,0,1,146.656,157.958Z" transform="translate(-101.171 -92.787)"/>
      </g>
    </g>
  </g>
</svg>
