<svg xmlns="http://www.w3.org/2000/svg" xmlns:xlink="http://www.w3.org/1999/xlink" width="91" height="91" viewBox="0 0 91 91">
  <defs>
    <clipPath id="clip-path">
      <path id="path4788" d="M0-682.665H68v68H0Z" transform="translate(0 682.665)"/>
    </clipPath>
  </defs>
  <g id="Grupo_1044586" data-name="Grupo 1044586" transform="translate(-650 -4716)">
    <rect id="Rectángulo_356047" data-name="Rectángulo 356047" width="91" height="91" rx="10" transform="translate(650 4716)" fill="#edc1e3"/>
    <g id="g4782" transform="translate(662 5410.665)">
      <g id="g4784" transform="translate(0 -682.665)">
        <g id="g4786" clip-path="url(#clip-path)">
          <g id="g4792" transform="translate(38.532 0.996)">
            <path id="path4794" d="M-244.173-122.081a13.507,13.507,0,0,1-13.507,13.507,13.508,13.508,0,0,1-13.265-10.964,13.481,13.481,0,0,1-.24-2.543,13.506,13.506,0,0,1,13.506-13.506,13.512,13.512,0,0,1,12.775,9.11,13.486,13.486,0,0,1,.732,4.4" transform="translate(271.186 135.586)" fill="#ffaf9e"/>
          </g>
          <g id="g4796" transform="translate(50.515 0.996)">
            <path id="path4798" d="M-129.239-82.343a13.512,13.512,0,0,0-12.775-9.11,13.655,13.655,0,0,0-1.522.086,13.518,13.518,0,0,1,11.26,9.024,13.489,13.489,0,0,1,.732,4.4,13.508,13.508,0,0,1-11.978,13.42,13.66,13.66,0,0,0,1.508.087,13.507,13.507,0,0,0,13.507-13.507,13.489,13.489,0,0,0-.732-4.4" transform="translate(143.537 91.453)" fill="#ffa78f"/>
          </g>
          <g id="g4800" transform="translate(2.456 0.996)">
            <path id="path4802" d="M-495.344-494.985-502-483.738l-40.857-20.441a13.193,13.193,0,0,1-7.29-11.8v-33.768h20.79v8.876a75.158,75.158,0,0,1-.558,9.144l-1.543,12.591a1.744,1.744,0,0,0-.012.2,1.636,1.636,0,0,0,1.244,1.586,26.507,26.507,0,0,1,8.941,4.077l17.776,12.532Z" transform="translate(550.144 549.745)" fill="#ffcebf"/>
          </g>
          <g id="g4804" transform="translate(18.096 0.996)">
            <path id="path4806" d="M-353.973-494.985l-.785,1.328-10.414-7.082-17.776-12.532a26.506,26.506,0,0,0-8.941-4.077,1.637,1.637,0,0,1-1.245-1.586,1.738,1.738,0,0,1,.012-.2l1.543-12.591a75.164,75.164,0,0,0,.558-9.144v-8.876h3.037v8.876a75.164,75.164,0,0,1-.558,9.144l-1.543,12.591a1.737,1.737,0,0,0-.012.2,1.636,1.636,0,0,0,1.244,1.586,26.507,26.507,0,0,1,8.941,4.077l17.776,12.532Z" transform="translate(393.132 549.745)" fill="#ffa78f"/>
          </g>
          <g id="g4808" transform="translate(38.772 8.911)">
            <path id="path4810" d="M-242-50.35a13.545,13.545,0,0,1-13.136,13.522,13.508,13.508,0,0,1-13.636-10.959l6.143-2.608a4.545,4.545,0,0,0,2.114-1.833l.9-1.5a4.545,4.545,0,0,1,6.075-1.634l2.89,1.585a4.544,4.544,0,0,0,3.485.37l4.429-1.322A13.487,13.487,0,0,1-242-50.35" transform="translate(268.773 55.92)" fill="#ffeee6"/>
          </g>
          <g id="g4812" transform="translate(50.516 10.106)">
            <path id="path4814" d="M-129.225,0l-2.784.831A13.508,13.508,0,0,1-131.53,4.4a13.508,13.508,0,0,1-11.991,13.422,13.7,13.7,0,0,0,1.892.08A13.545,13.545,0,0,0-128.493,4.376,13.487,13.487,0,0,0-129.225,0" transform="translate(143.521)" fill="#ffdfcf"/>
          </g>
          <g id="g4816" transform="translate(47.031 18.46)">
            <path id="path4818" d="M-27.63-40.383h-1.646a1.411,1.411,0,0,1-1.411-1.411V-43.44a1.411,1.411,0,0,1,1.411-1.411h1.646a1.411,1.411,0,0,1,1.411,1.411v1.646a1.411,1.411,0,0,1-1.411,1.411" transform="translate(30.687 44.851)" fill="#fd8087"/>
          </g>
          <g id="g4820" transform="translate(57.255 15.439)">
            <path id="path4822" d="M-27.63-40.383h-1.646a1.411,1.411,0,0,1-1.411-1.411V-43.44a1.411,1.411,0,0,1,1.411-1.411h1.646a1.411,1.411,0,0,1,1.411,1.411v1.646a1.411,1.411,0,0,1-1.411,1.411" transform="translate(30.687 44.851)" fill="#fd9aa0"/>
          </g>
          <g id="g4824" transform="translate(21.041 33.393)">
            <path id="path4826" d="M-253.579-150.137c-1.278.94-2.941,2.024-4.27,2.865a4.5,4.5,0,0,1-4.556.146,7.2,7.2,0,0,0-2.786-.849l-3.816-.352a5.353,5.353,0,0,1-4.453-3.281l-.058-.14a7.2,7.2,0,0,0-3.033-3.468l-1.7-.986a6.806,6.806,0,0,1-2.9-8.4l.853-2.143a26.507,26.507,0,0,1,8.941,4.077Z" transform="translate(281.632 166.746)" fill="#ffeee6"/>
          </g>
          <g id="g4828" transform="translate(22.049 33.393)">
            <path id="path4830" d="M-56.333-36.856l17.776,12.532,1.517,1.069c.535-.363,1.053-.726,1.52-1.069L-53.3-36.856a26.507,26.507,0,0,0-8.941-4.077l-.328.825a26.508,26.508,0,0,1,6.232,3.253" transform="translate(62.565 40.933)" fill="#ffdfcf"/>
          </g>
          <g id="g4832" transform="translate(38.133 0.598)">
            <path id="path4834" d="M7.491-137.31a.4.4,0,0,1-.4-.4.4.4,0,0,1,.4-.4A13.123,13.123,0,0,0,20.6-151.215a13.085,13.085,0,0,0-.71-4.266,13.112,13.112,0,0,0-12.4-8.841A13.122,13.122,0,0,0-5.616-151.215a13.137,13.137,0,0,0,.233,2.468.4.4,0,0,1-.316.466.4.4,0,0,1-.466-.316,13.936,13.936,0,0,1-.248-2.618,13.92,13.92,0,0,1,13.9-13.9,13.909,13.909,0,0,1,13.152,9.378,13.88,13.88,0,0,1,.753,4.526A13.921,13.921,0,0,1,7.491-137.31Z" transform="translate(6.413 165.12)"/>
          </g>
          <g id="g4836" transform="translate(28.228 24.678)">
            <path id="path4838" d="M-154.279,11.806a.4.4,0,0,1-.282-.117.4.4,0,0,1,0-.563l15.009-15.009a.4.4,0,0,1,.563,0,.4.4,0,0,1,0,.563L-154,11.689A.4.4,0,0,1-154.279,11.806Z" transform="translate(154.677 4)"/>
          </g>
          <g id="g4840" transform="translate(2.057 0.598)">
            <path id="path4842" d="M-3.6-61.587a.4.4,0,0,1-.4-.4v-6.459a.4.4,0,0,1,.4-.4.4.4,0,0,1,.4.4v6.459A.4.4,0,0,1-3.6-61.587Z" transform="translate(4 68.843)"/>
          </g>
          <g id="g4844" transform="translate(2.057 11.756)">
            <path id="path4846" d="M-438.814-499a.4.4,0,0,1-.178-.042l-40.857-20.441a13.518,13.518,0,0,1-7.51-12.155v-22.61a.4.4,0,0,1,.4-.4.4.4,0,0,1,.4.4v22.61a12.726,12.726,0,0,0,7.07,11.443l40.857,20.441a.4.4,0,0,1,.178.535A.4.4,0,0,1-438.814-499Z" transform="translate(487.359 554.648)"/>
          </g>
          <g id="g4848" transform="translate(20.735 0.598)">
            <path id="path4850" d="M11.307,51.557a.4.4,0,0,1-.229-.073L-14.859,33.2a26.006,26.006,0,0,0-8.806-4.016,2.029,2.029,0,0,1-1.548-1.973,2.105,2.105,0,0,1,.015-.247l1.544-12.593a75.031,75.031,0,0,0,.555-9.1V-3.6a.4.4,0,0,1,.4-.4.4.4,0,0,1,.4.4V5.274a75.83,75.83,0,0,1-.561,9.193l-1.543,12.591a1.306,1.306,0,0,0-.009.152,1.234,1.234,0,0,0,.941,1.2A26.8,26.8,0,0,1-14.4,32.547L11.537,50.833a.4.4,0,0,1-.23.724Z" transform="translate(25.213 4)"/>
          </g>
          <g id="g4852" transform="translate(7.131 34.623)">
            <path id="path4854" d="M-.538,2.483a.4.4,0,0,1-.2-.056A6.709,6.709,0,0,1-4-3.308V-3.6A.4.4,0,0,1-3.6-4a.4.4,0,0,1,.4.4v.293A5.908,5.908,0,0,0-.334,1.742.4.4,0,0,1-.2,2.289.4.4,0,0,1-.538,2.483Z" transform="translate(4 4)"/>
          </g>
          <g id="g4856" transform="translate(34.085 46.384)">
            <path id="path4858" d="M-17.754-8.877a.982.982,0,0,1-.982.982.982.982,0,0,1-.982-.982.982.982,0,0,1,.982-.982.982.982,0,0,1,.982.982" transform="translate(19.719 9.859)"/>
          </g>
          <g id="g4860" transform="translate(41.02 48.069)">
            <path id="path4862" d="M-17.754-8.878a.982.982,0,0,1-.982.982.982.982,0,0,1-.982-.982.982.982,0,0,1,.982-.982.982.982,0,0,1,.982.982" transform="translate(19.719 9.86)"/>
          </g>
          <g id="g4864" transform="translate(30.114 41.514)">
            <path id="path4866" d="M-17.753-8.877a.982.982,0,0,1-.982.982.982.982,0,0,1-.982-.982.982.982,0,0,1,.982-.982.982.982,0,0,1,.982.982" transform="translate(19.717 9.859)"/>
          </g>
          <g id="g4868" transform="translate(38.373 8.51)">
            <path id="path4870" d="M-39.157-146.425a13.879,13.879,0,0,1-4.3-.677.4.4,0,0,1-.256-.5.4.4,0,0,1,.5-.256,13.108,13.108,0,0,0,4.411.633A13.188,13.188,0,0,0-26.048-160.35a13.1,13.1,0,0,0-.591-3.884l-4.057,1.211a4.974,4.974,0,0,1-3.79-.4l-2.89-1.585a4.137,4.137,0,0,0-5.542,1.491l-.9,1.5a4.914,4.914,0,0,1-2.3,1.994l-5.843,2.48a13.111,13.111,0,0,0,4.656,7.481.4.4,0,0,1,.064.56.4.4,0,0,1-.56.064,13.9,13.9,0,0,1-5.006-8.269.4.4,0,0,1,.236-.441l6.143-2.607a4.122,4.122,0,0,0,1.929-1.672l.9-1.5a4.932,4.932,0,0,1,6.608-1.778l2.89,1.585a4.172,4.172,0,0,0,3.179.338l4.429-1.322a.4.4,0,0,1,.491.252,13.882,13.882,0,0,1,.753,4.505,13.99,13.99,0,0,1-13.524,13.921Q-38.966-146.425-39.157-146.425Z" transform="translate(52.82 166.323)"/>
          </g>
          <g id="g4872" transform="translate(46.632 18.062)">
            <path id="path4874" d="M-31.231-43.586h-1.646A1.811,1.811,0,0,1-34.687-45.4v-1.646a1.811,1.811,0,0,1,1.809-1.809h1.646a1.811,1.811,0,0,1,1.809,1.809V-45.4A1.811,1.811,0,0,1-31.231-43.586Zm-1.646-4.468a1.014,1.014,0,0,0-1.012,1.012V-45.4a1.014,1.014,0,0,0,1.012,1.012h1.646A1.014,1.014,0,0,0-30.219-45.4v-1.646a1.014,1.014,0,0,0-1.012-1.012Z" transform="translate(34.687 48.851)"/>
          </g>
          <g id="g4876" transform="translate(56.857 15.041)">
            <path id="path4878" d="M-31.231-43.586h-1.646A1.811,1.811,0,0,1-34.687-45.4v-1.646a1.811,1.811,0,0,1,1.809-1.809h1.646a1.811,1.811,0,0,1,1.809,1.809V-45.4A1.811,1.811,0,0,1-31.231-43.586Zm-1.646-4.468a1.014,1.014,0,0,0-1.012,1.012V-45.4a1.014,1.014,0,0,0,1.012,1.013h1.646A1.014,1.014,0,0,0-30.219-45.4v-1.646a1.014,1.014,0,0,0-1.012-1.012Z" transform="translate(34.687 48.851)"/>
          </g>
          <g id="g4880" transform="translate(55.034 22.169)">
            <path id="path4882" d="M-17.753-8.877a.982.982,0,0,1-.982.982.982.982,0,0,1-.982-.982.982.982,0,0,1,.982-.982.982.982,0,0,1,.982.982" transform="translate(19.717 9.859)"/>
          </g>
          <g id="g4884" transform="translate(51.056 12.538)">
            <path id="path4886" d="M-17.753-8.877a.982.982,0,0,1-.982.982.982.982,0,0,1-.982-.982.982.982,0,0,1,.982-.982.982.982,0,0,1,.982.982" transform="translate(19.717 9.859)"/>
          </g>
          <g id="g4888" transform="translate(20.649 32.995)">
            <path id="path4890" d="M.031-75.831a4.894,4.894,0,0,1-2.344-.6,6.765,6.765,0,0,0-2.632-.8l-3.816-.352a5.738,5.738,0,0,1-4.785-3.525l-.058-.139a6.8,6.8,0,0,0-2.345-2.941.4.4,0,0,1-.094-.556.4.4,0,0,1,.556-.094,7.593,7.593,0,0,1,2.619,3.286l.058.14a4.943,4.943,0,0,0,4.122,3.037l3.816.352a7.557,7.557,0,0,1,2.94.9,4.1,4.1,0,0,0,4.152-.133c1.081-.684,2.563-1.644,3.8-2.524L-11.3-92a26,26,0,0,0-8.47-3.931l-.724,1.819a6.447,6.447,0,0,0,1.215,6.685.4.4,0,0,1-.026.563.4.4,0,0,1-.563-.026A7.249,7.249,0,0,1-21.237-94.4l.853-2.143a.4.4,0,0,1,.465-.24,26.8,26.8,0,0,1,9.075,4.139L6.932-80.115a.4.4,0,0,1,.169.322.4.4,0,0,1-.162.325c-1.326.975-3.066,2.1-4.293,2.88A4.889,4.889,0,0,1,.031-75.831Z" transform="translate(21.742 96.798)"/>
          </g>
        </g>
      </g>
    </g>
  </g>
</svg>
