<svg xmlns="http://www.w3.org/2000/svg" xmlns:xlink="http://www.w3.org/1999/xlink" width="91" height="91" viewBox="0 0 91 91">
  <defs>
    <clipPath id="clip-path">
      <path id="path4461" d="M0-682.665H71.319v71.319H0Z" transform="translate(0 682.665)"/>
    </clipPath>
  </defs>
  <g id="Grupo_1044590" data-name="Grupo 1044590" transform="translate(-1070 -4716)">
    <rect id="Rectángulo_356051" data-name="Rectángulo 356051" width="91" height="91" rx="10" transform="translate(1070 4716)" fill="#edc1e3"/>
    <g id="g4455" transform="translate(1080 5408.665)">
      <g id="g4457" transform="translate(0 -682.665)">
        <g id="g4459" clip-path="url(#clip-path)">
          <g id="g4465" transform="translate(14.577 1.469)">
            <path id="path4467" d="M-50.224-162.876a23.782,23.782,0,0,1-.442,2.474,23.859,23.859,0,0,0-.624,4.921,23.4,23.4,0,0,0,6.922,17.138,23.514,23.514,0,0,0,17.18,6.906,29.271,29.271,0,0,1,.742-5.185,17.379,17.379,0,0,0,.359-2.171,16.23,16.23,0,0,1-9.769-2.116,16.607,16.607,0,0,1-3.352-2.585,16.133,16.133,0,0,1-4.707-13.088,16.479,16.479,0,0,1,.359-2.171,29.679,29.679,0,0,0,.742-5.189c.328-6.564-1.769-12.915-7.415-17.2a3.662,3.662,0,0,0-5.113.693,3.648,3.648,0,0,0,.695,5.106,11.15,11.15,0,0,1,2.46,2.561,14.194,14.194,0,0,1,1.962,9.9" transform="translate(56.083 181.877)" fill="#33d6f5" fill-rule="evenodd"/>
          </g>
          <g id="g4469" transform="translate(40.542 27.234)">
            <path id="path4471" d="M-25.116-211.511c-.332,6.564,1.765,12.918,7.412,17.2a3.658,3.658,0,0,0,2.2.741h.016a3.663,3.663,0,0,0,2.906-1.438,3.64,3.64,0,0,0-.7-5.1,11.23,11.23,0,0,1-2.46-2.561,14.2,14.2,0,0,1-1.962-9.9,22.8,22.8,0,0,1,.446-2.474,24.165,24.165,0,0,0,.62-4.921A23.334,23.334,0,0,0-21.526-234.8a3.666,3.666,0,0,0-5.125-.618,3.647,3.647,0,0,0-.62,5.114,15.839,15.839,0,0,1,1.137,1.69,16.118,16.118,0,0,1,2.12,9.743,17.379,17.379,0,0,1-.359,2.171,29.258,29.258,0,0,0-.742,5.185" transform="translate(28.046 236.186)" fill="#ff7b79" fill-rule="evenodd"/>
          </g>
          <g id="g4473" transform="translate(50.88 43.422)">
            <path id="path4475" d="M0-63.671a14.292,14.292,0,0,1,9.927,1.954,11.241,11.241,0,0,1,2.567,2.455,3.659,3.659,0,0,0,5.113.7,3.645,3.645,0,0,0,.7-5.106c-4.3-5.634-10.661-7.722-17.239-7.395a24.167,24.167,0,0,1-.62,4.921A22.8,22.8,0,0,0,0-63.671" transform="translate(0 71.099)" fill="#33d6f5" fill-rule="evenodd"/>
          </g>
          <g id="g4477" transform="translate(26.746 19.401)">
            <path id="path4479" d="M0-63.129a16.343,16.343,0,0,1,3.877.075,3.66,3.66,0,0,0,4.2-3A3.655,3.655,0,0,0,5.07-70.24,23.766,23.766,0,0,0,1.1-70.489,29.678,29.678,0,0,1,.359-65.3,16.473,16.473,0,0,0,0-63.129" transform="translate(0 70.494)" fill="#ff7b79" fill-rule="evenodd"/>
          </g>
          <g id="g4481" transform="translate(1.393 14.624)">
            <path id="path4483" d="M-6.36-50.079c4.292,5.634,10.657,7.726,17.235,7.4A23.859,23.859,0,0,1,11.5-47.6a23.848,23.848,0,0,0,.442-2.474,14.278,14.278,0,0,1-9.923-1.958A10.993,10.993,0,0,1-.547-54.487a3.668,3.668,0,0,0-5.117-.693,3.643,3.643,0,0,0-.695,5.1" transform="translate(7.102 55.921)" fill="#ff7b79" fill-rule="evenodd"/>
          </g>
          <g id="g4485" transform="translate(55.551 21.552)">
            <path id="path4487" d="M-8.053-52.157a16.036,16.036,0,0,1,3.577,5.89A3.679,3.679,0,0,0,.4-44.506a3.663,3.663,0,0,0,1.765-4.862,23.349,23.349,0,0,0-4.8-7.682A3.668,3.668,0,0,0-7.8-57.3a3.649,3.649,0,0,0-.257,5.145" transform="translate(8.993 58.241)" fill="#ff7b79" fill-rule="evenodd"/>
          </g>
          <g id="g4489" transform="translate(55.997 1.469)">
            <path id="path4491" d="M0-32.116a3.753,3.753,0,0,0,3.755,3.751A3.753,3.753,0,0,0,7.51-32.116a3.752,3.752,0,0,0-3.755-3.747A3.752,3.752,0,0,0,0-32.116" transform="translate(0 35.863)" fill="#ffbdbc" fill-rule="evenodd"/>
          </g>
          <g id="g4493" transform="translate(5.586 45.968)">
            <path id="path4495" d="M0-32.151A3.753,3.753,0,0,0,3.759-28.4a3.752,3.752,0,0,0,3.755-3.747A3.753,3.753,0,0,0,3.759-35.9,3.754,3.754,0,0,0,0-32.151" transform="translate(0 35.901)" fill="#ffbdbc" fill-rule="evenodd"/>
          </g>
          <g id="g4497" transform="translate(14.263 1.154)">
            <path id="path4499" d="M-298.47-419.824a3.959,3.959,0,0,1-3.159-1.562,20.3,20.3,0,0,0-4.157-3.8,22.806,22.806,0,0,1-7.3-8.045.314.314,0,0,1,0-.3.313.313,0,0,1,.257-.158c5.174-.257,12.41.838,17.5,7.518a3.92,3.92,0,0,1,.77,2.924,3.934,3.934,0,0,1-1.528,2.621A3.946,3.946,0,0,1-298.47-419.824Zm-13.821-13.263a22.182,22.182,0,0,0,6.884,7.4,20.779,20.779,0,0,1,4.277,3.922,3.342,3.342,0,0,0,4.674.638,3.311,3.311,0,0,0,1.286-2.206,3.3,3.3,0,0,0-.647-2.46C-300.584-432.045-307.31-433.24-312.291-433.086Zm-9.31,8.478c-1.4,0-4.633-.134-4.856-.542a.328.328,0,0,1,.015-.333c.121-.18.217-.322,5.2.248a.313.313,0,0,1,.277.326.313.313,0,0,1-.306.3C-321.366-424.609-321.477-424.608-321.6-424.608Zm-.177-7.28a16.589,16.589,0,0,1-11.743-4.87,16.53,16.53,0,0,1-4.431-15.552c2.152-9.229-.238-17.272-6.557-22.065a3.344,3.344,0,0,0-4.675.634,3.309,3.309,0,0,0-.647,2.466,3.3,3.3,0,0,0,1.282,2.2c5.657,4.29,4.994,11.4,4.1,15.256a23.146,23.146,0,0,0,2.431,16.832.313.313,0,0,1-.116.428.313.313,0,0,1-.428-.116,23.771,23.771,0,0,1-2.5-17.286c.864-3.708,1.511-10.538-3.864-14.615a3.924,3.924,0,0,1-1.524-2.616,3.932,3.932,0,0,1,.769-2.93,3.972,3.972,0,0,1,5.552-.753c6.525,4.949,9,13.225,6.789,22.706a15.907,15.907,0,0,0,4.264,14.966,15.967,15.967,0,0,0,12.869,4.61.313.313,0,0,1,.342.281.313.313,0,0,1-.281.342Q-320.966-431.888-321.779-431.888Z" transform="translate(350.49 475.679)"/>
          </g>
          <g id="g4501" transform="translate(55.237 21.238)">
            <path id="path4503" d="M-38.076-102.915a4,4,0,0,1-3.613-2.284A15.7,15.7,0,0,0-45.209-111a3.93,3.93,0,0,1-1.021-2.859,3.922,3.922,0,0,1,1.294-2.735,3.95,3.95,0,0,1,2.657-1.02,3.987,3.987,0,0,1,2.942,1.294,23.578,23.578,0,0,1,4.863,7.782,3.909,3.909,0,0,1,.126,3.007,3.943,3.943,0,0,1-2.052,2.25A3.943,3.943,0,0,1-38.076-102.915Zm-4.2-14.078a3.325,3.325,0,0,0-2.236.858,3.3,3.3,0,0,0-1.089,2.3,3.3,3.3,0,0,0,.854,2.4,16.245,16.245,0,0,1,3.642,6,3.363,3.363,0,0,0,3.032,1.891,3.291,3.291,0,0,0,1.411-.313,3.321,3.321,0,0,0,1.727-1.895,3.3,3.3,0,0,0-.113-2.549,23.009,23.009,0,0,0-4.746-7.6A3.361,3.361,0,0,0-42.279-116.993Z" transform="translate(46.236 117.619)"/>
          </g>
          <g id="g4505" transform="translate(1.079 14.31)">
            <path id="path4507" d="M-228.685-105.327c-6.745,0-12.459-2.654-16.192-7.555a3.922,3.922,0,0,1-.77-2.926,3.924,3.924,0,0,1,1.524-2.616,3.98,3.98,0,0,1,5.556.753c3.331,4.372,8.474,4.747,12.2,4.292a.313.313,0,0,1,.349.273.313.313,0,0,1-.273.349c-3.891.475-9.265.074-12.776-4.534a3.351,3.351,0,0,0-4.679-.634,3.3,3.3,0,0,0-1.282,2.2,3.3,3.3,0,0,0,.647,2.462c4.926,6.466,11.948,7.525,16.971,7.276a.313.313,0,0,1,.329.3.313.313,0,0,1-.3.329C-227.816-105.337-228.253-105.327-228.685-105.327Zm13.145-1.007a3.983,3.983,0,0,1-.65-.054c-1.688-.231-2.848-.915-3.038-7.735a.313.313,0,0,1,.086-.225.313.313,0,0,1,.22-.1,24.156,24.156,0,0,1,4.02.251,3.94,3.94,0,0,1,2.576,1.6,3.922,3.922,0,0,1,.692,2.947A3.967,3.967,0,0,1-215.54-106.334Zm-3.052-7.488c.216,6.5,1.335,6.656,2.417,6.8a3.362,3.362,0,0,0,3.924-2.728,3.3,3.3,0,0,0-.583-2.479A3.314,3.314,0,0,0-215-113.574,23.482,23.482,0,0,0-218.592-113.822Z" transform="translate(245.684 119.227)"/>
          </g>
          <g id="g4509" transform="translate(40.228 26.921)">
            <path id="path4511" d="M-61.453-16.313A3.937,3.937,0,0,1-58.328-14.8,23.768,23.768,0,0,1-54,5.212c-.867,3.708-1.518,10.537,3.86,14.615a3.923,3.923,0,0,1,1.528,2.615,3.919,3.919,0,0,1-.769,2.927,3.947,3.947,0,0,1-3.164,1.561,3.926,3.926,0,0,1-2.392-.8c-6.526-4.951-9-13.227-6.785-22.707A15.9,15.9,0,0,0-64.568-9.923a3.918,3.918,0,0,1-.81-2.913,3.92,3.92,0,0,1,1.486-2.638A3.919,3.919,0,0,1-61.453-16.313Zm8.9,42.616a3.325,3.325,0,0,0,2.665-1.314,3.3,3.3,0,0,0,.646-2.462,3.3,3.3,0,0,0-1.285-2.2c-5.66-4.292-4.993-11.4-4.092-15.257a23.143,23.143,0,0,0-4.207-19.487,3.319,3.319,0,0,0-2.631-1.269h0a3.3,3.3,0,0,0-2.053.706,3.3,3.3,0,0,0-1.249,2.22,3.3,3.3,0,0,0,.683,2.453A16.521,16.521,0,0,1-61.116,3.561c-2.156,9.228.233,17.27,6.553,22.065A3.3,3.3,0,0,0-52.549,26.3Z" transform="translate(65.407 16.313)"/>
          </g>
          <g id="g4513" transform="translate(34.492 34.497)">
            <path id="path4515" d="M-2.687-67.755a.312.312,0,0,1-.222-.092.313.313,0,0,1,0-.443L4.74-75.918a.313.313,0,0,1,.443,0,.313.313,0,0,1,0,.443l-7.648,7.627A.312.312,0,0,1-2.687-67.755Z" transform="translate(3 76.009)"/>
          </g>
          <g id="g4517" transform="translate(10.2 10.256)">
            <path id="path4519" d="M-2.687-70.457a.312.312,0,0,1-.222-.092.313.313,0,0,1,0-.443l7.96-7.943a.313.313,0,0,1,.443,0,.313.313,0,0,1,0,.443l-7.96,7.943A.312.312,0,0,1-2.687-70.457Z" transform="translate(3 79.026)"/>
          </g>
          <g id="g4521" transform="translate(52.528 52.49)">
            <path id="path4523" d="M-2.687-70.49a.312.312,0,0,1-.222-.092.313.313,0,0,1,0-.443l7.964-7.947a.313.313,0,0,1,.443,0,.313.313,0,0,1,0,.443l-7.964,7.947A.312.312,0,0,1-2.687-70.49Z" transform="translate(3 79.064)"/>
          </g>
          <g id="g4525" transform="translate(42.278 11.729)">
            <path id="path4527" d="M-20.111,2.622a.313.313,0,0,1-.107-.019.313.313,0,0,1-.187-.4l1.82-5a.313.313,0,0,1,.4-.187.313.313,0,0,1,.187.4l-1.82,5A.314.314,0,0,1-20.111,2.622Z" transform="translate(20.425 3.001)"/>
          </g>
          <g id="g4529" transform="translate(36.245 8.877)">
            <path id="path4531" d="M-1.894,3.576A.313.313,0,0,1-2.2,3.3L-3-2.645A.313.313,0,0,1-2.728-3a.313.313,0,0,1,.352.269l.794,5.949a.313.313,0,0,1-.269.352Z" transform="translate(3 3)"/>
          </g>
          <g id="g4533" transform="translate(47.514 14.578)">
            <path id="path4535" d="M-45.168,1.673a.313.313,0,0,1-.232-.1.313.313,0,0,1,.02-.443l4.438-4.046a.313.313,0,0,1,.443.02.313.313,0,0,1-.02.443l-4.438,4.046A.312.312,0,0,1-45.168,1.673Z" transform="translate(45.481 3)"/>
          </g>
          <g id="g4537" transform="translate(55.683 1.155)">
            <path id="path4539" d="M-34.875-66.64A4.071,4.071,0,0,1-38.944-70.7a4.069,4.069,0,0,1,4.069-4.06,4.069,4.069,0,0,1,4.068,4.06A4.071,4.071,0,0,1-34.875-66.64Zm0-7.5A3.441,3.441,0,0,0-38.317-70.7a3.443,3.443,0,0,0,3.442,3.437A3.443,3.443,0,0,0-31.434-70.7,3.441,3.441,0,0,0-34.875-74.137Z" transform="translate(38.944 74.764)"/>
          </g>
          <g id="g4541" transform="translate(5.272 45.655)">
            <path id="path4543" d="M-34.908-66.64A4.071,4.071,0,0,1-38.98-70.7a4.073,4.073,0,0,1,4.072-4.064A4.071,4.071,0,0,1-30.839-70.7,4.069,4.069,0,0,1-34.908-66.64Zm0-7.5A3.445,3.445,0,0,0-38.353-70.7a3.443,3.443,0,0,0,3.445,3.433A3.441,3.441,0,0,0-31.466-70.7,3.443,3.443,0,0,0-34.908-74.137Z" transform="translate(38.98 74.764)"/>
          </g>
          <g id="g4545" transform="translate(25.978 44.689)">
            <path id="path4547" d="M-2.725-2.445A.307.307,0,0,1-3-2.617l0-.008a.313.313,0,0,1,.143-.419.313.313,0,0,1,.419.143.317.317,0,0,1-.141.423A.319.319,0,0,1-2.725-2.445Z" transform="translate(3.038 3.077)"/>
          </g>
        </g>
      </g>
    </g>
  </g>
</svg>
