<svg xmlns="http://www.w3.org/2000/svg" width="110" height="110" viewBox="0 0 110 110">
  <g id="Grupo_1044041" data-name="Grupo 1044041" transform="translate(-1165 -901)">
    <g id="Grupo_1043392" data-name="Grupo 1043392" transform="translate(837 18)">
      <circle id="Elipse_4711" data-name="Elipse 4711" cx="55" cy="55" r="55" transform="translate(328 883)" fill="#3449bc"/>
    </g>
    <g id="Layer_2" transform="translate(1179.48 915.476)">
      <g id="Grupo_1044040" data-name="Grupo 1044040" transform="translate(2.52 2.524)">
        <path id="Trazado_773633" data-name="Trazado 773633" d="M61.471,38.76A20.1,20.1,0,0,0,44.569,48,20.124,20.124,0,0,0,7.52,58.906c0,16.3,34.182,39.471,37.048,42.062,2.866-2.591,37.049-25.759,37.049-42.061A20.147,20.147,0,0,0,61.471,38.76Z" transform="translate(-6.774 -33.356)" fill="#e15f4f"/>
        <g id="Grupo_1044038" data-name="Grupo 1044038" transform="translate(0.746 5.403)">
          <path id="Trazado_773634" data-name="Trazado 773634" d="M269.393,48a20.119,20.119,0,0,1,15.172-9.16c-.575-.049-1.157-.076-1.745-.076a20.038,20.038,0,0,0-15.164,6.93A20.351,20.351,0,0,1,269.393,48Z" transform="translate(-228.869 -38.763)" fill="#ca4336"/>
          <path id="Trazado_773635" data-name="Trazado 773635" d="M11,58.907A20.148,20.148,0,0,1,29.4,38.836c-.57-.049-1.147-.076-1.73-.076A20.147,20.147,0,0,0,7.52,58.907c0,16.3,34.182,39.471,37.048,42.062.287-.259.889-.726,1.738-1.37C38.674,93.807,11,73.577,11,58.907Z" transform="translate(-7.52 -38.76)" fill="#ca4336"/>
        </g>
        <path id="Trazado_773636" data-name="Trazado 773636" d="M278.873,295.294H256V275.915a4.9,4.9,0,0,1,4.9-4.9h13.079a4.9,4.9,0,0,1,4.9,4.9Z" transform="translate(-218.206 -230.985)" fill="#cdcdc6"/>
        <circle id="Elipse_4979" data-name="Elipse 4979" cx="8.43" cy="8.43" r="8.43" transform="translate(40.8 23.172)" fill="#ffcebf"/>
        <path id="Trazado_773637" data-name="Trazado 773637" d="M279.635,166.365a8.433,8.433,0,0,1,6.693-8.25,8.43,8.43,0,1,0,0,16.5,8.433,8.433,0,0,1-6.693-8.25Z" transform="translate(-235.36 -134.762)" fill="#ffb09e"/>
        <path id="Trazado_773638" data-name="Trazado 773638" d="M125.469,295.294H102.6V275.915a4.9,4.9,0,0,1,4.9-4.9h13.079a4.9,4.9,0,0,1,4.9,4.9Z" transform="translate(-87.675 -230.985)" fill="#4eb7a2"/>
        <circle id="Elipse_4980" data-name="Elipse 4980" cx="8.43" cy="8.43" r="8.43" transform="translate(17.927 23.172)" fill="#ffcebf"/>
        <path id="Trazado_773639" data-name="Trazado 773639" d="M126.231,166.365a8.433,8.433,0,0,1,6.693-8.25,8.43,8.43,0,1,0,0,16.5,8.433,8.433,0,0,1-6.693-8.25Z" transform="translate(-104.829 -134.762)" fill="#ffb09e"/>
        <path id="Trazado_773640" data-name="Trazado 773640" d="M202.171,415.148H179.3V404.392a4.9,4.9,0,0,1,4.9-4.9h13.079a4.9,4.9,0,0,1,4.9,4.9Z" transform="translate(-152.94 -340.306)" fill="#68c0e0"/>
        <path id="Trazado_773641" data-name="Trazado 773641" d="M187.67,399.494H184.2a4.9,4.9,0,0,0-4.9,4.9v10.756h3.475V404.391A4.9,4.9,0,0,1,187.67,399.494Z" transform="translate(-152.94 -340.305)" fill="#3282a1"/>
        <circle id="Elipse_4981" data-name="Elipse 4981" cx="8.43" cy="8.43" r="8.43" transform="translate(29.364 42.328)" fill="#ffcebf"/>
        <path id="Trazado_773642" data-name="Trazado 773642" d="M202.933,294.841a8.433,8.433,0,0,1,6.693-8.25,8.43,8.43,0,1,0,0,16.5A8.433,8.433,0,0,1,202.933,294.841Z" transform="translate(-170.094 -244.083)" fill="#ffb09e"/>
        <path id="Trazado_773643" data-name="Trazado 773643" d="M48.766,415.148H25.893V404.392a4.9,4.9,0,0,1,4.9-4.9H43.869a4.9,4.9,0,0,1,4.9,4.9v10.756Z" transform="translate(-22.408 -340.306)" fill="#f8d250"/>
        <path id="Trazado_773644" data-name="Trazado 773644" d="M34.266,399.494H30.791a4.9,4.9,0,0,0-4.9,4.9v10.756h3.475V404.391A4.9,4.9,0,0,1,34.266,399.494Z" transform="translate(-22.409 -340.305)" fill="#f8ae46"/>
        <circle id="Elipse_4982" data-name="Elipse 4982" cx="8.43" cy="8.43" r="8.43" transform="translate(6.491 42.328)" fill="#ffcebf"/>
        <path id="Trazado_773645" data-name="Trazado 773645" d="M49.528,294.841a8.433,8.433,0,0,1,6.693-8.25,8.43,8.43,0,1,0,0,16.5A8.433,8.433,0,0,1,49.528,294.841Z" transform="translate(-39.562 -244.083)" fill="#ffb09e"/>
        <path id="Trazado_773646" data-name="Trazado 773646" d="M355.575,415.148H332.7V404.392a4.9,4.9,0,0,1,4.9-4.9h13.079a4.9,4.9,0,0,1,4.9,4.9v10.756Z" transform="translate(-283.471 -340.306)" fill="#e15f4f"/>
        <path id="Trazado_773647" data-name="Trazado 773647" d="M341.074,399.494H337.6a4.9,4.9,0,0,0-4.9,4.9v10.756h3.475V404.391A4.9,4.9,0,0,1,341.074,399.494Z" transform="translate(-283.471 -340.305)" fill="#ca4336"/>
        <circle id="Elipse_4983" data-name="Elipse 4983" cx="8.43" cy="8.43" r="8.43" transform="translate(52.236 42.328)" fill="#ffcebf"/>
        <path id="Trazado_773648" data-name="Trazado 773648" d="M356.337,294.841a8.433,8.433,0,0,1,6.693-8.25,8.43,8.43,0,1,0,0,16.5A8.433,8.433,0,0,1,356.337,294.841Z" transform="translate(-300.626 -244.083)" fill="#ffb09e"/>
        <path id="Trazado_773649" data-name="Trazado 773649" d="M206.51,28.832c-5.248-1.891-8.672-6.357-8.672-11.312V10.57l8.672-3.047,8.672,3.047v6.949C215.182,22.475,211.758,26.941,206.51,28.832Z" transform="translate(-168.716 -6.778)" fill="#f8d250"/>
        <path id="Trazado_773650" data-name="Trazado 773650" d="M201.313,17.519V10.57l6.934-2.437-1.738-.611-8.672,3.047v6.949c0,4.955,3.424,9.422,8.672,11.312a14.939,14.939,0,0,0,1.738-.754A12.04,12.04,0,0,1,201.313,17.519Z" transform="translate(-168.716 -6.778)" fill="#f8ae46"/>
        <path id="Trazado_773651" data-name="Trazado 773651" d="M233.548,44.782h-2.92v-2.92h-3.7v2.92h-2.92v3.7h2.92V51.4h3.7v-2.92h2.92Z" transform="translate(-190.984 -35.997)" fill="#68c0e0"/>
        <g id="Grupo_1044039" data-name="Grupo 1044039" transform="translate(0 0)">
          <path id="Trazado_773652" data-name="Trazado 773652" d="M69.726,60.967H68.192a9.163,9.163,0,0,0,.753-14.822c6.083-7,9.163-13.06,9.164-18.07A20.893,20.893,0,0,0,57.216,7.182h0a20.784,20.784,0,0,0-7.484,1.391V6.317a.745.745,0,0,0-.5-.7L40.561,2.566a.745.745,0,0,0-.494,0L31.395,5.614a.745.745,0,0,0-.5.7V8.572a20.791,20.791,0,0,0-7.484-1.39h0A20.917,20.917,0,0,0,2.52,28.074c0,5.011,3.079,11.074,9.163,18.072a9.163,9.163,0,0,0,.754,14.822H10.9A5.649,5.649,0,0,0,5.26,66.61V77.366a.745.745,0,0,0,.746.746H74.623a.745.745,0,0,0,.746-.746V66.61A5.649,5.649,0,0,0,69.726,60.967Zm1.146-7.685A7.685,7.685,0,1,1,63.187,45.6,7.694,7.694,0,0,1,70.872,53.283Zm-38.243,0a7.685,7.685,0,1,1,7.685,7.685A7.694,7.694,0,0,1,32.629,53.283Zm2.68,7.685H33.775a5.645,5.645,0,0,0-4.9,2.845,5.645,5.645,0,0,0-4.9-2.845H22.446A9.17,9.17,0,0,0,19.576,44.36,4.133,4.133,0,0,1,22.339,43.3H35.417a4.131,4.131,0,0,1,2.762,1.058,9.17,9.17,0,0,0-2.87,16.607ZM49.49,53.283a9.19,9.19,0,0,0-7.042-8.923A4.132,4.132,0,0,1,45.211,43.3H58.29a4.132,4.132,0,0,1,2.763,1.057,9.17,9.17,0,0,0-2.87,16.607H56.648a5.645,5.645,0,0,0-4.9,2.845,5.645,5.645,0,0,0-4.9-2.845H45.319A9.174,9.174,0,0,0,49.49,53.283ZM32.388,6.845,40.314,4.06l7.927,2.785v6.421c0,4.577-3.1,8.679-7.927,10.517-4.825-1.839-7.927-5.941-7.927-10.517ZM4.011,28.074A19.39,19.39,0,0,1,30.9,10.18v3.086c0,5.292,3.6,10.008,9.165,12.014a.746.746,0,0,0,.505,0c5.567-2.006,9.165-6.722,9.165-12.014V10.18A19.4,19.4,0,0,1,76.617,28.075c0,4.687-3,10.467-8.911,17.227a9.116,9.116,0,0,0-4.52-1.2c-.119,0-.237,0-.355.009a5.635,5.635,0,0,0-4.543-2.3H56.755a9.176,9.176,0,1,0-10.01,0H45.211a5.635,5.635,0,0,0-4.542,2.3c-.118,0-.236-.009-.355-.009s-.236,0-.353.009a5.636,5.636,0,0,0-4.544-2.3H33.883a9.176,9.176,0,1,0-10.01,0H22.339a5.636,5.636,0,0,0-4.543,2.3c-.118,0-.236-.009-.354-.009a9.116,9.116,0,0,0-4.521,1.2C7,38.541,4.011,32.761,4.011,28.074Zm47.74,13.738a7.685,7.685,0,1,1,7.685-7.685A7.694,7.694,0,0,1,51.751,41.812Zm-22.873,0a7.685,7.685,0,1,1,7.685-7.685,7.694,7.694,0,0,1-7.685,7.685ZM9.756,53.283a7.685,7.685,0,1,1,7.685,7.685A7.694,7.694,0,0,1,9.756,53.283ZM6.751,66.61A4.156,4.156,0,0,1,10.9,62.458H23.981a4.156,4.156,0,0,1,4.152,4.152v10.01H6.751Zm22.873,0a4.156,4.156,0,0,1,4.152-4.152H46.853a4.156,4.156,0,0,1,4.152,4.152v10.01H29.623Zm44.254,10.01H52.5V66.61a4.156,4.156,0,0,1,4.152-4.152H69.726a4.156,4.156,0,0,1,4.152,4.152Z" transform="translate(-2.52 -2.524)"/>
          <path id="Trazado_773653" data-name="Trazado 773653" d="M221.928,47.147a.745.745,0,0,0,.746.746h3.7a.746.746,0,0,0,.746-.746V44.973h2.174a.746.746,0,0,0,.746-.746v-3.7a.746.746,0,0,0-.746-.746H227.12V37.607a.746.746,0,0,0-.746-.746h-3.7a.745.745,0,0,0-.746.746v2.174h-2.174a.745.745,0,0,0-.746.746v3.7a.745.745,0,0,0,.746.746h2.174ZM220.5,43.482v-2.21h2.174a.746.746,0,0,0,.746-.746V38.352h2.21v2.174a.745.745,0,0,0,.746.746h2.174v2.21h-2.174a.745.745,0,0,0-.746.746V46.4h-2.21V44.227a.746.746,0,0,0-.746-.746Z" transform="translate(-186.729 -31.741)"/>
        </g>
      </g>
    </g>
  </g>
</svg>
