<svg xmlns="http://www.w3.org/2000/svg" width="91" height="91" viewBox="0 0 91 91">
  <g id="Grupo_1044589" data-name="Grupo 1044589" transform="translate(-860 -4716)">
    <rect id="Rectángulo_356050" data-name="Rectángulo 356050" width="91" height="91" rx="10" transform="translate(860 4716)" fill="#edc1e3"/>
    <g id="grupo-de-edad" transform="translate(874 4708.828)">
      <g id="Grupo_1044587" data-name="Grupo 1044587" transform="translate(0.924 25.096)">
        <path id="Trazado_774484" data-name="Trazado 774484" d="M25.027,252.031a7.393,7.393,0,0,0-7.393-7.393h-2.74A7.393,7.393,0,0,0,7.5,252.031v5.909A2.464,2.464,0,0,0,9.964,260.4h.316v13.429H21.37V260.4h1.192a2.464,2.464,0,0,0,2.464-2.464Z" transform="translate(-7.5 -218.396)" fill="#f96491"/>
        <path id="Trazado_774485" data-name="Trazado 774485" d="M72.2,244.637H69.736a7.393,7.393,0,0,1,7.393,7.393v5.909H73.473v15.893h2.464V260.4h1.192a2.464,2.464,0,0,0,2.464-2.464V252.03A7.393,7.393,0,0,0,72.2,244.637Z" transform="translate(-62.067 -218.395)" fill="#f93a79"/>
        <circle id="Elipse_5022" data-name="Elipse 5022" cx="6.285" cy="6.285" r="6.285" transform="translate(2.463 13.554)" fill="#f96491"/>
        <path id="Trazado_774486" data-name="Trazado 774486" d="M69.732,141.673a6.313,6.313,0,0,0-1.232.122,6.286,6.286,0,0,1,0,12.328,6.286,6.286,0,1,0,1.232-12.449Z" transform="translate(-60.983 -128.119)" fill="#f93a79"/>
        <path id="Trazado_774487" data-name="Trazado 774487" d="M202.764,202.031a7.393,7.393,0,0,0-7.393-7.393h-2.74a7.393,7.393,0,0,0-7.393,7.393v9.236a2.464,2.464,0,0,0,2.464,2.464h.587v16.263h11.09V213.732h.921a2.464,2.464,0,0,0,2.464-2.464Z" transform="translate(-163.336 -174.557)" fill="#fff08a"/>
        <path id="Trazado_774488" data-name="Trazado 774488" d="M249.937,194.637h-2.464a7.393,7.393,0,0,1,7.393,7.393v9.236h-3.385v18.727h2.464V213.731h.921a2.464,2.464,0,0,0,2.464-2.464V202.03A7.393,7.393,0,0,0,249.937,194.637Z" transform="translate(-217.903 -174.556)" fill="#ffc472"/>
        <circle id="Elipse_5023" data-name="Elipse 5023" cx="6.285" cy="6.285" r="6.285" transform="translate(24.365 7.393)" fill="#fff08a"/>
        <path id="Trazado_774489" data-name="Trazado 774489" d="M247.468,91.673a6.313,6.313,0,0,0-1.232.121,6.286,6.286,0,0,1,0,12.328,6.286,6.286,0,1,0,1.232-12.449Z" transform="translate(-216.818 -84.28)" fill="#ffc472"/>
        <path id="Trazado_774490" data-name="Trazado 774490" d="M381.033,142.031a7.393,7.393,0,0,0-7.393-7.393H370.9a7.393,7.393,0,0,0-7.393,7.393V155.21a2.464,2.464,0,0,0,2.464,2.464h.793v19.713h11.09V157.675h.715a2.464,2.464,0,0,0,2.464-2.464V142.031Z" transform="translate(-319.638 -121.95)" fill="#8ae897"/>
        <path id="Trazado_774491" data-name="Trazado 774491" d="M428.206,134.637h-2.464a7.393,7.393,0,0,1,7.393,7.393v13.179h-3.18v22.177h2.464V157.674h.715a2.464,2.464,0,0,0,2.464-2.464V142.03A7.393,7.393,0,0,0,428.206,134.637Z" transform="translate(-374.205 -121.95)" fill="#69bdc6"/>
        <circle id="Elipse_5024" data-name="Elipse 5024" cx="6.285" cy="6.285" r="6.285" transform="translate(46.331 0)" fill="#8ae897"/>
        <path id="Trazado_774492" data-name="Trazado 774492" d="M425.737,31.673a6.313,6.313,0,0,0-1.232.121,6.286,6.286,0,0,1,0,12.328,6.286,6.286,0,1,0,1.232-12.449Z" transform="translate(-373.121 -31.673)" fill="#69bdc6"/>
      </g>
      <g id="Grupo_1044588" data-name="Grupo 1044588" transform="translate(0 24.172)">
        <path id="Trazado_774493" data-name="Trazado 774493" d="M369.769,37.314a7.208,7.208,0,0,0,2.343-9.19l-1.648.836a5.3,5.3,0,0,1,.576,2.421,5.361,5.361,0,1,1-1.531-3.751l1.32-1.293A7.208,7.208,0,1,0,361.6,37.321a8.33,8.33,0,0,0-5.592,7.857V58.356a3.393,3.393,0,0,0,3.257,3.386V81.458H372.2V61.739a3.393,3.393,0,0,0,3.18-3.382V45.177a8.331,8.331,0,0,0-5.612-7.863Zm3.763,21.042a1.542,1.542,0,0,1-1.54,1.54h-1.639V79.609h-3.735v-16.4h-1.848v16.4h-3.658V59.9h-1.717a1.542,1.542,0,0,1-1.54-1.54V45.177a6.476,6.476,0,0,1,6.469-6.469h2.74a6.476,6.476,0,0,1,6.469,6.469V58.356Z" transform="translate(-312.138 -24.172)"/>
        <path id="Trazado_774494" data-name="Trazado 774494" d="M191.5,97.315a7.209,7.209,0,1,0-8.171.007,8.33,8.33,0,0,0-5.592,7.857v9.236a3.393,3.393,0,0,0,3.051,3.372v16.279h12.938V117.8a3.393,3.393,0,0,0,3.385-3.389v-5.3h-1.848v5.3a1.542,1.542,0,0,1-1.54,1.54h-1.845v16.263h-3.7v-12.7h-1.848v12.7h-3.689V115.954h-1.511a1.542,1.542,0,0,1-1.54-1.54v-9.236a6.476,6.476,0,0,1,6.469-6.469h2.74a6.476,6.476,0,0,1,6.469,6.469v2.093h1.848v-2.093A8.33,8.33,0,0,0,191.5,97.315Zm-9.452-5.932a5.361,5.361,0,1,1,5.361,5.361A5.367,5.367,0,0,1,182.049,91.383Z" transform="translate(-155.836 -76.78)"/>
        <path id="Trazado_774495" data-name="Trazado 774495" d="M13.763,147.315a7.209,7.209,0,1,0-8.172.006,8.337,8.337,0,0,0-4.532,3.791l1.612.9a6.483,6.483,0,0,1,5.646-3.308h2.74a6.476,6.476,0,0,1,6.469,6.469v5.909a1.542,1.542,0,0,1-1.54,1.54H13.87v13.429h-3.7V165.9H8.325v10.159h-3.7V162.627H3.389a1.542,1.542,0,0,1-1.54-1.54v-5.909a6.491,6.491,0,0,1,.217-1.669l-1.786-.475A8.339,8.339,0,0,0,0,155.178v5.909a3.394,3.394,0,0,0,2.78,3.334V177.9H15.719V164.476h.268a3.392,3.392,0,0,0,3.389-3.389v-5.909a8.33,8.33,0,0,0-5.612-7.863Zm-9.452-5.932a5.361,5.361,0,1,1,5.361,5.361,5.367,5.367,0,0,1-5.361-5.361Z" transform="translate(0 -120.618)"/>
        <path id="Trazado_774496" data-name="Trazado 774496" d="M67.562,316.559H69.41v1.856H67.562Z" transform="translate(-59.237 -280.53)"/>
        <path id="Trazado_774497" data-name="Trazado 774497" d="M67.562,286.621H69.41v1.848H67.562Z" transform="translate(-59.237 -254.281)"/>
        <path id="Trazado_774498" data-name="Trazado 774498" d="M247.5,241.621h1.848v1.848H247.5Z" transform="translate(-217.002 -214.826)"/>
        <path id="Trazado_774499" data-name="Trazado 774499" d="M247.5,271.621h1.848v1.848H247.5Z" transform="translate(-217.002 -241.13)"/>
        <path id="Trazado_774500" data-name="Trazado 774500" d="M428.853,190.918h-1.848v-1.841h1.848Zm0-3.689h-1.848v-1.848h1.848Zm0-3.7h-1.848v-1.848h1.848Z" transform="translate(-374.388 -162.275)" fill="#fff"/>
      </g>
    </g>
  </g>
</svg>
