<svg xmlns="http://www.w3.org/2000/svg" width="91" height="91" viewBox="0 0 91 91">
  <g id="Grupo_1044570" data-name="Grupo 1044570" transform="translate(-860 -4457)">
    <rect id="Rectángulo_356041" data-name="Rectángulo 356041" width="91" height="91" rx="10" transform="translate(860 4457)" fill="#edc1e3"/>
    <g id="Layer_68" transform="translate(869.766 4470)">
      <g id="Grupo_1044569" data-name="Grupo 1044569" transform="translate(4.234 0)">
        <g id="Grupo_1044488" data-name="Grupo 1044488" transform="translate(22.732 61.776)">
          <g id="Grupo_1044487" data-name="Grupo 1044487">
            <g id="Grupo_1044486" data-name="Grupo 1044486">
              <path id="Trazado_774394" data-name="Trazado 774394" d="M97.032,244.877a1.977,1.977,0,0,1-1.586-1.55c0-.036-.071-.036-.071,0a1.977,1.977,0,0,1-1.586,1.55c-.036,0-.036.054,0,.071a1.977,1.977,0,0,1,1.586,1.55c0,.036.071.036.071,0a1.977,1.977,0,0,1,1.586-1.55C97.068,244.931,97.068,244.877,97.032,244.877Z" transform="translate(-93.763 -243.301)" fill="#70d6f9"/>
            </g>
          </g>
        </g>
        <g id="Grupo_1044489" data-name="Grupo 1044489" transform="translate(13.643 21.198)">
          <path id="Trazado_774395" data-name="Trazado 774395" d="M63.3,89.823c.293.107.579.192.857.265h31.5l-4.264-6.6H62.229l-4.264,6.6h1.89a3.621,3.621,0,0,1,3.444-.265Z" transform="translate(-57.965 -83.486)" fill="#f5c84c"/>
        </g>
        <g id="Grupo_1044490" data-name="Grupo 1044490" transform="translate(22.006 8.248)">
          <path id="Trazado_774396" data-name="Trazado 774396" d="M90.9,39.088h20.968l-4.264-6.6H95.166Z" transform="translate(-90.903 -32.486)" fill="#b2e26d"/>
        </g>
        <g id="Grupo_1044491" data-name="Grupo 1044491" transform="translate(29.742 34.147)">
          <path id="Trazado_774397" data-name="Trazado 774397" d="M147.066,134.486H121.478q-.027.533-.106,1.056h0a8.153,8.153,0,0,1,2.084.233.467.467,0,0,1,.34.341,12.926,12.926,0,0,1,.281,4.607,9.2,9.2,0,0,1,1.463.238.534.534,0,0,1,.229.126h25.562Z" transform="translate(-121.371 -134.486)" fill="#fc8c48"/>
        </g>
        <g id="Grupo_1044492" data-name="Grupo 1044492" transform="translate(17.906 14.85)">
          <path id="Trazado_774398" data-name="Trazado 774398" d="M99.825,58.486H78.857l-4.1,6.348h29.167Z" transform="translate(-74.757 -58.486)" fill="#fcdd86"/>
        </g>
        <g id="Grupo_1044493" data-name="Grupo 1044493" transform="translate(19.833 27.799)">
          <path id="Trazado_774399" data-name="Trazado 774399" d="M113.851,109.486h-31.5c2.41.626,4.3.221,6.151,3.058a6.346,6.346,0,0,1,3.295-.057.383.383,0,0,1,.279.28,10.6,10.6,0,0,1,.291,3.067H117.95Z" transform="translate(-82.347 -109.486)" fill="#fca265"/>
        </g>
        <g id="Grupo_1044494" data-name="Grupo 1044494" transform="translate(34.138 40.748)">
          <path id="Trazado_774400" data-name="Trazado 774400" d="M164.247,160.486H138.685a.531.531,0,0,1,.161.266,14.818,14.818,0,0,1,.264,5.738h0a3.623,3.623,0,0,1,.4-.113,3.8,3.8,0,0,1,1.88.081,7.6,7.6,0,0,0,4.282,0,3.726,3.726,0,0,1,3.509.721h0a7.435,7.435,0,0,1,8.31.279h6.87a2.389,2.389,0,0,0,2.007-3.685Z" transform="translate(-138.685 -160.486)" fill="#fc657e"/>
        </g>
        <g id="Grupo_1044495" data-name="Grupo 1044495" transform="translate(26.269 0.635)">
          <path id="Trazado_774401" data-name="Trazado 774401" d="M120.135,10.113l-4.153-6.431a2.4,2.4,0,0,0-4.074-.094l-4.214,6.524h12.441Z" transform="translate(-107.694 -2.499)" fill="#70d6f9"/>
        </g>
        <g id="Grupo_1044496" data-name="Grupo 1044496" transform="translate(15.375 40.353)">
          <path id="Trazado_774402" data-name="Trazado 774402" d="M83.976,165.328a14.819,14.819,0,0,0-.264-5.738.535.535,0,0,0-.39-.392c-1.089-.274-4.8-.936-7.5,1.858a3.451,3.451,0,0,1-1.874,1.012,6.094,6.094,0,0,0-4.59,4.029,4.556,4.556,0,0,1-1.238,1.7c-1.733,1.493-5.164,5.2-2.109,9.111,1.6,2.05,4.5,1.878,7.838.663a15.772,15.772,0,0,0,6.893-4.929C80.3,169.194,81.644,166.116,83.976,165.328Z" transform="translate(-64.789 -158.929)" fill="#87d147"/>
        </g>
        <g id="Grupo_1044497" data-name="Grupo 1044497" transform="translate(0.635 40.353)">
          <path id="Trazado_774403" data-name="Trazado 774403" d="M22.7,176.911c-2.52-3.227-.627-6.312,1.086-8.132a13.642,13.642,0,0,0-1.024-.979,4.556,4.556,0,0,1-1.238-1.7,6.094,6.094,0,0,0-4.59-4.029,3.451,3.451,0,0,1-1.874-1.012c-2.7-2.793-6.411-2.132-7.5-1.858a.536.536,0,0,0-.39.392,15.385,15.385,0,0,0,9.865,17.985c2.685.976,5.083,1.276,6.752.292a3.842,3.842,0,0,1-1.086-.955Z" transform="translate(-6.736 -158.929)" fill="#57af12"/>
        </g>
        <g id="Grupo_1044499" data-name="Grupo 1044499" transform="translate(8.921 27.224)">
          <g id="Grupo_1044498" data-name="Grupo 1044498">
            <path id="Trazado_774404" data-name="Trazado 774404" d="M41.892,112.124a2.467,2.467,0,0,0,1.34.723,4.355,4.355,0,0,1,3.28,2.879,3.256,3.256,0,0,0,.885,1.217,9.744,9.744,0,0,1,.732.7h0a9.8,9.8,0,0,1,.732-.7,3.254,3.254,0,0,0,.885-1.217,4.355,4.355,0,0,1,3.28-2.879,2.467,2.467,0,0,0,1.34-.723,4.821,4.821,0,0,1,2.067-1.269c-2.063-3.167-4.179-2.3-7.009-3.324-3.059-1.112-3.337,1.112-6.4,1.112a4.346,4.346,0,0,0-3.659,2.092A4.855,4.855,0,0,1,41.892,112.124Z" transform="translate(-39.367 -107.219)" fill="#d9f993"/>
          </g>
        </g>
        <g id="Grupo_1044501" data-name="Grupo 1044501" transform="translate(15.673 35.202)">
          <g id="Grupo_1044500" data-name="Grupo 1044500">
            <path id="Trazado_774405" data-name="Trazado 774405" d="M66.945,152.664a13.688,13.688,0,0,1,1.024.979h0a13.645,13.645,0,0,1,1.024-.98,4.556,4.556,0,0,0,1.238-1.7,6.094,6.094,0,0,1,4.59-4.029A3.452,3.452,0,0,0,76.7,145.92a7.354,7.354,0,0,1,6.038-2.1,12.914,12.914,0,0,0-.281-4.607.467.467,0,0,0-.34-.341,6.83,6.83,0,0,0-6.538,1.619,3.007,3.007,0,0,1-1.634.882,5.312,5.312,0,0,0-4,3.512,3.97,3.97,0,0,1-1.079,1.484c-1.078.929-2.908,2.84-2.9,5.1A4.607,4.607,0,0,0,66.945,152.664Z" transform="translate(-65.96 -138.641)" fill="#87d147"/>
          </g>
        </g>
        <g id="Grupo_1044503" data-name="Grupo 1044503" transform="translate(2.826 35.202)">
          <g id="Grupo_1044502" data-name="Grupo 1044502">
            <path id="Trazado_774406" data-name="Trazado 774406" d="M21.494,145.92a3.451,3.451,0,0,0,1.874,1.012,6.094,6.094,0,0,1,4.59,4.029,4.407,4.407,0,0,0,.252.509,6.492,6.492,0,0,1,2.01-4.242,11.893,11.893,0,0,0-.892-.854,3.97,3.97,0,0,1-1.079-1.484,5.312,5.312,0,0,0-4-3.512,3.007,3.007,0,0,1-1.634-.882,6.83,6.83,0,0,0-6.538-1.619.467.467,0,0,0-.34.341,12.92,12.92,0,0,0-.281,4.607,7.354,7.354,0,0,1,6.038,2.1Z" transform="translate(-15.365 -138.641)" fill="#b2e26d"/>
          </g>
        </g>
        <g id="Grupo_1044505" data-name="Grupo 1044505" transform="translate(16.034 30.608)">
          <g id="Grupo_1044504" data-name="Grupo 1044504">
            <path id="Trazado_774407" data-name="Trazado 774407" d="M68.139,132.874a11.847,11.847,0,0,1,.892.854,11.9,11.9,0,0,1,.892-.854A3.97,3.97,0,0,0,71,131.39a5.312,5.312,0,0,1,4-3.512A3.007,3.007,0,0,0,76.638,127a6.192,6.192,0,0,1,4.454-1.853,10.59,10.59,0,0,0-.185-4.123.383.383,0,0,0-.279-.28,5.6,5.6,0,0,0-5.36,1.328,2.467,2.467,0,0,1-1.34.723,4.355,4.355,0,0,0-3.28,2.879,3.256,3.256,0,0,1-.885,1.217c-1.082.932-3.089,3.071-2.125,5.461a4.012,4.012,0,0,0,.5.526Z" transform="translate(-67.384 -120.548)" fill="#b2e26d"/>
          </g>
        </g>
        <g id="Grupo_1044507" data-name="Grupo 1044507" transform="translate(5.501 30.608)">
          <g id="Grupo_1044506" data-name="Grupo 1044506">
            <path id="Trazado_774408" data-name="Trazado 774408" d="M30.473,127a3.008,3.008,0,0,0,1.634.882,5.312,5.312,0,0,1,4,3.512,3.911,3.911,0,0,0,.579.959h0v0c-.692-1.717.12-3.406,1.393-4.759a9.738,9.738,0,0,0-.732-.7,3.254,3.254,0,0,1-.885-1.217,4.355,4.355,0,0,0-3.28-2.879,2.467,2.467,0,0,1-1.34-.723,5.6,5.6,0,0,0-5.36-1.328.383.383,0,0,0-.279.28,10.59,10.59,0,0,0-.185,4.123A6.193,6.193,0,0,1,30.473,127Z" transform="translate(-25.898 -120.547)" fill="#87d147"/>
          </g>
        </g>
        <g id="Grupo_1044508" data-name="Grupo 1044508" transform="translate(14.746 39.72)">
          <path id="Trazado_774409" data-name="Trazado 774409" d="M67.744,177.238a4.873,4.873,0,0,1-4.082-1.8c-1.136-1.455-3.195-5.339,2.2-9.983a3.939,3.939,0,0,0,1.066-1.465,6.735,6.735,0,0,1,5.066-4.411,2.8,2.8,0,0,0,1.529-.828c2.938-3.039,6.952-2.324,8.112-2.032a1.166,1.166,0,0,1,.852.856,15.438,15.438,0,0,1,.287,5.9.635.635,0,0,1-1.257-.182,14.16,14.16,0,0,0-.25-5.355c-1.063-.257-4.413-.8-6.832,1.7a4.068,4.068,0,0,1-2.22,1.2A5.453,5.453,0,0,0,68.1,164.48a5.211,5.211,0,0,1-1.411,1.941c-1.888,1.627-4.661,4.861-2.023,8.24,1.246,1.6,3.576,1.747,7.12.458a15.139,15.139,0,0,0,6.588-4.7.635.635,0,1,1,.986.8,16.41,16.41,0,0,1-7.14,5.09,13.382,13.382,0,0,1-4.473.927Z" transform="translate(-62.312 -156.435)"/>
        </g>
        <g id="Grupo_1044509" data-name="Grupo 1044509" transform="translate(0 39.72)">
          <path id="Trazado_774410" data-name="Trazado 774410" d="M19.422,177.251a13.389,13.389,0,0,1-4.476-.939A15.978,15.978,0,0,1,4.682,157.58a1.166,1.166,0,0,1,.852-.856c1.16-.292,5.173-1.006,8.111,2.032a2.805,2.805,0,0,0,1.529.829A6.736,6.736,0,0,1,20.24,164a3.937,3.937,0,0,0,1.066,1.465c.339.292.668.6.979.928a.635.635,0,0,1-.916.879c-.283-.295-.583-.579-.892-.845a5.207,5.207,0,0,1-1.41-1.941,5.453,5.453,0,0,0-4.115-3.646,4.065,4.065,0,0,1-2.22-1.2c-2.419-2.5-5.77-1.954-6.832-1.7a14.712,14.712,0,0,0,9.48,17.178c2.764,1,4.843,1.127,6.178.362a.635.635,0,1,1,.631,1.1,5.467,5.467,0,0,1-2.767.668Z" transform="translate(-4.234 -156.437)"/>
        </g>
        <g id="Grupo_1044511" data-name="Grupo 1044511" transform="translate(8.376 26.588)">
          <g id="Grupo_1044510" data-name="Grupo 1044510">
            <path id="Trazado_774411" data-name="Trazado 774411" d="M54.758,109.51a.634.634,0,0,1-.527-.281c-1.258-1.872-2.452-2.077-4.105-2.361a14.033,14.033,0,0,1-2.52-.609,3.075,3.075,0,0,0-3.018.275,6.256,6.256,0,0,1-3.161.875,3.687,3.687,0,0,0-3.05,1.691.635.635,0,0,1-1.038-.731,4.909,4.909,0,0,1,4.088-2.23A4.968,4.968,0,0,0,44,105.409a4.277,4.277,0,0,1,4.04-.343,12.783,12.783,0,0,0,2.3.551,6.245,6.245,0,0,1,4.944,2.9.634.634,0,0,1-.527.989Z" transform="translate(-37.222 -104.716)"/>
          </g>
        </g>
        <g id="Grupo_1044513" data-name="Grupo 1044513" transform="translate(15.039 34.569)">
          <g id="Grupo_1044512" data-name="Grupo 1044512">
            <path id="Trazado_774412" data-name="Trazado 774412" d="M64.1,150.158h-.011a.635.635,0,0,1-.623-.646c.044-2.466,1.974-4.491,3.121-5.479a3.352,3.352,0,0,0,.907-1.246,5.95,5.95,0,0,1,4.477-3.894,2.363,2.363,0,0,0,1.288-.7,7.472,7.472,0,0,1,7.149-1.794,1.1,1.1,0,0,1,.8.806,13.554,13.554,0,0,1,.317,4.627.635.635,0,0,1-1.262-.131A12.286,12.286,0,0,0,80,137.608a6.173,6.173,0,0,0-5.829,1.469,3.623,3.623,0,0,1-1.979,1.066,4.676,4.676,0,0,0-3.525,3.13,4.624,4.624,0,0,1-1.252,1.722c-.986.849-2.645,2.569-2.68,4.54a.635.635,0,0,1-.635.623Z" transform="translate(-63.464 -136.148)"/>
          </g>
        </g>
        <g id="Grupo_1044515" data-name="Grupo 1044515" transform="translate(2.191 34.569)">
          <g id="Grupo_1044514" data-name="Grupo 1044514">
            <path id="Trazado_774413" data-name="Trazado 774413" d="M28.19,145.83a.632.632,0,0,1-.453-.19c-.219-.224-.451-.441-.689-.646a4.623,4.623,0,0,1-1.252-1.722,4.675,4.675,0,0,0-3.525-3.13,3.626,3.626,0,0,1-1.979-1.066,6.172,6.172,0,0,0-5.829-1.469,12.277,12.277,0,0,0-.262,4.108.635.635,0,1,1-1.263.132,13.54,13.54,0,0,1,.316-4.641,1.1,1.1,0,0,1,.8-.806,7.471,7.471,0,0,1,7.149,1.794,2.365,2.365,0,0,0,1.288.7,5.95,5.95,0,0,1,4.476,3.894,3.349,3.349,0,0,0,.907,1.246c.265.228.523.47.767.719a.635.635,0,0,1-.453,1.079Z" transform="translate(-12.864 -136.148)"/>
          </g>
        </g>
        <g id="Grupo_1044517" data-name="Grupo 1044517" transform="translate(15.4 29.975)">
          <g id="Grupo_1044516" data-name="Grupo 1044516">
            <path id="Trazado_774414" data-name="Trazado 774414" d="M65.745,131.048a.635.635,0,0,1-.594-.41c-1.051-2.777,1.281-5.185,2.333-6.091a2.635,2.635,0,0,0,.713-.979,4.99,4.99,0,0,1,3.756-3.262,1.825,1.825,0,0,0,.994-.54,6.239,6.239,0,0,1,5.971-1.5,1.014,1.014,0,0,1,.741.745,11.2,11.2,0,0,1,.214,4.242.635.635,0,1,1-1.257-.177,9.944,9.944,0,0,0-.155-3.613,4.921,4.921,0,0,0-4.6,1.188,3.084,3.084,0,0,1-1.685.907,3.726,3.726,0,0,0-2.8,2.5,3.9,3.9,0,0,1-1.057,1.455c-1.055.909-2.715,2.726-1.975,4.68a.635.635,0,0,1-.594.859Z" transform="translate(-64.885 -118.055)"/>
          </g>
        </g>
        <g id="Grupo_1044519" data-name="Grupo 1044519" transform="translate(4.865 29.975)">
          <g id="Grupo_1044518" data-name="Grupo 1044518">
            <path id="Trazado_774415" data-name="Trazado 774415" d="M36.046,126.19a.633.633,0,0,1-.451-.188c-.169-.171-.347-.337-.53-.495a3.91,3.91,0,0,1-1.057-1.455,3.726,3.726,0,0,0-2.8-2.5,3.086,3.086,0,0,1-1.685-.907,4.922,4.922,0,0,0-4.6-1.188,9.935,9.935,0,0,0-.162,3.56.635.635,0,1,1-1.258.17,11.209,11.209,0,0,1,.222-4.182,1.016,1.016,0,0,1,.741-.745,6.239,6.239,0,0,1,5.971,1.5,1.824,1.824,0,0,0,.994.539,4.989,4.989,0,0,1,3.756,3.261,2.633,2.633,0,0,0,.713.979c.208.179.411.368.6.563a.635.635,0,0,1-.451,1.081Z" transform="translate(-23.394 -118.054)"/>
          </g>
        </g>
        <g id="Grupo_1044520" data-name="Grupo 1044520" transform="translate(3.463 44.003)">
          <path id="Trazado_774416" data-name="Trazado 774416" d="M29.785,186.116a.633.633,0,0,1-.1-.008,5.413,5.413,0,0,1-4.175-2.742,6.816,6.816,0,0,0-3.1-2.731c-3.891-1.8-4.511-6.42-4.536-6.616a.635.635,0,0,1,1.26-.158c.008.063.575,4.129,3.808,5.622a8.086,8.086,0,0,1,3.609,3.163,4.164,4.164,0,0,0,3.333,2.209.635.635,0,0,1-.1,1.261Z" transform="translate(-17.871 -173.304)"/>
        </g>
        <g id="Grupo_1044521" data-name="Grupo 1044521" transform="translate(9.024 46.506)">
          <path id="Trazado_774417" data-name="Trazado 774417" d="M40.411,188.605a.635.635,0,0,1-.616-.789,8.261,8.261,0,0,0,.005-3.843.635.635,0,0,1,1.221-.349,9.5,9.5,0,0,1,.005,4.5A.635.635,0,0,1,40.411,188.605Z" transform="translate(-39.775 -183.163)"/>
        </g>
        <g id="Grupo_1044522" data-name="Grupo 1044522" transform="translate(7.634 52.903)">
          <path id="Trazado_774418" data-name="Trazado 774418" d="M34.935,210.182a.635.635,0,0,1,0-1.27,7.844,7.844,0,0,0,2.546-.511.635.635,0,0,1,.472,1.179A9.024,9.024,0,0,1,34.935,210.182Z" transform="translate(-34.3 -208.356)"/>
        </g>
        <g id="Grupo_1044523" data-name="Grupo 1044523" transform="translate(2.349 46.785)">
          <path id="Trazado_774419" data-name="Trazado 774419" d="M14.984,185.654a3.584,3.584,0,0,1-1.063-.157.635.635,0,0,1,.4-1.206,2.305,2.305,0,0,0,1.27,0,.635.635,0,1,1,.4,1.2,3.186,3.186,0,0,1-1.008.157Z" transform="translate(-13.487 -184.259)"/>
        </g>
        <g id="Grupo_1044524" data-name="Grupo 1044524" transform="translate(18.202 44.004)">
          <path id="Trazado_774420" data-name="Trazado 774420" d="M76.556,186.117a.635.635,0,0,1-.1-1.261,4.164,4.164,0,0,0,3.333-2.209,8.085,8.085,0,0,1,3.609-3.163c3.258-1.5,3.8-5.58,3.808-5.621a.635.635,0,1,1,1.26.158c-.024.2-.645,4.82-4.536,6.616a6.814,6.814,0,0,0-3.1,2.731,5.413,5.413,0,0,1-4.175,2.742A.631.631,0,0,1,76.556,186.117Z" transform="translate(-75.921 -173.306)"/>
        </g>
        <g id="Grupo_1044525" data-name="Grupo 1044525" transform="translate(23.671 46.506)">
          <path id="Trazado_774421" data-name="Trazado 774421" d="M98.342,188.605a.635.635,0,0,1-.615-.481,9.506,9.506,0,0,1,.005-4.5.635.635,0,0,1,1.221.348,8.351,8.351,0,0,0,.005,3.844.636.636,0,0,1-.616.789Z" transform="translate(-97.46 -183.164)"/>
        </g>
        <g id="Grupo_1044526" data-name="Grupo 1044526" transform="translate(22.528 52.903)">
          <path id="Trazado_774422" data-name="Trazado 774422" d="M96.373,210.183a9.022,9.022,0,0,1-3.017-.6.635.635,0,0,1,.472-1.179,7.764,7.764,0,0,0,2.545.511.635.635,0,1,1,0,1.27Z" transform="translate(-92.957 -208.357)"/>
        </g>
        <g id="Grupo_1044527" data-name="Grupo 1044527" transform="translate(28.924 46.785)">
          <path id="Trazado_774423" data-name="Trazado 774423" d="M119.592,185.654a3.188,3.188,0,0,1-1.008-.157.635.635,0,1,1,.4-1.2,2.305,2.305,0,0,0,1.271,0,.635.635,0,0,1,.4,1.206A3.584,3.584,0,0,1,119.592,185.654Z" transform="translate(-118.15 -184.26)"/>
        </g>
        <g id="Grupo_1044528" data-name="Grupo 1044528" transform="translate(35.439 42.136)">
          <path id="Trazado_774424" data-name="Trazado 774424" d="M144.148,166.116a.557.557,0,0,0-.34.519,2.028,2.028,0,0,0,2.868,1.834.515.515,0,0,0,.3-.458,2.028,2.028,0,0,0-2.828-1.9Z" transform="translate(-143.808 -165.952)" fill="#b2e26d"/>
        </g>
        <g id="Grupo_1044529" data-name="Grupo 1044529" transform="translate(31.242 46.557)">
          <path id="Trazado_774425" data-name="Trazado 774425" d="M137.179,190.554a7.434,7.434,0,0,1,3.492-6.306,3.727,3.727,0,0,0-3.509-.722,7.6,7.6,0,0,1-4.282,0,3.8,3.8,0,0,0-1.88-.081c-2.785.6-4.346,4.323-3.487,8.318s3.812,6.749,6.6,6.151l.01,0a4.221,4.221,0,0,1,1.8,0l.01,0a4.593,4.593,0,0,0,4.141-1.47,7.429,7.429,0,0,1-2.9-5.89Z" transform="translate(-127.278 -183.364)" fill="#ef4460"/>
        </g>
        <g id="Grupo_1044530" data-name="Grupo 1044530" transform="translate(41.143 46.307)">
          <circle id="Elipse_5016" data-name="Elipse 5016" cx="7.441" cy="7.441" r="7.441" fill="#fc657e"/>
        </g>
        <g id="Grupo_1044531" data-name="Grupo 1044531" transform="translate(43.146 48.575)">
          <path id="Trazado_774426" data-name="Trazado 774426" d="M178.648,195.609v-3.676a.622.622,0,0,0-.824-.589,5.439,5.439,0,0,0-3.533,6.308.623.623,0,0,0,.92.408l3.033-1.751A.808.808,0,0,0,178.648,195.609Z" transform="translate(-174.164 -191.31)" fill="#ef4460"/>
        </g>
        <g id="Grupo_1044532" data-name="Grupo 1044532" transform="translate(49.538 48.575)">
          <path id="Trazado_774427" data-name="Trazado 774427" d="M199.742,196.308l3.033,1.751a.623.623,0,0,0,.92-.408,5.439,5.439,0,0,0-3.533-6.308.622.622,0,0,0-.824.589v3.676A.807.807,0,0,0,199.742,196.308Z" transform="translate(-199.338 -191.31)" fill="#ef4460"/>
        </g>
        <g id="Grupo_1044533" data-name="Grupo 1044533" transform="translate(44.912 55.117)">
          <path id="Trazado_774428" data-name="Trazado 774428" d="M184.385,217.185l-2.958,1.708a.623.623,0,0,0-.084,1.02,5.433,5.433,0,0,0,6.892,0,.623.623,0,0,0-.084-1.02l-2.958-1.708A.808.808,0,0,0,184.385,217.185Z" transform="translate(-181.116 -217.077)" fill="#ef4460"/>
        </g>
        <g id="Grupo_1044534" data-name="Grupo 1044534" transform="translate(38.351 43.064)">
          <path id="Trazado_774429" data-name="Trazado 774429" d="M155.913,173.568a.635.635,0,0,1-.635-.635v-.31a3.221,3.221,0,0,1,1.954-2.964.635.635,0,1,1,.5,1.167,1.953,1.953,0,0,0-1.185,1.8v.31A.634.634,0,0,1,155.913,173.568Z" transform="translate(-155.278 -169.608)"/>
        </g>
        <g id="Grupo_1044535" data-name="Grupo 1044535" transform="translate(34.804 41.501)">
          <path id="Trazado_774430" data-name="Trazado 774430" d="M143.968,167.423a2.666,2.666,0,0,1-2.66-2.648,1.193,1.193,0,0,1,.725-1.107h0a2.663,2.663,0,0,1,3.713,2.488,1.15,1.15,0,0,1-.672,1.027A2.676,2.676,0,0,1,143.968,167.423Zm-1.39-2.607a1.393,1.393,0,1,0,1.268.133,1.391,1.391,0,0,0-1.268-.133Z" transform="translate(-141.308 -163.451)"/>
        </g>
        <g id="Grupo_1044536" data-name="Grupo 1044536" transform="translate(30.61 45.921)">
          <path id="Trazado_774431" data-name="Trazado 774431" d="M134.856,196.763a4.329,4.329,0,0,1-.91-.1l-.021,0a3.573,3.573,0,0,0-1.526,0l-.011,0c-3.126.669-6.42-2.307-7.351-6.638s.852-8.4,3.974-9.072a4.432,4.432,0,0,1,2.192.093,6.974,6.974,0,0,0,3.925,0,4.353,4.353,0,0,1,3.929.713.635.635,0,0,1-.767,1.012,3.12,3.12,0,0,0-1.236-.576,3.172,3.172,0,0,0-1.569.07,8.231,8.231,0,0,1-4.638,0,3.171,3.171,0,0,0-1.569-.07c-2.438.524-3.784,3.917-3,7.564s3.4,6.188,5.843,5.663l.011,0a4.843,4.843,0,0,1,2.068,0l.01,0a3.912,3.912,0,0,0,3.485-1.227.635.635,0,0,1,.872.923,5.446,5.446,0,0,1-3.711,1.643Z" transform="translate(-124.789 -180.86)"/>
        </g>
        <g id="Grupo_1044537" data-name="Grupo 1044537" transform="translate(40.508 45.672)">
          <path id="Trazado_774432" data-name="Trazado 774432" d="M171.85,196.028a8.076,8.076,0,1,1,8.076-8.076A8.085,8.085,0,0,1,171.85,196.028Zm0-14.882a6.806,6.806,0,1,0,6.806,6.806A6.814,6.814,0,0,0,171.85,181.146Z" transform="translate(-163.774 -179.876)"/>
        </g>
        <g id="Grupo_1044538" data-name="Grupo 1044538" transform="translate(42.511 47.94)">
          <path id="Trazado_774433" data-name="Trazado 774433" d="M173.036,196.915a1.264,1.264,0,0,1-1.231-.99,6.073,6.073,0,0,1,3.945-7.044,1.257,1.257,0,0,1,1.666,1.189v3.676a1.447,1.447,0,0,1-.721,1.249l-3.033,1.751A1.248,1.248,0,0,1,173.036,196.915Zm3.111-6.846a4.826,4.826,0,0,0-3.1,5.582l3.016-1.757a.174.174,0,0,0,.086-.15Z" transform="translate(-171.663 -188.811)"/>
        </g>
        <g id="Grupo_1044539" data-name="Grupo 1044539" transform="translate(48.903 47.941)">
          <path id="Trazado_774434" data-name="Trazado 774434" d="M201.219,196.916a1.253,1.253,0,0,1-.626-.169l-3.033-1.751a1.446,1.446,0,0,1-.721-1.249V190.07a1.257,1.257,0,0,1,1.666-1.189,6.073,6.073,0,0,1,3.945,7.044,1.263,1.263,0,0,1-1.23.99Zm-3.025-3.02,3.033,1.751a6.087,6.087,0,0,0,.095-1.027,4.8,4.8,0,0,0-3.232-4.539l.018,3.665A.173.173,0,0,0,198.194,193.9Z" transform="translate(-196.838 -188.812)"/>
        </g>
        <g id="Grupo_1044540" data-name="Grupo 1044540" transform="translate(44.277 54.483)">
          <path id="Trazado_774435" data-name="Trazado 774435" d="M182.924,219.917a6.08,6.08,0,0,1-3.848-1.376,1.257,1.257,0,0,1,.17-2.06l2.957-1.708a1.445,1.445,0,0,1,1.442,0l2.957,1.708a1.257,1.257,0,0,1,.17,2.06A6.08,6.08,0,0,1,182.924,219.917Zm0-4.068a.172.172,0,0,0-.086.023l-2.958,1.708a4.913,4.913,0,0,0,3.044,1.068,4.808,4.808,0,0,0,3.043-1.088l-2.957-1.687A.172.172,0,0,0,182.923,215.849Z" transform="translate(-178.616 -214.58)"/>
        </g>
        <g id="Grupo_1044541" data-name="Grupo 1044541" transform="translate(42.601 37.721)">
          <circle id="Elipse_5017" data-name="Elipse 5017" cx="1.939" cy="1.939" r="1.939" fill="#fc657e"/>
        </g>
        <g id="Grupo_1044542" data-name="Grupo 1044542" transform="translate(37.884 35.962)">
          <circle id="Elipse_5018" data-name="Elipse 5018" cx="1.939" cy="1.939" r="1.939" fill="#fc657e"/>
        </g>
        <g id="Grupo_1044543" data-name="Grupo 1044543" transform="translate(41.965 37.085)">
          <path id="Trazado_774436" data-name="Trazado 774436" d="M172.089,151.206a2.578,2.578,0,1,1,1.108-.253A2.574,2.574,0,0,1,172.089,151.206Zm0-3.879a1.306,1.306,0,1,0,.435.075A1.3,1.3,0,0,0,172.086,147.327Zm-1.827.659h0Z" transform="translate(-169.512 -146.057)"/>
        </g>
        <g id="Grupo_1044544" data-name="Grupo 1044544" transform="translate(37.249 35.325)">
          <path id="Trazado_774437" data-name="Trazado 774437" d="M153.511,144.276a2.578,2.578,0,1,1,1.108-.253A2.573,2.573,0,0,1,153.511,144.276Zm0-3.879a1.306,1.306,0,1,0,.435.075A1.3,1.3,0,0,0,153.508,140.4Z" transform="translate(-150.936 -139.127)"/>
        </g>
        <g id="Grupo_1044545" data-name="Grupo 1044545" transform="translate(40.746 31.763)">
          <path id="Trazado_774438" data-name="Trazado 774438" d="M165.344,130.6a.635.635,0,0,1-.432-1.1,15.275,15.275,0,0,0,3.1-4.066.635.635,0,0,1,1.125.588,16.568,16.568,0,0,1-3.362,4.408A.632.632,0,0,1,165.344,130.6Z" transform="translate(-164.709 -125.098)"/>
        </g>
        <g id="Grupo_1044546" data-name="Grupo 1044546" transform="translate(43.351 33.185)">
          <path id="Trazado_774439" data-name="Trazado 774439" d="M176.454,135.848h-.027a.635.635,0,0,1-.607-.661,6.548,6.548,0,0,0-.762-3.536.635.635,0,1,1,1.1-.638,7.848,7.848,0,0,1,.933,4.228A.635.635,0,0,1,176.454,135.848Z" transform="translate(-174.971 -130.696)"/>
        </g>
        <g id="Grupo_1044548" data-name="Grupo 1044548" transform="translate(12.527)">
          <g id="Grupo_1044547" data-name="Grupo 1044547">
            <path id="Trazado_774440" data-name="Trazado 774440" d="M100.859,48.355H94.145a.635.635,0,0,1,0-1.27h6.714a1.755,1.755,0,0,0,1.473-2.707L75.067,2.162A1.854,1.854,0,0,0,73.5,1.27a1.7,1.7,0,0,0-1.442.8L54.738,28.888a.635.635,0,0,1-1.067-.689L70.993,1.38A2.982,2.982,0,0,1,73.5,0a3.143,3.143,0,0,1,2.632,1.473L103.4,43.69a3.024,3.024,0,0,1-2.54,4.665Z" transform="translate(-53.57 0)"/>
          </g>
        </g>
        <g id="Grupo_1044549" data-name="Grupo 1044549" transform="translate(17.412 20.563)">
          <path id="Trazado_774441" data-name="Trazado 774441" d="M102.334,82.256H73.447a.635.635,0,0,1,0-1.27h28.887a.635.635,0,0,1,0,1.27Z" transform="translate(-72.812 -80.986)"/>
        </g>
        <g id="Grupo_1044550" data-name="Grupo 1044550" transform="translate(19.28 27.164)">
          <path id="Trazado_774442" data-name="Trazado 774442" d="M112.085,108.256H80.8a.635.635,0,0,1,0-1.27h31.283a.635.635,0,0,1,0,1.27Z" transform="translate(-80.167 -106.986)"/>
        </g>
        <g id="Grupo_1044551" data-name="Grupo 1044551" transform="translate(21.491 14.215)">
          <path id="Trazado_774443" data-name="Trazado 774443" d="M110.251,57.256H89.51a.635.635,0,0,1,0-1.27h20.741a.635.635,0,0,1,0,1.27Z" transform="translate(-88.875 -55.986)"/>
        </g>
        <g id="Grupo_1044552" data-name="Grupo 1044552" transform="translate(25.733 7.614)">
          <path id="Trazado_774444" data-name="Trazado 774444" d="M118.416,31.256h-12.2a.635.635,0,0,1,0-1.27h12.2a.635.635,0,0,1,0,1.27Z" transform="translate(-105.583 -29.986)"/>
        </g>
        <g id="Grupo_1044553" data-name="Grupo 1044553" transform="translate(33.619 40.114)">
          <path id="Trazado_774445" data-name="Trazado 774445" d="M140.044,159.256h-2.77a.635.635,0,0,1,0-1.27h2.77a.635.635,0,0,1,0,1.27Z" transform="translate(-136.639 -157.986)"/>
        </g>
        <g id="Grupo_1044554" data-name="Grupo 1044554" transform="translate(29.387 33.512)">
          <path id="Trazado_774446" data-name="Trazado 774446" d="M130.71,133.256h-10.1a.635.635,0,1,1,0-1.27h10.1a.635.635,0,0,1,0,1.27Z" transform="translate(-119.972 -131.986)"/>
        </g>
        <g id="Grupo_1044555" data-name="Grupo 1044555" transform="translate(46.098 33.512)">
          <path id="Trazado_774447" data-name="Trazado 774447" d="M195.008,133.256h-8.583a.635.635,0,0,1,0-1.27h8.583a.635.635,0,0,1,0,1.27Z" transform="translate(-185.79 -131.986)"/>
        </g>
        <g id="Grupo_1044556" data-name="Grupo 1044556" transform="translate(48.011 40.114)">
          <path id="Trazado_774448" data-name="Trazado 774448" d="M204.916,159.256H193.959a.635.635,0,0,1,0-1.27h10.957a.635.635,0,0,1,0,1.27Z" transform="translate(-193.324 -157.986)"/>
        </g>
        <g id="Grupo_1044559" data-name="Grupo 1044559" transform="translate(43.468 5.503)">
          <g id="Grupo_1044558" data-name="Grupo 1044558">
            <g id="Grupo_1044557" data-name="Grupo 1044557">
              <path id="Trazado_774449" data-name="Trazado 774449" d="M176.243,24.7h.584v.584a.818.818,0,0,0,.813.813.8.8,0,0,0,.813-.812V24.7h.584a.818.818,0,0,0,.813-.812.8.8,0,0,0-.812-.812h-.584v-.584a.818.818,0,0,0-.812-.812.8.8,0,0,0-.812.813v.584h-.584a.818.818,0,0,0-.812.813A.8.8,0,0,0,176.243,24.7Z" transform="translate(-175.431 -21.675)" fill="#87d147"/>
            </g>
          </g>
        </g>
        <g id="Grupo_1044562" data-name="Grupo 1044562" transform="translate(11.781 19.293)">
          <g id="Grupo_1044561" data-name="Grupo 1044561">
            <g id="Grupo_1044560" data-name="Grupo 1044560">
              <circle id="Elipse_5019" data-name="Elipse 5019" cx="0.863" cy="0.863" r="0.863" fill="#fc657e"/>
            </g>
          </g>
        </g>
        <g id="Grupo_1044565" data-name="Grupo 1044565" transform="translate(48.089 12.692)">
          <g id="Grupo_1044564" data-name="Grupo 1044564">
            <g id="Grupo_1044563" data-name="Grupo 1044563">
              <circle id="Elipse_5020" data-name="Elipse 5020" cx="0.863" cy="0.863" r="0.863" fill="#f5c84c"/>
            </g>
          </g>
        </g>
        <g id="Grupo_1044568" data-name="Grupo 1044568" transform="translate(5.856 22.17)">
          <g id="Grupo_1044567" data-name="Grupo 1044567">
            <g id="Grupo_1044566" data-name="Grupo 1044566">
              <path id="Trazado_774450" data-name="Trazado 774450" d="M27.336,89.564a2.818,2.818,0,0,0,2.26-2.209c0-.051.1-.051.1,0a2.818,2.818,0,0,0,2.26,2.209c.051,0,.051.076,0,.1a2.818,2.818,0,0,0-2.26,2.209c0,.051-.1.051-.1,0a2.818,2.818,0,0,0-2.26-2.209C27.285,89.64,27.285,89.564,27.336,89.564Z" transform="translate(-27.298 -87.317)" fill="#f5c84c"/>
            </g>
          </g>
        </g>
      </g>
    </g>
  </g>
</svg>
